# Blender 4.1.1
# www.blender.org
mtllib ID212.mtl
o n13b1
v 145.169998 34.006203 65.223503
v 139.794006 33.214607 78.658394
v 131.358994 31.888506 93.395096
v 125.759995 30.697508 105.884003
v 124.122002 30.226305 111.762993
v 124.122002 30.226305 111.762993
v 122.842003 29.827909 118.473999
v 122.842003 29.827909 118.473999
v 122.512993 29.988508 125.941002
v 123.808998 30.522108 132.656006
v 133.835999 33.398308 146.882996
v 146.806000 34.736012 165.419998
v 154.380997 35.270714 185.123993
v 156.763000 34.625015 204.163010
v 153.722000 33.579716 225.009003
v 145.259003 32.207718 245.845001
v 131.772003 30.593616 264.592987
v 113.906998 28.768118 279.587006
v 92.973793 26.805521 289.733002
v 70.436195 24.758421 294.278992
v 47.841297 22.673223 292.704987
v 26.947399 20.544720 285.484985
v 8.636621 18.020920 274.576996
v -6.391700 15.967520 259.287994
v -10.947800 14.909618 251.582001
v -12.843299 14.523117 240.970001
v 145.145004 37.076004 65.272003
v 139.748001 36.288506 78.722702
v 131.270004 34.963505 93.493591
v 125.686996 33.777008 105.979996
v 124.076996 33.230904 111.812996
v 124.076996 33.230904 111.812996
v 122.819000 32.913105 118.422997
v 122.819000 32.913105 118.422997
v 122.447998 33.057106 125.796997
v 123.669998 33.576309 132.436005
v 133.587006 36.432610 146.632996
v 146.707001 37.811108 165.345993
v 154.246002 38.345116 185.135986
v 156.639999 37.701714 204.212997
v 153.606003 36.655811 225.083008
v 145.154999 35.283916 245.929993
v 131.667999 33.664318 264.681000
v 113.787994 31.834419 279.665009
v 92.842995 29.864519 289.787994
v 70.296997 27.807522 294.306000
v 47.702698 25.622622 292.699005
v 26.817900 23.586021 285.445007
v 8.536671 21.081720 274.505005
v -6.461870 19.050518 259.210999
v -11.010699 18.003319 251.504990
v -12.883900 17.632618 240.875992
v -20.167000 15.457214 202.717010
v -18.105101 15.457212 180.307007
v -20.167000 38.328213 202.717010
v -18.105101 38.328213 180.307007
v -23.537399 16.046316 227.023010
v -20.386799 16.046314 204.739990
v -23.537399 38.917313 227.023010
v -20.386799 38.917313 204.739990
v -33.208897 17.054018 251.347000
v -25.781298 17.054016 230.102997
v -33.208897 39.925018 251.347000
v -25.781298 39.925018 230.102997
v -44.204697 17.322817 264.415009
v -44.204697 40.193916 264.415009
v -35.576000 40.193916 253.388992
v -35.753799 17.322817 253.615997
v -68.540398 16.596519 274.636993
v -47.765297 16.596519 265.984985
v -68.540398 39.467518 274.636993
v -47.765297 39.467518 265.984985
vn -0.8825 -0.0241 0.4697
vn -0.9695 -0.0375 0.2422
vn -0.9694 -0.0433 0.2415
vn -0.8825 -0.0170 0.4700
vn -0.8181 -0.0118 0.5749
vn -0.9098 -0.0034 -0.4150
vn -0.9282 -0.0037 -0.3722
vn -0.8896 -0.0058 -0.4567
vn -0.9280 -0.0017 -0.3725
vn -0.8833 -0.0082 -0.4687
vn -0.8983 -0.0104 -0.4392
vn -0.9317 -0.0124 -0.3630
vn -0.9486 -0.0113 -0.3162
vn -0.9633 -0.0122 -0.2682
vn -0.9631 -0.0099 -0.2691
vn -0.9822 -0.0108 -0.1877
vn -0.9822 -0.0113 -0.1874
vn -0.9822 -0.0107 -0.1878
vn -0.9821 -0.0101 -0.1880
vn -0.9938 -0.0225 0.1086
vn -0.9994 -0.0145 0.0324
vn -0.9463 -0.0134 0.3230
vn -0.9988 -0.0157 -0.0469
vn -0.8909 -0.0160 0.4540
vn -0.8179 -0.0194 0.5751
vn -0.9986 -0.0413 0.0336
vn -0.9977 -0.0379 -0.0567
vn -0.9740 -0.0325 -0.2243
vn -0.9529 -0.0271 -0.3021
vn -0.8932 -0.0196 -0.4492
vn -0.8548 -0.0146 -0.5187
vn -0.7602 -0.0074 -0.6497
vn -0.7036 -0.0054 -0.7106
vn -0.5774 0.0002 -0.8165
vn -0.5081 -0.0006 -0.8613
vn -0.3588 0.0043 -0.9334
vn -0.2789 0.0021 -0.9603
vn -0.1093 0.0069 -0.9940
vn -0.0197 0.0041 -0.9998
vn 0.1566 0.0088 -0.9876
vn 0.2428 0.0053 -0.9701
vn 0.3904 0.0085 -0.9206
vn 0.4525 0.0029 -0.8918
vn 0.5837 0.0046 -0.8120
vn 0.6511 0.0007 -0.7590
vn 0.7675 0.0041 -0.6410
vn 0.8168 0.0034 -0.5769
vn 0.9150 0.0092 -0.4032
vn 0.9568 0.0094 -0.2907
vn 0.9845 0.0116 -0.1751
vn 0.9843 0.0075 -0.1761
vn 0.9958 -0.0000 0.0916
vn 0.9902 -0.0000 0.1400
vn 0.9440 -0.0000 0.3300
vn 0.7875 -0.0000 0.6163
vn 0.3845 -0.0000 0.9231
vn -0.9990 -0.0082 -0.0438
vt -10.680799 0.125000
vt -10.248500 0.000000
vt -10.248500 0.125000
vt -10.680799 0.000000
vt -11.174900 0.000000
vt -12.750199 0.125000
vt -13.000000 0.000000
vt -12.750199 0.000000
vt -13.000000 0.125000
vt -12.428900 0.125000
vt -12.428900 0.000000
vt -12.163099 0.125000
vt -12.163099 0.000000
vt -12.039499 0.125000
vt -12.039499 0.000000
vt -12.039300 0.000000
vt -11.914700 0.125000
vt -12.039300 0.125000
vt -11.914700 0.000000
vt -11.730700 0.125000
vt -11.730700 0.000000
vt -11.545500 0.000000
vt -11.916000 0.125000
vt -11.545500 0.125000
vt -11.174900 0.125000
vt -9.877920 0.125000
vt -9.877920 0.000000
vt -9.445590 0.125000
vt -9.445590 0.000000
vt -9.013269 0.125000
vt -9.013269 0.000000
vt -8.580940 0.125000
vt -8.580940 0.000000
vt -8.148620 0.125000
vt -8.148620 0.000000
vt -7.654530 0.125000
vt -7.654530 0.000000
vt -7.160450 0.125000
vt -7.160450 0.000000
vt -6.666360 0.125000
vt -6.666360 0.000000
vt -6.234040 0.125000
vt -6.234040 0.000000
vt -5.712120 0.125000
vt -5.712120 0.000000
vt -5.307630 0.125000
vt -5.307630 0.000000
vt -5.184110 0.125000
vt -5.184110 0.000000
vt -5.000000 0.125000
vt -5.000000 0.000000
vt 0.227292 0.976560
vt 0.004979 0.279226
vt 0.004979 0.976560
vt 0.227292 0.279226
vt 0.441346 0.976560
vt 0.225143 0.279226
vt 0.225143 0.976560
vt 0.441346 0.279226
vt 0.643339 0.976560
vt 0.433344 0.279226
vt 0.433344 0.976560
vt 0.643339 0.279226
vt 0.794286 0.976560
vt 0.651286 0.279226
vt 0.648594 0.976560
vt 0.794286 0.279226
vt 0.997799 0.976560
vt 0.787804 0.279226
vt 0.787804 0.976560
vt 0.997799 0.279226
vt -11.916000 0.000000
s 1
usemtl m13
f 38/1/1 13/2/2 39/3/3
f 13/2/2 38/1/1 12/4/4
f 11/5/5 12/4/4 38/1/1
f 28/6/6 1/7/7 2/8/8
f 1/7/7 28/6/6 27/9/9
f 29/10/10 2/8/8 3/11/11
f 2/8/8 29/10/10 28/6/6
f 30/12/12 3/11/11 4/13/13
f 3/11/11 30/12/12 29/10/10
f 31/14/14 4/13/13 5/15/15
f 4/13/13 31/14/14 30/12/12
s 0
f 6/16/16 33/17/16 32/18/17
f 33/17/18 6/16/18 7/19/19
s 1
f 35/20/20 9/21/21 10/22/22
f 9/21/21 35/20/20 34/23/23
f 36/24/24 10/22/22 11/5/5
f 10/22/22 36/24/24 35/20/20
f 37/25/25 11/5/5 38/1/1
f 11/5/5 37/25/25 36/24/24
f 40/26/26 13/2/2 14/27/27
f 13/2/2 40/26/26 39/3/3
f 41/28/28 14/27/27 15/29/29
f 14/27/27 41/28/28 40/26/26
f 42/30/30 15/29/29 16/31/31
f 15/29/29 42/30/30 41/28/28
f 43/32/32 16/31/31 17/33/33
f 16/31/31 43/32/32 42/30/30
f 44/34/34 17/33/33 18/35/35
f 17/33/33 44/34/34 43/32/32
f 45/36/36 18/35/35 19/37/37
f 18/35/35 45/36/36 44/34/34
f 46/38/38 19/37/37 20/39/39
f 19/37/37 46/38/38 45/36/36
f 47/40/40 20/39/39 21/41/41
f 20/39/39 47/40/40 46/38/38
f 48/42/42 21/41/41 22/43/43
f 21/41/41 48/42/42 47/40/40
f 49/44/44 22/43/43 23/45/45
f 22/43/43 49/44/44 48/42/42
f 50/46/46 23/45/45 24/47/47
f 23/45/45 50/46/46 49/44/44
f 51/48/48 24/47/47 25/49/49
f 24/47/47 51/48/48 50/46/46
f 52/50/50 25/49/49 26/51/51
f 25/49/49 52/50/50 51/48/48
s 0
f 55/52/52 54/53/52 56/54/52
f 54/53/52 55/52/52 53/55/52
f 59/56/53 58/57/53 60/58/53
f 58/57/53 59/56/53 57/59/53
f 63/60/54 62/61/54 64/62/54
f 62/61/54 63/60/54 61/63/54
f 66/64/55 68/65/55 67/66/55
f 68/65/55 66/64/55 65/67/55
f 71/68/56 70/69/56 72/70/56
f 70/69/56 71/68/56 69/71/56
s 1
f 8/72/57 9/21/21 34/23/23
