# Blender 4.1.1
# www.blender.org
mtllib Circle.738.mtl
o Circle.026
v -601.966370 199.096817 -4261.198242
v -604.136108 199.096817 -4260.984863
v -606.222473 199.096817 -4260.351562
v -608.145264 199.096817 -4259.324219
v -609.830566 199.096817 -4257.940918
v -611.213684 199.096817 -4256.255371
v -612.241455 199.096817 -4254.332520
v -612.874329 199.096817 -4252.246582
v -613.088074 199.096817 -4250.076660
v -612.874329 199.096817 -4247.906738
v -612.241455 199.096817 -4245.820801
v -611.213684 199.096817 -4243.897949
v -609.830566 199.096817 -4242.212402
v -608.145264 199.096817 -4240.829102
v -606.222473 199.096817 -4239.801758
v -604.136108 199.096817 -4239.168457
v -601.966370 199.096817 -4238.955078
v -599.796631 199.096817 -4239.168457
v -597.710266 199.096817 -4239.801758
v -595.787476 199.096817 -4240.829102
v -594.102173 199.096817 -4242.212402
v -592.719055 199.096817 -4243.897949
v -591.691284 199.096817 -4245.820801
v -591.058411 199.096817 -4247.906738
v -590.844666 199.096817 -4250.076660
v -591.058411 199.096817 -4252.246582
v -591.691284 199.096817 -4254.332520
v -592.719055 199.096817 -4256.255371
v -594.102173 199.096817 -4257.940918
v -595.787476 199.096817 -4259.324219
v -597.710266 199.096817 -4260.351562
v -599.796631 199.096817 -4260.984863
v -604.136108 199.096817 -4260.984863
v -601.966370 199.096817 -4261.198242
v -606.222473 199.096817 -4260.351562
v -608.145264 199.096817 -4259.324219
v -609.830566 199.096817 -4257.940918
v -611.213684 199.096817 -4256.255371
v -612.241455 199.096817 -4254.332520
v -612.874329 199.096817 -4252.246582
v -613.088074 199.096817 -4250.076660
v -612.874329 199.096817 -4247.906738
v -612.241455 199.096817 -4245.820801
v -611.213684 199.096817 -4243.897949
v -609.830566 199.096817 -4242.212402
v -608.145264 199.096817 -4240.829102
v -606.222473 199.096817 -4239.801758
v -604.136108 199.096817 -4239.168457
v -601.966370 199.096817 -4238.955078
v -599.796631 199.096817 -4239.168457
v -597.710266 199.096817 -4239.801758
v -595.787476 199.096817 -4240.829102
v -594.102173 199.096817 -4242.212402
v -592.719055 199.096817 -4243.897949
v -591.691284 199.096817 -4245.820801
v -591.058411 199.096817 -4247.906738
v -590.844666 199.096817 -4250.076660
v -591.058411 199.096817 -4252.246582
v -591.691284 199.096817 -4254.332520
v -592.719055 199.096817 -4256.255371
v -594.102173 199.096817 -4257.940918
v -595.787476 199.096817 -4259.324219
v -597.710266 199.096817 -4260.351562
v -599.796631 199.096817 -4260.984863
v -604.136108 228.458054 -4260.984863
v -601.966370 228.458054 -4261.198242
v -606.222473 228.458054 -4260.351562
v -608.145264 228.458054 -4259.324219
v -609.830566 228.458054 -4257.940918
v -611.213684 228.458054 -4256.255371
v -612.241455 228.458054 -4254.332520
v -612.874329 228.458054 -4252.246582
v -613.088074 228.458054 -4250.076660
v -612.874329 228.458054 -4247.906738
v -612.241455 228.458054 -4245.820801
v -611.213684 228.458054 -4243.897949
v -609.830566 228.458054 -4242.212402
v -608.145264 228.458054 -4240.829102
v -606.222473 228.458054 -4239.801758
v -604.136108 228.458054 -4239.168457
v -601.966370 228.458054 -4238.955078
v -599.796631 228.458054 -4239.168457
v -597.710266 228.458054 -4239.801758
v -595.787476 228.458054 -4240.829102
v -594.102173 228.458054 -4242.212402
v -592.719055 228.458054 -4243.897949
v -591.691284 228.458054 -4245.820801
v -591.058411 228.458054 -4247.906738
v -590.844666 228.458054 -4250.076660
v -591.058411 228.458054 -4252.246582
v -591.691284 228.458054 -4254.332520
v -592.719055 228.458054 -4256.255371
v -594.102173 228.458054 -4257.940918
v -595.787476 228.458054 -4259.324219
v -597.710266 228.458054 -4260.351562
v -599.796631 228.458054 -4260.984863
v -605.631714 229.809250 -4268.505371
v -601.966125 229.809250 -4268.866211
v -609.156494 229.809250 -4267.436035
v -612.404907 229.809250 -4265.699707
v -615.252136 229.809250 -4263.363281
v -617.588806 229.809250 -4260.516113
v -619.325134 229.809250 -4257.267578
v -620.394348 229.809250 -4253.742676
v -620.755371 229.809250 -4250.077148
v -620.394348 229.809250 -4246.411621
v -619.325134 229.809250 -4242.886719
v -617.588806 229.809250 -4239.638184
v -615.252136 229.809250 -4236.791016
v -612.404907 229.809250 -4234.454590
v -609.156494 229.809250 -4232.718262
v -605.631714 229.809250 -4231.648926
v -601.966125 229.809250 -4231.288086
v -598.300537 229.809250 -4231.648926
v -594.775818 229.809250 -4232.718262
v -591.527405 229.809250 -4234.454590
v -588.680115 229.809250 -4236.791016
v -586.343445 229.809250 -4239.638184
v -584.607117 229.809250 -4242.886719
v -583.537903 229.809250 -4246.411621
v -583.176880 229.809250 -4250.077148
v -583.537903 229.809250 -4253.742676
v -584.607117 229.809250 -4257.267578
v -586.343445 229.809250 -4260.516113
v -588.680115 229.809250 -4263.363281
v -591.527405 229.809250 -4265.699707
v -594.775818 229.809250 -4267.436035
v -598.300537 229.809250 -4268.505371
v -605.631714 239.774979 -4268.505371
v -601.966125 239.774979 -4268.866211
v -609.156494 239.774979 -4267.436035
v -612.404907 239.774979 -4265.699707
v -615.252136 239.774979 -4263.363281
v -617.588806 239.774979 -4260.516113
v -619.325134 239.774979 -4257.267578
v -620.394348 239.774979 -4253.742676
v -620.755371 239.774979 -4250.077148
v -620.394348 239.774979 -4246.411621
v -619.325134 239.774979 -4242.886719
v -617.588806 239.774979 -4239.638184
v -615.252136 239.774979 -4236.791016
v -612.404907 239.774979 -4234.454590
v -609.156494 239.774979 -4232.718262
v -605.631714 239.774979 -4231.648926
v -601.966125 239.774979 -4231.288086
v -598.300537 239.774979 -4231.648926
v -594.775818 239.774979 -4232.718262
v -591.527405 239.774979 -4234.454590
v -588.680115 239.774979 -4236.791016
v -586.343445 239.774979 -4239.638184
v -584.607117 239.774979 -4242.886719
v -583.537903 239.774979 -4246.411621
v -583.176880 239.774979 -4250.077148
v -583.537903 239.774979 -4253.742676
v -584.607117 239.774979 -4257.267578
v -586.343445 239.774979 -4260.516113
v -588.680115 239.774979 -4263.363281
v -591.527405 239.774979 -4265.699707
v -594.775818 239.774979 -4267.436035
v -598.300537 239.774979 -4268.505371
vn -0.0000 -1.0000 -0.0000
vn -0.0979 -0.0000 0.9952
vn -0.0000 1.0000 -0.0000
vn 0.0822 -0.9847 0.1538
vn -0.4713 -0.0000 -0.8820
vn 0.4712 -0.0000 -0.8820
vn 0.0979 -0.0000 0.9952
vn -0.6344 -0.0000 -0.7730
vn 0.2905 -0.0000 -0.9569
vn 0.2904 -0.0000 0.9569
vn -0.7731 -0.0000 -0.6343
vn 0.0979 -0.0000 -0.9952
vn 0.4713 -0.0000 0.8820
vn -0.8820 -0.0000 -0.4713
vn 0.6345 -0.0000 0.7730
vn -0.9569 -0.0000 -0.2903
vn 0.7731 -0.0000 0.6343
vn -0.9952 -0.0000 -0.0981
vn 0.8819 -0.0000 0.4714
vn -0.9952 -0.0000 0.0980
vn 0.9569 -0.0000 0.2903
vn -0.9569 -0.0000 0.2903
vn 0.9952 -0.0000 0.0980
vn -0.8819 -0.0000 0.4714
vn 0.9952 -0.0000 -0.0981
vn -0.7730 -0.0000 0.6344
vn 0.9569 -0.0000 -0.2904
vn -0.6345 -0.0000 0.7730
vn 0.8819 -0.0000 -0.4714
vn -0.4712 -0.0000 0.8820
vn -0.0979 -0.0000 -0.9952
vn 0.7731 -0.0000 -0.6343
vn -0.2905 -0.0000 0.9569
vn -0.2905 -0.0000 -0.9569
vn 0.6344 -0.0000 -0.7730
vn -0.1538 -0.9847 -0.0822
vn 0.1106 -0.9847 0.1348
vn -0.1669 -0.9847 -0.0506
vn 0.1348 -0.9847 0.1106
vn -0.1735 -0.9847 -0.0171
vn 0.1538 -0.9847 0.0822
vn -0.1735 -0.9847 0.0171
vn 0.1668 -0.9847 0.0506
vn -0.1669 -0.9847 0.0506
vn 0.1735 -0.9847 0.0171
vn -0.1538 -0.9847 0.0822
vn 0.1735 -0.9847 -0.0171
vn -0.1348 -0.9847 0.1106
vn 0.1669 -0.9847 -0.0506
vn -0.1106 -0.9847 0.1348
vn 0.1537 -0.9847 -0.0822
vn -0.0822 -0.9847 0.1538
vn -0.0171 -0.9847 -0.1735
vn 0.1348 -0.9847 -0.1106
vn -0.0507 -0.9847 0.1669
vn -0.0506 -0.9847 -0.1668
vn 0.1106 -0.9847 -0.1348
vn -0.0171 -0.9847 0.1735
vn -0.0821 -0.9847 -0.1538
vn 0.0822 -0.9847 -0.1538
vn 0.0171 -0.9847 0.1736
vn -0.1106 -0.9847 -0.1348
vn 0.0507 -0.9847 -0.1668
vn 0.0506 -0.9847 0.1669
vn -0.1348 -0.9847 -0.1106
vn 0.0171 -0.9847 -0.1735
vn 0.9952 -0.0000 -0.0980
vn 0.9569 -0.0000 -0.2903
vn -0.6343 -0.0000 0.7731
vn -0.4714 -0.0000 0.8819
vn -0.0980 -0.0000 -0.9952
vn 0.7730 -0.0000 -0.6344
vn -0.2903 -0.0000 0.9569
vn -0.2903 -0.0000 -0.9569
vn -0.0980 -0.0000 0.9952
vn -0.4714 -0.0000 -0.8819
vn 0.4714 -0.0000 -0.8819
vn 0.0980 -0.0000 0.9952
vn 0.2903 -0.0000 -0.9569
vn 0.2903 -0.0000 0.9569
vn -0.7730 -0.0000 -0.6344
vn 0.0980 -0.0000 -0.9952
vn 0.4714 -0.0000 0.8819
vn -0.8819 -0.0000 -0.4714
vn 0.6344 -0.0000 0.7730
vn 0.7730 -0.0000 0.6344
vn -0.9952 -0.0000 -0.0980
vn -0.0001 -1.0000 -0.0000
vn 0.0001 -1.0000 -0.0000
vn -0.4712 -0.0000 -0.8820
vn 0.4713 -0.0000 -0.8820
vn -0.6345 -0.0000 -0.7730
vn 0.2904 -0.0000 -0.9569
vn 0.2905 -0.0000 0.9569
vn 0.4712 -0.0000 0.8820
vn -0.9952 -0.0000 0.0981
vn 0.9569 -0.0000 0.2904
vn 0.9952 -0.0000 0.0981
vn -0.8820 -0.0000 0.4713
vn -0.7731 -0.0000 0.6343
vn -0.6344 -0.0000 0.7730
vn -0.4713 -0.0000 0.8820
vn 0.6345 -0.0000 -0.7730
vn -0.1537 -0.9847 -0.0822
vn 0.1669 -0.9847 0.0506
vn -0.1668 -0.9847 0.0506
vn -0.1348 -0.9847 0.1107
vn 0.1538 -0.9847 -0.0822
vn -0.0506 -0.9847 0.1669
vn -0.0507 -0.9847 -0.1668
vn -0.0822 -0.9847 -0.1538
vn 0.0171 -0.9847 0.1735
vn -0.1107 -0.9847 -0.1348
vn 0.0506 -0.9847 -0.1668
vn 0.0507 -0.9847 0.1669
vn -0.6343 -0.0000 -0.7731
vt 0.000000 0.000000
s 0
usemtl Material.003
f 19/1/1 11/1/1 3/1/1
f 49/1/2 80/1/2 48/1/2
f 8/1/3 41/1/3 40/1/3
f 22/1/3 55/1/3 54/1/3
f 9/1/3 42/1/3 41/1/3
f 23/1/3 56/1/3 55/1/3
f 10/1/3 43/1/3 42/1/3
f 24/1/3 57/1/3 56/1/3
f 11/1/3 44/1/3 43/1/3
f 25/1/3 58/1/3 57/1/3
f 12/1/3 45/1/3 44/1/3
f 26/1/3 59/1/3 58/1/3
f 13/1/3 46/1/3 45/1/3
f 27/1/3 60/1/3 59/1/3
f 14/1/3 47/1/3 46/1/3
f 1/1/3 33/1/3 34/1/3
f 28/1/3 61/1/3 60/1/3
f 15/1/3 48/1/3 47/1/3
f 2/1/3 35/1/3 33/1/3
f 29/1/3 62/1/3 61/1/3
f 16/1/3 49/1/3 48/1/3
f 3/1/3 36/1/3 35/1/3
f 30/1/3 63/1/3 62/1/3
f 17/1/3 50/1/3 49/1/3
f 4/1/3 37/1/3 36/1/3
f 31/1/3 64/1/3 63/1/3
f 18/1/3 51/1/3 50/1/3
f 5/1/3 38/1/3 37/1/3
f 32/1/3 34/1/3 64/1/3
f 19/1/3 52/1/3 51/1/3
f 6/1/3 39/1/3 38/1/3
f 20/1/3 53/1/3 52/1/3
f 7/1/3 40/1/3 39/1/3
f 21/1/3 54/1/3 53/1/3
f 84/1/4 115/1/4 83/1/4
f 36/1/5 67/1/5 35/1/5
f 63/1/6 94/1/6 62/1/6
f 50/1/7 81/1/7 49/1/7
f 37/1/8 68/1/8 36/1/8
f 64/1/9 95/1/9 63/1/9
f 51/1/10 82/1/10 50/1/10
f 38/1/11 69/1/11 37/1/11
f 34/1/12 96/1/12 64/1/12
f 52/1/13 83/1/13 51/1/13
f 39/1/14 70/1/14 38/1/14
f 53/1/15 84/1/15 52/1/15
f 40/1/16 71/1/16 39/1/16
f 54/1/17 85/1/17 53/1/17
f 41/1/18 72/1/18 40/1/18
f 55/1/19 86/1/19 54/1/19
f 42/1/20 73/1/20 41/1/20
f 56/1/21 87/1/21 55/1/21
f 43/1/22 74/1/22 42/1/22
f 57/1/23 88/1/23 56/1/23
f 44/1/24 75/1/24 43/1/24
f 58/1/25 89/1/25 57/1/25
f 45/1/26 76/1/26 44/1/26
f 59/1/27 90/1/27 58/1/27
f 46/1/28 77/1/28 45/1/28
f 60/1/29 91/1/29 59/1/29
f 47/1/30 78/1/30 46/1/30
f 33/1/31 66/1/31 34/1/31
f 61/1/32 92/1/32 60/1/32
f 48/1/33 79/1/33 47/1/33
f 35/1/34 65/1/34 33/1/34
f 62/1/35 93/1/35 61/1/35
f 119/1/19 150/1/19 118/1/19
f 70/1/36 103/1/36 102/1/36
f 85/1/37 116/1/37 84/1/37
f 71/1/38 104/1/38 103/1/38
f 86/1/39 117/1/39 85/1/39
f 72/1/40 105/1/40 104/1/40
f 87/1/41 118/1/41 86/1/41
f 73/1/42 106/1/42 105/1/42
f 88/1/43 119/1/43 87/1/43
f 74/1/44 107/1/44 106/1/44
f 89/1/45 120/1/45 88/1/45
f 76/1/46 107/1/46 75/1/46
f 90/1/47 121/1/47 89/1/47
f 77/1/48 108/1/48 76/1/48
f 90/1/49 123/1/49 122/1/49
f 78/1/50 109/1/50 77/1/50
f 92/1/51 123/1/51 91/1/51
f 78/1/52 111/1/52 110/1/52
f 66/1/53 97/1/53 98/1/53
f 93/1/54 124/1/54 92/1/54
f 80/1/55 111/1/55 79/1/55
f 65/1/56 99/1/56 97/1/56
f 94/1/57 125/1/57 93/1/57
f 80/1/58 113/1/58 112/1/58
f 68/1/59 99/1/59 67/1/59
f 94/1/60 127/1/60 126/1/60
f 82/1/61 113/1/61 81/1/61
f 68/1/62 101/1/62 100/1/62
f 96/1/63 127/1/63 95/1/63
f 82/1/64 115/1/64 114/1/64
f 69/1/65 102/1/65 101/1/65
f 96/1/66 98/1/66 128/1/66
f 145/1/3 153/1/3 130/1/3
f 106/1/20 137/1/20 105/1/20
f 120/1/21 151/1/21 119/1/21
f 107/1/22 138/1/22 106/1/22
f 121/1/23 152/1/23 120/1/23
f 108/1/24 139/1/24 107/1/24
f 122/1/67 153/1/67 121/1/67
f 109/1/26 140/1/26 108/1/26
f 123/1/68 154/1/68 122/1/68
f 110/1/69 141/1/69 109/1/69
f 124/1/29 155/1/29 123/1/29
f 111/1/70 142/1/70 110/1/70
f 97/1/71 130/1/71 98/1/71
f 125/1/72 156/1/72 124/1/72
f 112/1/73 143/1/73 111/1/73
f 99/1/74 129/1/74 97/1/74
f 126/1/35 157/1/35 125/1/35
f 113/1/75 144/1/75 112/1/75
f 100/1/76 131/1/76 99/1/76
f 127/1/77 158/1/77 126/1/77
f 114/1/78 145/1/78 113/1/78
f 101/1/8 132/1/8 100/1/8
f 128/1/79 159/1/79 127/1/79
f 115/1/80 146/1/80 114/1/80
f 102/1/81 133/1/81 101/1/81
f 98/1/82 160/1/82 128/1/82
f 116/1/83 147/1/83 115/1/83
f 103/1/84 134/1/84 102/1/84
f 117/1/85 148/1/85 116/1/85
f 104/1/16 135/1/16 103/1/16
f 118/1/86 149/1/86 117/1/86
f 105/1/87 136/1/87 104/1/87
f 3/1/1 2/1/1 1/1/1
f 1/1/1 32/1/1 31/1/1
f 31/1/1 30/1/1 29/1/1
f 29/1/88 28/1/88 27/1/88
f 27/1/1 26/1/1 25/1/1
f 25/1/1 24/1/1 23/1/1
f 23/1/88 22/1/88 21/1/88
f 21/1/1 20/1/1 19/1/1
f 19/1/1 18/1/1 17/1/1
f 17/1/1 16/1/1 15/1/1
f 15/1/1 14/1/1 13/1/1
f 13/1/89 12/1/89 11/1/89
f 11/1/1 10/1/1 9/1/1
f 9/1/1 8/1/1 7/1/1
f 7/1/89 6/1/89 5/1/89
f 5/1/1 4/1/1 3/1/1
f 3/1/1 1/1/1 31/1/1
f 31/1/1 29/1/1 27/1/1
f 27/1/1 25/1/1 23/1/1
f 23/1/1 21/1/1 19/1/1
f 19/1/1 17/1/1 15/1/1
f 15/1/1 13/1/1 11/1/1
f 11/1/1 9/1/1 7/1/1
f 7/1/1 5/1/1 3/1/1
f 3/1/1 31/1/1 27/1/1
f 27/1/1 23/1/1 19/1/1
f 19/1/1 15/1/1 11/1/1
f 11/1/1 7/1/1 3/1/1
f 3/1/1 27/1/1 19/1/1
f 49/1/2 81/1/2 80/1/2
f 8/1/3 9/1/3 41/1/3
f 22/1/3 23/1/3 55/1/3
f 9/1/3 10/1/3 42/1/3
f 23/1/3 24/1/3 56/1/3
f 10/1/3 11/1/3 43/1/3
f 24/1/3 25/1/3 57/1/3
f 11/1/3 12/1/3 44/1/3
f 25/1/3 26/1/3 58/1/3
f 12/1/3 13/1/3 45/1/3
f 26/1/3 27/1/3 59/1/3
f 13/1/3 14/1/3 46/1/3
f 27/1/3 28/1/3 60/1/3
f 14/1/3 15/1/3 47/1/3
f 1/1/3 2/1/3 33/1/3
f 28/1/3 29/1/3 61/1/3
f 15/1/3 16/1/3 48/1/3
f 2/1/3 3/1/3 35/1/3
f 29/1/3 30/1/3 62/1/3
f 16/1/3 17/1/3 49/1/3
f 3/1/3 4/1/3 36/1/3
f 30/1/3 31/1/3 63/1/3
f 17/1/3 18/1/3 50/1/3
f 4/1/3 5/1/3 37/1/3
f 31/1/3 32/1/3 64/1/3
f 18/1/3 19/1/3 51/1/3
f 5/1/3 6/1/3 38/1/3
f 32/1/3 1/1/3 34/1/3
f 19/1/3 20/1/3 52/1/3
f 6/1/3 7/1/3 39/1/3
f 20/1/3 21/1/3 53/1/3
f 7/1/3 8/1/3 40/1/3
f 21/1/3 22/1/3 54/1/3
f 84/1/4 116/1/4 115/1/4
f 36/1/90 68/1/90 67/1/90
f 63/1/91 95/1/91 94/1/91
f 50/1/7 82/1/7 81/1/7
f 37/1/92 69/1/92 68/1/92
f 64/1/93 96/1/93 95/1/93
f 51/1/94 83/1/94 82/1/94
f 38/1/81 70/1/81 69/1/81
f 34/1/12 66/1/12 96/1/12
f 52/1/95 84/1/95 83/1/95
f 39/1/84 71/1/84 70/1/84
f 53/1/85 85/1/85 84/1/85
f 40/1/16 72/1/16 71/1/16
f 54/1/17 86/1/17 85/1/17
f 41/1/87 73/1/87 72/1/87
f 55/1/19 87/1/19 86/1/19
f 42/1/96 74/1/96 73/1/96
f 56/1/97 88/1/97 87/1/97
f 43/1/22 75/1/22 74/1/22
f 57/1/98 89/1/98 88/1/98
f 44/1/99 76/1/99 75/1/99
f 58/1/67 90/1/67 89/1/67
f 45/1/100 77/1/100 76/1/100
f 59/1/68 91/1/68 90/1/68
f 46/1/101 78/1/101 77/1/101
f 60/1/29 92/1/29 91/1/29
f 47/1/102 79/1/102 78/1/102
f 33/1/31 65/1/31 66/1/31
f 61/1/32 93/1/32 92/1/32
f 48/1/33 80/1/33 79/1/33
f 35/1/34 67/1/34 65/1/34
f 62/1/103 94/1/103 93/1/103
f 119/1/19 151/1/19 150/1/19
f 70/1/104 71/1/104 103/1/104
f 85/1/37 117/1/37 116/1/37
f 71/1/38 72/1/38 104/1/38
f 86/1/39 118/1/39 117/1/39
f 72/1/40 73/1/40 105/1/40
f 87/1/41 119/1/41 118/1/41
f 73/1/42 74/1/42 106/1/42
f 88/1/105 120/1/105 119/1/105
f 74/1/106 75/1/106 107/1/106
f 89/1/45 121/1/45 120/1/45
f 76/1/46 108/1/46 107/1/46
f 90/1/47 122/1/47 121/1/47
f 77/1/107 109/1/107 108/1/107
f 90/1/49 91/1/49 123/1/49
f 78/1/50 110/1/50 109/1/50
f 92/1/108 124/1/108 123/1/108
f 78/1/52 79/1/52 111/1/52
f 66/1/53 65/1/53 97/1/53
f 93/1/54 125/1/54 124/1/54
f 80/1/109 112/1/109 111/1/109
f 65/1/110 67/1/110 99/1/110
f 94/1/57 126/1/57 125/1/57
f 80/1/58 81/1/58 113/1/58
f 68/1/111 100/1/111 99/1/111
f 94/1/60 95/1/60 127/1/60
f 82/1/112 114/1/112 113/1/112
f 68/1/113 69/1/113 101/1/113
f 96/1/114 128/1/114 127/1/114
f 82/1/115 83/1/115 115/1/115
f 69/1/65 70/1/65 102/1/65
f 96/1/66 66/1/66 98/1/66
f 130/1/3 129/1/3 131/1/3
f 131/1/3 132/1/3 133/1/3
f 133/1/3 134/1/3 135/1/3
f 135/1/3 136/1/3 137/1/3
f 137/1/3 138/1/3 139/1/3
f 139/1/3 140/1/3 141/1/3
f 141/1/3 142/1/3 143/1/3
f 143/1/3 144/1/3 145/1/3
f 145/1/3 146/1/3 147/1/3
f 147/1/3 148/1/3 149/1/3
f 149/1/3 150/1/3 151/1/3
f 151/1/3 152/1/3 153/1/3
f 153/1/3 154/1/3 155/1/3
f 155/1/3 156/1/3 157/1/3
f 157/1/3 158/1/3 159/1/3
f 159/1/3 160/1/3 130/1/3
f 130/1/3 131/1/3 133/1/3
f 133/1/3 135/1/3 137/1/3
f 137/1/3 139/1/3 141/1/3
f 141/1/3 143/1/3 145/1/3
f 145/1/3 147/1/3 149/1/3
f 149/1/3 151/1/3 153/1/3
f 153/1/3 155/1/3 157/1/3
f 157/1/3 159/1/3 130/1/3
f 130/1/3 133/1/3 137/1/3
f 137/1/3 141/1/3 145/1/3
f 145/1/3 149/1/3 153/1/3
f 153/1/3 157/1/3 130/1/3
f 130/1/3 137/1/3 145/1/3
f 106/1/20 138/1/20 137/1/20
f 120/1/21 152/1/21 151/1/21
f 107/1/22 139/1/22 138/1/22
f 121/1/23 153/1/23 152/1/23
f 108/1/24 140/1/24 139/1/24
f 122/1/67 154/1/67 153/1/67
f 109/1/26 141/1/26 140/1/26
f 123/1/68 155/1/68 154/1/68
f 110/1/101 142/1/101 141/1/101
f 124/1/29 156/1/29 155/1/29
f 111/1/70 143/1/70 142/1/70
f 97/1/71 129/1/71 130/1/71
f 125/1/72 157/1/72 156/1/72
f 112/1/73 144/1/73 143/1/73
f 99/1/74 131/1/74 129/1/74
f 126/1/35 158/1/35 157/1/35
f 113/1/75 145/1/75 144/1/75
f 100/1/76 132/1/76 131/1/76
f 127/1/77 159/1/77 158/1/77
f 114/1/78 146/1/78 145/1/78
f 101/1/116 133/1/116 132/1/116
f 128/1/79 160/1/79 159/1/79
f 115/1/80 147/1/80 146/1/80
f 102/1/81 134/1/81 133/1/81
f 98/1/82 130/1/82 160/1/82
f 116/1/83 148/1/83 147/1/83
f 103/1/84 135/1/84 134/1/84
f 117/1/85 149/1/85 148/1/85
f 104/1/16 136/1/16 135/1/16
f 118/1/86 150/1/86 149/1/86
f 105/1/87 137/1/87 136/1/87
