# Blender 4.1.1
# www.blender.org
mtllib Circle.015.mtl
o Pipe.136
v -2829.056885 2741.546875 1247.350830
v -2831.668701 2741.546875 1247.608032
v -2834.180176 2741.546875 1248.369873
v -2836.494629 2741.546875 1249.607178
v -2838.523682 2741.546875 1251.272095
v -2840.188477 2741.546875 1253.300781
v -2841.425537 2741.546875 1255.615479
v -2842.187500 2741.546875 1258.126953
v -2842.444580 2741.546875 1260.738770
v -2842.187500 2741.546875 1263.350708
v -2841.425537 2741.546875 1265.862183
v -2840.188477 2741.546875 1268.176758
v -2838.523682 2741.546875 1270.205566
v -2836.494629 2741.546875 1271.870483
v -2834.180176 2741.546875 1273.107666
v -2831.668701 2741.546875 1273.869507
v -2829.056885 2741.546875 1274.126831
v -2826.445068 2741.546875 1273.869507
v -2823.933350 2741.546875 1273.107666
v -2821.618896 2741.546875 1271.870483
v -2819.590088 2741.546875 1270.205566
v -2817.925049 2741.546875 1268.176758
v -2816.687988 2741.546875 1265.862183
v -2815.926025 2741.546875 1263.350708
v -2815.668945 2741.546875 1260.738770
v -2815.926025 2741.546875 1258.126953
v -2816.687988 2741.546875 1255.615479
v -2817.925049 2741.546875 1253.300781
v -2819.590088 2741.546875 1251.272095
v -2821.618896 2741.546875 1249.607178
v -2823.933350 2741.546875 1248.369873
v -2826.445068 2741.546875 1247.608032
v -2831.668701 2741.546875 1247.608032
v -2829.056885 2741.546875 1247.350830
v -2834.180176 2741.546875 1248.369873
v -2836.494629 2741.546875 1249.607178
v -2838.523682 2741.546875 1251.272095
v -2840.188477 2741.546875 1253.300781
v -2841.425537 2741.546875 1255.615479
v -2842.187500 2741.546875 1258.126953
v -2842.444580 2741.546875 1260.738770
v -2842.187500 2741.546875 1263.350708
v -2841.425537 2741.546875 1265.862183
v -2840.188477 2741.546875 1268.176758
v -2838.523682 2741.546875 1270.205566
v -2836.494629 2741.546875 1271.870483
v -2834.180176 2741.546875 1273.107666
v -2831.668701 2741.546875 1273.869507
v -2829.056885 2741.546875 1274.126831
v -2826.445068 2741.546875 1273.869507
v -2823.933350 2741.546875 1273.107666
v -2821.618896 2741.546875 1271.870483
v -2819.590088 2741.546875 1270.205566
v -2817.925049 2741.546875 1268.176758
v -2816.687988 2741.546875 1265.862183
v -2815.926025 2741.546875 1263.350708
v -2815.668945 2741.546875 1260.738770
v -2815.926025 2741.546875 1258.126953
v -2816.687988 2741.546875 1255.615479
v -2817.925049 2741.546875 1253.300781
v -2819.590088 2741.546875 1251.272095
v -2821.618896 2741.546875 1249.607178
v -2823.933350 2741.546875 1248.369873
v -2826.445068 2741.546875 1247.608032
v -2831.668701 2780.510986 1247.608032
v -2829.056885 2780.510986 1247.350830
v -2834.180176 2780.510986 1248.369873
v -2836.494629 2780.510986 1249.607178
v -2838.523682 2780.510986 1251.272095
v -2840.188477 2780.510986 1253.300781
v -2841.425537 2780.510986 1255.615479
v -2842.187500 2780.510986 1258.126953
v -2842.444580 2780.510986 1260.738770
v -2842.187500 2780.510986 1263.350708
v -2841.425537 2780.510986 1265.862183
v -2840.188477 2780.510986 1268.176758
v -2838.523682 2780.510986 1270.205566
v -2836.494629 2780.510986 1271.870483
v -2834.180176 2780.510986 1273.107666
v -2831.668701 2780.510986 1273.869507
v -2829.056885 2780.510986 1274.126831
v -2826.445068 2780.510986 1273.869507
v -2823.933350 2780.510986 1273.107666
v -2821.618896 2780.510986 1271.870483
v -2819.590088 2780.510986 1270.205566
v -2817.925049 2780.510986 1268.176758
v -2816.687988 2780.510986 1265.862183
v -2815.926025 2780.510986 1263.350708
v -2815.668945 2780.510986 1260.738770
v -2815.926025 2780.510986 1258.126953
v -2816.687988 2780.510986 1255.615479
v -2817.925049 2780.510986 1253.300781
v -2819.590088 2780.510986 1251.272095
v -2821.618896 2780.510986 1249.607178
v -2823.933350 2780.510986 1248.369873
v -2826.445068 2780.510986 1247.608032
v -2833.481201 2781.075195 1238.494629
v -2829.056885 2781.075195 1238.058838
v -2837.735840 2781.075195 1239.785278
v -2841.656738 2781.075195 1241.881104
v -2845.093750 2781.075195 1244.701538
v -2847.914062 2781.075195 1248.138428
v -2850.010010 2781.075195 1252.059448
v -2851.300537 2781.075195 1256.313965
v -2851.736328 2781.075195 1260.738525
v -2851.300537 2781.075195 1265.163086
v -2850.010010 2781.075195 1269.417603
v -2847.914062 2781.075195 1273.338623
v -2845.093750 2781.075195 1276.775391
v -2841.656738 2781.075195 1279.595947
v -2837.735840 2781.075195 1281.691772
v -2833.481201 2781.075195 1282.982300
v -2829.056885 2781.075195 1283.418213
v -2824.632324 2781.075195 1282.982300
v -2820.377686 2781.075195 1281.691772
v -2816.456787 2781.075195 1279.595947
v -2813.019775 2781.075195 1276.775391
v -2810.199463 2781.075195 1273.338623
v -2808.103516 2781.075195 1269.417603
v -2806.812988 2781.075195 1265.163086
v -2806.377197 2781.075195 1260.738525
v -2806.812988 2781.075195 1256.313965
v -2808.103516 2781.075195 1252.059448
v -2810.199463 2781.075195 1248.138428
v -2813.019775 2781.075195 1244.701538
v -2816.456787 2781.075195 1241.881104
v -2820.377686 2781.075195 1239.785278
v -2824.632324 2781.075195 1238.494629
v -2833.481201 2789.916992 1238.494629
v -2829.056885 2789.916992 1238.058838
v -2837.735840 2789.916992 1239.785278
v -2841.656738 2789.916992 1241.881104
v -2845.093750 2789.916992 1244.701538
v -2847.914062 2789.916992 1248.138428
v -2850.010010 2789.916992 1252.059448
v -2851.300537 2789.916992 1256.313965
v -2851.736328 2789.916992 1260.738525
v -2851.300537 2789.916992 1265.163086
v -2850.010010 2789.916992 1269.417603
v -2847.914062 2789.916992 1273.338623
v -2845.093750 2789.916992 1276.775391
v -2841.656738 2789.916992 1279.595947
v -2837.735840 2789.916992 1281.691772
v -2833.481201 2789.916992 1282.982300
v -2829.056885 2789.916992 1283.418213
v -2824.632324 2789.916992 1282.982300
v -2820.377686 2789.916992 1281.691772
v -2816.456787 2789.916992 1279.595947
v -2813.019775 2789.916992 1276.775391
v -2810.199463 2789.916992 1273.338623
v -2808.103516 2789.916992 1269.417603
v -2806.812988 2789.916992 1265.163086
v -2806.377197 2789.916992 1260.738525
v -2806.812988 2789.916992 1256.313965
v -2808.103516 2789.916992 1252.059448
v -2810.199463 2789.916992 1248.138428
v -2813.019775 2789.916992 1244.701538
v -2816.456787 2789.916992 1241.881104
v -2820.377686 2789.916992 1239.785278
v -2824.632324 2789.916992 1238.494629
vn -0.0000 -1.0000 -0.0000
vn -0.9569 -0.0000 -0.2904
vn -0.0000 1.0000 -0.0000
vn -0.0583 -0.9981 0.0177
vn 0.7730 -0.0000 0.6344
vn -0.9952 -0.0000 -0.0978
vn 0.8820 -0.0000 0.4713
vn -0.9952 -0.0000 0.0981
vn 0.9570 -0.0000 0.2902
vn -0.9569 -0.0000 0.2903
vn 0.9952 -0.0000 0.0981
vn -0.8820 -0.0000 0.4713
vn 0.9952 -0.0000 -0.0978
vn -0.7730 -0.0000 0.6344
vn 0.9569 -0.0000 -0.2904
vn -0.6344 -0.0000 0.7730
vn 0.8819 -0.0000 -0.4715
vn -0.4714 -0.0000 0.8819
vn -0.0980 -0.0000 -0.9952
vn 0.7730 -0.0000 -0.6344
vn -0.2902 -0.0000 0.9570
vn -0.2903 -0.0000 -0.9569
vn 0.6344 -0.0000 -0.7730
vn -0.0980 -0.0000 0.9952
vn -0.4715 -0.0000 -0.8819
vn 0.4715 -0.0000 -0.8819
vn 0.0980 -0.0000 0.9952
vn -0.6342 -0.0000 -0.7731
vn 0.2903 -0.0000 -0.9569
vn 0.2902 -0.0000 0.9570
vn -0.7731 -0.0000 -0.6343
vn 0.0980 -0.0000 -0.9952
vn 0.4714 -0.0000 0.8819
vn -0.8819 -0.0000 -0.4714
vn 0.6343 -0.0000 0.7731
vn 0.0606 -0.9981 0.0060
vn -0.0537 -0.9981 0.0287
vn 0.0606 -0.9981 -0.0060
vn -0.0471 -0.9981 0.0386
vn 0.0582 -0.9981 -0.0177
vn -0.0386 -0.9981 0.0471
vn 0.0537 -0.9981 -0.0287
vn -0.0288 -0.9981 0.0537
vn -0.0058 -0.9981 -0.0606
vn 0.0471 -0.9981 -0.0386
vn -0.0177 -0.9981 0.0583
vn -0.0177 -0.9981 -0.0583
vn 0.0386 -0.9981 -0.0471
vn -0.0061 -0.9981 0.0606
vn -0.0287 -0.9981 -0.0537
vn 0.0288 -0.9981 -0.0537
vn 0.0059 -0.9981 0.0606
vn -0.0386 -0.9981 -0.0471
vn 0.0177 -0.9981 -0.0583
vn 0.0177 -0.9981 0.0583
vn -0.0471 -0.9981 -0.0386
vn 0.0060 -0.9981 -0.0606
vn 0.0287 -0.9981 0.0537
vn -0.0537 -0.9981 -0.0287
vn 0.0386 -0.9981 0.0471
vn -0.0583 -0.9981 -0.0177
vn 0.0471 -0.9981 0.0386
vn -0.0606 -0.9981 -0.0060
vn 0.0538 -0.9981 0.0287
vn -0.0606 -0.9981 0.0060
vn 0.0582 -0.9981 0.0177
vn -0.6343 -0.0000 -0.7731
vn -0.7730 -0.0000 -0.6344
vn 0.6344 -0.0000 0.7730
vn -0.9569 -0.0000 -0.2903
vn -0.9952 -0.0000 -0.0980
vn 0.8819 -0.0000 0.4715
vn -0.9952 -0.0000 0.0980
vn 0.9569 -0.0000 0.2903
vn -0.9569 -0.0000 0.2904
vn 0.9952 -0.0000 0.0979
vn -0.8819 -0.0000 0.4714
vn 0.9952 -0.0000 -0.0981
vn 0.8820 -0.0000 -0.4713
vn -0.0981 -0.0000 0.9952
vn -0.4714 -0.0000 -0.8819
vn 0.4714 -0.0000 -0.8819
vn 0.0001 -1.0000 -0.0000
vn 0.0007 -1.0000 -0.0000
vn -0.0004 -1.0000 -0.0000
vn 0.0002 -1.0000 -0.0000
vn -0.0007 -1.0000 -0.0000
vn -0.0002 -1.0000 -0.0000
vn 0.0003 -1.0000 -0.0000
vn -0.0582 -0.9981 0.0177
vn -0.9952 -0.0000 -0.0981
vn -0.9952 -0.0000 0.0978
vn 0.9569 -0.0000 0.2904
vn 0.9952 -0.0000 0.0978
vn -0.7731 -0.0000 0.6343
vn 0.9570 -0.0000 -0.2902
vn -0.6342 -0.0000 0.7731
vn 0.8820 -0.0000 -0.4712
vn -0.4715 -0.0000 0.8819
vn -0.2903 -0.0000 0.9569
vn -0.2902 -0.0000 -0.9570
vn 0.6343 -0.0000 -0.7731
vn 0.0981 -0.0000 0.9952
vn -0.6344 -0.0000 -0.7730
vn 0.2902 -0.0000 -0.9570
vn 0.2903 -0.0000 0.9569
vn 0.4715 -0.0000 0.8819
vn -0.8820 -0.0000 -0.4712
vn -0.0538 -0.9981 0.0287
vn 0.0583 -0.9981 -0.0177
vn -0.0287 -0.9981 0.0537
vn -0.0060 -0.9981 -0.0606
vn -0.0059 -0.9981 0.0606
vn -0.0288 -0.9981 -0.0537
vn 0.0287 -0.9981 -0.0537
vn 0.0061 -0.9981 0.0606
vn 0.0058 -0.9981 -0.0606
vn 0.0288 -0.9981 0.0537
vn -0.0582 -0.9981 -0.0177
vn 0.0537 -0.9981 0.0287
vn 0.0583 -0.9981 0.0177
vn -0.0003 1.0000 -0.0000
vn -0.0005 1.0000 -0.0000
vn 0.0003 1.0000 -0.0000
vn 0.0005 1.0000 -0.0000
vn -0.0001 1.0000 -0.0000
vn 0.0001 1.0000 -0.0000
vn 0.9952 -0.0000 -0.0979
vn 0.9569 -0.0000 -0.2903
vt 0.000000 0.000000
s 0
usemtl Material.003
f 19/1/1 11/1/1 3/1/1
f 40/1/2 71/1/2 39/1/2
f 26/1/3 59/1/3 58/1/3
f 13/1/3 46/1/3 45/1/3
f 27/1/3 60/1/3 59/1/3
f 14/1/3 47/1/3 46/1/3
f 1/1/3 33/1/3 34/1/3
f 28/1/3 61/1/3 60/1/3
f 15/1/3 48/1/3 47/1/3
f 2/1/3 35/1/3 33/1/3
f 29/1/3 62/1/3 61/1/3
f 16/1/3 49/1/3 48/1/3
f 3/1/3 36/1/3 35/1/3
f 30/1/3 63/1/3 62/1/3
f 17/1/3 50/1/3 49/1/3
f 4/1/3 37/1/3 36/1/3
f 31/1/3 64/1/3 63/1/3
f 18/1/3 51/1/3 50/1/3
f 5/1/3 38/1/3 37/1/3
f 32/1/3 34/1/3 64/1/3
f 19/1/3 52/1/3 51/1/3
f 6/1/3 39/1/3 38/1/3
f 20/1/3 53/1/3 52/1/3
f 7/1/3 40/1/3 39/1/3
f 21/1/3 54/1/3 53/1/3
f 8/1/3 41/1/3 40/1/3
f 22/1/3 55/1/3 54/1/3
f 9/1/3 42/1/3 41/1/3
f 23/1/3 56/1/3 55/1/3
f 10/1/3 43/1/3 42/1/3
f 24/1/3 57/1/3 56/1/3
f 11/1/3 44/1/3 43/1/3
f 25/1/3 58/1/3 57/1/3
f 12/1/3 45/1/3 44/1/3
f 74/1/4 107/1/4 106/1/4
f 54/1/5 85/1/5 53/1/5
f 41/1/6 72/1/6 40/1/6
f 55/1/7 86/1/7 54/1/7
f 42/1/8 73/1/8 41/1/8
f 56/1/9 87/1/9 55/1/9
f 43/1/10 74/1/10 42/1/10
f 57/1/11 88/1/11 56/1/11
f 44/1/12 75/1/12 43/1/12
f 58/1/13 89/1/13 57/1/13
f 45/1/14 76/1/14 44/1/14
f 59/1/15 90/1/15 58/1/15
f 46/1/16 77/1/16 45/1/16
f 60/1/17 91/1/17 59/1/17
f 47/1/18 78/1/18 46/1/18
f 33/1/19 66/1/19 34/1/19
f 61/1/20 92/1/20 60/1/20
f 48/1/21 79/1/21 47/1/21
f 35/1/22 65/1/22 33/1/22
f 62/1/23 93/1/23 61/1/23
f 49/1/24 80/1/24 48/1/24
f 36/1/25 67/1/25 35/1/25
f 63/1/26 94/1/26 62/1/26
f 50/1/27 81/1/27 49/1/27
f 37/1/28 68/1/28 36/1/28
f 64/1/29 95/1/29 63/1/29
f 51/1/30 82/1/30 50/1/30
f 38/1/31 69/1/31 37/1/31
f 34/1/32 96/1/32 64/1/32
f 52/1/33 83/1/33 51/1/33
f 39/1/34 70/1/34 38/1/34
f 53/1/35 84/1/35 52/1/35
f 114/1/27 145/1/27 113/1/27
f 88/1/36 121/1/36 120/1/36
f 75/1/37 108/1/37 107/1/37
f 90/1/38 121/1/38 89/1/38
f 77/1/39 108/1/39 76/1/39
f 91/1/40 122/1/40 90/1/40
f 77/1/41 110/1/41 109/1/41
f 92/1/42 123/1/42 91/1/42
f 79/1/43 110/1/43 78/1/43
f 65/1/44 98/1/44 66/1/44
f 93/1/45 124/1/45 92/1/45
f 80/1/46 111/1/46 79/1/46
f 65/1/47 99/1/47 97/1/47
f 93/1/48 126/1/48 125/1/48
f 81/1/49 112/1/49 80/1/49
f 67/1/50 100/1/50 99/1/50
f 95/1/51 126/1/51 94/1/51
f 81/1/52 114/1/52 113/1/52
f 69/1/53 100/1/53 68/1/53
f 96/1/54 127/1/54 95/1/54
f 83/1/55 114/1/55 82/1/55
f 69/1/56 102/1/56 101/1/56
f 96/1/57 98/1/57 128/1/57
f 83/1/58 116/1/58 115/1/58
f 70/1/59 103/1/59 102/1/59
f 85/1/60 116/1/60 84/1/60
f 71/1/61 104/1/61 103/1/61
f 85/1/62 118/1/62 117/1/62
f 72/1/63 105/1/63 104/1/63
f 87/1/64 118/1/64 86/1/64
f 74/1/65 105/1/65 73/1/65
f 88/1/66 119/1/66 87/1/66
f 145/1/3 153/1/3 130/1/3
f 101/1/67 132/1/67 100/1/67
f 128/1/29 159/1/29 127/1/29
f 115/1/30 146/1/30 114/1/30
f 102/1/68 133/1/68 101/1/68
f 98/1/32 160/1/32 128/1/32
f 116/1/33 147/1/33 115/1/33
f 103/1/34 134/1/34 102/1/34
f 117/1/69 148/1/69 116/1/69
f 104/1/70 135/1/70 103/1/70
f 118/1/5 149/1/5 117/1/5
f 105/1/71 136/1/71 104/1/71
f 119/1/72 150/1/72 118/1/72
f 106/1/73 137/1/73 105/1/73
f 120/1/74 151/1/74 119/1/74
f 107/1/75 138/1/75 106/1/75
f 121/1/76 152/1/76 120/1/76
f 108/1/77 139/1/77 107/1/77
f 122/1/78 153/1/78 121/1/78
f 109/1/14 140/1/14 108/1/14
f 123/1/15 154/1/15 122/1/15
f 110/1/16 141/1/16 109/1/16
f 124/1/79 155/1/79 123/1/79
f 111/1/18 142/1/18 110/1/18
f 97/1/19 130/1/19 98/1/19
f 125/1/20 156/1/20 124/1/20
f 112/1/21 143/1/21 111/1/21
f 99/1/22 129/1/22 97/1/22
f 126/1/23 157/1/23 125/1/23
f 113/1/80 144/1/80 112/1/80
f 100/1/81 131/1/81 99/1/81
f 127/1/82 158/1/82 126/1/82
f 3/1/83 2/1/83 1/1/83
f 1/1/1 32/1/1 31/1/1
f 31/1/1 30/1/1 29/1/1
f 29/1/84 28/1/84 27/1/84
f 27/1/1 26/1/1 25/1/1
f 25/1/1 24/1/1 23/1/1
f 23/1/84 22/1/84 21/1/84
f 21/1/85 20/1/85 19/1/85
f 19/1/86 18/1/86 17/1/86
f 17/1/85 16/1/85 15/1/85
f 15/1/84 14/1/84 13/1/84
f 13/1/87 12/1/87 11/1/87
f 11/1/1 10/1/1 9/1/1
f 9/1/1 8/1/1 7/1/1
f 7/1/87 6/1/87 5/1/87
f 5/1/1 4/1/1 3/1/1
f 3/1/1 1/1/1 31/1/1
f 31/1/85 29/1/85 27/1/85
f 27/1/88 25/1/88 23/1/88
f 23/1/1 21/1/1 19/1/1
f 19/1/1 17/1/1 15/1/1
f 15/1/1 13/1/1 11/1/1
f 11/1/86 9/1/86 7/1/86
f 7/1/89 5/1/89 3/1/89
f 3/1/1 31/1/1 27/1/1
f 27/1/1 23/1/1 19/1/1
f 19/1/1 15/1/1 11/1/1
f 11/1/1 7/1/1 3/1/1
f 3/1/1 27/1/1 19/1/1
f 40/1/70 72/1/70 71/1/70
f 26/1/3 27/1/3 59/1/3
f 13/1/3 14/1/3 46/1/3
f 27/1/3 28/1/3 60/1/3
f 14/1/3 15/1/3 47/1/3
f 1/1/3 2/1/3 33/1/3
f 28/1/3 29/1/3 61/1/3
f 15/1/3 16/1/3 48/1/3
f 2/1/3 3/1/3 35/1/3
f 29/1/3 30/1/3 62/1/3
f 16/1/3 17/1/3 49/1/3
f 3/1/3 4/1/3 36/1/3
f 30/1/3 31/1/3 63/1/3
f 17/1/3 18/1/3 50/1/3
f 4/1/3 5/1/3 37/1/3
f 31/1/3 32/1/3 64/1/3
f 18/1/3 19/1/3 51/1/3
f 5/1/3 6/1/3 38/1/3
f 32/1/3 1/1/3 34/1/3
f 19/1/3 20/1/3 52/1/3
f 6/1/3 7/1/3 39/1/3
f 20/1/3 21/1/3 53/1/3
f 7/1/3 8/1/3 40/1/3
f 21/1/3 22/1/3 54/1/3
f 8/1/3 9/1/3 41/1/3
f 22/1/3 23/1/3 55/1/3
f 9/1/3 10/1/3 42/1/3
f 23/1/3 24/1/3 56/1/3
f 10/1/3 11/1/3 43/1/3
f 24/1/3 25/1/3 57/1/3
f 11/1/3 12/1/3 44/1/3
f 25/1/3 26/1/3 58/1/3
f 12/1/3 13/1/3 45/1/3
f 74/1/90 75/1/90 107/1/90
f 54/1/5 86/1/5 85/1/5
f 41/1/91 73/1/91 72/1/91
f 55/1/72 87/1/72 86/1/72
f 42/1/92 74/1/92 73/1/92
f 56/1/93 88/1/93 87/1/93
f 43/1/75 75/1/75 74/1/75
f 57/1/94 89/1/94 88/1/94
f 44/1/77 76/1/77 75/1/77
f 58/1/78 90/1/78 89/1/78
f 45/1/95 77/1/95 76/1/95
f 59/1/96 91/1/96 90/1/96
f 46/1/97 78/1/97 77/1/97
f 60/1/98 92/1/98 91/1/98
f 47/1/99 79/1/99 78/1/99
f 33/1/19 65/1/19 66/1/19
f 61/1/20 93/1/20 92/1/20
f 48/1/100 80/1/100 79/1/100
f 35/1/101 67/1/101 65/1/101
f 62/1/102 94/1/102 93/1/102
f 49/1/80 81/1/80 80/1/80
f 36/1/81 68/1/81 67/1/81
f 63/1/82 95/1/82 94/1/82
f 50/1/103 82/1/103 81/1/103
f 37/1/104 69/1/104 68/1/104
f 64/1/105 96/1/105 95/1/105
f 51/1/106 83/1/106 82/1/106
f 38/1/68 70/1/68 69/1/68
f 34/1/32 66/1/32 96/1/32
f 52/1/107 84/1/107 83/1/107
f 39/1/108 71/1/108 70/1/108
f 53/1/69 85/1/69 84/1/69
f 114/1/27 146/1/27 145/1/27
f 88/1/36 89/1/36 121/1/36
f 75/1/109 76/1/109 108/1/109
f 90/1/38 122/1/38 121/1/38
f 77/1/39 109/1/39 108/1/39
f 91/1/110 123/1/110 122/1/110
f 77/1/41 78/1/41 110/1/41
f 92/1/42 124/1/42 123/1/42
f 79/1/111 111/1/111 110/1/111
f 65/1/112 97/1/112 98/1/112
f 93/1/45 125/1/45 124/1/45
f 80/1/46 112/1/46 111/1/46
f 65/1/47 67/1/47 99/1/47
f 93/1/48 94/1/48 126/1/48
f 81/1/113 113/1/113 112/1/113
f 67/1/114 68/1/114 100/1/114
f 95/1/115 127/1/115 126/1/115
f 81/1/116 82/1/116 114/1/116
f 69/1/53 101/1/53 100/1/53
f 96/1/54 128/1/54 127/1/54
f 83/1/55 115/1/55 114/1/55
f 69/1/56 70/1/56 102/1/56
f 96/1/117 66/1/117 98/1/117
f 83/1/118 84/1/118 116/1/118
f 70/1/59 71/1/59 103/1/59
f 85/1/60 117/1/60 116/1/60
f 71/1/119 72/1/119 104/1/119
f 85/1/62 86/1/62 118/1/62
f 72/1/63 73/1/63 105/1/63
f 87/1/120 119/1/120 118/1/120
f 74/1/65 106/1/65 105/1/65
f 88/1/121 120/1/121 119/1/121
f 130/1/3 129/1/3 131/1/3
f 131/1/122 132/1/122 133/1/122
f 133/1/123 134/1/123 135/1/123
f 135/1/3 136/1/3 137/1/3
f 137/1/3 138/1/3 139/1/3
f 139/1/3 140/1/3 141/1/3
f 141/1/124 142/1/124 143/1/124
f 143/1/3 144/1/3 145/1/3
f 145/1/3 146/1/3 147/1/3
f 147/1/122 148/1/122 149/1/122
f 149/1/3 150/1/3 151/1/3
f 151/1/3 152/1/3 153/1/3
f 153/1/3 154/1/3 155/1/3
f 155/1/125 156/1/125 157/1/125
f 157/1/124 158/1/124 159/1/124
f 159/1/3 160/1/3 130/1/3
f 130/1/3 131/1/3 133/1/3
f 133/1/3 135/1/3 137/1/3
f 137/1/126 139/1/126 141/1/126
f 141/1/3 143/1/3 145/1/3
f 145/1/3 147/1/3 149/1/3
f 149/1/127 151/1/127 153/1/127
f 153/1/3 155/1/3 157/1/3
f 157/1/3 159/1/3 130/1/3
f 130/1/3 133/1/3 137/1/3
f 137/1/3 141/1/3 145/1/3
f 145/1/3 149/1/3 153/1/3
f 153/1/3 157/1/3 130/1/3
f 130/1/3 137/1/3 145/1/3
f 101/1/104 133/1/104 132/1/104
f 128/1/29 160/1/29 159/1/29
f 115/1/106 147/1/106 146/1/106
f 102/1/68 134/1/68 133/1/68
f 98/1/32 130/1/32 160/1/32
f 116/1/33 148/1/33 147/1/33
f 103/1/34 135/1/34 134/1/34
f 117/1/69 149/1/69 148/1/69
f 104/1/2 136/1/2 135/1/2
f 118/1/5 150/1/5 149/1/5
f 105/1/71 137/1/71 136/1/71
f 119/1/7 151/1/7 150/1/7
f 106/1/73 138/1/73 137/1/73
f 120/1/93 152/1/93 151/1/93
f 107/1/10 139/1/10 138/1/10
f 121/1/11 153/1/11 152/1/11
f 108/1/77 140/1/77 139/1/77
f 122/1/128 154/1/128 153/1/128
f 109/1/14 141/1/14 140/1/14
f 123/1/129 155/1/129 154/1/129
f 110/1/16 142/1/16 141/1/16
f 124/1/17 156/1/17 155/1/17
f 111/1/18 143/1/18 142/1/18
f 97/1/19 129/1/19 130/1/19
f 125/1/20 157/1/20 156/1/20
f 112/1/100 144/1/100 143/1/100
f 99/1/22 131/1/22 129/1/22
f 126/1/102 158/1/102 157/1/102
f 113/1/80 145/1/80 144/1/80
f 100/1/81 132/1/81 131/1/81
f 127/1/82 159/1/82 158/1/82
