# Blender 4.1.1
# www.blender.org
mtllib Circle.719.mtl
o Circle.007
v -1067.497803 2089.538574 3837.674316
v -1069.667480 2089.538574 3837.887939
v -1071.753906 2089.538574 3838.520752
v -1073.676636 2089.538574 3839.548584
v -1075.362061 2089.538574 3840.931641
v -1076.745117 2089.538574 3842.616943
v -1077.772949 2089.538574 3844.539795
v -1078.405762 2089.538574 3846.626221
v -1078.619507 2089.538574 3848.795898
v -1078.405762 2089.538574 3850.965576
v -1077.772949 2089.538574 3853.052002
v -1076.745117 2089.538574 3854.974854
v -1075.362061 2089.538574 3856.660156
v -1073.676636 2089.538574 3858.043213
v -1071.753906 2089.538574 3859.071045
v -1069.667480 2089.538574 3859.703857
v -1067.497803 2089.538574 3859.917480
v -1065.328125 2089.538574 3859.703857
v -1063.241699 2089.538574 3859.071045
v -1061.318970 2089.538574 3858.043213
v -1059.633545 2089.538574 3856.660156
v -1058.250488 2089.538574 3854.974854
v -1057.222656 2089.538574 3853.052002
v -1056.589844 2089.538574 3850.965576
v -1056.376099 2089.538574 3848.795898
v -1056.589844 2089.538574 3846.626221
v -1057.222656 2089.538574 3844.539795
v -1058.250488 2089.538574 3842.616943
v -1059.633545 2089.538574 3840.931641
v -1061.318970 2089.538574 3839.548584
v -1063.241699 2089.538574 3838.520752
v -1065.328125 2089.538574 3837.887939
v -1069.667480 2089.538574 3837.887939
v -1067.497803 2089.538574 3837.674316
v -1071.753906 2089.538574 3838.520752
v -1073.676636 2089.538574 3839.548584
v -1075.362061 2089.538574 3840.931641
v -1076.745117 2089.538574 3842.616943
v -1077.772949 2089.538574 3844.539795
v -1078.405762 2089.538574 3846.626221
v -1078.619507 2089.538574 3848.795898
v -1078.405762 2089.538574 3850.965576
v -1077.772949 2089.538574 3853.052002
v -1076.745117 2089.538574 3854.974854
v -1075.362061 2089.538574 3856.660156
v -1073.676636 2089.538574 3858.043213
v -1071.753906 2089.538574 3859.071045
v -1069.667480 2089.538574 3859.703857
v -1067.497803 2089.538574 3859.917480
v -1065.328125 2089.538574 3859.703857
v -1063.241699 2089.538574 3859.071045
v -1061.318970 2089.538574 3858.043213
v -1059.633545 2089.538574 3856.660156
v -1058.250488 2089.538574 3854.974854
v -1057.222656 2089.538574 3853.052002
v -1056.589844 2089.538574 3850.965576
v -1056.376099 2089.538574 3848.795898
v -1056.589844 2089.538574 3846.626221
v -1057.222656 2089.538574 3844.539795
v -1058.250488 2089.538574 3842.616943
v -1059.633545 2089.538574 3840.931641
v -1061.318970 2089.538574 3839.548584
v -1063.241699 2089.538574 3838.520752
v -1065.328125 2089.538574 3837.887939
v -1069.667480 2118.899902 3837.887939
v -1067.497803 2118.899902 3837.674316
v -1071.753906 2118.899902 3838.520752
v -1073.676636 2118.899902 3839.548584
v -1075.362061 2118.899902 3840.931641
v -1076.745117 2118.899902 3842.616943
v -1077.772949 2118.899902 3844.539795
v -1078.405762 2118.899902 3846.626221
v -1078.619507 2118.899902 3848.795898
v -1078.405762 2118.899902 3850.965576
v -1077.772949 2118.899902 3853.052002
v -1076.745117 2118.899902 3854.974854
v -1075.362061 2118.899902 3856.660156
v -1073.676636 2118.899902 3858.043213
v -1071.753906 2118.899902 3859.071045
v -1069.667480 2118.899902 3859.703857
v -1067.497803 2118.899902 3859.917480
v -1065.328125 2118.899902 3859.703857
v -1063.241699 2118.899902 3859.071045
v -1061.318970 2118.899902 3858.043213
v -1059.633545 2118.899902 3856.660156
v -1058.250488 2118.899902 3854.974854
v -1057.222656 2118.899902 3853.052002
v -1056.589844 2118.899902 3850.965576
v -1056.376099 2118.899902 3848.795898
v -1056.589844 2118.899902 3846.626221
v -1057.222656 2118.899902 3844.539795
v -1058.250488 2118.899902 3842.616943
v -1059.633545 2118.899902 3840.931641
v -1061.318970 2118.899902 3839.548584
v -1063.241699 2118.899902 3838.520752
v -1065.328125 2118.899902 3837.887939
v -1071.163208 2120.250977 3830.367188
v -1067.497559 2120.250977 3830.006104
v -1074.687866 2120.250977 3831.436523
v -1077.936279 2120.250977 3833.172852
v -1080.783569 2120.250977 3835.509521
v -1083.120239 2120.250977 3838.356689
v -1084.856567 2120.250977 3841.604980
v -1085.925781 2120.250977 3845.129883
v -1086.286865 2120.250977 3848.795410
v -1085.925781 2120.250977 3852.460938
v -1084.856567 2120.250977 3855.985840
v -1083.120239 2120.250977 3859.234131
v -1080.783569 2120.250977 3862.081543
v -1077.936279 2120.250977 3864.418213
v -1074.687866 2120.250977 3866.154541
v -1071.163208 2120.250977 3867.223633
v -1067.497559 2120.250977 3867.584717
v -1063.831909 2120.250977 3867.223633
v -1060.307251 2120.250977 3866.154541
v -1057.058838 2120.250977 3864.418213
v -1054.211548 2120.250977 3862.081543
v -1051.874878 2120.250977 3859.234131
v -1050.138550 2120.250977 3855.985840
v -1049.069336 2120.250977 3852.460938
v -1048.708374 2120.250977 3848.795410
v -1049.069336 2120.250977 3845.129883
v -1050.138550 2120.250977 3841.604980
v -1051.874878 2120.250977 3838.356689
v -1054.211548 2120.250977 3835.509521
v -1057.058838 2120.250977 3833.172852
v -1060.307251 2120.250977 3831.436523
v -1063.831909 2120.250977 3830.367188
v -1071.163208 2130.216797 3830.367188
v -1067.497559 2130.216797 3830.006104
v -1074.687866 2130.216797 3831.436523
v -1077.936279 2130.216797 3833.172852
v -1080.783569 2130.216797 3835.509521
v -1083.120239 2130.216797 3838.356689
v -1084.856567 2130.216797 3841.604980
v -1085.925781 2130.216797 3845.129883
v -1086.286865 2130.216797 3848.795410
v -1085.925781 2130.216797 3852.460938
v -1084.856567 2130.216797 3855.985840
v -1083.120239 2130.216797 3859.234131
v -1080.783569 2130.216797 3862.081543
v -1077.936279 2130.216797 3864.418213
v -1074.687866 2130.216797 3866.154541
v -1071.163208 2130.216797 3867.223633
v -1067.497559 2130.216797 3867.584717
v -1063.831909 2130.216797 3867.223633
v -1060.307251 2130.216797 3866.154541
v -1057.058838 2130.216797 3864.418213
v -1054.211548 2130.216797 3862.081543
v -1051.874878 2130.216797 3859.234131
v -1050.138550 2130.216797 3855.985840
v -1049.069336 2130.216797 3852.460938
v -1048.708374 2130.216797 3848.795410
v -1049.069336 2130.216797 3845.129883
v -1050.138550 2130.216797 3841.604980
v -1051.874878 2130.216797 3838.356689
v -1054.211548 2130.216797 3835.509521
v -1057.058838 2130.216797 3833.172852
v -1060.307251 2130.216797 3831.436523
v -1063.831909 2130.216797 3830.367188
vn -0.0000 -1.0000 -0.0000
vn -0.0980 -0.0000 0.9952
vn -0.0000 1.0000 -0.0000
vn 0.0823 -0.9847 0.1537
vn -0.4714 -0.0000 -0.8819
vn 0.4715 -0.0000 -0.8819
vn 0.0980 -0.0000 0.9952
vn -0.6344 -0.0000 -0.7730
vn 0.2902 -0.0000 -0.9570
vn 0.2902 -0.0000 0.9570
vn -0.7730 -0.0000 -0.6344
vn 0.0980 -0.0000 -0.9952
vn 0.4714 -0.0000 0.8819
vn -0.8819 -0.0000 -0.4714
vn 0.6344 -0.0000 0.7730
vn -0.9570 -0.0000 -0.2902
vn 0.7730 -0.0000 0.6344
vn -0.9952 -0.0000 -0.0981
vn 0.8819 -0.0000 0.4714
vn -0.9952 -0.0000 0.0980
vn 0.9570 -0.0000 0.2902
vn -0.9569 -0.0000 0.2903
vn 0.9952 -0.0000 0.0981
vn -0.8819 -0.0000 0.4714
vn 0.9952 -0.0000 -0.0980
vn -0.7730 -0.0000 0.6344
vn 0.9569 -0.0000 -0.2903
vn -0.6343 -0.0000 0.7731
vn 0.8819 -0.0000 -0.4714
vn -0.4715 -0.0000 0.8819
vn -0.0980 -0.0000 -0.9952
vn 0.7730 -0.0000 -0.6344
vn -0.2903 -0.0000 0.9569
vn -0.2902 -0.0000 -0.9570
vn 0.6343 -0.0000 -0.7731
vn -0.1538 -0.9847 -0.0822
vn 0.1107 -0.9847 0.1348
vn -0.1669 -0.9847 -0.0506
vn 0.1347 -0.9847 0.1106
vn -0.1735 -0.9847 -0.0171
vn 0.1538 -0.9847 0.0822
vn -0.1735 -0.9847 0.0171
vn 0.1668 -0.9847 0.0506
vn -0.1669 -0.9847 0.0506
vn 0.1735 -0.9847 0.0171
vn -0.1538 -0.9847 0.0822
vn 0.1735 -0.9847 -0.0171
vn -0.1348 -0.9847 0.1106
vn 0.1669 -0.9847 -0.0506
vn -0.1106 -0.9847 0.1348
vn 0.1537 -0.9847 -0.0822
vn -0.0822 -0.9847 0.1537
vn -0.0171 -0.9847 -0.1735
vn 0.1348 -0.9847 -0.1106
vn -0.0506 -0.9847 0.1669
vn -0.0507 -0.9847 -0.1668
vn 0.1107 -0.9847 -0.1347
vn -0.0171 -0.9847 0.1735
vn -0.0822 -0.9847 -0.1538
vn 0.0822 -0.9847 -0.1537
vn 0.0171 -0.9847 0.1735
vn -0.1106 -0.9847 -0.1348
vn 0.0506 -0.9847 -0.1669
vn 0.0506 -0.9847 0.1668
vn -0.1348 -0.9847 -0.1106
vn 0.0170 -0.9847 -0.1735
vn 0.9952 -0.0000 0.0980
vn -0.6344 -0.0000 0.7730
vn -0.4714 -0.0000 0.8819
vn -0.2903 -0.0000 0.9570
vn -0.2903 -0.0000 -0.9569
vn 0.6344 -0.0000 -0.7730
vn 0.4714 -0.0000 -0.8819
vn 0.2903 -0.0000 -0.9569
vn 0.2903 -0.0000 0.9570
vn -0.9952 -0.0000 -0.0980
vn -0.0001 -1.0000 -0.0000
vn -0.0005 -1.0000 -0.0000
vn 0.0005 -1.0000 -0.0000
vn 0.0011 -1.0000 -0.0000
vn 0.0001 -1.0000 -0.0000
vn -0.0011 -1.0000 -0.0000
vn 0.0821 -0.9847 0.1538
vn -0.4715 -0.0000 -0.8819
vn -0.6343 -0.0000 -0.7731
vn 0.4715 -0.0000 0.8819
vn 0.6343 -0.0000 0.7731
vn -0.9569 -0.0000 -0.2903
vn -0.9952 -0.0000 0.0981
vn 0.9569 -0.0000 0.2903
vn -0.9570 -0.0000 0.2902
vn 0.9952 -0.0000 -0.0981
vn 0.9570 -0.0000 -0.2902
vn -0.2902 -0.0000 0.9570
vn -0.2903 -0.0000 -0.9570
vn -0.1537 -0.9847 -0.0822
vn 0.1106 -0.9847 0.1348
vn 0.1348 -0.9847 0.1106
vn 0.1669 -0.9847 0.0506
vn -0.1668 -0.9847 0.0506
vn 0.1668 -0.9847 -0.0506
vn -0.1107 -0.9847 0.1348
vn 0.1538 -0.9847 -0.0822
vn -0.0822 -0.9847 0.1538
vn 0.1347 -0.9847 -0.1106
vn -0.0506 -0.9847 -0.1668
vn 0.1105 -0.9847 -0.1348
vn -0.0822 -0.9847 -0.1537
vn 0.0822 -0.9847 -0.1538
vn 0.0507 -0.9847 -0.1668
vn 0.0506 -0.9847 0.1669
vn 0.0172 -0.9847 -0.1735
vn 0.0002 1.0000 -0.0000
vn -0.0004 1.0000 -0.0000
vn 0.0004 1.0000 -0.0000
vn -0.0001 1.0000 -0.0000
vn 0.0001 1.0000 -0.0000
vt 0.000000 0.000000
s 0
usemtl Material.003
f 19/1/1 11/1/1 3/1/1
f 49/1/2 80/1/2 48/1/2
f 8/1/3 41/1/3 40/1/3
f 22/1/3 55/1/3 54/1/3
f 9/1/3 42/1/3 41/1/3
f 23/1/3 56/1/3 55/1/3
f 10/1/3 43/1/3 42/1/3
f 24/1/3 57/1/3 56/1/3
f 11/1/3 44/1/3 43/1/3
f 25/1/3 58/1/3 57/1/3
f 12/1/3 45/1/3 44/1/3
f 26/1/3 59/1/3 58/1/3
f 13/1/3 46/1/3 45/1/3
f 27/1/3 60/1/3 59/1/3
f 14/1/3 47/1/3 46/1/3
f 1/1/3 33/1/3 34/1/3
f 28/1/3 61/1/3 60/1/3
f 15/1/3 48/1/3 47/1/3
f 2/1/3 35/1/3 33/1/3
f 29/1/3 62/1/3 61/1/3
f 16/1/3 49/1/3 48/1/3
f 3/1/3 36/1/3 35/1/3
f 30/1/3 63/1/3 62/1/3
f 17/1/3 50/1/3 49/1/3
f 4/1/3 37/1/3 36/1/3
f 31/1/3 64/1/3 63/1/3
f 18/1/3 51/1/3 50/1/3
f 5/1/3 38/1/3 37/1/3
f 32/1/3 34/1/3 64/1/3
f 19/1/3 52/1/3 51/1/3
f 6/1/3 39/1/3 38/1/3
f 20/1/3 53/1/3 52/1/3
f 7/1/3 40/1/3 39/1/3
f 21/1/3 54/1/3 53/1/3
f 84/1/4 115/1/4 83/1/4
f 36/1/5 67/1/5 35/1/5
f 63/1/6 94/1/6 62/1/6
f 50/1/7 81/1/7 49/1/7
f 37/1/8 68/1/8 36/1/8
f 64/1/9 95/1/9 63/1/9
f 51/1/10 82/1/10 50/1/10
f 38/1/11 69/1/11 37/1/11
f 34/1/12 96/1/12 64/1/12
f 52/1/13 83/1/13 51/1/13
f 39/1/14 70/1/14 38/1/14
f 53/1/15 84/1/15 52/1/15
f 40/1/16 71/1/16 39/1/16
f 54/1/17 85/1/17 53/1/17
f 41/1/18 72/1/18 40/1/18
f 55/1/19 86/1/19 54/1/19
f 42/1/20 73/1/20 41/1/20
f 56/1/21 87/1/21 55/1/21
f 43/1/22 74/1/22 42/1/22
f 57/1/23 88/1/23 56/1/23
f 44/1/24 75/1/24 43/1/24
f 58/1/25 89/1/25 57/1/25
f 45/1/26 76/1/26 44/1/26
f 59/1/27 90/1/27 58/1/27
f 46/1/28 77/1/28 45/1/28
f 60/1/29 91/1/29 59/1/29
f 47/1/30 78/1/30 46/1/30
f 33/1/31 66/1/31 34/1/31
f 61/1/32 92/1/32 60/1/32
f 48/1/33 79/1/33 47/1/33
f 35/1/34 65/1/34 33/1/34
f 62/1/35 93/1/35 61/1/35
f 119/1/19 150/1/19 118/1/19
f 70/1/36 103/1/36 102/1/36
f 85/1/37 116/1/37 84/1/37
f 71/1/38 104/1/38 103/1/38
f 86/1/39 117/1/39 85/1/39
f 72/1/40 105/1/40 104/1/40
f 87/1/41 118/1/41 86/1/41
f 73/1/42 106/1/42 105/1/42
f 88/1/43 119/1/43 87/1/43
f 75/1/44 106/1/44 74/1/44
f 89/1/45 120/1/45 88/1/45
f 75/1/46 108/1/46 107/1/46
f 90/1/47 121/1/47 89/1/47
f 77/1/48 108/1/48 76/1/48
f 91/1/49 122/1/49 90/1/49
f 77/1/50 110/1/50 109/1/50
f 92/1/51 123/1/51 91/1/51
f 79/1/52 110/1/52 78/1/52
f 66/1/53 97/1/53 98/1/53
f 92/1/54 125/1/54 124/1/54
f 79/1/55 112/1/55 111/1/55
f 67/1/56 97/1/56 65/1/56
f 93/1/57 126/1/57 125/1/57
f 80/1/58 113/1/58 112/1/58
f 67/1/59 100/1/59 99/1/59
f 95/1/60 126/1/60 94/1/60
f 82/1/61 113/1/61 81/1/61
f 68/1/62 101/1/62 100/1/62
f 95/1/63 128/1/63 127/1/63
f 83/1/64 114/1/64 82/1/64
f 69/1/65 102/1/65 101/1/65
f 96/1/66 98/1/66 128/1/66
f 145/1/3 153/1/3 130/1/3
f 106/1/20 137/1/20 105/1/20
f 120/1/21 151/1/21 119/1/21
f 107/1/22 138/1/22 106/1/22
f 121/1/67 152/1/67 120/1/67
f 108/1/24 139/1/24 107/1/24
f 122/1/25 153/1/25 121/1/25
f 109/1/26 140/1/26 108/1/26
f 123/1/27 154/1/27 122/1/27
f 110/1/68 141/1/68 109/1/68
f 124/1/29 155/1/29 123/1/29
f 111/1/69 142/1/69 110/1/69
f 97/1/31 130/1/31 98/1/31
f 125/1/32 156/1/32 124/1/32
f 112/1/70 143/1/70 111/1/70
f 99/1/71 129/1/71 97/1/71
f 126/1/72 157/1/72 125/1/72
f 113/1/2 144/1/2 112/1/2
f 100/1/5 131/1/5 99/1/5
f 127/1/73 158/1/73 126/1/73
f 114/1/7 145/1/7 113/1/7
f 101/1/8 132/1/8 100/1/8
f 128/1/74 159/1/74 127/1/74
f 115/1/75 146/1/75 114/1/75
f 102/1/11 133/1/11 101/1/11
f 98/1/12 160/1/12 128/1/12
f 116/1/13 147/1/13 115/1/13
f 103/1/14 134/1/14 102/1/14
f 117/1/15 148/1/15 116/1/15
f 104/1/16 135/1/16 103/1/16
f 118/1/17 149/1/17 117/1/17
f 105/1/76 136/1/76 104/1/76
f 3/1/77 2/1/77 1/1/77
f 1/1/1 32/1/1 31/1/1
f 31/1/78 30/1/78 29/1/78
f 29/1/79 28/1/79 27/1/79
f 27/1/80 26/1/80 25/1/80
f 25/1/80 24/1/80 23/1/80
f 23/1/79 22/1/79 21/1/79
f 21/1/78 20/1/78 19/1/78
f 19/1/81 18/1/81 17/1/81
f 17/1/1 16/1/1 15/1/1
f 15/1/79 14/1/79 13/1/79
f 13/1/78 12/1/78 11/1/78
f 11/1/82 10/1/82 9/1/82
f 9/1/82 8/1/82 7/1/82
f 7/1/78 6/1/78 5/1/78
f 5/1/79 4/1/79 3/1/79
f 3/1/1 1/1/1 31/1/1
f 31/1/1 29/1/1 27/1/1
f 27/1/1 25/1/1 23/1/1
f 23/1/1 21/1/1 19/1/1
f 19/1/1 17/1/1 15/1/1
f 15/1/1 13/1/1 11/1/1
f 11/1/1 9/1/1 7/1/1
f 7/1/1 5/1/1 3/1/1
f 3/1/1 31/1/1 27/1/1
f 27/1/1 23/1/1 19/1/1
f 19/1/1 15/1/1 11/1/1
f 11/1/1 7/1/1 3/1/1
f 3/1/1 27/1/1 19/1/1
f 49/1/2 81/1/2 80/1/2
f 8/1/3 9/1/3 41/1/3
f 22/1/3 23/1/3 55/1/3
f 9/1/3 10/1/3 42/1/3
f 23/1/3 24/1/3 56/1/3
f 10/1/3 11/1/3 43/1/3
f 24/1/3 25/1/3 57/1/3
f 11/1/3 12/1/3 44/1/3
f 25/1/3 26/1/3 58/1/3
f 12/1/3 13/1/3 45/1/3
f 26/1/3 27/1/3 59/1/3
f 13/1/3 14/1/3 46/1/3
f 27/1/3 28/1/3 60/1/3
f 14/1/3 15/1/3 47/1/3
f 1/1/3 2/1/3 33/1/3
f 28/1/3 29/1/3 61/1/3
f 15/1/3 16/1/3 48/1/3
f 2/1/3 3/1/3 35/1/3
f 29/1/3 30/1/3 62/1/3
f 16/1/3 17/1/3 49/1/3
f 3/1/3 4/1/3 36/1/3
f 30/1/3 31/1/3 63/1/3
f 17/1/3 18/1/3 50/1/3
f 4/1/3 5/1/3 37/1/3
f 31/1/3 32/1/3 64/1/3
f 18/1/3 19/1/3 51/1/3
f 5/1/3 6/1/3 38/1/3
f 32/1/3 1/1/3 34/1/3
f 19/1/3 20/1/3 52/1/3
f 6/1/3 7/1/3 39/1/3
f 20/1/3 21/1/3 53/1/3
f 7/1/3 8/1/3 40/1/3
f 21/1/3 22/1/3 54/1/3
f 84/1/83 116/1/83 115/1/83
f 36/1/84 68/1/84 67/1/84
f 63/1/73 95/1/73 94/1/73
f 50/1/7 82/1/7 81/1/7
f 37/1/85 69/1/85 68/1/85
f 64/1/9 96/1/9 95/1/9
f 51/1/10 83/1/10 82/1/10
f 38/1/11 70/1/11 69/1/11
f 34/1/12 66/1/12 96/1/12
f 52/1/86 84/1/86 83/1/86
f 39/1/14 71/1/14 70/1/14
f 53/1/87 85/1/87 84/1/87
f 40/1/88 72/1/88 71/1/88
f 54/1/17 86/1/17 85/1/17
f 41/1/76 73/1/76 72/1/76
f 55/1/19 87/1/19 86/1/19
f 42/1/89 74/1/89 73/1/89
f 56/1/90 88/1/90 87/1/90
f 43/1/91 75/1/91 74/1/91
f 57/1/67 89/1/67 88/1/67
f 44/1/24 76/1/24 75/1/24
f 58/1/92 90/1/92 89/1/92
f 45/1/26 77/1/26 76/1/26
f 59/1/93 91/1/93 90/1/93
f 46/1/68 78/1/68 77/1/68
f 60/1/29 92/1/29 91/1/29
f 47/1/69 79/1/69 78/1/69
f 33/1/31 65/1/31 66/1/31
f 61/1/32 93/1/32 92/1/32
f 48/1/94 80/1/94 79/1/94
f 35/1/95 67/1/95 65/1/95
f 62/1/72 94/1/72 93/1/72
f 119/1/19 151/1/19 150/1/19
f 70/1/96 71/1/96 103/1/96
f 85/1/97 117/1/97 116/1/97
f 71/1/38 72/1/38 104/1/38
f 86/1/98 118/1/98 117/1/98
f 72/1/40 73/1/40 105/1/40
f 87/1/41 119/1/41 118/1/41
f 73/1/42 74/1/42 106/1/42
f 88/1/99 120/1/99 119/1/99
f 75/1/100 107/1/100 106/1/100
f 89/1/45 121/1/45 120/1/45
f 75/1/46 76/1/46 108/1/46
f 90/1/47 122/1/47 121/1/47
f 77/1/48 109/1/48 108/1/48
f 91/1/101 123/1/101 122/1/101
f 77/1/102 78/1/102 110/1/102
f 92/1/103 124/1/103 123/1/103
f 79/1/104 111/1/104 110/1/104
f 66/1/53 65/1/53 97/1/53
f 92/1/105 93/1/105 125/1/105
f 79/1/55 80/1/55 112/1/55
f 67/1/106 99/1/106 97/1/106
f 93/1/107 94/1/107 126/1/107
f 80/1/58 81/1/58 113/1/58
f 67/1/108 68/1/108 100/1/108
f 95/1/109 127/1/109 126/1/109
f 82/1/61 114/1/61 113/1/61
f 68/1/62 69/1/62 101/1/62
f 95/1/110 96/1/110 128/1/110
f 83/1/111 115/1/111 114/1/111
f 69/1/65 70/1/65 102/1/65
f 96/1/112 66/1/112 98/1/112
f 130/1/113 129/1/113 131/1/113
f 131/1/114 132/1/114 133/1/114
f 133/1/114 134/1/114 135/1/114
f 135/1/3 136/1/3 137/1/3
f 137/1/3 138/1/3 139/1/3
f 139/1/3 140/1/3 141/1/3
f 141/1/114 142/1/114 143/1/114
f 143/1/3 144/1/3 145/1/3
f 145/1/3 146/1/3 147/1/3
f 147/1/115 148/1/115 149/1/115
f 149/1/3 150/1/3 151/1/3
f 151/1/3 152/1/3 153/1/3
f 153/1/3 154/1/3 155/1/3
f 155/1/115 156/1/115 157/1/115
f 157/1/115 158/1/115 159/1/115
f 159/1/116 160/1/116 130/1/116
f 130/1/3 131/1/3 133/1/3
f 133/1/117 135/1/117 137/1/117
f 137/1/116 139/1/116 141/1/116
f 141/1/3 143/1/3 145/1/3
f 145/1/3 147/1/3 149/1/3
f 149/1/117 151/1/117 153/1/117
f 153/1/116 155/1/116 157/1/116
f 157/1/3 159/1/3 130/1/3
f 130/1/3 133/1/3 137/1/3
f 137/1/3 141/1/3 145/1/3
f 145/1/3 149/1/3 153/1/3
f 153/1/3 157/1/3 130/1/3
f 130/1/3 137/1/3 145/1/3
f 106/1/20 138/1/20 137/1/20
f 120/1/90 152/1/90 151/1/90
f 107/1/91 139/1/91 138/1/91
f 121/1/67 153/1/67 152/1/67
f 108/1/24 140/1/24 139/1/24
f 122/1/25 154/1/25 153/1/25
f 109/1/26 141/1/26 140/1/26
f 123/1/93 155/1/93 154/1/93
f 110/1/68 142/1/68 141/1/68
f 124/1/29 156/1/29 155/1/29
f 111/1/69 143/1/69 142/1/69
f 97/1/31 129/1/31 130/1/31
f 125/1/32 157/1/32 156/1/32
f 112/1/33 144/1/33 143/1/33
f 99/1/71 131/1/71 129/1/71
f 126/1/72 158/1/72 157/1/72
f 113/1/2 145/1/2 144/1/2
f 100/1/5 132/1/5 131/1/5
f 127/1/73 159/1/73 158/1/73
f 114/1/7 146/1/7 145/1/7
f 101/1/8 133/1/8 132/1/8
f 128/1/74 160/1/74 159/1/74
f 115/1/75 147/1/75 146/1/75
f 102/1/11 134/1/11 133/1/11
f 98/1/12 130/1/12 160/1/12
f 116/1/13 148/1/13 147/1/13
f 103/1/14 135/1/14 134/1/14
f 117/1/15 149/1/15 148/1/15
f 104/1/88 136/1/88 135/1/88
f 118/1/17 150/1/17 149/1/17
f 105/1/76 137/1/76 136/1/76
