# Blender 4.1.1
# www.blender.org
mtllib ID212.mtl
o n13b1
v 14517.000000 6522.350098 -3400.619873
v 13979.400391 7865.839844 -3321.459961
v 13135.900391 9339.509766 -3188.849854
v 12576.000000 10588.400391 -3069.750000
v 12412.200195 11176.299805 -3022.629883
v 12412.200195 11176.299805 -3022.629883
v 12284.200195 11847.400391 -2982.790039
v 12284.200195 11847.400391 -2982.790039
v 12251.299805 12594.100586 -2998.849854
v 12380.900391 13265.600586 -3052.209961
v 13383.600586 14688.299805 -3339.829834
v 14680.600586 16542.000000 -3473.600098
v 15438.100586 18512.400391 -3527.069824
v 15676.299805 20416.300781 -3462.500000
v 15372.200195 22500.900391 -3357.969971
v 14525.900391 24584.500000 -3220.770020
v 13177.200195 26459.300781 -3059.359863
v 11390.700195 27958.701172 -2876.809814
v 9297.379883 28973.300781 -2680.550049
v 7043.619629 29427.900391 -2475.839844
v 4784.129883 29270.500000 -2267.320068
v 2694.739990 28548.500000 -2054.469971
v 863.662048 27457.701172 -1802.089966
v -639.169983 25928.800781 -1596.750000
v -1094.780029 25158.201172 -1490.959961
v -1284.329956 24097.000000 -1452.309937
v 14514.500000 6527.200195 -3707.600098
v 13974.799805 7872.270020 -3628.849854
v 13127.000000 9349.359375 -3496.349854
v 12568.700195 10598.000000 -3377.699951
v 12407.700195 11181.299805 -3323.089844
v 12407.700195 11181.299805 -3323.089844
v 12281.900391 11842.299805 -3291.309814
v 12281.900391 11842.299805 -3291.309814
v 12244.799805 12579.700195 -3305.709961
v 12367.000000 13243.600586 -3357.629883
v 13358.700195 14663.299805 -3643.260010
v 14670.700195 16534.599609 -3781.109863
v 15424.600586 18513.599609 -3834.510010
v 15664.000000 20421.300781 -3770.169922
v 15360.600586 22508.300781 -3665.579834
v 14515.500000 24593.000000 -3528.389893
v 13166.799805 26468.099609 -3366.429932
v 11378.799805 27966.500000 -3183.439941
v 9284.299805 28978.800781 -2986.449951
v 7029.700195 29430.599609 -2780.750000
v 4770.270020 29269.900391 -2562.260010
v 2681.790039 28544.500000 -2358.600098
v 853.667053 27450.500000 -2108.169922
v -646.187012 25921.099609 -1905.049927
v -1101.069946 25150.500000 -1800.329956
v -1288.390015 24087.599609 -1763.260010
v -2016.700073 20271.701172 -1545.719971
v -1810.510010 18030.701172 -1545.719971
v -2016.700073 20271.701172 -3832.819824
v -1810.510010 18030.701172 -3832.819824
v -2353.739990 22702.300781 -1604.630005
v -2038.679932 20474.000000 -1604.630005
v -2353.739990 22702.300781 -3891.729980
v -2038.679932 20474.000000 -3891.729980
v -3320.889893 25134.701172 -1705.400024
v -2578.129883 23010.300781 -1705.400024
v -3320.889893 25134.701172 -3992.500000
v -2578.129883 23010.300781 -3992.500000
v -4420.469727 26441.500000 -1732.279907
v -4420.469727 26441.500000 -4019.389893
v -3557.600098 25338.900391 -4019.389893
v -3575.379883 25361.599609 -1732.279907
v -6854.040039 27463.701172 -1659.649902
v -4776.529785 26598.500000 -1659.649902
v -6854.040039 27463.701172 -3946.750000
v -4776.529785 26598.500000 -3946.750000
vn -0.8825 0.4697 0.0241
vn -0.9695 0.2422 0.0375
vn -0.9694 0.2415 0.0433
vn -0.8825 0.4700 0.0170
vn -0.8181 0.5749 0.0118
vn -0.9098 -0.4150 0.0034
vn -0.9282 -0.3722 0.0037
vn -0.8896 -0.4567 0.0058
vn -0.9280 -0.3725 0.0017
vn -0.8833 -0.4687 0.0082
vn -0.8983 -0.4392 0.0104
vn -0.9317 -0.3630 0.0124
vn -0.9486 -0.3162 0.0113
vn -0.9633 -0.2682 0.0122
vn -0.9631 -0.2691 0.0099
vn -0.9822 -0.1877 0.0108
vn -0.9822 -0.1874 0.0113
vn -0.9822 -0.1878 0.0107
vn -0.9821 -0.1880 0.0101
vn -0.9938 0.1086 0.0225
vn -0.9994 0.0324 0.0145
vn -0.9463 0.3230 0.0134
vn -0.9988 -0.0469 0.0157
vn -0.8909 0.4540 0.0160
vn -0.8179 0.5751 0.0194
vn -0.9986 0.0336 0.0413
vn -0.9977 -0.0567 0.0379
vn -0.9740 -0.2243 0.0325
vn -0.9529 -0.3021 0.0271
vn -0.8932 -0.4492 0.0196
vn -0.8548 -0.5187 0.0146
vn -0.7602 -0.6497 0.0074
vn -0.7036 -0.7106 0.0054
vn -0.5774 -0.8165 -0.0002
vn -0.5081 -0.8613 0.0007
vn -0.3588 -0.9334 -0.0043
vn -0.2789 -0.9603 -0.0022
vn -0.1093 -0.9940 -0.0069
vn -0.0197 -0.9998 -0.0041
vn 0.1566 -0.9876 -0.0088
vn 0.2428 -0.9701 -0.0053
vn 0.3904 -0.9206 -0.0085
vn 0.4525 -0.8918 -0.0028
vn 0.5837 -0.8120 -0.0046
vn 0.6511 -0.7590 -0.0007
vn 0.7675 -0.6410 -0.0041
vn 0.8168 -0.5769 -0.0034
vn 0.9150 -0.4032 -0.0092
vn 0.9568 -0.2907 -0.0094
vn 0.9845 -0.1751 -0.0116
vn 0.9843 -0.1761 -0.0075
vn 0.9958 0.0916 -0.0000
vn 0.9902 0.1400 -0.0000
vn 0.9440 0.3300 -0.0000
vn 0.7875 0.6163 -0.0000
vn 0.3845 0.9231 -0.0000
vn -0.9990 -0.0438 0.0082
vt -10.680799 0.125000
vt -10.248500 0.000000
vt -10.248500 0.125000
vt -10.680799 0.000000
vt -11.174900 0.000000
vt -12.750199 0.125000
vt -13.000000 0.000000
vt -12.750199 0.000000
vt -13.000000 0.125000
vt -12.428900 0.125000
vt -12.428900 0.000000
vt -12.163099 0.125000
vt -12.163099 0.000000
vt -12.039499 0.125000
vt -12.039499 0.000000
vt -12.039300 0.000000
vt -11.914700 0.125000
vt -12.039300 0.125000
vt -11.914700 0.000000
vt -11.730700 0.125000
vt -11.730700 0.000000
vt -11.545500 0.000000
vt -11.916000 0.125000
vt -11.545500 0.125000
vt -11.174900 0.125000
vt -9.877920 0.125000
vt -9.877920 0.000000
vt -9.445590 0.125000
vt -9.445590 0.000000
vt -9.013269 0.125000
vt -9.013269 0.000000
vt -8.580940 0.125000
vt -8.580940 0.000000
vt -8.148620 0.125000
vt -8.148620 0.000000
vt -7.654530 0.125000
vt -7.654530 0.000000
vt -7.160450 0.125000
vt -7.160450 0.000000
vt -6.666360 0.125000
vt -6.666360 0.000000
vt -6.234040 0.125000
vt -6.234040 0.000000
vt -5.712120 0.125000
vt -5.712120 0.000000
vt -5.307630 0.125000
vt -5.307630 0.000000
vt -5.184110 0.125000
vt -5.184110 0.000000
vt -5.000000 0.125000
vt -5.000000 0.000000
vt 0.227292 0.976560
vt 0.004979 0.279226
vt 0.004979 0.976560
vt 0.227292 0.279226
vt 0.441346 0.976560
vt 0.225143 0.279226
vt 0.225143 0.976560
vt 0.441346 0.279226
vt 0.643339 0.976560
vt 0.433344 0.279226
vt 0.433344 0.976560
vt 0.643339 0.279226
vt 0.794286 0.976560
vt 0.651286 0.279226
vt 0.648594 0.976560
vt 0.794286 0.279226
vt 0.997799 0.976560
vt 0.787804 0.279226
vt 0.787804 0.976560
vt 0.997799 0.279226
vt -11.916000 0.000000
s 1
usemtl m13
f 38/1/1 13/2/2 39/3/3
f 13/2/2 38/1/1 12/4/4
f 11/5/5 12/4/4 38/1/1
f 28/6/6 1/7/7 2/8/8
f 1/7/7 28/6/6 27/9/9
f 29/10/10 2/8/8 3/11/11
f 2/8/8 29/10/10 28/6/6
f 30/12/12 3/11/11 4/13/13
f 3/11/11 30/12/12 29/10/10
f 31/14/14 4/13/13 5/15/15
f 4/13/13 31/14/14 30/12/12
s 0
f 6/16/16 33/17/16 32/18/17
f 33/17/18 6/16/18 7/19/19
s 1
f 35/20/20 9/21/21 10/22/22
f 9/21/21 35/20/20 34/23/23
f 36/24/24 10/22/22 11/5/5
f 10/22/22 36/24/24 35/20/20
f 37/25/25 11/5/5 38/1/1
f 11/5/5 37/25/25 36/24/24
f 40/26/26 13/2/2 14/27/27
f 13/2/2 40/26/26 39/3/3
f 41/28/28 14/27/27 15/29/29
f 14/27/27 41/28/28 40/26/26
f 42/30/30 15/29/29 16/31/31
f 15/29/29 42/30/30 41/28/28
f 43/32/32 16/31/31 17/33/33
f 16/31/31 43/32/32 42/30/30
f 44/34/34 17/33/33 18/35/35
f 17/33/33 44/34/34 43/32/32
f 45/36/36 18/35/35 19/37/37
f 18/35/35 45/36/36 44/34/34
f 46/38/38 19/37/37 20/39/39
f 19/37/37 46/38/38 45/36/36
f 47/40/40 20/39/39 21/41/41
f 20/39/39 47/40/40 46/38/38
f 48/42/42 21/41/41 22/43/43
f 21/41/41 48/42/42 47/40/40
f 49/44/44 22/43/43 23/45/45
f 22/43/43 49/44/44 48/42/42
f 50/46/46 23/45/45 24/47/47
f 23/45/45 50/46/46 49/44/44
f 51/48/48 24/47/47 25/49/49
f 24/47/47 51/48/48 50/46/46
f 52/50/50 25/49/49 26/51/51
f 25/49/49 52/50/50 51/48/48
s 0
f 55/52/52 54/53/52 56/54/52
f 54/53/52 55/52/52 53/55/52
f 59/56/53 58/57/53 60/58/53
f 58/57/53 59/56/53 57/59/53
f 63/60/54 62/61/54 64/62/54
f 62/61/54 63/60/54 61/63/54
f 66/64/55 68/65/55 67/66/55
f 68/65/55 66/64/55 65/67/55
f 71/68/56 70/69/56 72/70/56
f 70/69/56 71/68/56 69/71/56
s 1
f 8/72/57 9/21/21 34/23/23
