# Blender 4.1.1
# www.blender.org
mtllib polygon7.mtl
o polygon7
v 0.000000 3239.941162 -8952.896484
v 1087.262085 3239.940186 -7137.628418
v -1087.262085 3239.940186 -7137.628418
v 1087.262085 3239.940918 -5617.146484
v -1087.262085 3239.940918 -5617.146484
v -5331.362793 17377.080078 -5690.820312
v -5809.373047 17377.080078 -5690.820312
v -5331.362793 16899.080078 -5690.820312
v -5809.373047 16899.080078 -5690.820312
v 14603.199219 17752.599609 -5690.820312
v 14603.199219 18230.609375 -5690.820312
v 14125.189453 17752.599609 -5690.820312
v 14125.189453 18230.609375 -5690.820312
v 8596.102539 28374.798828 -4884.895508
v 8596.102539 27896.789062 -4884.895508
v 9074.109375 28374.798828 -4884.895508
v 9074.109375 27896.789062 -4884.895508
v 20837.759766 41430.527344 -5690.819824
v 21315.769531 41430.527344 -5690.819824
v 20837.759766 41908.539062 -5690.819824
v 21315.769531 41908.539062 -5690.819824
v 32267.886719 33624.250000 -5690.819824
v 32267.886719 34102.257812 -5690.819824
v 31789.886719 33624.250000 -5690.819824
v 31789.886719 34102.257812 -5690.819824
v -9163.762695 28398.080078 -5690.819824
v -9163.762695 27920.070312 -5690.819824
v -8685.752930 28398.080078 -5690.819824
v -8685.752930 27920.070312 -5690.819824
v -9409.582031 17752.599609 -5690.820312
v -9409.582031 18230.609375 -5690.820312
v -9887.591797 17752.599609 -5690.820312
v -9887.591797 18230.609375 -5690.820312
v 5189.219727 22853.548828 -4884.895996
v 5667.229492 22853.548828 -4884.895996
v 5189.219727 23331.556641 -4884.895996
v 5667.229492 23331.556641 -4884.895996
v -2124.524170 47640.000000 -5116.832520
v -2124.524170 47640.000000 -5733.668945
v 2161.567139 47640.000000 -5116.832520
v 2161.567139 47640.000000 -5733.668945
v -4330.000000 48087.703125 -2309.329102
v -4330.000000 44912.300781 -2309.329102
v -4330.000000 48087.703125 -2488.332031
v -4330.000000 44912.300781 -2488.332031
v 4210.000000 48087.703125 -2488.332031
v 4210.000000 44912.300781 -2488.332031
v 4210.000000 48087.703125 -2309.329102
v 4210.000000 44912.300781 -2309.329102
vn -0.0000 1.0000 -0.0000
vn -0.0000 -0.0000 -1.0000
vn -0.0000 -1.0000 -0.0000
vn -1.0000 -0.0000 -0.0000
vn 1.0000 -0.0000 -0.0000
vt 0.000000 0.865723
vt 1.000000 0.865723
vt 0.500000 1.000000
vt 1.000000 0.750000
vt 0.000000 0.750000
vt 0.250000 0.658691
vt 1.000000 0.721191
vt 0.250000 0.721191
vt 1.000000 0.658691
vt 0.250000 0.720947
vt 1.000000 0.659424
vt 1.000000 0.720947
vt 0.250000 0.659424
vt 0.997070 0.000000
vt 0.997070 0.500000
vt 0.378174 0.000000
vt 0.378174 0.500000
vt -4.680664 -1.994873
vt -4.938721 -1.500732
vt -4.938721 -1.994873
vt -4.680664 -1.500732
s 1
usemtl union_E01
f 3/1/1 2/2/1 1/3/1
f 4/4/1 2/2/1 3/1/1
f 5/5/1 4/4/1 3/1/1
f 8/6/2 7/7/2 6/8/2
f 9/9/2 7/7/2 8/6/2
f 12/9/2 11/8/2 10/6/2
f 13/7/2 11/8/2 12/9/2
f 16/9/2 15/8/2 14/6/2
f 17/7/2 15/8/2 16/9/2
f 20/6/2 19/7/2 18/8/2
f 21/9/2 19/7/2 20/6/2
f 24/9/2 23/8/2 22/6/2
f 25/7/2 23/8/2 24/9/2
f 28/10/2 27/11/2 26/12/2
f 29/13/2 27/11/2 28/10/2
f 32/9/2 31/8/2 30/6/2
f 33/7/2 31/8/2 32/9/2
f 36/6/2 35/7/2 34/8/2
f 37/9/2 35/7/2 36/6/2
f 41/14/1 39/15/3 40/16/1
f 39/14/3 40/17/1 38/16/3
f 44/18/4 43/19/4 42/20/4
f 45/21/4 43/19/4 44/18/4
f 48/19/5 47/18/5 46/21/5
f 49/20/5 47/18/5 48/19/5
