# Blender 4.1.1
# www.blender.org
mtllib Circle.005.mtl
o Pipe.126
v -127.413414 3653.434326 4362.259766
v -130.025284 3653.434326 4362.517090
v -132.536774 3653.434326 4363.278809
v -134.851379 3653.434326 4364.516113
v -136.880142 3653.434326 4366.181152
v -138.545105 3653.434326 4368.209961
v -139.782288 3653.434326 4370.524414
v -140.544144 3653.434326 4373.036133
v -140.801392 3653.434326 4375.647949
v -140.544144 3653.434326 4378.259766
v -139.782288 3653.434326 4380.771484
v -138.545105 3653.434326 4383.085938
v -136.880142 3653.434326 4385.114746
v -134.851379 3653.434326 4386.779785
v -132.536774 3653.434326 4388.017090
v -130.025284 3653.434326 4388.778809
v -127.413414 3653.434326 4389.036133
v -124.801552 3653.434326 4388.778809
v -122.290070 3653.434326 4388.017090
v -119.975464 3653.434326 4386.779785
v -117.946701 3653.434326 4385.114746
v -116.281731 3653.434326 4383.085938
v -115.044548 3653.434326 4380.771484
v -114.282700 3653.434326 4378.259766
v -114.025452 3653.434326 4375.647949
v -114.282700 3653.434326 4373.036133
v -115.044548 3653.434326 4370.524414
v -116.281731 3653.434326 4368.209961
v -117.946701 3653.434326 4366.181152
v -119.975464 3653.434326 4364.516113
v -122.290070 3653.434326 4363.278809
v -124.801552 3653.434326 4362.517090
v -130.025284 3653.434326 4362.517090
v -127.413414 3653.434326 4362.259766
v -132.536774 3653.434326 4363.278809
v -134.851379 3653.434326 4364.516113
v -136.880142 3653.434326 4366.181152
v -138.545105 3653.434326 4368.209961
v -139.782288 3653.434326 4370.524414
v -140.544144 3653.434326 4373.036133
v -140.801392 3653.434326 4375.647949
v -140.544144 3653.434326 4378.259766
v -139.782288 3653.434326 4380.771484
v -138.545105 3653.434326 4383.085938
v -136.880142 3653.434326 4385.114746
v -134.851379 3653.434326 4386.779785
v -132.536774 3653.434326 4388.017090
v -130.025284 3653.434326 4388.778809
v -127.413414 3653.434326 4389.036133
v -124.801552 3653.434326 4388.778809
v -122.290070 3653.434326 4388.017090
v -119.975464 3653.434326 4386.779785
v -117.946701 3653.434326 4385.114746
v -116.281731 3653.434326 4383.085938
v -115.044548 3653.434326 4380.771484
v -114.282700 3653.434326 4378.259766
v -114.025452 3653.434326 4375.647949
v -114.282700 3653.434326 4373.036133
v -115.044548 3653.434326 4370.524414
v -116.281731 3653.434326 4368.209961
v -117.946701 3653.434326 4366.181152
v -119.975464 3653.434326 4364.516113
v -122.290070 3653.434326 4363.278809
v -124.801552 3653.434326 4362.517090
v -130.025284 3692.398438 4362.517090
v -127.413414 3692.398438 4362.259766
v -132.536774 3692.398438 4363.278809
v -134.851379 3692.398438 4364.516113
v -136.880142 3692.398438 4366.181152
v -138.545105 3692.398438 4368.209961
v -139.782288 3692.398438 4370.524414
v -140.544144 3692.398438 4373.036133
v -140.801392 3692.398438 4375.647949
v -140.544144 3692.398438 4378.259766
v -139.782288 3692.398438 4380.771484
v -138.545105 3692.398438 4383.085938
v -136.880142 3692.398438 4385.114746
v -134.851379 3692.398438 4386.779785
v -132.536774 3692.398438 4388.017090
v -130.025284 3692.398438 4388.778809
v -127.413414 3692.398438 4389.036133
v -124.801552 3692.398438 4388.778809
v -122.290070 3692.398438 4388.017090
v -119.975464 3692.398438 4386.779785
v -117.946701 3692.398438 4385.114746
v -116.281731 3692.398438 4383.085938
v -115.044548 3692.398438 4380.771484
v -114.282700 3692.398438 4378.259766
v -114.025452 3692.398438 4375.647949
v -114.282700 3692.398438 4373.036133
v -115.044548 3692.398438 4370.524414
v -116.281731 3692.398438 4368.209961
v -117.946701 3692.398438 4366.181152
v -119.975464 3692.398438 4364.516113
v -122.290070 3692.398438 4363.278809
v -124.801552 3692.398438 4362.517090
v -131.837997 3692.962646 4353.403809
v -127.413414 3692.962646 4352.967773
v -136.092545 3692.962646 4354.694336
v -140.013550 3692.962646 4356.790039
v -143.450348 3692.962646 4359.610840
v -146.270844 3692.962646 4363.047363
v -148.366669 3692.962646 4366.968750
v -149.657257 3692.962646 4371.223145
v -150.093048 3692.962646 4375.647461
v -149.657257 3692.962646 4380.072266
v -148.366669 3692.962646 4384.326660
v -146.270844 3692.962646 4388.247559
v -143.450348 3692.962646 4391.684570
v -140.013550 3692.962646 4394.504883
v -136.092545 3692.962646 4396.600586
v -131.837997 3692.962646 4397.891602
v -127.413414 3692.962646 4398.327148
v -122.988838 3692.962646 4397.891602
v -118.734299 3692.962646 4396.600586
v -114.813286 3692.962646 4394.504883
v -111.376495 3692.962646 4391.684570
v -108.555992 3692.962646 4388.247559
v -106.460175 3692.962646 4384.326660
v -105.169571 3692.962646 4380.072266
v -104.733780 3692.962646 4375.647461
v -105.169571 3692.962646 4371.223145
v -106.460175 3692.962646 4366.968750
v -108.555992 3692.962646 4363.047363
v -111.376495 3692.962646 4359.610840
v -114.813286 3692.962646 4356.790039
v -118.734299 3692.962646 4354.694336
v -122.988838 3692.962646 4353.403809
v -131.837997 3701.804443 4353.403809
v -127.413414 3701.804443 4352.967773
v -136.092545 3701.804443 4354.694336
v -140.013550 3701.804443 4356.790039
v -143.450348 3701.804443 4359.610840
v -146.270844 3701.804443 4363.047363
v -148.366669 3701.804443 4366.968750
v -149.657257 3701.804443 4371.223145
v -150.093048 3701.804443 4375.647461
v -149.657257 3701.804443 4380.072266
v -148.366669 3701.804443 4384.326660
v -146.270844 3701.804443 4388.247559
v -143.450348 3701.804443 4391.684570
v -140.013550 3701.804443 4394.504883
v -136.092545 3701.804443 4396.600586
v -131.837997 3701.804443 4397.891602
v -127.413414 3701.804443 4398.327148
v -122.988838 3701.804443 4397.891602
v -118.734299 3701.804443 4396.600586
v -114.813286 3701.804443 4394.504883
v -111.376495 3701.804443 4391.684570
v -108.555992 3701.804443 4388.247559
v -106.460175 3701.804443 4384.326660
v -105.169571 3701.804443 4380.072266
v -104.733780 3701.804443 4375.647461
v -105.169571 3701.804443 4371.223145
v -106.460175 3701.804443 4366.968750
v -108.555992 3701.804443 4363.047363
v -111.376495 3701.804443 4359.610840
v -114.813286 3701.804443 4356.790039
v -118.734299 3701.804443 4354.694336
v -122.988838 3701.804443 4353.403809
vn -0.0000 -1.0000 -0.0000
vn -0.9569 -0.0000 -0.2903
vn -0.0000 1.0000 -0.0000
vn -0.0583 -0.9981 0.0177
vn 0.7730 -0.0000 0.6344
vn -0.9952 -0.0000 -0.0980
vn 0.8819 -0.0000 0.4714
vn -0.9952 -0.0000 0.0980
vn 0.9569 -0.0000 0.2903
vn -0.9569 -0.0000 0.2903
vn 0.9952 -0.0000 0.0980
vn -0.8819 -0.0000 0.4714
vn 0.9952 -0.0000 -0.0980
vn -0.7730 -0.0000 0.6344
vn 0.9569 -0.0000 -0.2903
vn -0.6344 -0.0000 0.7730
vn 0.8819 -0.0000 -0.4714
vn -0.4714 -0.0000 0.8819
vn -0.0980 -0.0000 -0.9952
vn 0.7730 -0.0000 -0.6344
vn -0.2902 -0.0000 0.9570
vn -0.2902 -0.0000 -0.9570
vn 0.6344 -0.0000 -0.7730
vn -0.0980 -0.0000 0.9952
vn -0.4714 -0.0000 -0.8819
vn 0.4714 -0.0000 -0.8819
vn 0.0980 -0.0000 0.9952
vn -0.6344 -0.0000 -0.7730
vn 0.2902 -0.0000 -0.9570
vn 0.2902 -0.0000 0.9570
vn -0.7730 -0.0000 -0.6344
vn 0.0980 -0.0000 -0.9952
vn 0.4714 -0.0000 0.8819
vn -0.8819 -0.0000 -0.4714
vn 0.6344 -0.0000 0.7730
vn 0.0606 -0.9981 0.0060
vn -0.0537 -0.9981 0.0287
vn 0.0606 -0.9981 -0.0060
vn -0.0470 -0.9981 0.0386
vn 0.0583 -0.9981 -0.0177
vn -0.0386 -0.9981 0.0471
vn 0.0537 -0.9981 -0.0287
vn -0.0288 -0.9981 0.0537
vn -0.0058 -0.9981 -0.0606
vn 0.0471 -0.9981 -0.0386
vn -0.0177 -0.9981 0.0583
vn -0.0177 -0.9981 -0.0583
vn 0.0387 -0.9981 -0.0471
vn -0.0058 -0.9981 0.0606
vn -0.0286 -0.9981 -0.0537
vn 0.0289 -0.9981 -0.0537
vn 0.0058 -0.9981 0.0606
vn -0.0386 -0.9981 -0.0471
vn 0.0176 -0.9981 -0.0583
vn 0.0177 -0.9981 0.0583
vn -0.0470 -0.9981 -0.0386
vn 0.0061 -0.9981 -0.0606
vn 0.0289 -0.9981 0.0537
vn -0.0537 -0.9981 -0.0287
vn 0.0387 -0.9981 0.0471
vn -0.0583 -0.9981 -0.0177
vn 0.0471 -0.9981 0.0386
vn -0.0606 -0.9981 -0.0060
vn 0.0537 -0.9981 0.0287
vn -0.0606 -0.9981 0.0060
vn 0.0582 -0.9981 0.0177
vn 0.2903 -0.0000 -0.9569
vn 0.2904 -0.0000 0.9569
vn 0.0981 -0.0000 -0.9952
vn -0.0981 -0.0000 -0.9952
vn -0.2904 -0.0000 0.9569
vn -0.2903 -0.0000 -0.9569
vn 0.0001 -1.0000 -0.0000
vn -0.0015 -1.0000 -0.0000
vn -0.0001 -1.0000 -0.0000
vn 0.0015 -1.0000 -0.0000
vn -0.0471 -0.9981 0.0386
vn -0.0387 -0.9981 0.0471
vn -0.0287 -0.9981 0.0537
vn -0.0061 -0.9981 -0.0606
vn 0.0470 -0.9981 -0.0386
vn -0.0178 -0.9981 0.0583
vn -0.0176 -0.9981 -0.0583
vn 0.0386 -0.9981 -0.0471
vn -0.0059 -0.9981 0.0606
vn -0.0289 -0.9981 -0.0537
vn 0.0286 -0.9981 -0.0537
vn 0.0059 -0.9981 0.0606
vn -0.0387 -0.9981 -0.0471
vn 0.0177 -0.9981 -0.0583
vn -0.0471 -0.9981 -0.0386
vn 0.0060 -0.9981 -0.0606
vn 0.0286 -0.9981 0.0537
vn 0.0386 -0.9981 0.0471
vn 0.0470 -0.9981 0.0386
vn 0.0583 -0.9981 0.0177
vn -0.0003 1.0000 -0.0000
vn 0.0005 1.0000 -0.0000
vn -0.0001 1.0000 -0.0000
vn 0.0003 1.0000 -0.0000
vn -0.0005 1.0000 -0.0000
vn 0.0002 1.0000 -0.0000
vn 0.0001 1.0000 -0.0000
vn -0.6343 -0.0000 0.7730
vt 0.000000 0.000000
s 0
usemtl Material.003
f 19/1/1 11/1/1 3/1/1
f 40/1/2 71/1/2 39/1/2
f 26/1/3 59/1/3 58/1/3
f 13/1/3 46/1/3 45/1/3
f 27/1/3 60/1/3 59/1/3
f 14/1/3 47/1/3 46/1/3
f 1/1/3 33/1/3 34/1/3
f 28/1/3 61/1/3 60/1/3
f 15/1/3 48/1/3 47/1/3
f 2/1/3 35/1/3 33/1/3
f 29/1/3 62/1/3 61/1/3
f 16/1/3 49/1/3 48/1/3
f 3/1/3 36/1/3 35/1/3
f 30/1/3 63/1/3 62/1/3
f 17/1/3 50/1/3 49/1/3
f 4/1/3 37/1/3 36/1/3
f 31/1/3 64/1/3 63/1/3
f 18/1/3 51/1/3 50/1/3
f 5/1/3 38/1/3 37/1/3
f 32/1/3 34/1/3 64/1/3
f 19/1/3 52/1/3 51/1/3
f 6/1/3 39/1/3 38/1/3
f 20/1/3 53/1/3 52/1/3
f 7/1/3 40/1/3 39/1/3
f 21/1/3 54/1/3 53/1/3
f 8/1/3 41/1/3 40/1/3
f 22/1/3 55/1/3 54/1/3
f 9/1/3 42/1/3 41/1/3
f 23/1/3 56/1/3 55/1/3
f 10/1/3 43/1/3 42/1/3
f 24/1/3 57/1/3 56/1/3
f 11/1/3 44/1/3 43/1/3
f 25/1/3 58/1/3 57/1/3
f 12/1/3 45/1/3 44/1/3
f 75/1/4 106/1/4 74/1/4
f 54/1/5 85/1/5 53/1/5
f 41/1/6 72/1/6 40/1/6
f 55/1/7 86/1/7 54/1/7
f 42/1/8 73/1/8 41/1/8
f 56/1/9 87/1/9 55/1/9
f 43/1/10 74/1/10 42/1/10
f 57/1/11 88/1/11 56/1/11
f 44/1/12 75/1/12 43/1/12
f 58/1/13 89/1/13 57/1/13
f 45/1/14 76/1/14 44/1/14
f 59/1/15 90/1/15 58/1/15
f 46/1/16 77/1/16 45/1/16
f 60/1/17 91/1/17 59/1/17
f 47/1/18 78/1/18 46/1/18
f 33/1/19 66/1/19 34/1/19
f 61/1/20 92/1/20 60/1/20
f 48/1/21 79/1/21 47/1/21
f 35/1/22 65/1/22 33/1/22
f 62/1/23 93/1/23 61/1/23
f 49/1/24 80/1/24 48/1/24
f 36/1/25 67/1/25 35/1/25
f 63/1/26 94/1/26 62/1/26
f 50/1/27 81/1/27 49/1/27
f 37/1/28 68/1/28 36/1/28
f 64/1/29 95/1/29 63/1/29
f 51/1/30 82/1/30 50/1/30
f 38/1/31 69/1/31 37/1/31
f 34/1/32 96/1/32 64/1/32
f 52/1/33 83/1/33 51/1/33
f 39/1/34 70/1/34 38/1/34
f 53/1/35 84/1/35 52/1/35
f 114/1/27 145/1/27 113/1/27
f 89/1/36 120/1/36 88/1/36
f 75/1/37 108/1/37 107/1/37
f 90/1/38 121/1/38 89/1/38
f 76/1/39 109/1/39 108/1/39
f 91/1/40 122/1/40 90/1/40
f 77/1/41 110/1/41 109/1/41
f 92/1/42 123/1/42 91/1/42
f 79/1/43 110/1/43 78/1/43
f 65/1/44 98/1/44 66/1/44
f 93/1/45 124/1/45 92/1/45
f 80/1/46 111/1/46 79/1/46
f 67/1/47 97/1/47 65/1/47
f 94/1/48 125/1/48 93/1/48
f 81/1/49 112/1/49 80/1/49
f 67/1/50 100/1/50 99/1/50
f 95/1/51 126/1/51 94/1/51
f 82/1/52 113/1/52 81/1/52
f 68/1/53 101/1/53 100/1/53
f 95/1/54 128/1/54 127/1/54
f 83/1/55 114/1/55 82/1/55
f 69/1/56 102/1/56 101/1/56
f 66/1/57 128/1/57 96/1/57
f 84/1/58 115/1/58 83/1/58
f 70/1/59 103/1/59 102/1/59
f 85/1/60 116/1/60 84/1/60
f 71/1/61 104/1/61 103/1/61
f 86/1/62 117/1/62 85/1/62
f 72/1/63 105/1/63 104/1/63
f 87/1/64 118/1/64 86/1/64
f 73/1/65 106/1/65 105/1/65
f 88/1/66 119/1/66 87/1/66
f 145/1/3 153/1/3 130/1/3
f 101/1/28 132/1/28 100/1/28
f 128/1/67 159/1/67 127/1/67
f 115/1/68 146/1/68 114/1/68
f 102/1/31 133/1/31 101/1/31
f 98/1/69 160/1/69 128/1/69
f 116/1/33 147/1/33 115/1/33
f 103/1/34 134/1/34 102/1/34
f 117/1/35 148/1/35 116/1/35
f 104/1/2 135/1/2 103/1/2
f 118/1/5 149/1/5 117/1/5
f 105/1/6 136/1/6 104/1/6
f 119/1/7 150/1/7 118/1/7
f 106/1/8 137/1/8 105/1/8
f 120/1/9 151/1/9 119/1/9
f 107/1/10 138/1/10 106/1/10
f 121/1/11 152/1/11 120/1/11
f 108/1/12 139/1/12 107/1/12
f 122/1/13 153/1/13 121/1/13
f 109/1/14 140/1/14 108/1/14
f 123/1/15 154/1/15 122/1/15
f 110/1/16 141/1/16 109/1/16
f 124/1/17 155/1/17 123/1/17
f 111/1/18 142/1/18 110/1/18
f 97/1/70 130/1/70 98/1/70
f 125/1/20 156/1/20 124/1/20
f 112/1/71 143/1/71 111/1/71
f 99/1/72 129/1/72 97/1/72
f 126/1/23 157/1/23 125/1/23
f 113/1/24 144/1/24 112/1/24
f 100/1/25 131/1/25 99/1/25
f 127/1/26 158/1/26 126/1/26
f 3/1/73 2/1/73 1/1/73
f 1/1/1 32/1/1 31/1/1
f 31/1/1 30/1/1 29/1/1
f 29/1/1 28/1/1 27/1/1
f 27/1/74 26/1/74 25/1/74
f 25/1/74 24/1/74 23/1/74
f 23/1/1 22/1/1 21/1/1
f 21/1/1 20/1/1 19/1/1
f 19/1/75 18/1/75 17/1/75
f 17/1/1 16/1/1 15/1/1
f 15/1/1 14/1/1 13/1/1
f 13/1/1 12/1/1 11/1/1
f 11/1/76 10/1/76 9/1/76
f 9/1/76 8/1/76 7/1/76
f 7/1/1 6/1/1 5/1/1
f 5/1/1 4/1/1 3/1/1
f 3/1/1 1/1/1 31/1/1
f 31/1/1 29/1/1 27/1/1
f 27/1/1 25/1/1 23/1/1
f 23/1/1 21/1/1 19/1/1
f 19/1/1 17/1/1 15/1/1
f 15/1/1 13/1/1 11/1/1
f 11/1/1 9/1/1 7/1/1
f 7/1/1 5/1/1 3/1/1
f 3/1/1 31/1/1 27/1/1
f 27/1/1 23/1/1 19/1/1
f 19/1/1 15/1/1 11/1/1
f 11/1/1 7/1/1 3/1/1
f 3/1/1 27/1/1 19/1/1
f 40/1/2 72/1/2 71/1/2
f 26/1/3 27/1/3 59/1/3
f 13/1/3 14/1/3 46/1/3
f 27/1/3 28/1/3 60/1/3
f 14/1/3 15/1/3 47/1/3
f 1/1/3 2/1/3 33/1/3
f 28/1/3 29/1/3 61/1/3
f 15/1/3 16/1/3 48/1/3
f 2/1/3 3/1/3 35/1/3
f 29/1/3 30/1/3 62/1/3
f 16/1/3 17/1/3 49/1/3
f 3/1/3 4/1/3 36/1/3
f 30/1/3 31/1/3 63/1/3
f 17/1/3 18/1/3 50/1/3
f 4/1/3 5/1/3 37/1/3
f 31/1/3 32/1/3 64/1/3
f 18/1/3 19/1/3 51/1/3
f 5/1/3 6/1/3 38/1/3
f 32/1/3 1/1/3 34/1/3
f 19/1/3 20/1/3 52/1/3
f 6/1/3 7/1/3 39/1/3
f 20/1/3 21/1/3 53/1/3
f 7/1/3 8/1/3 40/1/3
f 21/1/3 22/1/3 54/1/3
f 8/1/3 9/1/3 41/1/3
f 22/1/3 23/1/3 55/1/3
f 9/1/3 10/1/3 42/1/3
f 23/1/3 24/1/3 56/1/3
f 10/1/3 11/1/3 43/1/3
f 24/1/3 25/1/3 57/1/3
f 11/1/3 12/1/3 44/1/3
f 25/1/3 26/1/3 58/1/3
f 12/1/3 13/1/3 45/1/3
f 75/1/4 107/1/4 106/1/4
f 54/1/5 86/1/5 85/1/5
f 41/1/6 73/1/6 72/1/6
f 55/1/7 87/1/7 86/1/7
f 42/1/8 74/1/8 73/1/8
f 56/1/9 88/1/9 87/1/9
f 43/1/10 75/1/10 74/1/10
f 57/1/11 89/1/11 88/1/11
f 44/1/12 76/1/12 75/1/12
f 58/1/13 90/1/13 89/1/13
f 45/1/14 77/1/14 76/1/14
f 59/1/15 91/1/15 90/1/15
f 46/1/16 78/1/16 77/1/16
f 60/1/17 92/1/17 91/1/17
f 47/1/18 79/1/18 78/1/18
f 33/1/19 65/1/19 66/1/19
f 61/1/20 93/1/20 92/1/20
f 48/1/21 80/1/21 79/1/21
f 35/1/22 67/1/22 65/1/22
f 62/1/23 94/1/23 93/1/23
f 49/1/24 81/1/24 80/1/24
f 36/1/25 68/1/25 67/1/25
f 63/1/26 95/1/26 94/1/26
f 50/1/27 82/1/27 81/1/27
f 37/1/28 69/1/28 68/1/28
f 64/1/29 96/1/29 95/1/29
f 51/1/30 83/1/30 82/1/30
f 38/1/31 70/1/31 69/1/31
f 34/1/32 66/1/32 96/1/32
f 52/1/33 84/1/33 83/1/33
f 39/1/34 71/1/34 70/1/34
f 53/1/35 85/1/35 84/1/35
f 114/1/27 146/1/27 145/1/27
f 89/1/36 121/1/36 120/1/36
f 75/1/37 76/1/37 108/1/37
f 90/1/38 122/1/38 121/1/38
f 76/1/77 77/1/77 109/1/77
f 91/1/40 123/1/40 122/1/40
f 77/1/78 78/1/78 110/1/78
f 92/1/42 124/1/42 123/1/42
f 79/1/79 111/1/79 110/1/79
f 65/1/80 97/1/80 98/1/80
f 93/1/81 125/1/81 124/1/81
f 80/1/82 112/1/82 111/1/82
f 67/1/83 99/1/83 97/1/83
f 94/1/84 126/1/84 125/1/84
f 81/1/85 113/1/85 112/1/85
f 67/1/86 68/1/86 100/1/86
f 95/1/87 127/1/87 126/1/87
f 82/1/88 114/1/88 113/1/88
f 68/1/89 69/1/89 101/1/89
f 95/1/90 96/1/90 128/1/90
f 83/1/55 115/1/55 114/1/55
f 69/1/91 70/1/91 102/1/91
f 66/1/92 98/1/92 128/1/92
f 84/1/93 116/1/93 115/1/93
f 70/1/59 71/1/59 103/1/59
f 85/1/94 117/1/94 116/1/94
f 71/1/61 72/1/61 104/1/61
f 86/1/95 118/1/95 117/1/95
f 72/1/63 73/1/63 105/1/63
f 87/1/64 119/1/64 118/1/64
f 73/1/65 74/1/65 106/1/65
f 88/1/96 120/1/96 119/1/96
f 130/1/97 129/1/97 131/1/97
f 131/1/3 132/1/3 133/1/3
f 133/1/3 134/1/3 135/1/3
f 135/1/3 136/1/3 137/1/3
f 137/1/98 138/1/98 139/1/98
f 139/1/3 140/1/3 141/1/3
f 141/1/97 142/1/97 143/1/97
f 143/1/99 144/1/99 145/1/99
f 145/1/100 146/1/100 147/1/100
f 147/1/98 148/1/98 149/1/98
f 149/1/3 150/1/3 151/1/3
f 151/1/101 152/1/101 153/1/101
f 153/1/3 154/1/3 155/1/3
f 155/1/3 156/1/3 157/1/3
f 157/1/97 158/1/97 159/1/97
f 159/1/102 160/1/102 130/1/102
f 130/1/3 131/1/3 133/1/3
f 133/1/103 135/1/103 137/1/103
f 137/1/3 139/1/3 141/1/3
f 141/1/3 143/1/3 145/1/3
f 145/1/3 147/1/3 149/1/3
f 149/1/3 151/1/3 153/1/3
f 153/1/99 155/1/99 157/1/99
f 157/1/3 159/1/3 130/1/3
f 130/1/3 133/1/3 137/1/3
f 137/1/3 141/1/3 145/1/3
f 145/1/3 149/1/3 153/1/3
f 153/1/3 157/1/3 130/1/3
f 130/1/3 137/1/3 145/1/3
f 101/1/28 133/1/28 132/1/28
f 128/1/67 160/1/67 159/1/67
f 115/1/68 147/1/68 146/1/68
f 102/1/31 134/1/31 133/1/31
f 98/1/69 130/1/69 160/1/69
f 116/1/33 148/1/33 147/1/33
f 103/1/34 135/1/34 134/1/34
f 117/1/35 149/1/35 148/1/35
f 104/1/2 136/1/2 135/1/2
f 118/1/5 150/1/5 149/1/5
f 105/1/6 137/1/6 136/1/6
f 119/1/7 151/1/7 150/1/7
f 106/1/8 138/1/8 137/1/8
f 120/1/9 152/1/9 151/1/9
f 107/1/10 139/1/10 138/1/10
f 121/1/11 153/1/11 152/1/11
f 108/1/12 140/1/12 139/1/12
f 122/1/13 154/1/13 153/1/13
f 109/1/14 141/1/14 140/1/14
f 123/1/15 155/1/15 154/1/15
f 110/1/104 142/1/104 141/1/104
f 124/1/17 156/1/17 155/1/17
f 111/1/18 143/1/18 142/1/18
f 97/1/70 129/1/70 130/1/70
f 125/1/20 157/1/20 156/1/20
f 112/1/71 144/1/71 143/1/71
f 99/1/72 131/1/72 129/1/72
f 126/1/23 158/1/23 157/1/23
f 113/1/24 145/1/24 144/1/24
f 100/1/25 132/1/25 131/1/25
f 127/1/26 159/1/26 158/1/26
