# Blender 4.1.1
# www.blender.org
mtllib Circle.016.mtl
o Pipe.137
v -2526.818115 2652.963867 747.731812
v -2529.429932 2652.963867 747.989075
v -2531.941650 2652.963867 748.750916
v -2534.256104 2652.963867 749.988159
v -2536.284912 2652.963867 751.653076
v -2537.949707 2652.963867 753.681824
v -2539.187012 2652.963867 755.996460
v -2539.948730 2652.963867 758.507935
v -2540.206055 2652.963867 761.119812
v -2539.948730 2652.963867 763.731689
v -2539.187012 2652.963867 766.243164
v -2537.949707 2652.963867 768.557800
v -2536.284912 2652.963867 770.586548
v -2534.256104 2652.963867 772.251465
v -2531.941650 2652.963867 773.488708
v -2529.429932 2652.963867 774.250549
v -2526.818115 2652.963867 774.507812
v -2524.206299 2652.963867 774.250549
v -2521.694580 2652.963867 773.488708
v -2519.380127 2652.963867 772.251465
v -2517.351318 2652.963867 770.586548
v -2515.686523 2652.963867 768.557800
v -2514.449219 2652.963867 766.243164
v -2513.687500 2652.963867 763.731689
v -2513.430176 2652.963867 761.119812
v -2513.687500 2652.963867 758.507935
v -2514.449219 2652.963867 755.996460
v -2515.686523 2652.963867 753.681824
v -2517.351318 2652.963867 751.653076
v -2519.380127 2652.963867 749.988159
v -2521.694580 2652.963867 748.750916
v -2524.206299 2652.963867 747.989075
v -2529.429932 2652.963867 747.989075
v -2526.818115 2652.963867 747.731812
v -2531.941650 2652.963867 748.750916
v -2534.256104 2652.963867 749.988159
v -2536.284912 2652.963867 751.653076
v -2537.949707 2652.963867 753.681824
v -2539.187012 2652.963867 755.996460
v -2539.948730 2652.963867 758.507935
v -2540.206055 2652.963867 761.119812
v -2539.948730 2652.963867 763.731689
v -2539.187012 2652.963867 766.243164
v -2537.949707 2652.963867 768.557800
v -2536.284912 2652.963867 770.586548
v -2534.256104 2652.963867 772.251465
v -2531.941650 2652.963867 773.488708
v -2529.429932 2652.963867 774.250549
v -2526.818115 2652.963867 774.507812
v -2524.206299 2652.963867 774.250549
v -2521.694580 2652.963867 773.488708
v -2519.380127 2652.963867 772.251465
v -2517.351318 2652.963867 770.586548
v -2515.686523 2652.963867 768.557800
v -2514.449219 2652.963867 766.243164
v -2513.687500 2652.963867 763.731689
v -2513.430176 2652.963867 761.119812
v -2513.687500 2652.963867 758.507935
v -2514.449219 2652.963867 755.996460
v -2515.686523 2652.963867 753.681824
v -2517.351318 2652.963867 751.653076
v -2519.380127 2652.963867 749.988159
v -2521.694580 2652.963867 748.750916
v -2524.206299 2652.963867 747.989075
v -2529.429932 2691.928223 747.989075
v -2526.818115 2691.928223 747.731812
v -2531.941650 2691.928223 748.750916
v -2534.256104 2691.928223 749.988159
v -2536.284912 2691.928223 751.653076
v -2537.949707 2691.928223 753.681824
v -2539.187012 2691.928223 755.996460
v -2539.948730 2691.928223 758.507935
v -2540.206055 2691.928223 761.119812
v -2539.948730 2691.928223 763.731689
v -2539.187012 2691.928223 766.243164
v -2537.949707 2691.928223 768.557800
v -2536.284912 2691.928223 770.586548
v -2534.256104 2691.928223 772.251465
v -2531.941650 2691.928223 773.488708
v -2529.429932 2691.928223 774.250549
v -2526.818115 2691.928223 774.507812
v -2524.206299 2691.928223 774.250549
v -2521.694580 2691.928223 773.488708
v -2519.380127 2691.928223 772.251465
v -2517.351318 2691.928223 770.586548
v -2515.686523 2691.928223 768.557800
v -2514.449219 2691.928223 766.243164
v -2513.687500 2691.928223 763.731689
v -2513.430176 2691.928223 761.119812
v -2513.687500 2691.928223 758.507935
v -2514.449219 2691.928223 755.996460
v -2515.686523 2691.928223 753.681824
v -2517.351318 2691.928223 751.653076
v -2519.380127 2691.928223 749.988159
v -2521.694580 2691.928223 748.750916
v -2524.206299 2691.928223 747.989075
v -2531.242676 2692.492188 738.875671
v -2526.818115 2692.492188 738.439941
v -2535.497314 2692.492188 740.166321
v -2539.418213 2692.492188 742.262085
v -2542.854980 2692.492188 745.082581
v -2545.675537 2692.492188 748.519409
v -2547.771484 2692.492188 752.440430
v -2549.062012 2692.492188 756.694946
v -2549.497803 2692.492188 761.119568
v -2549.062012 2692.492188 765.544128
v -2547.771484 2692.492188 769.798706
v -2545.675537 2692.492188 773.719666
v -2542.854980 2692.492188 777.156433
v -2539.418213 2692.492188 779.976929
v -2535.497314 2692.492188 782.072815
v -2531.242676 2692.492188 783.363342
v -2526.818115 2692.492188 783.799194
v -2522.393555 2692.492188 783.363342
v -2518.138916 2692.492188 782.072815
v -2514.218018 2692.492188 779.976929
v -2510.781250 2692.492188 777.156433
v -2507.960693 2692.492188 773.719666
v -2505.864746 2692.492188 769.798706
v -2504.574219 2692.492188 765.544128
v -2504.138428 2692.492188 761.119568
v -2504.574219 2692.492188 756.694946
v -2505.864746 2692.492188 752.440430
v -2507.960693 2692.492188 748.519409
v -2510.781250 2692.492188 745.082581
v -2514.218018 2692.492188 742.262085
v -2518.138916 2692.492188 740.166321
v -2522.393555 2692.492188 738.875671
v -2531.242676 2701.333984 738.875671
v -2526.818115 2701.333984 738.439941
v -2535.497314 2701.333984 740.166321
v -2539.418213 2701.333984 742.262085
v -2542.854980 2701.333984 745.082581
v -2545.675537 2701.333984 748.519409
v -2547.771484 2701.333984 752.440430
v -2549.062012 2701.333984 756.694946
v -2549.497803 2701.333984 761.119568
v -2549.062012 2701.333984 765.544128
v -2547.771484 2701.333984 769.798706
v -2545.675537 2701.333984 773.719666
v -2542.854980 2701.333984 777.156433
v -2539.418213 2701.333984 779.976929
v -2535.497314 2701.333984 782.072815
v -2531.242676 2701.333984 783.363342
v -2526.818115 2701.333984 783.799194
v -2522.393555 2701.333984 783.363342
v -2518.138916 2701.333984 782.072815
v -2514.218018 2701.333984 779.976929
v -2510.781250 2701.333984 777.156433
v -2507.960693 2701.333984 773.719666
v -2505.864746 2701.333984 769.798706
v -2504.574219 2701.333984 765.544128
v -2504.138428 2701.333984 761.119568
v -2504.574219 2701.333984 756.694946
v -2505.864746 2701.333984 752.440430
v -2507.960693 2701.333984 748.519409
v -2510.781250 2701.333984 745.082581
v -2514.218018 2701.333984 742.262085
v -2518.138916 2701.333984 740.166321
v -2522.393555 2701.333984 738.875671
vn -0.0000 -1.0000 -0.0000
vn -0.9570 -0.0000 -0.2902
vn -0.0000 1.0000 -0.0000
vn -0.0582 -0.9981 0.0177
vn 0.7731 -0.0000 0.6343
vn -0.9952 -0.0000 -0.0979
vn 0.8819 -0.0000 0.4714
vn -0.9952 -0.0000 0.0981
vn 0.9570 -0.0000 0.2902
vn -0.9569 -0.0000 0.2903
vn 0.9952 -0.0000 0.0979
vn -0.8819 -0.0000 0.4715
vn 0.9952 -0.0000 -0.0981
vn -0.7729 -0.0000 0.6345
vn 0.9569 -0.0000 -0.2903
vn -0.6344 -0.0000 0.7730
vn 0.8819 -0.0000 -0.4715
vn -0.4714 -0.0000 0.8819
vn -0.0980 -0.0000 -0.9952
vn 0.7730 -0.0000 -0.6344
vn -0.2902 -0.0000 0.9570
vn -0.2903 -0.0000 -0.9569
vn 0.6343 -0.0000 -0.7731
vn -0.0980 -0.0000 0.9952
vn -0.4715 -0.0000 -0.8819
vn 0.4714 -0.0000 -0.8819
vn 0.0980 -0.0000 0.9952
vn -0.6344 -0.0000 -0.7730
vn 0.2902 -0.0000 -0.9570
vn 0.2903 -0.0000 0.9569
vn -0.7731 -0.0000 -0.6343
vn 0.0980 -0.0000 -0.9952
vn 0.4715 -0.0000 0.8819
vn -0.8819 -0.0000 -0.4714
vn 0.6344 -0.0000 0.7730
vn 0.0605 -0.9981 0.0060
vn -0.0536 -0.9981 0.0287
vn 0.0606 -0.9981 -0.0060
vn -0.0471 -0.9981 0.0386
vn 0.0582 -0.9981 -0.0177
vn -0.0386 -0.9981 0.0471
vn 0.0537 -0.9981 -0.0287
vn -0.0288 -0.9981 0.0537
vn -0.0059 -0.9981 -0.0606
vn 0.0471 -0.9981 -0.0386
vn -0.0177 -0.9981 0.0583
vn -0.0177 -0.9981 -0.0583
vn 0.0387 -0.9981 -0.0471
vn -0.0061 -0.9981 0.0606
vn -0.0287 -0.9981 -0.0537
vn 0.0289 -0.9981 -0.0537
vn 0.0059 -0.9981 0.0606
vn -0.0386 -0.9981 -0.0471
vn 0.0177 -0.9981 -0.0583
vn 0.0177 -0.9981 0.0583
vn -0.0470 -0.9981 -0.0386
vn 0.0059 -0.9981 -0.0606
vn 0.0287 -0.9981 0.0537
vn -0.0538 -0.9981 -0.0287
vn 0.0387 -0.9981 0.0471
vn -0.0583 -0.9981 -0.0177
vn 0.0471 -0.9981 0.0386
vn -0.0606 -0.9981 -0.0060
vn 0.0538 -0.9981 0.0287
vn -0.0606 -0.9981 0.0060
vn 0.0582 -0.9981 0.0177
vn -0.6343 -0.0000 -0.7731
vn 0.2903 -0.0000 -0.9569
vn 0.2902 -0.0000 0.9570
vn -0.7730 -0.0000 -0.6344
vn 0.4714 -0.0000 0.8819
vn -0.8819 -0.0000 -0.4715
vn 0.6343 -0.0000 0.7731
vn -0.9569 -0.0000 -0.2903
vn 0.7730 -0.0000 0.6344
vn -0.9952 -0.0000 -0.0980
vn 0.8819 -0.0000 0.4715
vn 0.9570 -0.0000 0.2903
vn -0.9570 -0.0000 0.2903
vn -0.8819 -0.0000 0.4714
vn -0.7730 -0.0000 0.6344
vn 0.9569 -0.0000 -0.2904
vn 0.8820 -0.0000 -0.4713
vn -0.2903 -0.0000 0.9569
vn 0.6344 -0.0000 -0.7730
vn -0.4714 -0.0000 -0.8819
vn -0.0001 -1.0000 -0.0000
vn 0.0002 -1.0000 -0.0000
vn 0.0007 -1.0000 -0.0000
vn 0.0001 -1.0000 -0.0000
vn -0.0002 -1.0000 -0.0000
vn -0.0007 -1.0000 -0.0000
vn -0.9952 -0.0000 -0.0981
vn -0.9952 -0.0000 0.0979
vn 0.9569 -0.0000 0.2903
vn -0.9570 -0.0000 0.2902
vn 0.9952 -0.0000 0.0981
vn 0.9952 -0.0000 -0.0979
vn -0.7731 -0.0000 0.6343
vn 0.9570 -0.0000 -0.2902
vn 0.8819 -0.0000 -0.4714
vn -0.4715 -0.0000 0.8819
vn 0.7731 -0.0000 -0.6343
vn -0.2902 -0.0000 -0.9570
vn 0.4715 -0.0000 -0.8819
vn -0.7729 -0.0000 -0.6345
vn 0.0606 -0.9981 0.0060
vn -0.0538 -0.9981 0.0287
vn 0.0583 -0.9981 -0.0177
vn -0.0387 -0.9981 0.0471
vn 0.0538 -0.9981 -0.0287
vn -0.0287 -0.9981 0.0537
vn -0.0060 -0.9981 -0.0606
vn 0.0470 -0.9981 -0.0386
vn 0.0384 -0.9982 -0.0471
vn -0.0059 -0.9981 0.0606
vn -0.0289 -0.9981 -0.0537
vn 0.0287 -0.9981 -0.0537
vn 0.0061 -0.9981 0.0606
vn -0.0387 -0.9981 -0.0471
vn -0.0471 -0.9981 -0.0386
vn 0.0060 -0.9981 -0.0606
vn 0.0288 -0.9981 0.0537
vn -0.0537 -0.9981 -0.0287
vn 0.0386 -0.9981 0.0471
vn -0.0582 -0.9981 -0.0177
vn 0.0536 -0.9981 0.0287
vn -0.0605 -0.9981 0.0060
vn -0.0003 1.0000 -0.0000
vn 0.0005 1.0000 -0.0000
vn -0.0001 1.0000 -0.0000
vn 0.0001 1.0000 -0.0000
vn -0.0005 1.0000 -0.0000
vn 0.0003 1.0000 -0.0000
vn -0.6345 -0.0000 -0.7730
vn 0.6345 -0.0000 0.7730
vn 0.8820 -0.0000 0.4713
vn -0.9952 -0.0000 0.0980
vn 0.9569 -0.0000 0.2904
vt 0.000000 0.000000
s 0
usemtl Material.003
f 19/1/1 11/1/1 3/1/1
f 40/1/2 71/1/2 39/1/2
f 26/1/3 59/1/3 58/1/3
f 13/1/3 46/1/3 45/1/3
f 27/1/3 60/1/3 59/1/3
f 14/1/3 47/1/3 46/1/3
f 1/1/3 33/1/3 34/1/3
f 28/1/3 61/1/3 60/1/3
f 15/1/3 48/1/3 47/1/3
f 2/1/3 35/1/3 33/1/3
f 29/1/3 62/1/3 61/1/3
f 16/1/3 49/1/3 48/1/3
f 3/1/3 36/1/3 35/1/3
f 30/1/3 63/1/3 62/1/3
f 17/1/3 50/1/3 49/1/3
f 4/1/3 37/1/3 36/1/3
f 31/1/3 64/1/3 63/1/3
f 18/1/3 51/1/3 50/1/3
f 5/1/3 38/1/3 37/1/3
f 32/1/3 34/1/3 64/1/3
f 19/1/3 52/1/3 51/1/3
f 6/1/3 39/1/3 38/1/3
f 20/1/3 53/1/3 52/1/3
f 7/1/3 40/1/3 39/1/3
f 21/1/3 54/1/3 53/1/3
f 8/1/3 41/1/3 40/1/3
f 22/1/3 55/1/3 54/1/3
f 9/1/3 42/1/3 41/1/3
f 23/1/3 56/1/3 55/1/3
f 10/1/3 43/1/3 42/1/3
f 24/1/3 57/1/3 56/1/3
f 11/1/3 44/1/3 43/1/3
f 25/1/3 58/1/3 57/1/3
f 12/1/3 45/1/3 44/1/3
f 75/1/4 106/1/4 74/1/4
f 54/1/5 85/1/5 53/1/5
f 41/1/6 72/1/6 40/1/6
f 55/1/7 86/1/7 54/1/7
f 42/1/8 73/1/8 41/1/8
f 56/1/9 87/1/9 55/1/9
f 43/1/10 74/1/10 42/1/10
f 57/1/11 88/1/11 56/1/11
f 44/1/12 75/1/12 43/1/12
f 58/1/13 89/1/13 57/1/13
f 45/1/14 76/1/14 44/1/14
f 59/1/15 90/1/15 58/1/15
f 46/1/16 77/1/16 45/1/16
f 60/1/17 91/1/17 59/1/17
f 47/1/18 78/1/18 46/1/18
f 33/1/19 66/1/19 34/1/19
f 61/1/20 92/1/20 60/1/20
f 48/1/21 79/1/21 47/1/21
f 35/1/22 65/1/22 33/1/22
f 62/1/23 93/1/23 61/1/23
f 49/1/24 80/1/24 48/1/24
f 36/1/25 67/1/25 35/1/25
f 63/1/26 94/1/26 62/1/26
f 50/1/27 81/1/27 49/1/27
f 37/1/28 68/1/28 36/1/28
f 64/1/29 95/1/29 63/1/29
f 51/1/30 82/1/30 50/1/30
f 38/1/31 69/1/31 37/1/31
f 34/1/32 96/1/32 64/1/32
f 52/1/33 83/1/33 51/1/33
f 39/1/34 70/1/34 38/1/34
f 53/1/35 84/1/35 52/1/35
f 114/1/27 145/1/27 113/1/27
f 89/1/36 120/1/36 88/1/36
f 75/1/37 108/1/37 107/1/37
f 89/1/38 122/1/38 121/1/38
f 77/1/39 108/1/39 76/1/39
f 91/1/40 122/1/40 90/1/40
f 77/1/41 110/1/41 109/1/41
f 91/1/42 124/1/42 123/1/42
f 79/1/43 110/1/43 78/1/43
f 65/1/44 98/1/44 66/1/44
f 93/1/45 124/1/45 92/1/45
f 79/1/46 112/1/46 111/1/46
f 67/1/47 97/1/47 65/1/47
f 93/1/48 126/1/48 125/1/48
f 81/1/49 112/1/49 80/1/49
f 67/1/50 100/1/50 99/1/50
f 95/1/51 126/1/51 94/1/51
f 81/1/52 114/1/52 113/1/52
f 68/1/53 101/1/53 100/1/53
f 95/1/54 128/1/54 127/1/54
f 83/1/55 114/1/55 82/1/55
f 69/1/56 102/1/56 101/1/56
f 66/1/57 128/1/57 96/1/57
f 83/1/58 116/1/58 115/1/58
f 71/1/59 102/1/59 70/1/59
f 85/1/60 116/1/60 84/1/60
f 71/1/61 104/1/61 103/1/61
f 86/1/62 117/1/62 85/1/62
f 73/1/63 104/1/63 72/1/63
f 87/1/64 118/1/64 86/1/64
f 73/1/65 106/1/65 105/1/65
f 87/1/66 120/1/66 119/1/66
f 145/1/3 153/1/3 130/1/3
f 101/1/67 132/1/67 100/1/67
f 128/1/68 159/1/68 127/1/68
f 115/1/69 146/1/69 114/1/69
f 102/1/70 133/1/70 101/1/70
f 98/1/32 160/1/32 128/1/32
f 116/1/71 147/1/71 115/1/71
f 103/1/72 134/1/72 102/1/72
f 117/1/73 148/1/73 116/1/73
f 104/1/74 135/1/74 103/1/74
f 118/1/75 149/1/75 117/1/75
f 105/1/76 136/1/76 104/1/76
f 119/1/77 150/1/77 118/1/77
f 106/1/8 137/1/8 105/1/8
f 120/1/78 151/1/78 119/1/78
f 107/1/79 138/1/79 106/1/79
f 121/1/11 152/1/11 120/1/11
f 108/1/80 139/1/80 107/1/80
f 122/1/13 153/1/13 121/1/13
f 109/1/81 140/1/81 108/1/81
f 123/1/82 154/1/82 122/1/82
f 110/1/16 141/1/16 109/1/16
f 124/1/83 155/1/83 123/1/83
f 111/1/18 142/1/18 110/1/18
f 97/1/19 130/1/19 98/1/19
f 125/1/20 156/1/20 124/1/20
f 112/1/84 143/1/84 111/1/84
f 99/1/22 129/1/22 97/1/22
f 126/1/85 157/1/85 125/1/85
f 113/1/24 144/1/24 112/1/24
f 100/1/86 131/1/86 99/1/86
f 127/1/26 158/1/26 126/1/26
f 3/1/87 2/1/87 1/1/87
f 1/1/88 32/1/88 31/1/88
f 31/1/89 30/1/89 29/1/89
f 29/1/89 28/1/89 27/1/89
f 27/1/89 26/1/89 25/1/89
f 25/1/89 24/1/89 23/1/89
f 23/1/89 22/1/89 21/1/89
f 21/1/89 20/1/89 19/1/89
f 19/1/90 18/1/90 17/1/90
f 17/1/91 16/1/91 15/1/91
f 15/1/92 14/1/92 13/1/92
f 13/1/92 12/1/92 11/1/92
f 11/1/92 10/1/92 9/1/92
f 9/1/92 8/1/92 7/1/92
f 7/1/92 6/1/92 5/1/92
f 5/1/92 4/1/92 3/1/92
f 3/1/1 1/1/1 31/1/1
f 31/1/91 29/1/91 27/1/91
f 27/1/1 25/1/1 23/1/1
f 23/1/91 21/1/91 19/1/91
f 19/1/1 17/1/1 15/1/1
f 15/1/88 13/1/88 11/1/88
f 11/1/1 9/1/1 7/1/1
f 7/1/88 5/1/88 3/1/88
f 3/1/1 31/1/1 27/1/1
f 27/1/87 23/1/87 19/1/87
f 19/1/1 15/1/1 11/1/1
f 11/1/90 7/1/90 3/1/90
f 3/1/1 27/1/1 19/1/1
f 40/1/74 72/1/74 71/1/74
f 26/1/3 27/1/3 59/1/3
f 13/1/3 14/1/3 46/1/3
f 27/1/3 28/1/3 60/1/3
f 14/1/3 15/1/3 47/1/3
f 1/1/3 2/1/3 33/1/3
f 28/1/3 29/1/3 61/1/3
f 15/1/3 16/1/3 48/1/3
f 2/1/3 3/1/3 35/1/3
f 29/1/3 30/1/3 62/1/3
f 16/1/3 17/1/3 49/1/3
f 3/1/3 4/1/3 36/1/3
f 30/1/3 31/1/3 63/1/3
f 17/1/3 18/1/3 50/1/3
f 4/1/3 5/1/3 37/1/3
f 31/1/3 32/1/3 64/1/3
f 18/1/3 19/1/3 51/1/3
f 5/1/3 6/1/3 38/1/3
f 32/1/3 1/1/3 34/1/3
f 19/1/3 20/1/3 52/1/3
f 6/1/3 7/1/3 39/1/3
f 20/1/3 21/1/3 53/1/3
f 7/1/3 8/1/3 40/1/3
f 21/1/3 22/1/3 54/1/3
f 8/1/3 9/1/3 41/1/3
f 22/1/3 23/1/3 55/1/3
f 9/1/3 10/1/3 42/1/3
f 23/1/3 24/1/3 56/1/3
f 10/1/3 11/1/3 43/1/3
f 24/1/3 25/1/3 57/1/3
f 11/1/3 12/1/3 44/1/3
f 25/1/3 26/1/3 58/1/3
f 12/1/3 13/1/3 45/1/3
f 75/1/4 107/1/4 106/1/4
f 54/1/75 86/1/75 85/1/75
f 41/1/93 73/1/93 72/1/93
f 55/1/77 87/1/77 86/1/77
f 42/1/94 74/1/94 73/1/94
f 56/1/95 88/1/95 87/1/95
f 43/1/96 75/1/96 74/1/96
f 57/1/97 89/1/97 88/1/97
f 44/1/80 76/1/80 75/1/80
f 58/1/98 90/1/98 89/1/98
f 45/1/99 77/1/99 76/1/99
f 59/1/100 91/1/100 90/1/100
f 46/1/16 78/1/16 77/1/16
f 60/1/101 92/1/101 91/1/101
f 47/1/102 79/1/102 78/1/102
f 33/1/19 65/1/19 66/1/19
f 61/1/103 93/1/103 92/1/103
f 48/1/84 80/1/84 79/1/84
f 35/1/104 67/1/104 65/1/104
f 62/1/85 94/1/85 93/1/85
f 49/1/24 81/1/24 80/1/24
f 36/1/86 68/1/86 67/1/86
f 63/1/105 95/1/105 94/1/105
f 50/1/27 82/1/27 81/1/27
f 37/1/28 69/1/28 68/1/28
f 64/1/68 96/1/68 95/1/68
f 51/1/69 83/1/69 82/1/69
f 38/1/106 70/1/106 69/1/106
f 34/1/32 66/1/32 96/1/32
f 52/1/71 84/1/71 83/1/71
f 39/1/72 71/1/72 70/1/72
f 53/1/73 85/1/73 84/1/73
f 114/1/27 146/1/27 145/1/27
f 89/1/107 121/1/107 120/1/107
f 75/1/108 76/1/108 108/1/108
f 89/1/38 90/1/38 122/1/38
f 77/1/39 109/1/39 108/1/39
f 91/1/109 123/1/109 122/1/109
f 77/1/110 78/1/110 110/1/110
f 91/1/111 92/1/111 124/1/111
f 79/1/112 111/1/112 110/1/112
f 65/1/113 97/1/113 98/1/113
f 93/1/114 125/1/114 124/1/114
f 79/1/46 80/1/46 112/1/46
f 67/1/47 99/1/47 97/1/47
f 93/1/115 94/1/115 126/1/115
f 81/1/116 113/1/116 112/1/116
f 67/1/117 68/1/117 100/1/117
f 95/1/118 127/1/118 126/1/118
f 81/1/119 82/1/119 114/1/119
f 68/1/120 69/1/120 101/1/120
f 95/1/54 96/1/54 128/1/54
f 83/1/55 115/1/55 114/1/55
f 69/1/121 70/1/121 102/1/121
f 66/1/122 98/1/122 128/1/122
f 83/1/123 84/1/123 116/1/123
f 71/1/124 103/1/124 102/1/124
f 85/1/125 117/1/125 116/1/125
f 71/1/126 72/1/126 104/1/126
f 86/1/62 118/1/62 117/1/62
f 73/1/63 105/1/63 104/1/63
f 87/1/127 119/1/127 118/1/127
f 73/1/128 74/1/128 106/1/128
f 87/1/66 88/1/66 120/1/66
f 130/1/3 129/1/3 131/1/3
f 131/1/129 132/1/129 133/1/129
f 133/1/3 134/1/3 135/1/3
f 135/1/130 136/1/130 137/1/130
f 137/1/130 138/1/130 139/1/130
f 139/1/130 140/1/130 141/1/130
f 141/1/3 142/1/3 143/1/3
f 143/1/131 144/1/131 145/1/131
f 145/1/132 146/1/132 147/1/132
f 147/1/3 148/1/3 149/1/3
f 149/1/133 150/1/133 151/1/133
f 151/1/133 152/1/133 153/1/133
f 153/1/133 154/1/133 155/1/133
f 155/1/3 156/1/3 157/1/3
f 157/1/134 158/1/134 159/1/134
f 159/1/3 160/1/3 130/1/3
f 130/1/132 131/1/132 133/1/132
f 133/1/3 135/1/3 137/1/3
f 137/1/131 139/1/131 141/1/131
f 141/1/3 143/1/3 145/1/3
f 145/1/3 147/1/3 149/1/3
f 149/1/132 151/1/132 153/1/132
f 153/1/3 155/1/3 157/1/3
f 157/1/131 159/1/131 130/1/131
f 130/1/3 133/1/3 137/1/3
f 137/1/3 141/1/3 145/1/3
f 145/1/3 149/1/3 153/1/3
f 153/1/3 157/1/3 130/1/3
f 130/1/3 137/1/3 145/1/3
f 101/1/135 133/1/135 132/1/135
f 128/1/68 160/1/68 159/1/68
f 115/1/30 147/1/30 146/1/30
f 102/1/70 134/1/70 133/1/70
f 98/1/32 130/1/32 160/1/32
f 116/1/71 148/1/71 147/1/71
f 103/1/34 135/1/34 134/1/34
f 117/1/136 149/1/136 148/1/136
f 104/1/74 136/1/74 135/1/74
f 118/1/75 150/1/75 149/1/75
f 105/1/93 137/1/93 136/1/93
f 119/1/137 151/1/137 150/1/137
f 106/1/138 138/1/138 137/1/138
f 120/1/139 152/1/139 151/1/139
f 107/1/10 139/1/10 138/1/10
f 121/1/97 153/1/97 152/1/97
f 108/1/12 140/1/12 139/1/12
f 122/1/98 154/1/98 153/1/98
f 109/1/81 141/1/81 140/1/81
f 123/1/15 155/1/15 154/1/15
f 110/1/16 142/1/16 141/1/16
f 124/1/17 156/1/17 155/1/17
f 111/1/18 143/1/18 142/1/18
f 97/1/19 129/1/19 130/1/19
f 125/1/20 157/1/20 156/1/20
f 112/1/21 144/1/21 143/1/21
f 99/1/22 131/1/22 129/1/22
f 126/1/85 158/1/85 157/1/85
f 113/1/24 145/1/24 144/1/24
f 100/1/86 132/1/86 131/1/86
f 127/1/26 159/1/26 158/1/26
