# Blender 4.1.1
# www.blender.org
mtllib Plane.003.mtl
o Road.001
v 741.828369 12.385091 -4.815364
v 740.469604 12.508308 -4.697783
v 758.355103 12.383437 -3.404536
v 756.912476 12.507483 -3.279771
v 740.469604 12.508308 -4.697783
v 739.095764 12.644137 -4.580686
v 756.912476 12.507483 -3.279771
v 755.467529 12.643976 -3.156632
v 742.709229 12.385003 -4.740170
v 741.346008 12.508265 -4.622206
v 755.786499 12.507540 -3.376873
v 757.223389 12.383551 -3.501146
v 741.828369 12.385091 -4.815364
v 758.355103 12.383437 -3.404536
v 742.709229 12.385003 -4.740170
v 757.223389 12.383551 -3.501146
v 741.828369 18.690741 -4.815364
v 758.355103 18.689087 -3.404536
v 742.709229 18.690653 -4.740170
v 757.223389 18.689201 -3.501146
v 741.828369 21.164911 -4.815364
v 758.355103 21.163258 -3.404536
v 742.709229 21.164824 -4.740170
v 757.223389 21.163372 -3.501146
vn 0.0382 0.8938 -0.4467
vn 0.0416 0.8752 -0.4819
vn 0.0398 0.8846 -0.4647
vn 0.0383 0.8932 -0.4480
vn -0.0000 1.0000 -0.0000
vn -0.0851 -0.0000 0.9964
vn 0.0385 0.8940 -0.4464
vn 0.0433 0.8665 -0.4974
vn 0.0401 0.8848 -0.4642
vn 0.0400 0.8854 -0.4631
vt 0.931801 1.000944
vt 0.999448 -0.000940
vt 1.000331 1.001564
vt -0.000482 0.999898
vt 0.053054 0.000191
vt 0.052911 0.986196
vt 0.931018 -0.009452
vt -0.000227 0.000255
s 0
usemtl Material.002
f 12/1/1 4/2/1 3/3/1
f 5/4/2 8/2/2 7/3/2
f 1/4/3 10/5/3 9/6/3
f 9/6/4 11/7/4 12/1/4
f 12/1/5 14/3/5 16/1/5
f 1/4/5 15/6/5 13/4/5
f 16/1/6 18/3/6 20/1/6
f 13/4/6 19/6/6 17/4/6
f 20/1/6 22/3/6 24/1/6
f 17/4/6 23/6/6 21/4/6
f 24/1/6 19/6/6 20/1/6
f 12/1/7 11/7/7 4/2/7
f 5/4/8 6/8/8 8/2/8
f 1/4/9 2/8/9 10/5/9
f 9/6/10 10/5/10 11/7/10
f 12/1/5 3/3/5 14/3/5
f 1/4/5 9/6/5 15/6/5
f 16/1/6 14/3/6 18/3/6
f 13/4/6 15/6/6 19/6/6
f 20/1/6 18/3/6 22/3/6
f 17/4/6 19/6/6 23/6/6
f 24/1/6 23/6/6 19/6/6
