# Blender 4.1.1
# www.blender.org
mtllib Circle.026.mtl
o Pipe.147
v 143.984482 1753.370605 -3545.291016
v 141.372620 1753.370605 -3545.033691
v 138.861130 1753.370605 -3544.271973
v 136.546524 1753.370605 -3543.034912
v 134.517761 1753.370605 -3541.369873
v 132.852798 1753.370605 -3539.341064
v 131.615601 1753.370605 -3537.026367
v 130.853760 1753.370605 -3534.514893
v 130.596512 1753.370605 -3531.903076
v 130.853760 1753.370605 -3529.291260
v 131.615601 1753.370605 -3526.779541
v 132.852798 1753.370605 -3524.464844
v 134.517761 1753.370605 -3522.436279
v 136.546524 1753.370605 -3520.771240
v 138.861130 1753.370605 -3519.533936
v 141.372620 1753.370605 -3518.772217
v 143.984482 1753.370605 -3518.514893
v 146.596344 1753.370605 -3518.772217
v 149.107834 1753.370605 -3519.533936
v 151.422440 1753.370605 -3520.771240
v 153.451202 1753.370605 -3522.436279
v 155.116180 1753.370605 -3524.464844
v 156.353348 1753.370605 -3526.779541
v 157.115204 1753.370605 -3529.291260
v 157.372437 1753.370605 -3531.903076
v 157.115204 1753.370605 -3534.514893
v 156.353348 1753.370605 -3537.026367
v 155.116180 1753.370605 -3539.341064
v 153.451202 1753.370605 -3541.369873
v 151.422440 1753.370605 -3543.034912
v 149.107834 1753.370605 -3544.271973
v 146.596344 1753.370605 -3545.033691
v 141.372620 1753.370605 -3545.033691
v 143.984482 1753.370605 -3545.291016
v 138.861130 1753.370605 -3544.271973
v 136.546524 1753.370605 -3543.034912
v 134.517761 1753.370605 -3541.369873
v 132.852798 1753.370605 -3539.341064
v 131.615601 1753.370605 -3537.026367
v 130.853760 1753.370605 -3534.514893
v 130.596512 1753.370605 -3531.903076
v 130.853760 1753.370605 -3529.291260
v 131.615601 1753.370605 -3526.779541
v 132.852798 1753.370605 -3524.464844
v 134.517761 1753.370605 -3522.436279
v 136.546524 1753.370605 -3520.771240
v 138.861130 1753.370605 -3519.533936
v 141.372620 1753.370605 -3518.772217
v 143.984482 1753.370605 -3518.514893
v 146.596344 1753.370605 -3518.772217
v 149.107834 1753.370605 -3519.533936
v 151.422440 1753.370605 -3520.771240
v 153.451202 1753.370605 -3522.436279
v 155.116180 1753.370605 -3524.464844
v 156.353348 1753.370605 -3526.779541
v 157.115204 1753.370605 -3529.291260
v 157.372437 1753.370605 -3531.903076
v 157.115204 1753.370605 -3534.514893
v 156.353348 1753.370605 -3537.026367
v 155.116180 1753.370605 -3539.341064
v 153.451202 1753.370605 -3541.369873
v 151.422440 1753.370605 -3543.034912
v 149.107834 1753.370605 -3544.271973
v 146.596344 1753.370605 -3545.033691
v 141.372620 1792.334961 -3545.033691
v 143.984482 1792.334961 -3545.291016
v 138.861130 1792.334961 -3544.271973
v 136.546524 1792.334961 -3543.034912
v 134.517761 1792.334961 -3541.369873
v 132.852798 1792.334961 -3539.341064
v 131.615601 1792.334961 -3537.026367
v 130.853760 1792.334961 -3534.514893
v 130.596512 1792.334961 -3531.903076
v 130.853760 1792.334961 -3529.291260
v 131.615601 1792.334961 -3526.779541
v 132.852798 1792.334961 -3524.464844
v 134.517761 1792.334961 -3522.436279
v 136.546524 1792.334961 -3520.771240
v 138.861130 1792.334961 -3519.533936
v 141.372620 1792.334961 -3518.772217
v 143.984482 1792.334961 -3518.514893
v 146.596344 1792.334961 -3518.772217
v 149.107834 1792.334961 -3519.533936
v 151.422440 1792.334961 -3520.771240
v 153.451202 1792.334961 -3522.436279
v 155.116180 1792.334961 -3524.464844
v 156.353348 1792.334961 -3526.779541
v 157.115204 1792.334961 -3529.291260
v 157.372437 1792.334961 -3531.903076
v 157.115204 1792.334961 -3534.514893
v 156.353348 1792.334961 -3537.026367
v 155.116180 1792.334961 -3539.341064
v 153.451202 1792.334961 -3541.369873
v 151.422440 1792.334961 -3543.034912
v 149.107834 1792.334961 -3544.271973
v 146.596344 1792.334961 -3545.033691
v 139.559906 1792.898926 -3554.147217
v 143.984482 1792.898926 -3554.583008
v 135.305359 1792.898926 -3552.856445
v 131.384338 1792.898926 -3550.760498
v 127.947563 1792.898926 -3547.940186
v 125.127068 1792.898926 -3544.503662
v 123.031242 1792.898926 -3540.582275
v 121.740639 1792.898926 -3536.327881
v 121.304848 1792.898926 -3531.903320
v 121.740639 1792.898926 -3527.478760
v 123.031242 1792.898926 -3523.224121
v 125.127068 1792.898926 -3519.303223
v 127.947563 1792.898926 -3515.866455
v 131.384338 1792.898926 -3513.045898
v 135.305359 1792.898926 -3510.950195
v 139.559906 1792.898926 -3509.659424
v 143.984482 1792.898926 -3509.223633
v 148.409058 1792.898926 -3509.659424
v 152.663605 1792.898926 -3510.950195
v 156.584610 1792.898926 -3513.045898
v 160.021408 1792.898926 -3515.866455
v 162.841904 1792.898926 -3519.303223
v 164.937729 1792.898926 -3523.224121
v 166.228317 1792.898926 -3527.478760
v 166.664108 1792.898926 -3531.903320
v 166.228317 1792.898926 -3536.327881
v 164.937729 1792.898926 -3540.582275
v 162.841904 1792.898926 -3544.503662
v 160.021408 1792.898926 -3547.940186
v 156.584610 1792.898926 -3550.760498
v 152.663605 1792.898926 -3552.856445
v 148.409058 1792.898926 -3554.147217
v 139.559906 1801.740723 -3554.147217
v 143.984482 1801.740723 -3554.583008
v 135.305359 1801.740723 -3552.856445
v 131.384338 1801.740723 -3550.760498
v 127.947563 1801.740723 -3547.940186
v 125.127068 1801.740723 -3544.503662
v 123.031242 1801.740723 -3540.582275
v 121.740639 1801.740723 -3536.327881
v 121.304848 1801.740723 -3531.903320
v 121.740639 1801.740723 -3527.478760
v 123.031242 1801.740723 -3523.224121
v 125.127068 1801.740723 -3519.303223
v 127.947563 1801.740723 -3515.866455
v 131.384338 1801.740723 -3513.045898
v 135.305359 1801.740723 -3510.950195
v 139.559906 1801.740723 -3509.659424
v 143.984482 1801.740723 -3509.223633
v 148.409058 1801.740723 -3509.659424
v 152.663605 1801.740723 -3510.950195
v 156.584610 1801.740723 -3513.045898
v 160.021408 1801.740723 -3515.866455
v 162.841904 1801.740723 -3519.303223
v 164.937729 1801.740723 -3523.224121
v 166.228317 1801.740723 -3527.478760
v 166.664108 1801.740723 -3531.903320
v 166.228317 1801.740723 -3536.327881
v 164.937729 1801.740723 -3540.582275
v 162.841904 1801.740723 -3544.503662
v 160.021408 1801.740723 -3547.940186
v 156.584610 1801.740723 -3550.760498
v 152.663605 1801.740723 -3552.856445
v 148.409058 1801.740723 -3554.147217
vn -0.0000 -1.0000 -0.0000
vn -0.9569 -0.0000 -0.2903
vn -0.0000 1.0000 -0.0000
vn -0.0583 -0.9981 0.0177
vn 0.7730 -0.0000 0.6344
vn -0.9952 -0.0000 -0.0980
vn 0.8819 -0.0000 0.4714
vn -0.9952 -0.0000 0.0980
vn 0.9569 -0.0000 0.2903
vn -0.9569 -0.0000 0.2903
vn 0.9952 -0.0000 0.0980
vn -0.8819 -0.0000 0.4714
vn 0.9952 -0.0000 -0.0980
vn -0.7730 -0.0000 0.6344
vn 0.9569 -0.0000 -0.2903
vn -0.6344 -0.0000 0.7730
vn 0.8819 -0.0000 -0.4714
vn -0.4714 -0.0000 0.8819
vn -0.0980 -0.0000 -0.9952
vn 0.7730 -0.0000 -0.6344
vn -0.2902 -0.0000 0.9570
vn -0.2902 -0.0000 -0.9570
vn 0.6344 -0.0000 -0.7730
vn -0.0980 -0.0000 0.9952
vn -0.4714 -0.0000 -0.8819
vn 0.4714 -0.0000 -0.8819
vn 0.0980 -0.0000 0.9952
vn -0.6344 -0.0000 -0.7730
vn 0.2902 -0.0000 -0.9570
vn 0.2902 -0.0000 0.9570
vn -0.7730 -0.0000 -0.6344
vn 0.0980 -0.0000 -0.9952
vn 0.4714 -0.0000 0.8819
vn -0.8819 -0.0000 -0.4714
vn 0.6344 -0.0000 0.7730
vn 0.0606 -0.9981 0.0060
vn -0.0537 -0.9981 0.0287
vn 0.0606 -0.9981 -0.0060
vn -0.0471 -0.9981 0.0386
vn 0.0582 -0.9981 -0.0177
vn -0.0386 -0.9981 0.0471
vn 0.0537 -0.9981 -0.0287
vn -0.0287 -0.9981 0.0537
vn -0.0059 -0.9981 -0.0606
vn 0.0470 -0.9981 -0.0386
vn -0.0177 -0.9981 0.0583
vn -0.0177 -0.9981 -0.0583
vn 0.0386 -0.9981 -0.0471
vn -0.0060 -0.9981 0.0606
vn -0.0287 -0.9981 -0.0537
vn 0.0287 -0.9981 -0.0537
vn 0.0059 -0.9981 0.0606
vn -0.0386 -0.9981 -0.0471
vn 0.0177 -0.9981 -0.0583
vn 0.0177 -0.9981 0.0583
vn -0.0470 -0.9981 -0.0386
vn 0.0059 -0.9981 -0.0606
vn 0.0287 -0.9981 0.0537
vn -0.0537 -0.9981 -0.0287
vn 0.0386 -0.9981 0.0471
vn -0.0582 -0.9981 -0.0177
vn 0.0471 -0.9981 0.0386
vn -0.0606 -0.9981 -0.0060
vn 0.0537 -0.9981 0.0287
vn -0.0606 -0.9981 0.0060
vn 0.0583 -0.9981 0.0177
vn 0.2903 -0.0000 -0.9569
vn 0.2903 -0.0000 0.9569
vn -0.2903 -0.0000 0.9569
vn -0.2903 -0.0000 -0.9569
vn 0.0004 -1.0000 -0.0000
vn -0.0007 -1.0000 -0.0000
vn -0.0004 -1.0000 -0.0000
vn 0.0007 -1.0000 -0.0000
vn 0.0001 -1.0000 -0.0000
vn -0.0001 -1.0000 -0.0000
vn -0.0060 -0.9981 -0.0606
vn 0.0471 -0.9981 -0.0386
vn -0.0059 -0.9981 0.0606
vn 0.0060 -0.9981 0.0606
vn -0.0471 -0.9981 -0.0386
vn 0.0060 -0.9981 -0.0606
vn 0.0286 -0.9981 0.0537
vn 0.0003 1.0000 -0.0000
vn -0.0003 1.0000 -0.0000
vn -0.0001 1.0000 -0.0000
vn 0.0001 1.0000 -0.0000
vt 0.000000 0.000000
s 0
usemtl Material.003
f 19/1/1 11/1/1 3/1/1
f 40/1/2 71/1/2 39/1/2
f 26/1/3 59/1/3 58/1/3
f 13/1/3 46/1/3 45/1/3
f 27/1/3 60/1/3 59/1/3
f 14/1/3 47/1/3 46/1/3
f 1/1/3 33/1/3 34/1/3
f 28/1/3 61/1/3 60/1/3
f 15/1/3 48/1/3 47/1/3
f 2/1/3 35/1/3 33/1/3
f 29/1/3 62/1/3 61/1/3
f 16/1/3 49/1/3 48/1/3
f 3/1/3 36/1/3 35/1/3
f 30/1/3 63/1/3 62/1/3
f 17/1/3 50/1/3 49/1/3
f 4/1/3 37/1/3 36/1/3
f 31/1/3 64/1/3 63/1/3
f 18/1/3 51/1/3 50/1/3
f 5/1/3 38/1/3 37/1/3
f 32/1/3 34/1/3 64/1/3
f 19/1/3 52/1/3 51/1/3
f 6/1/3 39/1/3 38/1/3
f 20/1/3 53/1/3 52/1/3
f 7/1/3 40/1/3 39/1/3
f 21/1/3 54/1/3 53/1/3
f 8/1/3 41/1/3 40/1/3
f 22/1/3 55/1/3 54/1/3
f 9/1/3 42/1/3 41/1/3
f 23/1/3 56/1/3 55/1/3
f 10/1/3 43/1/3 42/1/3
f 24/1/3 57/1/3 56/1/3
f 11/1/3 44/1/3 43/1/3
f 25/1/3 58/1/3 57/1/3
f 12/1/3 45/1/3 44/1/3
f 74/1/4 107/1/4 106/1/4
f 54/1/5 85/1/5 53/1/5
f 41/1/6 72/1/6 40/1/6
f 55/1/7 86/1/7 54/1/7
f 42/1/8 73/1/8 41/1/8
f 56/1/9 87/1/9 55/1/9
f 43/1/10 74/1/10 42/1/10
f 57/1/11 88/1/11 56/1/11
f 44/1/12 75/1/12 43/1/12
f 58/1/13 89/1/13 57/1/13
f 45/1/14 76/1/14 44/1/14
f 59/1/15 90/1/15 58/1/15
f 46/1/16 77/1/16 45/1/16
f 60/1/17 91/1/17 59/1/17
f 47/1/18 78/1/18 46/1/18
f 33/1/19 66/1/19 34/1/19
f 61/1/20 92/1/20 60/1/20
f 48/1/21 79/1/21 47/1/21
f 35/1/22 65/1/22 33/1/22
f 62/1/23 93/1/23 61/1/23
f 49/1/24 80/1/24 48/1/24
f 36/1/25 67/1/25 35/1/25
f 63/1/26 94/1/26 62/1/26
f 50/1/27 81/1/27 49/1/27
f 37/1/28 68/1/28 36/1/28
f 64/1/29 95/1/29 63/1/29
f 51/1/30 82/1/30 50/1/30
f 38/1/31 69/1/31 37/1/31
f 34/1/32 96/1/32 64/1/32
f 52/1/33 83/1/33 51/1/33
f 39/1/34 70/1/34 38/1/34
f 53/1/35 84/1/35 52/1/35
f 114/1/27 145/1/27 113/1/27
f 89/1/36 120/1/36 88/1/36
f 75/1/37 108/1/37 107/1/37
f 90/1/38 121/1/38 89/1/38
f 76/1/39 109/1/39 108/1/39
f 91/1/40 122/1/40 90/1/40
f 77/1/41 110/1/41 109/1/41
f 92/1/42 123/1/42 91/1/42
f 78/1/43 111/1/43 110/1/43
f 65/1/44 98/1/44 66/1/44
f 93/1/45 124/1/45 92/1/45
f 79/1/46 112/1/46 111/1/46
f 67/1/47 97/1/47 65/1/47
f 94/1/48 125/1/48 93/1/48
f 80/1/49 113/1/49 112/1/49
f 68/1/50 99/1/50 67/1/50
f 94/1/51 127/1/51 126/1/51
f 81/1/52 114/1/52 113/1/52
f 68/1/53 101/1/53 100/1/53
f 95/1/54 128/1/54 127/1/54
f 83/1/55 114/1/55 82/1/55
f 70/1/56 101/1/56 69/1/56
f 66/1/57 128/1/57 96/1/57
f 83/1/58 116/1/58 115/1/58
f 70/1/59 103/1/59 102/1/59
f 85/1/60 116/1/60 84/1/60
f 71/1/61 104/1/61 103/1/61
f 86/1/62 117/1/62 85/1/62
f 72/1/63 105/1/63 104/1/63
f 87/1/64 118/1/64 86/1/64
f 73/1/65 106/1/65 105/1/65
f 88/1/66 119/1/66 87/1/66
f 145/1/3 153/1/3 130/1/3
f 101/1/28 132/1/28 100/1/28
f 128/1/67 159/1/67 127/1/67
f 115/1/68 146/1/68 114/1/68
f 102/1/31 133/1/31 101/1/31
f 98/1/32 160/1/32 128/1/32
f 116/1/33 147/1/33 115/1/33
f 103/1/34 134/1/34 102/1/34
f 117/1/35 148/1/35 116/1/35
f 104/1/2 135/1/2 103/1/2
f 118/1/5 149/1/5 117/1/5
f 105/1/6 136/1/6 104/1/6
f 119/1/7 150/1/7 118/1/7
f 106/1/8 137/1/8 105/1/8
f 120/1/9 151/1/9 119/1/9
f 107/1/10 138/1/10 106/1/10
f 121/1/11 152/1/11 120/1/11
f 108/1/12 139/1/12 107/1/12
f 122/1/13 153/1/13 121/1/13
f 109/1/14 140/1/14 108/1/14
f 123/1/15 154/1/15 122/1/15
f 110/1/16 141/1/16 109/1/16
f 124/1/17 155/1/17 123/1/17
f 111/1/18 142/1/18 110/1/18
f 97/1/19 130/1/19 98/1/19
f 125/1/20 156/1/20 124/1/20
f 112/1/69 143/1/69 111/1/69
f 99/1/70 129/1/70 97/1/70
f 126/1/23 157/1/23 125/1/23
f 113/1/24 144/1/24 112/1/24
f 100/1/25 131/1/25 99/1/25
f 127/1/26 158/1/26 126/1/26
f 3/1/1 2/1/1 1/1/1
f 1/1/1 32/1/1 31/1/1
f 31/1/71 30/1/71 29/1/71
f 29/1/71 28/1/71 27/1/71
f 27/1/72 26/1/72 25/1/72
f 25/1/72 24/1/72 23/1/72
f 23/1/73 22/1/73 21/1/73
f 21/1/1 20/1/1 19/1/1
f 19/1/1 18/1/1 17/1/1
f 17/1/1 16/1/1 15/1/1
f 15/1/1 14/1/1 13/1/1
f 13/1/71 12/1/71 11/1/71
f 11/1/74 10/1/74 9/1/74
f 9/1/74 8/1/74 7/1/74
f 7/1/73 6/1/73 5/1/73
f 5/1/73 4/1/73 3/1/73
f 3/1/1 1/1/1 31/1/1
f 31/1/1 29/1/1 27/1/1
f 27/1/1 25/1/1 23/1/1
f 23/1/75 21/1/75 19/1/75
f 19/1/1 17/1/1 15/1/1
f 15/1/76 13/1/76 11/1/76
f 11/1/1 9/1/1 7/1/1
f 7/1/1 5/1/1 3/1/1
f 3/1/1 31/1/1 27/1/1
f 27/1/1 23/1/1 19/1/1
f 19/1/1 15/1/1 11/1/1
f 11/1/1 7/1/1 3/1/1
f 3/1/1 27/1/1 19/1/1
f 40/1/2 72/1/2 71/1/2
f 26/1/3 27/1/3 59/1/3
f 13/1/3 14/1/3 46/1/3
f 27/1/3 28/1/3 60/1/3
f 14/1/3 15/1/3 47/1/3
f 1/1/3 2/1/3 33/1/3
f 28/1/3 29/1/3 61/1/3
f 15/1/3 16/1/3 48/1/3
f 2/1/3 3/1/3 35/1/3
f 29/1/3 30/1/3 62/1/3
f 16/1/3 17/1/3 49/1/3
f 3/1/3 4/1/3 36/1/3
f 30/1/3 31/1/3 63/1/3
f 17/1/3 18/1/3 50/1/3
f 4/1/3 5/1/3 37/1/3
f 31/1/3 32/1/3 64/1/3
f 18/1/3 19/1/3 51/1/3
f 5/1/3 6/1/3 38/1/3
f 32/1/3 1/1/3 34/1/3
f 19/1/3 20/1/3 52/1/3
f 6/1/3 7/1/3 39/1/3
f 20/1/3 21/1/3 53/1/3
f 7/1/3 8/1/3 40/1/3
f 21/1/3 22/1/3 54/1/3
f 8/1/3 9/1/3 41/1/3
f 22/1/3 23/1/3 55/1/3
f 9/1/3 10/1/3 42/1/3
f 23/1/3 24/1/3 56/1/3
f 10/1/3 11/1/3 43/1/3
f 24/1/3 25/1/3 57/1/3
f 11/1/3 12/1/3 44/1/3
f 25/1/3 26/1/3 58/1/3
f 12/1/3 13/1/3 45/1/3
f 74/1/4 75/1/4 107/1/4
f 54/1/5 86/1/5 85/1/5
f 41/1/6 73/1/6 72/1/6
f 55/1/7 87/1/7 86/1/7
f 42/1/8 74/1/8 73/1/8
f 56/1/9 88/1/9 87/1/9
f 43/1/10 75/1/10 74/1/10
f 57/1/11 89/1/11 88/1/11
f 44/1/12 76/1/12 75/1/12
f 58/1/13 90/1/13 89/1/13
f 45/1/14 77/1/14 76/1/14
f 59/1/15 91/1/15 90/1/15
f 46/1/16 78/1/16 77/1/16
f 60/1/17 92/1/17 91/1/17
f 47/1/18 79/1/18 78/1/18
f 33/1/19 65/1/19 66/1/19
f 61/1/20 93/1/20 92/1/20
f 48/1/21 80/1/21 79/1/21
f 35/1/22 67/1/22 65/1/22
f 62/1/23 94/1/23 93/1/23
f 49/1/24 81/1/24 80/1/24
f 36/1/25 68/1/25 67/1/25
f 63/1/26 95/1/26 94/1/26
f 50/1/27 82/1/27 81/1/27
f 37/1/28 69/1/28 68/1/28
f 64/1/29 96/1/29 95/1/29
f 51/1/30 83/1/30 82/1/30
f 38/1/31 70/1/31 69/1/31
f 34/1/32 66/1/32 96/1/32
f 52/1/33 84/1/33 83/1/33
f 39/1/34 71/1/34 70/1/34
f 53/1/35 85/1/35 84/1/35
f 114/1/27 146/1/27 145/1/27
f 89/1/36 121/1/36 120/1/36
f 75/1/37 76/1/37 108/1/37
f 90/1/38 122/1/38 121/1/38
f 76/1/39 77/1/39 109/1/39
f 91/1/40 123/1/40 122/1/40
f 77/1/41 78/1/41 110/1/41
f 92/1/42 124/1/42 123/1/42
f 78/1/43 79/1/43 111/1/43
f 65/1/77 97/1/77 98/1/77
f 93/1/78 125/1/78 124/1/78
f 79/1/46 80/1/46 112/1/46
f 67/1/47 99/1/47 97/1/47
f 94/1/48 126/1/48 125/1/48
f 80/1/79 81/1/79 113/1/79
f 68/1/50 100/1/50 99/1/50
f 94/1/51 95/1/51 127/1/51
f 81/1/80 82/1/80 114/1/80
f 68/1/53 69/1/53 101/1/53
f 95/1/54 96/1/54 128/1/54
f 83/1/55 115/1/55 114/1/55
f 70/1/81 102/1/81 101/1/81
f 66/1/82 98/1/82 128/1/82
f 83/1/83 84/1/83 116/1/83
f 70/1/59 71/1/59 103/1/59
f 85/1/60 117/1/60 116/1/60
f 71/1/61 72/1/61 104/1/61
f 86/1/62 118/1/62 117/1/62
f 72/1/63 73/1/63 105/1/63
f 87/1/64 119/1/64 118/1/64
f 73/1/65 74/1/65 106/1/65
f 88/1/66 120/1/66 119/1/66
f 130/1/3 129/1/3 131/1/3
f 131/1/3 132/1/3 133/1/3
f 133/1/84 134/1/84 135/1/84
f 135/1/84 136/1/84 137/1/84
f 137/1/3 138/1/3 139/1/3
f 139/1/3 140/1/3 141/1/3
f 141/1/3 142/1/3 143/1/3
f 143/1/3 144/1/3 145/1/3
f 145/1/3 146/1/3 147/1/3
f 147/1/3 148/1/3 149/1/3
f 149/1/3 150/1/3 151/1/3
f 151/1/3 152/1/3 153/1/3
f 153/1/85 154/1/85 155/1/85
f 155/1/85 156/1/85 157/1/85
f 157/1/3 158/1/3 159/1/3
f 159/1/3 160/1/3 130/1/3
f 130/1/86 131/1/86 133/1/86
f 133/1/86 135/1/86 137/1/86
f 137/1/3 139/1/3 141/1/3
f 141/1/3 143/1/3 145/1/3
f 145/1/87 147/1/87 149/1/87
f 149/1/3 151/1/3 153/1/3
f 153/1/87 155/1/87 157/1/87
f 157/1/3 159/1/3 130/1/3
f 130/1/3 133/1/3 137/1/3
f 137/1/3 141/1/3 145/1/3
f 145/1/3 149/1/3 153/1/3
f 153/1/3 157/1/3 130/1/3
f 130/1/3 137/1/3 145/1/3
f 101/1/28 133/1/28 132/1/28
f 128/1/67 160/1/67 159/1/67
f 115/1/68 147/1/68 146/1/68
f 102/1/31 134/1/31 133/1/31
f 98/1/32 130/1/32 160/1/32
f 116/1/33 148/1/33 147/1/33
f 103/1/34 135/1/34 134/1/34
f 117/1/35 149/1/35 148/1/35
f 104/1/2 136/1/2 135/1/2
f 118/1/5 150/1/5 149/1/5
f 105/1/6 137/1/6 136/1/6
f 119/1/7 151/1/7 150/1/7
f 106/1/8 138/1/8 137/1/8
f 120/1/9 152/1/9 151/1/9
f 107/1/10 139/1/10 138/1/10
f 121/1/11 153/1/11 152/1/11
f 108/1/12 140/1/12 139/1/12
f 122/1/13 154/1/13 153/1/13
f 109/1/14 141/1/14 140/1/14
f 123/1/15 155/1/15 154/1/15
f 110/1/16 142/1/16 141/1/16
f 124/1/17 156/1/17 155/1/17
f 111/1/18 143/1/18 142/1/18
f 97/1/19 129/1/19 130/1/19
f 125/1/20 157/1/20 156/1/20
f 112/1/69 144/1/69 143/1/69
f 99/1/70 131/1/70 129/1/70
f 126/1/23 158/1/23 157/1/23
f 113/1/24 145/1/24 144/1/24
f 100/1/25 132/1/25 131/1/25
f 127/1/26 159/1/26 158/1/26
