# Blender 4.1.1
# www.blender.org
mtllib Circle.002.mtl
o Pipe.123
v 1272.753052 3804.744385 4399.268066
v 1270.141235 3804.744385 4399.525879
v 1267.629761 3804.744385 4400.287109
v 1265.315063 3804.744385 4401.524414
v 1263.286377 3804.744385 4403.189453
v 1261.621460 3804.744385 4405.218262
v 1260.384155 3804.744385 4407.532715
v 1259.622314 3804.744385 4410.044434
v 1259.365112 3804.744385 4412.656250
v 1259.622314 3804.744385 4415.268066
v 1260.384155 3804.744385 4417.779785
v 1261.621460 3804.744385 4420.094238
v 1263.286377 3804.744385 4422.123047
v 1265.315063 3804.744385 4423.788086
v 1267.629761 3804.744385 4425.025391
v 1270.141235 3804.744385 4425.787109
v 1272.753052 3804.744385 4426.044434
v 1275.364990 3804.744385 4425.787109
v 1277.876465 3804.744385 4425.025391
v 1280.191040 3804.744385 4423.788086
v 1282.219849 3804.744385 4422.123047
v 1283.884766 3804.744385 4420.094238
v 1285.121948 3804.744385 4417.779785
v 1285.883789 3804.744385 4415.268066
v 1286.141113 3804.744385 4412.656250
v 1285.883789 3804.744385 4410.044434
v 1285.121948 3804.744385 4407.532715
v 1283.884766 3804.744385 4405.218262
v 1282.219849 3804.744385 4403.189453
v 1280.191040 3804.744385 4401.524414
v 1277.876465 3804.744385 4400.287109
v 1275.364990 3804.744385 4399.525879
v 1270.141235 3804.744385 4399.525879
v 1272.753052 3804.744385 4399.268066
v 1267.629761 3804.744385 4400.287109
v 1265.315063 3804.744385 4401.524414
v 1263.286377 3804.744385 4403.189453
v 1261.621460 3804.744385 4405.218262
v 1260.384155 3804.744385 4407.532715
v 1259.622314 3804.744385 4410.044434
v 1259.365112 3804.744385 4412.656250
v 1259.622314 3804.744385 4415.268066
v 1260.384155 3804.744385 4417.779785
v 1261.621460 3804.744385 4420.094238
v 1263.286377 3804.744385 4422.123047
v 1265.315063 3804.744385 4423.788086
v 1267.629761 3804.744385 4425.025391
v 1270.141235 3804.744385 4425.787109
v 1272.753052 3804.744385 4426.044434
v 1275.364990 3804.744385 4425.787109
v 1277.876465 3804.744385 4425.025391
v 1280.191040 3804.744385 4423.788086
v 1282.219849 3804.744385 4422.123047
v 1283.884766 3804.744385 4420.094238
v 1285.121948 3804.744385 4417.779785
v 1285.883789 3804.744385 4415.268066
v 1286.141113 3804.744385 4412.656250
v 1285.883789 3804.744385 4410.044434
v 1285.121948 3804.744385 4407.532715
v 1283.884766 3804.744385 4405.218262
v 1282.219849 3804.744385 4403.189453
v 1280.191040 3804.744385 4401.524414
v 1277.876465 3804.744385 4400.287109
v 1275.364990 3804.744385 4399.525879
v 1270.141235 3843.708496 4399.525879
v 1272.753052 3843.708496 4399.268066
v 1267.629761 3843.708496 4400.287109
v 1265.315063 3843.708496 4401.524414
v 1263.286377 3843.708496 4403.189453
v 1261.621460 3843.708496 4405.218262
v 1260.384155 3843.708496 4407.532715
v 1259.622314 3843.708496 4410.044434
v 1259.365112 3843.708496 4412.656250
v 1259.622314 3843.708496 4415.268066
v 1260.384155 3843.708496 4417.779785
v 1261.621460 3843.708496 4420.094238
v 1263.286377 3843.708496 4422.123047
v 1265.315063 3843.708496 4423.788086
v 1267.629761 3843.708496 4425.025391
v 1270.141235 3843.708496 4425.787109
v 1272.753052 3843.708496 4426.044434
v 1275.364990 3843.708496 4425.787109
v 1277.876465 3843.708496 4425.025391
v 1280.191040 3843.708496 4423.788086
v 1282.219849 3843.708496 4422.123047
v 1283.884766 3843.708496 4420.094238
v 1285.121948 3843.708496 4417.779785
v 1285.883789 3843.708496 4415.268066
v 1286.141113 3843.708496 4412.656250
v 1285.883789 3843.708496 4410.044434
v 1285.121948 3843.708496 4407.532715
v 1283.884766 3843.708496 4405.218262
v 1282.219849 3843.708496 4403.189453
v 1280.191040 3843.708496 4401.524414
v 1277.876465 3843.708496 4400.287109
v 1275.364990 3843.708496 4399.525879
v 1268.328491 3844.272461 4390.412109
v 1272.753052 3844.272461 4389.976074
v 1264.073975 3844.272461 4391.702637
v 1260.152954 3844.272461 4393.798828
v 1256.716187 3844.272461 4396.619141
v 1253.895630 3844.272461 4400.055664
v 1251.799805 3844.272461 4403.977051
v 1250.509155 3844.272461 4408.231445
v 1250.073486 3844.272461 4412.655762
v 1250.509155 3844.272461 4417.080566
v 1251.799805 3844.272461 4421.335449
v 1253.895630 3844.272461 4425.256348
v 1256.716187 3844.272461 4428.692871
v 1260.152954 3844.272461 4431.513672
v 1264.073975 3844.272461 4433.608887
v 1268.328491 3844.272461 4434.899902
v 1272.753052 3844.272461 4435.335449
v 1277.177612 3844.272461 4434.899902
v 1281.432251 3844.272461 4433.608887
v 1285.353149 3844.272461 4431.513672
v 1288.789917 3844.272461 4428.692871
v 1291.610474 3844.272461 4425.256348
v 1293.706299 3844.272461 4421.335449
v 1294.996948 3844.272461 4417.080566
v 1295.432739 3844.272461 4412.655762
v 1294.996948 3844.272461 4408.231445
v 1293.706299 3844.272461 4403.977051
v 1291.610474 3844.272461 4400.055664
v 1288.789917 3844.272461 4396.619141
v 1285.353149 3844.272461 4393.798828
v 1281.432251 3844.272461 4391.702637
v 1277.177612 3844.272461 4390.412109
v 1268.328491 3853.114502 4390.412109
v 1272.753052 3853.114502 4389.976074
v 1264.073975 3853.114502 4391.702637
v 1260.152954 3853.114502 4393.798828
v 1256.716187 3853.114502 4396.619141
v 1253.895630 3853.114502 4400.055664
v 1251.799805 3853.114502 4403.977051
v 1250.509155 3853.114502 4408.231445
v 1250.073486 3853.114502 4412.655762
v 1250.509155 3853.114502 4417.080566
v 1251.799805 3853.114502 4421.335449
v 1253.895630 3853.114502 4425.256348
v 1256.716187 3853.114502 4428.692871
v 1260.152954 3853.114502 4431.513672
v 1264.073975 3853.114502 4433.608887
v 1268.328491 3853.114502 4434.899902
v 1272.753052 3853.114502 4435.335449
v 1277.177612 3853.114502 4434.899902
v 1281.432251 3853.114502 4433.608887
v 1285.353149 3853.114502 4431.513672
v 1288.789917 3853.114502 4428.692871
v 1291.610474 3853.114502 4425.256348
v 1293.706299 3853.114502 4421.335449
v 1294.996948 3853.114502 4417.080566
v 1295.432739 3853.114502 4412.655762
v 1294.996948 3853.114502 4408.231445
v 1293.706299 3853.114502 4403.977051
v 1291.610474 3853.114502 4400.055664
v 1288.789917 3853.114502 4396.619141
v 1285.353149 3853.114502 4393.798828
v 1281.432251 3853.114502 4391.702637
v 1277.177612 3853.114502 4390.412109
vn -0.0000 -1.0000 -0.0000
vn -0.9569 -0.0000 -0.2904
vn -0.0000 1.0000 -0.0000
vn -0.0583 -0.9981 0.0177
vn 0.7730 -0.0000 0.6343
vn -0.9952 -0.0000 -0.0980
vn 0.8819 -0.0000 0.4715
vn -0.9952 -0.0000 0.0979
vn 0.9569 -0.0000 0.2904
vn -0.9570 -0.0000 0.2902
vn 0.9952 -0.0000 0.0980
vn -0.8819 -0.0000 0.4715
vn 0.9952 -0.0000 -0.0980
vn -0.7730 -0.0000 0.6343
vn 0.9570 -0.0000 -0.2902
vn -0.6344 -0.0000 0.7730
vn 0.8820 -0.0000 -0.4713
vn -0.4714 -0.0000 0.8819
vn -0.0982 -0.0000 -0.9952
vn 0.7730 -0.0000 -0.6344
vn -0.2902 -0.0000 0.9570
vn -0.2901 -0.0000 -0.9570
vn 0.6344 -0.0000 -0.7730
vn -0.0981 -0.0000 0.9952
vn -0.4714 -0.0000 -0.8819
vn 0.4714 -0.0000 -0.8819
vn 0.0980 -0.0000 0.9952
vn -0.6344 -0.0000 -0.7730
vn 0.2901 -0.0000 -0.9570
vn 0.2903 -0.0000 0.9569
vn -0.7730 -0.0000 -0.6344
vn 0.0982 -0.0000 -0.9952
vn 0.4715 -0.0000 0.8819
vn -0.8819 -0.0000 -0.4715
vn 0.6344 -0.0000 0.7730
vn 0.0605 -0.9981 0.0060
vn -0.0536 -0.9981 0.0287
vn 0.0606 -0.9981 -0.0060
vn -0.0471 -0.9981 0.0386
vn 0.0583 -0.9981 -0.0177
vn -0.0387 -0.9981 0.0471
vn 0.0537 -0.9981 -0.0287
vn -0.0286 -0.9981 0.0537
vn -0.0061 -0.9981 -0.0606
vn 0.0471 -0.9981 -0.0386
vn -0.0177 -0.9981 0.0583
vn -0.0177 -0.9981 -0.0583
vn 0.0386 -0.9981 -0.0471
vn -0.0061 -0.9981 0.0606
vn -0.0286 -0.9981 -0.0537
vn 0.0288 -0.9981 -0.0537
vn 0.0061 -0.9981 0.0606
vn -0.0386 -0.9981 -0.0471
vn 0.0177 -0.9981 -0.0583
vn 0.0177 -0.9981 0.0583
vn -0.0472 -0.9981 -0.0386
vn 0.0058 -0.9981 -0.0606
vn 0.0286 -0.9981 0.0537
vn -0.0537 -0.9981 -0.0287
vn 0.0386 -0.9981 0.0471
vn -0.0583 -0.9981 -0.0177
vn 0.0471 -0.9981 0.0386
vn -0.0605 -0.9982 -0.0060
vn 0.0537 -0.9981 0.0287
vn -0.0606 -0.9981 0.0060
vn 0.0583 -0.9981 0.0177
vn -0.6343 -0.0000 -0.7731
vn 0.2903 -0.0000 -0.9569
vn 0.2904 -0.0000 0.9569
vn 0.0981 -0.0000 -0.9952
vn 0.4713 -0.0000 0.8820
vn -0.8819 -0.0000 -0.4714
vn -0.9569 -0.0000 -0.2903
vn 0.7730 -0.0000 0.6344
vn -0.9952 -0.0000 0.0980
vn 0.9569 -0.0000 0.2903
vn -0.9569 -0.0000 0.2903
vn -0.8819 -0.0000 0.4714
vn -0.7730 -0.0000 0.6344
vn 0.9569 -0.0000 -0.2903
vn -0.4713 -0.0000 0.8820
vn -0.0981 -0.0000 -0.9952
vn -0.2904 -0.0000 0.9569
vn -0.2903 -0.0000 -0.9569
vn 0.6343 -0.0000 -0.7731
vn -0.0980 -0.0000 0.9952
vn -0.4715 -0.0000 -0.8819
vn 0.4715 -0.0000 -0.8819
vn 0.0007 -1.0000 -0.0000
vn -0.0002 -1.0000 -0.0000
vn -0.0007 -1.0000 -0.0000
vn 0.0001 -1.0000 -0.0000
vn -0.0001 -1.0000 -0.0000
vn -0.9570 -0.0000 -0.2902
vn -0.9952 -0.0000 -0.0979
vn 0.8819 -0.0000 0.4713
vn 0.9570 -0.0000 0.2902
vn -0.9569 -0.0000 0.2904
vn 0.9569 -0.0000 -0.2904
vn 0.8819 -0.0000 -0.4715
vn 0.7730 -0.0000 -0.6343
vn 0.2902 -0.0000 0.9570
vn -0.7730 -0.0000 -0.6343
vn 0.4714 -0.0000 0.8819
vn 0.0606 -0.9981 0.0060
vn -0.0538 -0.9981 0.0287
vn 0.0605 -0.9982 -0.0060
vn -0.0470 -0.9981 0.0386
vn -0.0386 -0.9981 0.0471
vn -0.0058 -0.9981 -0.0606
vn 0.0470 -0.9981 -0.0386
vn -0.0060 -0.9981 0.0606
vn -0.0288 -0.9981 -0.0537
vn 0.0286 -0.9981 -0.0537
vn 0.0060 -0.9981 0.0606
vn -0.0470 -0.9981 -0.0386
vn 0.0061 -0.9981 -0.0606
vn 0.0288 -0.9981 0.0537
vn -0.0536 -0.9981 -0.0287
vn -0.0606 -0.9981 -0.0060
vn -0.0605 -0.9981 0.0060
vn 0.0005 1.0000 -0.0000
vn -0.0005 1.0000 -0.0000
vn 0.0010 1.0000 -0.0000
vn 0.0001 1.0000 -0.0000
vn -0.0010 1.0000 -0.0000
vn -0.0008 1.0000 -0.0000
vn -0.0001 1.0000 -0.0000
vn -0.0003 1.0000 -0.0000
vn 0.0003 1.0000 -0.0000
vn 0.8819 -0.0000 0.4714
vn 0.8819 -0.0000 -0.4714
vt 0.000000 0.000000
s 0
usemtl Material.003
f 19/1/1 11/1/1 3/1/1
f 40/1/2 71/1/2 39/1/2
f 26/1/3 59/1/3 58/1/3
f 13/1/3 46/1/3 45/1/3
f 27/1/3 60/1/3 59/1/3
f 14/1/3 47/1/3 46/1/3
f 1/1/3 33/1/3 34/1/3
f 28/1/3 61/1/3 60/1/3
f 15/1/3 48/1/3 47/1/3
f 2/1/3 35/1/3 33/1/3
f 29/1/3 62/1/3 61/1/3
f 16/1/3 49/1/3 48/1/3
f 3/1/3 36/1/3 35/1/3
f 30/1/3 63/1/3 62/1/3
f 17/1/3 50/1/3 49/1/3
f 4/1/3 37/1/3 36/1/3
f 31/1/3 64/1/3 63/1/3
f 18/1/3 51/1/3 50/1/3
f 5/1/3 38/1/3 37/1/3
f 32/1/3 34/1/3 64/1/3
f 19/1/3 52/1/3 51/1/3
f 6/1/3 39/1/3 38/1/3
f 20/1/3 53/1/3 52/1/3
f 7/1/3 40/1/3 39/1/3
f 21/1/3 54/1/3 53/1/3
f 8/1/3 41/1/3 40/1/3
f 22/1/3 55/1/3 54/1/3
f 9/1/3 42/1/3 41/1/3
f 23/1/3 56/1/3 55/1/3
f 10/1/3 43/1/3 42/1/3
f 24/1/3 57/1/3 56/1/3
f 11/1/3 44/1/3 43/1/3
f 25/1/3 58/1/3 57/1/3
f 12/1/3 45/1/3 44/1/3
f 75/1/4 106/1/4 74/1/4
f 54/1/5 85/1/5 53/1/5
f 41/1/6 72/1/6 40/1/6
f 55/1/7 86/1/7 54/1/7
f 42/1/8 73/1/8 41/1/8
f 56/1/9 87/1/9 55/1/9
f 43/1/10 74/1/10 42/1/10
f 57/1/11 88/1/11 56/1/11
f 44/1/12 75/1/12 43/1/12
f 58/1/13 89/1/13 57/1/13
f 45/1/14 76/1/14 44/1/14
f 59/1/15 90/1/15 58/1/15
f 46/1/16 77/1/16 45/1/16
f 60/1/17 91/1/17 59/1/17
f 47/1/18 78/1/18 46/1/18
f 33/1/19 66/1/19 34/1/19
f 61/1/20 92/1/20 60/1/20
f 48/1/21 79/1/21 47/1/21
f 35/1/22 65/1/22 33/1/22
f 62/1/23 93/1/23 61/1/23
f 49/1/24 80/1/24 48/1/24
f 36/1/25 67/1/25 35/1/25
f 63/1/26 94/1/26 62/1/26
f 50/1/27 81/1/27 49/1/27
f 37/1/28 68/1/28 36/1/28
f 64/1/29 95/1/29 63/1/29
f 51/1/30 82/1/30 50/1/30
f 38/1/31 69/1/31 37/1/31
f 34/1/32 96/1/32 64/1/32
f 52/1/33 83/1/33 51/1/33
f 39/1/34 70/1/34 38/1/34
f 53/1/35 84/1/35 52/1/35
f 114/1/27 145/1/27 113/1/27
f 89/1/36 120/1/36 88/1/36
f 75/1/37 108/1/37 107/1/37
f 90/1/38 121/1/38 89/1/38
f 77/1/39 108/1/39 76/1/39
f 91/1/40 122/1/40 90/1/40
f 78/1/41 109/1/41 77/1/41
f 92/1/42 123/1/42 91/1/42
f 78/1/43 111/1/43 110/1/43
f 66/1/44 97/1/44 98/1/44
f 93/1/45 124/1/45 92/1/45
f 80/1/46 111/1/46 79/1/46
f 67/1/47 97/1/47 65/1/47
f 94/1/48 125/1/48 93/1/48
f 81/1/49 112/1/49 80/1/49
f 67/1/50 100/1/50 99/1/50
f 95/1/51 126/1/51 94/1/51
f 82/1/52 113/1/52 81/1/52
f 68/1/53 101/1/53 100/1/53
f 95/1/54 128/1/54 127/1/54
f 82/1/55 115/1/55 114/1/55
f 70/1/56 101/1/56 69/1/56
f 66/1/57 128/1/57 96/1/57
f 83/1/58 116/1/58 115/1/58
f 71/1/59 102/1/59 70/1/59
f 85/1/60 116/1/60 84/1/60
f 71/1/61 104/1/61 103/1/61
f 86/1/62 117/1/62 85/1/62
f 72/1/63 105/1/63 104/1/63
f 86/1/64 119/1/64 118/1/64
f 73/1/65 106/1/65 105/1/65
f 87/1/66 120/1/66 119/1/66
f 145/1/3 153/1/3 130/1/3
f 101/1/67 132/1/67 100/1/67
f 128/1/68 159/1/68 127/1/68
f 115/1/69 146/1/69 114/1/69
f 102/1/31 133/1/31 101/1/31
f 98/1/70 160/1/70 128/1/70
f 116/1/71 147/1/71 115/1/71
f 103/1/72 134/1/72 102/1/72
f 117/1/35 148/1/35 116/1/35
f 104/1/73 135/1/73 103/1/73
f 118/1/74 149/1/74 117/1/74
f 105/1/6 136/1/6 104/1/6
f 119/1/7 150/1/7 118/1/7
f 106/1/75 137/1/75 105/1/75
f 120/1/76 151/1/76 119/1/76
f 107/1/77 138/1/77 106/1/77
f 121/1/11 152/1/11 120/1/11
f 108/1/78 139/1/78 107/1/78
f 122/1/13 153/1/13 121/1/13
f 109/1/79 140/1/79 108/1/79
f 123/1/80 154/1/80 122/1/80
f 110/1/16 141/1/16 109/1/16
f 124/1/17 155/1/17 123/1/17
f 111/1/81 142/1/81 110/1/81
f 97/1/82 130/1/82 98/1/82
f 125/1/20 156/1/20 124/1/20
f 112/1/83 143/1/83 111/1/83
f 99/1/84 129/1/84 97/1/84
f 126/1/85 157/1/85 125/1/85
f 113/1/86 144/1/86 112/1/86
f 100/1/87 131/1/87 99/1/87
f 127/1/88 158/1/88 126/1/88
f 3/1/1 2/1/1 1/1/1
f 1/1/1 32/1/1 31/1/1
f 31/1/1 30/1/1 29/1/1
f 29/1/1 28/1/1 27/1/1
f 27/1/1 26/1/1 25/1/1
f 25/1/1 24/1/1 23/1/1
f 23/1/89 22/1/89 21/1/89
f 21/1/1 20/1/1 19/1/1
f 19/1/90 18/1/90 17/1/90
f 17/1/1 16/1/1 15/1/1
f 15/1/1 14/1/1 13/1/1
f 13/1/1 12/1/1 11/1/1
f 11/1/1 10/1/1 9/1/1
f 9/1/1 8/1/1 7/1/1
f 7/1/91 6/1/91 5/1/91
f 5/1/1 4/1/1 3/1/1
f 3/1/1 1/1/1 31/1/1
f 31/1/1 29/1/1 27/1/1
f 27/1/1 25/1/1 23/1/1
f 23/1/1 21/1/1 19/1/1
f 19/1/1 17/1/1 15/1/1
f 15/1/1 13/1/1 11/1/1
f 11/1/1 9/1/1 7/1/1
f 7/1/1 5/1/1 3/1/1
f 3/1/1 31/1/1 27/1/1
f 27/1/92 23/1/92 19/1/92
f 19/1/1 15/1/1 11/1/1
f 11/1/93 7/1/93 3/1/93
f 3/1/1 27/1/1 19/1/1
f 40/1/94 72/1/94 71/1/94
f 26/1/3 27/1/3 59/1/3
f 13/1/3 14/1/3 46/1/3
f 27/1/3 28/1/3 60/1/3
f 14/1/3 15/1/3 47/1/3
f 1/1/3 2/1/3 33/1/3
f 28/1/3 29/1/3 61/1/3
f 15/1/3 16/1/3 48/1/3
f 2/1/3 3/1/3 35/1/3
f 29/1/3 30/1/3 62/1/3
f 16/1/3 17/1/3 49/1/3
f 3/1/3 4/1/3 36/1/3
f 30/1/3 31/1/3 63/1/3
f 17/1/3 18/1/3 50/1/3
f 4/1/3 5/1/3 37/1/3
f 31/1/3 32/1/3 64/1/3
f 18/1/3 19/1/3 51/1/3
f 5/1/3 6/1/3 38/1/3
f 32/1/3 1/1/3 34/1/3
f 19/1/3 20/1/3 52/1/3
f 6/1/3 7/1/3 39/1/3
f 20/1/3 21/1/3 53/1/3
f 7/1/3 8/1/3 40/1/3
f 21/1/3 22/1/3 54/1/3
f 8/1/3 9/1/3 41/1/3
f 22/1/3 23/1/3 55/1/3
f 9/1/3 10/1/3 42/1/3
f 23/1/3 24/1/3 56/1/3
f 10/1/3 11/1/3 43/1/3
f 24/1/3 25/1/3 57/1/3
f 11/1/3 12/1/3 44/1/3
f 25/1/3 26/1/3 58/1/3
f 12/1/3 13/1/3 45/1/3
f 75/1/4 107/1/4 106/1/4
f 54/1/74 86/1/74 85/1/74
f 41/1/95 73/1/95 72/1/95
f 55/1/96 87/1/96 86/1/96
f 42/1/75 74/1/75 73/1/75
f 56/1/97 88/1/97 87/1/97
f 43/1/98 75/1/98 74/1/98
f 57/1/11 89/1/11 88/1/11
f 44/1/12 76/1/12 75/1/12
f 58/1/13 90/1/13 89/1/13
f 45/1/79 77/1/79 76/1/79
f 59/1/99 91/1/99 90/1/99
f 46/1/16 78/1/16 77/1/16
f 60/1/100 92/1/100 91/1/100
f 47/1/18 79/1/18 78/1/18
f 33/1/19 65/1/19 66/1/19
f 61/1/101 93/1/101 92/1/101
f 48/1/21 80/1/21 79/1/21
f 35/1/22 67/1/22 65/1/22
f 62/1/23 94/1/23 93/1/23
f 49/1/86 81/1/86 80/1/86
f 36/1/25 68/1/25 67/1/25
f 63/1/88 95/1/88 94/1/88
f 50/1/27 82/1/27 81/1/27
f 37/1/28 69/1/28 68/1/28
f 64/1/29 96/1/29 95/1/29
f 51/1/102 83/1/102 82/1/102
f 38/1/103 70/1/103 69/1/103
f 34/1/32 66/1/32 96/1/32
f 52/1/104 84/1/104 83/1/104
f 39/1/34 71/1/34 70/1/34
f 53/1/35 85/1/35 84/1/35
f 114/1/27 146/1/27 145/1/27
f 89/1/105 121/1/105 120/1/105
f 75/1/106 76/1/106 108/1/106
f 90/1/107 122/1/107 121/1/107
f 77/1/108 109/1/108 108/1/108
f 91/1/40 123/1/40 122/1/40
f 78/1/109 110/1/109 109/1/109
f 92/1/42 124/1/42 123/1/42
f 78/1/43 79/1/43 111/1/43
f 66/1/110 65/1/110 97/1/110
f 93/1/111 125/1/111 124/1/111
f 80/1/46 112/1/46 111/1/46
f 67/1/47 99/1/47 97/1/47
f 94/1/48 126/1/48 125/1/48
f 81/1/112 113/1/112 112/1/112
f 67/1/113 68/1/113 100/1/113
f 95/1/114 127/1/114 126/1/114
f 82/1/115 114/1/115 113/1/115
f 68/1/53 69/1/53 101/1/53
f 95/1/54 96/1/54 128/1/54
f 82/1/55 83/1/55 115/1/55
f 70/1/116 102/1/116 101/1/116
f 66/1/117 98/1/117 128/1/117
f 83/1/118 84/1/118 116/1/118
f 71/1/119 103/1/119 102/1/119
f 85/1/60 117/1/60 116/1/60
f 71/1/61 72/1/61 104/1/61
f 86/1/62 118/1/62 117/1/62
f 72/1/120 73/1/120 105/1/120
f 86/1/64 87/1/64 119/1/64
f 73/1/121 74/1/121 106/1/121
f 87/1/66 88/1/66 120/1/66
f 130/1/3 129/1/3 131/1/3
f 131/1/122 132/1/122 133/1/122
f 133/1/123 134/1/123 135/1/123
f 135/1/124 136/1/124 137/1/124
f 137/1/124 138/1/124 139/1/124
f 139/1/122 140/1/122 141/1/122
f 141/1/3 142/1/3 143/1/3
f 143/1/125 144/1/125 145/1/125
f 145/1/3 146/1/3 147/1/3
f 147/1/3 148/1/3 149/1/3
f 149/1/123 150/1/123 151/1/123
f 151/1/126 152/1/126 153/1/126
f 153/1/126 154/1/126 155/1/126
f 155/1/122 156/1/122 157/1/122
f 157/1/127 158/1/127 159/1/127
f 159/1/128 160/1/128 130/1/128
f 130/1/128 131/1/128 133/1/128
f 133/1/3 135/1/3 137/1/3
f 137/1/129 139/1/129 141/1/129
f 141/1/3 143/1/3 145/1/3
f 145/1/3 147/1/3 149/1/3
f 149/1/130 151/1/130 153/1/130
f 153/1/3 155/1/3 157/1/3
f 157/1/125 159/1/125 130/1/125
f 130/1/3 133/1/3 137/1/3
f 137/1/3 141/1/3 145/1/3
f 145/1/3 149/1/3 153/1/3
f 153/1/3 157/1/3 130/1/3
f 130/1/3 137/1/3 145/1/3
f 101/1/28 133/1/28 132/1/28
f 128/1/68 160/1/68 159/1/68
f 115/1/69 147/1/69 146/1/69
f 102/1/31 134/1/31 133/1/31
f 98/1/70 130/1/70 160/1/70
f 116/1/71 148/1/71 147/1/71
f 103/1/72 135/1/72 134/1/72
f 117/1/35 149/1/35 148/1/35
f 104/1/73 136/1/73 135/1/73
f 118/1/74 150/1/74 149/1/74
f 105/1/6 137/1/6 136/1/6
f 119/1/131 151/1/131 150/1/131
f 106/1/75 138/1/75 137/1/75
f 120/1/76 152/1/76 151/1/76
f 107/1/10 139/1/10 138/1/10
f 121/1/11 153/1/11 152/1/11
f 108/1/78 140/1/78 139/1/78
f 122/1/13 154/1/13 153/1/13
f 109/1/79 141/1/79 140/1/79
f 123/1/80 155/1/80 154/1/80
f 110/1/16 142/1/16 141/1/16
f 124/1/132 156/1/132 155/1/132
f 111/1/81 143/1/81 142/1/81
f 97/1/82 129/1/82 130/1/82
f 125/1/20 157/1/20 156/1/20
f 112/1/83 144/1/83 143/1/83
f 99/1/84 131/1/84 129/1/84
f 126/1/23 158/1/23 157/1/23
f 113/1/86 145/1/86 144/1/86
f 100/1/87 132/1/87 131/1/87
f 127/1/88 159/1/88 158/1/88
