# Blender 4.1.1
# www.blender.org
mtllib Circle.001.mtl
o Pipe.122
v 1559.013062 3853.442627 4377.335449
v 1556.401245 3853.442627 4377.592773
v 1553.889526 3853.442627 4378.354492
v 1551.575073 3853.442627 4379.591797
v 1549.546143 3853.442627 4381.256836
v 1547.881348 3853.442627 4383.285156
v 1546.644165 3853.442627 4385.600098
v 1545.882324 3853.442627 4388.111816
v 1545.625122 3853.442627 4390.723633
v 1545.882324 3853.442627 4393.335449
v 1546.644165 3853.442627 4395.846680
v 1547.881348 3853.442627 4398.161621
v 1549.546143 3853.442627 4400.190430
v 1551.575073 3853.442627 4401.855469
v 1553.889526 3853.442627 4403.092285
v 1556.401245 3853.442627 4403.854004
v 1559.013062 3853.442627 4404.111328
v 1561.624756 3853.442627 4403.854004
v 1564.136475 3853.442627 4403.092285
v 1566.450928 3853.442627 4401.855469
v 1568.479858 3853.442627 4400.190430
v 1570.144653 3853.442627 4398.161621
v 1571.381836 3853.442627 4395.846680
v 1572.143677 3853.442627 4393.335449
v 1572.400879 3853.442627 4390.723633
v 1572.143677 3853.442627 4388.111816
v 1571.381836 3853.442627 4385.600098
v 1570.144653 3853.442627 4383.285156
v 1568.479858 3853.442627 4381.256836
v 1566.450928 3853.442627 4379.591797
v 1564.136475 3853.442627 4378.354492
v 1561.624756 3853.442627 4377.592773
v 1556.401245 3853.442627 4377.592773
v 1559.013062 3853.442627 4377.335449
v 1553.889526 3853.442627 4378.354492
v 1551.575073 3853.442627 4379.591797
v 1549.546143 3853.442627 4381.256836
v 1547.881348 3853.442627 4383.285156
v 1546.644165 3853.442627 4385.600098
v 1545.882324 3853.442627 4388.111816
v 1545.625122 3853.442627 4390.723633
v 1545.882324 3853.442627 4393.335449
v 1546.644165 3853.442627 4395.846680
v 1547.881348 3853.442627 4398.161621
v 1549.546143 3853.442627 4400.190430
v 1551.575073 3853.442627 4401.855469
v 1553.889526 3853.442627 4403.092285
v 1556.401245 3853.442627 4403.854004
v 1559.013062 3853.442627 4404.111328
v 1561.624756 3853.442627 4403.854004
v 1564.136475 3853.442627 4403.092285
v 1566.450928 3853.442627 4401.855469
v 1568.479858 3853.442627 4400.190430
v 1570.144653 3853.442627 4398.161621
v 1571.381836 3853.442627 4395.846680
v 1572.143677 3853.442627 4393.335449
v 1572.400879 3853.442627 4390.723633
v 1572.143677 3853.442627 4388.111816
v 1571.381836 3853.442627 4385.600098
v 1570.144653 3853.442627 4383.285156
v 1568.479858 3853.442627 4381.256836
v 1566.450928 3853.442627 4379.591797
v 1564.136475 3853.442627 4378.354492
v 1561.624756 3853.442627 4377.592773
v 1556.401245 3892.406738 4377.592773
v 1559.013062 3892.406738 4377.335449
v 1553.889526 3892.406738 4378.354492
v 1551.575073 3892.406738 4379.591797
v 1549.546143 3892.406738 4381.256836
v 1547.881348 3892.406738 4383.285156
v 1546.644165 3892.406738 4385.600098
v 1545.882324 3892.406738 4388.111816
v 1545.625122 3892.406738 4390.723633
v 1545.882324 3892.406738 4393.335449
v 1546.644165 3892.406738 4395.846680
v 1547.881348 3892.406738 4398.161621
v 1549.546143 3892.406738 4400.190430
v 1551.575073 3892.406738 4401.855469
v 1553.889526 3892.406738 4403.092285
v 1556.401245 3892.406738 4403.854004
v 1559.013062 3892.406738 4404.111328
v 1561.624756 3892.406738 4403.854004
v 1564.136475 3892.406738 4403.092285
v 1566.450928 3892.406738 4401.855469
v 1568.479858 3892.406738 4400.190430
v 1570.144653 3892.406738 4398.161621
v 1571.381836 3892.406738 4395.846680
v 1572.143677 3892.406738 4393.335449
v 1572.400879 3892.406738 4390.723633
v 1572.143677 3892.406738 4388.111816
v 1571.381836 3892.406738 4385.600098
v 1570.144653 3892.406738 4383.285156
v 1568.479858 3892.406738 4381.256836
v 1566.450928 3892.406738 4379.591797
v 1564.136475 3892.406738 4378.354492
v 1561.624756 3892.406738 4377.592773
v 1554.588501 3892.970703 4368.479004
v 1559.013062 3892.970703 4368.043457
v 1550.333862 3892.970703 4369.770020
v 1546.412964 3892.970703 4371.865723
v 1542.976074 3892.970703 4374.686035
v 1540.155640 3892.970703 4378.123047
v 1538.059692 3892.970703 4382.043945
v 1536.769287 3892.970703 4386.298340
v 1536.333374 3892.970703 4390.723145
v 1536.769287 3892.970703 4395.147461
v 1538.059692 3892.970703 4399.402344
v 1540.155640 3892.970703 4403.323242
v 1542.976074 3892.970703 4406.759766
v 1546.412964 3892.970703 4409.580566
v 1550.333862 3892.970703 4411.676270
v 1554.588501 3892.970703 4412.966797
v 1559.013062 3892.970703 4413.402832
v 1563.437500 3892.970703 4412.966797
v 1567.692139 3892.970703 4411.676270
v 1571.613037 3892.970703 4409.580566
v 1575.049927 3892.970703 4406.759766
v 1577.870361 3892.970703 4403.323242
v 1579.966309 3892.970703 4399.402344
v 1581.256836 3892.970703 4395.147461
v 1581.692627 3892.970703 4390.723145
v 1581.256836 3892.970703 4386.298340
v 1579.966309 3892.970703 4382.043945
v 1577.870361 3892.970703 4378.123047
v 1575.049927 3892.970703 4374.686035
v 1571.613037 3892.970703 4371.865723
v 1567.692139 3892.970703 4369.770020
v 1563.437500 3892.970703 4368.479004
v 1554.588501 3901.812744 4368.479004
v 1559.013062 3901.812744 4368.043457
v 1550.333862 3901.812744 4369.770020
v 1546.412964 3901.812744 4371.865723
v 1542.976074 3901.812744 4374.686035
v 1540.155640 3901.812744 4378.123047
v 1538.059692 3901.812744 4382.043945
v 1536.769287 3901.812744 4386.298340
v 1536.333374 3901.812744 4390.723145
v 1536.769287 3901.812744 4395.147461
v 1538.059692 3901.812744 4399.402344
v 1540.155640 3901.812744 4403.323242
v 1542.976074 3901.812744 4406.759766
v 1546.412964 3901.812744 4409.580566
v 1550.333862 3901.812744 4411.676270
v 1554.588501 3901.812744 4412.966797
v 1559.013062 3901.812744 4413.402832
v 1563.437500 3901.812744 4412.966797
v 1567.692139 3901.812744 4411.676270
v 1571.613037 3901.812744 4409.580566
v 1575.049927 3901.812744 4406.759766
v 1577.870361 3901.812744 4403.323242
v 1579.966309 3901.812744 4399.402344
v 1581.256836 3901.812744 4395.147461
v 1581.692627 3901.812744 4390.723145
v 1581.256836 3901.812744 4386.298340
v 1579.966309 3901.812744 4382.043945
v 1577.870361 3901.812744 4378.123047
v 1575.049927 3901.812744 4374.686035
v 1571.613037 3901.812744 4371.865723
v 1567.692139 3901.812744 4369.770020
v 1563.437500 3901.812744 4368.479004
vn -0.0000 -1.0000 -0.0000
vn -0.9569 -0.0000 -0.2903
vn -0.0000 1.0000 -0.0000
vn -0.0582 -0.9981 0.0177
vn 0.7730 -0.0000 0.6344
vn -0.9952 -0.0000 -0.0980
vn 0.8820 -0.0000 0.4713
vn -0.9952 -0.0000 0.0979
vn 0.9569 -0.0000 0.2903
vn -0.9569 -0.0000 0.2903
vn 0.9952 -0.0000 0.0980
vn -0.8820 -0.0000 0.4713
vn 0.9952 -0.0000 -0.0980
vn -0.7731 -0.0000 0.6343
vn 0.9569 -0.0000 -0.2903
vn -0.6344 -0.0000 0.7730
vn 0.8819 -0.0000 -0.4714
vn -0.4713 -0.0000 0.8820
vn -0.0981 -0.0000 -0.9952
vn 0.7730 -0.0000 -0.6344
vn -0.2902 -0.0000 0.9570
vn -0.2902 -0.0000 -0.9570
vn 0.6344 -0.0000 -0.7730
vn -0.0981 -0.0000 0.9952
vn -0.4715 -0.0000 -0.8819
vn 0.4715 -0.0000 -0.8819
vn 0.0981 -0.0000 0.9952
vn -0.6344 -0.0000 -0.7730
vn 0.2902 -0.0000 -0.9570
vn 0.2902 -0.0000 0.9570
vn -0.7730 -0.0000 -0.6344
vn 0.0981 -0.0000 -0.9952
vn 0.4713 -0.0000 0.8820
vn -0.8819 -0.0000 -0.4714
vn 0.6344 -0.0000 0.7730
vn 0.0606 -0.9981 0.0060
vn -0.0537 -0.9981 0.0287
vn 0.0606 -0.9981 -0.0060
vn -0.0471 -0.9981 0.0386
vn 0.0583 -0.9981 -0.0177
vn -0.0387 -0.9981 0.0471
vn 0.0537 -0.9981 -0.0287
vn -0.0287 -0.9981 0.0537
vn -0.0061 -0.9981 -0.0606
vn 0.0469 -0.9982 -0.0386
vn -0.0177 -0.9981 0.0583
vn -0.0177 -0.9981 -0.0583
vn 0.0385 -0.9981 -0.0470
vn -0.0061 -0.9981 0.0606
vn -0.0287 -0.9981 -0.0537
vn 0.0286 -0.9981 -0.0537
vn 0.0061 -0.9981 0.0606
vn -0.0385 -0.9981 -0.0470
vn 0.0176 -0.9981 -0.0582
vn 0.0177 -0.9981 0.0583
vn -0.0472 -0.9981 -0.0386
vn 0.0058 -0.9981 -0.0606
vn 0.0289 -0.9981 0.0537
vn -0.0537 -0.9981 -0.0287
vn 0.0386 -0.9981 0.0471
vn -0.0582 -0.9981 -0.0177
vn 0.0468 -0.9982 0.0386
vn -0.0606 -0.9981 -0.0060
vn 0.0537 -0.9981 0.0287
vn -0.0606 -0.9981 0.0060
vn 0.0582 -0.9982 0.0177
vn 0.2903 -0.0000 -0.9569
vn 0.2903 -0.0000 0.9570
vn -0.7731 -0.0000 -0.6343
vn 0.0980 -0.0000 -0.9952
vn 0.4714 -0.0000 0.8819
vn -0.9570 -0.0000 -0.2902
vn -0.9952 -0.0000 -0.0981
vn 0.8819 -0.0000 0.4714
vn -0.9952 -0.0000 0.0980
vn 0.9570 -0.0000 0.2902
vn -0.8819 -0.0000 0.4715
vn -0.7730 -0.0000 0.6344
vn 0.8819 -0.0000 -0.4715
vn -0.4714 -0.0000 0.8819
vn -0.0980 -0.0000 -0.9952
vn 0.7731 -0.0000 -0.6343
vn -0.2903 -0.0000 -0.9569
vn -0.4714 -0.0000 -0.8819
vn 0.4714 -0.0000 -0.8819
vn 0.0002 -1.0000 -0.0000
vn -0.0004 -1.0000 -0.0000
vn 0.0007 -1.0000 -0.0000
vn 0.0015 -1.0000 -0.0000
vn -0.0007 -1.0000 -0.0000
vn -0.0002 -1.0000 -0.0000
vn 0.0004 -1.0000 -0.0000
vn -0.0015 -1.0000 -0.0000
vn 0.0001 -1.0000 -0.0000
vn -0.0001 -1.0000 -0.0000
vn -0.0583 -0.9981 0.0177
vn -0.9952 -0.0000 -0.0979
vn -0.9569 -0.0000 0.2904
vn -0.8819 -0.0000 0.4714
vn 0.9570 -0.0000 -0.2902
vn 0.8820 -0.0000 -0.4713
vn 0.7729 -0.0000 -0.6345
vn -0.0980 -0.0000 0.9952
vn 0.0980 -0.0000 0.9952
vn -0.8820 -0.0000 -0.4713
vn -0.0468 -0.9982 0.0386
vn 0.0582 -0.9981 -0.0177
vn -0.0386 -0.9981 0.0471
vn -0.0289 -0.9981 0.0537
vn -0.0059 -0.9981 -0.0606
vn 0.0470 -0.9981 -0.0386
vn 0.0386 -0.9981 -0.0471
vn -0.0059 -0.9981 0.0606
vn -0.0286 -0.9981 -0.0537
vn 0.0287 -0.9981 -0.0537
vn 0.0059 -0.9981 0.0606
vn -0.0386 -0.9981 -0.0471
vn 0.0180 -0.9981 -0.0583
vn -0.0469 -0.9982 -0.0386
vn 0.0061 -0.9981 -0.0606
vn 0.0287 -0.9981 0.0537
vn 0.0387 -0.9981 0.0471
vn -0.0583 -0.9981 -0.0177
vn 0.0471 -0.9981 0.0386
vn 0.0583 -0.9981 0.0177
vn -0.0005 1.0000 -0.0000
vn 0.0010 1.0000 -0.0000
vn -0.0001 1.0000 -0.0000
vn 0.0005 1.0000 -0.0000
vn -0.0010 1.0000 -0.0000
vn 0.0001 1.0000 -0.0000
vn -0.6343 -0.0000 -0.7731
vn 0.2904 -0.0000 -0.9569
vn 0.2903 -0.0000 0.9569
vn -0.9952 -0.0000 0.0981
vn -0.9570 -0.0000 0.2902
vn -0.2903 -0.0000 0.9569
vn -0.2904 -0.0000 -0.9569
vn 0.6343 -0.0000 -0.7731
vt 0.000000 0.000000
s 0
usemtl Material.003
f 19/1/1 11/1/1 3/1/1
f 40/1/2 71/1/2 39/1/2
f 26/1/3 59/1/3 58/1/3
f 13/1/3 46/1/3 45/1/3
f 27/1/3 60/1/3 59/1/3
f 14/1/3 47/1/3 46/1/3
f 1/1/3 33/1/3 34/1/3
f 28/1/3 61/1/3 60/1/3
f 15/1/3 48/1/3 47/1/3
f 2/1/3 35/1/3 33/1/3
f 29/1/3 62/1/3 61/1/3
f 16/1/3 49/1/3 48/1/3
f 3/1/3 36/1/3 35/1/3
f 30/1/3 63/1/3 62/1/3
f 17/1/3 50/1/3 49/1/3
f 4/1/3 37/1/3 36/1/3
f 31/1/3 64/1/3 63/1/3
f 18/1/3 51/1/3 50/1/3
f 5/1/3 38/1/3 37/1/3
f 32/1/3 34/1/3 64/1/3
f 19/1/3 52/1/3 51/1/3
f 6/1/3 39/1/3 38/1/3
f 20/1/3 53/1/3 52/1/3
f 7/1/3 40/1/3 39/1/3
f 21/1/3 54/1/3 53/1/3
f 8/1/3 41/1/3 40/1/3
f 22/1/3 55/1/3 54/1/3
f 9/1/3 42/1/3 41/1/3
f 23/1/3 56/1/3 55/1/3
f 10/1/3 43/1/3 42/1/3
f 24/1/3 57/1/3 56/1/3
f 11/1/3 44/1/3 43/1/3
f 25/1/3 58/1/3 57/1/3
f 12/1/3 45/1/3 44/1/3
f 75/1/4 106/1/4 74/1/4
f 54/1/5 85/1/5 53/1/5
f 41/1/6 72/1/6 40/1/6
f 55/1/7 86/1/7 54/1/7
f 42/1/8 73/1/8 41/1/8
f 56/1/9 87/1/9 55/1/9
f 43/1/10 74/1/10 42/1/10
f 57/1/11 88/1/11 56/1/11
f 44/1/12 75/1/12 43/1/12
f 58/1/13 89/1/13 57/1/13
f 45/1/14 76/1/14 44/1/14
f 59/1/15 90/1/15 58/1/15
f 46/1/16 77/1/16 45/1/16
f 60/1/17 91/1/17 59/1/17
f 47/1/18 78/1/18 46/1/18
f 33/1/19 66/1/19 34/1/19
f 61/1/20 92/1/20 60/1/20
f 48/1/21 79/1/21 47/1/21
f 35/1/22 65/1/22 33/1/22
f 62/1/23 93/1/23 61/1/23
f 49/1/24 80/1/24 48/1/24
f 36/1/25 67/1/25 35/1/25
f 63/1/26 94/1/26 62/1/26
f 50/1/27 81/1/27 49/1/27
f 37/1/28 68/1/28 36/1/28
f 64/1/29 95/1/29 63/1/29
f 51/1/30 82/1/30 50/1/30
f 38/1/31 69/1/31 37/1/31
f 34/1/32 96/1/32 64/1/32
f 52/1/33 83/1/33 51/1/33
f 39/1/34 70/1/34 38/1/34
f 53/1/35 84/1/35 52/1/35
f 114/1/27 145/1/27 113/1/27
f 89/1/36 120/1/36 88/1/36
f 75/1/37 108/1/37 107/1/37
f 90/1/38 121/1/38 89/1/38
f 76/1/39 109/1/39 108/1/39
f 91/1/40 122/1/40 90/1/40
f 77/1/41 110/1/41 109/1/41
f 92/1/42 123/1/42 91/1/42
f 78/1/43 111/1/43 110/1/43
f 65/1/44 98/1/44 66/1/44
f 93/1/45 124/1/45 92/1/45
f 79/1/46 112/1/46 111/1/46
f 65/1/47 99/1/47 97/1/47
f 94/1/48 125/1/48 93/1/48
f 81/1/49 112/1/49 80/1/49
f 67/1/50 100/1/50 99/1/50
f 95/1/51 126/1/51 94/1/51
f 82/1/52 113/1/52 81/1/52
f 69/1/53 100/1/53 68/1/53
f 95/1/54 128/1/54 127/1/54
f 82/1/55 115/1/55 114/1/55
f 70/1/56 101/1/56 69/1/56
f 66/1/57 128/1/57 96/1/57
f 84/1/58 115/1/58 83/1/58
f 70/1/59 103/1/59 102/1/59
f 85/1/60 116/1/60 84/1/60
f 71/1/61 104/1/61 103/1/61
f 86/1/62 117/1/62 85/1/62
f 72/1/63 105/1/63 104/1/63
f 87/1/64 118/1/64 86/1/64
f 73/1/65 106/1/65 105/1/65
f 88/1/66 119/1/66 87/1/66
f 145/1/3 153/1/3 130/1/3
f 101/1/28 132/1/28 100/1/28
f 128/1/67 159/1/67 127/1/67
f 115/1/68 146/1/68 114/1/68
f 102/1/69 133/1/69 101/1/69
f 98/1/70 160/1/70 128/1/70
f 116/1/71 147/1/71 115/1/71
f 103/1/34 134/1/34 102/1/34
f 117/1/35 148/1/35 116/1/35
f 104/1/72 135/1/72 103/1/72
f 118/1/5 149/1/5 117/1/5
f 105/1/73 136/1/73 104/1/73
f 119/1/74 150/1/74 118/1/74
f 106/1/75 137/1/75 105/1/75
f 120/1/76 151/1/76 119/1/76
f 107/1/10 138/1/10 106/1/10
f 121/1/11 152/1/11 120/1/11
f 108/1/77 139/1/77 107/1/77
f 122/1/13 153/1/13 121/1/13
f 109/1/78 140/1/78 108/1/78
f 123/1/15 154/1/15 122/1/15
f 110/1/16 141/1/16 109/1/16
f 124/1/79 155/1/79 123/1/79
f 111/1/80 142/1/80 110/1/80
f 97/1/81 130/1/81 98/1/81
f 125/1/82 156/1/82 124/1/82
f 112/1/21 143/1/21 111/1/21
f 99/1/83 129/1/83 97/1/83
f 126/1/23 157/1/23 125/1/23
f 113/1/24 144/1/24 112/1/24
f 100/1/84 131/1/84 99/1/84
f 127/1/85 158/1/85 126/1/85
f 3/1/86 2/1/86 1/1/86
f 1/1/87 32/1/87 31/1/87
f 31/1/88 30/1/88 29/1/88
f 29/1/1 28/1/1 27/1/1
f 27/1/1 26/1/1 25/1/1
f 25/1/1 24/1/1 23/1/1
f 23/1/89 22/1/89 21/1/89
f 21/1/90 20/1/90 19/1/90
f 19/1/91 18/1/91 17/1/91
f 17/1/92 16/1/92 15/1/92
f 15/1/88 14/1/88 13/1/88
f 13/1/93 12/1/93 11/1/93
f 11/1/1 10/1/1 9/1/1
f 9/1/1 8/1/1 7/1/1
f 7/1/90 6/1/90 5/1/90
f 5/1/90 4/1/90 3/1/90
f 3/1/1 1/1/1 31/1/1
f 31/1/87 29/1/87 27/1/87
f 27/1/87 25/1/87 23/1/87
f 23/1/91 21/1/91 19/1/91
f 19/1/1 17/1/1 15/1/1
f 15/1/1 13/1/1 11/1/1
f 11/1/92 9/1/92 7/1/92
f 7/1/86 5/1/86 3/1/86
f 3/1/1 31/1/1 27/1/1
f 27/1/94 23/1/94 19/1/94
f 19/1/1 15/1/1 11/1/1
f 11/1/95 7/1/95 3/1/95
f 3/1/1 27/1/1 19/1/1
f 40/1/72 72/1/72 71/1/72
f 26/1/3 27/1/3 59/1/3
f 13/1/3 14/1/3 46/1/3
f 27/1/3 28/1/3 60/1/3
f 14/1/3 15/1/3 47/1/3
f 1/1/3 2/1/3 33/1/3
f 28/1/3 29/1/3 61/1/3
f 15/1/3 16/1/3 48/1/3
f 2/1/3 3/1/3 35/1/3
f 29/1/3 30/1/3 62/1/3
f 16/1/3 17/1/3 49/1/3
f 3/1/3 4/1/3 36/1/3
f 30/1/3 31/1/3 63/1/3
f 17/1/3 18/1/3 50/1/3
f 4/1/3 5/1/3 37/1/3
f 31/1/3 32/1/3 64/1/3
f 18/1/3 19/1/3 51/1/3
f 5/1/3 6/1/3 38/1/3
f 32/1/3 1/1/3 34/1/3
f 19/1/3 20/1/3 52/1/3
f 6/1/3 7/1/3 39/1/3
f 20/1/3 21/1/3 53/1/3
f 7/1/3 8/1/3 40/1/3
f 21/1/3 22/1/3 54/1/3
f 8/1/3 9/1/3 41/1/3
f 22/1/3 23/1/3 55/1/3
f 9/1/3 10/1/3 42/1/3
f 23/1/3 24/1/3 56/1/3
f 10/1/3 11/1/3 43/1/3
f 24/1/3 25/1/3 57/1/3
f 11/1/3 12/1/3 44/1/3
f 25/1/3 26/1/3 58/1/3
f 12/1/3 13/1/3 45/1/3
f 75/1/96 107/1/96 106/1/96
f 54/1/5 86/1/5 85/1/5
f 41/1/97 73/1/97 72/1/97
f 55/1/74 87/1/74 86/1/74
f 42/1/75 74/1/75 73/1/75
f 56/1/9 88/1/9 87/1/9
f 43/1/98 75/1/98 74/1/98
f 57/1/11 89/1/11 88/1/11
f 44/1/99 76/1/99 75/1/99
f 58/1/13 90/1/13 89/1/13
f 45/1/78 77/1/78 76/1/78
f 59/1/100 91/1/100 90/1/100
f 46/1/16 78/1/16 77/1/16
f 60/1/101 92/1/101 91/1/101
f 47/1/18 79/1/18 78/1/18
f 33/1/81 65/1/81 66/1/81
f 61/1/102 93/1/102 92/1/102
f 48/1/21 80/1/21 79/1/21
f 35/1/22 67/1/22 65/1/22
f 62/1/23 94/1/23 93/1/23
f 49/1/103 81/1/103 80/1/103
f 36/1/84 68/1/84 67/1/84
f 63/1/26 95/1/26 94/1/26
f 50/1/104 82/1/104 81/1/104
f 37/1/28 69/1/28 68/1/28
f 64/1/29 96/1/29 95/1/29
f 51/1/30 83/1/30 82/1/30
f 38/1/31 70/1/31 69/1/31
f 34/1/32 66/1/32 96/1/32
f 52/1/33 84/1/33 83/1/33
f 39/1/105 71/1/105 70/1/105
f 53/1/35 85/1/35 84/1/35
f 114/1/27 146/1/27 145/1/27
f 89/1/36 121/1/36 120/1/36
f 75/1/37 76/1/37 108/1/37
f 90/1/38 122/1/38 121/1/38
f 76/1/106 77/1/106 109/1/106
f 91/1/107 123/1/107 122/1/107
f 77/1/108 78/1/108 110/1/108
f 92/1/42 124/1/42 123/1/42
f 78/1/109 79/1/109 111/1/109
f 65/1/110 97/1/110 98/1/110
f 93/1/111 125/1/111 124/1/111
f 79/1/46 80/1/46 112/1/46
f 65/1/47 67/1/47 99/1/47
f 94/1/112 126/1/112 125/1/112
f 81/1/113 113/1/113 112/1/113
f 67/1/114 68/1/114 100/1/114
f 95/1/115 127/1/115 126/1/115
f 82/1/116 114/1/116 113/1/116
f 69/1/117 101/1/117 100/1/117
f 95/1/118 96/1/118 128/1/118
f 82/1/55 83/1/55 115/1/55
f 70/1/119 102/1/119 101/1/119
f 66/1/120 98/1/120 128/1/120
f 84/1/121 116/1/121 115/1/121
f 70/1/59 71/1/59 103/1/59
f 85/1/122 117/1/122 116/1/122
f 71/1/123 72/1/123 104/1/123
f 86/1/124 118/1/124 117/1/124
f 72/1/63 73/1/63 105/1/63
f 87/1/64 119/1/64 118/1/64
f 73/1/65 74/1/65 106/1/65
f 88/1/125 120/1/125 119/1/125
f 130/1/3 129/1/3 131/1/3
f 131/1/126 132/1/126 133/1/126
f 133/1/3 134/1/3 135/1/3
f 135/1/127 136/1/127 137/1/127
f 137/1/3 138/1/3 139/1/3
f 139/1/126 140/1/126 141/1/126
f 141/1/3 142/1/3 143/1/3
f 143/1/128 144/1/128 145/1/128
f 145/1/3 146/1/3 147/1/3
f 147/1/3 148/1/3 149/1/3
f 149/1/129 150/1/129 151/1/129
f 151/1/3 152/1/3 153/1/3
f 153/1/130 154/1/130 155/1/130
f 155/1/3 156/1/3 157/1/3
f 157/1/129 158/1/129 159/1/129
f 159/1/3 160/1/3 130/1/3
f 130/1/131 131/1/131 133/1/131
f 133/1/3 135/1/3 137/1/3
f 137/1/131 139/1/131 141/1/131
f 141/1/128 143/1/128 145/1/128
f 145/1/3 147/1/3 149/1/3
f 149/1/3 151/1/3 153/1/3
f 153/1/3 155/1/3 157/1/3
f 157/1/128 159/1/128 130/1/128
f 130/1/3 133/1/3 137/1/3
f 137/1/3 141/1/3 145/1/3
f 145/1/3 149/1/3 153/1/3
f 153/1/3 157/1/3 130/1/3
f 130/1/3 137/1/3 145/1/3
f 101/1/132 133/1/132 132/1/132
f 128/1/133 160/1/133 159/1/133
f 115/1/134 147/1/134 146/1/134
f 102/1/31 134/1/31 133/1/31
f 98/1/70 130/1/70 160/1/70
f 116/1/71 148/1/71 147/1/71
f 103/1/34 135/1/34 134/1/34
f 117/1/35 149/1/35 148/1/35
f 104/1/2 136/1/2 135/1/2
f 118/1/5 150/1/5 149/1/5
f 105/1/6 137/1/6 136/1/6
f 119/1/74 151/1/74 150/1/74
f 106/1/135 138/1/135 137/1/135
f 120/1/9 152/1/9 151/1/9
f 107/1/136 139/1/136 138/1/136
f 121/1/11 153/1/11 152/1/11
f 108/1/99 140/1/99 139/1/99
f 122/1/13 154/1/13 153/1/13
f 109/1/78 141/1/78 140/1/78
f 123/1/100 155/1/100 154/1/100
f 110/1/16 142/1/16 141/1/16
f 124/1/17 156/1/17 155/1/17
f 111/1/80 143/1/80 142/1/80
f 97/1/81 129/1/81 130/1/81
f 125/1/20 157/1/20 156/1/20
f 112/1/137 144/1/137 143/1/137
f 99/1/138 131/1/138 129/1/138
f 126/1/139 158/1/139 157/1/139
f 113/1/24 145/1/24 144/1/24
f 100/1/84 132/1/84 131/1/84
f 127/1/85 159/1/85 158/1/85
