# Blender 4.1.1
# www.blender.org
mtllib pipe_mesh.mtl
o obj_0
v 4.895801 0.000001 -19.534985
v 1.880774 0.000001 -16.951220
v 11.354282 0.000001 -16.538536
v 7.529289 0.000001 -15.355710
v 11.434651 0.000000 -12.599874
v 16.765081 0.000000 -11.203324
v 14.547721 0.000000 -8.991461
v 16.685482 -0.000000 -3.530258
v 19.691837 -0.000000 -3.914873
v -13.022870 46.771755 -18.507675
v -11.972821 46.530727 -19.618717
v 16.951134 0.000000 2.271469
v 19.740677 -0.000000 4.234597
v -4.738602 0.000001 -16.496201
v -4.234596 0.000001 -19.740679
v -18.011831 35.304131 14.088416
v -19.723385 -0.000000 -3.669498
v -21.587488 35.372879 7.710925
v -14.941089 0.000000 -8.223940
v -17.810978 0.000000 -9.231763
v -13.040946 0.000001 -15.411931
v -11.310562 0.000001 -12.828215
v -16.881210 -0.000000 -2.742452
v 9.140542 35.315704 -20.962852
v 15.138651 -0.000000 7.854338
v 15.583889 -0.000001 12.795671
v 11.084345 -0.000001 13.104252
v 9.457804 -0.000001 17.709341
v 4.384352 -0.000001 16.530624
v 3.669495 -0.000001 19.723387
v -2.271473 -0.000001 16.951132
v -2.214363 -0.000000 19.939154
v -7.282848 -0.000001 15.392934
v -7.902757 -0.000001 18.439701
v -13.106138 35.012413 17.130331
v -13.498403 -0.000001 14.890313
v -11.477188 -0.000000 12.657248
v -15.355709 -0.000000 7.529289
v -18.066790 -0.000001 8.848515
v -16.844751 0.000000 2.499125
v -19.939154 0.000000 2.214362
v 13.958974 35.020515 -16.644720
v -0.987862 35.000008 -20.073875
v -22.595215 46.552761 -4.408317
v -19.780357 35.464825 11.700459
v -7.448485 35.000008 -18.627930
v 8.805209 46.546055 -21.280388
v 7.417481 46.887177 -20.945904
v 3.276250 46.549652 -22.740316
v 20.769012 35.455292 9.839703
v 10.330928 34.999996 17.239052
v -15.549045 46.500374 -16.942238
v -3.059814 46.937897 -21.839279
v -18.310045 46.969471 -11.768223
v 17.825613 35.469944 14.585029
v -11.666130 35.469219 -19.802517
v -7.611412 35.464855 -21.684788
v 11.703406 46.992840 -17.906885
v 10.330927 35.000008 -17.239046
v 4.865882 35.000008 -19.431206
v 12.394908 35.007320 17.441538
v 22.951664 46.536350 -1.171079
v -2.341033 46.546936 -22.902901
v 1.611541 35.020264 21.730633
v -11.788817 35.040577 -18.503172
v 22.172710 46.874100 -1.024363
v 8.641992 35.468014 21.344704
v 3.276253 35.450352 22.740322
v -21.781765 46.934887 -3.444437
v -22.892239 46.651436 0.898668
v -15.312717 35.028923 -15.298196
v -21.493813 35.038349 -4.224522
v -15.325377 35.467346 17.127287
v -22.289074 35.455341 -5.601493
v -10.127640 46.972057 19.153095
v 5.513819 35.461861 -22.305006
v 16.012152 35.259731 16.026028
v -3.154540 46.820972 22.362841
v 1.222041 46.549660 22.942583
v -3.352311 46.544891 22.736265
v 1.171082 35.463657 -22.951664
v 2.066129 35.037567 -21.673481
v -1.271171 35.428913 22.928257
v 17.084415 46.549927 15.360533
v 19.663391 35.000000 -3.909366
v 16.813517 47.000000 3.341338
v 13.284622 47.000000 10.903467
v 17.709343 35.000000 -9.457800
v 14.719884 35.000000 -13.571968
v 5.769769 47.000004 -16.118601
v 16.646606 47.000000 -3.921384
v -0.838507 47.000008 -17.065847
v -15.360537 35.450081 -17.084410
v 12.800523 46.545967 19.145288
v 15.149126 46.920773 15.866543
v 21.281847 35.455956 -8.799618
v -8.866601 46.540730 21.242910
v 5.187002 46.992363 20.902931
v 21.545013 35.035927 -2.428695
v 22.740318 35.450356 -3.276245
v -5.889694 35.353428 22.149282
v -18.460737 46.554279 -13.664933
v -17.659658 46.971981 12.614732
v -16.012222 46.740273 16.025930
v -22.958645 35.463932 -1.026687
v 21.912645 35.143494 4.504485
v -12.205914 47.000000 11.911782
v -15.559121 47.000000 7.099284
v -21.106552 35.018616 4.808743
v 22.942579 35.450336 1.222042
v 16.961382 46.549988 -15.496231
v 13.828182 46.651581 -18.265600
v 7.307957 47.000000 15.444113
v -12.536786 35.000000 -15.661495
v 18.868126 46.728367 -12.862906
v -16.085905 35.000000 -11.935998
v -19.034069 35.000000 -6.514028
v -20.073875 35.000000 0.987855
v -17.162191 47.000000 -0.253704
v -13.044024 47.000000 -10.987337
v -7.866046 47.000000 -15.254511
v 10.987337 47.000000 -13.044024
v -13.544096 46.530811 18.568687
v 15.444612 35.454788 -17.017843
v -15.673259 47.000000 -6.724021
v 16.172335 35.000000 11.999796
v 19.857122 35.000000 3.648822
v 10.147323 46.789829 20.158243
v -0.247565 34.999996 20.060030
v 4.865878 34.999996 19.431211
v -17.825623 46.530056 14.585017
v -2.742457 46.999996 16.881210
v 2.499135 46.999996 16.844751
v 22.589411 46.544025 4.480793
v 13.691712 35.532932 18.492611
v -18.858727 35.000000 6.753231
v -11.754198 35.461742 19.742273
v 20.129459 46.977085 8.346039
v -16.139818 35.000000 11.975811
v -10.161578 35.340141 20.549065
v -11.935989 35.000000 16.085915
v -8.223938 47.000004 14.941092
v -18.640133 35.354286 -13.354532
v -6.772058 34.999996 18.923265
v -22.289074 46.544662 5.601496
v -20.741642 46.969280 6.306452
v 14.299055 47.000000 -9.295056
v 18.380716 35.021450 11.424800
v 6.621724 46.540386 22.046555
v -20.730267 46.549438 9.904981
v 20.298794 46.555798 10.840055
v 20.794523 46.549500 -9.769372
v 11.617279 35.245285 19.413046
v -7.825890 46.549522 -21.601255
v -22.718561 35.450363 3.424285
v -20.782530 46.544746 -9.811049
v 21.063677 46.964630 -6.026646
v -10.748504 46.995800 -18.408367
v -5.908298 35.114967 -21.399862
v 18.436241 35.458790 -13.708938
v -3.276242 35.450359 -22.740318
v 19.420269 35.044701 -10.077212
v 22.305008 35.461857 5.513819
v 22.305008 46.538147 -5.513816
v 11.906550 35.463200 -19.650728
v -20.801708 35.461792 -9.757035
vn -0.1615 -0.6613 -0.7326
vn 0.1701 -0.6666 -0.7257
vn -0.0689 -0.7459 0.6625
vn 0.4214 -0.6728 -0.6081
vn -0.2872 -0.7460 0.6009
vn -0.4558 -0.7354 0.5014
vn 0.6209 -0.6663 -0.4130
vn -0.5691 -0.7469 0.3439
vn -0.6522 -0.7454 0.1380
vn 0.7295 -0.6689 -0.1425
vn -0.6567 -0.7491 -0.0876
vn 0.7321 -0.6607 0.1656
vn 0.1854 -0.7574 0.6261
vn -0.7321 -0.6755 0.0876
vn -0.7232 -0.6775 -0.1339
vn 0.6561 -0.7465 0.1108
vn -0.6496 -0.6750 -0.3499
vn -0.4745 -0.6628 -0.5793
vn 0.5849 -0.7443 0.3224
vn 0.4286 -0.7518 0.5011
vn -0.5895 -0.7458 -0.3102
vn -0.4170 -0.7573 -0.5025
vn 0.5855 -0.6625 0.4672
vn 0.3581 -0.6722 0.6480
vn -0.1732 -0.7540 -0.6336
vn 0.1365 -0.6766 0.7236
vn 0.0793 -0.7494 -0.6574
vn -0.0813 -0.6772 0.7313
vn -0.2948 -0.6759 0.6755
vn 0.2866 -0.7388 -0.6100
vn -0.5011 -0.6716 0.5458
vn 0.4535 -0.7470 -0.4862
vn 0.5915 -0.7490 -0.2985
vn -0.6650 -0.6703 0.3294
vn 0.6664 -0.7388 -0.1000
vn -0.1015 -0.9859 0.1332
vn -0.5884 -0.6604 0.4666
vn -0.1628 -0.9861 0.0337
vn -0.0404 -0.7294 -0.6829
vn -0.7381 -0.6170 0.2729
vn 0.3324 0.5459 -0.7691
vn 0.1106 0.5922 -0.7981
vn 0.0722 0.9670 -0.2442
vn -0.5754 0.5479 -0.6071
vn -0.2620 0.9000 -0.3485
vn -0.4291 0.5188 -0.7394
vn -0.0357 0.9757 -0.2161
vn 0.1551 -0.9833 0.0950
vn 0.7374 -0.5787 0.3483
vn 0.6486 -0.5555 0.5203
vn -0.4183 -0.5472 -0.7250
vn -0.2867 -0.5518 -0.7832
vn -0.0653 -0.9663 -0.2490
vn 0.3461 -0.7346 -0.5836
vn 0.1690 -0.7264 -0.6662
vn -0.7224 -0.5535 0.4144
vn 0.2467 0.9691 -0.0050
vn 0.8428 0.5369 -0.0382
vn 0.8113 0.5505 -0.1968
vn -0.1171 -0.9762 -0.1825
vn 0.2961 -0.5889 0.7520
vn 0.1312 -0.5744 0.8080
vn 0.0144 -0.9814 0.1913
vn 0.0673 0.9926 -0.1011
vn -0.0770 0.5486 -0.8326
vn 0.0356 -0.5686 -0.8219
vn 0.0537 0.5857 0.8087
vn -0.0463 0.9370 0.3462
vn -0.1431 0.4554 0.8787
vn 0.3381 -0.8713 0.3557
vn 0.0661 -0.9936 0.0911
vn 0.1971 -0.5737 -0.7950
vn 0.7148 0.5818 0.3879
vn 0.6124 0.5770 0.5404
vn 0.6671 -0.7345 -0.1242
vn 0.6755 -0.7251 0.1339
vn -0.5014 0.7651 -0.4041
vn -0.6329 0.7628 -0.1326
vn 0.6051 -0.7308 -0.3159
vn 0.0320 0.9870 0.1573
vn -0.0861 0.9840 0.1557
vn -0.6399 0.7552 0.1418
vn 0.0359 0.7559 0.6537
vn -0.2184 0.7527 0.6211
vn 0.5007 -0.7284 -0.4677
vn -0.5546 -0.5690 -0.6072
vn -0.1188 -0.9862 -0.1155
vn -0.3121 0.5740 0.7570
vn 0.7604 -0.5729 -0.3059
vn 0.1780 -0.9839 -0.0161
vn 0.1857 -0.9774 -0.1012
vn 0.8057 -0.5788 -0.1257
vn -0.1995 -0.6432 0.7392
vn -0.0535 -0.5859 0.8086
vn 0.8060 -0.5911 0.0291
vn 0.2880 -0.9562 0.0534
vn 0.6005 0.7551 -0.2632
vn 0.4815 0.7454 -0.4611
vn 0.2951 -0.6527 -0.6978
vn 0.0201 -0.9817 -0.1892
vn 0.1163 -0.9831 -0.1417
vn -0.2970 0.7493 -0.5920
vn 0.4673 0.5603 0.6839
vn -0.2495 -0.7251 -0.6419
vn -0.4215 -0.7316 -0.5358
vn -0.5575 -0.7255 -0.4035
vn -0.6422 -0.7358 -0.2149
vn -0.6738 -0.7385 0.0234
vn 0.5017 0.7461 0.4377
vn -0.4810 0.5719 0.6646
vn -0.3098 -0.6454 0.6982
vn -0.8091 -0.5871 -0.0254
vn -0.8005 -0.5606 -0.2118
vn -0.2065 -0.9777 -0.0374
vn 0.1416 0.9783 0.1512
vn -0.8164 0.5513 -0.1718
vn 0.2966 0.7574 0.5817
vn 0.3512 -0.7439 0.5686
vn 0.5347 -0.7511 0.3873
vn 0.1878 0.9795 0.0725
vn -0.7833 0.6207 0.0340
vn 0.2027 0.8845 0.4202
vn -0.0175 -0.7349 0.6779
vn -0.1498 0.9838 0.0986
vn -0.3309 0.8743 0.3550
vn 0.1725 -0.7288 0.6627
vn 0.1090 0.7495 -0.6529
vn -0.0968 0.7391 -0.6666
vn -0.6511 0.5526 0.5204
vn 0.7933 0.5868 0.1621
vn -0.6418 -0.7315 0.2301
vn -0.5563 -0.7229 0.4098
vn 0.1960 0.9788 -0.0600
vn 0.6204 0.6648 -0.4161
vn 0.4713 0.6201 -0.6272
vn -0.1558 0.9829 -0.0977
vn -0.0490 0.9933 -0.1043
vn -0.5480 -0.5698 0.6123
vn -0.2052 0.9782 -0.0323
vn -0.1633 0.9852 0.0522
vn -0.4037 -0.7343 0.5456
vn 0.3169 0.7449 -0.5871
vn -0.2301 -0.7142 0.6610
vn -0.4549 -0.5372 0.7102
vn 0.6475 0.7621 0.0028
vn -0.4248 0.7446 0.5149
vn -0.5603 0.7475 0.3568
vn -0.1100 -0.5785 -0.8083
vn -0.7974 0.5709 0.1956
vn 0.6148 0.7469 0.2534
vn 0.6125 0.5512 -0.5666
vn 0.2354 0.5688 0.7881
vn 0.6546 -0.5827 -0.4817
vn 0.5562 -0.5700 -0.6047
vn 0.5272 -0.4848 0.6978
vn -0.6520 0.5754 -0.4938
vn -0.8039 -0.5842 0.1115
vn -0.2733 0.5922 -0.7580
vn 0.2399 -0.8719 0.4268
vn 0.7493 0.5579 -0.3568
vn 0.8248 -0.5200 0.2222
vn -0.7392 0.5825 -0.3380
vn -0.7297 0.5861 0.3522
vn -0.6345 -0.6277 -0.4510
vn 0.4352 -0.5639 -0.7018
vn -0.7287 -0.5928 -0.3431
s 1
usemtl Material.002
f 15//1 1//2 2//3
f 3//4 4//5 1//2
f 2//3 1//2 4//5
f 5//6 4//5 3//4
f 3//4 6//7 5//6
f 7//8 5//6 6//7
f 8//9 7//8 6//7
f 6//7 9//10 8//9
f 12//11 8//9 9//10
f 12//11 9//10 13//12
f 2//3 14//13 15//1
f 41//14 17//15 23//16
f 20//17 21//18 19//19
f 22//20 19//19 21//18
f 14//13 22//20 21//18
f 21//18 15//1 14//13
f 17//15 20//17 23//16
f 19//19 23//16 20//17
f 25//21 12//11 13//12
f 27//22 25//21 26//23
f 26//23 28//24 27//22
f 26//23 25//21 13//12
f 29//25 27//22 28//24
f 28//24 30//26 29//25
f 31//27 29//25 30//26
f 31//27 30//26 32//28
f 31//27 34//29 33//30
f 33//30 36//31 37//32
f 38//33 37//32 36//31
f 36//31 39//34 38//33
f 40//35 38//33 39//34
f 39//34 41//14 40//35
f 23//16 40//35 41//14
f 35//36 16//37 109//38
f 34//29 31//27 32//28
f 36//31 33//30 34//29
f 15//1 43//39 1//2
f 16//37 18//40 109//38
f 47//41 49//42 48//43
f 52//44 10//45 11//46
f 53//47 48//43 49//42
f 148//48 50//49 55//50
f 56//51 57//52 159//53
f 3//4 1//2 59//54
f 1//2 60//55 59//54
f 1//2 43//39 60//55
f 45//56 18//40 16//37
f 66//57 62//58 164//59
f 159//53 65//60 56//51
f 67//61 68//62 64//63
f 58//64 48//43 53//47
f 49//42 63//65 53//47
f 81//66 63//65 49//42
f 79//67 78//68 80//69
f 55//50 77//70 148//48
f 77//70 61//71 148//48
f 49//42 47//41 76//72
f 55//50 151//73 84//74
f 9//10 85//75 127//76
f 25//21 87//77 86//78
f 88//79 85//75 9//10
f 98//80 75//81 78//68
f 91//82 8//9 12//11
f 92//83 2//3 90//84
f 127//76 13//12 9//10
f 6//7 88//79 9//10
f 89//85 88//79 6//7
f 89//85 6//7 3//4
f 89//85 3//4 59//54
f 93//86 65//60 71//87
f 56//51 65//60 93//86
f 52//44 11//46 93//86
f 80//69 78//68 97//88
f 96//89 99//90 162//91
f 96//89 100//92 99//90
f 93//86 11//46 56//51
f 101//93 64//63 83//94
f 64//63 68//62 83//94
f 83//94 68//62 79//67
f 79//67 80//69 83//94
f 110//95 100//92 62//58
f 99//90 100//92 106//96
f 38//33 108//97 107//98
f 83//94 80//69 101//93
f 100//92 110//95 106//96
f 76//72 24//99 82//100
f 86//78 91//82 12//11
f 82//100 24//99 42//101
f 80//69 97//88 101//93
f 27//22 29//25 113//102
f 84//74 94//103 55//50
f 15//1 46//104 43//39
f 46//104 21//18 114//105
f 114//105 21//18 116//106
f 20//17 117//107 116//106
f 20//17 17//15 117//107
f 118//108 117//107 17//15
f 120//109 19//19 22//20
f 15//1 21//18 46//104
f 116//106 21//18 20//17
f 17//15 41//14 118//108
f 76//72 81//66 49//42
f 76//72 82//100 81//66
f 97//88 75//81 123//110
f 140//111 101//93 97//88
f 105//112 74//113 72//114
f 78//68 75//81 97//88
f 94//103 84//74 95//115
f 44//116 74//113 105//112
f 121//117 22//20 14//13
f 51//118 26//23 126//119
f 95//115 138//120 98//80
f 70//121 44//116 105//112
f 127//76 126//119 13//12
f 86//78 12//11 25//21
f 94//103 95//115 128//122
f 25//21 27//22 87//77
f 87//77 27//22 113//102
f 32//28 30//26 129//123
f 75//81 103//124 104//125
f 129//123 30//26 130//126
f 28//24 51//118 130//126
f 132//127 133//128 31//27
f 123//110 104//125 131//129
f 26//23 13//12 126//119
f 29//25 133//128 113//102
f 62//58 66//57 134//130
f 28//24 130//126 30//26
f 26//23 51//118 28//24
f 31//27 133//128 29//25
f 118//108 41//14 136//131
f 39//34 136//131 41//14
f 139//132 136//131 39//34
f 123//110 75//81 104//125
f 138//120 66//57 157//133
f 58//64 115//134 112//135
f 128//122 95//115 98//80
f 54//136 158//137 10//45
f 101//93 140//111 35//36
f 131//129 16//37 73//138
f 101//93 35//36 64//63
f 22//20 121//117 120//109
f 69//139 70//121 146//140
f 139//132 36//31 141//141
f 33//30 142//142 132//127
f 37//32 142//142 33//30
f 107//98 37//32 38//33
f 34//29 144//143 141//141
f 32//28 144//143 34//29
f 144//143 32//28 129//123
f 139//132 39//34 36//31
f 132//127 31//27 33//30
f 107//98 142//142 37//32
f 140//111 97//88 137//144
f 119//145 40//35 23//16
f 34//29 141//141 36//31
f 108//97 38//33 40//35
f 59//54 60//55 42//101
f 82//100 42//101 60//55
f 5//6 122//146 4//5
f 60//55 43//39 82//100
f 147//147 122//146 7//8
f 5//6 7//8 122//146
f 2//3 4//5 90//84
f 122//146 90//84 4//5
f 147//147 7//8 91//82
f 91//82 7//8 8//9
f 81//66 161//148 63//65
f 88//79 42//101 162//91
f 85//75 88//79 162//91
f 127//76 85//75 99//90
f 162//91 99//90 85//75
f 145//149 146//140 70//121
f 42//101 89//85 59//54
f 35//36 73//138 16//37
f 88//79 89//85 42//101
f 82//100 43//39 65//60
f 46//104 65//60 43//39
f 123//110 131//129 73//138
f 46//104 114//105 65//60
f 140//111 73//138 35//36
f 71//87 65//60 114//105
f 114//105 116//106 71//87
f 73//138 140//111 137//144
f 116//106 117//107 71//87
f 72//114 71//87 117//107
f 19//19 120//109 125//150
f 23//16 125//150 119//145
f 19//19 125//150 23//16
f 137//144 123//110 73//138
f 97//88 123//110 137//144
f 118//108 72//114 117//107
f 148//48 127//76 99//90
f 134//130 66//57 138//120
f 126//119 127//76 148//48
f 148//48 61//71 126//119
f 51//118 126//119 61//71
f 130//126 51//118 64//63
f 64//63 51//118 61//71
f 130//126 64//63 129//123
f 112//135 115//134 111//151
f 141//141 35//36 139//132
f 136//131 109//38 118//108
f 72//114 118//108 109//38
f 115//134 58//64 157//133
f 139//132 109//38 136//131
f 35//36 109//38 139//132
f 94//103 128//122 149//152
f 144//143 129//123 64//63
f 160//153 124//154 111//151
f 64//63 35//36 144//143
f 55//50 94//103 135//155
f 141//141 144//143 35//36
f 58//64 53//47 92//83
f 92//83 90//84 58//64
f 77//70 55//50 135//155
f 138//120 151//73 134//130
f 138//120 157//133 86//78
f 91//82 86//78 157//133
f 157//133 58//64 122//146
f 102//156 10//45 52//44
f 122//146 147//147 157//133
f 102//156 54//136 10//45
f 122//146 58//64 90//84
f 91//82 157//133 147//147
f 53//47 158//137 92//83
f 121//117 92//83 158//137
f 54//136 120//109 158//137
f 120//109 54//136 125//150
f 121//117 158//137 120//109
f 62//58 134//130 110//95
f 119//145 125//150 54//136
f 54//136 69//139 119//145
f 87//77 138//120 86//78
f 119//145 108//97 40//35
f 113//102 98//80 87//77
f 70//121 155//157 145//149
f 138//120 87//77 98//80
f 133//128 98//80 113//102
f 132//127 98//80 133//128
f 108//97 103//124 107//98
f 103//124 75//81 107//98
f 142//142 107//98 75//81
f 69//139 146//140 119//145
f 119//145 146//140 108//97
f 103//124 108//97 146//140
f 75//81 98//80 132//127
f 109//38 155//157 72//114
f 155//157 105//112 72//114
f 132//127 142//142 75//81
f 154//158 53//47 63//65
f 153//159 77//70 135//155
f 157//133 152//160 115//134
f 155//157 70//121 105//112
f 96//89 115//134 152//160
f 92//83 121//117 14//13
f 110//95 134//130 163//161
f 110//95 163//161 106//96
f 159//53 161//148 82//100
f 161//148 81//66 82//100
f 111//151 115//134 160//153
f 82//100 65//60 159//53
f 148//48 99//90 106//96
f 2//3 92//83 14//13
f 124//154 160//153 42//101
f 77//70 153//159 61//71
f 160//153 162//91 42//101
f 159//53 57//52 161//148
f 153//159 135//155 67//61
f 145//149 155//157 18//40
f 67//61 135//155 94//103
f 160//153 96//89 162//91
f 154//158 63//65 57//52
f 161//148 57//52 63//65
f 160//153 115//134 96//89
f 50//49 106//96 163//161
f 18//40 155//157 109//38
f 156//162 54//136 102//156
f 10//45 53//47 154//158
f 18//40 150//163 145//149
f 11//46 154//158 56//51
f 164//59 152//160 157//133
f 11//46 10//45 154//158
f 10//45 158//137 53//47
f 164//59 157//133 66//57
f 154//158 57//52 56//51
f 47//41 48//43 112//135
f 62//58 100//92 164//59
f 100//92 96//89 164//59
f 96//89 152//160 164//59
f 48//43 58//64 112//135
f 150//163 18//40 45//56
f 93//86 143//164 52//44
f 93//86 71//87 143//164
f 146//140 145//149 150//163
f 103//124 146//140 150//163
f 102//156 52//44 143//164
f 153//159 67//61 64//63
f 67//61 94//103 149//152
f 55//50 50//49 151//73
f 84//74 151//73 138//120
f 103//124 150//163 131//129
f 131//129 104//125 103//124
f 165//165 112//135 124//154
f 138//120 95//115 84//74
f 131//129 45//56 16//37
f 131//129 150//163 45//56
f 166//166 156//162 143//164
f 50//49 148//48 106//96
f 151//73 50//49 134//130
f 163//161 134//130 50//49
f 102//156 143//164 156//162
f 149//152 128//122 98//80
f 112//135 111//151 124//154
f 67//61 149//152 68//62
f 143//164 71//87 72//114
f 42//101 24//99 165//165
f 165//165 124//154 42//101
f 149//152 98//80 79//67
f 98//80 78//68 79//67
f 166//166 143//164 72//114
f 74//113 166//166 72//114
f 44//116 156//162 74//113
f 166//166 74//113 156//162
f 68//62 149//152 79//67
f 61//71 153//159 64//63
f 76//72 47//41 24//99
f 112//135 165//165 47//41
f 165//165 24//99 47//41
f 54//136 156//162 69//139
f 69//139 156//162 44//116
f 70//121 69//139 44//116
