# Blender 4.1.1
# www.blender.org
mtllib untitled.mtl
o Circle
v 0.000000 0.000000 -1.000000
v -0.195090 0.000000 -0.980785
v -0.382683 0.000000 -0.923880
v -0.555570 0.000000 -0.831470
v -0.707107 0.000000 -0.707107
v -0.831470 0.000000 -0.555570
v -0.923880 0.000000 -0.382683
v -0.980785 0.000000 -0.195090
v -1.000000 0.000000 0.000000
v -0.980785 0.000000 0.195090
v -0.923880 0.000000 0.382683
v -0.831470 0.000000 0.555570
v -0.707107 0.000000 0.707107
v -0.555570 0.000000 0.831470
v -0.382683 0.000000 0.923880
v -0.195090 0.000000 0.980785
v 0.000000 0.000000 1.000000
v 0.195090 0.000000 0.980785
v 0.382683 0.000000 0.923880
v 0.555570 0.000000 0.831470
v 0.707107 0.000000 0.707107
v 0.831470 0.000000 0.555570
v 0.923880 0.000000 0.382683
v 0.980785 0.000000 0.195090
v 1.000000 0.000000 0.000000
v 0.980785 0.000000 -0.195090
v 0.923880 0.000000 -0.382683
v 0.831470 0.000000 -0.555570
v 0.707107 0.000000 -0.707107
v 0.555570 0.000000 -0.831470
v 0.382683 0.000000 -0.923880
v 0.195090 0.000000 -0.980785
v 0.000000 2.043540 -1.000000
v -0.195090 2.043540 -0.980785
v -0.382683 2.043540 -0.923880
v -0.555570 2.043540 -0.831470
v -0.707107 2.043540 -0.707107
v -0.831470 2.043540 -0.555570
v -0.923880 2.043540 -0.382683
v -0.980785 2.043540 -0.195090
v -1.000000 2.043540 0.000000
v -0.980785 2.043540 0.195090
v -0.923880 2.043540 0.382683
v -0.831470 2.043540 0.555570
v -0.707107 2.043540 0.707107
v -0.555570 2.043540 0.831470
v -0.382683 2.043540 0.923880
v -0.195090 2.043540 0.980785
v 0.000000 2.043540 1.000000
v 0.195090 2.043540 0.980785
v 0.382683 2.043540 0.923880
v 0.555570 2.043540 0.831470
v 0.707107 2.043540 0.707107
v 0.831470 2.043540 0.555570
v 0.923880 2.043540 0.382683
v 0.980785 2.043540 0.195090
v 1.000000 2.043540 0.000000
v 0.980785 2.043540 -0.195090
v 0.923880 2.043540 -0.382683
v 0.831470 2.043540 -0.555570
v 0.707107 2.043540 -0.707107
v 0.555570 2.043540 -0.831470
v 0.382683 2.043540 -0.923880
v 0.195090 2.043540 -0.980785
v 0.000000 2.092800 -1.494323
v -0.291528 2.092800 -1.465610
v -0.571853 2.092800 -1.380574
v -0.830201 2.092800 -1.242484
v -1.056646 2.092800 -1.056646
v -1.242484 2.092800 -0.830201
v -1.380574 2.092800 -0.571853
v -1.465610 2.092800 -0.291528
v -1.494323 2.092800 0.000000
v -1.465610 2.092800 0.291528
v -1.380574 2.092800 0.571853
v -1.242484 2.092800 0.830201
v -1.056646 2.092800 1.056646
v -0.830201 2.092800 1.242484
v -0.571853 2.092800 1.380574
v -0.291528 2.092800 1.465610
v 0.000000 2.092800 1.494323
v 0.291528 2.092800 1.465610
v 0.571853 2.092800 1.380574
v 0.830201 2.092800 1.242484
v 1.056646 2.092800 1.056646
v 1.242484 2.092800 0.830201
v 1.380574 2.092800 0.571853
v 1.465610 2.092800 0.291528
v 1.494323 2.092800 0.000000
v 1.465610 2.092800 -0.291528
v 1.380574 2.092800 -0.571853
v 1.242484 2.092800 -0.830201
v 1.056646 2.092800 -1.056646
v 0.830201 2.092800 -1.242484
v 0.571853 2.092800 -1.380574
v 0.291528 2.092800 -1.465610
v -0.000000 2.691493 -1.494323
v -0.291528 2.691493 -1.465610
v -0.571853 2.691493 -1.380574
v -0.830201 2.691493 -1.242484
v -1.056646 2.691493 -1.056646
v -1.242484 2.691493 -0.830201
v -1.380574 2.691493 -0.571853
v -1.465610 2.691493 -0.291528
v -1.494323 2.691493 0.000000
v -1.465610 2.691493 0.291528
v -1.380574 2.691493 0.571853
v -1.242484 2.691493 0.830201
v -1.056646 2.691493 1.056646
v -0.830201 2.691493 1.242484
v -0.571853 2.691493 1.380574
v -0.291528 2.691493 1.465610
v -0.000000 2.691493 1.494323
v 0.291528 2.691493 1.465610
v 0.571853 2.691493 1.380574
v 0.830201 2.691493 1.242484
v 1.056646 2.691493 1.056646
v 1.242484 2.691493 0.830201
v 1.380574 2.691493 0.571853
v 1.465610 2.691493 0.291528
v 1.494323 2.691493 0.000000
v 1.465610 2.691493 -0.291528
v 1.380574 2.691493 -0.571853
v 1.242484 2.691493 -0.830201
v 1.056646 2.691493 -1.056646
v 0.830201 2.691493 -1.242484
v 0.571853 2.691493 -1.380574
v 0.291528 2.691493 -1.465610
vn -0.0000 -1.0000 -0.0000
vn -0.0879 -0.9950 -0.0470
vn -0.8819 -0.0000 0.4714
vn 0.9952 -0.0000 -0.0980
vn -0.7730 -0.0000 0.6344
vn 0.9569 -0.0000 -0.2903
vn -0.6344 -0.0000 0.7730
vn 0.8819 -0.0000 -0.4714
vn -0.4714 -0.0000 0.8819
vn -0.0980 -0.0000 -0.9952
vn 0.7730 -0.0000 -0.6344
vn -0.2903 -0.0000 0.9569
vn -0.2903 -0.0000 -0.9569
vn 0.6344 -0.0000 -0.7730
vn -0.0980 -0.0000 0.9952
vn -0.4714 -0.0000 -0.8819
vn 0.4714 -0.0000 -0.8819
vn 0.0980 -0.0000 0.9952
vn -0.6344 -0.0000 -0.7730
vn 0.2903 -0.0000 -0.9569
vn 0.2903 -0.0000 0.9569
vn -0.7730 -0.0000 -0.6344
vn 0.0980 -0.0000 -0.9952
vn 0.4714 -0.0000 0.8819
vn -0.8819 -0.0000 -0.4714
vn 0.6344 -0.0000 0.7730
vn -0.9569 -0.0000 -0.2903
vn 0.7730 -0.0000 0.6344
vn -0.9952 -0.0000 -0.0980
vn 0.8819 -0.0000 0.4714
vn -0.9952 -0.0000 0.0980
vn 0.9569 -0.0000 0.2903
vn -0.9569 -0.0000 0.2903
vn 0.9952 -0.0000 0.0980
vn 0.0632 -0.9950 0.0770
vn -0.0953 -0.9950 -0.0289
vn 0.0770 -0.9950 0.0632
vn -0.0992 -0.9950 -0.0098
vn 0.0879 -0.9950 0.0470
vn -0.0992 -0.9950 0.0098
vn 0.0953 -0.9950 0.0289
vn -0.0953 -0.9950 0.0289
vn 0.0992 -0.9950 0.0098
vn -0.0879 -0.9950 0.0470
vn 0.0992 -0.9950 -0.0098
vn -0.0770 -0.9950 0.0632
vn 0.0953 -0.9950 -0.0289
vn -0.0632 -0.9950 0.0770
vn 0.0879 -0.9950 -0.0470
vn -0.0470 -0.9950 0.0879
vn -0.0098 -0.9950 -0.0992
vn 0.0770 -0.9950 -0.0632
vn -0.0289 -0.9950 0.0953
vn -0.0289 -0.9950 -0.0953
vn 0.0632 -0.9950 -0.0770
vn -0.0098 -0.9950 0.0992
vn -0.0470 -0.9950 -0.0879
vn 0.0470 -0.9950 -0.0879
vn 0.0098 -0.9950 0.0992
vn -0.0632 -0.9950 -0.0770
vn 0.0289 -0.9950 -0.0953
vn 0.0289 -0.9950 0.0953
vn -0.0770 -0.9950 -0.0632
vn 0.0098 -0.9950 -0.0992
vn 0.0470 -0.9950 0.0879
vn -0.0000 1.0000 -0.0000
vt 0.000000 0.000000
s 0
usemtl Material.001
f 2/1/1 1/1/1 32/1/1 31/1/1 30/1/1 29/1/1 28/1/1 27/1/1 26/1/1 25/1/1 24/1/1 23/1/1 22/1/1 21/1/1 20/1/1 19/1/1 18/1/1 17/1/1 16/1/1 15/1/1 14/1/1 13/1/1 12/1/1 11/1/1 10/1/1 9/1/1 8/1/1 7/1/1 6/1/1 5/1/1 4/1/1 3/1/1
f 38/1/2 39/1/2 71/1/2 70/1/2
f 11/1/3 12/1/3 44/1/3 43/1/3
f 25/1/4 26/1/4 58/1/4 57/1/4
f 12/1/5 13/1/5 45/1/5 44/1/5
f 26/1/6 27/1/6 59/1/6 58/1/6
f 13/1/7 14/1/7 46/1/7 45/1/7
f 27/1/8 28/1/8 60/1/8 59/1/8
f 14/1/9 15/1/9 47/1/9 46/1/9
f 1/1/10 2/1/10 34/1/10 33/1/10
f 28/1/11 29/1/11 61/1/11 60/1/11
f 15/1/12 16/1/12 48/1/12 47/1/12
f 2/1/13 3/1/13 35/1/13 34/1/13
f 29/1/14 30/1/14 62/1/14 61/1/14
f 16/1/15 17/1/15 49/1/15 48/1/15
f 3/1/16 4/1/16 36/1/16 35/1/16
f 30/1/17 31/1/17 63/1/17 62/1/17
f 17/1/18 18/1/18 50/1/18 49/1/18
f 4/1/19 5/1/19 37/1/19 36/1/19
f 31/1/20 32/1/20 64/1/20 63/1/20
f 18/1/21 19/1/21 51/1/21 50/1/21
f 5/1/22 6/1/22 38/1/22 37/1/22
f 32/1/23 1/1/23 33/1/23 64/1/23
f 19/1/24 20/1/24 52/1/24 51/1/24
f 6/1/25 7/1/25 39/1/25 38/1/25
f 20/1/26 21/1/26 53/1/26 52/1/26
f 7/1/27 8/1/27 40/1/27 39/1/27
f 21/1/28 22/1/28 54/1/28 53/1/28
f 8/1/29 9/1/29 41/1/29 40/1/29
f 22/1/30 23/1/30 55/1/30 54/1/30
f 9/1/31 10/1/31 42/1/31 41/1/31
f 23/1/32 24/1/32 56/1/32 55/1/32
f 10/1/33 11/1/33 43/1/33 42/1/33
f 24/1/34 25/1/34 57/1/34 56/1/34
f 73/1/31 74/1/31 106/1/31 105/1/31
f 52/1/35 53/1/35 85/1/35 84/1/35
f 39/1/36 40/1/36 72/1/36 71/1/36
f 53/1/37 54/1/37 86/1/37 85/1/37
f 40/1/38 41/1/38 73/1/38 72/1/38
f 54/1/39 55/1/39 87/1/39 86/1/39
f 41/1/40 42/1/40 74/1/40 73/1/40
f 55/1/41 56/1/41 88/1/41 87/1/41
f 42/1/42 43/1/42 75/1/42 74/1/42
f 56/1/43 57/1/43 89/1/43 88/1/43
f 43/1/44 44/1/44 76/1/44 75/1/44
f 57/1/45 58/1/45 90/1/45 89/1/45
f 44/1/46 45/1/46 77/1/46 76/1/46
f 58/1/47 59/1/47 91/1/47 90/1/47
f 45/1/48 46/1/48 78/1/48 77/1/48
f 59/1/49 60/1/49 92/1/49 91/1/49
f 46/1/50 47/1/50 79/1/50 78/1/50
f 33/1/51 34/1/51 66/1/51 65/1/51
f 60/1/52 61/1/52 93/1/52 92/1/52
f 47/1/53 48/1/53 80/1/53 79/1/53
f 34/1/54 35/1/54 67/1/54 66/1/54
f 61/1/55 62/1/55 94/1/55 93/1/55
f 48/1/56 49/1/56 81/1/56 80/1/56
f 35/1/57 36/1/57 68/1/57 67/1/57
f 62/1/58 63/1/58 95/1/58 94/1/58
f 49/1/59 50/1/59 82/1/59 81/1/59
f 36/1/60 37/1/60 69/1/60 68/1/60
f 63/1/61 64/1/61 96/1/61 95/1/61
f 50/1/62 51/1/62 83/1/62 82/1/62
f 37/1/63 38/1/63 70/1/63 69/1/63
f 64/1/64 33/1/64 65/1/64 96/1/64
f 51/1/65 52/1/65 84/1/65 83/1/65
f 98/1/66 99/1/66 100/1/66 101/1/66 102/1/66 103/1/66 104/1/66 105/1/66 106/1/66 107/1/66 108/1/66 109/1/66 110/1/66 111/1/66 112/1/66 113/1/66 114/1/66 115/1/66 116/1/66 117/1/66 118/1/66 119/1/66 120/1/66 121/1/66 122/1/66 123/1/66 124/1/66 125/1/66 126/1/66 127/1/66 128/1/66 97/1/66
f 87/1/32 88/1/32 120/1/32 119/1/32
f 74/1/33 75/1/33 107/1/33 106/1/33
f 88/1/34 89/1/34 121/1/34 120/1/34
f 75/1/3 76/1/3 108/1/3 107/1/3
f 89/1/4 90/1/4 122/1/4 121/1/4
f 76/1/5 77/1/5 109/1/5 108/1/5
f 90/1/6 91/1/6 123/1/6 122/1/6
f 77/1/7 78/1/7 110/1/7 109/1/7
f 91/1/8 92/1/8 124/1/8 123/1/8
f 78/1/9 79/1/9 111/1/9 110/1/9
f 65/1/10 66/1/10 98/1/10 97/1/10
f 92/1/11 93/1/11 125/1/11 124/1/11
f 79/1/12 80/1/12 112/1/12 111/1/12
f 66/1/13 67/1/13 99/1/13 98/1/13
f 93/1/14 94/1/14 126/1/14 125/1/14
f 80/1/15 81/1/15 113/1/15 112/1/15
f 67/1/16 68/1/16 100/1/16 99/1/16
f 94/1/17 95/1/17 127/1/17 126/1/17
f 81/1/18 82/1/18 114/1/18 113/1/18
f 68/1/19 69/1/19 101/1/19 100/1/19
f 95/1/20 96/1/20 128/1/20 127/1/20
f 82/1/21 83/1/21 115/1/21 114/1/21
f 69/1/22 70/1/22 102/1/22 101/1/22
f 96/1/23 65/1/23 97/1/23 128/1/23
f 83/1/24 84/1/24 116/1/24 115/1/24
f 70/1/25 71/1/25 103/1/25 102/1/25
f 84/1/26 85/1/26 117/1/26 116/1/26
f 71/1/27 72/1/27 104/1/27 103/1/27
f 85/1/28 86/1/28 118/1/28 117/1/28
f 72/1/29 73/1/29 105/1/29 104/1/29
f 86/1/30 87/1/30 119/1/30 118/1/30
