# Blender 4.1.1
# www.blender.org
mtllib pipe_low.mtl
o obj_0
v 7.810962 0.000001 -18.865252
v -2.282307 0.000001 -17.277775
v 13.968903 0.000001 -11.465271
v 18.668667 0.000000 -8.469314
v 18.743254 -0.000000 8.863511
v -9.185421 0.000001 -18.645170
v -16.802498 0.000000 -6.957747
v -19.194874 0.000000 -6.536762
v 6.715020 35.240520 -22.227234
v 15.554194 -0.000000 8.985264
v 6.838686 -0.000001 19.123487
v 1.126902 -0.000001 17.391426
v -17.624353 35.174465 14.730266
v -8.863510 -0.000001 18.743254
v -12.900501 -0.000001 12.074637
v -19.409502 -0.000000 6.216962
v -9.340733 35.000004 -18.953262
v -22.885286 46.865353 -1.570186
v 6.722035 46.547451 -22.182034
v 19.052588 35.217937 12.908260
v 13.941207 34.951313 15.054771
v -17.303766 46.824959 -15.614858
v -4.484499 46.746651 -22.587261
v 0.970120 35.168262 22.849709
v -10.801164 46.783897 20.290909
v -1.438036 46.687054 22.970016
v 20.749022 34.771801 -1.707106
v 13.363625 34.963493 -16.249454
v 17.682348 47.000000 4.734539
v 19.454781 35.441952 -12.989450
v 23.084023 35.247971 1.192655
v -8.848690 35.369488 21.349573
v -10.479190 47.000000 13.687229
v -17.258011 47.000000 3.146497
v -22.821701 35.204655 3.412217
v 15.367299 46.889599 -17.081512
v -20.846807 34.888557 -0.947665
v -12.390054 47.000000 -12.793944
v 8.092413 47.000004 -16.419115
v -20.385183 46.774986 11.183782
v 2.311969 46.999996 17.518236
v 21.153204 46.768299 9.893727
v 10.760992 35.418922 20.489922
v -14.812801 35.000000 13.846464
v -20.994213 35.405853 -9.992142
v -1.698870 34.999996 20.565088
v 10.042800 46.845394 20.747595
v 22.384039 46.807327 -5.560328
v -9.954778 35.189159 -21.092964
vn -0.3362 -0.6273 -0.7024
vn 0.2710 -0.6369 -0.7217
vn 0.0811 -0.8156 0.5729
vn -0.4309 -0.8410 0.3272
vn 0.7014 -0.6454 -0.3024
vn -0.4764 -0.8407 -0.2574
vn 0.7009 -0.6360 0.3229
vn -0.7178 -0.6473 0.2564
vn -0.7137 -0.6448 -0.2735
vn 0.5024 -0.8414 0.1989
vn 0.2575 -0.6465 0.7182
vn -0.0437 -0.8167 -0.5754
vn -0.3352 -0.6370 0.6941
vn 0.4209 -0.8274 -0.3719
vn -0.2655 -0.8031 -0.5335
vn -0.1474 0.6423 -0.7521
vn 0.5091 0.6568 -0.5563
vn 0.2173 0.6160 -0.7572
vn 0.4294 -0.6857 -0.5877
vn 0.2131 -0.6338 -0.7436
vn 0.7181 -0.6928 -0.0663
vn 0.3458 0.6507 0.6760
vn -0.3718 0.6556 0.6572
vn -0.0335 0.6442 0.7641
vn -0.4699 0.8755 -0.1125
vn 0.6717 -0.5863 -0.4529
vn 0.8024 -0.5952 0.0447
vn 0.5698 0.8177 -0.0810
vn 0.3477 0.8072 -0.4771
vn 0.0433 -0.6510 0.7578
vn -0.3028 -0.6313 0.7140
vn -0.1047 0.8442 -0.5257
vn 0.6998 0.6307 0.3355
vn 0.6355 -0.6286 0.4483
vn -0.6835 -0.7263 -0.0727
vn -0.7697 -0.6270 0.1199
vn -0.7144 -0.6086 -0.3453
vn -0.7508 0.6574 -0.0650
vn 0.3584 0.8462 0.3943
vn 0.4549 -0.7368 0.5002
vn -0.0708 -0.7454 0.6629
vn -0.4781 -0.7558 0.4474
vn -0.5850 -0.6452 0.4914
vn -0.2318 0.8755 0.4239
vn -0.3278 -0.6190 -0.7137
vn -0.6739 0.6377 0.3731
vn 0.3799 -0.6007 0.7035
vn 0.7407 0.6485 -0.1756
vn -0.5728 0.6368 -0.5161
s 1
usemtl Material.002
f 6//1 1//2 2//3
f 2//3 1//2 3//4
f 1//2 4//5 3//4
f 10//6 3//4 4//5
f 10//6 4//5 5//7
f 16//8 8//9 7//10
f 8//9 6//1 7//10
f 2//3 7//10 6//1
f 5//7 11//11 10//6
f 12//12 10//6 11//11
f 12//12 11//11 14//13
f 12//12 14//13 15//14
f 14//13 16//8 15//14
f 7//10 15//14 16//8
f 6//1 17//15 1//2
f 23//16 36//17 19//18
f 1//2 17//15 28//19
f 9//20 23//16 19//18
f 28//19 27//21 4//5
f 47//22 25//23 26//24
f 29//25 3//4 10//6
f 27//21 5//7 4//5
f 28//19 4//5 1//2
f 30//26 31//27 27//21
f 15//14 34//28 33//29
f 24//30 26//24 32//31
f 26//24 25//23 32//31
f 10//6 12//12 41//32
f 42//33 47//22 20//34
f 8//9 37//35 17//15
f 17//15 6//1 8//9
f 8//9 16//8 37//35
f 35//36 45//37 37//35
f 18//38 45//37 35//36
f 38//39 7//10 2//3
f 27//21 21//40 5//7
f 29//25 10//6 41//32
f 14//13 11//11 46//41
f 11//11 21//40 46//41
f 5//7 21//40 11//11
f 44//42 37//35 16//8
f 32//31 13//43 24//30
f 15//14 33//29 41//32
f 14//13 46//41 44//42
f 44//42 16//8 14//13
f 41//32 12//12 15//14
f 34//28 15//14 7//10
f 28//19 17//15 9//20
f 2//3 3//4 39//44
f 39//44 3//4 29//25
f 9//20 49//45 23//16
f 9//20 17//15 49//45
f 25//23 40//46 13//43
f 17//15 37//35 49//45
f 7//10 38//39 34//28
f 32//31 25//23 13//43
f 20//34 27//21 31//27
f 21//40 27//21 20//34
f 46//41 21//40 24//30
f 44//42 35//36 37//35
f 13//43 35//36 44//42
f 24//30 13//43 46//41
f 20//34 47//22 43//47
f 44//42 46//41 13//43
f 36//17 23//16 39//44
f 42//33 48//48 29//25
f 48//48 36//17 39//44
f 29//25 48//48 39//44
f 23//16 22//49 39//44
f 38//39 39//44 22//49
f 48//48 42//33 31//27
f 34//28 38//39 22//49
f 22//49 18//38 34//28
f 41//32 47//22 29//25
f 18//38 35//36 40//46
f 42//33 29//25 47//22
f 34//28 40//46 33//29
f 40//46 25//23 33//29
f 40//46 34//28 18//38
f 25//23 47//22 41//32
f 41//32 33//29 25//23
f 30//26 36//17 48//48
f 39//44 38//39 2//3
f 20//34 43//47 21//40
f 30//26 27//21 28//19
f 22//49 23//16 49//45
f 31//27 30//26 48//48
f 40//46 35//36 13//43
f 49//45 45//37 22//49
f 9//20 36//17 30//26
f 31//27 42//33 20//34
f 43//47 47//22 24//30
f 45//37 49//45 37//35
f 9//20 30//26 28//19
f 18//38 22//49 45//37
f 24//30 47//22 26//24
f 21//40 43//47 24//30
f 36//17 9//20 19//18
