# Blender 4.1.1
# www.blender.org
mtllib Plane.004.mtl
o Road.002
v 2842.400391 2516.062256 4783.541992
v 2855.705322 2516.509521 4783.538574
v 2842.400391 2516.062256 4628.318359
v 2855.705322 2516.509521 4628.315430
v 2855.705322 2516.509521 4783.538574
v 2869.011963 2516.956787 4783.541992
v 2855.705322 2516.509521 4628.315430
v 2869.011963 2516.956787 4628.318359
v 2855.705322 2516.509521 4775.537109
v 2869.011963 2516.956787 4775.540527
v 2869.011963 2516.956787 4636.843262
v 2855.705322 2516.509521 4636.840332
v 2869.011963 2596.839600 4783.541992
v 2869.011963 2596.839600 4628.318359
v 2869.011963 2596.839600 4775.540527
v 2869.011963 2596.839600 4636.843262
v 2869.011963 2620.686768 4783.541992
v 2869.011963 2620.686768 4628.318359
v 2869.011963 2620.686768 4775.540527
v 2869.011963 2620.686768 4636.843262
vn -0.0336 0.9994 -0.0000
vn -1.0000 -0.0000 -0.0000
vt -0.000227 0.000255
vt 1.000331 1.001564
vt -0.000482 0.999898
vt 0.945367 1.001473
vt 0.999448 -0.000940
vt 0.051304 0.000193
vt 0.051108 0.999984
vt 0.944546 -0.000875
s 0
usemtl Material.005
f 2/1/1 3/2/1 1/3/1
f 12/4/1 8/5/1 7/2/1
f 5/3/1 10/6/1 9/7/1
f 9/7/1 11/8/1 12/4/1
f 6/1/2 15/6/2 10/6/2
f 11/8/2 14/5/2 8/5/2
f 13/1/2 19/6/2 15/6/2
f 16/8/2 18/5/2 14/5/2
f 20/8/2 15/6/2 19/6/2
f 2/1/1 4/5/1 3/2/1
f 12/4/1 11/8/1 8/5/1
f 5/3/1 6/1/1 10/6/1
f 9/7/1 10/6/1 11/8/1
f 6/1/2 13/1/2 15/6/2
f 11/8/2 16/8/2 14/5/2
f 13/1/2 17/1/2 19/6/2
f 16/8/2 20/8/2 18/5/2
f 20/8/2 16/8/2 15/6/2
