# Blender 4.1.1
# www.blender.org
mtllib Plane.004.mtl
o Road.002
v 395.901123 412.181946 67.808502
v 397.899689 412.222290 67.808456
v 395.901123 412.181946 65.808495
v 397.899689 412.222290 65.808456
v 397.899689 412.222290 67.808456
v 399.898529 412.262634 67.808502
v 397.899689 412.222290 65.808456
v 399.898529 412.262634 65.808495
v 397.899689 412.222290 67.705360
v 399.898529 412.262634 67.705406
v 399.898529 412.262634 65.918335
v 397.899689 412.222290 65.918297
v 399.898529 419.469849 67.808502
v 399.898529 419.469849 65.808495
v 399.898529 419.469849 67.705406
v 399.898529 419.469849 65.918335
v 399.898529 421.621429 67.808502
v 399.898529 421.621429 65.808495
v 399.898529 421.621429 67.705406
v 399.898529 421.621429 65.918335
vn -0.0202 0.9998 -0.0000
vn -1.0000 -0.0000 -0.0000
vt -0.000227 0.000255
vt 1.000331 1.001564
vt -0.000482 0.999898
vt 0.945367 1.001473
vt 0.999448 -0.000940
vt 0.051304 0.000193
vt 0.051108 0.999984
vt 0.944546 -0.000875
s 0
usemtl Material.005
f 2/1/1 3/2/1 1/3/1
f 12/4/1 8/5/1 7/2/1
f 5/3/1 10/6/1 9/7/1
f 9/7/1 11/8/1 12/4/1
f 6/1/2 15/6/2 10/6/2
f 11/8/2 14/5/2 8/5/2
f 13/1/2 19/6/2 15/6/2
f 16/8/2 18/5/2 14/5/2
f 20/8/2 15/6/2 19/6/2
f 2/1/1 4/5/1 3/2/1
f 12/4/1 11/8/1 8/5/1
f 5/3/1 6/1/1 10/6/1
f 9/7/1 10/6/1 11/8/1
f 6/1/2 13/1/2 15/6/2
f 11/8/2 16/8/2 14/5/2
f 13/1/2 17/1/2 19/6/2
f 16/8/2 20/8/2 18/5/2
f 20/8/2 16/8/2 15/6/2
