# Blender 4.1.1
# www.blender.org
mtllib Circle.004.mtl
o Pipe.125
v 180.993378 3687.928955 4417.772949
v 178.381516 3687.928955 4418.030273
v 175.870010 3687.928955 4418.791992
v 173.555420 3687.928955 4420.029297
v 171.526657 3687.928955 4421.694336
v 169.861679 3687.928955 4423.723145
v 168.624496 3687.928955 4426.037598
v 167.862656 3687.928955 4428.549316
v 167.605408 3687.928955 4431.161133
v 167.862656 3687.928955 4433.772949
v 168.624496 3687.928955 4436.284180
v 169.861679 3687.928955 4438.599121
v 171.526657 3687.928955 4440.627930
v 173.555420 3687.928955 4442.292969
v 175.870010 3687.928955 4443.529785
v 178.381516 3687.928955 4444.291504
v 180.993378 3687.928955 4444.548828
v 183.605240 3687.928955 4444.291504
v 186.116730 3687.928955 4443.529785
v 188.431335 3687.928955 4442.292969
v 190.460098 3687.928955 4440.627930
v 192.125076 3687.928955 4438.599121
v 193.362244 3687.928955 4436.284180
v 194.124100 3687.928955 4433.772949
v 194.381332 3687.928955 4431.161133
v 194.124100 3687.928955 4428.549316
v 193.362244 3687.928955 4426.037598
v 192.125076 3687.928955 4423.723145
v 190.460098 3687.928955 4421.694336
v 188.431335 3687.928955 4420.029297
v 186.116730 3687.928955 4418.791992
v 183.605240 3687.928955 4418.030273
v 178.381516 3687.928955 4418.030273
v 180.993378 3687.928955 4417.772949
v 175.870010 3687.928955 4418.791992
v 173.555420 3687.928955 4420.029297
v 171.526657 3687.928955 4421.694336
v 169.861679 3687.928955 4423.723145
v 168.624496 3687.928955 4426.037598
v 167.862656 3687.928955 4428.549316
v 167.605408 3687.928955 4431.161133
v 167.862656 3687.928955 4433.772949
v 168.624496 3687.928955 4436.284180
v 169.861679 3687.928955 4438.599121
v 171.526657 3687.928955 4440.627930
v 173.555420 3687.928955 4442.292969
v 175.870010 3687.928955 4443.529785
v 178.381516 3687.928955 4444.291504
v 180.993378 3687.928955 4444.548828
v 183.605240 3687.928955 4444.291504
v 186.116730 3687.928955 4443.529785
v 188.431335 3687.928955 4442.292969
v 190.460098 3687.928955 4440.627930
v 192.125076 3687.928955 4438.599121
v 193.362244 3687.928955 4436.284180
v 194.124100 3687.928955 4433.772949
v 194.381332 3687.928955 4431.161133
v 194.124100 3687.928955 4428.549316
v 193.362244 3687.928955 4426.037598
v 192.125076 3687.928955 4423.723145
v 190.460098 3687.928955 4421.694336
v 188.431335 3687.928955 4420.029297
v 186.116730 3687.928955 4418.791992
v 183.605240 3687.928955 4418.030273
v 178.381516 3726.892822 4418.030273
v 180.993378 3726.892822 4417.772949
v 175.870010 3726.892822 4418.791992
v 173.555420 3726.892822 4420.029297
v 171.526657 3726.892822 4421.694336
v 169.861679 3726.892822 4423.723145
v 168.624496 3726.892822 4426.037598
v 167.862656 3726.892822 4428.549316
v 167.605408 3726.892822 4431.161133
v 167.862656 3726.892822 4433.772949
v 168.624496 3726.892822 4436.284180
v 169.861679 3726.892822 4438.599121
v 171.526657 3726.892822 4440.627930
v 173.555420 3726.892822 4442.292969
v 175.870010 3726.892822 4443.529785
v 178.381516 3726.892822 4444.291504
v 180.993378 3726.892822 4444.548828
v 183.605240 3726.892822 4444.291504
v 186.116730 3726.892822 4443.529785
v 188.431335 3726.892822 4442.292969
v 190.460098 3726.892822 4440.627930
v 192.125076 3726.892822 4438.599121
v 193.362244 3726.892822 4436.284180
v 194.124100 3726.892822 4433.772949
v 194.381332 3726.892822 4431.161133
v 194.124100 3726.892822 4428.549316
v 193.362244 3726.892822 4426.037598
v 192.125076 3726.892822 4423.723145
v 190.460098 3726.892822 4421.694336
v 188.431335 3726.892822 4420.029297
v 186.116730 3726.892822 4418.791992
v 183.605240 3726.892822 4418.030273
v 176.568787 3727.457031 4408.916504
v 180.993378 3727.457031 4408.480957
v 172.314255 3727.457031 4410.207520
v 168.393234 3727.457031 4412.303223
v 164.956436 3727.457031 4415.123535
v 162.135941 3727.457031 4418.560547
v 160.040131 3727.457031 4422.481934
v 158.749527 3727.457031 4426.736328
v 158.313751 3727.457031 4431.160645
v 158.749527 3727.457031 4435.584961
v 160.040131 3727.457031 4439.839844
v 162.135941 3727.457031 4443.760742
v 164.956436 3727.457031 4447.197754
v 168.393234 3727.457031 4450.018066
v 172.314255 3727.457031 4452.113770
v 176.568787 3727.457031 4453.404785
v 180.993378 3727.457031 4453.840332
v 185.417953 3727.457031 4453.404785
v 189.672501 3727.457031 4452.113770
v 193.593506 3727.457031 4450.018066
v 197.030304 3727.457031 4447.197754
v 199.850800 3727.457031 4443.760742
v 201.946625 3727.457031 4439.839844
v 203.237213 3727.457031 4435.584961
v 203.673004 3727.457031 4431.160645
v 203.237213 3727.457031 4426.736328
v 201.946625 3727.457031 4422.481934
v 199.850800 3727.457031 4418.560547
v 197.030304 3727.457031 4415.123535
v 193.593506 3727.457031 4412.303223
v 189.672501 3727.457031 4410.207520
v 185.417953 3727.457031 4408.916504
v 176.568787 3736.298828 4408.916504
v 180.993378 3736.298828 4408.480957
v 172.314255 3736.298828 4410.207520
v 168.393234 3736.298828 4412.303223
v 164.956436 3736.298828 4415.123535
v 162.135941 3736.298828 4418.560547
v 160.040131 3736.298828 4422.481934
v 158.749527 3736.298828 4426.736328
v 158.313751 3736.298828 4431.160645
v 158.749527 3736.298828 4435.584961
v 160.040131 3736.298828 4439.839844
v 162.135941 3736.298828 4443.760742
v 164.956436 3736.298828 4447.197754
v 168.393234 3736.298828 4450.018066
v 172.314255 3736.298828 4452.113770
v 176.568787 3736.298828 4453.404785
v 180.993378 3736.298828 4453.840332
v 185.417953 3736.298828 4453.404785
v 189.672501 3736.298828 4452.113770
v 193.593506 3736.298828 4450.018066
v 197.030304 3736.298828 4447.197754
v 199.850800 3736.298828 4443.760742
v 201.946625 3736.298828 4439.839844
v 203.237213 3736.298828 4435.584961
v 203.673004 3736.298828 4431.160645
v 203.237213 3736.298828 4426.736328
v 201.946625 3736.298828 4422.481934
v 199.850800 3736.298828 4418.560547
v 197.030304 3736.298828 4415.123535
v 193.593506 3736.298828 4412.303223
v 189.672501 3736.298828 4410.207520
v 185.417953 3736.298828 4408.916504
vn -0.0000 -1.0000 -0.0000
vn -0.9569 -0.0000 -0.2903
vn -0.0000 1.0000 -0.0000
vn -0.0582 -0.9981 0.0177
vn 0.7730 -0.0000 0.6344
vn -0.9952 -0.0000 -0.0980
vn 0.8820 -0.0000 0.4713
vn -0.9952 -0.0000 0.0980
vn 0.9569 -0.0000 0.2903
vn -0.9569 -0.0000 0.2903
vn 0.9952 -0.0000 0.0980
vn -0.8820 -0.0000 0.4713
vn 0.9952 -0.0000 -0.0980
vn -0.7730 -0.0000 0.6344
vn 0.9569 -0.0000 -0.2903
vn -0.6344 -0.0000 0.7730
vn 0.8819 -0.0000 -0.4714
vn -0.4713 -0.0000 0.8820
vn -0.0980 -0.0000 -0.9952
vn 0.7730 -0.0000 -0.6344
vn -0.2902 -0.0000 0.9570
vn -0.2902 -0.0000 -0.9570
vn 0.6344 -0.0000 -0.7730
vn -0.0980 -0.0000 0.9952
vn -0.4714 -0.0000 -0.8819
vn 0.4714 -0.0000 -0.8819
vn 0.0980 -0.0000 0.9952
vn -0.6344 -0.0000 -0.7730
vn 0.2902 -0.0000 -0.9570
vn 0.2902 -0.0000 0.9570
vn -0.7730 -0.0000 -0.6344
vn 0.0980 -0.0000 -0.9952
vn 0.4713 -0.0000 0.8820
vn -0.8819 -0.0000 -0.4714
vn 0.6344 -0.0000 0.7730
vn 0.0606 -0.9981 0.0060
vn -0.0537 -0.9981 0.0287
vn 0.0605 -0.9981 -0.0060
vn -0.0471 -0.9981 0.0386
vn 0.0583 -0.9981 -0.0177
vn -0.0387 -0.9981 0.0471
vn 0.0537 -0.9981 -0.0287
vn -0.0288 -0.9981 0.0537
vn -0.0061 -0.9981 -0.0606
vn 0.0471 -0.9981 -0.0386
vn -0.0176 -0.9981 0.0583
vn -0.0176 -0.9981 -0.0583
vn 0.0387 -0.9981 -0.0471
vn -0.0061 -0.9981 0.0606
vn -0.0287 -0.9981 -0.0537
vn 0.0289 -0.9981 -0.0537
vn 0.0060 -0.9981 0.0606
vn -0.0386 -0.9981 -0.0471
vn 0.0177 -0.9981 -0.0583
vn 0.0176 -0.9981 0.0583
vn -0.0471 -0.9981 -0.0386
vn 0.0061 -0.9981 -0.0606
vn 0.0286 -0.9981 0.0537
vn -0.0537 -0.9981 -0.0287
vn 0.0386 -0.9981 0.0471
vn -0.0584 -0.9981 -0.0177
vn 0.0471 -0.9981 0.0386
vn -0.0607 -0.9981 -0.0060
vn 0.0538 -0.9981 0.0287
vn -0.0606 -0.9981 0.0060
vn 0.0583 -0.9981 0.0177
vn 0.2904 -0.0000 -0.9569
vn 0.2904 -0.0000 0.9569
vn 0.4714 -0.0000 0.8819
vn 0.8819 -0.0000 0.4714
vn -0.8819 -0.0000 0.4714
vn -0.4714 -0.0000 0.8819
vn -0.2904 -0.0000 0.9569
vn -0.2904 -0.0000 -0.9569
vn -0.0015 -1.0000 -0.0000
vn 0.0007 -1.0000 -0.0000
vn 0.0015 -1.0000 -0.0000
vn -0.0007 -1.0000 -0.0000
vn 0.0002 -1.0000 -0.0000
vn -0.0002 -1.0000 -0.0000
vn -0.0583 -0.9981 0.0177
vn 0.8819 -0.0000 0.4713
vn -0.8819 -0.0000 0.4713
vn -0.0538 -0.9981 0.0287
vn 0.0607 -0.9981 -0.0060
vn 0.0584 -0.9981 -0.0177
vn -0.0386 -0.9981 0.0471
vn -0.0286 -0.9981 0.0537
vn -0.0060 -0.9981 -0.0606
vn -0.0177 -0.9981 0.0583
vn -0.0177 -0.9981 -0.0583
vn 0.0386 -0.9981 -0.0471
vn -0.0060 -0.9981 0.0606
vn -0.0289 -0.9981 -0.0537
vn 0.0287 -0.9981 -0.0537
vn 0.0061 -0.9981 0.0606
vn -0.0387 -0.9981 -0.0471
vn 0.0176 -0.9981 -0.0583
vn 0.0177 -0.9981 0.0583
vn 0.0060 -0.9981 -0.0606
vn 0.0288 -0.9981 0.0537
vn 0.0387 -0.9981 0.0471
vn -0.0583 -0.9981 -0.0177
vn -0.0605 -0.9981 -0.0060
vn 0.0537 -0.9981 0.0287
vn 0.0582 -0.9981 0.0177
vn 0.0005 1.0000 -0.0000
vn 0.0003 1.0000 -0.0000
vn -0.0001 1.0000 -0.0000
vn -0.0005 1.0000 -0.0000
vn -0.0003 1.0000 -0.0000
vn 0.0001 1.0000 -0.0000
vt 0.000000 0.000000
s 0
usemtl Material.003
f 19/1/1 11/1/1 3/1/1
f 40/1/2 71/1/2 39/1/2
f 26/1/3 59/1/3 58/1/3
f 13/1/3 46/1/3 45/1/3
f 27/1/3 60/1/3 59/1/3
f 14/1/3 47/1/3 46/1/3
f 1/1/3 33/1/3 34/1/3
f 28/1/3 61/1/3 60/1/3
f 15/1/3 48/1/3 47/1/3
f 2/1/3 35/1/3 33/1/3
f 29/1/3 62/1/3 61/1/3
f 16/1/3 49/1/3 48/1/3
f 3/1/3 36/1/3 35/1/3
f 30/1/3 63/1/3 62/1/3
f 17/1/3 50/1/3 49/1/3
f 4/1/3 37/1/3 36/1/3
f 31/1/3 64/1/3 63/1/3
f 18/1/3 51/1/3 50/1/3
f 5/1/3 38/1/3 37/1/3
f 32/1/3 34/1/3 64/1/3
f 19/1/3 52/1/3 51/1/3
f 6/1/3 39/1/3 38/1/3
f 20/1/3 53/1/3 52/1/3
f 7/1/3 40/1/3 39/1/3
f 21/1/3 54/1/3 53/1/3
f 8/1/3 41/1/3 40/1/3
f 22/1/3 55/1/3 54/1/3
f 9/1/3 42/1/3 41/1/3
f 23/1/3 56/1/3 55/1/3
f 10/1/3 43/1/3 42/1/3
f 24/1/3 57/1/3 56/1/3
f 11/1/3 44/1/3 43/1/3
f 25/1/3 58/1/3 57/1/3
f 12/1/3 45/1/3 44/1/3
f 75/1/4 106/1/4 74/1/4
f 54/1/5 85/1/5 53/1/5
f 41/1/6 72/1/6 40/1/6
f 55/1/7 86/1/7 54/1/7
f 42/1/8 73/1/8 41/1/8
f 56/1/9 87/1/9 55/1/9
f 43/1/10 74/1/10 42/1/10
f 57/1/11 88/1/11 56/1/11
f 44/1/12 75/1/12 43/1/12
f 58/1/13 89/1/13 57/1/13
f 45/1/14 76/1/14 44/1/14
f 59/1/15 90/1/15 58/1/15
f 46/1/16 77/1/16 45/1/16
f 60/1/17 91/1/17 59/1/17
f 47/1/18 78/1/18 46/1/18
f 33/1/19 66/1/19 34/1/19
f 61/1/20 92/1/20 60/1/20
f 48/1/21 79/1/21 47/1/21
f 35/1/22 65/1/22 33/1/22
f 62/1/23 93/1/23 61/1/23
f 49/1/24 80/1/24 48/1/24
f 36/1/25 67/1/25 35/1/25
f 63/1/26 94/1/26 62/1/26
f 50/1/27 81/1/27 49/1/27
f 37/1/28 68/1/28 36/1/28
f 64/1/29 95/1/29 63/1/29
f 51/1/30 82/1/30 50/1/30
f 38/1/31 69/1/31 37/1/31
f 34/1/32 96/1/32 64/1/32
f 52/1/33 83/1/33 51/1/33
f 39/1/34 70/1/34 38/1/34
f 53/1/35 84/1/35 52/1/35
f 114/1/27 145/1/27 113/1/27
f 89/1/36 120/1/36 88/1/36
f 76/1/37 107/1/37 75/1/37
f 90/1/38 121/1/38 89/1/38
f 76/1/39 109/1/39 108/1/39
f 91/1/40 122/1/40 90/1/40
f 77/1/41 110/1/41 109/1/41
f 92/1/42 123/1/42 91/1/42
f 78/1/43 111/1/43 110/1/43
f 65/1/44 98/1/44 66/1/44
f 93/1/45 124/1/45 92/1/45
f 79/1/46 112/1/46 111/1/46
f 65/1/47 99/1/47 97/1/47
f 94/1/48 125/1/48 93/1/48
f 81/1/49 112/1/49 80/1/49
f 67/1/50 100/1/50 99/1/50
f 95/1/51 126/1/51 94/1/51
f 81/1/52 114/1/52 113/1/52
f 69/1/53 100/1/53 68/1/53
f 96/1/54 127/1/54 95/1/54
f 82/1/55 115/1/55 114/1/55
f 69/1/56 102/1/56 101/1/56
f 66/1/57 128/1/57 96/1/57
f 84/1/58 115/1/58 83/1/58
f 71/1/59 102/1/59 70/1/59
f 85/1/60 116/1/60 84/1/60
f 71/1/61 104/1/61 103/1/61
f 86/1/62 117/1/62 85/1/62
f 72/1/63 105/1/63 104/1/63
f 87/1/64 118/1/64 86/1/64
f 73/1/65 106/1/65 105/1/65
f 87/1/66 120/1/66 119/1/66
f 145/1/3 153/1/3 130/1/3
f 101/1/28 132/1/28 100/1/28
f 128/1/67 159/1/67 127/1/67
f 115/1/68 146/1/68 114/1/68
f 102/1/31 133/1/31 101/1/31
f 98/1/32 160/1/32 128/1/32
f 116/1/69 147/1/69 115/1/69
f 103/1/34 134/1/34 102/1/34
f 117/1/35 148/1/35 116/1/35
f 104/1/2 135/1/2 103/1/2
f 118/1/5 149/1/5 117/1/5
f 105/1/6 136/1/6 104/1/6
f 119/1/70 150/1/70 118/1/70
f 106/1/8 137/1/8 105/1/8
f 120/1/9 151/1/9 119/1/9
f 107/1/10 138/1/10 106/1/10
f 121/1/11 152/1/11 120/1/11
f 108/1/71 139/1/71 107/1/71
f 122/1/13 153/1/13 121/1/13
f 109/1/14 140/1/14 108/1/14
f 123/1/15 154/1/15 122/1/15
f 110/1/16 141/1/16 109/1/16
f 124/1/17 155/1/17 123/1/17
f 111/1/72 142/1/72 110/1/72
f 97/1/19 130/1/19 98/1/19
f 125/1/20 156/1/20 124/1/20
f 112/1/73 143/1/73 111/1/73
f 99/1/74 129/1/74 97/1/74
f 126/1/23 157/1/23 125/1/23
f 113/1/24 144/1/24 112/1/24
f 100/1/25 131/1/25 99/1/25
f 127/1/26 158/1/26 126/1/26
f 3/1/1 2/1/1 1/1/1
f 1/1/1 32/1/1 31/1/1
f 31/1/1 30/1/1 29/1/1
f 29/1/1 28/1/1 27/1/1
f 27/1/75 26/1/75 25/1/75
f 25/1/75 24/1/75 23/1/75
f 23/1/76 22/1/76 21/1/76
f 21/1/1 20/1/1 19/1/1
f 19/1/1 18/1/1 17/1/1
f 17/1/1 16/1/1 15/1/1
f 15/1/1 14/1/1 13/1/1
f 13/1/1 12/1/1 11/1/1
f 11/1/77 10/1/77 9/1/77
f 9/1/77 8/1/77 7/1/77
f 7/1/78 6/1/78 5/1/78
f 5/1/1 4/1/1 3/1/1
f 3/1/1 1/1/1 31/1/1
f 31/1/79 29/1/79 27/1/79
f 27/1/1 25/1/1 23/1/1
f 23/1/79 21/1/79 19/1/79
f 19/1/1 17/1/1 15/1/1
f 15/1/80 13/1/80 11/1/80
f 11/1/1 9/1/1 7/1/1
f 7/1/80 5/1/80 3/1/80
f 3/1/1 31/1/1 27/1/1
f 27/1/1 23/1/1 19/1/1
f 19/1/1 15/1/1 11/1/1
f 11/1/1 7/1/1 3/1/1
f 3/1/1 27/1/1 19/1/1
f 40/1/2 72/1/2 71/1/2
f 26/1/3 27/1/3 59/1/3
f 13/1/3 14/1/3 46/1/3
f 27/1/3 28/1/3 60/1/3
f 14/1/3 15/1/3 47/1/3
f 1/1/3 2/1/3 33/1/3
f 28/1/3 29/1/3 61/1/3
f 15/1/3 16/1/3 48/1/3
f 2/1/3 3/1/3 35/1/3
f 29/1/3 30/1/3 62/1/3
f 16/1/3 17/1/3 49/1/3
f 3/1/3 4/1/3 36/1/3
f 30/1/3 31/1/3 63/1/3
f 17/1/3 18/1/3 50/1/3
f 4/1/3 5/1/3 37/1/3
f 31/1/3 32/1/3 64/1/3
f 18/1/3 19/1/3 51/1/3
f 5/1/3 6/1/3 38/1/3
f 32/1/3 1/1/3 34/1/3
f 19/1/3 20/1/3 52/1/3
f 6/1/3 7/1/3 39/1/3
f 20/1/3 21/1/3 53/1/3
f 7/1/3 8/1/3 40/1/3
f 21/1/3 22/1/3 54/1/3
f 8/1/3 9/1/3 41/1/3
f 22/1/3 23/1/3 55/1/3
f 9/1/3 10/1/3 42/1/3
f 23/1/3 24/1/3 56/1/3
f 10/1/3 11/1/3 43/1/3
f 24/1/3 25/1/3 57/1/3
f 11/1/3 12/1/3 44/1/3
f 25/1/3 26/1/3 58/1/3
f 12/1/3 13/1/3 45/1/3
f 75/1/81 107/1/81 106/1/81
f 54/1/5 86/1/5 85/1/5
f 41/1/6 73/1/6 72/1/6
f 55/1/82 87/1/82 86/1/82
f 42/1/8 74/1/8 73/1/8
f 56/1/9 88/1/9 87/1/9
f 43/1/10 75/1/10 74/1/10
f 57/1/11 89/1/11 88/1/11
f 44/1/83 76/1/83 75/1/83
f 58/1/13 90/1/13 89/1/13
f 45/1/14 77/1/14 76/1/14
f 59/1/15 91/1/15 90/1/15
f 46/1/16 78/1/16 77/1/16
f 60/1/17 92/1/17 91/1/17
f 47/1/18 79/1/18 78/1/18
f 33/1/19 65/1/19 66/1/19
f 61/1/20 93/1/20 92/1/20
f 48/1/21 80/1/21 79/1/21
f 35/1/22 67/1/22 65/1/22
f 62/1/23 94/1/23 93/1/23
f 49/1/24 81/1/24 80/1/24
f 36/1/25 68/1/25 67/1/25
f 63/1/26 95/1/26 94/1/26
f 50/1/27 82/1/27 81/1/27
f 37/1/28 69/1/28 68/1/28
f 64/1/29 96/1/29 95/1/29
f 51/1/30 83/1/30 82/1/30
f 38/1/31 70/1/31 69/1/31
f 34/1/32 66/1/32 96/1/32
f 52/1/33 84/1/33 83/1/33
f 39/1/34 71/1/34 70/1/34
f 53/1/35 85/1/35 84/1/35
f 114/1/27 146/1/27 145/1/27
f 89/1/36 121/1/36 120/1/36
f 76/1/84 108/1/84 107/1/84
f 90/1/85 122/1/85 121/1/85
f 76/1/39 77/1/39 109/1/39
f 91/1/86 123/1/86 122/1/86
f 77/1/87 78/1/87 110/1/87
f 92/1/42 124/1/42 123/1/42
f 78/1/88 79/1/88 111/1/88
f 65/1/89 97/1/89 98/1/89
f 93/1/45 125/1/45 124/1/45
f 79/1/90 80/1/90 112/1/90
f 65/1/91 67/1/91 99/1/91
f 94/1/92 126/1/92 125/1/92
f 81/1/93 113/1/93 112/1/93
f 67/1/94 68/1/94 100/1/94
f 95/1/95 127/1/95 126/1/95
f 81/1/96 82/1/96 114/1/96
f 69/1/97 101/1/97 100/1/97
f 96/1/98 128/1/98 127/1/98
f 82/1/99 83/1/99 115/1/99
f 69/1/56 70/1/56 102/1/56
f 66/1/100 98/1/100 128/1/100
f 84/1/101 116/1/101 115/1/101
f 71/1/59 103/1/59 102/1/59
f 85/1/102 117/1/102 116/1/102
f 71/1/103 72/1/103 104/1/103
f 86/1/62 118/1/62 117/1/62
f 72/1/104 73/1/104 105/1/104
f 87/1/105 119/1/105 118/1/105
f 73/1/65 74/1/65 106/1/65
f 87/1/106 88/1/106 120/1/106
f 130/1/3 129/1/3 131/1/3
f 131/1/107 132/1/107 133/1/107
f 133/1/3 134/1/3 135/1/3
f 135/1/3 136/1/3 137/1/3
f 137/1/3 138/1/3 139/1/3
f 139/1/3 140/1/3 141/1/3
f 141/1/108 142/1/108 143/1/108
f 143/1/109 144/1/109 145/1/109
f 145/1/3 146/1/3 147/1/3
f 147/1/110 148/1/110 149/1/110
f 149/1/3 150/1/3 151/1/3
f 151/1/3 152/1/3 153/1/3
f 153/1/3 154/1/3 155/1/3
f 155/1/3 156/1/3 157/1/3
f 157/1/111 158/1/111 159/1/111
f 159/1/112 160/1/112 130/1/112
f 130/1/3 131/1/3 133/1/3
f 133/1/3 135/1/3 137/1/3
f 137/1/3 139/1/3 141/1/3
f 141/1/3 143/1/3 145/1/3
f 145/1/3 147/1/3 149/1/3
f 149/1/3 151/1/3 153/1/3
f 153/1/3 155/1/3 157/1/3
f 157/1/3 159/1/3 130/1/3
f 130/1/3 133/1/3 137/1/3
f 137/1/3 141/1/3 145/1/3
f 145/1/3 149/1/3 153/1/3
f 153/1/3 157/1/3 130/1/3
f 130/1/3 137/1/3 145/1/3
f 101/1/28 133/1/28 132/1/28
f 128/1/67 160/1/67 159/1/67
f 115/1/68 147/1/68 146/1/68
f 102/1/31 134/1/31 133/1/31
f 98/1/32 130/1/32 160/1/32
f 116/1/69 148/1/69 147/1/69
f 103/1/34 135/1/34 134/1/34
f 117/1/35 149/1/35 148/1/35
f 104/1/2 136/1/2 135/1/2
f 118/1/5 150/1/5 149/1/5
f 105/1/6 137/1/6 136/1/6
f 119/1/70 151/1/70 150/1/70
f 106/1/8 138/1/8 137/1/8
f 120/1/9 152/1/9 151/1/9
f 107/1/10 139/1/10 138/1/10
f 121/1/11 153/1/11 152/1/11
f 108/1/71 140/1/71 139/1/71
f 122/1/13 154/1/13 153/1/13
f 109/1/14 141/1/14 140/1/14
f 123/1/15 155/1/15 154/1/15
f 110/1/16 142/1/16 141/1/16
f 124/1/17 156/1/17 155/1/17
f 111/1/72 143/1/72 142/1/72
f 97/1/19 129/1/19 130/1/19
f 125/1/20 157/1/20 156/1/20
f 112/1/73 144/1/73 143/1/73
f 99/1/74 131/1/74 129/1/74
f 126/1/23 158/1/23 157/1/23
f 113/1/24 145/1/24 144/1/24
f 100/1/25 132/1/25 131/1/25
f 127/1/26 159/1/26 158/1/26
