# Blender 4.1.1
# www.blender.org
mtllib Circle.729.mtl
o Circle.017
v -3203.462891 1170.313721 613.186401
v -3205.632568 1170.313721 613.400146
v -3207.718994 1170.313721 614.033020
v -3209.641846 1170.313721 615.060791
v -3211.327148 1170.313721 616.443909
v -3212.710205 1170.313721 618.129211
v -3213.738037 1170.313721 620.052002
v -3214.370850 1170.313721 622.138367
v -3214.584473 1170.313721 624.308105
v -3214.370850 1170.313721 626.477844
v -3213.738037 1170.313721 628.564209
v -3212.710205 1170.313721 630.487000
v -3211.327148 1170.313721 632.172302
v -3209.641846 1170.313721 633.555420
v -3207.718994 1170.313721 634.583191
v -3205.632568 1170.313721 635.216064
v -3203.462891 1170.313721 635.429810
v -3201.293213 1170.313721 635.216064
v -3199.206787 1170.313721 634.583191
v -3197.283936 1170.313721 633.555420
v -3195.598633 1170.313721 632.172302
v -3194.215576 1170.313721 630.487000
v -3193.187744 1170.313721 628.564209
v -3192.554932 1170.313721 626.477844
v -3192.341309 1170.313721 624.308105
v -3192.554932 1170.313721 622.138367
v -3193.187744 1170.313721 620.052002
v -3194.215576 1170.313721 618.129211
v -3195.598633 1170.313721 616.443909
v -3197.283936 1170.313721 615.060791
v -3199.206787 1170.313721 614.033020
v -3201.293213 1170.313721 613.400146
v -3205.632568 1170.313721 613.400146
v -3203.462891 1170.313721 613.186401
v -3207.718994 1170.313721 614.033020
v -3209.641846 1170.313721 615.060791
v -3211.327148 1170.313721 616.443909
v -3212.710205 1170.313721 618.129211
v -3213.738037 1170.313721 620.052002
v -3214.370850 1170.313721 622.138367
v -3214.584473 1170.313721 624.308105
v -3214.370850 1170.313721 626.477844
v -3213.738037 1170.313721 628.564209
v -3212.710205 1170.313721 630.487000
v -3211.327148 1170.313721 632.172302
v -3209.641846 1170.313721 633.555420
v -3207.718994 1170.313721 634.583191
v -3205.632568 1170.313721 635.216064
v -3203.462891 1170.313721 635.429810
v -3201.293213 1170.313721 635.216064
v -3199.206787 1170.313721 634.583191
v -3197.283936 1170.313721 633.555420
v -3195.598633 1170.313721 632.172302
v -3194.215576 1170.313721 630.487000
v -3193.187744 1170.313721 628.564209
v -3192.554932 1170.313721 626.477844
v -3192.341309 1170.313721 624.308105
v -3192.554932 1170.313721 622.138367
v -3193.187744 1170.313721 620.052002
v -3194.215576 1170.313721 618.129211
v -3195.598633 1170.313721 616.443909
v -3197.283936 1170.313721 615.060791
v -3199.206787 1170.313721 614.033020
v -3201.293213 1170.313721 613.400146
v -3205.632568 1199.674927 613.400146
v -3203.462891 1199.674927 613.186401
v -3207.718994 1199.674927 614.033020
v -3209.641846 1199.674927 615.060791
v -3211.327148 1199.674927 616.443909
v -3212.710205 1199.674927 618.129211
v -3213.738037 1199.674927 620.052002
v -3214.370850 1199.674927 622.138367
v -3214.584473 1199.674927 624.308105
v -3214.370850 1199.674927 626.477844
v -3213.738037 1199.674927 628.564209
v -3212.710205 1199.674927 630.487000
v -3211.327148 1199.674927 632.172302
v -3209.641846 1199.674927 633.555420
v -3207.718994 1199.674927 634.583191
v -3205.632568 1199.674927 635.216064
v -3203.462891 1199.674927 635.429810
v -3201.293213 1199.674927 635.216064
v -3199.206787 1199.674927 634.583191
v -3197.283936 1199.674927 633.555420
v -3195.598633 1199.674927 632.172302
v -3194.215576 1199.674927 630.487000
v -3193.187744 1199.674927 628.564209
v -3192.554932 1199.674927 626.477844
v -3192.341309 1199.674927 624.308105
v -3192.554932 1199.674927 622.138367
v -3193.187744 1199.674927 620.052002
v -3194.215576 1199.674927 618.129211
v -3195.598633 1199.674927 616.443909
v -3197.283936 1199.674927 615.060791
v -3199.206787 1199.674927 614.033020
v -3201.293213 1199.674927 613.400146
v -3207.128174 1201.026123 605.879395
v -3203.462646 1201.026123 605.518372
v -3210.653076 1201.026123 606.948608
v -3213.901367 1201.026123 608.684937
v -3216.748779 1201.026123 611.021606
v -3219.085449 1201.026123 613.868896
v -3220.821777 1201.026123 617.117310
v -3221.890869 1201.026123 620.642029
v -3222.251953 1201.026123 624.307617
v -3221.890869 1201.026123 627.973267
v -3220.821777 1201.026123 631.497986
v -3219.085449 1201.026123 634.746399
v -3216.748779 1201.026123 637.593628
v -3213.901367 1201.026123 639.930359
v -3210.653076 1201.026123 641.666626
v -3207.128174 1201.026123 642.735840
v -3203.462646 1201.026123 643.096863
v -3199.797119 1201.026123 642.735840
v -3196.272217 1201.026123 641.666626
v -3193.023926 1201.026123 639.930359
v -3190.176758 1201.026123 637.593628
v -3187.839844 1201.026123 634.746399
v -3186.103760 1201.026123 631.497986
v -3185.034424 1201.026123 627.973267
v -3184.673340 1201.026123 624.307617
v -3185.034424 1201.026123 620.642029
v -3186.103760 1201.026123 617.117310
v -3187.839844 1201.026123 613.868896
v -3190.176758 1201.026123 611.021606
v -3193.023926 1201.026123 608.684937
v -3196.272217 1201.026123 606.948608
v -3199.797119 1201.026123 605.879395
v -3207.128174 1210.991821 605.879395
v -3203.462646 1210.991821 605.518372
v -3210.653076 1210.991821 606.948608
v -3213.901367 1210.991821 608.684937
v -3216.748779 1210.991821 611.021606
v -3219.085449 1210.991821 613.868896
v -3220.821777 1210.991821 617.117310
v -3221.890869 1210.991821 620.642029
v -3222.251953 1210.991821 624.307617
v -3221.890869 1210.991821 627.973267
v -3220.821777 1210.991821 631.497986
v -3219.085449 1210.991821 634.746399
v -3216.748779 1210.991821 637.593628
v -3213.901367 1210.991821 639.930359
v -3210.653076 1210.991821 641.666626
v -3207.128174 1210.991821 642.735840
v -3203.462646 1210.991821 643.096863
v -3199.797119 1210.991821 642.735840
v -3196.272217 1210.991821 641.666626
v -3193.023926 1210.991821 639.930359
v -3190.176758 1210.991821 637.593628
v -3187.839844 1210.991821 634.746399
v -3186.103760 1210.991821 631.497986
v -3185.034424 1210.991821 627.973267
v -3184.673340 1210.991821 624.307617
v -3185.034424 1210.991821 620.642029
v -3186.103760 1210.991821 617.117310
v -3187.839844 1210.991821 613.868896
v -3190.176758 1210.991821 611.021606
v -3193.023926 1210.991821 608.684937
v -3196.272217 1210.991821 606.948608
v -3199.797119 1210.991821 605.879395
vn -0.0000 -1.0000 -0.0000
vn -0.0980 -0.0000 0.9952
vn -0.0000 1.0000 -0.0000
vn 0.0822 -0.9847 0.1538
vn -0.4714 -0.0000 -0.8819
vn 0.4713 -0.0000 -0.8820
vn 0.0980 -0.0000 0.9952
vn -0.6344 -0.0000 -0.7730
vn 0.2902 -0.0000 -0.9570
vn 0.2903 -0.0000 0.9569
vn -0.7730 -0.0000 -0.6344
vn 0.0980 -0.0000 -0.9952
vn 0.4714 -0.0000 0.8819
vn -0.8820 -0.0000 -0.4713
vn 0.6345 -0.0000 0.7729
vn -0.9570 -0.0000 -0.2902
vn 0.7730 -0.0000 0.6344
vn -0.9952 -0.0000 -0.0979
vn 0.8818 -0.0000 0.4715
vn -0.9952 -0.0000 0.0981
vn 0.9570 -0.0000 0.2902
vn -0.9570 -0.0000 0.2902
vn 0.9952 -0.0000 0.0979
vn -0.8818 -0.0000 0.4715
vn 0.9952 -0.0000 -0.0981
vn -0.7730 -0.0000 0.6344
vn 0.9570 -0.0000 -0.2902
vn -0.6344 -0.0000 0.7730
vn 0.8820 -0.0000 -0.4713
vn -0.4714 -0.0000 0.8819
vn -0.0980 -0.0000 -0.9952
vn 0.7730 -0.0000 -0.6344
vn -0.2902 -0.0000 0.9570
vn -0.2903 -0.0000 -0.9569
vn 0.6344 -0.0000 -0.7730
vn 0.8819 -0.0000 0.4714
vn -0.1537 -0.9847 -0.0822
vn 0.1106 -0.9847 0.1347
vn -0.1668 -0.9847 -0.0506
vn 0.1347 -0.9847 0.1106
vn -0.1735 -0.9847 -0.0171
vn 0.1538 -0.9847 0.0822
vn -0.1735 -0.9847 0.0171
vn 0.1668 -0.9847 0.0506
vn -0.1669 -0.9847 0.0506
vn 0.1735 -0.9847 0.0170
vn -0.1538 -0.9847 0.0822
vn 0.1735 -0.9847 -0.0171
vn -0.1348 -0.9847 0.1107
vn 0.1669 -0.9847 -0.0506
vn -0.1106 -0.9847 0.1348
vn 0.1538 -0.9847 -0.0822
vn -0.0822 -0.9847 0.1538
vn -0.0171 -0.9847 -0.1735
vn 0.1348 -0.9847 -0.1106
vn -0.0506 -0.9847 0.1669
vn -0.0506 -0.9847 -0.1668
vn 0.1106 -0.9847 -0.1348
vn -0.0171 -0.9847 0.1735
vn -0.0822 -0.9847 -0.1538
vn 0.0822 -0.9847 -0.1538
vn 0.0171 -0.9847 0.1736
vn -0.1106 -0.9847 -0.1348
vn 0.0506 -0.9847 -0.1668
vn 0.0506 -0.9847 0.1669
vn -0.1348 -0.9847 -0.1106
vn 0.0171 -0.9847 -0.1735
vn 0.9569 -0.0000 0.2903
vn -0.8819 -0.0000 0.4714
vn 0.9569 -0.0000 -0.2903
vn -0.2903 -0.0000 0.9569
vn 0.4715 -0.0000 -0.8819
vn -0.6343 -0.0000 -0.7731
vn 0.2903 -0.0000 -0.9569
vn -0.7731 -0.0000 -0.6343
vn -0.8819 -0.0000 -0.4714
vn 0.6344 -0.0000 0.7730
vn -0.9569 -0.0000 -0.2903
vn -0.0005 -1.0000 -0.0000
vn -0.0003 -1.0000 -0.0000
vn 0.0005 -1.0000 -0.0000
vn 0.0003 -1.0000 -0.0000
vn 0.4714 -0.0000 -0.8819
vn 0.2902 -0.0000 0.9570
vn 0.4713 -0.0000 0.8820
vn -0.8818 -0.0000 -0.4715
vn -0.9952 -0.0000 -0.0981
vn 0.8819 -0.0000 0.4713
vn -0.9952 -0.0000 0.0979
vn 0.9952 -0.0000 0.0981
vn -0.8819 -0.0000 0.4713
vn 0.9952 -0.0000 -0.0979
vn 0.8818 -0.0000 -0.4715
vn -0.2902 -0.0000 -0.9570
vn 0.6345 -0.0000 -0.7729
vn 0.8820 -0.0000 0.4713
vn -0.1538 -0.9847 -0.0821
vn 0.1106 -0.9847 0.1348
vn -0.1669 -0.9847 -0.0506
vn 0.1348 -0.9847 0.1106
vn 0.1669 -0.9847 0.0506
vn -0.1668 -0.9847 0.0506
vn 0.1735 -0.9847 0.0171
vn -0.1538 -0.9847 0.0821
vn -0.1347 -0.9847 0.1106
vn 0.1668 -0.9847 -0.0506
vn 0.1537 -0.9847 -0.0822
vn -0.0506 -0.9847 -0.1669
vn 0.1106 -0.9847 -0.1347
vn 0.0171 -0.9847 0.1735
vn 0.0506 -0.9847 -0.1669
vn 0.0171 -0.9847 -0.1736
vn -0.0001 1.0000 -0.0000
vn 0.0002 1.0000 -0.0000
vn 0.0004 1.0000 -0.0000
vn -0.0002 1.0000 -0.0000
vn 0.0001 1.0000 -0.0000
vn -0.0004 1.0000 -0.0000
vn -0.9569 -0.0000 0.2903
vn -0.7731 -0.0000 0.6343
vn -0.6343 -0.0000 0.7731
vn 0.8819 -0.0000 -0.4714
vt 0.000000 0.000000
s 0
usemtl Material.003
f 19/1/1 11/1/1 3/1/1
f 49/1/2 80/1/2 48/1/2
f 8/1/3 41/1/3 40/1/3
f 22/1/3 55/1/3 54/1/3
f 9/1/3 42/1/3 41/1/3
f 23/1/3 56/1/3 55/1/3
f 10/1/3 43/1/3 42/1/3
f 24/1/3 57/1/3 56/1/3
f 11/1/3 44/1/3 43/1/3
f 25/1/3 58/1/3 57/1/3
f 12/1/3 45/1/3 44/1/3
f 26/1/3 59/1/3 58/1/3
f 13/1/3 46/1/3 45/1/3
f 27/1/3 60/1/3 59/1/3
f 14/1/3 47/1/3 46/1/3
f 1/1/3 33/1/3 34/1/3
f 28/1/3 61/1/3 60/1/3
f 15/1/3 48/1/3 47/1/3
f 2/1/3 35/1/3 33/1/3
f 29/1/3 62/1/3 61/1/3
f 16/1/3 49/1/3 48/1/3
f 3/1/3 36/1/3 35/1/3
f 30/1/3 63/1/3 62/1/3
f 17/1/3 50/1/3 49/1/3
f 4/1/3 37/1/3 36/1/3
f 31/1/3 64/1/3 63/1/3
f 18/1/3 51/1/3 50/1/3
f 5/1/3 38/1/3 37/1/3
f 32/1/3 34/1/3 64/1/3
f 19/1/3 52/1/3 51/1/3
f 6/1/3 39/1/3 38/1/3
f 20/1/3 53/1/3 52/1/3
f 7/1/3 40/1/3 39/1/3
f 21/1/3 54/1/3 53/1/3
f 84/1/4 115/1/4 83/1/4
f 36/1/5 67/1/5 35/1/5
f 63/1/6 94/1/6 62/1/6
f 50/1/7 81/1/7 49/1/7
f 37/1/8 68/1/8 36/1/8
f 64/1/9 95/1/9 63/1/9
f 51/1/10 82/1/10 50/1/10
f 38/1/11 69/1/11 37/1/11
f 34/1/12 96/1/12 64/1/12
f 52/1/13 83/1/13 51/1/13
f 39/1/14 70/1/14 38/1/14
f 53/1/15 84/1/15 52/1/15
f 40/1/16 71/1/16 39/1/16
f 54/1/17 85/1/17 53/1/17
f 41/1/18 72/1/18 40/1/18
f 55/1/19 86/1/19 54/1/19
f 42/1/20 73/1/20 41/1/20
f 56/1/21 87/1/21 55/1/21
f 43/1/22 74/1/22 42/1/22
f 57/1/23 88/1/23 56/1/23
f 44/1/24 75/1/24 43/1/24
f 58/1/25 89/1/25 57/1/25
f 45/1/26 76/1/26 44/1/26
f 59/1/27 90/1/27 58/1/27
f 46/1/28 77/1/28 45/1/28
f 60/1/29 91/1/29 59/1/29
f 47/1/30 78/1/30 46/1/30
f 33/1/31 66/1/31 34/1/31
f 61/1/32 92/1/32 60/1/32
f 48/1/33 79/1/33 47/1/33
f 35/1/34 65/1/34 33/1/34
f 62/1/35 93/1/35 61/1/35
f 119/1/36 150/1/36 118/1/36
f 70/1/37 103/1/37 102/1/37
f 85/1/38 116/1/38 84/1/38
f 71/1/39 104/1/39 103/1/39
f 86/1/40 117/1/40 85/1/40
f 72/1/41 105/1/41 104/1/41
f 87/1/42 118/1/42 86/1/42
f 74/1/43 105/1/43 73/1/43
f 87/1/44 120/1/44 119/1/44
f 74/1/45 107/1/45 106/1/45
f 89/1/46 120/1/46 88/1/46
f 75/1/47 108/1/47 107/1/47
f 90/1/48 121/1/48 89/1/48
f 76/1/49 109/1/49 108/1/49
f 91/1/50 122/1/50 90/1/50
f 77/1/51 110/1/51 109/1/51
f 92/1/52 123/1/52 91/1/52
f 79/1/53 110/1/53 78/1/53
f 66/1/54 97/1/54 98/1/54
f 93/1/55 124/1/55 92/1/55
f 80/1/56 111/1/56 79/1/56
f 65/1/57 99/1/57 97/1/57
f 94/1/58 125/1/58 93/1/58
f 81/1/59 112/1/59 80/1/59
f 67/1/60 100/1/60 99/1/60
f 95/1/61 126/1/61 94/1/61
f 82/1/62 113/1/62 81/1/62
f 68/1/63 101/1/63 100/1/63
f 95/1/64 128/1/64 127/1/64
f 83/1/65 114/1/65 82/1/65
f 69/1/66 102/1/66 101/1/66
f 96/1/67 98/1/67 128/1/67
f 145/1/3 153/1/3 130/1/3
f 106/1/20 137/1/20 105/1/20
f 120/1/68 151/1/68 119/1/68
f 107/1/22 138/1/22 106/1/22
f 121/1/23 152/1/23 120/1/23
f 108/1/69 139/1/69 107/1/69
f 122/1/25 153/1/25 121/1/25
f 109/1/26 140/1/26 108/1/26
f 123/1/70 154/1/70 122/1/70
f 110/1/28 141/1/28 109/1/28
f 124/1/29 155/1/29 123/1/29
f 111/1/30 142/1/30 110/1/30
f 97/1/31 130/1/31 98/1/31
f 125/1/32 156/1/32 124/1/32
f 112/1/71 143/1/71 111/1/71
f 99/1/34 129/1/34 97/1/34
f 126/1/35 157/1/35 125/1/35
f 113/1/2 144/1/2 112/1/2
f 100/1/5 131/1/5 99/1/5
f 127/1/72 158/1/72 126/1/72
f 114/1/7 145/1/7 113/1/7
f 101/1/73 132/1/73 100/1/73
f 128/1/74 159/1/74 127/1/74
f 115/1/10 146/1/10 114/1/10
f 102/1/75 133/1/75 101/1/75
f 98/1/12 160/1/12 128/1/12
f 116/1/13 147/1/13 115/1/13
f 103/1/76 134/1/76 102/1/76
f 117/1/77 148/1/77 116/1/77
f 104/1/78 135/1/78 103/1/78
f 118/1/17 149/1/17 117/1/17
f 105/1/18 136/1/18 104/1/18
f 3/1/1 2/1/1 1/1/1
f 1/1/1 32/1/1 31/1/1
f 31/1/1 30/1/1 29/1/1
f 29/1/1 28/1/1 27/1/1
f 27/1/79 26/1/79 25/1/79
f 25/1/79 24/1/79 23/1/79
f 23/1/80 22/1/80 21/1/80
f 21/1/1 20/1/1 19/1/1
f 19/1/1 18/1/1 17/1/1
f 17/1/1 16/1/1 15/1/1
f 15/1/1 14/1/1 13/1/1
f 13/1/1 12/1/1 11/1/1
f 11/1/81 10/1/81 9/1/81
f 9/1/81 8/1/81 7/1/81
f 7/1/82 6/1/82 5/1/82
f 5/1/1 4/1/1 3/1/1
f 3/1/1 1/1/1 31/1/1
f 31/1/1 29/1/1 27/1/1
f 27/1/1 25/1/1 23/1/1
f 23/1/1 21/1/1 19/1/1
f 19/1/1 17/1/1 15/1/1
f 15/1/1 13/1/1 11/1/1
f 11/1/1 9/1/1 7/1/1
f 7/1/1 5/1/1 3/1/1
f 3/1/1 31/1/1 27/1/1
f 27/1/1 23/1/1 19/1/1
f 19/1/1 15/1/1 11/1/1
f 11/1/1 7/1/1 3/1/1
f 3/1/1 27/1/1 19/1/1
f 49/1/2 81/1/2 80/1/2
f 8/1/3 9/1/3 41/1/3
f 22/1/3 23/1/3 55/1/3
f 9/1/3 10/1/3 42/1/3
f 23/1/3 24/1/3 56/1/3
f 10/1/3 11/1/3 43/1/3
f 24/1/3 25/1/3 57/1/3
f 11/1/3 12/1/3 44/1/3
f 25/1/3 26/1/3 58/1/3
f 12/1/3 13/1/3 45/1/3
f 26/1/3 27/1/3 59/1/3
f 13/1/3 14/1/3 46/1/3
f 27/1/3 28/1/3 60/1/3
f 14/1/3 15/1/3 47/1/3
f 1/1/3 2/1/3 33/1/3
f 28/1/3 29/1/3 61/1/3
f 15/1/3 16/1/3 48/1/3
f 2/1/3 3/1/3 35/1/3
f 29/1/3 30/1/3 62/1/3
f 16/1/3 17/1/3 49/1/3
f 3/1/3 4/1/3 36/1/3
f 30/1/3 31/1/3 63/1/3
f 17/1/3 18/1/3 50/1/3
f 4/1/3 5/1/3 37/1/3
f 31/1/3 32/1/3 64/1/3
f 18/1/3 19/1/3 51/1/3
f 5/1/3 6/1/3 38/1/3
f 32/1/3 1/1/3 34/1/3
f 19/1/3 20/1/3 52/1/3
f 6/1/3 7/1/3 39/1/3
f 20/1/3 21/1/3 53/1/3
f 7/1/3 8/1/3 40/1/3
f 21/1/3 22/1/3 54/1/3
f 84/1/4 116/1/4 115/1/4
f 36/1/5 68/1/5 67/1/5
f 63/1/83 95/1/83 94/1/83
f 50/1/7 82/1/7 81/1/7
f 37/1/8 69/1/8 68/1/8
f 64/1/74 96/1/74 95/1/74
f 51/1/84 83/1/84 82/1/84
f 38/1/11 70/1/11 69/1/11
f 34/1/12 66/1/12 96/1/12
f 52/1/85 84/1/85 83/1/85
f 39/1/86 71/1/86 70/1/86
f 53/1/77 85/1/77 84/1/77
f 40/1/16 72/1/16 71/1/16
f 54/1/17 86/1/17 85/1/17
f 41/1/87 73/1/87 72/1/87
f 55/1/88 87/1/88 86/1/88
f 42/1/89 74/1/89 73/1/89
f 56/1/21 88/1/21 87/1/21
f 43/1/22 75/1/22 74/1/22
f 57/1/90 89/1/90 88/1/90
f 44/1/91 76/1/91 75/1/91
f 58/1/92 90/1/92 89/1/92
f 45/1/26 77/1/26 76/1/26
f 59/1/27 91/1/27 90/1/27
f 46/1/28 78/1/28 77/1/28
f 60/1/93 92/1/93 91/1/93
f 47/1/30 79/1/30 78/1/30
f 33/1/31 65/1/31 66/1/31
f 61/1/32 93/1/32 92/1/32
f 48/1/71 80/1/71 79/1/71
f 35/1/94 67/1/94 65/1/94
f 62/1/95 94/1/95 93/1/95
f 119/1/96 151/1/96 150/1/96
f 70/1/97 71/1/97 103/1/97
f 85/1/98 117/1/98 116/1/98
f 71/1/99 72/1/99 104/1/99
f 86/1/100 118/1/100 117/1/100
f 72/1/41 73/1/41 105/1/41
f 87/1/42 119/1/42 118/1/42
f 74/1/43 106/1/43 105/1/43
f 87/1/101 88/1/101 120/1/101
f 74/1/102 75/1/102 107/1/102
f 89/1/103 121/1/103 120/1/103
f 75/1/104 76/1/104 108/1/104
f 90/1/48 122/1/48 121/1/48
f 76/1/105 77/1/105 109/1/105
f 91/1/106 123/1/106 122/1/106
f 77/1/51 78/1/51 110/1/51
f 92/1/107 124/1/107 123/1/107
f 79/1/53 111/1/53 110/1/53
f 66/1/54 65/1/54 97/1/54
f 93/1/55 125/1/55 124/1/55
f 80/1/56 112/1/56 111/1/56
f 65/1/108 67/1/108 99/1/108
f 94/1/109 126/1/109 125/1/109
f 81/1/59 113/1/59 112/1/59
f 67/1/60 68/1/60 100/1/60
f 95/1/61 127/1/61 126/1/61
f 82/1/110 114/1/110 113/1/110
f 68/1/63 69/1/63 101/1/63
f 95/1/111 96/1/111 128/1/111
f 83/1/65 115/1/65 114/1/65
f 69/1/66 70/1/66 102/1/66
f 96/1/112 66/1/112 98/1/112
f 130/1/113 129/1/113 131/1/113
f 131/1/114 132/1/114 133/1/114
f 133/1/3 134/1/3 135/1/3
f 135/1/115 136/1/115 137/1/115
f 137/1/3 138/1/3 139/1/3
f 139/1/116 140/1/116 141/1/116
f 141/1/3 142/1/3 143/1/3
f 143/1/113 144/1/113 145/1/113
f 145/1/117 146/1/117 147/1/117
f 147/1/3 148/1/3 149/1/3
f 149/1/114 150/1/114 151/1/114
f 151/1/3 152/1/3 153/1/3
f 153/1/118 154/1/118 155/1/118
f 155/1/3 156/1/3 157/1/3
f 157/1/116 158/1/116 159/1/116
f 159/1/117 160/1/117 130/1/117
f 130/1/3 131/1/3 133/1/3
f 133/1/3 135/1/3 137/1/3
f 137/1/3 139/1/3 141/1/3
f 141/1/3 143/1/3 145/1/3
f 145/1/3 147/1/3 149/1/3
f 149/1/113 151/1/113 153/1/113
f 153/1/3 155/1/3 157/1/3
f 157/1/3 159/1/3 130/1/3
f 130/1/3 133/1/3 137/1/3
f 137/1/3 141/1/3 145/1/3
f 145/1/3 149/1/3 153/1/3
f 153/1/3 157/1/3 130/1/3
f 130/1/3 137/1/3 145/1/3
f 106/1/89 138/1/89 137/1/89
f 120/1/68 152/1/68 151/1/68
f 107/1/119 139/1/119 138/1/119
f 121/1/90 153/1/90 152/1/90
f 108/1/69 140/1/69 139/1/69
f 122/1/92 154/1/92 153/1/92
f 109/1/120 141/1/120 140/1/120
f 123/1/70 155/1/70 154/1/70
f 110/1/121 142/1/121 141/1/121
f 124/1/122 156/1/122 155/1/122
f 111/1/30 143/1/30 142/1/30
f 97/1/31 129/1/31 130/1/31
f 125/1/32 157/1/32 156/1/32
f 112/1/71 144/1/71 143/1/71
f 99/1/34 131/1/34 129/1/34
f 126/1/35 158/1/35 157/1/35
f 113/1/2 145/1/2 144/1/2
f 100/1/5 132/1/5 131/1/5
f 127/1/83 159/1/83 158/1/83
f 114/1/7 146/1/7 145/1/7
f 101/1/8 133/1/8 132/1/8
f 128/1/74 160/1/74 159/1/74
f 115/1/10 147/1/10 146/1/10
f 102/1/11 134/1/11 133/1/11
f 98/1/12 130/1/12 160/1/12
f 116/1/13 148/1/13 147/1/13
f 103/1/76 135/1/76 134/1/76
f 117/1/77 149/1/77 148/1/77
f 104/1/16 136/1/16 135/1/16
f 118/1/17 150/1/17 149/1/17
f 105/1/87 137/1/87 136/1/87
