# Blender 4.1.1
# www.blender.org
mtllib Plane.003.mtl
o End_posts.001
v 4203.497070 70.106689 -372.246552
v 4195.747559 71.276794 -364.427948
v 4297.761719 70.090973 -278.432556
v 4289.533203 71.268951 -270.136230
v 4208.521484 70.105850 -367.246429
v 4291.306641 70.092056 -284.856750
v 4208.521484 70.106689 -367.246429
v 4291.306641 70.090973 -284.856750
v 4203.497070 70.105850 -372.246552
v 4297.761719 70.092056 -278.432556
v 4208.521484 129.986740 -367.246429
v 4291.306641 129.971039 -284.856750
v 4203.497070 129.985916 -372.246552
v 4297.761719 129.972122 -278.432556
vn -0.7053 -0.0000 0.7089
vn -0.7015 -0.0000 0.7127
vn 0.7054 -0.0000 -0.7088
vn 0.7053 -0.0000 -0.7089
vn 0.7067 -0.0000 -0.7075
vt 0.931801 1.000944
vt 1.000331 1.001564
vt -0.000482 0.999898
vt 0.052911 0.986196
s 0
usemtl Material.002
f 6/1/1 8/2/1 10/1/1
f 1/3/2 9/4/2 7/3/2
f 10/1/3 12/2/3 14/1/3
f 7/3/3 13/4/3 11/3/3
f 6/1/4 3/2/4 8/2/4
f 1/3/5 5/4/5 9/4/5
f 10/1/3 8/2/3 12/2/3
f 7/3/3 9/4/3 13/4/3
l 1 2
l 4 3
l 6 5
