# Blender 4.1.1
# www.blender.org
mtllib Circle.722.mtl
o Circle.010
v -3490.997070 1764.820679 3570.678223
v -3493.166748 1764.820679 3570.891846
v -3495.253174 1764.820679 3571.524658
v -3497.176025 1764.820679 3572.552490
v -3498.861328 1764.820679 3573.935547
v -3500.244385 1764.820679 3575.620850
v -3501.272217 1764.820679 3577.543701
v -3501.905029 1764.820679 3579.630127
v -3502.118652 1764.820679 3581.799805
v -3501.905029 1764.820679 3583.969482
v -3501.272217 1764.820679 3586.055908
v -3500.244385 1764.820679 3587.978760
v -3498.861328 1764.820679 3589.664062
v -3497.176025 1764.820679 3591.047119
v -3495.253174 1764.820679 3592.074951
v -3493.166748 1764.820679 3592.707764
v -3490.997070 1764.820679 3592.921387
v -3488.827393 1764.820679 3592.707764
v -3486.740967 1764.820679 3592.074951
v -3484.818115 1764.820679 3591.047119
v -3483.132812 1764.820679 3589.664062
v -3481.749756 1764.820679 3587.978760
v -3480.721924 1764.820679 3586.055908
v -3480.089111 1764.820679 3583.969482
v -3479.875488 1764.820679 3581.799805
v -3480.089111 1764.820679 3579.630127
v -3480.721924 1764.820679 3577.543701
v -3481.749756 1764.820679 3575.620850
v -3483.132812 1764.820679 3573.935547
v -3484.818115 1764.820679 3572.552490
v -3486.740967 1764.820679 3571.524658
v -3488.827393 1764.820679 3570.891846
v -3493.166748 1764.820679 3570.891846
v -3490.997070 1764.820679 3570.678223
v -3495.253174 1764.820679 3571.524658
v -3497.176025 1764.820679 3572.552490
v -3498.861328 1764.820679 3573.935547
v -3500.244385 1764.820679 3575.620850
v -3501.272217 1764.820679 3577.543701
v -3501.905029 1764.820679 3579.630127
v -3502.118652 1764.820679 3581.799805
v -3501.905029 1764.820679 3583.969482
v -3501.272217 1764.820679 3586.055908
v -3500.244385 1764.820679 3587.978760
v -3498.861328 1764.820679 3589.664062
v -3497.176025 1764.820679 3591.047119
v -3495.253174 1764.820679 3592.074951
v -3493.166748 1764.820679 3592.707764
v -3490.997070 1764.820679 3592.921387
v -3488.827393 1764.820679 3592.707764
v -3486.740967 1764.820679 3592.074951
v -3484.818115 1764.820679 3591.047119
v -3483.132812 1764.820679 3589.664062
v -3481.749756 1764.820679 3587.978760
v -3480.721924 1764.820679 3586.055908
v -3480.089111 1764.820679 3583.969482
v -3479.875488 1764.820679 3581.799805
v -3480.089111 1764.820679 3579.630127
v -3480.721924 1764.820679 3577.543701
v -3481.749756 1764.820679 3575.620850
v -3483.132812 1764.820679 3573.935547
v -3484.818115 1764.820679 3572.552490
v -3486.740967 1764.820679 3571.524658
v -3488.827393 1764.820679 3570.891846
v -3493.166748 1794.181885 3570.891846
v -3490.997070 1794.181885 3570.678223
v -3495.253174 1794.181885 3571.524658
v -3497.176025 1794.181885 3572.552490
v -3498.861328 1794.181885 3573.935547
v -3500.244385 1794.181885 3575.620850
v -3501.272217 1794.181885 3577.543701
v -3501.905029 1794.181885 3579.630127
v -3502.118652 1794.181885 3581.799805
v -3501.905029 1794.181885 3583.969482
v -3501.272217 1794.181885 3586.055908
v -3500.244385 1794.181885 3587.978760
v -3498.861328 1794.181885 3589.664062
v -3497.176025 1794.181885 3591.047119
v -3495.253174 1794.181885 3592.074951
v -3493.166748 1794.181885 3592.707764
v -3490.997070 1794.181885 3592.921387
v -3488.827393 1794.181885 3592.707764
v -3486.740967 1794.181885 3592.074951
v -3484.818115 1794.181885 3591.047119
v -3483.132812 1794.181885 3589.664062
v -3481.749756 1794.181885 3587.978760
v -3480.721924 1794.181885 3586.055908
v -3480.089111 1794.181885 3583.969482
v -3479.875488 1794.181885 3581.799805
v -3480.089111 1794.181885 3579.630127
v -3480.721924 1794.181885 3577.543701
v -3481.749756 1794.181885 3575.620850
v -3483.132812 1794.181885 3573.935547
v -3484.818115 1794.181885 3572.552490
v -3486.740967 1794.181885 3571.524658
v -3488.827393 1794.181885 3570.891846
v -3494.662354 1795.533081 3563.371094
v -3490.996826 1795.533081 3563.010010
v -3498.187256 1795.533081 3564.440430
v -3501.435547 1795.533081 3566.176758
v -3504.282959 1795.533081 3568.513428
v -3506.619629 1795.533081 3571.360596
v -3508.355957 1795.533081 3574.608887
v -3509.425049 1795.533081 3578.133789
v -3509.786133 1795.533081 3581.799316
v -3509.425049 1795.533081 3585.464844
v -3508.355957 1795.533081 3588.989746
v -3506.619629 1795.533081 3592.238037
v -3504.282959 1795.533081 3595.085449
v -3501.435547 1795.533081 3597.422119
v -3498.187256 1795.533081 3599.158447
v -3494.662354 1795.533081 3600.227539
v -3490.996826 1795.533081 3600.588623
v -3487.331299 1795.533081 3600.227539
v -3483.806396 1795.533081 3599.158447
v -3480.558105 1795.533081 3597.422119
v -3477.710938 1795.533081 3595.085449
v -3475.374023 1795.533081 3592.238037
v -3473.637939 1795.533081 3588.989746
v -3472.568604 1795.533081 3585.464844
v -3472.207520 1795.533081 3581.799316
v -3472.568604 1795.533081 3578.133789
v -3473.637939 1795.533081 3574.608887
v -3475.374023 1795.533081 3571.360596
v -3477.710938 1795.533081 3568.513428
v -3480.558105 1795.533081 3566.176758
v -3483.806396 1795.533081 3564.440430
v -3487.331299 1795.533081 3563.371094
v -3494.662354 1805.498779 3563.371094
v -3490.996826 1805.498779 3563.010010
v -3498.187256 1805.498779 3564.440430
v -3501.435547 1805.498779 3566.176758
v -3504.282959 1805.498779 3568.513428
v -3506.619629 1805.498779 3571.360596
v -3508.355957 1805.498779 3574.608887
v -3509.425049 1805.498779 3578.133789
v -3509.786133 1805.498779 3581.799316
v -3509.425049 1805.498779 3585.464844
v -3508.355957 1805.498779 3588.989746
v -3506.619629 1805.498779 3592.238037
v -3504.282959 1805.498779 3595.085449
v -3501.435547 1805.498779 3597.422119
v -3498.187256 1805.498779 3599.158447
v -3494.662354 1805.498779 3600.227539
v -3490.996826 1805.498779 3600.588623
v -3487.331299 1805.498779 3600.227539
v -3483.806396 1805.498779 3599.158447
v -3480.558105 1805.498779 3597.422119
v -3477.710938 1805.498779 3595.085449
v -3475.374023 1805.498779 3592.238037
v -3473.637939 1805.498779 3588.989746
v -3472.568604 1805.498779 3585.464844
v -3472.207520 1805.498779 3581.799316
v -3472.568604 1805.498779 3578.133789
v -3473.637939 1805.498779 3574.608887
v -3475.374023 1805.498779 3571.360596
v -3477.710938 1805.498779 3568.513428
v -3480.558105 1805.498779 3566.176758
v -3483.806396 1805.498779 3564.440430
v -3487.331299 1805.498779 3563.371094
vn -0.0000 -1.0000 -0.0000
vn -0.0980 -0.0000 0.9952
vn -0.0000 1.0000 -0.0000
vn 0.0823 -0.9847 0.1538
vn -0.4714 -0.0000 -0.8819
vn 0.4714 -0.0000 -0.8819
vn 0.0980 -0.0000 0.9952
vn -0.6344 -0.0000 -0.7730
vn 0.2903 -0.0000 -0.9569
vn 0.2902 -0.0000 0.9570
vn -0.7731 -0.0000 -0.6342
vn 0.0980 -0.0000 -0.9952
vn 0.4713 -0.0000 0.8820
vn -0.8820 -0.0000 -0.4713
vn 0.6345 -0.0000 0.7729
vn -0.9570 -0.0000 -0.2902
vn 0.7731 -0.0000 0.6342
vn -0.9952 -0.0000 -0.0979
vn 0.8819 -0.0000 0.4715
vn -0.9952 -0.0000 0.0981
vn 0.9570 -0.0000 0.2902
vn -0.9570 -0.0000 0.2902
vn 0.9952 -0.0000 0.0979
vn -0.8819 -0.0000 0.4715
vn 0.9952 -0.0000 -0.0981
vn -0.7729 -0.0000 0.6345
vn 0.9570 -0.0000 -0.2902
vn -0.6344 -0.0000 0.7730
vn 0.8820 -0.0000 -0.4713
vn -0.4714 -0.0000 0.8819
vn -0.0980 -0.0000 -0.9952
vn 0.7730 -0.0000 -0.6344
vn -0.2902 -0.0000 0.9570
vn -0.2902 -0.0000 -0.9570
vn 0.6342 -0.0000 -0.7731
vn 0.8819 -0.0000 0.4714
vn -0.1538 -0.9847 -0.0822
vn 0.1106 -0.9847 0.1347
vn -0.1668 -0.9847 -0.0506
vn 0.1347 -0.9847 0.1106
vn -0.1736 -0.9847 -0.0171
vn 0.1538 -0.9847 0.0822
vn -0.1735 -0.9847 0.0171
vn 0.1668 -0.9847 0.0506
vn -0.1669 -0.9847 0.0506
vn 0.1735 -0.9847 0.0170
vn -0.1538 -0.9847 0.0822
vn 0.1735 -0.9847 -0.0171
vn -0.1348 -0.9847 0.1106
vn 0.1668 -0.9847 -0.0506
vn -0.1106 -0.9847 0.1348
vn 0.1538 -0.9847 -0.0822
vn -0.0822 -0.9847 0.1538
vn -0.0171 -0.9847 -0.1735
vn 0.1347 -0.9847 -0.1105
vn -0.0506 -0.9847 0.1669
vn -0.0505 -0.9847 -0.1669
vn 0.1106 -0.9847 -0.1348
vn -0.0171 -0.9847 0.1735
vn -0.0822 -0.9847 -0.1538
vn 0.0822 -0.9847 -0.1538
vn 0.0171 -0.9847 0.1736
vn -0.1106 -0.9847 -0.1348
vn 0.0506 -0.9847 -0.1669
vn 0.0505 -0.9847 0.1669
vn -0.1348 -0.9847 -0.1106
vn 0.0171 -0.9847 -0.1735
vn 0.9569 -0.0000 0.2903
vn -0.9570 -0.0000 0.2901
vn -0.8820 -0.0000 0.4713
vn -0.7730 -0.0000 0.6344
vn 0.9569 -0.0000 -0.2903
vn -0.6345 -0.0000 0.7729
vn -0.4715 -0.0000 0.8819
vn -0.2903 -0.0000 0.9569
vn -0.2903 -0.0000 -0.9569
vn 0.6344 -0.0000 -0.7730
vn 0.4715 -0.0000 -0.8819
vn -0.6343 -0.0000 -0.7731
vn 0.2903 -0.0000 0.9569
vn -0.7730 -0.0000 -0.6344
vn 0.4714 -0.0000 0.8819
vn -0.8819 -0.0000 -0.4714
vn 0.6344 -0.0000 0.7730
vn -0.9569 -0.0000 -0.2905
vn 0.7730 -0.0000 0.6344
vn 0.0002 -1.0000 -0.0000
vn -0.0003 -1.0000 -0.0000
vn 0.0005 -1.0000 -0.0000
vn -0.0002 -1.0000 -0.0000
vn 0.0003 -1.0000 -0.0000
vn -0.0005 -1.0000 -0.0000
vn 0.0822 -0.9847 0.1538
vn 0.4713 -0.0000 -0.8820
vn 0.2902 -0.0000 -0.9570
vn -0.7729 -0.0000 -0.6345
vn -0.8819 -0.0000 -0.4715
vn 0.6343 -0.0000 0.7731
vn -0.9952 -0.0000 -0.0981
vn 0.8820 -0.0000 0.4713
vn -0.9952 -0.0000 0.0979
vn 0.9952 -0.0000 0.0981
vn 0.9952 -0.0000 -0.0979
vn -0.7731 -0.0000 0.6342
vn 0.8819 -0.0000 -0.4715
vn 0.7731 -0.0000 -0.6342
vn 0.6345 -0.0000 -0.7729
vn -0.1538 -0.9847 -0.0821
vn 0.1106 -0.9847 0.1348
vn -0.1669 -0.9847 -0.0506
vn 0.1348 -0.9847 0.1106
vn -0.1735 -0.9847 -0.0171
vn 0.1537 -0.9847 0.0822
vn 0.1669 -0.9847 0.0506
vn 0.1735 -0.9847 0.0171
vn -0.1538 -0.9847 0.0821
vn 0.1736 -0.9847 -0.0171
vn -0.1347 -0.9847 0.1106
vn 0.1348 -0.9847 -0.1106
vn -0.0505 -0.9847 0.1669
vn -0.0506 -0.9847 -0.1669
vn 0.1107 -0.9847 -0.1347
vn 0.0171 -0.9847 0.1735
vn 0.0505 -0.9847 -0.1669
vn 0.0506 -0.9847 0.1669
vn -0.1347 -0.9847 -0.1106
vn 0.0171 -0.9847 -0.1736
vn 0.0001 1.0000 -0.0000
vn -0.0004 1.0000 -0.0000
vn 0.0004 1.0000 -0.0000
vn -0.0002 1.0000 -0.0000
vn 0.0002 1.0000 -0.0000
vn -0.0001 1.0000 -0.0000
vn -0.9569 -0.0000 0.2905
vn -0.8819 -0.0000 0.4714
vn -0.6343 -0.0000 0.7731
vn 0.8819 -0.0000 -0.4714
vn -0.0981 -0.0000 0.9952
vn -0.4715 -0.0000 -0.8819
vn -0.6345 -0.0000 -0.7729
vn 0.4715 -0.0000 0.8819
vn -0.9570 -0.0000 -0.2901
vt 0.000000 0.000000
s 0
usemtl Material.003
f 19/1/1 11/1/1 3/1/1
f 49/1/2 80/1/2 48/1/2
f 8/1/3 41/1/3 40/1/3
f 22/1/3 55/1/3 54/1/3
f 9/1/3 42/1/3 41/1/3
f 23/1/3 56/1/3 55/1/3
f 10/1/3 43/1/3 42/1/3
f 24/1/3 57/1/3 56/1/3
f 11/1/3 44/1/3 43/1/3
f 25/1/3 58/1/3 57/1/3
f 12/1/3 45/1/3 44/1/3
f 26/1/3 59/1/3 58/1/3
f 13/1/3 46/1/3 45/1/3
f 27/1/3 60/1/3 59/1/3
f 14/1/3 47/1/3 46/1/3
f 1/1/3 33/1/3 34/1/3
f 28/1/3 61/1/3 60/1/3
f 15/1/3 48/1/3 47/1/3
f 2/1/3 35/1/3 33/1/3
f 29/1/3 62/1/3 61/1/3
f 16/1/3 49/1/3 48/1/3
f 3/1/3 36/1/3 35/1/3
f 30/1/3 63/1/3 62/1/3
f 17/1/3 50/1/3 49/1/3
f 4/1/3 37/1/3 36/1/3
f 31/1/3 64/1/3 63/1/3
f 18/1/3 51/1/3 50/1/3
f 5/1/3 38/1/3 37/1/3
f 32/1/3 34/1/3 64/1/3
f 19/1/3 52/1/3 51/1/3
f 6/1/3 39/1/3 38/1/3
f 20/1/3 53/1/3 52/1/3
f 7/1/3 40/1/3 39/1/3
f 21/1/3 54/1/3 53/1/3
f 84/1/4 115/1/4 83/1/4
f 36/1/5 67/1/5 35/1/5
f 63/1/6 94/1/6 62/1/6
f 50/1/7 81/1/7 49/1/7
f 37/1/8 68/1/8 36/1/8
f 64/1/9 95/1/9 63/1/9
f 51/1/10 82/1/10 50/1/10
f 38/1/11 69/1/11 37/1/11
f 34/1/12 96/1/12 64/1/12
f 52/1/13 83/1/13 51/1/13
f 39/1/14 70/1/14 38/1/14
f 53/1/15 84/1/15 52/1/15
f 40/1/16 71/1/16 39/1/16
f 54/1/17 85/1/17 53/1/17
f 41/1/18 72/1/18 40/1/18
f 55/1/19 86/1/19 54/1/19
f 42/1/20 73/1/20 41/1/20
f 56/1/21 87/1/21 55/1/21
f 43/1/22 74/1/22 42/1/22
f 57/1/23 88/1/23 56/1/23
f 44/1/24 75/1/24 43/1/24
f 58/1/25 89/1/25 57/1/25
f 45/1/26 76/1/26 44/1/26
f 59/1/27 90/1/27 58/1/27
f 46/1/28 77/1/28 45/1/28
f 60/1/29 91/1/29 59/1/29
f 47/1/30 78/1/30 46/1/30
f 33/1/31 66/1/31 34/1/31
f 61/1/32 92/1/32 60/1/32
f 48/1/33 79/1/33 47/1/33
f 35/1/34 65/1/34 33/1/34
f 62/1/35 93/1/35 61/1/35
f 119/1/36 150/1/36 118/1/36
f 70/1/37 103/1/37 102/1/37
f 85/1/38 116/1/38 84/1/38
f 71/1/39 104/1/39 103/1/39
f 86/1/40 117/1/40 85/1/40
f 72/1/41 105/1/41 104/1/41
f 86/1/42 119/1/42 118/1/42
f 73/1/43 106/1/43 105/1/43
f 88/1/44 119/1/44 87/1/44
f 75/1/45 106/1/45 74/1/45
f 89/1/46 120/1/46 88/1/46
f 75/1/47 108/1/47 107/1/47
f 90/1/48 121/1/48 89/1/48
f 76/1/49 109/1/49 108/1/49
f 91/1/50 122/1/50 90/1/50
f 77/1/51 110/1/51 109/1/51
f 92/1/52 123/1/52 91/1/52
f 79/1/53 110/1/53 78/1/53
f 66/1/54 97/1/54 98/1/54
f 93/1/55 124/1/55 92/1/55
f 79/1/56 112/1/56 111/1/56
f 67/1/57 97/1/57 65/1/57
f 94/1/58 125/1/58 93/1/58
f 81/1/59 112/1/59 80/1/59
f 67/1/60 100/1/60 99/1/60
f 95/1/61 126/1/61 94/1/61
f 82/1/62 113/1/62 81/1/62
f 69/1/63 100/1/63 68/1/63
f 95/1/64 128/1/64 127/1/64
f 83/1/65 114/1/65 82/1/65
f 69/1/66 102/1/66 101/1/66
f 96/1/67 98/1/67 128/1/67
f 145/1/3 153/1/3 130/1/3
f 106/1/20 137/1/20 105/1/20
f 120/1/68 151/1/68 119/1/68
f 107/1/69 138/1/69 106/1/69
f 121/1/23 152/1/23 120/1/23
f 108/1/70 139/1/70 107/1/70
f 122/1/25 153/1/25 121/1/25
f 109/1/71 140/1/71 108/1/71
f 123/1/72 154/1/72 122/1/72
f 110/1/73 141/1/73 109/1/73
f 124/1/29 155/1/29 123/1/29
f 111/1/74 142/1/74 110/1/74
f 97/1/31 130/1/31 98/1/31
f 125/1/32 156/1/32 124/1/32
f 112/1/75 143/1/75 111/1/75
f 99/1/76 129/1/76 97/1/76
f 126/1/77 157/1/77 125/1/77
f 113/1/2 144/1/2 112/1/2
f 100/1/5 131/1/5 99/1/5
f 127/1/78 158/1/78 126/1/78
f 114/1/7 145/1/7 113/1/7
f 101/1/79 132/1/79 100/1/79
f 128/1/9 159/1/9 127/1/9
f 115/1/80 146/1/80 114/1/80
f 102/1/81 133/1/81 101/1/81
f 98/1/12 160/1/12 128/1/12
f 116/1/82 147/1/82 115/1/82
f 103/1/83 134/1/83 102/1/83
f 117/1/84 148/1/84 116/1/84
f 104/1/85 135/1/85 103/1/85
f 118/1/86 149/1/86 117/1/86
f 105/1/18 136/1/18 104/1/18
f 3/1/87 2/1/87 1/1/87
f 1/1/88 32/1/88 31/1/88
f 31/1/1 30/1/1 29/1/1
f 29/1/89 28/1/89 27/1/89
f 27/1/89 26/1/89 25/1/89
f 25/1/89 24/1/89 23/1/89
f 23/1/89 22/1/89 21/1/89
f 21/1/1 20/1/1 19/1/1
f 19/1/90 18/1/90 17/1/90
f 17/1/91 16/1/91 15/1/91
f 15/1/1 14/1/1 13/1/1
f 13/1/92 12/1/92 11/1/92
f 11/1/92 10/1/92 9/1/92
f 9/1/92 8/1/92 7/1/92
f 7/1/92 6/1/92 5/1/92
f 5/1/1 4/1/1 3/1/1
f 3/1/1 1/1/1 31/1/1
f 31/1/1 29/1/1 27/1/1
f 27/1/1 25/1/1 23/1/1
f 23/1/1 21/1/1 19/1/1
f 19/1/1 17/1/1 15/1/1
f 15/1/1 13/1/1 11/1/1
f 11/1/1 9/1/1 7/1/1
f 7/1/1 5/1/1 3/1/1
f 3/1/1 31/1/1 27/1/1
f 27/1/1 23/1/1 19/1/1
f 19/1/1 15/1/1 11/1/1
f 11/1/1 7/1/1 3/1/1
f 3/1/1 27/1/1 19/1/1
f 49/1/2 81/1/2 80/1/2
f 8/1/3 9/1/3 41/1/3
f 22/1/3 23/1/3 55/1/3
f 9/1/3 10/1/3 42/1/3
f 23/1/3 24/1/3 56/1/3
f 10/1/3 11/1/3 43/1/3
f 24/1/3 25/1/3 57/1/3
f 11/1/3 12/1/3 44/1/3
f 25/1/3 26/1/3 58/1/3
f 12/1/3 13/1/3 45/1/3
f 26/1/3 27/1/3 59/1/3
f 13/1/3 14/1/3 46/1/3
f 27/1/3 28/1/3 60/1/3
f 14/1/3 15/1/3 47/1/3
f 1/1/3 2/1/3 33/1/3
f 28/1/3 29/1/3 61/1/3
f 15/1/3 16/1/3 48/1/3
f 2/1/3 3/1/3 35/1/3
f 29/1/3 30/1/3 62/1/3
f 16/1/3 17/1/3 49/1/3
f 3/1/3 4/1/3 36/1/3
f 30/1/3 31/1/3 63/1/3
f 17/1/3 18/1/3 50/1/3
f 4/1/3 5/1/3 37/1/3
f 31/1/3 32/1/3 64/1/3
f 18/1/3 19/1/3 51/1/3
f 5/1/3 6/1/3 38/1/3
f 32/1/3 1/1/3 34/1/3
f 19/1/3 20/1/3 52/1/3
f 6/1/3 7/1/3 39/1/3
f 20/1/3 21/1/3 53/1/3
f 7/1/3 8/1/3 40/1/3
f 21/1/3 22/1/3 54/1/3
f 84/1/93 116/1/93 115/1/93
f 36/1/5 68/1/5 67/1/5
f 63/1/94 95/1/94 94/1/94
f 50/1/7 82/1/7 81/1/7
f 37/1/8 69/1/8 68/1/8
f 64/1/95 96/1/95 95/1/95
f 51/1/80 83/1/80 82/1/80
f 38/1/96 70/1/96 69/1/96
f 34/1/12 66/1/12 96/1/12
f 52/1/82 84/1/82 83/1/82
f 39/1/97 71/1/97 70/1/97
f 53/1/98 85/1/98 84/1/98
f 40/1/16 72/1/16 71/1/16
f 54/1/86 86/1/86 85/1/86
f 41/1/99 73/1/99 72/1/99
f 55/1/100 87/1/100 86/1/100
f 42/1/101 74/1/101 73/1/101
f 56/1/21 88/1/21 87/1/21
f 43/1/22 75/1/22 74/1/22
f 57/1/102 89/1/102 88/1/102
f 44/1/70 76/1/70 75/1/70
f 58/1/103 90/1/103 89/1/103
f 45/1/104 77/1/104 76/1/104
f 59/1/27 91/1/27 90/1/27
f 46/1/28 78/1/28 77/1/28
f 60/1/105 92/1/105 91/1/105
f 47/1/30 79/1/30 78/1/30
f 33/1/31 65/1/31 66/1/31
f 61/1/106 93/1/106 92/1/106
f 48/1/33 80/1/33 79/1/33
f 35/1/34 67/1/34 65/1/34
f 62/1/107 94/1/107 93/1/107
f 119/1/100 151/1/100 150/1/100
f 70/1/108 71/1/108 103/1/108
f 85/1/109 117/1/109 116/1/109
f 71/1/110 72/1/110 104/1/110
f 86/1/111 118/1/111 117/1/111
f 72/1/112 73/1/112 105/1/112
f 86/1/113 87/1/113 119/1/113
f 73/1/43 74/1/43 106/1/43
f 88/1/114 120/1/114 119/1/114
f 75/1/45 107/1/45 106/1/45
f 89/1/115 121/1/115 120/1/115
f 75/1/116 76/1/116 108/1/116
f 90/1/117 122/1/117 121/1/117
f 76/1/118 77/1/118 109/1/118
f 91/1/50 123/1/50 122/1/50
f 77/1/51 78/1/51 110/1/51
f 92/1/52 124/1/52 123/1/52
f 79/1/53 111/1/53 110/1/53
f 66/1/54 65/1/54 97/1/54
f 93/1/119 125/1/119 124/1/119
f 79/1/120 80/1/120 112/1/120
f 67/1/121 99/1/121 97/1/121
f 94/1/122 126/1/122 125/1/122
f 81/1/59 113/1/59 112/1/59
f 67/1/60 68/1/60 100/1/60
f 95/1/61 127/1/61 126/1/61
f 82/1/123 114/1/123 113/1/123
f 69/1/63 101/1/63 100/1/63
f 95/1/124 96/1/124 128/1/124
f 83/1/125 115/1/125 114/1/125
f 69/1/126 70/1/126 102/1/126
f 96/1/127 66/1/127 98/1/127
f 130/1/128 129/1/128 131/1/128
f 131/1/3 132/1/3 133/1/3
f 133/1/3 134/1/3 135/1/3
f 135/1/129 136/1/129 137/1/129
f 137/1/129 138/1/129 139/1/129
f 139/1/130 140/1/130 141/1/130
f 141/1/131 142/1/131 143/1/131
f 143/1/3 144/1/3 145/1/3
f 145/1/3 146/1/3 147/1/3
f 147/1/3 148/1/3 149/1/3
f 149/1/129 150/1/129 151/1/129
f 151/1/130 152/1/130 153/1/130
f 153/1/130 154/1/130 155/1/130
f 155/1/3 156/1/3 157/1/3
f 157/1/132 158/1/132 159/1/132
f 159/1/3 160/1/3 130/1/3
f 130/1/3 131/1/3 133/1/3
f 133/1/3 135/1/3 137/1/3
f 137/1/128 139/1/128 141/1/128
f 141/1/3 143/1/3 145/1/3
f 145/1/3 147/1/3 149/1/3
f 149/1/133 151/1/133 153/1/133
f 153/1/3 155/1/3 157/1/3
f 157/1/3 159/1/3 130/1/3
f 130/1/3 133/1/3 137/1/3
f 137/1/3 141/1/3 145/1/3
f 145/1/3 149/1/3 153/1/3
f 153/1/3 157/1/3 130/1/3
f 130/1/3 137/1/3 145/1/3
f 106/1/101 138/1/101 137/1/101
f 120/1/68 152/1/68 151/1/68
f 107/1/134 139/1/134 138/1/134
f 121/1/102 153/1/102 152/1/102
f 108/1/135 140/1/135 139/1/135
f 122/1/103 154/1/103 153/1/103
f 109/1/71 141/1/71 140/1/71
f 123/1/72 155/1/72 154/1/72
f 110/1/136 142/1/136 141/1/136
f 124/1/137 156/1/137 155/1/137
f 111/1/30 143/1/30 142/1/30
f 97/1/31 129/1/31 130/1/31
f 125/1/32 157/1/32 156/1/32
f 112/1/33 144/1/33 143/1/33
f 99/1/76 131/1/76 129/1/76
f 126/1/77 158/1/77 157/1/77
f 113/1/138 145/1/138 144/1/138
f 100/1/139 132/1/139 131/1/139
f 127/1/6 159/1/6 158/1/6
f 114/1/7 146/1/7 145/1/7
f 101/1/140 133/1/140 132/1/140
f 128/1/9 160/1/9 159/1/9
f 115/1/10 147/1/10 146/1/10
f 102/1/81 134/1/81 133/1/81
f 98/1/12 130/1/12 160/1/12
f 116/1/141 148/1/141 147/1/141
f 103/1/14 135/1/14 134/1/14
f 117/1/84 149/1/84 148/1/84
f 104/1/142 136/1/142 135/1/142
f 118/1/86 150/1/86 149/1/86
f 105/1/99 137/1/99 136/1/99
