# Blender 4.1.1
# www.blender.org
mtllib Circle.006.mtl
o Pipe.127
v -676.377808 3595.965088 4208.056152
v -678.989624 3595.965088 4208.313477
v -681.501099 3595.965088 4209.075195
v -683.815735 3595.965088 4210.312500
v -685.844482 3595.965088 4211.977539
v -687.509460 3595.965088 4214.006348
v -688.746643 3595.965088 4216.320801
v -689.508484 3595.965088 4218.832520
v -689.765747 3595.965088 4221.444336
v -689.508484 3595.965088 4224.056152
v -688.746643 3595.965088 4226.567871
v -687.509460 3595.965088 4228.882324
v -685.844482 3595.965088 4230.911133
v -683.815735 3595.965088 4232.576172
v -681.501099 3595.965088 4233.813477
v -678.989624 3595.965088 4234.575195
v -676.377808 3595.965088 4234.832520
v -673.765930 3595.965088 4234.575195
v -671.254456 3595.965088 4233.813477
v -668.939819 3595.965088 4232.576172
v -666.911072 3595.965088 4230.911133
v -665.246094 3595.965088 4228.882324
v -664.008911 3595.965088 4226.567871
v -663.247070 3595.965088 4224.056152
v -662.989807 3595.965088 4221.444336
v -663.247070 3595.965088 4218.832520
v -664.008911 3595.965088 4216.320801
v -665.246094 3595.965088 4214.006348
v -666.911072 3595.965088 4211.977539
v -668.939819 3595.965088 4210.312500
v -671.254456 3595.965088 4209.075195
v -673.765930 3595.965088 4208.313477
v -678.989624 3595.965088 4208.313477
v -676.377808 3595.965088 4208.056152
v -681.501099 3595.965088 4209.075195
v -683.815735 3595.965088 4210.312500
v -685.844482 3595.965088 4211.977539
v -687.509460 3595.965088 4214.006348
v -688.746643 3595.965088 4216.320801
v -689.508484 3595.965088 4218.832520
v -689.765747 3595.965088 4221.444336
v -689.508484 3595.965088 4224.056152
v -688.746643 3595.965088 4226.567871
v -687.509460 3595.965088 4228.882324
v -685.844482 3595.965088 4230.911133
v -683.815735 3595.965088 4232.576172
v -681.501099 3595.965088 4233.813477
v -678.989624 3595.965088 4234.575195
v -676.377808 3595.965088 4234.832520
v -673.765930 3595.965088 4234.575195
v -671.254456 3595.965088 4233.813477
v -668.939819 3595.965088 4232.576172
v -666.911072 3595.965088 4230.911133
v -665.246094 3595.965088 4228.882324
v -664.008911 3595.965088 4226.567871
v -663.247070 3595.965088 4224.056152
v -662.989807 3595.965088 4221.444336
v -663.247070 3595.965088 4218.832520
v -664.008911 3595.965088 4216.320801
v -665.246094 3595.965088 4214.006348
v -666.911072 3595.965088 4211.977539
v -668.939819 3595.965088 4210.312500
v -671.254456 3595.965088 4209.075195
v -673.765930 3595.965088 4208.313477
v -678.989624 3634.928955 4208.313477
v -676.377808 3634.928955 4208.056152
v -681.501099 3634.928955 4209.075195
v -683.815735 3634.928955 4210.312500
v -685.844482 3634.928955 4211.977539
v -687.509460 3634.928955 4214.006348
v -688.746643 3634.928955 4216.320801
v -689.508484 3634.928955 4218.832520
v -689.765747 3634.928955 4221.444336
v -689.508484 3634.928955 4224.056152
v -688.746643 3634.928955 4226.567871
v -687.509460 3634.928955 4228.882324
v -685.844482 3634.928955 4230.911133
v -683.815735 3634.928955 4232.576172
v -681.501099 3634.928955 4233.813477
v -678.989624 3634.928955 4234.575195
v -676.377808 3634.928955 4234.832520
v -673.765930 3634.928955 4234.575195
v -671.254456 3634.928955 4233.813477
v -668.939819 3634.928955 4232.576172
v -666.911072 3634.928955 4230.911133
v -665.246094 3634.928955 4228.882324
v -664.008911 3634.928955 4226.567871
v -663.247070 3634.928955 4224.056152
v -662.989807 3634.928955 4221.444336
v -663.247070 3634.928955 4218.832520
v -664.008911 3634.928955 4216.320801
v -665.246094 3634.928955 4214.006348
v -666.911072 3634.928955 4211.977539
v -668.939819 3634.928955 4210.312500
v -671.254456 3634.928955 4209.075195
v -673.765930 3634.928955 4208.313477
v -680.802368 3635.493164 4199.200195
v -676.377808 3635.493164 4198.764160
v -685.056885 3635.493164 4200.490723
v -688.977905 3635.493164 4202.586914
v -692.414734 3635.493164 4205.407227
v -695.235229 3635.493164 4208.843750
v -697.331055 3635.493164 4212.765137
v -698.621643 3635.493164 4217.019531
v -699.057434 3635.493164 4221.443848
v -698.621643 3635.493164 4225.868652
v -697.331055 3635.493164 4230.123047
v -695.235229 3635.493164 4234.044434
v -692.414734 3635.493164 4237.480957
v -688.977905 3635.493164 4240.301758
v -685.056885 3635.493164 4242.396973
v -680.802368 3635.493164 4243.687988
v -676.377808 3635.493164 4244.123535
v -671.953186 3635.493164 4243.687988
v -667.698669 3635.493164 4242.396973
v -663.777649 3635.493164 4240.301758
v -660.340881 3635.493164 4237.480957
v -657.520386 3635.493164 4234.044434
v -655.424561 3635.493164 4230.123047
v -654.133911 3635.493164 4225.868652
v -653.698120 3635.493164 4221.443848
v -654.133911 3635.493164 4217.019531
v -655.424561 3635.493164 4212.765137
v -657.520386 3635.493164 4208.843750
v -660.340881 3635.493164 4205.407227
v -663.777649 3635.493164 4202.586914
v -667.698669 3635.493164 4200.490723
v -671.953186 3635.493164 4199.200195
v -680.802368 3644.334961 4199.200195
v -676.377808 3644.334961 4198.764160
v -685.056885 3644.334961 4200.490723
v -688.977905 3644.334961 4202.586914
v -692.414734 3644.334961 4205.407227
v -695.235229 3644.334961 4208.843750
v -697.331055 3644.334961 4212.765137
v -698.621643 3644.334961 4217.019531
v -699.057434 3644.334961 4221.443848
v -698.621643 3644.334961 4225.868652
v -697.331055 3644.334961 4230.123047
v -695.235229 3644.334961 4234.044434
v -692.414734 3644.334961 4237.480957
v -688.977905 3644.334961 4240.301758
v -685.056885 3644.334961 4242.396973
v -680.802368 3644.334961 4243.687988
v -676.377808 3644.334961 4244.123535
v -671.953186 3644.334961 4243.687988
v -667.698669 3644.334961 4242.396973
v -663.777649 3644.334961 4240.301758
v -660.340881 3644.334961 4237.480957
v -657.520386 3644.334961 4234.044434
v -655.424561 3644.334961 4230.123047
v -654.133911 3644.334961 4225.868652
v -653.698120 3644.334961 4221.443848
v -654.133911 3644.334961 4217.019531
v -655.424561 3644.334961 4212.765137
v -657.520386 3644.334961 4208.843750
v -660.340881 3644.334961 4205.407227
v -663.777649 3644.334961 4202.586914
v -667.698669 3644.334961 4200.490723
v -671.953186 3644.334961 4199.200195
vn -0.0000 -1.0000 -0.0000
vn -0.9570 -0.0000 -0.2902
vn -0.0000 1.0000 -0.0000
vn -0.0583 -0.9981 0.0177
vn 0.7730 -0.0000 0.6344
vn -0.9952 -0.0000 -0.0980
vn 0.8819 -0.0000 0.4714
vn -0.9952 -0.0000 0.0981
vn 0.9570 -0.0000 0.2902
vn -0.9570 -0.0000 0.2902
vn 0.9952 -0.0000 0.0980
vn -0.8819 -0.0000 0.4714
vn 0.9952 -0.0000 -0.0980
vn -0.7730 -0.0000 0.6344
vn 0.9569 -0.0000 -0.2903
vn -0.6344 -0.0000 0.7730
vn 0.8819 -0.0000 -0.4714
vn -0.4714 -0.0000 0.8819
vn -0.0980 -0.0000 -0.9952
vn 0.7730 -0.0000 -0.6344
vn -0.2902 -0.0000 0.9570
vn -0.2902 -0.0000 -0.9570
vn 0.6344 -0.0000 -0.7730
vn -0.0980 -0.0000 0.9952
vn -0.4714 -0.0000 -0.8819
vn 0.4714 -0.0000 -0.8819
vn 0.0980 -0.0000 0.9952
vn -0.6344 -0.0000 -0.7730
vn 0.2902 -0.0000 -0.9570
vn 0.2902 -0.0000 0.9570
vn -0.7730 -0.0000 -0.6344
vn 0.0980 -0.0000 -0.9952
vn 0.4714 -0.0000 0.8819
vn -0.8819 -0.0000 -0.4714
vn 0.6344 -0.0000 0.7730
vn 0.0606 -0.9981 0.0060
vn -0.0538 -0.9981 0.0287
vn 0.0606 -0.9981 -0.0060
vn -0.0471 -0.9981 0.0386
vn 0.0583 -0.9981 -0.0177
vn -0.0387 -0.9981 0.0471
vn 0.0537 -0.9981 -0.0287
vn -0.0287 -0.9981 0.0537
vn -0.0060 -0.9981 -0.0606
vn 0.0471 -0.9981 -0.0386
vn -0.0176 -0.9981 0.0583
vn -0.0177 -0.9981 -0.0583
vn 0.0387 -0.9981 -0.0471
vn -0.0061 -0.9981 0.0606
vn -0.0287 -0.9981 -0.0537
vn 0.0288 -0.9981 -0.0537
vn 0.0061 -0.9981 0.0606
vn -0.0386 -0.9981 -0.0471
vn 0.0177 -0.9981 -0.0583
vn 0.0176 -0.9981 0.0583
vn -0.0470 -0.9981 -0.0386
vn 0.0061 -0.9981 -0.0606
vn 0.0288 -0.9981 0.0537
vn -0.0537 -0.9981 -0.0287
vn 0.0386 -0.9981 0.0471
vn -0.0583 -0.9981 -0.0177
vn 0.0471 -0.9981 0.0386
vn -0.0606 -0.9981 -0.0060
vn 0.0535 -0.9982 0.0287
vn -0.0607 -0.9981 0.0060
vn 0.0583 -0.9981 0.0177
vn 0.2903 -0.0000 -0.9569
vn 0.2904 -0.0000 0.9569
vn 0.0981 -0.0000 -0.9952
vn 0.4713 -0.0000 0.8820
vn -0.9569 -0.0000 -0.2903
vn -0.9952 -0.0000 0.0980
vn 0.9569 -0.0000 0.2903
vn -0.9569 -0.0000 0.2903
vn -0.4713 -0.0000 0.8820
vn -0.0981 -0.0000 -0.9952
vn -0.2904 -0.0000 0.9569
vn -0.2903 -0.0000 -0.9569
vn -0.4715 -0.0000 -0.8819
vn 0.4715 -0.0000 -0.8819
vn -0.0001 -1.0000 -0.0000
vn 0.0007 -1.0000 -0.0000
vn -0.0015 -1.0000 -0.0000
vn 0.0015 -1.0000 -0.0000
vn -0.0007 -1.0000 -0.0000
vn 0.0001 -1.0000 -0.0000
vn 0.0002 -1.0000 -0.0000
vn -0.0002 -1.0000 -0.0000
vn -0.9952 -0.0000 -0.0981
vn 0.0607 -0.9981 0.0060
vn -0.0535 -0.9982 0.0287
vn -0.0470 -0.9981 0.0386
vn -0.0386 -0.9981 0.0471
vn 0.0538 -0.9981 -0.0287
vn -0.0288 -0.9981 0.0537
vn -0.0061 -0.9981 -0.0606
vn 0.0470 -0.9981 -0.0386
vn -0.0177 -0.9981 0.0583
vn 0.0386 -0.9981 -0.0471
vn -0.0060 -0.9981 0.0606
vn -0.0288 -0.9981 -0.0537
vn 0.0287 -0.9981 -0.0537
vn 0.0060 -0.9981 0.0606
vn -0.0387 -0.9981 -0.0471
vn 0.0177 -0.9981 0.0583
vn -0.0471 -0.9981 -0.0386
vn 0.0060 -0.9981 -0.0606
vn 0.0287 -0.9981 0.0537
vn -0.0538 -0.9981 -0.0287
vn 0.0387 -0.9981 0.0471
vn 0.0538 -0.9981 0.0287
vn -0.0606 -0.9981 0.0060
vn 0.0005 1.0000 -0.0000
vn 0.0003 1.0000 -0.0000
vn 0.0002 1.0000 -0.0000
vn -0.0003 1.0000 -0.0000
vn -0.0005 1.0000 -0.0000
vn -0.0001 1.0000 -0.0000
vn 0.0001 1.0000 -0.0000
vn -0.6343 -0.0000 -0.7731
vn 0.6343 -0.0000 -0.7730
vt 0.000000 0.000000
s 0
usemtl Material.003
f 19/1/1 11/1/1 3/1/1
f 40/1/2 71/1/2 39/1/2
f 26/1/3 59/1/3 58/1/3
f 13/1/3 46/1/3 45/1/3
f 27/1/3 60/1/3 59/1/3
f 14/1/3 47/1/3 46/1/3
f 1/1/3 33/1/3 34/1/3
f 28/1/3 61/1/3 60/1/3
f 15/1/3 48/1/3 47/1/3
f 2/1/3 35/1/3 33/1/3
f 29/1/3 62/1/3 61/1/3
f 16/1/3 49/1/3 48/1/3
f 3/1/3 36/1/3 35/1/3
f 30/1/3 63/1/3 62/1/3
f 17/1/3 50/1/3 49/1/3
f 4/1/3 37/1/3 36/1/3
f 31/1/3 64/1/3 63/1/3
f 18/1/3 51/1/3 50/1/3
f 5/1/3 38/1/3 37/1/3
f 32/1/3 34/1/3 64/1/3
f 19/1/3 52/1/3 51/1/3
f 6/1/3 39/1/3 38/1/3
f 20/1/3 53/1/3 52/1/3
f 7/1/3 40/1/3 39/1/3
f 21/1/3 54/1/3 53/1/3
f 8/1/3 41/1/3 40/1/3
f 22/1/3 55/1/3 54/1/3
f 9/1/3 42/1/3 41/1/3
f 23/1/3 56/1/3 55/1/3
f 10/1/3 43/1/3 42/1/3
f 24/1/3 57/1/3 56/1/3
f 11/1/3 44/1/3 43/1/3
f 25/1/3 58/1/3 57/1/3
f 12/1/3 45/1/3 44/1/3
f 75/1/4 106/1/4 74/1/4
f 54/1/5 85/1/5 53/1/5
f 41/1/6 72/1/6 40/1/6
f 55/1/7 86/1/7 54/1/7
f 42/1/8 73/1/8 41/1/8
f 56/1/9 87/1/9 55/1/9
f 43/1/10 74/1/10 42/1/10
f 57/1/11 88/1/11 56/1/11
f 44/1/12 75/1/12 43/1/12
f 58/1/13 89/1/13 57/1/13
f 45/1/14 76/1/14 44/1/14
f 59/1/15 90/1/15 58/1/15
f 46/1/16 77/1/16 45/1/16
f 60/1/17 91/1/17 59/1/17
f 47/1/18 78/1/18 46/1/18
f 33/1/19 66/1/19 34/1/19
f 61/1/20 92/1/20 60/1/20
f 48/1/21 79/1/21 47/1/21
f 35/1/22 65/1/22 33/1/22
f 62/1/23 93/1/23 61/1/23
f 49/1/24 80/1/24 48/1/24
f 36/1/25 67/1/25 35/1/25
f 63/1/26 94/1/26 62/1/26
f 50/1/27 81/1/27 49/1/27
f 37/1/28 68/1/28 36/1/28
f 64/1/29 95/1/29 63/1/29
f 51/1/30 82/1/30 50/1/30
f 38/1/31 69/1/31 37/1/31
f 34/1/32 96/1/32 64/1/32
f 52/1/33 83/1/33 51/1/33
f 39/1/34 70/1/34 38/1/34
f 53/1/35 84/1/35 52/1/35
f 114/1/27 145/1/27 113/1/27
f 89/1/36 120/1/36 88/1/36
f 75/1/37 108/1/37 107/1/37
f 90/1/38 121/1/38 89/1/38
f 77/1/39 108/1/39 76/1/39
f 91/1/40 122/1/40 90/1/40
f 78/1/41 109/1/41 77/1/41
f 92/1/42 123/1/42 91/1/42
f 78/1/43 111/1/43 110/1/43
f 66/1/44 97/1/44 98/1/44
f 93/1/45 124/1/45 92/1/45
f 79/1/46 112/1/46 111/1/46
f 67/1/47 97/1/47 65/1/47
f 93/1/48 126/1/48 125/1/48
f 81/1/49 112/1/49 80/1/49
f 67/1/50 100/1/50 99/1/50
f 95/1/51 126/1/51 94/1/51
f 82/1/52 113/1/52 81/1/52
f 68/1/53 101/1/53 100/1/53
f 95/1/54 128/1/54 127/1/54
f 82/1/55 115/1/55 114/1/55
f 69/1/56 102/1/56 101/1/56
f 66/1/57 128/1/57 96/1/57
f 84/1/58 115/1/58 83/1/58
f 71/1/59 102/1/59 70/1/59
f 84/1/60 117/1/60 116/1/60
f 71/1/61 104/1/61 103/1/61
f 86/1/62 117/1/62 85/1/62
f 72/1/63 105/1/63 104/1/63
f 87/1/64 118/1/64 86/1/64
f 73/1/65 106/1/65 105/1/65
f 88/1/66 119/1/66 87/1/66
f 145/1/3 153/1/3 130/1/3
f 101/1/28 132/1/28 100/1/28
f 128/1/67 159/1/67 127/1/67
f 115/1/68 146/1/68 114/1/68
f 102/1/31 133/1/31 101/1/31
f 98/1/69 160/1/69 128/1/69
f 116/1/70 147/1/70 115/1/70
f 103/1/34 134/1/34 102/1/34
f 117/1/35 148/1/35 116/1/35
f 104/1/71 135/1/71 103/1/71
f 118/1/5 149/1/5 117/1/5
f 105/1/6 136/1/6 104/1/6
f 119/1/7 150/1/7 118/1/7
f 106/1/72 137/1/72 105/1/72
f 120/1/73 151/1/73 119/1/73
f 107/1/74 138/1/74 106/1/74
f 121/1/11 152/1/11 120/1/11
f 108/1/12 139/1/12 107/1/12
f 122/1/13 153/1/13 121/1/13
f 109/1/14 140/1/14 108/1/14
f 123/1/15 154/1/15 122/1/15
f 110/1/16 141/1/16 109/1/16
f 124/1/17 155/1/17 123/1/17
f 111/1/75 142/1/75 110/1/75
f 97/1/76 130/1/76 98/1/76
f 125/1/20 156/1/20 124/1/20
f 112/1/77 143/1/77 111/1/77
f 99/1/78 129/1/78 97/1/78
f 126/1/23 157/1/23 125/1/23
f 113/1/24 144/1/24 112/1/24
f 100/1/79 131/1/79 99/1/79
f 127/1/80 158/1/80 126/1/80
f 3/1/81 2/1/81 1/1/81
f 1/1/1 32/1/1 31/1/1
f 31/1/82 30/1/82 29/1/82
f 29/1/83 28/1/83 27/1/83
f 27/1/84 26/1/84 25/1/84
f 25/1/84 24/1/84 23/1/84
f 23/1/85 22/1/85 21/1/85
f 21/1/82 20/1/82 19/1/82
f 19/1/86 18/1/86 17/1/86
f 17/1/1 16/1/1 15/1/1
f 15/1/85 14/1/85 13/1/85
f 13/1/84 12/1/84 11/1/84
f 11/1/83 10/1/83 9/1/83
f 9/1/83 8/1/83 7/1/83
f 7/1/82 6/1/82 5/1/82
f 5/1/85 4/1/85 3/1/85
f 3/1/1 1/1/1 31/1/1
f 31/1/87 29/1/87 27/1/87
f 27/1/1 25/1/1 23/1/1
f 23/1/87 21/1/87 19/1/87
f 19/1/1 17/1/1 15/1/1
f 15/1/88 13/1/88 11/1/88
f 11/1/1 9/1/1 7/1/1
f 7/1/88 5/1/88 3/1/88
f 3/1/1 31/1/1 27/1/1
f 27/1/81 23/1/81 19/1/81
f 19/1/1 15/1/1 11/1/1
f 11/1/86 7/1/86 3/1/86
f 3/1/1 27/1/1 19/1/1
f 40/1/71 72/1/71 71/1/71
f 26/1/3 27/1/3 59/1/3
f 13/1/3 14/1/3 46/1/3
f 27/1/3 28/1/3 60/1/3
f 14/1/3 15/1/3 47/1/3
f 1/1/3 2/1/3 33/1/3
f 28/1/3 29/1/3 61/1/3
f 15/1/3 16/1/3 48/1/3
f 2/1/3 3/1/3 35/1/3
f 29/1/3 30/1/3 62/1/3
f 16/1/3 17/1/3 49/1/3
f 3/1/3 4/1/3 36/1/3
f 30/1/3 31/1/3 63/1/3
f 17/1/3 18/1/3 50/1/3
f 4/1/3 5/1/3 37/1/3
f 31/1/3 32/1/3 64/1/3
f 18/1/3 19/1/3 51/1/3
f 5/1/3 6/1/3 38/1/3
f 32/1/3 1/1/3 34/1/3
f 19/1/3 20/1/3 52/1/3
f 6/1/3 7/1/3 39/1/3
f 20/1/3 21/1/3 53/1/3
f 7/1/3 8/1/3 40/1/3
f 21/1/3 22/1/3 54/1/3
f 8/1/3 9/1/3 41/1/3
f 22/1/3 23/1/3 55/1/3
f 9/1/3 10/1/3 42/1/3
f 23/1/3 24/1/3 56/1/3
f 10/1/3 11/1/3 43/1/3
f 24/1/3 25/1/3 57/1/3
f 11/1/3 12/1/3 44/1/3
f 25/1/3 26/1/3 58/1/3
f 12/1/3 13/1/3 45/1/3
f 75/1/4 107/1/4 106/1/4
f 54/1/5 86/1/5 85/1/5
f 41/1/89 73/1/89 72/1/89
f 55/1/7 87/1/7 86/1/7
f 42/1/72 74/1/72 73/1/72
f 56/1/73 88/1/73 87/1/73
f 43/1/74 75/1/74 74/1/74
f 57/1/11 89/1/11 88/1/11
f 44/1/12 76/1/12 75/1/12
f 58/1/13 90/1/13 89/1/13
f 45/1/14 77/1/14 76/1/14
f 59/1/15 91/1/15 90/1/15
f 46/1/16 78/1/16 77/1/16
f 60/1/17 92/1/17 91/1/17
f 47/1/18 79/1/18 78/1/18
f 33/1/19 65/1/19 66/1/19
f 61/1/20 93/1/20 92/1/20
f 48/1/21 80/1/21 79/1/21
f 35/1/22 67/1/22 65/1/22
f 62/1/23 94/1/23 93/1/23
f 49/1/24 81/1/24 80/1/24
f 36/1/25 68/1/25 67/1/25
f 63/1/26 95/1/26 94/1/26
f 50/1/27 82/1/27 81/1/27
f 37/1/28 69/1/28 68/1/28
f 64/1/29 96/1/29 95/1/29
f 51/1/30 83/1/30 82/1/30
f 38/1/31 70/1/31 69/1/31
f 34/1/32 66/1/32 96/1/32
f 52/1/33 84/1/33 83/1/33
f 39/1/34 71/1/34 70/1/34
f 53/1/35 85/1/35 84/1/35
f 114/1/27 146/1/27 145/1/27
f 89/1/90 121/1/90 120/1/90
f 75/1/91 76/1/91 108/1/91
f 90/1/38 122/1/38 121/1/38
f 77/1/92 109/1/92 108/1/92
f 91/1/40 123/1/40 122/1/40
f 78/1/93 110/1/93 109/1/93
f 92/1/94 124/1/94 123/1/94
f 78/1/95 79/1/95 111/1/95
f 66/1/96 65/1/96 97/1/96
f 93/1/97 125/1/97 124/1/97
f 79/1/98 80/1/98 112/1/98
f 67/1/47 99/1/47 97/1/47
f 93/1/99 94/1/99 126/1/99
f 81/1/100 113/1/100 112/1/100
f 67/1/101 68/1/101 100/1/101
f 95/1/102 127/1/102 126/1/102
f 82/1/103 114/1/103 113/1/103
f 68/1/104 69/1/104 101/1/104
f 95/1/54 96/1/54 128/1/54
f 82/1/105 83/1/105 115/1/105
f 69/1/106 70/1/106 102/1/106
f 66/1/107 98/1/107 128/1/107
f 84/1/108 116/1/108 115/1/108
f 71/1/109 103/1/109 102/1/109
f 84/1/110 85/1/110 117/1/110
f 71/1/61 72/1/61 104/1/61
f 86/1/62 118/1/62 117/1/62
f 72/1/63 73/1/63 105/1/63
f 87/1/111 119/1/111 118/1/111
f 73/1/112 74/1/112 106/1/112
f 88/1/66 120/1/66 119/1/66
f 130/1/3 129/1/3 131/1/3
f 131/1/3 132/1/3 133/1/3
f 133/1/3 134/1/3 135/1/3
f 135/1/113 136/1/113 137/1/113
f 137/1/113 138/1/113 139/1/113
f 139/1/3 140/1/3 141/1/3
f 141/1/114 142/1/114 143/1/114
f 143/1/115 144/1/115 145/1/115
f 145/1/116 146/1/116 147/1/116
f 147/1/3 148/1/3 149/1/3
f 149/1/3 150/1/3 151/1/3
f 151/1/117 152/1/117 153/1/117
f 153/1/117 154/1/117 155/1/117
f 155/1/3 156/1/3 157/1/3
f 157/1/3 158/1/3 159/1/3
f 159/1/3 160/1/3 130/1/3
f 130/1/3 131/1/3 133/1/3
f 133/1/118 135/1/118 137/1/118
f 137/1/3 139/1/3 141/1/3
f 141/1/3 143/1/3 145/1/3
f 145/1/3 147/1/3 149/1/3
f 149/1/3 151/1/3 153/1/3
f 153/1/119 155/1/119 157/1/119
f 157/1/3 159/1/3 130/1/3
f 130/1/3 133/1/3 137/1/3
f 137/1/3 141/1/3 145/1/3
f 145/1/3 149/1/3 153/1/3
f 153/1/3 157/1/3 130/1/3
f 130/1/3 137/1/3 145/1/3
f 101/1/120 133/1/120 132/1/120
f 128/1/67 160/1/67 159/1/67
f 115/1/68 147/1/68 146/1/68
f 102/1/31 134/1/31 133/1/31
f 98/1/69 130/1/69 160/1/69
f 116/1/70 148/1/70 147/1/70
f 103/1/34 135/1/34 134/1/34
f 117/1/35 149/1/35 148/1/35
f 104/1/71 136/1/71 135/1/71
f 118/1/5 150/1/5 149/1/5
f 105/1/6 137/1/6 136/1/6
f 119/1/7 151/1/7 150/1/7
f 106/1/72 138/1/72 137/1/72
f 120/1/73 152/1/73 151/1/73
f 107/1/74 139/1/74 138/1/74
f 121/1/11 153/1/11 152/1/11
f 108/1/12 140/1/12 139/1/12
f 122/1/13 154/1/13 153/1/13
f 109/1/14 141/1/14 140/1/14
f 123/1/15 155/1/15 154/1/15
f 110/1/16 142/1/16 141/1/16
f 124/1/17 156/1/17 155/1/17
f 111/1/75 143/1/75 142/1/75
f 97/1/76 129/1/76 130/1/76
f 125/1/20 157/1/20 156/1/20
f 112/1/77 144/1/77 143/1/77
f 99/1/78 131/1/78 129/1/78
f 126/1/121 158/1/121 157/1/121
f 113/1/24 145/1/24 144/1/24
f 100/1/79 132/1/79 131/1/79
f 127/1/80 159/1/80 158/1/80
