# Blender 4.1.1
# www.blender.org
mtllib Circle.010.mtl
o Pipe.131
v -3273.162598 3212.210938 3375.357178
v -3275.774414 3212.210938 3375.614746
v -3278.286133 3212.210938 3376.376465
v -3280.600830 3212.210938 3377.613525
v -3282.629395 3212.210938 3379.278564
v -3284.294434 3212.210938 3381.307373
v -3285.531738 3212.210938 3383.621826
v -3286.293457 3212.210938 3386.133545
v -3286.550781 3212.210938 3388.745361
v -3286.293457 3212.210938 3391.357178
v -3285.531738 3212.210938 3393.868896
v -3284.294434 3212.210938 3396.183350
v -3282.629395 3212.210938 3398.212158
v -3280.600830 3212.210938 3399.877197
v -3278.286133 3212.210938 3401.114258
v -3275.774414 3212.210938 3401.875977
v -3273.162598 3212.210938 3402.133545
v -3270.550781 3212.210938 3401.875977
v -3268.039307 3212.210938 3401.114258
v -3265.724609 3212.210938 3399.877197
v -3263.695801 3212.210938 3398.212158
v -3262.030762 3212.210938 3396.183350
v -3260.793701 3212.210938 3393.868896
v -3260.031982 3212.210938 3391.357178
v -3259.774658 3212.210938 3388.745361
v -3260.031982 3212.210938 3386.133545
v -3260.793701 3212.210938 3383.621826
v -3262.030762 3212.210938 3381.307373
v -3263.695801 3212.210938 3379.278564
v -3265.724609 3212.210938 3377.613525
v -3268.039307 3212.210938 3376.376465
v -3270.550781 3212.210938 3375.614746
v -3275.774414 3212.210938 3375.614746
v -3273.162598 3212.210938 3375.357178
v -3278.286133 3212.210938 3376.376465
v -3280.600830 3212.210938 3377.613525
v -3282.629395 3212.210938 3379.278564
v -3284.294434 3212.210938 3381.307373
v -3285.531738 3212.210938 3383.621826
v -3286.293457 3212.210938 3386.133545
v -3286.550781 3212.210938 3388.745361
v -3286.293457 3212.210938 3391.357178
v -3285.531738 3212.210938 3393.868896
v -3284.294434 3212.210938 3396.183350
v -3282.629395 3212.210938 3398.212158
v -3280.600830 3212.210938 3399.877197
v -3278.286133 3212.210938 3401.114258
v -3275.774414 3212.210938 3401.875977
v -3273.162598 3212.210938 3402.133545
v -3270.550781 3212.210938 3401.875977
v -3268.039307 3212.210938 3401.114258
v -3265.724609 3212.210938 3399.877197
v -3263.695801 3212.210938 3398.212158
v -3262.030762 3212.210938 3396.183350
v -3260.793701 3212.210938 3393.868896
v -3260.031982 3212.210938 3391.357178
v -3259.774658 3212.210938 3388.745361
v -3260.031982 3212.210938 3386.133545
v -3260.793701 3212.210938 3383.621826
v -3262.030762 3212.210938 3381.307373
v -3263.695801 3212.210938 3379.278564
v -3265.724609 3212.210938 3377.613525
v -3268.039307 3212.210938 3376.376465
v -3270.550781 3212.210938 3375.614746
v -3275.774414 3251.175049 3375.614746
v -3273.162598 3251.175049 3375.357178
v -3278.286133 3251.175049 3376.376465
v -3280.600830 3251.175049 3377.613525
v -3282.629395 3251.175049 3379.278564
v -3284.294434 3251.175049 3381.307373
v -3285.531738 3251.175049 3383.621826
v -3286.293457 3251.175049 3386.133545
v -3286.550781 3251.175049 3388.745361
v -3286.293457 3251.175049 3391.357178
v -3285.531738 3251.175049 3393.868896
v -3284.294434 3251.175049 3396.183350
v -3282.629395 3251.175049 3398.212158
v -3280.600830 3251.175049 3399.877197
v -3278.286133 3251.175049 3401.114258
v -3275.774414 3251.175049 3401.875977
v -3273.162598 3251.175049 3402.133545
v -3270.550781 3251.175049 3401.875977
v -3268.039307 3251.175049 3401.114258
v -3265.724609 3251.175049 3399.877197
v -3263.695801 3251.175049 3398.212158
v -3262.030762 3251.175049 3396.183350
v -3260.793701 3251.175049 3393.868896
v -3260.031982 3251.175049 3391.357178
v -3259.774658 3251.175049 3388.745361
v -3260.031982 3251.175049 3386.133545
v -3260.793701 3251.175049 3383.621826
v -3262.030762 3251.175049 3381.307373
v -3263.695801 3251.175049 3379.278564
v -3265.724609 3251.175049 3377.613525
v -3268.039307 3251.175049 3376.376465
v -3270.550781 3251.175049 3375.614746
v -3277.587158 3251.739014 3366.500977
v -3273.162598 3251.739014 3366.065430
v -3281.841553 3251.739014 3367.791748
v -3285.762939 3251.739014 3369.887451
v -3289.199463 3251.739014 3372.708252
v -3292.020264 3251.739014 3376.144775
v -3294.115723 3251.739014 3380.066162
v -3295.406738 3251.739014 3384.320557
v -3295.842285 3251.739014 3388.745117
v -3295.406738 3251.739014 3393.169678
v -3294.115723 3251.739014 3397.424316
v -3292.020264 3251.739014 3401.345215
v -3289.199463 3251.739014 3404.781982
v -3285.762939 3251.739014 3407.602539
v -3281.841553 3251.739014 3409.698242
v -3277.587158 3251.739014 3410.989014
v -3273.162598 3251.739014 3411.424561
v -3268.738037 3251.739014 3410.989014
v -3264.483643 3251.739014 3409.698242
v -3260.562500 3251.739014 3407.602539
v -3257.125732 3251.739014 3404.781982
v -3254.305176 3251.739014 3401.345215
v -3252.209473 3251.739014 3397.424316
v -3250.918701 3251.739014 3393.169678
v -3250.482910 3251.739014 3388.745117
v -3250.918701 3251.739014 3384.320557
v -3252.209473 3251.739014 3380.066162
v -3254.305176 3251.739014 3376.144775
v -3257.125732 3251.739014 3372.708252
v -3260.562500 3251.739014 3369.887451
v -3264.483643 3251.739014 3367.791748
v -3268.738037 3251.739014 3366.500977
v -3277.587158 3260.581055 3366.500977
v -3273.162598 3260.581055 3366.065430
v -3281.841553 3260.581055 3367.791748
v -3285.762939 3260.581055 3369.887451
v -3289.199463 3260.581055 3372.708252
v -3292.020264 3260.581055 3376.144775
v -3294.115723 3260.581055 3380.066162
v -3295.406738 3260.581055 3384.320557
v -3295.842285 3260.581055 3388.745117
v -3295.406738 3260.581055 3393.169678
v -3294.115723 3260.581055 3397.424316
v -3292.020264 3260.581055 3401.345215
v -3289.199463 3260.581055 3404.781982
v -3285.762939 3260.581055 3407.602539
v -3281.841553 3260.581055 3409.698242
v -3277.587158 3260.581055 3410.989014
v -3273.162598 3260.581055 3411.424561
v -3268.738037 3260.581055 3410.989014
v -3264.483643 3260.581055 3409.698242
v -3260.562500 3260.581055 3407.602539
v -3257.125732 3260.581055 3404.781982
v -3254.305176 3260.581055 3401.345215
v -3252.209473 3260.581055 3397.424316
v -3250.918701 3260.581055 3393.169678
v -3250.482910 3260.581055 3388.745117
v -3250.918701 3260.581055 3384.320557
v -3252.209473 3260.581055 3380.066162
v -3254.305176 3260.581055 3376.144775
v -3257.125732 3260.581055 3372.708252
v -3260.562500 3260.581055 3369.887451
v -3264.483643 3260.581055 3367.791748
v -3268.738037 3260.581055 3366.500977
vn -0.0000 -1.0000 -0.0000
vn -0.9570 -0.0000 -0.2901
vn -0.0000 1.0000 -0.0000
vn -0.0582 -0.9981 0.0177
vn 0.7730 -0.0000 0.6344
vn -0.9952 -0.0000 -0.0979
vn 0.8819 -0.0000 0.4715
vn -0.9952 -0.0000 0.0981
vn 0.9569 -0.0000 0.2903
vn -0.9569 -0.0000 0.2903
vn 0.9952 -0.0000 0.0981
vn -0.8819 -0.0000 0.4715
vn 0.9952 -0.0000 -0.0979
vn -0.7729 -0.0000 0.6345
vn 0.9570 -0.0000 -0.2901
vn -0.6345 -0.0000 0.7729
vn 0.8820 -0.0000 -0.4713
vn -0.4713 -0.0000 0.8820
vn -0.0981 -0.0000 -0.9952
vn 0.7730 -0.0000 -0.6344
vn -0.2902 -0.0000 0.9570
vn -0.2902 -0.0000 -0.9570
vn 0.6344 -0.0000 -0.7730
vn -0.0981 -0.0000 0.9952
vn -0.4714 -0.0000 -0.8819
vn 0.4714 -0.0000 -0.8819
vn 0.0981 -0.0000 0.9952
vn -0.6344 -0.0000 -0.7730
vn 0.2903 -0.0000 -0.9569
vn 0.2902 -0.0000 0.9570
vn -0.7730 -0.0000 -0.6344
vn 0.0981 -0.0000 -0.9952
vn 0.4713 -0.0000 0.8820
vn -0.8819 -0.0000 -0.4714
vn 0.6344 -0.0000 0.7730
vn 0.0980 -0.0000 0.9952
vn 0.0606 -0.9981 0.0060
vn -0.0537 -0.9981 0.0287
vn 0.0606 -0.9981 -0.0060
vn -0.0471 -0.9981 0.0386
vn 0.0583 -0.9981 -0.0177
vn -0.0387 -0.9981 0.0471
vn 0.0537 -0.9981 -0.0287
vn -0.0287 -0.9981 0.0537
vn -0.0060 -0.9981 -0.0606
vn 0.0471 -0.9981 -0.0386
vn -0.0178 -0.9981 0.0583
vn -0.0178 -0.9981 -0.0582
vn 0.0386 -0.9981 -0.0471
vn -0.0059 -0.9981 0.0606
vn -0.0288 -0.9981 -0.0537
vn 0.0286 -0.9981 -0.0537
vn 0.0060 -0.9981 0.0606
vn -0.0386 -0.9981 -0.0471
vn 0.0176 -0.9981 -0.0583
vn 0.0177 -0.9981 0.0583
vn -0.0471 -0.9981 -0.0386
vn 0.0059 -0.9981 -0.0606
vn 0.0286 -0.9981 0.0537
vn -0.0537 -0.9981 -0.0287
vn 0.0386 -0.9981 0.0471
vn -0.0583 -0.9981 -0.0177
vn 0.0471 -0.9981 0.0386
vn -0.0606 -0.9981 -0.0060
vn 0.0536 -0.9981 0.0287
vn -0.0606 -0.9981 0.0060
vn 0.0583 -0.9981 0.0177
vn -0.6345 -0.0000 -0.7729
vn 0.2903 -0.0000 0.9569
vn 0.0980 -0.0000 -0.9952
vn -0.8820 -0.0000 -0.4713
vn -0.9569 -0.0000 -0.2903
vn -0.9952 -0.0000 -0.0980
vn 0.8820 -0.0000 0.4713
vn -0.9952 -0.0000 0.0980
vn -0.8819 -0.0000 0.4714
vn 0.9952 -0.0000 -0.0980
vn -0.7730 -0.0000 0.6344
vn 0.9569 -0.0000 -0.2903
vn -0.6344 -0.0000 0.7730
vn 0.8819 -0.0000 -0.4714
vn -0.0980 -0.0000 -0.9952
vn -0.2903 -0.0000 0.9569
vn -0.2903 -0.0000 -0.9569
vn -0.0980 -0.0000 0.9952
vn 0.0002 -1.0000 -0.0000
vn -0.0007 -1.0000 -0.0000
vn 0.0007 -1.0000 -0.0000
vn -0.0004 -1.0000 -0.0000
vn -0.0002 -1.0000 -0.0000
vn 0.0004 -1.0000 -0.0000
vn -0.0583 -0.9981 0.0177
vn -0.9952 -0.0000 -0.0981
vn -0.9952 -0.0000 0.0979
vn 0.9570 -0.0000 0.2901
vn -0.9570 -0.0000 0.2901
vn 0.9952 -0.0000 0.0979
vn 0.9952 -0.0000 -0.0981
vn 0.8819 -0.0000 -0.4715
vn -0.4714 -0.0000 0.8819
vn -0.4713 -0.0000 -0.8820
vn 0.4713 -0.0000 -0.8820
vn 0.2902 -0.0000 -0.9570
vn -0.7729 -0.0000 -0.6345
vn 0.4714 -0.0000 0.8819
vn -0.8819 -0.0000 -0.4715
vn -0.0536 -0.9981 0.0287
vn -0.0386 -0.9981 0.0471
vn -0.0286 -0.9981 0.0537
vn -0.0059 -0.9981 -0.0606
vn -0.0176 -0.9981 0.0583
vn -0.0176 -0.9981 -0.0583
vn -0.0060 -0.9981 0.0606
vn -0.0286 -0.9981 -0.0537
vn 0.0287 -0.9981 -0.0537
vn 0.0059 -0.9981 0.0606
vn 0.0178 -0.9981 -0.0583
vn 0.0060 -0.9981 -0.0606
vn 0.0287 -0.9981 0.0537
vn 0.0537 -0.9981 0.0287
vn 0.0582 -0.9981 0.0177
vn 0.0005 1.0000 -0.0000
vn 0.0001 1.0000 -0.0000
vn -0.0005 1.0000 -0.0000
vn -0.0001 1.0000 -0.0000
vn 0.6343 -0.0000 0.7731
vn -0.9569 -0.0000 -0.2904
vn 0.8819 -0.0000 0.4714
vn 0.9952 -0.0000 0.0980
vn -0.8820 -0.0000 0.4713
vn 0.9569 -0.0000 -0.2904
vn 0.7729 -0.0000 -0.6345
vt 0.000000 0.000000
s 0
usemtl Material.003
f 19/1/1 11/1/1 3/1/1
f 40/1/2 71/1/2 39/1/2
f 26/1/3 59/1/3 58/1/3
f 13/1/3 46/1/3 45/1/3
f 27/1/3 60/1/3 59/1/3
f 14/1/3 47/1/3 46/1/3
f 1/1/3 33/1/3 34/1/3
f 28/1/3 61/1/3 60/1/3
f 15/1/3 48/1/3 47/1/3
f 2/1/3 35/1/3 33/1/3
f 29/1/3 62/1/3 61/1/3
f 16/1/3 49/1/3 48/1/3
f 3/1/3 36/1/3 35/1/3
f 30/1/3 63/1/3 62/1/3
f 17/1/3 50/1/3 49/1/3
f 4/1/3 37/1/3 36/1/3
f 31/1/3 64/1/3 63/1/3
f 18/1/3 51/1/3 50/1/3
f 5/1/3 38/1/3 37/1/3
f 32/1/3 34/1/3 64/1/3
f 19/1/3 52/1/3 51/1/3
f 6/1/3 39/1/3 38/1/3
f 20/1/3 53/1/3 52/1/3
f 7/1/3 40/1/3 39/1/3
f 21/1/3 54/1/3 53/1/3
f 8/1/3 41/1/3 40/1/3
f 22/1/3 55/1/3 54/1/3
f 9/1/3 42/1/3 41/1/3
f 23/1/3 56/1/3 55/1/3
f 10/1/3 43/1/3 42/1/3
f 24/1/3 57/1/3 56/1/3
f 11/1/3 44/1/3 43/1/3
f 25/1/3 58/1/3 57/1/3
f 12/1/3 45/1/3 44/1/3
f 75/1/4 106/1/4 74/1/4
f 54/1/5 85/1/5 53/1/5
f 41/1/6 72/1/6 40/1/6
f 55/1/7 86/1/7 54/1/7
f 42/1/8 73/1/8 41/1/8
f 56/1/9 87/1/9 55/1/9
f 43/1/10 74/1/10 42/1/10
f 57/1/11 88/1/11 56/1/11
f 44/1/12 75/1/12 43/1/12
f 58/1/13 89/1/13 57/1/13
f 45/1/14 76/1/14 44/1/14
f 59/1/15 90/1/15 58/1/15
f 46/1/16 77/1/16 45/1/16
f 60/1/17 91/1/17 59/1/17
f 47/1/18 78/1/18 46/1/18
f 33/1/19 66/1/19 34/1/19
f 61/1/20 92/1/20 60/1/20
f 48/1/21 79/1/21 47/1/21
f 35/1/22 65/1/22 33/1/22
f 62/1/23 93/1/23 61/1/23
f 49/1/24 80/1/24 48/1/24
f 36/1/25 67/1/25 35/1/25
f 63/1/26 94/1/26 62/1/26
f 50/1/27 81/1/27 49/1/27
f 37/1/28 68/1/28 36/1/28
f 64/1/29 95/1/29 63/1/29
f 51/1/30 82/1/30 50/1/30
f 38/1/31 69/1/31 37/1/31
f 34/1/32 96/1/32 64/1/32
f 52/1/33 83/1/33 51/1/33
f 39/1/34 70/1/34 38/1/34
f 53/1/35 84/1/35 52/1/35
f 114/1/36 145/1/36 113/1/36
f 89/1/37 120/1/37 88/1/37
f 76/1/38 107/1/38 75/1/38
f 90/1/39 121/1/39 89/1/39
f 76/1/40 109/1/40 108/1/40
f 91/1/41 122/1/41 90/1/41
f 78/1/42 109/1/42 77/1/42
f 92/1/43 123/1/43 91/1/43
f 78/1/44 111/1/44 110/1/44
f 66/1/45 97/1/45 98/1/45
f 92/1/46 125/1/46 124/1/46
f 80/1/47 111/1/47 79/1/47
f 67/1/48 97/1/48 65/1/48
f 94/1/49 125/1/49 93/1/49
f 81/1/50 112/1/50 80/1/50
f 68/1/51 99/1/51 67/1/51
f 95/1/52 126/1/52 94/1/52
f 81/1/53 114/1/53 113/1/53
f 68/1/54 101/1/54 100/1/54
f 95/1/55 128/1/55 127/1/55
f 83/1/56 114/1/56 82/1/56
f 69/1/57 102/1/57 101/1/57
f 66/1/58 128/1/58 96/1/58
f 84/1/59 115/1/59 83/1/59
f 70/1/60 103/1/60 102/1/60
f 85/1/61 116/1/61 84/1/61
f 71/1/62 104/1/62 103/1/62
f 86/1/63 117/1/63 85/1/63
f 72/1/64 105/1/64 104/1/64
f 86/1/65 119/1/65 118/1/65
f 74/1/66 105/1/66 73/1/66
f 88/1/67 119/1/67 87/1/67
f 145/1/3 153/1/3 130/1/3
f 101/1/68 132/1/68 100/1/68
f 128/1/29 159/1/29 127/1/29
f 115/1/69 146/1/69 114/1/69
f 102/1/31 133/1/31 101/1/31
f 98/1/70 160/1/70 128/1/70
f 116/1/33 147/1/33 115/1/33
f 103/1/71 134/1/71 102/1/71
f 117/1/35 148/1/35 116/1/35
f 104/1/72 135/1/72 103/1/72
f 118/1/5 149/1/5 117/1/5
f 105/1/73 136/1/73 104/1/73
f 119/1/74 150/1/74 118/1/74
f 106/1/75 137/1/75 105/1/75
f 120/1/9 151/1/9 119/1/9
f 107/1/10 138/1/10 106/1/10
f 121/1/11 152/1/11 120/1/11
f 108/1/76 139/1/76 107/1/76
f 122/1/77 153/1/77 121/1/77
f 109/1/78 140/1/78 108/1/78
f 123/1/79 154/1/79 122/1/79
f 110/1/80 141/1/80 109/1/80
f 124/1/81 155/1/81 123/1/81
f 111/1/18 142/1/18 110/1/18
f 97/1/82 130/1/82 98/1/82
f 125/1/20 156/1/20 124/1/20
f 112/1/83 143/1/83 111/1/83
f 99/1/84 129/1/84 97/1/84
f 126/1/23 157/1/23 125/1/23
f 113/1/85 144/1/85 112/1/85
f 100/1/25 131/1/25 99/1/25
f 127/1/26 158/1/26 126/1/26
f 3/1/86 2/1/86 1/1/86
f 1/1/1 32/1/1 31/1/1
f 31/1/87 30/1/87 29/1/87
f 29/1/1 28/1/1 27/1/1
f 27/1/1 26/1/1 25/1/1
f 25/1/88 24/1/88 23/1/88
f 23/1/1 22/1/1 21/1/1
f 21/1/89 20/1/89 19/1/89
f 19/1/90 18/1/90 17/1/90
f 17/1/1 16/1/1 15/1/1
f 15/1/88 14/1/88 13/1/88
f 13/1/1 12/1/1 11/1/1
f 11/1/1 10/1/1 9/1/1
f 9/1/87 8/1/87 7/1/87
f 7/1/1 6/1/1 5/1/1
f 5/1/91 4/1/91 3/1/91
f 3/1/1 1/1/1 31/1/1
f 31/1/1 29/1/1 27/1/1
f 27/1/1 25/1/1 23/1/1
f 23/1/1 21/1/1 19/1/1
f 19/1/1 17/1/1 15/1/1
f 15/1/1 13/1/1 11/1/1
f 11/1/1 9/1/1 7/1/1
f 7/1/1 5/1/1 3/1/1
f 3/1/1 31/1/1 27/1/1
f 27/1/1 23/1/1 19/1/1
f 19/1/1 15/1/1 11/1/1
f 11/1/1 7/1/1 3/1/1
f 3/1/1 27/1/1 19/1/1
f 40/1/72 72/1/72 71/1/72
f 26/1/3 27/1/3 59/1/3
f 13/1/3 14/1/3 46/1/3
f 27/1/3 28/1/3 60/1/3
f 14/1/3 15/1/3 47/1/3
f 1/1/3 2/1/3 33/1/3
f 28/1/3 29/1/3 61/1/3
f 15/1/3 16/1/3 48/1/3
f 2/1/3 3/1/3 35/1/3
f 29/1/3 30/1/3 62/1/3
f 16/1/3 17/1/3 49/1/3
f 3/1/3 4/1/3 36/1/3
f 30/1/3 31/1/3 63/1/3
f 17/1/3 18/1/3 50/1/3
f 4/1/3 5/1/3 37/1/3
f 31/1/3 32/1/3 64/1/3
f 18/1/3 19/1/3 51/1/3
f 5/1/3 6/1/3 38/1/3
f 32/1/3 1/1/3 34/1/3
f 19/1/3 20/1/3 52/1/3
f 6/1/3 7/1/3 39/1/3
f 20/1/3 21/1/3 53/1/3
f 7/1/3 8/1/3 40/1/3
f 21/1/3 22/1/3 54/1/3
f 8/1/3 9/1/3 41/1/3
f 22/1/3 23/1/3 55/1/3
f 9/1/3 10/1/3 42/1/3
f 23/1/3 24/1/3 56/1/3
f 10/1/3 11/1/3 43/1/3
f 24/1/3 25/1/3 57/1/3
f 11/1/3 12/1/3 44/1/3
f 25/1/3 26/1/3 58/1/3
f 12/1/3 13/1/3 45/1/3
f 75/1/92 107/1/92 106/1/92
f 54/1/5 86/1/5 85/1/5
f 41/1/93 73/1/93 72/1/93
f 55/1/74 87/1/74 86/1/74
f 42/1/94 74/1/94 73/1/94
f 56/1/95 88/1/95 87/1/95
f 43/1/96 75/1/96 74/1/96
f 57/1/97 89/1/97 88/1/97
f 44/1/76 76/1/76 75/1/76
f 58/1/98 90/1/98 89/1/98
f 45/1/78 77/1/78 76/1/78
f 59/1/79 91/1/79 90/1/79
f 46/1/80 78/1/80 77/1/80
f 60/1/99 92/1/99 91/1/99
f 47/1/100 79/1/100 78/1/100
f 33/1/19 65/1/19 66/1/19
f 61/1/20 93/1/20 92/1/20
f 48/1/21 80/1/21 79/1/21
f 35/1/22 67/1/22 65/1/22
f 62/1/23 94/1/23 93/1/23
f 49/1/24 81/1/24 80/1/24
f 36/1/101 68/1/101 67/1/101
f 63/1/102 95/1/102 94/1/102
f 50/1/27 82/1/27 81/1/27
f 37/1/68 69/1/68 68/1/68
f 64/1/103 96/1/103 95/1/103
f 51/1/69 83/1/69 82/1/69
f 38/1/104 70/1/104 69/1/104
f 34/1/32 66/1/32 96/1/32
f 52/1/105 84/1/105 83/1/105
f 39/1/106 71/1/106 70/1/106
f 53/1/35 85/1/35 84/1/35
f 114/1/36 146/1/36 145/1/36
f 89/1/37 121/1/37 120/1/37
f 76/1/107 108/1/107 107/1/107
f 90/1/39 122/1/39 121/1/39
f 76/1/40 77/1/40 109/1/40
f 91/1/41 123/1/41 122/1/41
f 78/1/108 110/1/108 109/1/108
f 92/1/43 124/1/43 123/1/43
f 78/1/109 79/1/109 111/1/109
f 66/1/110 65/1/110 97/1/110
f 92/1/46 93/1/46 125/1/46
f 80/1/111 112/1/111 111/1/111
f 67/1/112 99/1/112 97/1/112
f 94/1/49 126/1/49 125/1/49
f 81/1/113 113/1/113 112/1/113
f 68/1/114 100/1/114 99/1/114
f 95/1/115 127/1/115 126/1/115
f 81/1/116 82/1/116 114/1/116
f 68/1/54 69/1/54 101/1/54
f 95/1/117 96/1/117 128/1/117
f 83/1/56 115/1/56 114/1/56
f 69/1/57 70/1/57 102/1/57
f 66/1/118 98/1/118 128/1/118
f 84/1/119 116/1/119 115/1/119
f 70/1/60 71/1/60 103/1/60
f 85/1/61 117/1/61 116/1/61
f 71/1/62 72/1/62 104/1/62
f 86/1/63 118/1/63 117/1/63
f 72/1/64 73/1/64 105/1/64
f 86/1/120 87/1/120 119/1/120
f 74/1/66 106/1/66 105/1/66
f 88/1/121 120/1/121 119/1/121
f 130/1/3 129/1/3 131/1/3
f 131/1/3 132/1/3 133/1/3
f 133/1/3 134/1/3 135/1/3
f 135/1/122 136/1/122 137/1/122
f 137/1/122 138/1/122 139/1/122
f 139/1/122 140/1/122 141/1/122
f 141/1/3 142/1/3 143/1/3
f 143/1/123 144/1/123 145/1/123
f 145/1/3 146/1/3 147/1/3
f 147/1/3 148/1/3 149/1/3
f 149/1/124 150/1/124 151/1/124
f 151/1/124 152/1/124 153/1/124
f 153/1/124 154/1/124 155/1/124
f 155/1/3 156/1/3 157/1/3
f 157/1/3 158/1/3 159/1/3
f 159/1/125 160/1/125 130/1/125
f 130/1/125 131/1/125 133/1/125
f 133/1/125 135/1/125 137/1/125
f 137/1/125 139/1/125 141/1/125
f 141/1/3 143/1/3 145/1/3
f 145/1/3 147/1/3 149/1/3
f 149/1/123 151/1/123 153/1/123
f 153/1/123 155/1/123 157/1/123
f 157/1/123 159/1/123 130/1/123
f 130/1/3 133/1/3 137/1/3
f 137/1/3 141/1/3 145/1/3
f 145/1/3 149/1/3 153/1/3
f 153/1/3 157/1/3 130/1/3
f 130/1/3 137/1/3 145/1/3
f 101/1/28 133/1/28 132/1/28
f 128/1/29 160/1/29 159/1/29
f 115/1/69 147/1/69 146/1/69
f 102/1/104 134/1/104 133/1/104
f 98/1/70 130/1/70 160/1/70
f 116/1/105 148/1/105 147/1/105
f 103/1/34 135/1/34 134/1/34
f 117/1/126 149/1/126 148/1/126
f 104/1/127 136/1/127 135/1/127
f 118/1/5 150/1/5 149/1/5
f 105/1/73 137/1/73 136/1/73
f 119/1/128 151/1/128 150/1/128
f 106/1/75 138/1/75 137/1/75
f 120/1/9 152/1/9 151/1/9
f 107/1/10 139/1/10 138/1/10
f 121/1/129 153/1/129 152/1/129
f 108/1/130 140/1/130 139/1/130
f 122/1/98 154/1/98 153/1/98
f 109/1/78 141/1/78 140/1/78
f 123/1/131 155/1/131 154/1/131
f 110/1/80 142/1/80 141/1/80
f 124/1/17 156/1/17 155/1/17
f 111/1/100 143/1/100 142/1/100
f 97/1/82 129/1/82 130/1/82
f 125/1/132 157/1/132 156/1/132
f 112/1/83 144/1/83 143/1/83
f 99/1/84 131/1/84 129/1/84
f 126/1/23 158/1/23 157/1/23
f 113/1/85 145/1/85 144/1/85
f 100/1/101 132/1/101 131/1/101
f 127/1/102 159/1/102 158/1/102
