# Blender 4.1.1
# www.blender.org
mtllib Circle.602.mtl
o Circle.001
v 2293.910645 2497.627441 4700.276367
v 2291.740967 2497.627441 4700.489746
v 2289.654541 2497.627441 4701.123047
v 2287.731689 2497.627441 4702.150391
v 2286.046387 2497.627441 4703.533691
v 2284.663330 2497.627441 4705.219238
v 2283.635498 2497.627441 4707.142090
v 2283.002686 2497.627441 4709.228027
v 2282.789062 2497.627441 4711.397949
v 2283.002686 2497.627441 4713.567871
v 2283.635498 2497.627441 4715.653809
v 2284.663330 2497.627441 4717.576660
v 2286.046387 2497.627441 4719.262207
v 2287.731689 2497.627441 4720.645508
v 2289.654541 2497.627441 4721.672852
v 2291.740967 2497.627441 4722.306152
v 2293.910645 2497.627441 4722.519531
v 2296.080322 2497.627441 4722.306152
v 2298.166748 2497.627441 4721.672852
v 2300.089600 2497.627441 4720.645508
v 2301.774902 2497.627441 4719.262207
v 2303.157959 2497.627441 4717.576660
v 2304.185791 2497.627441 4715.653809
v 2304.818604 2497.627441 4713.567871
v 2305.032227 2497.627441 4711.397949
v 2304.818604 2497.627441 4709.228027
v 2304.185791 2497.627441 4707.142090
v 2303.157959 2497.627441 4705.219238
v 2301.774902 2497.627441 4703.533691
v 2300.089600 2497.627441 4702.150391
v 2298.166748 2497.627441 4701.123047
v 2296.080322 2497.627441 4700.489746
v 2291.740967 2497.627441 4700.489746
v 2293.910645 2497.627441 4700.276367
v 2289.654541 2497.627441 4701.123047
v 2287.731689 2497.627441 4702.150391
v 2286.046387 2497.627441 4703.533691
v 2284.663330 2497.627441 4705.219238
v 2283.635498 2497.627441 4707.142090
v 2283.002686 2497.627441 4709.228027
v 2282.789062 2497.627441 4711.397949
v 2283.002686 2497.627441 4713.567871
v 2283.635498 2497.627441 4715.653809
v 2284.663330 2497.627441 4717.576660
v 2286.046387 2497.627441 4719.262207
v 2287.731689 2497.627441 4720.645508
v 2289.654541 2497.627441 4721.672852
v 2291.740967 2497.627441 4722.306152
v 2293.910645 2497.627441 4722.519531
v 2296.080322 2497.627441 4722.306152
v 2298.166748 2497.627441 4721.672852
v 2300.089600 2497.627441 4720.645508
v 2301.774902 2497.627441 4719.262207
v 2303.157959 2497.627441 4717.576660
v 2304.185791 2497.627441 4715.653809
v 2304.818604 2497.627441 4713.567871
v 2305.032227 2497.627441 4711.397949
v 2304.818604 2497.627441 4709.228027
v 2304.185791 2497.627441 4707.142090
v 2303.157959 2497.627441 4705.219238
v 2301.774902 2497.627441 4703.533691
v 2300.089600 2497.627441 4702.150391
v 2298.166748 2497.627441 4701.123047
v 2296.080322 2497.627441 4700.489746
v 2291.740967 2526.988770 4700.489746
v 2293.910645 2526.988770 4700.276367
v 2289.654541 2526.988770 4701.123047
v 2287.731689 2526.988770 4702.150391
v 2286.046387 2526.988770 4703.533691
v 2284.663330 2526.988770 4705.219238
v 2283.635498 2526.988770 4707.142090
v 2283.002686 2526.988770 4709.228027
v 2282.789062 2526.988770 4711.397949
v 2283.002686 2526.988770 4713.567871
v 2283.635498 2526.988770 4715.653809
v 2284.663330 2526.988770 4717.576660
v 2286.046387 2526.988770 4719.262207
v 2287.731689 2526.988770 4720.645508
v 2289.654541 2526.988770 4721.672852
v 2291.740967 2526.988770 4722.306152
v 2293.910645 2526.988770 4722.519531
v 2296.080322 2526.988770 4722.306152
v 2298.166748 2526.988770 4721.672852
v 2300.089600 2526.988770 4720.645508
v 2301.774902 2526.988770 4719.262207
v 2303.157959 2526.988770 4717.576660
v 2304.185791 2526.988770 4715.653809
v 2304.818604 2526.988770 4713.567871
v 2305.032227 2526.988770 4711.397949
v 2304.818604 2526.988770 4709.228027
v 2304.185791 2526.988770 4707.142090
v 2303.157959 2526.988770 4705.219238
v 2301.774902 2526.988770 4703.533691
v 2300.089600 2526.988770 4702.150391
v 2298.166748 2526.988770 4701.123047
v 2296.080322 2526.988770 4700.489746
v 2290.245361 2528.339844 4692.969238
v 2293.910889 2528.339844 4692.608398
v 2286.720459 2528.339844 4694.038574
v 2283.472168 2528.339844 4695.774902
v 2280.624756 2528.339844 4698.111328
v 2278.288086 2528.339844 4700.958496
v 2276.551758 2528.339844 4704.207031
v 2275.482666 2528.339844 4707.731934
v 2275.121582 2528.339844 4711.397461
v 2275.482666 2528.339844 4715.062988
v 2276.551758 2528.339844 4718.587891
v 2278.288086 2528.339844 4721.836426
v 2280.624756 2528.339844 4724.683594
v 2283.472168 2528.339844 4727.020020
v 2286.720459 2528.339844 4728.756348
v 2290.245361 2528.339844 4729.825684
v 2293.910889 2528.339844 4730.186523
v 2297.576416 2528.339844 4729.825684
v 2301.101318 2528.339844 4728.756348
v 2304.349609 2528.339844 4727.020020
v 2307.196777 2528.339844 4724.683594
v 2309.533691 2528.339844 4721.836426
v 2311.269775 2528.339844 4718.587891
v 2312.339111 2528.339844 4715.062988
v 2312.700195 2528.339844 4711.397461
v 2312.339111 2528.339844 4707.731934
v 2311.269775 2528.339844 4704.207031
v 2309.533691 2528.339844 4700.958496
v 2307.196777 2528.339844 4698.111328
v 2304.349609 2528.339844 4695.774902
v 2301.101318 2528.339844 4694.038574
v 2297.576416 2528.339844 4692.969238
v 2290.245361 2538.305664 4692.969238
v 2293.910889 2538.305664 4692.608398
v 2286.720459 2538.305664 4694.038574
v 2283.472168 2538.305664 4695.774902
v 2280.624756 2538.305664 4698.111328
v 2278.288086 2538.305664 4700.958496
v 2276.551758 2538.305664 4704.207031
v 2275.482666 2538.305664 4707.731934
v 2275.121582 2538.305664 4711.397461
v 2275.482666 2538.305664 4715.062988
v 2276.551758 2538.305664 4718.587891
v 2278.288086 2538.305664 4721.836426
v 2280.624756 2538.305664 4724.683594
v 2283.472168 2538.305664 4727.020020
v 2286.720459 2538.305664 4728.756348
v 2290.245361 2538.305664 4729.825684
v 2293.910889 2538.305664 4730.186523
v 2297.576416 2538.305664 4729.825684
v 2301.101318 2538.305664 4728.756348
v 2304.349609 2538.305664 4727.020020
v 2307.196777 2538.305664 4724.683594
v 2309.533691 2538.305664 4721.836426
v 2311.269775 2538.305664 4718.587891
v 2312.339111 2538.305664 4715.062988
v 2312.700195 2538.305664 4711.397461
v 2312.339111 2538.305664 4707.731934
v 2311.269775 2538.305664 4704.207031
v 2309.533691 2538.305664 4700.958496
v 2307.196777 2538.305664 4698.111328
v 2304.349609 2538.305664 4695.774902
v 2301.101318 2538.305664 4694.038574
v 2297.576416 2538.305664 4692.969238
vn -0.0000 -1.0000 -0.0000
vn -0.0979 -0.0000 0.9952
vn -0.0000 1.0000 -0.0000
vn 0.0821 -0.9847 0.1537
vn -0.4713 -0.0000 -0.8820
vn 0.4712 -0.0000 -0.8820
vn 0.0979 -0.0000 0.9952
vn -0.6344 -0.0000 -0.7730
vn 0.2905 -0.0000 -0.9569
vn 0.2904 -0.0000 0.9569
vn -0.7731 -0.0000 -0.6343
vn 0.0979 -0.0000 -0.9952
vn 0.4713 -0.0000 0.8820
vn -0.8820 -0.0000 -0.4713
vn 0.6346 -0.0000 0.7729
vn -0.9569 -0.0000 -0.2903
vn 0.7732 -0.0000 0.6342
vn -0.9952 -0.0000 -0.0979
vn 0.8819 -0.0000 0.4715
vn -0.9952 -0.0000 0.0981
vn 0.9569 -0.0000 0.2903
vn -0.9569 -0.0000 0.2903
vn 0.9952 -0.0000 0.0976
vn -0.8819 -0.0000 0.4715
vn 0.9952 -0.0000 -0.0981
vn -0.7731 -0.0000 0.6343
vn 0.9569 -0.0000 -0.2905
vn -0.6344 -0.0000 0.7730
vn 0.8820 -0.0000 -0.4713
vn -0.4713 -0.0000 0.8820
vn -0.0979 -0.0000 -0.9952
vn 0.7731 -0.0000 -0.6343
vn -0.2904 -0.0000 0.9569
vn -0.2905 -0.0000 -0.9569
vn 0.6343 -0.0000 -0.7731
vn 0.8820 -0.0000 0.4713
vn -0.1537 -0.9847 -0.0821
vn 0.1106 -0.9847 0.1348
vn -0.1669 -0.9847 -0.0506
vn 0.1348 -0.9847 0.1106
vn -0.1736 -0.9847 -0.0171
vn 0.1537 -0.9847 0.0822
vn -0.1735 -0.9847 0.0171
vn 0.1668 -0.9847 0.0506
vn -0.1668 -0.9847 0.0506
vn 0.1735 -0.9847 0.0171
vn -0.1537 -0.9847 0.0822
vn 0.1736 -0.9847 -0.0171
vn -0.1348 -0.9847 0.1106
vn 0.1669 -0.9847 -0.0506
vn -0.1105 -0.9847 0.1348
vn 0.1536 -0.9847 -0.0821
vn -0.0822 -0.9847 0.1538
vn -0.0169 -0.9847 -0.1735
vn 0.1346 -0.9847 -0.1105
vn -0.0506 -0.9847 0.1668
vn -0.0506 -0.9847 -0.1668
vn 0.1105 -0.9847 -0.1348
vn -0.0171 -0.9847 0.1735
vn -0.0823 -0.9847 -0.1538
vn 0.0821 -0.9847 -0.1538
vn 0.0171 -0.9847 0.1735
vn -0.1105 -0.9847 -0.1348
vn 0.0506 -0.9847 -0.1668
vn 0.0506 -0.9847 0.1668
vn -0.1348 -0.9847 -0.1106
vn 0.0171 -0.9847 -0.1735
vn -0.9570 -0.0000 0.2902
vn 0.9952 -0.0000 0.0980
vn -0.8819 -0.0000 0.4714
vn -0.7730 -0.0000 0.6344
vn 0.9569 -0.0000 -0.2903
vn -0.4715 -0.0000 0.8819
vn -0.0980 -0.0000 -0.9952
vn 0.7730 -0.0000 -0.6344
vn -0.2903 -0.0000 0.9569
vn -0.2903 -0.0000 -0.9569
vn 0.6344 -0.0000 -0.7730
vn -0.0980 -0.0000 0.9952
vn -0.4714 -0.0000 -0.8819
vn 0.4714 -0.0000 -0.8819
vn 0.0980 -0.0000 0.9952
vn -0.6343 -0.0000 -0.7731
vn 0.2903 -0.0000 -0.9569
vn 0.2903 -0.0000 0.9569
vn -0.7730 -0.0000 -0.6344
vn 0.0980 -0.0000 -0.9952
vn 0.4714 -0.0000 0.8819
vn -0.8819 -0.0000 -0.4714
vn 0.6344 -0.0000 0.7730
vn 0.7730 -0.0000 0.6344
vn -0.0005 -1.0000 -0.0000
vn 0.0011 -1.0000 -0.0000
vn 0.0005 -1.0000 -0.0000
vn -0.0011 -1.0000 -0.0000
vn -0.0003 -1.0000 -0.0000
vn -0.0001 -1.0000 -0.0000
vn 0.0003 -1.0000 -0.0000
vn 0.0001 -1.0000 -0.0000
vn 0.0822 -0.9847 0.1538
vn 0.4713 -0.0000 -0.8820
vn 0.2904 -0.0000 -0.9569
vn 0.2905 -0.0000 0.9569
vn 0.4712 -0.0000 0.8820
vn -0.8819 -0.0000 -0.4715
vn 0.6343 -0.0000 0.7731
vn 0.7731 -0.0000 0.6343
vn -0.9952 -0.0000 -0.0981
vn -0.9952 -0.0000 0.0979
vn 0.9569 -0.0000 0.2905
vn 0.9952 -0.0000 0.0981
vn -0.8820 -0.0000 0.4713
vn 0.9952 -0.0000 -0.0976
vn 0.8819 -0.0000 -0.4715
vn 0.7732 -0.0000 -0.6342
vn -0.2905 -0.0000 0.9569
vn -0.2904 -0.0000 -0.9569
vn 0.6346 -0.0000 -0.7729
vn -0.1537 -0.9847 -0.0822
vn 0.1105 -0.9847 0.1348
vn -0.1668 -0.9847 -0.0506
vn 0.1349 -0.9847 0.1106
vn 0.1538 -0.9847 0.0822
vn -0.1736 -0.9847 0.0171
vn 0.1669 -0.9847 0.0506
vn 0.1735 -0.9847 -0.0171
vn -0.1106 -0.9847 0.1348
vn 0.1538 -0.9847 -0.0822
vn -0.0821 -0.9847 0.1538
vn -0.0171 -0.9847 -0.1735
vn 0.1348 -0.9847 -0.1106
vn 0.1107 -0.9847 -0.1348
vn -0.0821 -0.9847 -0.1537
vn 0.0822 -0.9847 -0.1537
vn -0.1107 -0.9847 -0.1348
vn 0.0506 -0.9847 0.1669
vn -0.1347 -0.9847 -0.1106
vn 0.0169 -0.9847 -0.1735
vn 0.0001 1.0000 -0.0000
vn -0.0001 1.0000 -0.0000
vn 0.9952 -0.0000 -0.0980
vn -0.6343 -0.0000 0.7731
vn -0.4714 -0.0000 0.8819
vn -0.4715 -0.0000 -0.8819
vn -0.9570 -0.0000 -0.2902
vt 0.000000 0.000000
s 0
usemtl Material.003
f 19/1/1 11/1/1 3/1/1
f 49/1/2 80/1/2 48/1/2
f 8/1/3 41/1/3 40/1/3
f 22/1/3 55/1/3 54/1/3
f 9/1/3 42/1/3 41/1/3
f 23/1/3 56/1/3 55/1/3
f 10/1/3 43/1/3 42/1/3
f 24/1/3 57/1/3 56/1/3
f 11/1/3 44/1/3 43/1/3
f 25/1/3 58/1/3 57/1/3
f 12/1/3 45/1/3 44/1/3
f 26/1/3 59/1/3 58/1/3
f 13/1/3 46/1/3 45/1/3
f 27/1/3 60/1/3 59/1/3
f 14/1/3 47/1/3 46/1/3
f 1/1/3 33/1/3 34/1/3
f 28/1/3 61/1/3 60/1/3
f 15/1/3 48/1/3 47/1/3
f 2/1/3 35/1/3 33/1/3
f 29/1/3 62/1/3 61/1/3
f 16/1/3 49/1/3 48/1/3
f 3/1/3 36/1/3 35/1/3
f 30/1/3 63/1/3 62/1/3
f 17/1/3 50/1/3 49/1/3
f 4/1/3 37/1/3 36/1/3
f 31/1/3 64/1/3 63/1/3
f 18/1/3 51/1/3 50/1/3
f 5/1/3 38/1/3 37/1/3
f 32/1/3 34/1/3 64/1/3
f 19/1/3 52/1/3 51/1/3
f 6/1/3 39/1/3 38/1/3
f 20/1/3 53/1/3 52/1/3
f 7/1/3 40/1/3 39/1/3
f 21/1/3 54/1/3 53/1/3
f 84/1/4 115/1/4 83/1/4
f 36/1/5 67/1/5 35/1/5
f 63/1/6 94/1/6 62/1/6
f 50/1/7 81/1/7 49/1/7
f 37/1/8 68/1/8 36/1/8
f 64/1/9 95/1/9 63/1/9
f 51/1/10 82/1/10 50/1/10
f 38/1/11 69/1/11 37/1/11
f 34/1/12 96/1/12 64/1/12
f 52/1/13 83/1/13 51/1/13
f 39/1/14 70/1/14 38/1/14
f 53/1/15 84/1/15 52/1/15
f 40/1/16 71/1/16 39/1/16
f 54/1/17 85/1/17 53/1/17
f 41/1/18 72/1/18 40/1/18
f 55/1/19 86/1/19 54/1/19
f 42/1/20 73/1/20 41/1/20
f 56/1/21 87/1/21 55/1/21
f 43/1/22 74/1/22 42/1/22
f 57/1/23 88/1/23 56/1/23
f 44/1/24 75/1/24 43/1/24
f 58/1/25 89/1/25 57/1/25
f 45/1/26 76/1/26 44/1/26
f 59/1/27 90/1/27 58/1/27
f 46/1/28 77/1/28 45/1/28
f 60/1/29 91/1/29 59/1/29
f 47/1/30 78/1/30 46/1/30
f 33/1/31 66/1/31 34/1/31
f 61/1/32 92/1/32 60/1/32
f 48/1/33 79/1/33 47/1/33
f 35/1/34 65/1/34 33/1/34
f 62/1/35 93/1/35 61/1/35
f 119/1/36 150/1/36 118/1/36
f 71/1/37 102/1/37 70/1/37
f 84/1/38 117/1/38 116/1/38
f 71/1/39 104/1/39 103/1/39
f 86/1/40 117/1/40 85/1/40
f 72/1/41 105/1/41 104/1/41
f 86/1/42 119/1/42 118/1/42
f 73/1/43 106/1/43 105/1/43
f 88/1/44 119/1/44 87/1/44
f 74/1/45 107/1/45 106/1/45
f 88/1/46 121/1/46 120/1/46
f 75/1/47 108/1/47 107/1/47
f 90/1/48 121/1/48 89/1/48
f 77/1/49 108/1/49 76/1/49
f 91/1/50 122/1/50 90/1/50
f 77/1/51 110/1/51 109/1/51
f 92/1/52 123/1/52 91/1/52
f 78/1/53 111/1/53 110/1/53
f 65/1/54 98/1/54 66/1/54
f 93/1/55 124/1/55 92/1/55
f 80/1/56 111/1/56 79/1/56
f 65/1/57 99/1/57 97/1/57
f 94/1/58 125/1/58 93/1/58
f 81/1/59 112/1/59 80/1/59
f 68/1/60 99/1/60 67/1/60
f 95/1/61 126/1/61 94/1/61
f 82/1/62 113/1/62 81/1/62
f 69/1/63 100/1/63 68/1/63
f 96/1/64 127/1/64 95/1/64
f 82/1/65 115/1/65 114/1/65
f 69/1/66 102/1/66 101/1/66
f 96/1/67 98/1/67 128/1/67
f 145/1/3 153/1/3 130/1/3
f 106/1/20 137/1/20 105/1/20
f 120/1/21 151/1/21 119/1/21
f 107/1/68 138/1/68 106/1/68
f 121/1/69 152/1/69 120/1/69
f 108/1/70 139/1/70 107/1/70
f 122/1/25 153/1/25 121/1/25
f 109/1/71 140/1/71 108/1/71
f 123/1/72 154/1/72 122/1/72
f 110/1/28 141/1/28 109/1/28
f 124/1/29 155/1/29 123/1/29
f 111/1/73 142/1/73 110/1/73
f 97/1/74 130/1/74 98/1/74
f 125/1/75 156/1/75 124/1/75
f 112/1/76 143/1/76 111/1/76
f 99/1/77 129/1/77 97/1/77
f 126/1/78 157/1/78 125/1/78
f 113/1/79 144/1/79 112/1/79
f 100/1/80 131/1/80 99/1/80
f 127/1/81 158/1/81 126/1/81
f 114/1/82 145/1/82 113/1/82
f 101/1/83 132/1/83 100/1/83
f 128/1/84 159/1/84 127/1/84
f 115/1/85 146/1/85 114/1/85
f 102/1/86 133/1/86 101/1/86
f 98/1/87 160/1/87 128/1/87
f 116/1/88 147/1/88 115/1/88
f 103/1/89 134/1/89 102/1/89
f 117/1/90 148/1/90 116/1/90
f 104/1/16 135/1/16 103/1/16
f 118/1/91 149/1/91 117/1/91
f 105/1/18 136/1/18 104/1/18
f 3/1/1 2/1/1 1/1/1
f 1/1/1 32/1/1 31/1/1
f 31/1/92 30/1/92 29/1/92
f 29/1/93 28/1/93 27/1/93
f 27/1/1 26/1/1 25/1/1
f 25/1/1 24/1/1 23/1/1
f 23/1/93 22/1/93 21/1/93
f 21/1/92 20/1/92 19/1/92
f 19/1/1 18/1/1 17/1/1
f 17/1/1 16/1/1 15/1/1
f 15/1/94 14/1/94 13/1/94
f 13/1/95 12/1/95 11/1/95
f 11/1/1 10/1/1 9/1/1
f 9/1/1 8/1/1 7/1/1
f 7/1/95 6/1/95 5/1/95
f 5/1/94 4/1/94 3/1/94
f 3/1/1 1/1/1 31/1/1
f 31/1/96 29/1/96 27/1/96
f 27/1/1 25/1/1 23/1/1
f 23/1/97 21/1/97 19/1/97
f 19/1/1 17/1/1 15/1/1
f 15/1/98 13/1/98 11/1/98
f 11/1/1 9/1/1 7/1/1
f 7/1/99 5/1/99 3/1/99
f 3/1/1 31/1/1 27/1/1
f 27/1/1 23/1/1 19/1/1
f 19/1/1 15/1/1 11/1/1
f 11/1/1 7/1/1 3/1/1
f 3/1/1 27/1/1 19/1/1
f 49/1/2 81/1/2 80/1/2
f 8/1/3 9/1/3 41/1/3
f 22/1/3 23/1/3 55/1/3
f 9/1/3 10/1/3 42/1/3
f 23/1/3 24/1/3 56/1/3
f 10/1/3 11/1/3 43/1/3
f 24/1/3 25/1/3 57/1/3
f 11/1/3 12/1/3 44/1/3
f 25/1/3 26/1/3 58/1/3
f 12/1/3 13/1/3 45/1/3
f 26/1/3 27/1/3 59/1/3
f 13/1/3 14/1/3 46/1/3
f 27/1/3 28/1/3 60/1/3
f 14/1/3 15/1/3 47/1/3
f 1/1/3 2/1/3 33/1/3
f 28/1/3 29/1/3 61/1/3
f 15/1/3 16/1/3 48/1/3
f 2/1/3 3/1/3 35/1/3
f 29/1/3 30/1/3 62/1/3
f 16/1/3 17/1/3 49/1/3
f 3/1/3 4/1/3 36/1/3
f 30/1/3 31/1/3 63/1/3
f 17/1/3 18/1/3 50/1/3
f 4/1/3 5/1/3 37/1/3
f 31/1/3 32/1/3 64/1/3
f 18/1/3 19/1/3 51/1/3
f 5/1/3 6/1/3 38/1/3
f 32/1/3 1/1/3 34/1/3
f 19/1/3 20/1/3 52/1/3
f 6/1/3 7/1/3 39/1/3
f 20/1/3 21/1/3 53/1/3
f 7/1/3 8/1/3 40/1/3
f 21/1/3 22/1/3 54/1/3
f 84/1/100 116/1/100 115/1/100
f 36/1/5 68/1/5 67/1/5
f 63/1/101 95/1/101 94/1/101
f 50/1/7 82/1/7 81/1/7
f 37/1/8 69/1/8 68/1/8
f 64/1/102 96/1/102 95/1/102
f 51/1/103 83/1/103 82/1/103
f 38/1/11 70/1/11 69/1/11
f 34/1/12 66/1/12 96/1/12
f 52/1/104 84/1/104 83/1/104
f 39/1/105 71/1/105 70/1/105
f 53/1/106 85/1/106 84/1/106
f 40/1/16 72/1/16 71/1/16
f 54/1/107 86/1/107 85/1/107
f 41/1/108 73/1/108 72/1/108
f 55/1/36 87/1/36 86/1/36
f 42/1/109 74/1/109 73/1/109
f 56/1/110 88/1/110 87/1/110
f 43/1/22 75/1/22 74/1/22
f 57/1/111 89/1/111 88/1/111
f 44/1/112 76/1/112 75/1/112
f 58/1/113 90/1/113 89/1/113
f 45/1/26 77/1/26 76/1/26
f 59/1/72 91/1/72 90/1/72
f 46/1/28 78/1/28 77/1/28
f 60/1/114 92/1/114 91/1/114
f 47/1/30 79/1/30 78/1/30
f 33/1/31 65/1/31 66/1/31
f 61/1/115 93/1/115 92/1/115
f 48/1/116 80/1/116 79/1/116
f 35/1/117 67/1/117 65/1/117
f 62/1/118 94/1/118 93/1/118
f 119/1/36 151/1/36 150/1/36
f 71/1/119 103/1/119 102/1/119
f 84/1/120 85/1/120 117/1/120
f 71/1/121 72/1/121 104/1/121
f 86/1/122 118/1/122 117/1/122
f 72/1/41 73/1/41 105/1/41
f 86/1/123 87/1/123 119/1/123
f 73/1/124 74/1/124 106/1/124
f 88/1/125 120/1/125 119/1/125
f 74/1/45 75/1/45 107/1/45
f 88/1/46 89/1/46 121/1/46
f 75/1/47 76/1/47 108/1/47
f 90/1/126 122/1/126 121/1/126
f 77/1/49 109/1/49 108/1/49
f 91/1/50 123/1/50 122/1/50
f 77/1/127 78/1/127 110/1/127
f 92/1/128 124/1/128 123/1/128
f 78/1/129 79/1/129 111/1/129
f 65/1/130 97/1/130 98/1/130
f 93/1/131 125/1/131 124/1/131
f 80/1/56 112/1/56 111/1/56
f 65/1/57 67/1/57 99/1/57
f 94/1/132 126/1/132 125/1/132
f 81/1/59 113/1/59 112/1/59
f 68/1/133 100/1/133 99/1/133
f 95/1/134 127/1/134 126/1/134
f 82/1/62 114/1/62 113/1/62
f 69/1/135 101/1/135 100/1/135
f 96/1/64 128/1/64 127/1/64
f 82/1/136 83/1/136 115/1/136
f 69/1/137 70/1/137 102/1/137
f 96/1/138 66/1/138 98/1/138
f 130/1/3 129/1/3 131/1/3
f 131/1/3 132/1/3 133/1/3
f 133/1/3 134/1/3 135/1/3
f 135/1/3 136/1/3 137/1/3
f 137/1/3 138/1/3 139/1/3
f 139/1/3 140/1/3 141/1/3
f 141/1/3 142/1/3 143/1/3
f 143/1/3 144/1/3 145/1/3
f 145/1/3 146/1/3 147/1/3
f 147/1/3 148/1/3 149/1/3
f 149/1/3 150/1/3 151/1/3
f 151/1/3 152/1/3 153/1/3
f 153/1/3 154/1/3 155/1/3
f 155/1/3 156/1/3 157/1/3
f 157/1/3 158/1/3 159/1/3
f 159/1/3 160/1/3 130/1/3
f 130/1/139 131/1/139 133/1/139
f 133/1/3 135/1/3 137/1/3
f 137/1/3 139/1/3 141/1/3
f 141/1/139 143/1/139 145/1/139
f 145/1/140 147/1/140 149/1/140
f 149/1/3 151/1/3 153/1/3
f 153/1/3 155/1/3 157/1/3
f 157/1/140 159/1/140 130/1/140
f 130/1/3 133/1/3 137/1/3
f 137/1/3 141/1/3 145/1/3
f 145/1/3 149/1/3 153/1/3
f 153/1/3 157/1/3 130/1/3
f 130/1/3 137/1/3 145/1/3
f 106/1/109 138/1/109 137/1/109
f 120/1/21 152/1/21 151/1/21
f 107/1/22 139/1/22 138/1/22
f 121/1/111 153/1/111 152/1/111
f 108/1/70 140/1/70 139/1/70
f 122/1/141 154/1/141 153/1/141
f 109/1/71 141/1/71 140/1/71
f 123/1/72 155/1/72 154/1/72
f 110/1/142 142/1/142 141/1/142
f 124/1/29 156/1/29 155/1/29
f 111/1/143 143/1/143 142/1/143
f 97/1/74 129/1/74 130/1/74
f 125/1/75 157/1/75 156/1/75
f 112/1/76 144/1/76 143/1/76
f 99/1/77 131/1/77 129/1/77
f 126/1/78 158/1/78 157/1/78
f 113/1/79 145/1/79 144/1/79
f 100/1/144 132/1/144 131/1/144
f 127/1/81 159/1/81 158/1/81
f 114/1/82 146/1/82 145/1/82
f 101/1/8 133/1/8 132/1/8
f 128/1/84 160/1/84 159/1/84
f 115/1/85 147/1/85 146/1/85
f 102/1/86 134/1/86 133/1/86
f 98/1/87 130/1/87 160/1/87
f 116/1/88 148/1/88 147/1/88
f 103/1/89 135/1/89 134/1/89
f 117/1/90 149/1/90 148/1/90
f 104/1/145 136/1/145 135/1/145
f 118/1/91 150/1/91 149/1/91
f 105/1/108 137/1/108 136/1/108
