# Blender 4.1.1
# www.blender.org
mtllib Scene.006.mtl
o Horizon
v 5061.104980 -5061.104980 -1448.346191
v 3859.088135 -5513.224609 -0.000000
v 3726.026123 -6533.315430 -441.480438
v -6307.153809 -1346.913574 -0.000000
v -7019.954590 -1396.354004 -0.000000
v -7019.954590 -1396.354004 -405.371613
v -6612.652344 -2739.049316 -1367.847656
v -2911.550781 5790.246582 0.000000
v -2739.044922 6612.654785 0.000000
v -2739.044922 6612.654297 -695.457031
v -3976.480469 5951.232910 -681.990234
v 5535.951172 1434.393555 0.000000
v 7019.954102 -1396.355713 -0.000000
v 7019.954102 -1396.355713 -28.087034
v 7019.956055 1396.344971 -1281.797852
v 5282.066406 -2739.050537 -0.000000
v 6612.651855 -2739.050537 -1540.730225
v 5456.214355 -3749.888672 -0.000000
v 5951.229980 -3976.484619 -559.033203
v 1857.401855 -5235.745605 -0.000000
v 1396.355957 -7019.953125 -1405.520020
v -917.668030 -6755.723633 -0.000000
v 0.000540 -7157.482910 -706.859802
v -1396.354858 -7019.954590 -0.000000
v -1396.354858 -7019.954590 -1016.854980
v -2385.119629 -5310.142090 -0.000000
v -2739.049316 -6612.653320 -1623.669800
v -5061.104980 -5061.104980 -0.000000
v -5061.104980 -5061.104980 -1079.222168
v -4614.180176 -3652.785156 -0.000000
v -5951.230469 -3976.483887 -1784.521729
v -7157.482910 0.002332 0.000000
v -7157.482910 0.002319 -333.397064
v -5939.495605 1268.551392 0.000000
v -7019.953125 1396.358643 -1734.950439
v -6612.650879 2739.053223 0.000000
v -6612.650879 2739.053223 -1173.979004
v -6026.514648 2691.231934 0.000000
v -5951.227539 3976.488037 -1359.987793
v -3549.039551 4267.824219 0.000000
v -5061.102051 5061.108398 -1164.416992
v -1396.349609 5916.745605 0.000000
v -1396.349609 7019.955566 -1357.688965
v 0.006911 7157.482910 0.000000
v 0.006911 7157.482910 -381.165039
v 823.655029 6297.046387 0.000000
v 1396.363159 7019.952148 -1468.051270
v 2236.117188 5897.081055 0.000000
v 2739.057617 6612.649414 -1241.086426
v 4056.997314 4879.973633 0.000000
v 3976.491943 5951.225098 -1407.920410
v 5292.422852 4587.966309 0.000000
v 5013.883789 5509.759766 -818.456055
v 5581.432129 3736.706543 0.000000
v 6404.531738 3976.476562 -789.610107
vn -0.7739 0.3338 -0.5381
vn 0.3026 0.7236 -0.6203
vn 0.3026 0.7237 -0.6203
vn 0.6083 -0.5830 -0.5385
vn 0.6084 -0.5830 -0.5385
vn -0.6308 -0.3236 -0.7053
vn -0.6307 -0.3237 -0.7053
vn -0.6308 -0.3237 -0.7052
vn -0.5464 0.6976 -0.4635
vn -0.5464 0.6976 -0.4634
vn -0.7557 -0.1176 -0.6443
vn -0.6054 0.6652 -0.4371
vn 0.1618 0.5187 -0.8395
vn 0.1618 0.5186 -0.8396
vn 0.1618 0.5186 -0.8395
vn -0.3602 0.6083 -0.7073
vn -0.0259 0.9704 -0.2400
vn 0.6713 0.6250 -0.3983
vn 0.2598 0.8562 -0.4466
vn 0.9036 0.0400 -0.4264
vn 0.9036 0.0400 -0.4265
vn 0.9037 0.0399 -0.4264
vn 0.9036 0.0399 -0.4264
vn 0.6336 0.4913 -0.5976
vn 0.6337 0.4913 -0.5976
vn 0.9952 0.0980 -0.0000
vn 0.7101 -0.5750 -0.4065
vn 0.7101 -0.5749 -0.4065
vn 0.9283 0.1551 -0.3380
vn 0.6222 -0.7055 -0.3394
vn 0.6222 -0.7055 -0.3393
vn 0.4643 -0.5357 -0.7053
vn 0.5189 -0.2045 -0.8300
vn 0.5190 -0.2045 -0.8300
vn -0.2069 -0.8618 -0.4631
vn -0.2068 -0.8618 -0.4631
vn -0.2068 -0.8618 -0.4632
vn 0.5170 -0.7228 -0.4585
vn 0.5171 -0.7228 -0.4585
vn 0.5170 -0.7228 -0.4586
vn -0.5395 -0.7140 -0.4462
vn -0.2004 -0.8301 -0.5203
vn -0.4242 -0.7180 -0.5519
vn -0.4242 -0.7179 -0.5519
vn -0.0708 -0.7488 -0.6590
vn -0.0708 -0.7489 -0.6589
vn -0.6679 -0.4773 -0.5710
vn -0.6679 -0.4774 -0.5710
vn -0.6679 -0.0029 -0.7442
vn -0.6679 -0.0030 -0.7442
vt 0.404130 0.020000
vt 0.428134 0.020000
vt 0.428134 0.486440
vt 0.090213 0.486440
vt 0.103520 0.020000
vt 0.103520 0.486440
vt 0.090213 0.020000
vt 0.183141 0.486440
vt 0.195612 0.020000
vt 0.195612 0.486440
vt 0.183141 0.020000
vt 0.316029 0.486440
vt 0.342692 0.020000
vt 0.342692 0.486440
vt 0.316029 0.020000
vt 0.362952 0.020000
vt 0.362952 0.486440
vt 0.391238 0.020000
vt 0.391238 0.486440
vt 0.460515 0.020000
vt 0.460515 0.486440
vt 0.478225 0.020000
vt 0.478225 0.486440
vt 0.013946 0.486440
vt 0.025262 0.020000
vt 0.025262 0.486440
vt 0.013946 0.020000
vt 0.043340 0.020000
vt 0.043340 0.486440
vt 0.061875 0.020000
vt 0.061875 0.486440
vt 0.080874 0.020000
vt 0.080874 0.486440
vt 0.117064 0.020000
vt 0.117064 0.486440
vt 0.132472 0.020000
vt 0.132472 0.486440
vt 0.141455 0.020000
vt 0.141455 0.486440
vt 0.160075 0.020000
vt 0.160075 0.486440
vt 0.173198 0.020000
vt 0.173198 0.486440
vt 0.210236 0.020000
vt 0.210236 0.486440
vt 0.222635 0.020000
vt 0.222635 0.486440
vt 0.236487 0.020000
vt 0.236487 0.486440
vt 0.251465 0.020000
vt 0.251465 0.486440
vt 0.262922 0.020000
vt 0.262922 0.486440
vt 0.272194 0.020000
vt 0.272194 0.486440
vt 0.290866 0.020000
vt 0.290866 0.486440
s 1
usemtl Rock
f 1/1/1 3/2/1 2/3/1
f 4/4/2 6/5/2 5/6/2
f 4/4/3 7/7/3 6/5/3
f 8/8/4 10/9/5 9/10/5
f 8/8/5 11/11/5 10/9/5
f 12/12/6 14/13/7 13/14/7
f 12/12/8 15/15/8 14/13/8
f 13/14/9 17/16/9 16/17/9
f 13/14/10 14/13/9 17/16/9
f 16/17/11 19/18/11 18/19/11
f 16/17/11 17/16/11 19/18/11
f 18/19/12 1/1/12 2/3/12
f 18/19/12 19/18/12 1/1/12
f 2/3/13 21/20/13 20/21/13
f 2/3/14 3/2/15 21/20/15
f 20/21/16 23/22/16 22/23/16
f 20/21/16 21/20/16 23/22/16
f 22/24/17 25/25/17 24/26/17
f 22/24/17 23/27/17 25/25/17
f 24/26/18 27/28/18 26/29/18
f 24/26/18 25/25/18 27/28/18
f 26/29/19 29/30/19 28/31/19
f 26/29/19 27/28/19 29/30/19
f 28/31/20 31/32/21 30/33/21
f 28/31/22 29/30/23 31/32/20
f 30/33/24 7/7/24 4/4/24
f 30/33/25 31/32/24 7/7/24
f 5/6/26 33/34/26 32/35/26
f 5/6/26 6/5/26 33/34/26
f 32/35/27 35/36/27 34/37/27
f 32/35/27 33/34/27 35/36/28
f 34/37/29 37/38/29 36/39/29
f 34/37/29 35/36/29 37/38/29
f 36/39/30 39/40/31 38/41/30
f 36/39/30 37/38/30 39/40/31
f 38/41/32 41/42/32 40/43/32
f 38/41/32 39/40/32 41/42/32
f 40/43/33 11/11/33 8/8/33
f 40/43/34 41/42/34 11/11/34
f 9/10/35 43/44/36 42/45/36
f 9/10/35 10/9/35 43/44/37
f 42/45/38 45/46/39 44/47/39
f 42/45/40 43/44/40 45/46/40
f 44/47/41 47/48/41 46/49/41
f 44/47/41 45/46/41 47/48/41
f 46/49/42 49/50/42 48/51/42
f 46/49/42 47/48/42 49/50/42
f 48/51/43 51/52/43 50/53/43
f 48/51/44 49/50/44 51/52/44
f 50/53/45 53/54/45 52/55/45
f 50/53/46 51/52/46 53/54/46
f 52/55/47 55/56/47 54/57/47
f 52/55/48 53/54/48 55/56/48
f 54/57/49 15/15/49 12/12/49
f 54/57/50 55/56/50 15/15/50
