# Blender 4.1.1
# www.blender.org
mtllib ID95.mtl
o n0b11
v 113.299995 31.294905 67.419395
v 138.761993 31.314804 63.840996
v 89.640800 29.829092 -72.053101
v 106.591003 29.609293 -72.023300
v 117.907997 31.393501 60.457191
v 120.287994 31.574102 48.023792
v 119.860001 31.468601 53.868298
v 140.341003 31.488602 46.593994
v 140.097000 31.401602 55.475094
v 118.549004 31.809402 38.475792
v 117.551003 31.827501 35.251595
v 137.414993 31.606800 34.809494
v 135.220001 31.607201 28.986197
v 109.106003 31.817001 21.302797
v 92.939392 31.738598 -4.330412
v 97.223999 31.786398 5.341678
v 123.079994 31.180899 10.261498
v 108.071007 31.552198 -9.948762
v 111.961998 31.532200 -2.422622
v 90.020096 31.590796 -14.822402
v 88.580597 31.159897 -25.698500
v 106.676003 31.770506 64.635201
v 89.126495 30.587595 -46.970501
v 145.169998 34.006203 65.223503
v 106.679001 37.737103 64.517296
v 105.756004 31.520298 -18.355801
v 145.160995 39.924603 64.603600
v 112.747002 42.097004 64.673798
v 141.281998 42.141102 64.617096
v 141.281998 42.141102 64.617096
v 104.720001 31.280499 -27.339201
v 105.345001 30.683094 -46.925201
v 89.435097 30.132496 -62.020100
v 106.092995 30.038794 -61.984100
v 113.347000 31.544203 47.142391
v 110.651001 31.395304 58.345291
v 112.736000 31.423101 52.114594
v 146.892990 32.916004 45.857494
v 146.628998 33.616302 56.017696
v 112.092003 31.866102 39.523293
v 111.384995 31.988199 37.326595
v 143.742004 32.275002 32.960896
v 141.266998 31.965101 26.453497
v 104.061005 32.370800 25.489496
v 86.901894 32.312901 -2.152133
v 91.520493 32.284000 8.347067
v 112.543999 29.321493 -71.968399
v 128.552002 30.875099 6.342558
v 83.098801 29.633793 -72.030800
v 114.397003 31.303097 -12.163602
v 112.582001 35.958595 -72.378296
v 117.984001 31.268097 -5.363452
v 83.202690 36.039696 -72.402901
v 83.763596 32.129299 -13.408903
v 107.372993 39.953293 -72.625801
v 107.372993 39.953293 -72.625801
v 82.207596 31.270498 -24.979200
v 87.362495 40.194595 -72.427101
v 82.666298 30.375296 -46.864700
v 111.912003 31.302898 -19.794802
v 110.567001 31.114998 -28.008600
v 111.049995 30.555794 -46.836502
v 143.362991 32.509003 55.746391
v 143.617004 32.202301 46.225693
v 140.577988 31.940899 33.885197
v 138.242996 31.786100 27.719898
v 125.816002 31.028000 8.302029
v 114.972992 31.400099 -3.893043
v 111.234001 31.427700 -11.056202
v 108.637993 31.411596 -19.075300
v 107.239998 31.197697 -27.673901
v 107.759995 30.647196 -46.880802
v 85.896393 30.481495 -46.917599
v 85.394096 31.215199 -25.338900
v 86.891792 31.859997 -14.115602
v 89.920692 32.025696 -3.241272
v 94.372292 32.035198 6.844378
v 106.584000 32.093899 23.396095
v 114.467995 31.907801 36.289093
v 115.320000 31.837704 38.999596
v 116.817993 31.559202 47.583096
v 116.297997 31.445801 52.991390
v 114.278999 31.394403 59.401192
v 84.174004 38.165001 -14.082803
v 87.346695 38.762897 -2.728853
v 82.608795 37.355194 -25.656200
v 82.936203 36.372696 -47.411701
v 82.936203 36.372696 -47.411701
v 110.641006 37.370502 58.195797
v 113.409004 37.532204 46.701996
v 111.384995 37.571201 37.100094
v 104.701996 38.147099 25.230295
v 92.034599 38.975098 7.902127
v 111.056999 36.499393 -47.617004
v 111.056999 36.499393 -47.617004
v 110.554001 37.165096 -28.821600
v 111.972000 37.085899 -20.636101
v 114.445000 36.916199 -12.914803
v 118.059998 36.559299 -5.975963
v 128.736008 36.646500 5.917207
v 141.356003 37.758503 25.916496
v 143.839996 38.303101 32.485695
v 146.899002 39.349903 45.748295
v 146.651001 39.710701 55.366791
v 87.751602 41.460800 -14.193003
v 90.971397 41.995598 -2.943933
v 86.130302 40.371296 -25.614603
v 86.467995 40.001793 -47.327003
v 86.467995 40.001793 -47.327003
v 115.091003 41.733200 58.189293
v 117.382996 41.672703 46.623394
v 114.961998 41.224403 37.293392
v 107.592995 41.938198 25.019295
v 95.730301 42.110600 7.604247
v 106.407997 40.960396 -48.073898
v 106.407997 40.960396 -48.073898
v 106.192993 41.287193 -29.247602
v 106.192993 41.287193 -29.247602
v 107.497002 41.355198 -20.559704
v 107.497002 41.355198 -20.559704
v 109.937996 41.126400 -12.767102
v 109.937996 41.126400 -12.767102
v 112.951996 40.502197 -5.721063
v 112.951996 40.502197 -5.721063
v 125.464005 40.687298 8.049058
v 125.464005 40.687298 8.049058
v 137.054993 40.973801 26.857996
v 137.054993 40.973801 26.857996
v 139.242004 41.329803 32.808796
v 139.242004 41.329803 32.808796
v 142.084000 41.964699 45.241997
v 142.084000 41.964699 45.241997
v 141.532990 42.079201 55.972794
v 141.532990 42.079201 55.972794
v 82.925797 29.930395 -61.964401
v 111.946007 29.815195 -61.915699
v 83.096092 36.172897 -62.406399
v 111.972000 36.174896 -62.473801
v 87.004692 40.117496 -62.387005
v 106.987000 40.356194 -62.805004
v 106.987000 40.356194 -62.805004
v 112.024994 37.451401 52.448891
v 116.237000 41.703007 52.406292
vn -0.0882 0.9961 0.0056
vn -0.0695 0.9975 0.0152
vn -0.1350 0.9903 0.0338
vn -0.0335 0.9993 -0.0180
vn -0.6369 0.7058 0.3103
vn -0.4289 0.8502 0.3054
vn -0.7780 -0.1985 0.5961
vn -0.4339 0.8319 0.3459
vn -0.7705 -0.3610 0.5254
vn -0.7269 0.6002 0.3336
vn -0.8677 -0.3759 0.3252
vn -0.5515 0.8226 0.1386
vn -0.9042 -0.3732 0.2078
vn -0.9946 0.0164 0.1025
vn -0.8929 -0.4469 0.0547
vn -0.9993 -0.0048 -0.0371
vn -0.9988 -0.0035 -0.0491
vn -0.9982 -0.0031 -0.0599
vn -0.9021 -0.4296 -0.0404
vn -0.9982 0.0003 -0.0604
vn -0.1769 0.9842 -0.0002
vn -0.2485 0.9686 0.0081
vn -0.7108 0.6729 0.2047
vn -0.8155 -0.3983 0.4198
vn -0.5427 -0.7221 0.4289
vn -0.5931 -0.7369 0.3245
vn -0.6680 -0.7161 0.2027
vn -0.6836 -0.7169 0.1373
vn -0.6887 -0.7228 0.0569
vn -0.6908 -0.7230 0.0047
vn 0.3736 -0.9080 -0.1898
vn 0.8264 -0.4943 -0.2697
vn 0.1943 -0.9791 -0.0595
vn 0.7932 -0.4067 -0.4532
vn 0.2919 -0.9338 -0.2069
vn 0.7747 -0.3546 -0.5235
vn 0.4609 -0.8583 -0.2254
vn 0.8805 -0.3259 -0.3442
vn 0.3939 -0.9190 0.0154
vn 0.9735 -0.2287 -0.0007
vn 0.8889 -0.4100 0.2046
vn 0.9723 0.0528 0.2278
vn 0.8809 -0.2984 0.3673
vn 0.9035 0.0122 0.4284
vn 0.8466 0.0125 0.5321
vn 0.0020 0.9999 -0.0136
vn 0.0391 0.9991 -0.0150
vn 0.0142 0.9999 -0.0006
vn 0.0300 0.9994 0.0161
vn -0.0045 0.9999 0.0094
vn -0.0306 0.9991 -0.0304
vn -0.0314 0.9990 -0.0305
vn -0.0299 0.9991 -0.0308
vn -0.0305 0.9991 -0.0304
vn -0.0320 0.9990 -0.0301
vn 0.9627 -0.2699 0.0163
vn 0.9995 -0.0260 0.0179
vn 0.9997 -0.0208 0.0144
vn 0.9991 -0.0376 0.0173
vn 0.9986 -0.0502 0.0173
vn 0.9976 -0.0622 -0.0289
vn 0.8718 -0.4886 -0.0356
vn 0.9767 -0.0866 -0.1966
vn 0.8841 -0.4407 -0.1556
vn 0.4650 -0.8845 -0.0373
vn 0.0303 0.9986 -0.0432
vn 0.0292 0.9989 -0.0366
vn 0.0420 0.9981 -0.0445
vn 0.0221 0.9991 -0.0354
vn 0.0199 0.9992 -0.0333
vn 0.0246 0.9993 -0.0286
vn 0.0290 0.9991 -0.0296
vn 0.0302 0.9993 -0.0228
vn 0.0331 0.9993 -0.0189
vn 0.0346 0.9993 -0.0135
vn 0.0344 0.9993 -0.0141
vn 0.0394 0.9991 -0.0122
vn 0.9997 -0.0118 -0.0209
vn 0.9741 -0.0003 -0.2260
vn 0.0155 0.9995 0.0270
vn 0.0161 0.9989 0.0451
vn -0.0031 0.9996 0.0292
vn 0.4377 0.8817 -0.1764
vn 0.0381 0.9993 -0.0036
vn 0.0650 0.9973 -0.0353
vn 0.0562 0.9979 -0.0334
vn 0.0654 0.9968 -0.0451
vn -0.2831 0.9575 -0.0545
vn -0.3376 0.9401 -0.0467
vn -0.7803 0.6215 0.0691
vn -0.8474 -0.4475 0.2858
vn -0.5262 -0.8027 0.2807
vn -0.5763 0.8096 -0.1117
vn -0.3774 0.9247 -0.0506
vn -0.9218 0.3730 -0.1061
vn -0.8630 -0.4944 0.1034
vn -0.5127 -0.8363 0.1945
vn 0.0387 0.9992 -0.0105
vn 0.0358 0.9991 -0.0230
vn 0.0039 0.9998 -0.0174
vn 0.0051 0.9998 0.0196
vn 0.0207 0.9998 0.0016
vn -0.0032 0.9997 0.0261
vn -0.0070 0.9999 0.0133
vn -0.0095 0.9999 0.0126
vn 0.9294 -0.0953 -0.3564
vn 0.0789 0.9962 -0.0359
vn 0.0750 0.9958 -0.0528
vn 0.0817 0.9960 -0.0362
vn 0.0641 0.9965 -0.0531
vn 0.0772 0.9964 -0.0364
vn 0.0537 0.9974 -0.0479
vn 0.8424 -0.1048 -0.5286
vn 0.0712 0.9967 -0.0384
vn 0.0680 0.9968 -0.0424
vn 0.4584 -0.8832 0.0990
vn 0.3446 -0.9249 0.1608
vn 0.7375 -0.5144 0.4377
vn 0.2964 -0.9416 0.1600
vn -0.4628 -0.8848 0.0546
vn -0.7282 -0.6838 -0.0463
vn -0.9304 -0.3382 -0.1411
vn 0.0077 -0.9995 0.0321
vn 0.0132 -0.9999 0.0091
vn 0.0134 -0.9995 0.0291
vn -0.0040 -0.9996 0.0278
vn -0.0361 -0.9978 0.0551
vn -0.0476 -0.9981 0.0399
vn 0.0144 0.9984 -0.0543
vn 0.0148 0.9989 -0.0436
vn 0.0135 0.9993 -0.0336
vn -0.0175 0.9994 -0.0307
vn -0.0252 0.9991 -0.0335
vn -0.0316 0.9990 -0.0305
vn -0.0319 0.9990 -0.0302
vn 0.6946 -0.7188 0.0285
vn 0.7140 -0.6996 0.0265
vn 0.5118 -0.8591 0.0106
vn 0.2515 -0.9678 0.0128
vn -0.0671 -0.9977 0.0055
vn -0.0144 -0.9998 0.0119
vn 0.6451 0.6458 -0.4084
vn 0.8610 -0.5083 0.0169
vn 0.2527 -0.9674 0.0190
vn 0.0220 0.9994 -0.0278
vn -0.0334 0.9988 -0.0359
vn -0.0319 0.9990 -0.0301
vn 0.0154 -0.9997 0.0172
vn -0.0116 -0.9991 0.0405
vn 0.0397 -0.9991 0.0178
vn -0.0096 0.9999 0.0129
vn -0.0084 0.9997 0.0212
vn 0.0437 0.9981 -0.0435
vn 0.0487 0.9978 -0.0461
vn -0.8960 -0.4418 -0.0455
vn -0.9021 -0.4297 -0.0404
vn -0.6256 -0.7801 -0.0070
vn -0.9982 0.0004 -0.0605
vn -0.6594 -0.7518 -0.0048
vn -0.6760 -0.7369 -0.0045
vn -0.4586 -0.8880 -0.0329
vn -0.4209 -0.9071 -0.0089
vn 0.0477 -0.9988 0.0121
vn 0.0514 -0.9984 -0.0231
vn 0.0491 -0.9983 0.0305
vn 0.8466 0.0124 0.5320
vt -15.745600 -4.897480
vt -15.297899 -5.000000
vt -15.745600 -5.000000
vt -15.297899 -4.897480
vt -15.297899 -4.797790
vt -14.269899 -4.797790
vt -14.269899 -4.649630
vt -13.580600 -4.797790
vt -13.580600 -4.649630
vt -13.112800 -4.797790
vt -13.112800 -4.649630
vt -12.669900 -4.797790
vt -12.669900 -4.649630
vt -12.293099 -4.797790
vt -12.293099 -4.649630
vt -11.397500 -4.797790
vt -11.397500 -4.649630
vt -10.500000 -4.797790
vt -10.500000 -4.649630
vt -9.938780 -4.797790
vt -16.259800 -4.897480
vt -16.259800 -5.000000
vt -15.745600 -4.797790
vt -15.297899 -4.649630
vt -14.269899 -4.500000
vt -13.580600 -4.500000
vt -13.112800 -4.500000
vt -12.669900 -4.500000
vt -12.293099 -4.500000
vt -11.397500 -4.500000
vt -14.136700 -6.500000
vt -13.580700 -6.650070
vt -13.580700 -6.500000
vt -14.136700 -6.650070
vt -15.092001 -6.500000
vt -15.092001 -6.650070
vt -15.741199 -6.500000
vt -15.741199 -6.650070
vt -16.259800 -6.500000
vt -16.259800 -6.650070
vt -16.669001 -6.650070
vt -16.669001 -6.798060
vt -16.955500 -6.650070
vt -16.955500 -6.798060
vt -17.311300 -6.798060
vt -16.955500 -6.897390
vt -17.311300 -7.000000
vt -16.955500 -7.000000
vt -9.938780 -6.798060
vt -10.500000 -7.000000
vt -9.938780 -7.000000
vt -10.500000 -6.798060
vt -10.500000 -6.650070
vt -11.397500 -6.798060
vt -11.397500 -6.650070
vt -12.453700 -6.798060
vt -12.453700 -6.650070
vt -13.000000 -6.798060
vt -13.000000 -6.650070
vt -13.000000 -6.500000
vt -10.500000 -5.000000
vt -11.397500 -4.897480
vt -11.397500 -5.000000
vt -12.293099 -4.897480
vt -12.293099 -5.000000
vt -12.669900 -4.897480
vt -12.669900 -5.000000
vt -13.112800 -4.897480
vt -13.112800 -5.000000
vt -13.580600 -5.000000
vt -16.259800 -6.798060
vt -15.842299 -6.798060
vt -15.842299 -6.897390
vt -15.741199 -6.798060
vt -15.741199 -6.897390
vt -15.092001 -6.897390
vt -15.092001 -7.000000
vt -14.136700 -7.000000
vt -16.669001 -4.897480
vt -16.669001 -5.000000
vt -16.259800 -4.797790
vt -15.745600 -4.649630
vt -15.297899 -4.500000
vt -17.311300 -4.797790
vt -17.311300 -5.000000
vt -16.669001 -4.797790
vt -16.259800 -4.649630
vt -15.745600 -4.500000
vt -13.580600 -4.897480
vt -14.269899 -4.897480
vt -14.269899 -5.000000
vt -15.842299 -7.000000
vt -15.741199 -7.000000
vt -16.259800 -6.897390
vt -16.669001 -6.897390
vt -13.580700 -6.798060
vt -13.580700 -6.897390
vt -13.000000 -6.897390
vt -13.580700 -7.000000
vt -13.000000 -7.000000
vt -14.136700 -6.798060
vt -14.136700 -6.897390
vt -16.669001 -6.500000
vt -16.955500 -6.500000
vt -17.311300 -6.650070
vt -17.311300 -6.500000
vt -16.259800 -4.500000
vt -16.669001 -4.649630
vt -17.311300 -4.649630
vt -17.311300 -6.000000
vt -16.669001 -6.000000
vt -16.259800 -6.000000
vt -15.745600 -6.000000
vt -15.297899 -6.000000
vt -14.269899 -6.000000
vt -12.453700 -6.897390
vt -12.453700 -7.000000
vt -11.397500 -7.000000
vt -11.397500 -6.897390
vt -11.397500 -6.500000
vt -10.500000 -6.500000
vt -12.453700 -6.500000
vt -13.580600 -6.000000
vt -13.112800 -6.000000
vt -15.092001 -6.798060
vt -9.938780 -6.650070
vt -9.938780 -6.500000
vt -10.500000 -6.000000
vt -9.938780 -6.000000
vt -16.669001 -7.000000
vt -16.259800 -7.000000
vt -9.938780 -5.000000
vt -9.938780 -4.649630
vt -9.938780 -4.500000
vt -10.500000 -4.500000
vt -17.311300 -4.500000
vt -16.669001 -4.500000
vt -12.293099 -6.000000
vt -12.669900 -6.000000
vt -11.397500 -6.000000
s 1
usemtl m0
f 65/1/1 13/2/2 12/3/3
f 13/2/2 65/1/1 66/4/4
f 43/5/5 66/4/4 65/1/1
f 66/4/4 43/5/5 48/6/6
f 100/7/7 48/6/6 43/5/5
f 48/6/6 100/7/7 52/8/8
f 99/9/9 52/8/8 100/7/7
f 52/8/8 99/9/9 50/10/10
f 98/11/11 50/10/10 99/9/9
f 50/10/10 98/11/11 60/12/12
f 97/13/13 60/12/12 98/11/11
f 60/12/12 97/13/13 61/14/14
f 96/15/15 61/14/14 97/13/13
f 61/14/14 96/15/15 62/16/16
f 94/17/17 62/16/16 96/15/15
f 62/16/16 94/17/17 136/18/18
f 138/19/19 136/18/18 94/17/17
f 136/18/18 138/19/19 47/20/20
f 64/21/21 12/3/3 8/22/22
f 12/3/3 64/21/21 65/1/1
f 42/23/23 65/1/1 64/21/21
f 65/1/1 42/23/23 43/5/5
f 101/24/24 43/5/5 42/23/23
f 43/5/5 101/24/24 100/7/7
f 126/25/25 100/7/7 101/24/24
f 100/7/7 126/25/25 99/9/9
f 123/26/26 99/9/9 126/25/25
f 99/9/9 123/26/26 98/11/11
f 121/27/27 98/11/11 123/26/26
f 98/11/11 121/27/27 97/13/13
f 120/28/28 97/13/13 121/27/27
f 97/13/13 120/28/28 96/15/15
f 118/29/29 96/15/15 120/28/28
f 96/15/15 118/29/29 116/30/30
f 114/31/31 85/32/32 106/33/33
f 85/32/32 114/31/31 93/34/34
f 113/35/35 93/34/34 114/31/31
f 93/34/34 113/35/35 92/36/36
f 112/37/37 92/36/36 113/35/35
f 92/36/36 112/37/37 91/38/38
f 111/39/39 91/38/38 112/37/37
f 91/38/38 111/39/39 90/40/40
f 142/41/41 90/40/40 111/39/39
f 90/40/40 142/41/41 37/42/42
f 89/43/43 37/42/42 142/41/41
f 37/42/42 89/43/43 36/44/44
f 22/45/45 36/44/44 89/43/43
f 36/44/46 22/45/47 83/46/48
f 1/47/49 83/46/48 22/45/47
f 83/46/48 1/47/49 5/48/50
s 0
f 49/49/51 33/50/52 3/51/53
f 33/50/52 49/49/54 135/52/55
s 1
f 137/53/56 135/52/57 49/49/58
f 135/52/57 137/53/56 59/54/59
f 87/55/60 59/54/59 137/53/56
f 59/54/59 87/55/60 57/56/61
f 86/57/62 57/56/61 87/55/60
f 57/56/61 86/57/62 54/58/63
f 84/59/64 54/58/63 86/57/62
f 54/58/63 84/59/64 85/32/32
f 105/60/65 85/32/32 84/59/64
f 85/32/32 105/60/65 106/33/33
f 34/61/66 62/16/67 136/18/68
f 62/16/67 34/61/66 72/62/69
f 32/63/70 72/62/69 34/61/66
f 72/62/69 32/63/70 71/64/71
f 31/65/72 71/64/71 32/63/70
f 71/64/71 31/65/72 70/66/73
f 26/67/74 70/66/73 31/65/72
f 70/66/73 26/67/74 69/68/75
f 18/69/76 69/68/75 26/67/74
f 69/68/75 18/69/76 19/70/77
f 35/71/78 90/40/40 37/42/42
f 90/40/40 35/71/78 40/72/79
f 80/73/80 40/72/81 35/71/82
f 40/72/81 80/73/80 41/74/83
f 79/75/84 41/74/83 80/73/80
f 41/74/83 79/75/84 78/76/85
f 14/77/86 78/76/85 79/75/84
f 78/76/85 14/77/86 16/78/87
f 63/79/88 8/22/22 9/80/89
f 8/22/22 63/79/88 64/21/21
f 38/81/90 64/21/21 63/79/88
f 64/21/21 38/81/90 42/23/23
f 102/82/91 42/23/23 38/81/90
f 42/23/23 102/82/91 101/24/24
f 128/83/92 101/24/24 102/82/91
f 101/24/24 128/83/92 126/25/25
f 24/84/93 9/80/89 2/85/94
f 9/80/89 24/84/93 63/79/88
f 39/86/95 63/79/88 24/84/93
f 63/79/88 39/86/95 38/81/90
f 103/87/96 38/81/90 39/86/95
f 38/81/90 103/87/96 102/82/91
f 130/88/97 102/82/91 103/87/96
f 102/82/91 130/88/97 128/83/92
f 69/68/75 50/10/10 60/12/12
f 50/10/10 69/68/75 52/8/8
f 68/89/98 52/8/8 69/68/75
f 52/8/8 68/89/98 67/90/99
f 19/70/77 67/90/99 68/89/98
f 67/90/99 19/70/77 17/91/100
f 80/73/80 10/92/101 11/93/102
f 10/92/101 80/73/80 81/94/103
f 35/71/82 81/94/103 80/73/80
f 81/94/103 35/71/82 82/95/104
f 37/42/105 82/95/104 35/71/82
f 82/95/104 37/42/105 36/44/46
f 45/96/106 85/32/32 93/34/34
f 85/32/32 45/96/106 54/58/63
f 76/97/107 54/58/108 45/96/109
f 54/58/108 76/97/107 75/98/110
f 15/99/111 75/98/110 76/97/107
f 75/98/110 15/99/111 20/100/112
f 46/101/113 45/96/106 93/34/34
f 45/96/109 46/101/114 76/97/107
f 77/102/115 76/97/107 46/101/114
f 76/97/107 77/102/115 15/99/111
f 16/78/87 15/99/111 77/102/115
f 143/103/116 142/41/41 111/39/39
f 142/41/41 143/103/116 89/43/43
f 110/104/117 89/43/43 143/103/116
f 89/43/43 110/104/117 25/105/118
f 28/106/119 25/105/118 110/104/117
f 103/87/96 132/107/120 130/88/97
f 132/107/120 103/87/96 104/108/121
f 39/86/95 104/108/121 103/87/96
f 104/108/121 39/86/95 27/109/122
f 24/84/93 27/109/122 39/86/95
f 67/90/99 48/6/6 52/8/8
f 48/6/6 67/90/99 66/4/4
f 17/91/100 66/4/4 67/90/99
f 66/4/4 17/91/100 13/2/2
f 110/104/117 29/110/123 28/106/119
f 29/110/123 110/104/117 133/111/124
f 143/103/116 133/111/124 110/104/117
f 133/111/124 143/103/116 111/39/39
f 111/39/39 131/112/125 133/111/124
f 131/112/125 111/39/39 129/113/126
f 112/37/37 129/113/126 111/39/39
f 129/113/126 112/37/37 113/35/35
f 113/35/35 127/114/127 129/113/126
f 127/114/127 113/35/35 125/115/128
f 114/31/31 125/115/128 113/35/35
f 125/115/128 114/31/31 106/33/33
f 75/98/110 57/56/129 54/58/108
f 57/56/129 75/98/110 74/116/130
f 20/100/112 74/116/130 75/98/110
f 74/116/130 20/100/112 21/117/131
f 23/118/132 74/116/130 21/117/131
f 74/116/130 23/118/132 73/119/133
f 33/50/134 73/119/133 23/118/132
f 73/119/133 33/50/134 135/52/135
f 109/120/136 88/55/137 139/121/138
f 88/55/137 109/120/136 86/57/62
f 107/122/139 86/57/62 109/120/136
f 86/57/62 107/122/139 105/60/65
f 106/33/33 124/123/140 125/115/128
f 124/123/140 106/33/33 122/124/141
f 105/60/65 122/124/141 106/33/33
f 122/124/141 105/60/65 107/122/139
f 92/36/36 46/101/113 93/34/34
f 46/101/113 92/36/36 44/125/142
f 91/38/38 44/125/142 92/36/36
f 44/125/142 91/38/38 41/74/83
f 78/76/85 44/125/142 41/74/83
f 44/125/142 78/76/85 77/102/115
f 16/78/87 77/102/115 78/76/85
f 139/121/138 53/126/143 58/127/144
f 53/126/143 139/121/138 137/53/56
f 88/55/137 137/53/56 139/121/138
f 71/64/71 62/16/67 72/62/69
f 62/16/67 71/64/71 61/14/145
f 60/12/12 61/14/145 71/64/71
f 73/119/133 57/56/129 74/116/130
f 57/56/129 73/119/133 59/54/146
f 135/52/147 59/54/146 73/119/133
f 140/128/148 58/127/144 55/129/149
f 58/127/144 140/128/148 139/121/138
f 108/120/150 139/121/138 140/128/148
f 7/130/151 82/95/104 5/48/50
f 82/95/104 7/130/151 6/131/152
f 81/94/103 6/131/152 10/92/101
f 6/131/152 81/94/103 82/95/104
f 83/46/48 82/95/104 36/44/46
f 82/95/104 83/46/48 5/48/50
f 79/75/84 11/93/102 14/77/86
f 11/93/102 79/75/84 80/73/80
f 40/72/79 91/38/38 90/40/40
f 91/38/38 40/72/79 41/74/83
f 70/66/73 60/12/12 71/64/71
f 60/12/12 70/66/73 69/68/75
f 4/132/153 136/18/68 47/20/154
f 136/18/68 4/132/153 34/61/66
f 51/133/155 138/19/156 56/134/157
f 138/19/156 51/133/155 47/20/158
f 141/135/159 138/19/156 95/17/160
f 138/19/156 141/135/159 56/134/157
f 116/30/30 95/17/160 96/15/15
f 95/17/160 116/30/30 141/135/159
f 30/136/161 104/108/121 27/109/122
f 104/108/121 30/136/161 134/137/162
f 117/138/163 107/122/139 108/120/150
f 107/122/139 117/138/163 119/139/164
f 115/140/165 108/120/150 140/128/148
f 108/120/150 115/140/165 117/138/163
f 19/70/77 68/89/98 69/68/75
f 134/137/162 132/107/120 104/108/121
f 25/105/118 22/45/166 89/43/43
f 84/59/64 86/57/62 105/60/65
f 107/122/139 119/139/164 122/124/141
f 137/53/56 49/49/58 53/126/143
f 46/101/114 44/125/142 77/102/115
