# Blender 4.1.1
# www.blender.org
mtllib Circle.726.mtl
o Circle.014
v -3607.379883 1450.840088 1975.549561
v -3609.549561 1450.840088 1975.763306
v -3611.635986 1450.840088 1976.396118
v -3613.558838 1450.840088 1977.423950
v -3615.244141 1450.840088 1978.807007
v -3616.627197 1450.840088 1980.492432
v -3617.655029 1450.840088 1982.415161
v -3618.287842 1450.840088 1984.501587
v -3618.501465 1450.840088 1986.671265
v -3618.287842 1450.840088 1988.840942
v -3617.655029 1450.840088 1990.927368
v -3616.627197 1450.840088 1992.850098
v -3615.244141 1450.840088 1994.535522
v -3613.558838 1450.840088 1995.918579
v -3611.635986 1450.840088 1996.946411
v -3609.549561 1450.840088 1997.579224
v -3607.379883 1450.840088 1997.792969
v -3605.210205 1450.840088 1997.579224
v -3603.123779 1450.840088 1996.946411
v -3601.200928 1450.840088 1995.918579
v -3599.515625 1450.840088 1994.535522
v -3598.132568 1450.840088 1992.850098
v -3597.104736 1450.840088 1990.927368
v -3596.471924 1450.840088 1988.840942
v -3596.258301 1450.840088 1986.671265
v -3596.471924 1450.840088 1984.501587
v -3597.104736 1450.840088 1982.415161
v -3598.132568 1450.840088 1980.492432
v -3599.515625 1450.840088 1978.807007
v -3601.200928 1450.840088 1977.423950
v -3603.123779 1450.840088 1976.396118
v -3605.210205 1450.840088 1975.763306
v -3609.549561 1450.840088 1975.763306
v -3607.379883 1450.840088 1975.549561
v -3611.635986 1450.840088 1976.396118
v -3613.558838 1450.840088 1977.423950
v -3615.244141 1450.840088 1978.807007
v -3616.627197 1450.840088 1980.492432
v -3617.655029 1450.840088 1982.415161
v -3618.287842 1450.840088 1984.501587
v -3618.501465 1450.840088 1986.671265
v -3618.287842 1450.840088 1988.840942
v -3617.655029 1450.840088 1990.927368
v -3616.627197 1450.840088 1992.850098
v -3615.244141 1450.840088 1994.535522
v -3613.558838 1450.840088 1995.918579
v -3611.635986 1450.840088 1996.946411
v -3609.549561 1450.840088 1997.579224
v -3607.379883 1450.840088 1997.792969
v -3605.210205 1450.840088 1997.579224
v -3603.123779 1450.840088 1996.946411
v -3601.200928 1450.840088 1995.918579
v -3599.515625 1450.840088 1994.535522
v -3598.132568 1450.840088 1992.850098
v -3597.104736 1450.840088 1990.927368
v -3596.471924 1450.840088 1988.840942
v -3596.258301 1450.840088 1986.671265
v -3596.471924 1450.840088 1984.501587
v -3597.104736 1450.840088 1982.415161
v -3598.132568 1450.840088 1980.492432
v -3599.515625 1450.840088 1978.807007
v -3601.200928 1450.840088 1977.423950
v -3603.123779 1450.840088 1976.396118
v -3605.210205 1450.840088 1975.763306
v -3609.549561 1480.201294 1975.763306
v -3607.379883 1480.201294 1975.549561
v -3611.635986 1480.201294 1976.396118
v -3613.558838 1480.201294 1977.423950
v -3615.244141 1480.201294 1978.807007
v -3616.627197 1480.201294 1980.492432
v -3617.655029 1480.201294 1982.415161
v -3618.287842 1480.201294 1984.501587
v -3618.501465 1480.201294 1986.671265
v -3618.287842 1480.201294 1988.840942
v -3617.655029 1480.201294 1990.927368
v -3616.627197 1480.201294 1992.850098
v -3615.244141 1480.201294 1994.535522
v -3613.558838 1480.201294 1995.918579
v -3611.635986 1480.201294 1996.946411
v -3609.549561 1480.201294 1997.579224
v -3607.379883 1480.201294 1997.792969
v -3605.210205 1480.201294 1997.579224
v -3603.123779 1480.201294 1996.946411
v -3601.200928 1480.201294 1995.918579
v -3599.515625 1480.201294 1994.535522
v -3598.132568 1480.201294 1992.850098
v -3597.104736 1480.201294 1990.927368
v -3596.471924 1480.201294 1988.840942
v -3596.258301 1480.201294 1986.671265
v -3596.471924 1480.201294 1984.501587
v -3597.104736 1480.201294 1982.415161
v -3598.132568 1480.201294 1980.492432
v -3599.515625 1480.201294 1978.807007
v -3601.200928 1480.201294 1977.423950
v -3603.123779 1480.201294 1976.396118
v -3605.210205 1480.201294 1975.763306
v -3611.045166 1481.552490 1968.242554
v -3607.379639 1481.552490 1967.881592
v -3614.570068 1481.552490 1969.311768
v -3617.818359 1481.552490 1971.048096
v -3620.665771 1481.552490 1973.384766
v -3623.002441 1481.552490 1976.232056
v -3624.738770 1481.552490 1979.480469
v -3625.807861 1481.552490 1983.005249
v -3626.168945 1481.552490 1986.670776
v -3625.807861 1481.552490 1990.336426
v -3624.738770 1481.552490 1993.861084
v -3623.002441 1481.552490 1997.109497
v -3620.665771 1481.552490 1999.956787
v -3617.818359 1481.552490 2002.293457
v -3614.570068 1481.552490 2004.029785
v -3611.045166 1481.552490 2005.098999
v -3607.379639 1481.552490 2005.460083
v -3603.714111 1481.552490 2005.098999
v -3600.189209 1481.552490 2004.029785
v -3596.940918 1481.552490 2002.293457
v -3594.093750 1481.552490 1999.956787
v -3591.756836 1481.552490 1997.109497
v -3590.020752 1481.552490 1993.861084
v -3588.951416 1481.552490 1990.336426
v -3588.590332 1481.552490 1986.670776
v -3588.951416 1481.552490 1983.005249
v -3590.020752 1481.552490 1979.480469
v -3591.756836 1481.552490 1976.232056
v -3594.093750 1481.552490 1973.384766
v -3596.940918 1481.552490 1971.048096
v -3600.189209 1481.552490 1969.311768
v -3603.714111 1481.552490 1968.242554
v -3611.045166 1491.518188 1968.242554
v -3607.379639 1491.518188 1967.881592
v -3614.570068 1491.518188 1969.311768
v -3617.818359 1491.518188 1971.048096
v -3620.665771 1491.518188 1973.384766
v -3623.002441 1491.518188 1976.232056
v -3624.738770 1491.518188 1979.480469
v -3625.807861 1491.518188 1983.005249
v -3626.168945 1491.518188 1986.670776
v -3625.807861 1491.518188 1990.336426
v -3624.738770 1491.518188 1993.861084
v -3623.002441 1491.518188 1997.109497
v -3620.665771 1491.518188 1999.956787
v -3617.818359 1491.518188 2002.293457
v -3614.570068 1491.518188 2004.029785
v -3611.045166 1491.518188 2005.098999
v -3607.379639 1491.518188 2005.460083
v -3603.714111 1491.518188 2005.098999
v -3600.189209 1491.518188 2004.029785
v -3596.940918 1491.518188 2002.293457
v -3594.093750 1491.518188 1999.956787
v -3591.756836 1491.518188 1997.109497
v -3590.020752 1491.518188 1993.861084
v -3588.951416 1491.518188 1990.336426
v -3588.590332 1491.518188 1986.670776
v -3588.951416 1491.518188 1983.005249
v -3590.020752 1491.518188 1979.480469
v -3591.756836 1491.518188 1976.232056
v -3594.093750 1491.518188 1973.384766
v -3596.940918 1491.518188 1971.048096
v -3600.189209 1491.518188 1969.311768
v -3603.714111 1491.518188 1968.242554
vn -0.0000 -1.0000 -0.0000
vn -0.0981 -0.0000 0.9952
vn -0.0000 1.0000 -0.0000
vn 0.0822 -0.9847 0.1538
vn -0.4714 -0.0000 -0.8819
vn 0.4714 -0.0000 -0.8819
vn 0.0980 -0.0000 0.9952
vn -0.6345 -0.0000 -0.7729
vn 0.2903 -0.0000 -0.9569
vn 0.2902 -0.0000 0.9570
vn -0.7732 -0.0000 -0.6342
vn 0.0980 -0.0000 -0.9952
vn 0.4713 -0.0000 0.8820
vn -0.8819 -0.0000 -0.4714
vn 0.6345 -0.0000 0.7729
vn -0.9569 -0.0000 -0.2904
vn 0.7732 -0.0000 0.6342
vn -0.9952 -0.0000 -0.0979
vn 0.8818 -0.0000 0.4715
vn -0.9952 -0.0000 0.0981
vn 0.9570 -0.0000 0.2902
vn -0.9570 -0.0000 0.2902
vn 0.9952 -0.0000 0.0979
vn -0.8819 -0.0000 0.4714
vn 0.9952 -0.0000 -0.0979
vn -0.7729 -0.0000 0.6345
vn 0.9569 -0.0000 -0.2904
vn -0.6343 -0.0000 0.7731
vn 0.8819 -0.0000 -0.4714
vn -0.4714 -0.0000 0.8819
vn -0.0980 -0.0000 -0.9952
vn 0.7730 -0.0000 -0.6344
vn -0.2902 -0.0000 0.9570
vn -0.2902 -0.0000 -0.9570
vn 0.6343 -0.0000 -0.7731
vn 0.8820 -0.0000 0.4713
vn -0.1538 -0.9847 -0.0822
vn 0.1106 -0.9847 0.1348
vn -0.1668 -0.9847 -0.0506
vn 0.1348 -0.9847 0.1106
vn -0.1735 -0.9847 -0.0171
vn 0.1539 -0.9847 0.0822
vn -0.1735 -0.9847 0.0171
vn 0.1669 -0.9847 0.0506
vn -0.1669 -0.9847 0.0506
vn 0.1736 -0.9847 0.0171
vn -0.1537 -0.9847 0.0822
vn 0.1735 -0.9847 -0.0171
vn -0.1348 -0.9847 0.1106
vn 0.1669 -0.9847 -0.0506
vn -0.1106 -0.9847 0.1348
vn 0.1538 -0.9847 -0.0822
vn -0.0823 -0.9847 0.1538
vn -0.0171 -0.9847 -0.1735
vn 0.1347 -0.9847 -0.1106
vn -0.0506 -0.9847 0.1669
vn -0.0506 -0.9847 -0.1669
vn 0.1106 -0.9847 -0.1348
vn -0.0171 -0.9847 0.1735
vn -0.0822 -0.9847 -0.1537
vn 0.0823 -0.9847 -0.1537
vn 0.0171 -0.9847 0.1735
vn -0.1106 -0.9847 -0.1348
vn 0.0506 -0.9847 -0.1668
vn 0.0506 -0.9847 0.1669
vn -0.1348 -0.9847 -0.1106
vn 0.0171 -0.9847 -0.1735
vn 0.9569 -0.0000 0.2903
vn -0.9570 -0.0000 0.2901
vn 0.9952 -0.0000 -0.0981
vn -0.7730 -0.0000 0.6344
vn 0.9569 -0.0000 -0.2903
vn -0.6345 -0.0000 0.7729
vn -0.4715 -0.0000 0.8819
vn -0.2903 -0.0000 0.9569
vn 0.6344 -0.0000 -0.7730
vn -0.0980 -0.0000 0.9952
vn 0.4715 -0.0000 -0.8819
vn -0.6343 -0.0000 -0.7731
vn 0.2902 -0.0000 -0.9570
vn 0.2903 -0.0000 0.9569
vn -0.7730 -0.0000 -0.6344
vn 0.4714 -0.0000 0.8819
vn 0.6344 -0.0000 0.7730
vn -0.9569 -0.0000 -0.2903
vn 0.7730 -0.0000 0.6344
vn -0.0005 -1.0000 -0.0000
vn 0.0005 -1.0000 -0.0000
vn 0.4713 -0.0000 -0.8820
vn -0.6342 -0.0000 -0.7731
vn -0.7729 -0.0000 -0.6345
vn 0.6342 -0.0000 0.7731
vn -0.9570 -0.0000 -0.2902
vn -0.9952 -0.0000 -0.0981
vn 0.8819 -0.0000 0.4714
vn -0.9952 -0.0000 0.0979
vn 0.9569 -0.0000 0.2904
vn -0.9569 -0.0000 0.2904
vn -0.7732 -0.0000 0.6342
vn 0.9570 -0.0000 -0.2902
vn 0.8818 -0.0000 -0.4716
vn -0.0981 -0.0000 -0.9952
vn 0.7732 -0.0000 -0.6342
vn 0.6345 -0.0000 -0.7729
vn -0.1669 -0.9847 -0.0506
vn 0.1537 -0.9847 0.0822
vn -0.1736 -0.9847 0.0171
vn 0.1668 -0.9847 0.0506
vn 0.1735 -0.9847 0.0171
vn -0.1539 -0.9847 0.0821
vn 0.1668 -0.9847 -0.0506
vn -0.1107 -0.9847 0.1348
vn -0.0822 -0.9847 0.1538
vn 0.1348 -0.9847 -0.1106
vn -0.0506 -0.9847 -0.1668
vn -0.0823 -0.9847 -0.1538
vn 0.0822 -0.9847 -0.1538
vn -0.0004 1.0000 -0.0000
vn 0.0001 1.0000 -0.0000
vn -0.0001 1.0000 -0.0000
vn 0.0004 1.0000 -0.0000
vn -0.9569 -0.0000 0.2903
vn 0.9952 -0.0000 0.0981
vn 0.8820 -0.0000 -0.4713
vn -0.2903 -0.0000 -0.9569
vn -0.4715 -0.0000 -0.8819
vn 0.4715 -0.0000 0.8819
vn -0.9570 -0.0000 -0.2901
vt 0.000000 0.000000
s 0
usemtl Material.003
f 19/1/1 11/1/1 3/1/1
f 49/1/2 80/1/2 48/1/2
f 8/1/3 41/1/3 40/1/3
f 22/1/3 55/1/3 54/1/3
f 9/1/3 42/1/3 41/1/3
f 23/1/3 56/1/3 55/1/3
f 10/1/3 43/1/3 42/1/3
f 24/1/3 57/1/3 56/1/3
f 11/1/3 44/1/3 43/1/3
f 25/1/3 58/1/3 57/1/3
f 12/1/3 45/1/3 44/1/3
f 26/1/3 59/1/3 58/1/3
f 13/1/3 46/1/3 45/1/3
f 27/1/3 60/1/3 59/1/3
f 14/1/3 47/1/3 46/1/3
f 1/1/3 33/1/3 34/1/3
f 28/1/3 61/1/3 60/1/3
f 15/1/3 48/1/3 47/1/3
f 2/1/3 35/1/3 33/1/3
f 29/1/3 62/1/3 61/1/3
f 16/1/3 49/1/3 48/1/3
f 3/1/3 36/1/3 35/1/3
f 30/1/3 63/1/3 62/1/3
f 17/1/3 50/1/3 49/1/3
f 4/1/3 37/1/3 36/1/3
f 31/1/3 64/1/3 63/1/3
f 18/1/3 51/1/3 50/1/3
f 5/1/3 38/1/3 37/1/3
f 32/1/3 34/1/3 64/1/3
f 19/1/3 52/1/3 51/1/3
f 6/1/3 39/1/3 38/1/3
f 20/1/3 53/1/3 52/1/3
f 7/1/3 40/1/3 39/1/3
f 21/1/3 54/1/3 53/1/3
f 84/1/4 115/1/4 83/1/4
f 36/1/5 67/1/5 35/1/5
f 63/1/6 94/1/6 62/1/6
f 50/1/7 81/1/7 49/1/7
f 37/1/8 68/1/8 36/1/8
f 64/1/9 95/1/9 63/1/9
f 51/1/10 82/1/10 50/1/10
f 38/1/11 69/1/11 37/1/11
f 34/1/12 96/1/12 64/1/12
f 52/1/13 83/1/13 51/1/13
f 39/1/14 70/1/14 38/1/14
f 53/1/15 84/1/15 52/1/15
f 40/1/16 71/1/16 39/1/16
f 54/1/17 85/1/17 53/1/17
f 41/1/18 72/1/18 40/1/18
f 55/1/19 86/1/19 54/1/19
f 42/1/20 73/1/20 41/1/20
f 56/1/21 87/1/21 55/1/21
f 43/1/22 74/1/22 42/1/22
f 57/1/23 88/1/23 56/1/23
f 44/1/24 75/1/24 43/1/24
f 58/1/25 89/1/25 57/1/25
f 45/1/26 76/1/26 44/1/26
f 59/1/27 90/1/27 58/1/27
f 46/1/28 77/1/28 45/1/28
f 60/1/29 91/1/29 59/1/29
f 47/1/30 78/1/30 46/1/30
f 33/1/31 66/1/31 34/1/31
f 61/1/32 92/1/32 60/1/32
f 48/1/33 79/1/33 47/1/33
f 35/1/34 65/1/34 33/1/34
f 62/1/35 93/1/35 61/1/35
f 119/1/36 150/1/36 118/1/36
f 70/1/37 103/1/37 102/1/37
f 85/1/38 116/1/38 84/1/38
f 71/1/39 104/1/39 103/1/39
f 86/1/40 117/1/40 85/1/40
f 72/1/41 105/1/41 104/1/41
f 87/1/42 118/1/42 86/1/42
f 73/1/43 106/1/43 105/1/43
f 88/1/44 119/1/44 87/1/44
f 75/1/45 106/1/45 74/1/45
f 89/1/46 120/1/46 88/1/46
f 75/1/47 108/1/47 107/1/47
f 90/1/48 121/1/48 89/1/48
f 76/1/49 109/1/49 108/1/49
f 91/1/50 122/1/50 90/1/50
f 77/1/51 110/1/51 109/1/51
f 92/1/52 123/1/52 91/1/52
f 79/1/53 110/1/53 78/1/53
f 66/1/54 97/1/54 98/1/54
f 92/1/55 125/1/55 124/1/55
f 79/1/56 112/1/56 111/1/56
f 67/1/57 97/1/57 65/1/57
f 94/1/58 125/1/58 93/1/58
f 81/1/59 112/1/59 80/1/59
f 67/1/60 100/1/60 99/1/60
f 95/1/61 126/1/61 94/1/61
f 81/1/62 114/1/62 113/1/62
f 68/1/63 101/1/63 100/1/63
f 95/1/64 128/1/64 127/1/64
f 83/1/65 114/1/65 82/1/65
f 69/1/66 102/1/66 101/1/66
f 96/1/67 98/1/67 128/1/67
f 145/1/3 153/1/3 130/1/3
f 106/1/20 137/1/20 105/1/20
f 120/1/68 151/1/68 119/1/68
f 107/1/69 138/1/69 106/1/69
f 121/1/23 152/1/23 120/1/23
f 108/1/24 139/1/24 107/1/24
f 122/1/70 153/1/70 121/1/70
f 109/1/71 140/1/71 108/1/71
f 123/1/72 154/1/72 122/1/72
f 110/1/73 141/1/73 109/1/73
f 124/1/29 155/1/29 123/1/29
f 111/1/74 142/1/74 110/1/74
f 97/1/31 130/1/31 98/1/31
f 125/1/32 156/1/32 124/1/32
f 112/1/75 143/1/75 111/1/75
f 99/1/34 129/1/34 97/1/34
f 126/1/76 157/1/76 125/1/76
f 113/1/77 144/1/77 112/1/77
f 100/1/5 131/1/5 99/1/5
f 127/1/78 158/1/78 126/1/78
f 114/1/7 145/1/7 113/1/7
f 101/1/79 132/1/79 100/1/79
f 128/1/80 159/1/80 127/1/80
f 115/1/81 146/1/81 114/1/81
f 102/1/82 133/1/82 101/1/82
f 98/1/12 160/1/12 128/1/12
f 116/1/83 147/1/83 115/1/83
f 103/1/14 134/1/14 102/1/14
f 117/1/84 148/1/84 116/1/84
f 104/1/85 135/1/85 103/1/85
f 118/1/86 149/1/86 117/1/86
f 105/1/18 136/1/18 104/1/18
f 3/1/1 2/1/1 1/1/1
f 1/1/1 32/1/1 31/1/1
f 31/1/1 30/1/1 29/1/1
f 29/1/1 28/1/1 27/1/1
f 27/1/87 26/1/87 25/1/87
f 25/1/87 24/1/87 23/1/87
f 23/1/1 22/1/1 21/1/1
f 21/1/1 20/1/1 19/1/1
f 19/1/1 18/1/1 17/1/1
f 17/1/1 16/1/1 15/1/1
f 15/1/1 14/1/1 13/1/1
f 13/1/1 12/1/1 11/1/1
f 11/1/88 10/1/88 9/1/88
f 9/1/88 8/1/88 7/1/88
f 7/1/1 6/1/1 5/1/1
f 5/1/1 4/1/1 3/1/1
f 3/1/1 1/1/1 31/1/1
f 31/1/1 29/1/1 27/1/1
f 27/1/1 25/1/1 23/1/1
f 23/1/1 21/1/1 19/1/1
f 19/1/1 17/1/1 15/1/1
f 15/1/1 13/1/1 11/1/1
f 11/1/1 9/1/1 7/1/1
f 7/1/1 5/1/1 3/1/1
f 3/1/1 31/1/1 27/1/1
f 27/1/1 23/1/1 19/1/1
f 19/1/1 15/1/1 11/1/1
f 11/1/1 7/1/1 3/1/1
f 3/1/1 27/1/1 19/1/1
f 49/1/77 81/1/77 80/1/77
f 8/1/3 9/1/3 41/1/3
f 22/1/3 23/1/3 55/1/3
f 9/1/3 10/1/3 42/1/3
f 23/1/3 24/1/3 56/1/3
f 10/1/3 11/1/3 43/1/3
f 24/1/3 25/1/3 57/1/3
f 11/1/3 12/1/3 44/1/3
f 25/1/3 26/1/3 58/1/3
f 12/1/3 13/1/3 45/1/3
f 26/1/3 27/1/3 59/1/3
f 13/1/3 14/1/3 46/1/3
f 27/1/3 28/1/3 60/1/3
f 14/1/3 15/1/3 47/1/3
f 1/1/3 2/1/3 33/1/3
f 28/1/3 29/1/3 61/1/3
f 15/1/3 16/1/3 48/1/3
f 2/1/3 3/1/3 35/1/3
f 29/1/3 30/1/3 62/1/3
f 16/1/3 17/1/3 49/1/3
f 3/1/3 4/1/3 36/1/3
f 30/1/3 31/1/3 63/1/3
f 17/1/3 18/1/3 50/1/3
f 4/1/3 5/1/3 37/1/3
f 31/1/3 32/1/3 64/1/3
f 18/1/3 19/1/3 51/1/3
f 5/1/3 6/1/3 38/1/3
f 32/1/3 1/1/3 34/1/3
f 19/1/3 20/1/3 52/1/3
f 6/1/3 7/1/3 39/1/3
f 20/1/3 21/1/3 53/1/3
f 7/1/3 8/1/3 40/1/3
f 21/1/3 22/1/3 54/1/3
f 84/1/4 116/1/4 115/1/4
f 36/1/5 68/1/5 67/1/5
f 63/1/89 95/1/89 94/1/89
f 50/1/7 82/1/7 81/1/7
f 37/1/90 69/1/90 68/1/90
f 64/1/80 96/1/80 95/1/80
f 51/1/81 83/1/81 82/1/81
f 38/1/91 70/1/91 69/1/91
f 34/1/12 66/1/12 96/1/12
f 52/1/83 84/1/83 83/1/83
f 39/1/14 71/1/14 70/1/14
f 53/1/92 85/1/92 84/1/92
f 40/1/93 72/1/93 71/1/93
f 54/1/86 86/1/86 85/1/86
f 41/1/94 73/1/94 72/1/94
f 55/1/95 87/1/95 86/1/95
f 42/1/96 74/1/96 73/1/96
f 56/1/97 88/1/97 87/1/97
f 43/1/98 75/1/98 74/1/98
f 57/1/23 89/1/23 88/1/23
f 44/1/24 76/1/24 75/1/24
f 58/1/25 90/1/25 89/1/25
f 45/1/99 77/1/99 76/1/99
f 59/1/100 91/1/100 90/1/100
f 46/1/73 78/1/73 77/1/73
f 60/1/101 92/1/101 91/1/101
f 47/1/30 79/1/30 78/1/30
f 33/1/102 65/1/102 66/1/102
f 61/1/103 93/1/103 92/1/103
f 48/1/33 80/1/33 79/1/33
f 35/1/34 67/1/34 65/1/34
f 62/1/104 94/1/104 93/1/104
f 119/1/95 151/1/95 150/1/95
f 70/1/37 71/1/37 103/1/37
f 85/1/38 117/1/38 116/1/38
f 71/1/105 72/1/105 104/1/105
f 86/1/40 118/1/40 117/1/40
f 72/1/41 73/1/41 105/1/41
f 87/1/106 119/1/106 118/1/106
f 73/1/107 74/1/107 106/1/107
f 88/1/108 120/1/108 119/1/108
f 75/1/45 107/1/45 106/1/45
f 89/1/109 121/1/109 120/1/109
f 75/1/110 76/1/110 108/1/110
f 90/1/48 122/1/48 121/1/48
f 76/1/49 77/1/49 109/1/49
f 91/1/111 123/1/111 122/1/111
f 77/1/112 78/1/112 110/1/112
f 92/1/52 124/1/52 123/1/52
f 79/1/113 111/1/113 110/1/113
f 66/1/54 65/1/54 97/1/54
f 92/1/114 93/1/114 125/1/114
f 79/1/56 80/1/56 112/1/56
f 67/1/115 99/1/115 97/1/115
f 94/1/58 126/1/58 125/1/58
f 81/1/59 113/1/59 112/1/59
f 67/1/116 68/1/116 100/1/116
f 95/1/117 127/1/117 126/1/117
f 81/1/62 82/1/62 114/1/62
f 68/1/63 69/1/63 101/1/63
f 95/1/64 96/1/64 128/1/64
f 83/1/65 115/1/65 114/1/65
f 69/1/66 70/1/66 102/1/66
f 96/1/67 66/1/67 98/1/67
f 130/1/3 129/1/3 131/1/3
f 131/1/3 132/1/3 133/1/3
f 133/1/118 134/1/118 135/1/118
f 135/1/3 136/1/3 137/1/3
f 137/1/3 138/1/3 139/1/3
f 139/1/118 140/1/118 141/1/118
f 141/1/3 142/1/3 143/1/3
f 143/1/119 144/1/119 145/1/119
f 145/1/120 146/1/120 147/1/120
f 147/1/3 148/1/3 149/1/3
f 149/1/121 150/1/121 151/1/121
f 151/1/3 152/1/3 153/1/3
f 153/1/3 154/1/3 155/1/3
f 155/1/121 156/1/121 157/1/121
f 157/1/3 158/1/3 159/1/3
f 159/1/3 160/1/3 130/1/3
f 130/1/3 131/1/3 133/1/3
f 133/1/119 135/1/119 137/1/119
f 137/1/119 139/1/119 141/1/119
f 141/1/3 143/1/3 145/1/3
f 145/1/3 147/1/3 149/1/3
f 149/1/120 151/1/120 153/1/120
f 153/1/120 155/1/120 157/1/120
f 157/1/3 159/1/3 130/1/3
f 130/1/3 133/1/3 137/1/3
f 137/1/3 141/1/3 145/1/3
f 145/1/3 149/1/3 153/1/3
f 153/1/3 157/1/3 130/1/3
f 130/1/3 137/1/3 145/1/3
f 106/1/96 138/1/96 137/1/96
f 120/1/68 152/1/68 151/1/68
f 107/1/122 139/1/122 138/1/122
f 121/1/123 153/1/123 152/1/123
f 108/1/24 140/1/24 139/1/24
f 122/1/25 154/1/25 153/1/25
f 109/1/71 141/1/71 140/1/71
f 123/1/72 155/1/72 154/1/72
f 110/1/28 142/1/28 141/1/28
f 124/1/124 156/1/124 155/1/124
f 111/1/30 143/1/30 142/1/30
f 97/1/31 129/1/31 130/1/31
f 125/1/32 157/1/32 156/1/32
f 112/1/33 144/1/33 143/1/33
f 99/1/125 131/1/125 129/1/125
f 126/1/76 158/1/76 157/1/76
f 113/1/2 145/1/2 144/1/2
f 100/1/126 132/1/126 131/1/126
f 127/1/6 159/1/6 158/1/6
f 114/1/7 146/1/7 145/1/7
f 101/1/8 133/1/8 132/1/8
f 128/1/9 160/1/9 159/1/9
f 115/1/10 147/1/10 146/1/10
f 102/1/82 134/1/82 133/1/82
f 98/1/12 130/1/12 160/1/12
f 116/1/127 148/1/127 147/1/127
f 103/1/14 135/1/14 134/1/14
f 117/1/84 149/1/84 148/1/84
f 104/1/128 136/1/128 135/1/128
f 118/1/86 150/1/86 149/1/86
f 105/1/94 137/1/94 136/1/94
