# Blender 4.1.1
# www.blender.org
mtllib box.mtl
o polygon0.003
v -4.923825 4.689944 -4.879871
v -2.275026 0.298980 1.820480
v -3.049588 7.182659 6.637786
v -5.698388 11.573622 -0.062565
v 5.698388 2.426378 0.062565
v 3.049588 6.817341 -6.637786
v 2.275026 13.701019 -1.820480
v 4.923825 9.310057 4.879871
v -4.923825 4.689944 -4.879871
v 3.049588 6.817341 -6.637786
v 5.698388 2.426378 0.062565
v -2.275026 0.298980 1.820480
v -5.698388 11.573622 -0.062565
v 2.275026 13.701019 -1.820480
v 3.049588 6.817341 -6.637786
v -4.923825 4.689944 -4.879871
v -3.049588 7.182659 6.637786
v 4.923825 9.310057 4.879871
v 2.275026 13.701019 -1.820480
v -5.698388 11.573622 -0.062565
v -2.275026 0.298980 1.820480
v 5.698388 2.426378 0.062565
v 4.923825 9.310057 4.879871
v -3.049588 7.182659 6.637786
vn -0.9450 -0.2521 0.2083
vn 0.9450 0.2521 -0.2083
vn 0.0918 -0.8158 -0.5709
vn -0.3139 0.5204 -0.7941
vn -0.0918 0.8158 0.5709
vn 0.3139 -0.5204 0.7941
vt -1.000000 -1.000000
vt 0.000000 -1.000000
vt 0.000000 0.000000
vt -1.000000 0.000000
vt 1.000000 -1.000000
vt 2.000000 -1.000000
vt 2.000000 0.000000
vt 1.000000 0.000000
vt 0.000000 2.000000
vt 1.000000 2.000000
vt 1.000000 3.000000
vt 0.000000 3.000000
vt 0.000000 1.000000
vt 1.000000 1.000000
s 0
usemtl box_mat.001
f 1/1/1 2/2/1 3/3/1 4/4/1
f 5/5/2 6/6/2 7/7/2 8/8/2
f 9/9/3 10/10/3 11/11/3 12/12/3
f 13/10/4 14/9/4 15/13/4 16/14/4
f 17/3/5 18/8/5 19/14/5 20/13/5
f 21/2/6 22/5/6 23/8/6 24/3/6
