# Blender 4.1.1
# www.blender.org
mtllib Circle.014.mtl
o Pipe.135
v -3007.932861 2854.929932 1654.447754
v -3010.544678 2854.929932 1654.705078
v -3013.056396 2854.929932 1655.466919
v -3015.371094 2854.929932 1656.704102
v -3017.399658 2854.929932 1658.368896
v -3019.064697 2854.929932 1660.397827
v -3020.301758 2854.929932 1662.712280
v -3021.063477 2854.929932 1665.223877
v -3021.321045 2854.929932 1667.835693
v -3021.063477 2854.929932 1670.447510
v -3020.301758 2854.929932 1672.959106
v -3019.064697 2854.929932 1675.273682
v -3017.399658 2854.929932 1677.302490
v -3015.371094 2854.929932 1678.967407
v -3013.056396 2854.929932 1680.204468
v -3010.544678 2854.929932 1680.966431
v -3007.932861 2854.929932 1681.223633
v -3005.321045 2854.929932 1680.966431
v -3002.809570 2854.929932 1680.204468
v -3000.494873 2854.929932 1678.967407
v -2998.466064 2854.929932 1677.302490
v -2996.801025 2854.929932 1675.273682
v -2995.563965 2854.929932 1672.959106
v -2994.802246 2854.929932 1670.447510
v -2994.544922 2854.929932 1667.835693
v -2994.802246 2854.929932 1665.223877
v -2995.563965 2854.929932 1662.712280
v -2996.801025 2854.929932 1660.397827
v -2998.466064 2854.929932 1658.368896
v -3000.494873 2854.929932 1656.704102
v -3002.809570 2854.929932 1655.466919
v -3005.321045 2854.929932 1654.705078
v -3010.544678 2854.929932 1654.705078
v -3007.932861 2854.929932 1654.447754
v -3013.056396 2854.929932 1655.466919
v -3015.371094 2854.929932 1656.704102
v -3017.399658 2854.929932 1658.368896
v -3019.064697 2854.929932 1660.397827
v -3020.301758 2854.929932 1662.712280
v -3021.063477 2854.929932 1665.223877
v -3021.321045 2854.929932 1667.835693
v -3021.063477 2854.929932 1670.447510
v -3020.301758 2854.929932 1672.959106
v -3019.064697 2854.929932 1675.273682
v -3017.399658 2854.929932 1677.302490
v -3015.371094 2854.929932 1678.967407
v -3013.056396 2854.929932 1680.204468
v -3010.544678 2854.929932 1680.966431
v -3007.932861 2854.929932 1681.223633
v -3005.321045 2854.929932 1680.966431
v -3002.809570 2854.929932 1680.204468
v -3000.494873 2854.929932 1678.967407
v -2998.466064 2854.929932 1677.302490
v -2996.801025 2854.929932 1675.273682
v -2995.563965 2854.929932 1672.959106
v -2994.802246 2854.929932 1670.447510
v -2994.544922 2854.929932 1667.835693
v -2994.802246 2854.929932 1665.223877
v -2995.563965 2854.929932 1662.712280
v -2996.801025 2854.929932 1660.397827
v -2998.466064 2854.929932 1658.368896
v -3000.494873 2854.929932 1656.704102
v -3002.809570 2854.929932 1655.466919
v -3005.321045 2854.929932 1654.705078
v -3010.544678 2893.894043 1654.705078
v -3007.932861 2893.894043 1654.447754
v -3013.056396 2893.894043 1655.466919
v -3015.371094 2893.894043 1656.704102
v -3017.399658 2893.894043 1658.368896
v -3019.064697 2893.894043 1660.397827
v -3020.301758 2893.894043 1662.712280
v -3021.063477 2893.894043 1665.223877
v -3021.321045 2893.894043 1667.835693
v -3021.063477 2893.894043 1670.447510
v -3020.301758 2893.894043 1672.959106
v -3019.064697 2893.894043 1675.273682
v -3017.399658 2893.894043 1677.302490
v -3015.371094 2893.894043 1678.967407
v -3013.056396 2893.894043 1680.204468
v -3010.544678 2893.894043 1680.966431
v -3007.932861 2893.894043 1681.223633
v -3005.321045 2893.894043 1680.966431
v -3002.809570 2893.894043 1680.204468
v -3000.494873 2893.894043 1678.967407
v -2998.466064 2893.894043 1677.302490
v -2996.801025 2893.894043 1675.273682
v -2995.563965 2893.894043 1672.959106
v -2994.802246 2893.894043 1670.447510
v -2994.544922 2893.894043 1667.835693
v -2994.802246 2893.894043 1665.223877
v -2995.563965 2893.894043 1662.712280
v -2996.801025 2893.894043 1660.397827
v -2998.466064 2893.894043 1658.368896
v -3000.494873 2893.894043 1656.704102
v -3002.809570 2893.894043 1655.466919
v -3005.321045 2893.894043 1654.705078
v -3012.357422 2894.458008 1645.591553
v -3007.932861 2894.458008 1645.155762
v -3016.611816 2894.458008 1646.882202
v -3020.533203 2894.458008 1648.978027
v -3023.969727 2894.458008 1651.798462
v -3026.790527 2894.458008 1655.235352
v -3028.885986 2894.458008 1659.156250
v -3030.176758 2894.458008 1663.410889
v -3030.612549 2894.458008 1667.835327
v -3030.176758 2894.458008 1672.260132
v -3028.885986 2894.458008 1676.514526
v -3026.790527 2894.458008 1680.435547
v -3023.969727 2894.458008 1683.872437
v -3020.533203 2894.458008 1686.692871
v -3016.611816 2894.458008 1688.788696
v -3012.357422 2894.458008 1690.079346
v -3007.932861 2894.458008 1690.515015
v -3003.508301 2894.458008 1690.079346
v -2999.253906 2894.458008 1688.788696
v -2995.332764 2894.458008 1686.692871
v -2991.895996 2894.458008 1683.872437
v -2989.075439 2894.458008 1680.435547
v -2986.979736 2894.458008 1676.514526
v -2985.688965 2894.458008 1672.260132
v -2985.253174 2894.458008 1667.835327
v -2985.688965 2894.458008 1663.410889
v -2986.979736 2894.458008 1659.156250
v -2989.075439 2894.458008 1655.235352
v -2991.895996 2894.458008 1651.798462
v -2995.332764 2894.458008 1648.978027
v -2999.253906 2894.458008 1646.882202
v -3003.508301 2894.458008 1645.591553
v -3012.357422 2903.300049 1645.591553
v -3007.932861 2903.300049 1645.155762
v -3016.611816 2903.300049 1646.882202
v -3020.533203 2903.300049 1648.978027
v -3023.969727 2903.300049 1651.798462
v -3026.790527 2903.300049 1655.235352
v -3028.885986 2903.300049 1659.156250
v -3030.176758 2903.300049 1663.410889
v -3030.612549 2903.300049 1667.835327
v -3030.176758 2903.300049 1672.260132
v -3028.885986 2903.300049 1676.514526
v -3026.790527 2903.300049 1680.435547
v -3023.969727 2903.300049 1683.872437
v -3020.533203 2903.300049 1686.692871
v -3016.611816 2903.300049 1688.788696
v -3012.357422 2903.300049 1690.079346
v -3007.932861 2903.300049 1690.515015
v -3003.508301 2903.300049 1690.079346
v -2999.253906 2903.300049 1688.788696
v -2995.332764 2903.300049 1686.692871
v -2991.895996 2903.300049 1683.872437
v -2989.075439 2903.300049 1680.435547
v -2986.979736 2903.300049 1676.514526
v -2985.688965 2903.300049 1672.260132
v -2985.253174 2903.300049 1667.835327
v -2985.688965 2903.300049 1663.410889
v -2986.979736 2903.300049 1659.156250
v -2989.075439 2903.300049 1655.235352
v -2991.895996 2903.300049 1651.798462
v -2995.332764 2903.300049 1648.978027
v -2999.253906 2903.300049 1646.882202
v -3003.508301 2903.300049 1645.591553
vn -0.0000 -1.0000 -0.0000
vn -0.9570 -0.0000 -0.2902
vn -0.0000 1.0000 -0.0000
vn -0.0583 -0.9981 0.0177
vn 0.7730 -0.0000 0.6344
vn -0.9952 -0.0000 -0.0982
vn 0.8820 -0.0000 0.4713
vn -0.9952 -0.0000 0.0979
vn 0.9570 -0.0000 0.2902
vn -0.9569 -0.0000 0.2903
vn 0.9952 -0.0000 0.0979
vn -0.8819 -0.0000 0.4715
vn 0.9952 -0.0000 -0.0981
vn -0.7730 -0.0000 0.6344
vn 0.9569 -0.0000 -0.2903
vn -0.6344 -0.0000 0.7730
vn 0.8819 -0.0000 -0.4715
vn -0.4714 -0.0000 0.8819
vn -0.0980 -0.0000 -0.9952
vn 0.7730 -0.0000 -0.6344
vn -0.2903 -0.0000 0.9569
vn -0.2902 -0.0000 -0.9570
vn 0.6343 -0.0000 -0.7731
vn -0.0980 -0.0000 0.9952
vn -0.4713 -0.0000 -0.8820
vn 0.4713 -0.0000 -0.8820
vn 0.0980 -0.0000 0.9952
vn -0.6344 -0.0000 -0.7730
vn 0.2902 -0.0000 -0.9570
vn 0.2904 -0.0000 0.9569
vn -0.7730 -0.0000 -0.6344
vn 0.0980 -0.0000 -0.9952
vn 0.4714 -0.0000 0.8819
vn -0.8820 -0.0000 -0.4713
vn 0.6344 -0.0000 0.7730
vn 0.0606 -0.9981 0.0060
vn -0.0537 -0.9981 0.0287
vn 0.0606 -0.9981 -0.0060
vn -0.0470 -0.9981 0.0386
vn 0.0583 -0.9981 -0.0177
vn -0.0386 -0.9981 0.0471
vn 0.0537 -0.9981 -0.0287
vn -0.0287 -0.9981 0.0537
vn -0.0060 -0.9981 -0.0606
vn 0.0471 -0.9981 -0.0386
vn -0.0177 -0.9981 0.0583
vn -0.0178 -0.9981 -0.0583
vn 0.0387 -0.9981 -0.0470
vn -0.0060 -0.9981 0.0606
vn -0.0288 -0.9981 -0.0537
vn 0.0288 -0.9981 -0.0537
vn 0.0059 -0.9981 0.0606
vn -0.0386 -0.9981 -0.0471
vn 0.0178 -0.9981 -0.0583
vn 0.0176 -0.9981 0.0582
vn -0.0470 -0.9981 -0.0386
vn 0.0059 -0.9981 -0.0606
vn 0.0288 -0.9981 0.0537
vn -0.0537 -0.9981 -0.0287
vn 0.0387 -0.9981 0.0471
vn -0.0583 -0.9981 -0.0177
vn 0.0471 -0.9981 0.0386
vn -0.0606 -0.9981 -0.0060
vn 0.0537 -0.9981 0.0287
vn -0.0606 -0.9981 0.0060
vn 0.0582 -0.9981 0.0177
vn 0.2903 -0.0000 -0.9569
vn 0.2903 -0.0000 0.9569
vn -0.8819 -0.0000 -0.4714
vn 0.6343 -0.0000 0.7731
vn -0.9569 -0.0000 -0.2903
vn -0.9952 -0.0000 -0.0980
vn 0.8819 -0.0000 0.4714
vn -0.9952 -0.0000 0.0981
vn 0.9569 -0.0000 0.2904
vn -0.9569 -0.0000 0.2904
vn 0.9952 -0.0000 0.0980
vn -0.8820 -0.0000 0.4713
vn 0.8820 -0.0000 -0.4713
vn -0.2903 -0.0000 -0.9569
vn 0.6344 -0.0000 -0.7730
vn -0.4714 -0.0000 -0.8819
vn 0.4714 -0.0000 -0.8819
vn -0.0001 -1.0000 -0.0000
vn -0.0004 -1.0000 -0.0000
vn 0.0002 -1.0000 -0.0000
vn -0.0002 -1.0000 -0.0000
vn -0.0582 -0.9981 0.0177
vn -0.9952 -0.0000 -0.0979
vn 0.8819 -0.0000 0.4715
vn -0.9952 -0.0000 0.0982
vn 0.9569 -0.0000 0.2903
vn -0.9570 -0.0000 0.2902
vn 0.9952 -0.0000 0.0981
vn 0.9952 -0.0000 -0.0979
vn 0.9570 -0.0000 -0.2902
vn -0.6345 -0.0000 0.7730
vn -0.4713 -0.0000 0.8820
vn 0.4715 -0.0000 -0.8819
vn 0.4713 -0.0000 0.8820
vn -0.8819 -0.0000 -0.4715
vn -0.0471 -0.9981 0.0386
vn -0.0387 -0.9981 0.0471
vn -0.0288 -0.9981 0.0537
vn -0.0059 -0.9981 -0.0606
vn 0.0470 -0.9981 -0.0386
vn -0.0176 -0.9981 0.0583
vn -0.0176 -0.9981 -0.0582
vn 0.0386 -0.9981 -0.0471
vn -0.0059 -0.9981 0.0606
vn -0.0287 -0.9981 -0.0537
vn 0.0287 -0.9981 -0.0537
vn 0.0060 -0.9981 0.0606
vn -0.0387 -0.9981 -0.0471
vn 0.0176 -0.9981 -0.0582
vn 0.0177 -0.9981 0.0583
vn -0.0471 -0.9981 -0.0386
vn 0.0060 -0.9981 -0.0606
vn 0.0287 -0.9981 0.0537
vn 0.0385 -0.9981 0.0471
vn -0.0582 -0.9981 -0.0177
vn 0.0470 -0.9981 0.0386
vn 0.0583 -0.9981 0.0177
vn 0.0003 1.0000 -0.0000
vn 0.0005 1.0000 -0.0000
vn 0.0001 1.0000 -0.0000
vn -0.0001 1.0000 -0.0000
vn -0.0003 1.0000 -0.0000
vn -0.0005 1.0000 -0.0000
vn -0.8820 -0.0000 -0.4712
vn -0.9952 -0.0000 -0.0981
vn -0.9952 -0.0000 0.0980
vn -0.8819 -0.0000 0.4714
vn 0.9952 -0.0000 -0.0980
vn 0.8819 -0.0000 -0.4714
vn 0.7731 -0.0000 -0.6343
vt 0.000000 0.000000
s 0
usemtl Material.003
f 19/1/1 11/1/1 3/1/1
f 40/1/2 71/1/2 39/1/2
f 26/1/3 59/1/3 58/1/3
f 13/1/3 46/1/3 45/1/3
f 27/1/3 60/1/3 59/1/3
f 14/1/3 47/1/3 46/1/3
f 1/1/3 33/1/3 34/1/3
f 28/1/3 61/1/3 60/1/3
f 15/1/3 48/1/3 47/1/3
f 2/1/3 35/1/3 33/1/3
f 29/1/3 62/1/3 61/1/3
f 16/1/3 49/1/3 48/1/3
f 3/1/3 36/1/3 35/1/3
f 30/1/3 63/1/3 62/1/3
f 17/1/3 50/1/3 49/1/3
f 4/1/3 37/1/3 36/1/3
f 31/1/3 64/1/3 63/1/3
f 18/1/3 51/1/3 50/1/3
f 5/1/3 38/1/3 37/1/3
f 32/1/3 34/1/3 64/1/3
f 19/1/3 52/1/3 51/1/3
f 6/1/3 39/1/3 38/1/3
f 20/1/3 53/1/3 52/1/3
f 7/1/3 40/1/3 39/1/3
f 21/1/3 54/1/3 53/1/3
f 8/1/3 41/1/3 40/1/3
f 22/1/3 55/1/3 54/1/3
f 9/1/3 42/1/3 41/1/3
f 23/1/3 56/1/3 55/1/3
f 10/1/3 43/1/3 42/1/3
f 24/1/3 57/1/3 56/1/3
f 11/1/3 44/1/3 43/1/3
f 25/1/3 58/1/3 57/1/3
f 12/1/3 45/1/3 44/1/3
f 75/1/4 106/1/4 74/1/4
f 54/1/5 85/1/5 53/1/5
f 41/1/6 72/1/6 40/1/6
f 55/1/7 86/1/7 54/1/7
f 42/1/8 73/1/8 41/1/8
f 56/1/9 87/1/9 55/1/9
f 43/1/10 74/1/10 42/1/10
f 57/1/11 88/1/11 56/1/11
f 44/1/12 75/1/12 43/1/12
f 58/1/13 89/1/13 57/1/13
f 45/1/14 76/1/14 44/1/14
f 59/1/15 90/1/15 58/1/15
f 46/1/16 77/1/16 45/1/16
f 60/1/17 91/1/17 59/1/17
f 47/1/18 78/1/18 46/1/18
f 33/1/19 66/1/19 34/1/19
f 61/1/20 92/1/20 60/1/20
f 48/1/21 79/1/21 47/1/21
f 35/1/22 65/1/22 33/1/22
f 62/1/23 93/1/23 61/1/23
f 49/1/24 80/1/24 48/1/24
f 36/1/25 67/1/25 35/1/25
f 63/1/26 94/1/26 62/1/26
f 50/1/27 81/1/27 49/1/27
f 37/1/28 68/1/28 36/1/28
f 64/1/29 95/1/29 63/1/29
f 51/1/30 82/1/30 50/1/30
f 38/1/31 69/1/31 37/1/31
f 34/1/32 96/1/32 64/1/32
f 52/1/33 83/1/33 51/1/33
f 39/1/34 70/1/34 38/1/34
f 53/1/35 84/1/35 52/1/35
f 114/1/27 145/1/27 113/1/27
f 89/1/36 120/1/36 88/1/36
f 75/1/37 108/1/37 107/1/37
f 90/1/38 121/1/38 89/1/38
f 76/1/39 109/1/39 108/1/39
f 91/1/40 122/1/40 90/1/40
f 78/1/41 109/1/41 77/1/41
f 92/1/42 123/1/42 91/1/42
f 78/1/43 111/1/43 110/1/43
f 66/1/44 97/1/44 98/1/44
f 93/1/45 124/1/45 92/1/45
f 80/1/46 111/1/46 79/1/46
f 67/1/47 97/1/47 65/1/47
f 94/1/48 125/1/48 93/1/48
f 80/1/49 113/1/49 112/1/49
f 68/1/50 99/1/50 67/1/50
f 95/1/51 126/1/51 94/1/51
f 82/1/52 113/1/52 81/1/52
f 68/1/53 101/1/53 100/1/53
f 96/1/54 127/1/54 95/1/54
f 82/1/55 115/1/55 114/1/55
f 69/1/56 102/1/56 101/1/56
f 66/1/57 128/1/57 96/1/57
f 84/1/58 115/1/58 83/1/58
f 70/1/59 103/1/59 102/1/59
f 85/1/60 116/1/60 84/1/60
f 72/1/61 103/1/61 71/1/61
f 86/1/62 117/1/62 85/1/62
f 73/1/63 104/1/63 72/1/63
f 86/1/64 119/1/64 118/1/64
f 73/1/65 106/1/65 105/1/65
f 87/1/66 120/1/66 119/1/66
f 145/1/3 153/1/3 130/1/3
f 101/1/28 132/1/28 100/1/28
f 128/1/67 159/1/67 127/1/67
f 115/1/68 146/1/68 114/1/68
f 102/1/31 133/1/31 101/1/31
f 98/1/32 160/1/32 128/1/32
f 116/1/33 147/1/33 115/1/33
f 103/1/69 134/1/69 102/1/69
f 117/1/70 148/1/70 116/1/70
f 104/1/71 135/1/71 103/1/71
f 118/1/5 149/1/5 117/1/5
f 105/1/72 136/1/72 104/1/72
f 119/1/73 150/1/73 118/1/73
f 106/1/74 137/1/74 105/1/74
f 120/1/75 151/1/75 119/1/75
f 107/1/76 138/1/76 106/1/76
f 121/1/77 152/1/77 120/1/77
f 108/1/78 139/1/78 107/1/78
f 122/1/13 153/1/13 121/1/13
f 109/1/14 140/1/14 108/1/14
f 123/1/15 154/1/15 122/1/15
f 110/1/16 141/1/16 109/1/16
f 124/1/79 155/1/79 123/1/79
f 111/1/18 142/1/18 110/1/18
f 97/1/19 130/1/19 98/1/19
f 125/1/20 156/1/20 124/1/20
f 112/1/21 143/1/21 111/1/21
f 99/1/80 129/1/80 97/1/80
f 126/1/81 157/1/81 125/1/81
f 113/1/24 144/1/24 112/1/24
f 100/1/82 131/1/82 99/1/82
f 127/1/83 158/1/83 126/1/83
f 3/1/84 2/1/84 1/1/84
f 1/1/1 32/1/1 31/1/1
f 31/1/1 30/1/1 29/1/1
f 29/1/1 28/1/1 27/1/1
f 27/1/1 26/1/1 25/1/1
f 25/1/1 24/1/1 23/1/1
f 23/1/1 22/1/1 21/1/1
f 21/1/1 20/1/1 19/1/1
f 19/1/84 18/1/84 17/1/84
f 17/1/1 16/1/1 15/1/1
f 15/1/1 14/1/1 13/1/1
f 13/1/1 12/1/1 11/1/1
f 11/1/1 10/1/1 9/1/1
f 9/1/1 8/1/1 7/1/1
f 7/1/1 6/1/1 5/1/1
f 5/1/85 4/1/85 3/1/85
f 3/1/1 1/1/1 31/1/1
f 31/1/86 29/1/86 27/1/86
f 27/1/1 25/1/1 23/1/1
f 23/1/86 21/1/86 19/1/86
f 19/1/1 17/1/1 15/1/1
f 15/1/87 13/1/87 11/1/87
f 11/1/1 9/1/1 7/1/1
f 7/1/87 5/1/87 3/1/87
f 3/1/1 31/1/1 27/1/1
f 27/1/1 23/1/1 19/1/1
f 19/1/1 15/1/1 11/1/1
f 11/1/1 7/1/1 3/1/1
f 3/1/1 27/1/1 19/1/1
f 40/1/71 72/1/71 71/1/71
f 26/1/3 27/1/3 59/1/3
f 13/1/3 14/1/3 46/1/3
f 27/1/3 28/1/3 60/1/3
f 14/1/3 15/1/3 47/1/3
f 1/1/3 2/1/3 33/1/3
f 28/1/3 29/1/3 61/1/3
f 15/1/3 16/1/3 48/1/3
f 2/1/3 3/1/3 35/1/3
f 29/1/3 30/1/3 62/1/3
f 16/1/3 17/1/3 49/1/3
f 3/1/3 4/1/3 36/1/3
f 30/1/3 31/1/3 63/1/3
f 17/1/3 18/1/3 50/1/3
f 4/1/3 5/1/3 37/1/3
f 31/1/3 32/1/3 64/1/3
f 18/1/3 19/1/3 51/1/3
f 5/1/3 6/1/3 38/1/3
f 32/1/3 1/1/3 34/1/3
f 19/1/3 20/1/3 52/1/3
f 6/1/3 7/1/3 39/1/3
f 20/1/3 21/1/3 53/1/3
f 7/1/3 8/1/3 40/1/3
f 21/1/3 22/1/3 54/1/3
f 8/1/3 9/1/3 41/1/3
f 22/1/3 23/1/3 55/1/3
f 9/1/3 10/1/3 42/1/3
f 23/1/3 24/1/3 56/1/3
f 10/1/3 11/1/3 43/1/3
f 24/1/3 25/1/3 57/1/3
f 11/1/3 12/1/3 44/1/3
f 25/1/3 26/1/3 58/1/3
f 12/1/3 13/1/3 45/1/3
f 75/1/88 107/1/88 106/1/88
f 54/1/5 86/1/5 85/1/5
f 41/1/89 73/1/89 72/1/89
f 55/1/90 87/1/90 86/1/90
f 42/1/91 74/1/91 73/1/91
f 56/1/92 88/1/92 87/1/92
f 43/1/93 75/1/93 74/1/93
f 57/1/94 89/1/94 88/1/94
f 44/1/78 76/1/78 75/1/78
f 58/1/95 90/1/95 89/1/95
f 45/1/14 77/1/14 76/1/14
f 59/1/96 91/1/96 90/1/96
f 46/1/97 78/1/97 77/1/97
f 60/1/79 92/1/79 91/1/79
f 47/1/98 79/1/98 78/1/98
f 33/1/19 65/1/19 66/1/19
f 61/1/20 93/1/20 92/1/20
f 48/1/21 80/1/21 79/1/21
f 35/1/80 67/1/80 65/1/80
f 62/1/81 94/1/81 93/1/81
f 49/1/24 81/1/24 80/1/24
f 36/1/82 68/1/82 67/1/82
f 63/1/99 95/1/99 94/1/99
f 50/1/27 82/1/27 81/1/27
f 37/1/28 69/1/28 68/1/28
f 64/1/67 96/1/67 95/1/67
f 51/1/68 83/1/68 82/1/68
f 38/1/31 70/1/31 69/1/31
f 34/1/32 66/1/32 96/1/32
f 52/1/100 84/1/100 83/1/100
f 39/1/101 71/1/101 70/1/101
f 53/1/70 85/1/70 84/1/70
f 114/1/27 146/1/27 145/1/27
f 89/1/36 121/1/36 120/1/36
f 75/1/37 76/1/37 108/1/37
f 90/1/38 122/1/38 121/1/38
f 76/1/102 77/1/102 109/1/102
f 91/1/40 123/1/40 122/1/40
f 78/1/103 110/1/103 109/1/103
f 92/1/42 124/1/42 123/1/42
f 78/1/104 79/1/104 111/1/104
f 66/1/105 65/1/105 97/1/105
f 93/1/106 125/1/106 124/1/106
f 80/1/107 112/1/107 111/1/107
f 67/1/108 99/1/108 97/1/108
f 94/1/109 126/1/109 125/1/109
f 80/1/110 81/1/110 113/1/110
f 68/1/111 100/1/111 99/1/111
f 95/1/112 127/1/112 126/1/112
f 82/1/113 114/1/113 113/1/113
f 68/1/114 69/1/114 101/1/114
f 96/1/115 128/1/115 127/1/115
f 82/1/116 83/1/116 115/1/116
f 69/1/117 70/1/117 102/1/117
f 66/1/118 98/1/118 128/1/118
f 84/1/119 116/1/119 115/1/119
f 70/1/59 71/1/59 103/1/59
f 85/1/120 117/1/120 116/1/120
f 72/1/121 104/1/121 103/1/121
f 86/1/122 118/1/122 117/1/122
f 73/1/63 105/1/63 104/1/63
f 86/1/64 87/1/64 119/1/64
f 73/1/65 74/1/65 106/1/65
f 87/1/123 88/1/123 120/1/123
f 130/1/3 129/1/3 131/1/3
f 131/1/124 132/1/124 133/1/124
f 133/1/3 134/1/3 135/1/3
f 135/1/3 136/1/3 137/1/3
f 137/1/3 138/1/3 139/1/3
f 139/1/125 140/1/125 141/1/125
f 141/1/124 142/1/124 143/1/124
f 143/1/126 144/1/126 145/1/126
f 145/1/127 146/1/127 147/1/127
f 147/1/128 148/1/128 149/1/128
f 149/1/129 150/1/129 151/1/129
f 151/1/3 152/1/3 153/1/3
f 153/1/3 154/1/3 155/1/3
f 155/1/3 156/1/3 157/1/3
f 157/1/128 158/1/128 159/1/128
f 159/1/127 160/1/127 130/1/127
f 130/1/3 131/1/3 133/1/3
f 133/1/3 135/1/3 137/1/3
f 137/1/126 139/1/126 141/1/126
f 141/1/3 143/1/3 145/1/3
f 145/1/3 147/1/3 149/1/3
f 149/1/127 151/1/127 153/1/127
f 153/1/3 155/1/3 157/1/3
f 157/1/3 159/1/3 130/1/3
f 130/1/3 133/1/3 137/1/3
f 137/1/3 141/1/3 145/1/3
f 145/1/3 149/1/3 153/1/3
f 153/1/3 157/1/3 130/1/3
f 130/1/3 137/1/3 145/1/3
f 101/1/28 133/1/28 132/1/28
f 128/1/67 160/1/67 159/1/67
f 115/1/68 147/1/68 146/1/68
f 102/1/31 134/1/31 133/1/31
f 98/1/32 130/1/32 160/1/32
f 116/1/33 148/1/33 147/1/33
f 103/1/130 135/1/130 134/1/130
f 117/1/35 149/1/35 148/1/35
f 104/1/71 136/1/71 135/1/71
f 118/1/5 150/1/5 149/1/5
f 105/1/131 137/1/131 136/1/131
f 119/1/7 151/1/7 150/1/7
f 106/1/132 138/1/132 137/1/132
f 120/1/92 152/1/92 151/1/92
f 107/1/10 139/1/10 138/1/10
f 121/1/94 153/1/94 152/1/94
f 108/1/133 140/1/133 139/1/133
f 122/1/134 154/1/134 153/1/134
f 109/1/14 141/1/14 140/1/14
f 123/1/15 155/1/15 154/1/15
f 110/1/16 142/1/16 141/1/16
f 124/1/135 156/1/135 155/1/135
f 111/1/18 143/1/18 142/1/18
f 97/1/19 129/1/19 130/1/19
f 125/1/136 157/1/136 156/1/136
f 112/1/21 144/1/21 143/1/21
f 99/1/80 131/1/80 129/1/80
f 126/1/81 158/1/81 157/1/81
f 113/1/24 145/1/24 144/1/24
f 100/1/82 132/1/82 131/1/82
f 127/1/83 159/1/83 158/1/83
