# Blender 4.1.1
# www.blender.org
mtllib Scene.011.mtl
o LaneDivider_18
v 2000.000854 2010.002197 -25.996595
v 1889.428833 1987.694214 -25.996660
v 1999.998901 1989.997681 -25.996628
v 1888.586914 2007.680908 -25.996628
v 1781.242798 1980.829468 -25.996685
v 1779.541138 2000.761597 -25.996655
v 1675.517212 1969.474976 -25.996721
v 1672.936890 1989.312988 -25.996689
v 1572.325806 1953.701782 -25.996769
v 1568.851196 1973.403198 -25.996738
v 1471.742554 1933.580811 -25.996803
v 1467.360474 1953.100586 -25.996773
v 1373.841919 1909.182739 -25.996843
v 1368.541626 1928.473633 -25.996811
v 1278.696655 1880.578247 -25.996904
v 1272.471313 1899.591064 -25.996874
v 1186.380493 1847.837646 -25.996975
v 1179.226807 1866.521606 -25.996946
v 1096.966187 1811.031494 -25.997038
v 1088.885864 1829.334106 -25.997011
v 1010.527344 1770.229736 -25.997120
v 1001.526001 1788.097412 -25.997091
v 927.136047 1725.501831 -25.997210
v 917.224609 1742.881348 -25.997185
v 846.865112 1676.917603 -25.997290
v 836.059692 1693.755859 -25.997265
v 769.787720 1624.546021 -25.997370
v 758.108826 1640.790771 -25.997347
v 695.976135 1568.455688 -25.997484
v 683.450439 1584.056763 -25.997459
v 625.503235 1508.715210 -25.997585
v 612.161804 1523.624756 -25.997562
v 558.441895 1445.392456 -25.997690
v 544.320679 1459.565552 -25.997673
v 494.865265 1378.555054 -25.997805
v 480.004456 1391.950928 -25.997784
v 434.846771 1308.271240 -25.997932
v 419.290436 1320.852295 -25.997913
v 378.460052 1234.607544 -25.998051
v 362.255493 1246.341919 -25.998034
v 325.778870 1157.631226 -25.998192
v 308.976135 1168.491455 -25.998177
v 276.877655 1077.409424 -25.998320
v 259.528595 1087.373657 -25.998306
v 231.830994 994.009277 -25.998463
v 213.988754 1003.060303 -25.998449
v 190.714020 907.497681 -25.998613
v 172.432205 915.623901 -25.998602
v 153.601913 817.941650 -25.998747
v 134.934143 825.136353 -25.998739
v 120.570305 725.408325 -25.998899
v 101.569366 731.669800 -25.998894
v 91.695152 629.965149 -25.999062
v 72.412666 635.296082 -25.999056
v 67.052536 531.679871 -25.999222
v 47.538422 536.086792 -25.999212
v 46.718781 430.620026 -25.999382
v 27.020872 434.113525 -25.999378
v 30.770296 326.853699 -25.999552
v 10.934095 329.447357 -25.999548
v 19.283611 220.449112 -25.999723
v -0.647941 222.159531 -25.999727
v 12.335327 111.474602 -25.999899
v -7.651344 112.320564 -25.999899
v 10.002143 0.000044 -26.000078
v -10.002233 0.000044 -26.000082
vn -0.0000 -0.0000 -1.0000
vt 0.978522 0.008756
vt 0.973672 0.003906
vt 0.946307 0.030155
vt 0.950948 0.035204
vt 0.918414 0.054719
vt 0.922833 0.059964
vt 0.890028 0.077599
vt 0.894212 0.083034
vt 0.861187 0.098792
vt 0.865121 0.104411
vt 0.831923 0.118300
vt 0.835593 0.124095
vt 0.802273 0.136120
vt 0.805664 0.142082
vt 0.772270 0.152252
vt 0.775371 0.158371
vt 0.741952 0.166696
vt 0.744747 0.172960
vt 0.711351 0.179450
vt 0.713829 0.185846
vt 0.680502 0.190514
vt 0.682652 0.197029
vt 0.649441 0.199888
vt 0.651251 0.206505
vt 0.618201 0.207570
vt 0.619663 0.214272
vt 0.586817 0.213560
vt 0.587924 0.220330
vt 0.555323 0.217856
vt 0.556069 0.224675
vt 0.523754 0.220458
vt 0.524134 0.227307
vt 0.492144 0.221365
vt 0.492156 0.228224
vt 0.460526 0.220574
vt 0.460171 0.227425
vt 0.428935 0.218085
vt 0.428214 0.224907
vt 0.397406 0.213897
vt 0.396322 0.220670
vt 0.365971 0.208007
vt 0.364531 0.214713
vt 0.334667 0.200413
vt 0.332876 0.207035
vt 0.303526 0.191115
vt 0.301394 0.197635
vt 0.272583 0.180109
vt 0.270121 0.186512
vt 0.241874 0.167395
vt 0.239092 0.173665
vt 0.211432 0.152969
vt 0.208343 0.159094
vt 0.181292 0.136830
vt 0.177909 0.142797
vt 0.151489 0.118976
vt 0.147826 0.124776
vt 0.122058 0.099405
vt 0.118129 0.105027
vt 0.093034 0.078114
vt 0.088854 0.083552
vt 0.064452 0.055102
vt 0.060035 0.060349
vt 0.036348 0.030367
vt 0.031707 0.035417
vt 0.008756 0.003906
vt 0.003906 0.008756
s 1
usemtl Modular_Track_Lane_Divider
f 1/1/1 3/2/1 2/3/1
f 1/1/1 2/3/1 4/4/1
f 4/4/1 2/3/1 5/5/1
f 4/4/1 5/5/1 6/6/1
f 6/6/1 5/5/1 7/7/1
f 6/6/1 7/7/1 8/8/1
f 8/8/1 7/7/1 9/9/1
f 8/8/1 9/9/1 10/10/1
f 10/10/1 9/9/1 11/11/1
f 10/10/1 11/11/1 12/12/1
f 12/12/1 11/11/1 13/13/1
f 12/12/1 13/13/1 14/14/1
f 14/14/1 13/13/1 15/15/1
f 14/14/1 15/15/1 16/16/1
f 16/16/1 15/15/1 17/17/1
f 16/16/1 17/17/1 18/18/1
f 18/18/1 17/17/1 19/19/1
f 18/18/1 19/19/1 20/20/1
f 20/20/1 19/19/1 21/21/1
f 20/20/1 21/21/1 22/22/1
f 22/22/1 21/21/1 23/23/1
f 22/22/1 23/23/1 24/24/1
f 24/24/1 23/23/1 25/25/1
f 24/24/1 25/25/1 26/26/1
f 26/26/1 25/25/1 27/27/1
f 26/26/1 27/27/1 28/28/1
f 28/28/1 27/27/1 29/29/1
f 28/28/1 29/29/1 30/30/1
f 30/30/1 29/29/1 31/31/1
f 30/30/1 31/31/1 32/32/1
f 32/32/1 31/31/1 33/33/1
f 32/32/1 33/33/1 34/34/1
f 34/34/1 33/33/1 35/35/1
f 34/34/1 35/35/1 36/36/1
f 36/36/1 35/35/1 37/37/1
f 36/36/1 37/37/1 38/38/1
f 38/38/1 37/37/1 39/39/1
f 38/38/1 39/39/1 40/40/1
f 40/40/1 39/39/1 41/41/1
f 40/40/1 41/41/1 42/42/1
f 42/42/1 41/41/1 43/43/1
f 42/42/1 43/43/1 44/44/1
f 44/44/1 43/43/1 45/45/1
f 44/44/1 45/45/1 46/46/1
f 46/46/1 45/45/1 47/47/1
f 46/46/1 47/47/1 48/48/1
f 48/48/1 47/47/1 49/49/1
f 48/48/1 49/49/1 50/50/1
f 50/50/1 49/49/1 51/51/1
f 50/50/1 51/51/1 52/52/1
f 52/52/1 51/51/1 53/53/1
f 52/52/1 53/53/1 54/54/1
f 54/54/1 53/53/1 55/55/1
f 54/54/1 55/55/1 56/56/1
f 56/56/1 55/55/1 57/57/1
f 56/56/1 57/57/1 58/58/1
f 58/58/1 57/57/1 59/59/1
f 58/58/1 59/59/1 60/60/1
f 60/60/1 59/59/1 61/61/1
f 60/60/1 61/61/1 62/62/1
f 62/62/1 61/61/1 63/63/1
f 62/62/1 63/63/1 64/64/1
f 64/64/1 63/63/1 65/65/1
f 64/64/1 65/65/1 66/66/1
