# Blender 4.1.1
# www.blender.org
mtllib Circle.003.mtl
o Pipe.124
v 840.983643 3741.597900 4362.259766
v 838.371704 3741.597900 4362.517090
v 835.860291 3741.597900 4363.278809
v 833.545593 3741.597900 4364.516113
v 831.516907 3741.597900 4366.181152
v 829.851990 3741.597900 4368.209961
v 828.614746 3741.597900 4370.524414
v 827.852844 3741.597900 4373.036133
v 827.595642 3741.597900 4375.647949
v 827.852844 3741.597900 4378.259766
v 828.614746 3741.597900 4380.771484
v 829.851990 3741.597900 4383.085938
v 831.516907 3741.597900 4385.114746
v 833.545593 3741.597900 4386.779785
v 835.860291 3741.597900 4388.017090
v 838.371704 3741.597900 4388.778809
v 840.983643 3741.597900 4389.036133
v 843.595520 3741.597900 4388.778809
v 846.106934 3741.597900 4388.017090
v 848.421631 3741.597900 4386.779785
v 850.450317 3741.597900 4385.114746
v 852.115295 3741.597900 4383.085938
v 853.352478 3741.597900 4380.771484
v 854.114380 3741.597900 4378.259766
v 854.371582 3741.597900 4375.647949
v 854.114380 3741.597900 4373.036133
v 853.352478 3741.597900 4370.524414
v 852.115295 3741.597900 4368.209961
v 850.450317 3741.597900 4366.181152
v 848.421631 3741.597900 4364.516113
v 846.106934 3741.597900 4363.278809
v 843.595520 3741.597900 4362.517090
v 838.371704 3741.597900 4362.517090
v 840.983643 3741.597900 4362.259766
v 835.860291 3741.597900 4363.278809
v 833.545593 3741.597900 4364.516113
v 831.516907 3741.597900 4366.181152
v 829.851990 3741.597900 4368.209961
v 828.614746 3741.597900 4370.524414
v 827.852844 3741.597900 4373.036133
v 827.595642 3741.597900 4375.647949
v 827.852844 3741.597900 4378.259766
v 828.614746 3741.597900 4380.771484
v 829.851990 3741.597900 4383.085938
v 831.516907 3741.597900 4385.114746
v 833.545593 3741.597900 4386.779785
v 835.860291 3741.597900 4388.017090
v 838.371704 3741.597900 4388.778809
v 840.983643 3741.597900 4389.036133
v 843.595520 3741.597900 4388.778809
v 846.106934 3741.597900 4388.017090
v 848.421631 3741.597900 4386.779785
v 850.450317 3741.597900 4385.114746
v 852.115295 3741.597900 4383.085938
v 853.352478 3741.597900 4380.771484
v 854.114380 3741.597900 4378.259766
v 854.371582 3741.597900 4375.647949
v 854.114380 3741.597900 4373.036133
v 853.352478 3741.597900 4370.524414
v 852.115295 3741.597900 4368.209961
v 850.450317 3741.597900 4366.181152
v 848.421631 3741.597900 4364.516113
v 846.106934 3741.597900 4363.278809
v 843.595520 3741.597900 4362.517090
v 838.371704 3780.562012 4362.517090
v 840.983643 3780.562012 4362.259766
v 835.860291 3780.562012 4363.278809
v 833.545593 3780.562012 4364.516113
v 831.516907 3780.562012 4366.181152
v 829.851990 3780.562012 4368.209961
v 828.614746 3780.562012 4370.524414
v 827.852844 3780.562012 4373.036133
v 827.595642 3780.562012 4375.647949
v 827.852844 3780.562012 4378.259766
v 828.614746 3780.562012 4380.771484
v 829.851990 3780.562012 4383.085938
v 831.516907 3780.562012 4385.114746
v 833.545593 3780.562012 4386.779785
v 835.860291 3780.562012 4388.017090
v 838.371704 3780.562012 4388.778809
v 840.983643 3780.562012 4389.036133
v 843.595520 3780.562012 4388.778809
v 846.106934 3780.562012 4388.017090
v 848.421631 3780.562012 4386.779785
v 850.450317 3780.562012 4385.114746
v 852.115295 3780.562012 4383.085938
v 853.352478 3780.562012 4380.771484
v 854.114380 3780.562012 4378.259766
v 854.371582 3780.562012 4375.647949
v 854.114380 3780.562012 4373.036133
v 853.352478 3780.562012 4370.524414
v 852.115295 3780.562012 4368.209961
v 850.450317 3780.562012 4366.181152
v 848.421631 3780.562012 4364.516113
v 846.106934 3780.562012 4363.278809
v 843.595520 3780.562012 4362.517090
v 836.559082 3781.125977 4353.403809
v 840.983643 3781.125977 4352.967773
v 832.304504 3781.125977 4354.694336
v 828.383484 3781.125977 4356.790039
v 824.946716 3781.125977 4359.610840
v 822.126160 3781.125977 4363.047363
v 820.030396 3781.125977 4366.968750
v 818.739746 3781.125977 4371.223145
v 818.303955 3781.125977 4375.647461
v 818.739746 3781.125977 4380.072266
v 820.030396 3781.125977 4384.326660
v 822.126160 3781.125977 4388.247559
v 824.946716 3781.125977 4391.684570
v 828.383484 3781.125977 4394.504883
v 832.304504 3781.125977 4396.600586
v 836.559082 3781.125977 4397.891602
v 840.983643 3781.125977 4398.327148
v 845.408142 3781.125977 4397.891602
v 849.662720 3781.125977 4396.600586
v 853.583740 3781.125977 4394.504883
v 857.020508 3781.125977 4391.684570
v 859.841064 3781.125977 4388.247559
v 861.936890 3781.125977 4384.326660
v 863.227478 3781.125977 4380.072266
v 863.663269 3781.125977 4375.647461
v 863.227478 3781.125977 4371.223145
v 861.936890 3781.125977 4366.968750
v 859.841064 3781.125977 4363.047363
v 857.020508 3781.125977 4359.610840
v 853.583740 3781.125977 4356.790039
v 849.662720 3781.125977 4354.694336
v 845.408142 3781.125977 4353.403809
v 836.559082 3789.968018 4353.403809
v 840.983643 3789.968018 4352.967773
v 832.304504 3789.968018 4354.694336
v 828.383484 3789.968018 4356.790039
v 824.946716 3789.968018 4359.610840
v 822.126160 3789.968018 4363.047363
v 820.030396 3789.968018 4366.968750
v 818.739746 3789.968018 4371.223145
v 818.303955 3789.968018 4375.647461
v 818.739746 3789.968018 4380.072266
v 820.030396 3789.968018 4384.326660
v 822.126160 3789.968018 4388.247559
v 824.946716 3789.968018 4391.684570
v 828.383484 3789.968018 4394.504883
v 832.304504 3789.968018 4396.600586
v 836.559082 3789.968018 4397.891602
v 840.983643 3789.968018 4398.327148
v 845.408142 3789.968018 4397.891602
v 849.662720 3789.968018 4396.600586
v 853.583740 3789.968018 4394.504883
v 857.020508 3789.968018 4391.684570
v 859.841064 3789.968018 4388.247559
v 861.936890 3789.968018 4384.326660
v 863.227478 3789.968018 4380.072266
v 863.663269 3789.968018 4375.647461
v 863.227478 3789.968018 4371.223145
v 861.936890 3789.968018 4366.968750
v 859.841064 3789.968018 4363.047363
v 857.020508 3789.968018 4359.610840
v 853.583740 3789.968018 4356.790039
v 849.662720 3789.968018 4354.694336
v 845.408142 3789.968018 4353.403809
vn -0.0000 -1.0000 -0.0000
vn -0.9569 -0.0000 -0.2903
vn -0.0000 1.0000 -0.0000
vn -0.0582 -0.9981 0.0177
vn 0.7730 -0.0000 0.6344
vn -0.9952 -0.0000 -0.0980
vn 0.8819 -0.0000 0.4715
vn -0.9952 -0.0000 0.0980
vn 0.9569 -0.0000 0.2903
vn -0.9570 -0.0000 0.2902
vn 0.9952 -0.0000 0.0980
vn -0.8819 -0.0000 0.4715
vn 0.9952 -0.0000 -0.0979
vn -0.7730 -0.0000 0.6344
vn 0.9569 -0.0000 -0.2903
vn -0.6344 -0.0000 0.7730
vn 0.8819 -0.0000 -0.4714
vn -0.4714 -0.0000 0.8819
vn -0.0980 -0.0000 -0.9952
vn 0.7731 -0.0000 -0.6343
vn -0.2902 -0.0000 0.9570
vn -0.2902 -0.0000 -0.9570
vn 0.6345 -0.0000 -0.7730
vn -0.0980 -0.0000 0.9952
vn -0.4714 -0.0000 -0.8819
vn 0.4714 -0.0000 -0.8819
vn 0.0981 -0.0000 0.9952
vn -0.6344 -0.0000 -0.7730
vn 0.2902 -0.0000 -0.9570
vn 0.2903 -0.0000 0.9569
vn -0.7730 -0.0000 -0.6344
vn 0.0980 -0.0000 -0.9952
vn 0.4714 -0.0000 0.8819
vn -0.8819 -0.0000 -0.4714
vn 0.6344 -0.0000 0.7730
vn 0.0980 -0.0000 0.9952
vn 0.0606 -0.9981 0.0060
vn -0.0537 -0.9981 0.0287
vn 0.0606 -0.9981 -0.0060
vn -0.0470 -0.9981 0.0386
vn 0.0582 -0.9981 -0.0177
vn -0.0387 -0.9981 0.0470
vn 0.0537 -0.9981 -0.0287
vn -0.0288 -0.9981 0.0537
vn -0.0059 -0.9981 -0.0606
vn 0.0470 -0.9981 -0.0386
vn -0.0177 -0.9981 0.0583
vn -0.0176 -0.9981 -0.0583
vn 0.0386 -0.9981 -0.0471
vn -0.0058 -0.9981 0.0606
vn -0.0287 -0.9981 -0.0537
vn 0.0287 -0.9981 -0.0537
vn 0.0061 -0.9981 0.0606
vn -0.0386 -0.9981 -0.0471
vn 0.0178 -0.9981 -0.0582
vn 0.0177 -0.9981 0.0583
vn -0.0470 -0.9981 -0.0386
vn 0.0059 -0.9981 -0.0606
vn 0.0286 -0.9981 0.0537
vn -0.0537 -0.9981 -0.0287
vn 0.0386 -0.9981 0.0471
vn -0.0582 -0.9981 -0.0177
vn 0.0471 -0.9981 0.0386
vn -0.0606 -0.9981 -0.0060
vn 0.0538 -0.9981 0.0287
vn -0.0606 -0.9981 0.0060
vn 0.0583 -0.9981 0.0177
vn 0.2903 -0.0000 -0.9570
vn 0.2904 -0.0000 0.9569
vn 0.0981 -0.0000 -0.9952
vn 0.6343 -0.0000 0.7731
vn 0.8819 -0.0000 0.4714
vn -0.9569 -0.0000 0.2903
vn -0.8819 -0.0000 0.4714
vn 0.9952 -0.0000 -0.0980
vn -0.6343 -0.0000 0.7730
vn -0.0981 -0.0000 -0.9952
vn 0.7730 -0.0000 -0.6344
vn -0.2904 -0.0000 0.9569
vn -0.2903 -0.0000 -0.9570
vn 0.6344 -0.0000 -0.7730
vn 0.0003 -1.0000 -0.0000
vn -0.0004 -1.0000 -0.0000
vn -0.0015 -1.0000 -0.0000
vn -0.0007 -1.0000 -0.0000
vn -0.0003 -1.0000 -0.0000
vn 0.0004 -1.0000 -0.0000
vn 0.0015 -1.0000 -0.0000
vn 0.0007 -1.0000 -0.0000
vn 0.0001 -1.0000 -0.0000
vn -0.0001 -1.0000 -0.0000
vn -0.0583 -0.9981 0.0177
vn 0.9952 -0.0000 0.0979
vn 0.8819 -0.0000 -0.4715
vn 0.2902 -0.0000 0.9570
vn -0.8819 -0.0000 -0.4715
vn 0.6345 -0.0000 0.7730
vn -0.0538 -0.9981 0.0287
vn -0.0471 -0.9981 0.0386
vn 0.0583 -0.9981 -0.0177
vn -0.0386 -0.9981 0.0471
vn -0.0286 -0.9981 0.0537
vn -0.0058 -0.9981 -0.0606
vn 0.0471 -0.9981 -0.0386
vn -0.0178 -0.9981 0.0582
vn -0.0178 -0.9981 -0.0583
vn -0.0060 -0.9981 0.0606
vn 0.0058 -0.9981 0.0606
vn 0.0176 -0.9981 -0.0583
vn -0.0471 -0.9981 -0.0386
vn 0.0058 -0.9981 -0.0606
vn 0.0288 -0.9981 0.0537
vn 0.0387 -0.9981 0.0470
vn -0.0583 -0.9981 -0.0177
vn 0.0469 -0.9982 0.0386
vn 0.0537 -0.9981 0.0287
vn 0.0582 -0.9981 0.0177
vn -0.0003 1.0000 -0.0000
vn 0.0005 1.0000 -0.0000
vn 0.0010 1.0000 -0.0000
vn -0.0001 1.0000 -0.0000
vn 0.0003 1.0000 -0.0000
vn -0.0010 1.0000 -0.0000
vn 0.0001 1.0000 -0.0000
vn -0.6345 -0.0000 -0.7730
vn 0.2903 -0.0000 -0.9569
vn -0.8820 -0.0000 -0.4713
vn 0.8820 -0.0000 -0.4713
vn -0.2903 -0.0000 -0.9569
vt 0.000000 0.000000
s 0
usemtl Material.003
f 19/1/1 11/1/1 3/1/1
f 40/1/2 71/1/2 39/1/2
f 26/1/3 59/1/3 58/1/3
f 13/1/3 46/1/3 45/1/3
f 27/1/3 60/1/3 59/1/3
f 14/1/3 47/1/3 46/1/3
f 1/1/3 33/1/3 34/1/3
f 28/1/3 61/1/3 60/1/3
f 15/1/3 48/1/3 47/1/3
f 2/1/3 35/1/3 33/1/3
f 29/1/3 62/1/3 61/1/3
f 16/1/3 49/1/3 48/1/3
f 3/1/3 36/1/3 35/1/3
f 30/1/3 63/1/3 62/1/3
f 17/1/3 50/1/3 49/1/3
f 4/1/3 37/1/3 36/1/3
f 31/1/3 64/1/3 63/1/3
f 18/1/3 51/1/3 50/1/3
f 5/1/3 38/1/3 37/1/3
f 32/1/3 34/1/3 64/1/3
f 19/1/3 52/1/3 51/1/3
f 6/1/3 39/1/3 38/1/3
f 20/1/3 53/1/3 52/1/3
f 7/1/3 40/1/3 39/1/3
f 21/1/3 54/1/3 53/1/3
f 8/1/3 41/1/3 40/1/3
f 22/1/3 55/1/3 54/1/3
f 9/1/3 42/1/3 41/1/3
f 23/1/3 56/1/3 55/1/3
f 10/1/3 43/1/3 42/1/3
f 24/1/3 57/1/3 56/1/3
f 11/1/3 44/1/3 43/1/3
f 25/1/3 58/1/3 57/1/3
f 12/1/3 45/1/3 44/1/3
f 74/1/4 107/1/4 106/1/4
f 54/1/5 85/1/5 53/1/5
f 41/1/6 72/1/6 40/1/6
f 55/1/7 86/1/7 54/1/7
f 42/1/8 73/1/8 41/1/8
f 56/1/9 87/1/9 55/1/9
f 43/1/10 74/1/10 42/1/10
f 57/1/11 88/1/11 56/1/11
f 44/1/12 75/1/12 43/1/12
f 58/1/13 89/1/13 57/1/13
f 45/1/14 76/1/14 44/1/14
f 59/1/15 90/1/15 58/1/15
f 46/1/16 77/1/16 45/1/16
f 60/1/17 91/1/17 59/1/17
f 47/1/18 78/1/18 46/1/18
f 33/1/19 66/1/19 34/1/19
f 61/1/20 92/1/20 60/1/20
f 48/1/21 79/1/21 47/1/21
f 35/1/22 65/1/22 33/1/22
f 62/1/23 93/1/23 61/1/23
f 49/1/24 80/1/24 48/1/24
f 36/1/25 67/1/25 35/1/25
f 63/1/26 94/1/26 62/1/26
f 50/1/27 81/1/27 49/1/27
f 37/1/28 68/1/28 36/1/28
f 64/1/29 95/1/29 63/1/29
f 51/1/30 82/1/30 50/1/30
f 38/1/31 69/1/31 37/1/31
f 34/1/32 96/1/32 64/1/32
f 52/1/33 83/1/33 51/1/33
f 39/1/34 70/1/34 38/1/34
f 53/1/35 84/1/35 52/1/35
f 114/1/36 145/1/36 113/1/36
f 89/1/37 120/1/37 88/1/37
f 75/1/38 108/1/38 107/1/38
f 90/1/39 121/1/39 89/1/39
f 76/1/40 109/1/40 108/1/40
f 90/1/41 123/1/41 122/1/41
f 78/1/42 109/1/42 77/1/42
f 91/1/43 124/1/43 123/1/43
f 78/1/44 111/1/44 110/1/44
f 66/1/45 97/1/45 98/1/45
f 92/1/46 125/1/46 124/1/46
f 80/1/47 111/1/47 79/1/47
f 65/1/48 99/1/48 97/1/48
f 94/1/49 125/1/49 93/1/49
f 81/1/50 112/1/50 80/1/50
f 67/1/51 100/1/51 99/1/51
f 95/1/52 126/1/52 94/1/52
f 82/1/53 113/1/53 81/1/53
f 68/1/54 101/1/54 100/1/54
f 96/1/55 127/1/55 95/1/55
f 83/1/56 114/1/56 82/1/56
f 69/1/57 102/1/57 101/1/57
f 96/1/58 98/1/58 128/1/58
f 84/1/59 115/1/59 83/1/59
f 71/1/60 102/1/60 70/1/60
f 84/1/61 117/1/61 116/1/61
f 71/1/62 104/1/62 103/1/62
f 85/1/63 118/1/63 117/1/63
f 72/1/64 105/1/64 104/1/64
f 87/1/65 118/1/65 86/1/65
f 73/1/66 106/1/66 105/1/66
f 88/1/67 119/1/67 87/1/67
f 145/1/3 153/1/3 130/1/3
f 101/1/28 132/1/28 100/1/28
f 128/1/68 159/1/68 127/1/68
f 115/1/69 146/1/69 114/1/69
f 102/1/31 133/1/31 101/1/31
f 98/1/70 160/1/70 128/1/70
f 116/1/33 147/1/33 115/1/33
f 103/1/34 134/1/34 102/1/34
f 117/1/71 148/1/71 116/1/71
f 104/1/2 135/1/2 103/1/2
f 118/1/5 149/1/5 117/1/5
f 105/1/6 136/1/6 104/1/6
f 119/1/72 150/1/72 118/1/72
f 106/1/8 137/1/8 105/1/8
f 120/1/9 151/1/9 119/1/9
f 107/1/73 138/1/73 106/1/73
f 121/1/11 152/1/11 120/1/11
f 108/1/74 139/1/74 107/1/74
f 122/1/75 153/1/75 121/1/75
f 109/1/14 140/1/14 108/1/14
f 123/1/15 154/1/15 122/1/15
f 110/1/76 141/1/76 109/1/76
f 124/1/17 155/1/17 123/1/17
f 111/1/18 142/1/18 110/1/18
f 97/1/77 130/1/77 98/1/77
f 125/1/78 156/1/78 124/1/78
f 112/1/79 143/1/79 111/1/79
f 99/1/80 129/1/80 97/1/80
f 126/1/81 157/1/81 125/1/81
f 113/1/24 144/1/24 112/1/24
f 100/1/25 131/1/25 99/1/25
f 127/1/26 158/1/26 126/1/26
f 3/1/82 2/1/82 1/1/82
f 1/1/83 32/1/83 31/1/83
f 31/1/1 30/1/1 29/1/1
f 29/1/84 28/1/84 27/1/84
f 27/1/1 26/1/1 25/1/1
f 25/1/1 24/1/1 23/1/1
f 23/1/85 22/1/85 21/1/85
f 21/1/1 20/1/1 19/1/1
f 19/1/86 18/1/86 17/1/86
f 17/1/87 16/1/87 15/1/87
f 15/1/1 14/1/1 13/1/1
f 13/1/88 12/1/88 11/1/88
f 11/1/1 10/1/1 9/1/1
f 9/1/1 8/1/1 7/1/1
f 7/1/89 6/1/89 5/1/89
f 5/1/1 4/1/1 3/1/1
f 3/1/1 1/1/1 31/1/1
f 31/1/1 29/1/1 27/1/1
f 27/1/1 25/1/1 23/1/1
f 23/1/1 21/1/1 19/1/1
f 19/1/1 17/1/1 15/1/1
f 15/1/1 13/1/1 11/1/1
f 11/1/1 9/1/1 7/1/1
f 7/1/1 5/1/1 3/1/1
f 3/1/1 31/1/1 27/1/1
f 27/1/90 23/1/90 19/1/90
f 19/1/1 15/1/1 11/1/1
f 11/1/91 7/1/91 3/1/91
f 3/1/1 27/1/1 19/1/1
f 40/1/2 72/1/2 71/1/2
f 26/1/3 27/1/3 59/1/3
f 13/1/3 14/1/3 46/1/3
f 27/1/3 28/1/3 60/1/3
f 14/1/3 15/1/3 47/1/3
f 1/1/3 2/1/3 33/1/3
f 28/1/3 29/1/3 61/1/3
f 15/1/3 16/1/3 48/1/3
f 2/1/3 3/1/3 35/1/3
f 29/1/3 30/1/3 62/1/3
f 16/1/3 17/1/3 49/1/3
f 3/1/3 4/1/3 36/1/3
f 30/1/3 31/1/3 63/1/3
f 17/1/3 18/1/3 50/1/3
f 4/1/3 5/1/3 37/1/3
f 31/1/3 32/1/3 64/1/3
f 18/1/3 19/1/3 51/1/3
f 5/1/3 6/1/3 38/1/3
f 32/1/3 1/1/3 34/1/3
f 19/1/3 20/1/3 52/1/3
f 6/1/3 7/1/3 39/1/3
f 20/1/3 21/1/3 53/1/3
f 7/1/3 8/1/3 40/1/3
f 21/1/3 22/1/3 54/1/3
f 8/1/3 9/1/3 41/1/3
f 22/1/3 23/1/3 55/1/3
f 9/1/3 10/1/3 42/1/3
f 23/1/3 24/1/3 56/1/3
f 10/1/3 11/1/3 43/1/3
f 24/1/3 25/1/3 57/1/3
f 11/1/3 12/1/3 44/1/3
f 25/1/3 26/1/3 58/1/3
f 12/1/3 13/1/3 45/1/3
f 74/1/92 75/1/92 107/1/92
f 54/1/5 86/1/5 85/1/5
f 41/1/6 73/1/6 72/1/6
f 55/1/72 87/1/72 86/1/72
f 42/1/8 74/1/8 73/1/8
f 56/1/9 88/1/9 87/1/9
f 43/1/73 75/1/73 74/1/73
f 57/1/93 89/1/93 88/1/93
f 44/1/74 76/1/74 75/1/74
f 58/1/75 90/1/75 89/1/75
f 45/1/14 77/1/14 76/1/14
f 59/1/15 91/1/15 90/1/15
f 46/1/16 78/1/16 77/1/16
f 60/1/94 92/1/94 91/1/94
f 47/1/18 79/1/18 78/1/18
f 33/1/19 65/1/19 66/1/19
f 61/1/78 93/1/78 92/1/78
f 48/1/21 80/1/21 79/1/21
f 35/1/22 67/1/22 65/1/22
f 62/1/81 94/1/81 93/1/81
f 49/1/24 81/1/24 80/1/24
f 36/1/25 68/1/25 67/1/25
f 63/1/26 95/1/26 94/1/26
f 50/1/36 82/1/36 81/1/36
f 37/1/28 69/1/28 68/1/28
f 64/1/68 96/1/68 95/1/68
f 51/1/95 83/1/95 82/1/95
f 38/1/31 70/1/31 69/1/31
f 34/1/32 66/1/32 96/1/32
f 52/1/33 84/1/33 83/1/33
f 39/1/96 71/1/96 70/1/96
f 53/1/97 85/1/97 84/1/97
f 114/1/36 146/1/36 145/1/36
f 89/1/37 121/1/37 120/1/37
f 75/1/98 76/1/98 108/1/98
f 90/1/39 122/1/39 121/1/39
f 76/1/99 77/1/99 109/1/99
f 90/1/100 91/1/100 123/1/100
f 78/1/101 110/1/101 109/1/101
f 91/1/43 92/1/43 124/1/43
f 78/1/102 79/1/102 111/1/102
f 66/1/103 65/1/103 97/1/103
f 92/1/104 93/1/104 125/1/104
f 80/1/105 112/1/105 111/1/105
f 65/1/106 67/1/106 99/1/106
f 94/1/49 126/1/49 125/1/49
f 81/1/107 113/1/107 112/1/107
f 67/1/51 68/1/51 100/1/51
f 95/1/52 127/1/52 126/1/52
f 82/1/108 114/1/108 113/1/108
f 68/1/54 69/1/54 101/1/54
f 96/1/109 128/1/109 127/1/109
f 83/1/56 115/1/56 114/1/56
f 69/1/110 70/1/110 102/1/110
f 96/1/111 66/1/111 98/1/111
f 84/1/112 116/1/112 115/1/112
f 71/1/60 103/1/60 102/1/60
f 84/1/113 85/1/113 117/1/113
f 71/1/114 72/1/114 104/1/114
f 85/1/115 86/1/115 118/1/115
f 72/1/64 73/1/64 105/1/64
f 87/1/116 119/1/116 118/1/116
f 73/1/66 74/1/66 106/1/66
f 88/1/117 120/1/117 119/1/117
f 130/1/118 129/1/118 131/1/118
f 131/1/119 132/1/119 133/1/119
f 133/1/3 134/1/3 135/1/3
f 135/1/120 136/1/120 137/1/120
f 137/1/120 138/1/120 139/1/120
f 139/1/3 140/1/3 141/1/3
f 141/1/118 142/1/118 143/1/118
f 143/1/121 144/1/121 145/1/121
f 145/1/122 146/1/122 147/1/122
f 147/1/3 148/1/3 149/1/3
f 149/1/3 150/1/3 151/1/3
f 151/1/123 152/1/123 153/1/123
f 153/1/123 154/1/123 155/1/123
f 155/1/3 156/1/3 157/1/3
f 157/1/118 158/1/118 159/1/118
f 159/1/124 160/1/124 130/1/124
f 130/1/3 131/1/3 133/1/3
f 133/1/118 135/1/118 137/1/118
f 137/1/121 139/1/121 141/1/121
f 141/1/124 143/1/124 145/1/124
f 145/1/121 147/1/121 149/1/121
f 149/1/122 151/1/122 153/1/122
f 153/1/124 155/1/124 157/1/124
f 157/1/3 159/1/3 130/1/3
f 130/1/3 133/1/3 137/1/3
f 137/1/3 141/1/3 145/1/3
f 145/1/3 149/1/3 153/1/3
f 153/1/3 157/1/3 130/1/3
f 130/1/3 137/1/3 145/1/3
f 101/1/125 133/1/125 132/1/125
f 128/1/126 160/1/126 159/1/126
f 115/1/69 147/1/69 146/1/69
f 102/1/31 134/1/31 133/1/31
f 98/1/70 130/1/70 160/1/70
f 116/1/33 148/1/33 147/1/33
f 103/1/127 135/1/127 134/1/127
f 117/1/35 149/1/35 148/1/35
f 104/1/2 136/1/2 135/1/2
f 118/1/5 150/1/5 149/1/5
f 105/1/6 137/1/6 136/1/6
f 119/1/72 151/1/72 150/1/72
f 106/1/8 138/1/8 137/1/8
f 120/1/9 152/1/9 151/1/9
f 107/1/73 139/1/73 138/1/73
f 121/1/11 153/1/11 152/1/11
f 108/1/74 140/1/74 139/1/74
f 122/1/75 154/1/75 153/1/75
f 109/1/14 141/1/14 140/1/14
f 123/1/15 155/1/15 154/1/15
f 110/1/16 142/1/16 141/1/16
f 124/1/128 156/1/128 155/1/128
f 111/1/18 143/1/18 142/1/18
f 97/1/77 129/1/77 130/1/77
f 125/1/78 157/1/78 156/1/78
f 112/1/79 144/1/79 143/1/79
f 99/1/129 131/1/129 129/1/129
f 126/1/23 158/1/23 157/1/23
f 113/1/24 145/1/24 144/1/24
f 100/1/25 132/1/25 131/1/25
f 127/1/26 159/1/26 158/1/26
