# Blender 4.1.1
# www.blender.org
mtllib Circle.013.mtl
o Pipe.134
v -3316.339355 2956.095947 2092.385254
v -3318.951172 2956.095947 2092.642578
v -3321.462891 2956.095947 2093.404541
v -3323.777588 2956.095947 2094.641602
v -3325.806152 2956.095947 2096.306396
v -3327.471191 2956.095947 2098.335449
v -3328.708252 2956.095947 2100.649902
v -3329.469971 2956.095947 2103.161377
v -3329.727539 2956.095947 2105.773193
v -3329.469971 2956.095947 2108.385010
v -3328.708252 2956.095947 2110.896729
v -3327.471191 2956.095947 2113.211182
v -3325.806152 2956.095947 2115.239990
v -3323.777588 2956.095947 2116.905029
v -3321.462891 2956.095947 2118.142090
v -3318.951172 2956.095947 2118.903809
v -3316.339355 2956.095947 2119.161133
v -3313.727539 2956.095947 2118.903809
v -3311.216064 2956.095947 2118.142090
v -3308.901367 2956.095947 2116.905029
v -3306.872559 2956.095947 2115.239990
v -3305.207520 2956.095947 2113.211182
v -3303.970459 2956.095947 2110.896729
v -3303.208740 2956.095947 2108.385010
v -3302.951416 2956.095947 2105.773193
v -3303.208740 2956.095947 2103.161377
v -3303.970459 2956.095947 2100.649902
v -3305.207520 2956.095947 2098.335449
v -3306.872559 2956.095947 2096.306396
v -3308.901367 2956.095947 2094.641602
v -3311.216064 2956.095947 2093.404541
v -3313.727539 2956.095947 2092.642578
v -3318.951172 2956.095947 2092.642578
v -3316.339355 2956.095947 2092.385254
v -3321.462891 2956.095947 2093.404541
v -3323.777588 2956.095947 2094.641602
v -3325.806152 2956.095947 2096.306396
v -3327.471191 2956.095947 2098.335449
v -3328.708252 2956.095947 2100.649902
v -3329.469971 2956.095947 2103.161377
v -3329.727539 2956.095947 2105.773193
v -3329.469971 2956.095947 2108.385010
v -3328.708252 2956.095947 2110.896729
v -3327.471191 2956.095947 2113.211182
v -3325.806152 2956.095947 2115.239990
v -3323.777588 2956.095947 2116.905029
v -3321.462891 2956.095947 2118.142090
v -3318.951172 2956.095947 2118.903809
v -3316.339355 2956.095947 2119.161133
v -3313.727539 2956.095947 2118.903809
v -3311.216064 2956.095947 2118.142090
v -3308.901367 2956.095947 2116.905029
v -3306.872559 2956.095947 2115.239990
v -3305.207520 2956.095947 2113.211182
v -3303.970459 2956.095947 2110.896729
v -3303.208740 2956.095947 2108.385010
v -3302.951416 2956.095947 2105.773193
v -3303.208740 2956.095947 2103.161377
v -3303.970459 2956.095947 2100.649902
v -3305.207520 2956.095947 2098.335449
v -3306.872559 2956.095947 2096.306396
v -3308.901367 2956.095947 2094.641602
v -3311.216064 2956.095947 2093.404541
v -3313.727539 2956.095947 2092.642578
v -3318.951172 2995.060059 2092.642578
v -3316.339355 2995.060059 2092.385254
v -3321.462891 2995.060059 2093.404541
v -3323.777588 2995.060059 2094.641602
v -3325.806152 2995.060059 2096.306396
v -3327.471191 2995.060059 2098.335449
v -3328.708252 2995.060059 2100.649902
v -3329.469971 2995.060059 2103.161377
v -3329.727539 2995.060059 2105.773193
v -3329.469971 2995.060059 2108.385010
v -3328.708252 2995.060059 2110.896729
v -3327.471191 2995.060059 2113.211182
v -3325.806152 2995.060059 2115.239990
v -3323.777588 2995.060059 2116.905029
v -3321.462891 2995.060059 2118.142090
v -3318.951172 2995.060059 2118.903809
v -3316.339355 2995.060059 2119.161133
v -3313.727539 2995.060059 2118.903809
v -3311.216064 2995.060059 2118.142090
v -3308.901367 2995.060059 2116.905029
v -3306.872559 2995.060059 2115.239990
v -3305.207520 2995.060059 2113.211182
v -3303.970459 2995.060059 2110.896729
v -3303.208740 2995.060059 2108.385010
v -3302.951416 2995.060059 2105.773193
v -3303.208740 2995.060059 2103.161377
v -3303.970459 2995.060059 2100.649902
v -3305.207520 2995.060059 2098.335449
v -3306.872559 2995.060059 2096.306396
v -3308.901367 2995.060059 2094.641602
v -3311.216064 2995.060059 2093.404541
v -3313.727539 2995.060059 2092.642578
v -3320.763916 2995.624268 2083.529053
v -3316.339355 2995.624268 2083.093262
v -3325.018311 2995.624268 2084.819824
v -3328.939697 2995.624268 2086.915527
v -3332.376221 2995.624268 2089.736084
v -3335.197021 2995.624268 2093.172852
v -3337.292480 2995.624268 2097.093750
v -3338.583252 2995.624268 2101.348389
v -3339.019043 2995.624268 2105.772949
v -3338.583252 2995.624268 2110.197754
v -3337.292480 2995.624268 2114.452148
v -3335.197021 2995.624268 2118.373047
v -3332.376221 2995.624268 2121.810059
v -3328.939697 2995.624268 2124.630371
v -3325.018311 2995.624268 2126.726318
v -3320.763916 2995.624268 2128.016846
v -3316.339355 2995.624268 2128.452637
v -3311.914795 2995.624268 2128.016846
v -3307.660400 2995.624268 2126.726318
v -3303.739258 2995.624268 2124.630371
v -3300.302490 2995.624268 2121.810059
v -3297.481934 2995.624268 2118.373047
v -3295.386230 2995.624268 2114.452148
v -3294.095459 2995.624268 2110.197754
v -3293.659668 2995.624268 2105.772949
v -3294.095459 2995.624268 2101.348389
v -3295.386230 2995.624268 2097.093750
v -3297.481934 2995.624268 2093.172852
v -3300.302490 2995.624268 2089.736084
v -3303.739258 2995.624268 2086.915527
v -3307.660400 2995.624268 2084.819824
v -3311.914795 2995.624268 2083.529053
v -3320.763916 3004.466064 2083.529053
v -3316.339355 3004.466064 2083.093262
v -3325.018311 3004.466064 2084.819824
v -3328.939697 3004.466064 2086.915527
v -3332.376221 3004.466064 2089.736084
v -3335.197021 3004.466064 2093.172852
v -3337.292480 3004.466064 2097.093750
v -3338.583252 3004.466064 2101.348389
v -3339.019043 3004.466064 2105.772949
v -3338.583252 3004.466064 2110.197754
v -3337.292480 3004.466064 2114.452148
v -3335.197021 3004.466064 2118.373047
v -3332.376221 3004.466064 2121.810059
v -3328.939697 3004.466064 2124.630371
v -3325.018311 3004.466064 2126.726318
v -3320.763916 3004.466064 2128.016846
v -3316.339355 3004.466064 2128.452637
v -3311.914795 3004.466064 2128.016846
v -3307.660400 3004.466064 2126.726318
v -3303.739258 3004.466064 2124.630371
v -3300.302490 3004.466064 2121.810059
v -3297.481934 3004.466064 2118.373047
v -3295.386230 3004.466064 2114.452148
v -3294.095459 3004.466064 2110.197754
v -3293.659668 3004.466064 2105.772949
v -3294.095459 3004.466064 2101.348389
v -3295.386230 3004.466064 2097.093750
v -3297.481934 3004.466064 2093.172852
v -3300.302490 3004.466064 2089.736084
v -3303.739258 3004.466064 2086.915527
v -3307.660400 3004.466064 2084.819824
v -3311.914795 3004.466064 2083.529053
vn -0.0000 -1.0000 -0.0000
vn -0.9569 -0.0000 -0.2903
vn -0.0000 1.0000 -0.0000
vn -0.0583 -0.9981 0.0177
vn 0.7730 -0.0000 0.6344
vn -0.9952 -0.0000 -0.0981
vn 0.8819 -0.0000 0.4715
vn -0.9952 -0.0000 0.0982
vn 0.9569 -0.0000 0.2903
vn -0.9570 -0.0000 0.2901
vn 0.9952 -0.0000 0.0981
vn -0.8820 -0.0000 0.4713
vn 0.9952 -0.0000 -0.0979
vn -0.7730 -0.0000 0.6344
vn 0.9570 -0.0000 -0.2902
vn -0.6345 -0.0000 0.7729
vn 0.8820 -0.0000 -0.4713
vn -0.4713 -0.0000 0.8820
vn -0.0980 -0.0000 -0.9952
vn 0.7731 -0.0000 -0.6343
vn -0.2902 -0.0000 0.9570
vn -0.2903 -0.0000 -0.9569
vn 0.6344 -0.0000 -0.7730
vn -0.0980 -0.0000 0.9952
vn -0.4714 -0.0000 -0.8819
vn 0.4714 -0.0000 -0.8819
vn 0.0980 -0.0000 0.9952
vn -0.6344 -0.0000 -0.7730
vn 0.2904 -0.0000 -0.9569
vn 0.2902 -0.0000 0.9570
vn -0.7730 -0.0000 -0.6344
vn 0.0980 -0.0000 -0.9952
vn 0.4713 -0.0000 0.8820
vn -0.8819 -0.0000 -0.4714
vn 0.6344 -0.0000 0.7730
vn 0.0606 -0.9981 0.0060
vn -0.0537 -0.9981 0.0287
vn 0.0606 -0.9981 -0.0060
vn -0.0470 -0.9981 0.0386
vn 0.0583 -0.9981 -0.0177
vn -0.0387 -0.9981 0.0471
vn 0.0537 -0.9981 -0.0287
vn -0.0287 -0.9981 0.0537
vn -0.0059 -0.9981 -0.0606
vn 0.0471 -0.9981 -0.0386
vn -0.0178 -0.9981 0.0583
vn -0.0177 -0.9981 -0.0583
vn 0.0386 -0.9981 -0.0471
vn -0.0060 -0.9981 0.0606
vn -0.0288 -0.9981 -0.0537
vn 0.0286 -0.9981 -0.0537
vn 0.0059 -0.9981 0.0606
vn -0.0386 -0.9981 -0.0471
vn 0.0177 -0.9981 -0.0583
vn 0.0176 -0.9981 0.0583
vn -0.0471 -0.9981 -0.0386
vn 0.0061 -0.9981 -0.0606
vn 0.0288 -0.9981 0.0537
vn -0.0537 -0.9981 -0.0287
vn 0.0386 -0.9981 0.0471
vn -0.0582 -0.9981 -0.0177
vn 0.0471 -0.9981 0.0386
vn -0.0606 -0.9981 -0.0060
vn 0.0538 -0.9981 0.0287
vn -0.0606 -0.9981 0.0060
vn 0.0583 -0.9981 0.0177
vn 0.2903 -0.0000 -0.9569
vn 0.2903 -0.0000 0.9569
vn 0.4714 -0.0000 0.8819
vn -0.8820 -0.0000 -0.4713
vn 0.8819 -0.0000 0.4714
vn -0.9952 -0.0000 0.0980
vn 0.9569 -0.0000 0.2904
vn -0.9569 -0.0000 0.2903
vn -0.8819 -0.0000 0.4714
vn 0.9952 -0.0000 -0.0980
vn 0.9570 -0.0000 -0.2903
vn -0.6344 -0.0000 0.7730
vn 0.8819 -0.0000 -0.4714
vn -0.4714 -0.0000 0.8819
vn -0.2903 -0.0000 0.9569
vn 0.6343 -0.0000 -0.7731
vn 0.0003 -1.0000 -0.0000
vn -0.0004 -1.0000 -0.0000
vn 0.0007 -1.0000 -0.0000
vn 0.0001 -1.0000 -0.0000
vn -0.0007 -1.0000 -0.0000
vn 0.0002 -1.0000 -0.0000
vn -0.0002 -1.0000 -0.0000
vn -0.0001 -1.0000 -0.0000
vn -0.9570 -0.0000 -0.2902
vn -0.9952 -0.0000 -0.0982
vn 0.8820 -0.0000 0.4713
vn -0.9952 -0.0000 0.0981
vn 0.9570 -0.0000 0.2901
vn 0.9952 -0.0000 0.0979
vn 0.9952 -0.0000 -0.0981
vn -0.7729 -0.0000 0.6345
vn 0.9569 -0.0000 -0.2903
vn 0.8819 -0.0000 -0.4715
vn 0.7730 -0.0000 -0.6343
vn -0.4713 -0.0000 -0.8820
vn 0.4713 -0.0000 -0.8820
vn -0.7730 -0.0000 -0.6343
vn -0.0471 -0.9981 0.0386
vn 0.0582 -0.9981 -0.0177
vn -0.0386 -0.9981 0.0471
vn -0.0288 -0.9981 0.0537
vn -0.0061 -0.9981 -0.0606
vn -0.0176 -0.9981 0.0583
vn 0.0387 -0.9981 -0.0471
vn -0.0059 -0.9981 0.0606
vn -0.0286 -0.9981 -0.0537
vn 0.0288 -0.9981 -0.0537
vn 0.0060 -0.9981 0.0606
vn 0.0178 -0.9981 0.0583
vn 0.0059 -0.9981 -0.0606
vn 0.0287 -0.9981 0.0537
vn -0.0583 -0.9981 -0.0177
vn 0.0536 -0.9981 0.0287
vn 0.0005 1.0000 -0.0000
vn -0.0005 1.0000 -0.0000
vn 0.0003 1.0000 -0.0000
vn -0.0001 1.0000 -0.0000
vn 0.0001 1.0000 -0.0000
vn -0.6345 -0.0000 -0.7729
vn 0.6343 -0.0000 0.7731
vn -0.9570 -0.0000 -0.2903
vn 0.7731 -0.0000 0.6343
vn -0.9952 -0.0000 -0.0980
vn -0.9569 -0.0000 0.2904
vn 0.9952 -0.0000 0.0980
vn 0.7730 -0.0000 -0.6344
vt 0.000000 0.000000
s 0
usemtl Material.003
f 19/1/1 11/1/1 3/1/1
f 40/1/2 71/1/2 39/1/2
f 26/1/3 59/1/3 58/1/3
f 13/1/3 46/1/3 45/1/3
f 27/1/3 60/1/3 59/1/3
f 14/1/3 47/1/3 46/1/3
f 1/1/3 33/1/3 34/1/3
f 28/1/3 61/1/3 60/1/3
f 15/1/3 48/1/3 47/1/3
f 2/1/3 35/1/3 33/1/3
f 29/1/3 62/1/3 61/1/3
f 16/1/3 49/1/3 48/1/3
f 3/1/3 36/1/3 35/1/3
f 30/1/3 63/1/3 62/1/3
f 17/1/3 50/1/3 49/1/3
f 4/1/3 37/1/3 36/1/3
f 31/1/3 64/1/3 63/1/3
f 18/1/3 51/1/3 50/1/3
f 5/1/3 38/1/3 37/1/3
f 32/1/3 34/1/3 64/1/3
f 19/1/3 52/1/3 51/1/3
f 6/1/3 39/1/3 38/1/3
f 20/1/3 53/1/3 52/1/3
f 7/1/3 40/1/3 39/1/3
f 21/1/3 54/1/3 53/1/3
f 8/1/3 41/1/3 40/1/3
f 22/1/3 55/1/3 54/1/3
f 9/1/3 42/1/3 41/1/3
f 23/1/3 56/1/3 55/1/3
f 10/1/3 43/1/3 42/1/3
f 24/1/3 57/1/3 56/1/3
f 11/1/3 44/1/3 43/1/3
f 25/1/3 58/1/3 57/1/3
f 12/1/3 45/1/3 44/1/3
f 74/1/4 107/1/4 106/1/4
f 54/1/5 85/1/5 53/1/5
f 41/1/6 72/1/6 40/1/6
f 55/1/7 86/1/7 54/1/7
f 42/1/8 73/1/8 41/1/8
f 56/1/9 87/1/9 55/1/9
f 43/1/10 74/1/10 42/1/10
f 57/1/11 88/1/11 56/1/11
f 44/1/12 75/1/12 43/1/12
f 58/1/13 89/1/13 57/1/13
f 45/1/14 76/1/14 44/1/14
f 59/1/15 90/1/15 58/1/15
f 46/1/16 77/1/16 45/1/16
f 60/1/17 91/1/17 59/1/17
f 47/1/18 78/1/18 46/1/18
f 33/1/19 66/1/19 34/1/19
f 61/1/20 92/1/20 60/1/20
f 48/1/21 79/1/21 47/1/21
f 35/1/22 65/1/22 33/1/22
f 62/1/23 93/1/23 61/1/23
f 49/1/24 80/1/24 48/1/24
f 36/1/25 67/1/25 35/1/25
f 63/1/26 94/1/26 62/1/26
f 50/1/27 81/1/27 49/1/27
f 37/1/28 68/1/28 36/1/28
f 64/1/29 95/1/29 63/1/29
f 51/1/30 82/1/30 50/1/30
f 38/1/31 69/1/31 37/1/31
f 34/1/32 96/1/32 64/1/32
f 52/1/33 83/1/33 51/1/33
f 39/1/34 70/1/34 38/1/34
f 53/1/35 84/1/35 52/1/35
f 114/1/27 145/1/27 113/1/27
f 89/1/36 120/1/36 88/1/36
f 76/1/37 107/1/37 75/1/37
f 90/1/38 121/1/38 89/1/38
f 76/1/39 109/1/39 108/1/39
f 91/1/40 122/1/40 90/1/40
f 78/1/41 109/1/41 77/1/41
f 92/1/42 123/1/42 91/1/42
f 78/1/43 111/1/43 110/1/43
f 66/1/44 97/1/44 98/1/44
f 93/1/45 124/1/45 92/1/45
f 80/1/46 111/1/46 79/1/46
f 65/1/47 99/1/47 97/1/47
f 93/1/48 126/1/48 125/1/48
f 80/1/49 113/1/49 112/1/49
f 68/1/50 99/1/50 67/1/50
f 94/1/51 127/1/51 126/1/51
f 82/1/52 113/1/52 81/1/52
f 68/1/53 101/1/53 100/1/53
f 96/1/54 127/1/54 95/1/54
f 82/1/55 115/1/55 114/1/55
f 69/1/56 102/1/56 101/1/56
f 66/1/57 128/1/57 96/1/57
f 84/1/58 115/1/58 83/1/58
f 70/1/59 103/1/59 102/1/59
f 85/1/60 116/1/60 84/1/60
f 71/1/61 104/1/61 103/1/61
f 85/1/62 118/1/62 117/1/62
f 73/1/63 104/1/63 72/1/63
f 87/1/64 118/1/64 86/1/64
f 73/1/65 106/1/65 105/1/65
f 87/1/66 120/1/66 119/1/66
f 145/1/3 153/1/3 130/1/3
f 101/1/28 132/1/28 100/1/28
f 128/1/67 159/1/67 127/1/67
f 115/1/68 146/1/68 114/1/68
f 102/1/31 133/1/31 101/1/31
f 98/1/32 160/1/32 128/1/32
f 116/1/69 147/1/69 115/1/69
f 103/1/70 134/1/70 102/1/70
f 117/1/35 148/1/35 116/1/35
f 104/1/2 135/1/2 103/1/2
f 118/1/5 149/1/5 117/1/5
f 105/1/6 136/1/6 104/1/6
f 119/1/71 150/1/71 118/1/71
f 106/1/72 137/1/72 105/1/72
f 120/1/73 151/1/73 119/1/73
f 107/1/74 138/1/74 106/1/74
f 121/1/11 152/1/11 120/1/11
f 108/1/75 139/1/75 107/1/75
f 122/1/76 153/1/76 121/1/76
f 109/1/14 140/1/14 108/1/14
f 123/1/77 154/1/77 122/1/77
f 110/1/78 141/1/78 109/1/78
f 124/1/79 155/1/79 123/1/79
f 111/1/80 142/1/80 110/1/80
f 97/1/19 130/1/19 98/1/19
f 125/1/20 156/1/20 124/1/20
f 112/1/81 143/1/81 111/1/81
f 99/1/22 129/1/22 97/1/22
f 126/1/82 157/1/82 125/1/82
f 113/1/24 144/1/24 112/1/24
f 100/1/25 131/1/25 99/1/25
f 127/1/26 158/1/26 126/1/26
f 3/1/83 2/1/83 1/1/83
f 1/1/84 32/1/84 31/1/84
f 31/1/1 30/1/1 29/1/1
f 29/1/1 28/1/1 27/1/1
f 27/1/85 26/1/85 25/1/85
f 25/1/85 24/1/85 23/1/85
f 23/1/1 22/1/1 21/1/1
f 21/1/1 20/1/1 19/1/1
f 19/1/86 18/1/86 17/1/86
f 17/1/1 16/1/1 15/1/1
f 15/1/1 14/1/1 13/1/1
f 13/1/1 12/1/1 11/1/1
f 11/1/87 10/1/87 9/1/87
f 9/1/87 8/1/87 7/1/87
f 7/1/1 6/1/1 5/1/1
f 5/1/1 4/1/1 3/1/1
f 3/1/1 1/1/1 31/1/1
f 31/1/88 29/1/88 27/1/88
f 27/1/89 25/1/89 23/1/89
f 23/1/88 21/1/88 19/1/88
f 19/1/1 17/1/1 15/1/1
f 15/1/89 13/1/89 11/1/89
f 11/1/88 9/1/88 7/1/88
f 7/1/89 5/1/89 3/1/89
f 3/1/1 31/1/1 27/1/1
f 27/1/90 23/1/90 19/1/90
f 19/1/1 15/1/1 11/1/1
f 11/1/86 7/1/86 3/1/86
f 3/1/1 27/1/1 19/1/1
f 40/1/91 72/1/91 71/1/91
f 26/1/3 27/1/3 59/1/3
f 13/1/3 14/1/3 46/1/3
f 27/1/3 28/1/3 60/1/3
f 14/1/3 15/1/3 47/1/3
f 1/1/3 2/1/3 33/1/3
f 28/1/3 29/1/3 61/1/3
f 15/1/3 16/1/3 48/1/3
f 2/1/3 3/1/3 35/1/3
f 29/1/3 30/1/3 62/1/3
f 16/1/3 17/1/3 49/1/3
f 3/1/3 4/1/3 36/1/3
f 30/1/3 31/1/3 63/1/3
f 17/1/3 18/1/3 50/1/3
f 4/1/3 5/1/3 37/1/3
f 31/1/3 32/1/3 64/1/3
f 18/1/3 19/1/3 51/1/3
f 5/1/3 6/1/3 38/1/3
f 32/1/3 1/1/3 34/1/3
f 19/1/3 20/1/3 52/1/3
f 6/1/3 7/1/3 39/1/3
f 20/1/3 21/1/3 53/1/3
f 7/1/3 8/1/3 40/1/3
f 21/1/3 22/1/3 54/1/3
f 8/1/3 9/1/3 41/1/3
f 22/1/3 23/1/3 55/1/3
f 9/1/3 10/1/3 42/1/3
f 23/1/3 24/1/3 56/1/3
f 10/1/3 11/1/3 43/1/3
f 24/1/3 25/1/3 57/1/3
f 11/1/3 12/1/3 44/1/3
f 25/1/3 26/1/3 58/1/3
f 12/1/3 13/1/3 45/1/3
f 74/1/4 75/1/4 107/1/4
f 54/1/5 86/1/5 85/1/5
f 41/1/92 73/1/92 72/1/92
f 55/1/93 87/1/93 86/1/93
f 42/1/94 74/1/94 73/1/94
f 56/1/95 88/1/95 87/1/95
f 43/1/74 75/1/74 74/1/74
f 57/1/96 89/1/96 88/1/96
f 44/1/75 76/1/75 75/1/75
f 58/1/97 90/1/97 89/1/97
f 45/1/98 77/1/98 76/1/98
f 59/1/99 91/1/99 90/1/99
f 46/1/78 78/1/78 77/1/78
f 60/1/100 92/1/100 91/1/100
f 47/1/80 79/1/80 78/1/80
f 33/1/19 65/1/19 66/1/19
f 61/1/101 93/1/101 92/1/101
f 48/1/21 80/1/21 79/1/21
f 35/1/22 67/1/22 65/1/22
f 62/1/23 94/1/23 93/1/23
f 49/1/24 81/1/24 80/1/24
f 36/1/102 68/1/102 67/1/102
f 63/1/103 95/1/103 94/1/103
f 50/1/27 82/1/27 81/1/27
f 37/1/28 69/1/28 68/1/28
f 64/1/67 96/1/67 95/1/67
f 51/1/68 83/1/68 82/1/68
f 38/1/104 70/1/104 69/1/104
f 34/1/32 66/1/32 96/1/32
f 52/1/69 84/1/69 83/1/69
f 39/1/70 71/1/70 70/1/70
f 53/1/35 85/1/35 84/1/35
f 114/1/27 146/1/27 145/1/27
f 89/1/36 121/1/36 120/1/36
f 76/1/37 108/1/37 107/1/37
f 90/1/38 122/1/38 121/1/38
f 76/1/105 77/1/105 109/1/105
f 91/1/106 123/1/106 122/1/106
f 78/1/107 110/1/107 109/1/107
f 92/1/42 124/1/42 123/1/42
f 78/1/108 79/1/108 111/1/108
f 66/1/109 65/1/109 97/1/109
f 93/1/45 125/1/45 124/1/45
f 80/1/110 112/1/110 111/1/110
f 65/1/47 67/1/47 99/1/47
f 93/1/111 94/1/111 126/1/111
f 80/1/112 81/1/112 113/1/112
f 68/1/113 100/1/113 99/1/113
f 94/1/114 95/1/114 127/1/114
f 82/1/115 114/1/115 113/1/115
f 68/1/53 69/1/53 101/1/53
f 96/1/54 128/1/54 127/1/54
f 82/1/116 83/1/116 115/1/116
f 69/1/56 70/1/56 102/1/56
f 66/1/117 98/1/117 128/1/117
f 84/1/118 116/1/118 115/1/118
f 70/1/59 71/1/59 103/1/59
f 85/1/60 117/1/60 116/1/60
f 71/1/119 72/1/119 104/1/119
f 85/1/62 86/1/62 118/1/62
f 73/1/63 105/1/63 104/1/63
f 87/1/120 119/1/120 118/1/120
f 73/1/65 74/1/65 106/1/65
f 87/1/66 88/1/66 120/1/66
f 130/1/3 129/1/3 131/1/3
f 131/1/3 132/1/3 133/1/3
f 133/1/3 134/1/3 135/1/3
f 135/1/121 136/1/121 137/1/121
f 137/1/3 138/1/3 139/1/3
f 139/1/122 140/1/122 141/1/122
f 141/1/123 142/1/123 143/1/123
f 143/1/3 144/1/3 145/1/3
f 145/1/3 146/1/3 147/1/3
f 147/1/3 148/1/3 149/1/3
f 149/1/121 150/1/121 151/1/121
f 151/1/3 152/1/3 153/1/3
f 153/1/122 154/1/122 155/1/122
f 155/1/3 156/1/3 157/1/3
f 157/1/3 158/1/3 159/1/3
f 159/1/3 160/1/3 130/1/3
f 130/1/124 131/1/124 133/1/124
f 133/1/124 135/1/124 137/1/124
f 137/1/125 139/1/125 141/1/125
f 141/1/3 143/1/3 145/1/3
f 145/1/3 147/1/3 149/1/3
f 149/1/124 151/1/124 153/1/124
f 153/1/125 155/1/125 157/1/125
f 157/1/125 159/1/125 130/1/125
f 130/1/3 133/1/3 137/1/3
f 137/1/3 141/1/3 145/1/3
f 145/1/3 149/1/3 153/1/3
f 153/1/3 157/1/3 130/1/3
f 130/1/3 137/1/3 145/1/3
f 101/1/126 133/1/126 132/1/126
f 128/1/67 160/1/67 159/1/67
f 115/1/68 147/1/68 146/1/68
f 102/1/31 134/1/31 133/1/31
f 98/1/32 130/1/32 160/1/32
f 116/1/69 148/1/69 147/1/69
f 103/1/34 135/1/34 134/1/34
f 117/1/127 149/1/127 148/1/127
f 104/1/128 136/1/128 135/1/128
f 118/1/129 150/1/129 149/1/129
f 105/1/130 137/1/130 136/1/130
f 119/1/71 151/1/71 150/1/71
f 106/1/94 138/1/94 137/1/94
f 120/1/9 152/1/9 151/1/9
f 107/1/131 139/1/131 138/1/131
f 121/1/132 153/1/132 152/1/132
f 108/1/12 140/1/12 139/1/12
f 122/1/97 154/1/97 153/1/97
f 109/1/14 141/1/14 140/1/14
f 123/1/99 155/1/99 154/1/99
f 110/1/78 142/1/78 141/1/78
f 124/1/79 156/1/79 155/1/79
f 111/1/80 143/1/80 142/1/80
f 97/1/19 129/1/19 130/1/19
f 125/1/133 157/1/133 156/1/133
f 112/1/81 144/1/81 143/1/81
f 99/1/22 131/1/22 129/1/22
f 126/1/23 158/1/23 157/1/23
f 113/1/24 145/1/24 144/1/24
f 100/1/102 132/1/102 131/1/102
f 127/1/103 159/1/103 158/1/103
