# Blender 4.1.1
# www.blender.org
mtllib Circle.029.mtl
o Pipe.150
v 1525.646729 1513.960938 -3187.539062
v 1523.034912 1513.960938 -3187.281738
v 1520.523315 1513.960938 -3186.520020
v 1518.208862 1513.960938 -3185.282959
v 1516.179932 1513.960938 -3183.617920
v 1514.515137 1513.960938 -3181.589111
v 1513.277954 1513.960938 -3179.274414
v 1512.516113 1513.960938 -3176.762939
v 1512.258789 1513.960938 -3174.151123
v 1512.516113 1513.960938 -3171.539307
v 1513.277954 1513.960938 -3169.027588
v 1514.515137 1513.960938 -3166.712891
v 1516.179932 1513.960938 -3164.684326
v 1518.208862 1513.960938 -3163.019287
v 1520.523315 1513.960938 -3161.782227
v 1523.034912 1513.960938 -3161.020508
v 1525.646729 1513.960938 -3160.762939
v 1528.258545 1513.960938 -3161.020508
v 1530.770142 1513.960938 -3161.782227
v 1533.084595 1513.960938 -3163.019287
v 1535.113525 1513.960938 -3164.684326
v 1536.778442 1513.960938 -3166.712891
v 1538.015503 1513.960938 -3169.027588
v 1538.777344 1513.960938 -3171.539307
v 1539.034668 1513.960938 -3174.151123
v 1538.777344 1513.960938 -3176.762939
v 1538.015503 1513.960938 -3179.274414
v 1536.778442 1513.960938 -3181.589111
v 1535.113525 1513.960938 -3183.617920
v 1533.084595 1513.960938 -3185.282959
v 1530.770142 1513.960938 -3186.520020
v 1528.258545 1513.960938 -3187.281738
v 1523.034912 1513.960938 -3187.281738
v 1525.646729 1513.960938 -3187.539062
v 1520.523315 1513.960938 -3186.520020
v 1518.208862 1513.960938 -3185.282959
v 1516.179932 1513.960938 -3183.617920
v 1514.515137 1513.960938 -3181.589111
v 1513.277954 1513.960938 -3179.274414
v 1512.516113 1513.960938 -3176.762939
v 1512.258789 1513.960938 -3174.151123
v 1512.516113 1513.960938 -3171.539307
v 1513.277954 1513.960938 -3169.027588
v 1514.515137 1513.960938 -3166.712891
v 1516.179932 1513.960938 -3164.684326
v 1518.208862 1513.960938 -3163.019287
v 1520.523315 1513.960938 -3161.782227
v 1523.034912 1513.960938 -3161.020508
v 1525.646729 1513.960938 -3160.762939
v 1528.258545 1513.960938 -3161.020508
v 1530.770142 1513.960938 -3161.782227
v 1533.084595 1513.960938 -3163.019287
v 1535.113525 1513.960938 -3164.684326
v 1536.778442 1513.960938 -3166.712891
v 1538.015503 1513.960938 -3169.027588
v 1538.777344 1513.960938 -3171.539307
v 1539.034668 1513.960938 -3174.151123
v 1538.777344 1513.960938 -3176.762939
v 1538.015503 1513.960938 -3179.274414
v 1536.778442 1513.960938 -3181.589111
v 1535.113525 1513.960938 -3183.617920
v 1533.084595 1513.960938 -3185.282959
v 1530.770142 1513.960938 -3186.520020
v 1528.258545 1513.960938 -3187.281738
v 1523.034912 1552.925171 -3187.281738
v 1525.646729 1552.925171 -3187.539062
v 1520.523315 1552.925171 -3186.520020
v 1518.208862 1552.925171 -3185.282959
v 1516.179932 1552.925171 -3183.617920
v 1514.515137 1552.925171 -3181.589111
v 1513.277954 1552.925171 -3179.274414
v 1512.516113 1552.925171 -3176.762939
v 1512.258789 1552.925171 -3174.151123
v 1512.516113 1552.925171 -3171.539307
v 1513.277954 1552.925171 -3169.027588
v 1514.515137 1552.925171 -3166.712891
v 1516.179932 1552.925171 -3164.684326
v 1518.208862 1552.925171 -3163.019287
v 1520.523315 1552.925171 -3161.782227
v 1523.034912 1552.925171 -3161.020508
v 1525.646729 1552.925171 -3160.762939
v 1528.258545 1552.925171 -3161.020508
v 1530.770142 1552.925171 -3161.782227
v 1533.084595 1552.925171 -3163.019287
v 1535.113525 1552.925171 -3164.684326
v 1536.778442 1552.925171 -3166.712891
v 1538.015503 1552.925171 -3169.027588
v 1538.777344 1552.925171 -3171.539307
v 1539.034668 1552.925171 -3174.151123
v 1538.777344 1552.925171 -3176.762939
v 1538.015503 1552.925171 -3179.274414
v 1536.778442 1552.925171 -3181.589111
v 1535.113525 1552.925171 -3183.617920
v 1533.084595 1552.925171 -3185.282959
v 1530.770142 1552.925171 -3186.520020
v 1528.258545 1552.925171 -3187.281738
v 1521.222168 1553.489258 -3196.395264
v 1525.646729 1553.489258 -3196.831055
v 1516.967651 1553.489258 -3195.104492
v 1513.046753 1553.489258 -3193.008545
v 1509.609863 1553.489258 -3190.188232
v 1506.789429 1553.489258 -3186.751709
v 1504.693359 1553.489258 -3182.830322
v 1503.402954 1553.489258 -3178.575928
v 1502.967041 1553.489258 -3174.151367
v 1503.402954 1553.489258 -3169.726807
v 1504.693359 1553.489258 -3165.472168
v 1506.789429 1553.489258 -3161.551270
v 1509.609863 1553.489258 -3158.114502
v 1513.046753 1553.489258 -3155.293945
v 1516.967651 1553.489258 -3153.198242
v 1521.222168 1553.489258 -3151.907471
v 1525.646729 1553.489258 -3151.471680
v 1530.071289 1553.489258 -3151.907471
v 1534.325806 1553.489258 -3153.198242
v 1538.246826 1553.489258 -3155.293945
v 1541.683594 1553.489258 -3158.114502
v 1544.504150 1553.489258 -3161.551270
v 1546.600098 1553.489258 -3165.472168
v 1547.890503 1553.489258 -3169.726807
v 1548.326416 1553.489258 -3174.151367
v 1547.890503 1553.489258 -3178.575928
v 1546.600098 1553.489258 -3182.830322
v 1544.504150 1553.489258 -3186.751709
v 1541.683594 1553.489258 -3190.188232
v 1538.246826 1553.489258 -3193.008545
v 1534.325806 1553.489258 -3195.104492
v 1530.071289 1553.489258 -3196.395264
v 1521.222168 1562.331055 -3196.395264
v 1525.646729 1562.331055 -3196.831055
v 1516.967651 1562.331055 -3195.104492
v 1513.046753 1562.331055 -3193.008545
v 1509.609863 1562.331055 -3190.188232
v 1506.789429 1562.331055 -3186.751709
v 1504.693359 1562.331055 -3182.830322
v 1503.402954 1562.331055 -3178.575928
v 1502.967041 1562.331055 -3174.151367
v 1503.402954 1562.331055 -3169.726807
v 1504.693359 1562.331055 -3165.472168
v 1506.789429 1562.331055 -3161.551270
v 1509.609863 1562.331055 -3158.114502
v 1513.046753 1562.331055 -3155.293945
v 1516.967651 1562.331055 -3153.198242
v 1521.222168 1562.331055 -3151.907471
v 1525.646729 1562.331055 -3151.471680
v 1530.071289 1562.331055 -3151.907471
v 1534.325806 1562.331055 -3153.198242
v 1538.246826 1562.331055 -3155.293945
v 1541.683594 1562.331055 -3158.114502
v 1544.504150 1562.331055 -3161.551270
v 1546.600098 1562.331055 -3165.472168
v 1547.890503 1562.331055 -3169.726807
v 1548.326416 1562.331055 -3174.151367
v 1547.890503 1562.331055 -3178.575928
v 1546.600098 1562.331055 -3182.830322
v 1544.504150 1562.331055 -3186.751709
v 1541.683594 1562.331055 -3190.188232
v 1538.246826 1562.331055 -3193.008545
v 1534.325806 1562.331055 -3195.104492
v 1530.071289 1562.331055 -3196.395264
vn -0.0000 -1.0000 -0.0000
vn -0.9569 -0.0000 -0.2903
vn -0.0000 1.0000 -0.0000
vn -0.0583 -0.9981 0.0177
vn 0.7730 -0.0000 0.6344
vn -0.9952 -0.0000 -0.0980
vn 0.8819 -0.0000 0.4714
vn -0.9952 -0.0000 0.0981
vn 0.9569 -0.0000 0.2904
vn -0.9570 -0.0000 0.2902
vn 0.9952 -0.0000 0.0980
vn -0.8819 -0.0000 0.4714
vn 0.9952 -0.0000 -0.0980
vn -0.7730 -0.0000 0.6344
vn 0.9570 -0.0000 -0.2902
vn -0.6344 -0.0000 0.7730
vn 0.8820 -0.0000 -0.4713
vn -0.4714 -0.0000 0.8819
vn -0.0980 -0.0000 -0.9952
vn 0.7731 -0.0000 -0.6343
vn -0.2902 -0.0000 0.9570
vn -0.2902 -0.0000 -0.9570
vn 0.6344 -0.0000 -0.7730
vn -0.0981 -0.0000 0.9952
vn -0.4714 -0.0000 -0.8819
vn 0.4714 -0.0000 -0.8819
vn 0.0981 -0.0000 0.9952
vn -0.6343 -0.0000 -0.7730
vn 0.2902 -0.0000 -0.9570
vn 0.2902 -0.0000 0.9570
vn -0.7731 -0.0000 -0.6343
vn 0.0980 -0.0000 -0.9952
vn 0.4714 -0.0000 0.8819
vn -0.8819 -0.0000 -0.4714
vn 0.6343 -0.0000 0.7730
vn 0.0980 -0.0000 0.9952
vn 0.0606 -0.9981 0.0060
vn -0.0537 -0.9981 0.0287
vn 0.0606 -0.9981 -0.0060
vn -0.0470 -0.9981 0.0386
vn 0.0583 -0.9981 -0.0177
vn -0.0386 -0.9981 0.0471
vn 0.0537 -0.9981 -0.0287
vn -0.0287 -0.9981 0.0537
vn -0.0060 -0.9981 -0.0606
vn 0.0471 -0.9981 -0.0386
vn -0.0177 -0.9981 0.0583
vn -0.0176 -0.9981 -0.0583
vn 0.0386 -0.9981 -0.0471
vn -0.0059 -0.9981 0.0606
vn -0.0287 -0.9981 -0.0537
vn 0.0287 -0.9981 -0.0537
vn 0.0060 -0.9981 0.0606
vn -0.0386 -0.9981 -0.0471
vn 0.0177 -0.9981 -0.0583
vn 0.0177 -0.9981 0.0583
vn -0.0470 -0.9981 -0.0386
vn 0.0060 -0.9981 -0.0606
vn 0.0287 -0.9981 0.0537
vn -0.0537 -0.9981 -0.0287
vn 0.0387 -0.9981 0.0471
vn -0.0583 -0.9981 -0.0177
vn 0.0471 -0.9981 0.0386
vn -0.0606 -0.9981 -0.0060
vn 0.0537 -0.9981 0.0287
vn -0.0606 -0.9981 0.0060
vn 0.0583 -0.9981 0.0177
vn -0.6344 -0.0000 -0.7730
vn 0.2903 -0.0000 -0.9569
vn 0.2903 -0.0000 0.9569
vn -0.7730 -0.0000 -0.6344
vn 0.6344 -0.0000 0.7730
vn 0.9569 -0.0000 0.2903
vn -0.8819 -0.0000 0.4715
vn 0.9952 -0.0000 -0.0981
vn 0.8819 -0.0000 -0.4714
vn 0.7730 -0.0000 -0.6344
vn -0.2903 -0.0000 0.9569
vn -0.2903 -0.0000 -0.9569
vn -0.0980 -0.0000 0.9952
vn -0.0004 -1.0000 -0.0000
vn -0.0001 -1.0000 -0.0000
vn 0.0004 -1.0000 -0.0000
vn 0.0001 -1.0000 -0.0000
vn -0.9570 -0.0000 -0.2902
vn -0.9952 -0.0000 -0.0981
vn 0.8820 -0.0000 0.4713
vn -0.9952 -0.0000 0.0980
vn 0.9570 -0.0000 0.2902
vn -0.9569 -0.0000 0.2903
vn 0.9569 -0.0000 -0.2904
vn -0.6343 -0.0000 0.7730
vn 0.6343 -0.0000 -0.7730
vn -0.7730 -0.0000 -0.6343
vn -0.0471 -0.9981 0.0386
vn 0.0470 -0.9981 -0.0386
vn -0.0177 -0.9981 -0.0583
vn -0.0060 -0.9981 0.0606
vn -0.0288 -0.9981 -0.0537
vn 0.0059 -0.9981 0.0606
vn 0.0176 -0.9981 -0.0583
vn -0.0471 -0.9981 -0.0386
vn 0.0059 -0.9981 -0.0606
vn 0.0386 -0.9981 0.0471
vn 0.0470 -0.9981 0.0386
vn 0.0001 1.0000 -0.0000
vn 0.0003 1.0000 -0.0000
vn -0.0003 1.0000 -0.0000
vn -0.0001 1.0000 -0.0000
vn 0.9952 -0.0000 0.0981
vn 0.9569 -0.0000 -0.2903
vt 0.000000 0.000000
s 0
usemtl Material.003
f 19/1/1 11/1/1 3/1/1
f 40/1/2 71/1/2 39/1/2
f 26/1/3 59/1/3 58/1/3
f 13/1/3 46/1/3 45/1/3
f 27/1/3 60/1/3 59/1/3
f 14/1/3 47/1/3 46/1/3
f 1/1/3 33/1/3 34/1/3
f 28/1/3 61/1/3 60/1/3
f 15/1/3 48/1/3 47/1/3
f 2/1/3 35/1/3 33/1/3
f 29/1/3 62/1/3 61/1/3
f 16/1/3 49/1/3 48/1/3
f 3/1/3 36/1/3 35/1/3
f 30/1/3 63/1/3 62/1/3
f 17/1/3 50/1/3 49/1/3
f 4/1/3 37/1/3 36/1/3
f 31/1/3 64/1/3 63/1/3
f 18/1/3 51/1/3 50/1/3
f 5/1/3 38/1/3 37/1/3
f 32/1/3 34/1/3 64/1/3
f 19/1/3 52/1/3 51/1/3
f 6/1/3 39/1/3 38/1/3
f 20/1/3 53/1/3 52/1/3
f 7/1/3 40/1/3 39/1/3
f 21/1/3 54/1/3 53/1/3
f 8/1/3 41/1/3 40/1/3
f 22/1/3 55/1/3 54/1/3
f 9/1/3 42/1/3 41/1/3
f 23/1/3 56/1/3 55/1/3
f 10/1/3 43/1/3 42/1/3
f 24/1/3 57/1/3 56/1/3
f 11/1/3 44/1/3 43/1/3
f 25/1/3 58/1/3 57/1/3
f 12/1/3 45/1/3 44/1/3
f 75/1/4 106/1/4 74/1/4
f 54/1/5 85/1/5 53/1/5
f 41/1/6 72/1/6 40/1/6
f 55/1/7 86/1/7 54/1/7
f 42/1/8 73/1/8 41/1/8
f 56/1/9 87/1/9 55/1/9
f 43/1/10 74/1/10 42/1/10
f 57/1/11 88/1/11 56/1/11
f 44/1/12 75/1/12 43/1/12
f 58/1/13 89/1/13 57/1/13
f 45/1/14 76/1/14 44/1/14
f 59/1/15 90/1/15 58/1/15
f 46/1/16 77/1/16 45/1/16
f 60/1/17 91/1/17 59/1/17
f 47/1/18 78/1/18 46/1/18
f 33/1/19 66/1/19 34/1/19
f 61/1/20 92/1/20 60/1/20
f 48/1/21 79/1/21 47/1/21
f 35/1/22 65/1/22 33/1/22
f 62/1/23 93/1/23 61/1/23
f 49/1/24 80/1/24 48/1/24
f 36/1/25 67/1/25 35/1/25
f 63/1/26 94/1/26 62/1/26
f 50/1/27 81/1/27 49/1/27
f 37/1/28 68/1/28 36/1/28
f 64/1/29 95/1/29 63/1/29
f 51/1/30 82/1/30 50/1/30
f 38/1/31 69/1/31 37/1/31
f 34/1/32 96/1/32 64/1/32
f 52/1/33 83/1/33 51/1/33
f 39/1/34 70/1/34 38/1/34
f 53/1/35 84/1/35 52/1/35
f 114/1/36 145/1/36 113/1/36
f 89/1/37 120/1/37 88/1/37
f 75/1/38 108/1/38 107/1/38
f 90/1/39 121/1/39 89/1/39
f 76/1/40 109/1/40 108/1/40
f 91/1/41 122/1/41 90/1/41
f 78/1/42 109/1/42 77/1/42
f 92/1/43 123/1/43 91/1/43
f 79/1/44 110/1/44 78/1/44
f 66/1/45 97/1/45 98/1/45
f 93/1/46 124/1/46 92/1/46
f 80/1/47 111/1/47 79/1/47
f 67/1/48 97/1/48 65/1/48
f 93/1/49 126/1/49 125/1/49
f 81/1/50 112/1/50 80/1/50
f 67/1/51 100/1/51 99/1/51
f 94/1/52 127/1/52 126/1/52
f 81/1/53 114/1/53 113/1/53
f 68/1/54 101/1/54 100/1/54
f 95/1/55 128/1/55 127/1/55
f 83/1/56 114/1/56 82/1/56
f 69/1/57 102/1/57 101/1/57
f 96/1/58 98/1/58 128/1/58
f 84/1/59 115/1/59 83/1/59
f 70/1/60 103/1/60 102/1/60
f 85/1/61 116/1/61 84/1/61
f 71/1/62 104/1/62 103/1/62
f 86/1/63 117/1/63 85/1/63
f 73/1/64 104/1/64 72/1/64
f 87/1/65 118/1/65 86/1/65
f 73/1/66 106/1/66 105/1/66
f 88/1/67 119/1/67 87/1/67
f 145/1/3 153/1/3 130/1/3
f 101/1/68 132/1/68 100/1/68
f 128/1/69 159/1/69 127/1/69
f 115/1/70 146/1/70 114/1/70
f 102/1/71 133/1/71 101/1/71
f 98/1/32 160/1/32 128/1/32
f 116/1/33 147/1/33 115/1/33
f 103/1/34 134/1/34 102/1/34
f 117/1/72 148/1/72 116/1/72
f 104/1/2 135/1/2 103/1/2
f 118/1/5 149/1/5 117/1/5
f 105/1/6 136/1/6 104/1/6
f 119/1/7 150/1/7 118/1/7
f 106/1/8 137/1/8 105/1/8
f 120/1/73 151/1/73 119/1/73
f 107/1/10 138/1/10 106/1/10
f 121/1/11 152/1/11 120/1/11
f 108/1/74 139/1/74 107/1/74
f 122/1/75 153/1/75 121/1/75
f 109/1/14 140/1/14 108/1/14
f 123/1/15 154/1/15 122/1/15
f 110/1/16 141/1/16 109/1/16
f 124/1/76 155/1/76 123/1/76
f 111/1/18 142/1/18 110/1/18
f 97/1/19 130/1/19 98/1/19
f 125/1/77 156/1/77 124/1/77
f 112/1/78 143/1/78 111/1/78
f 99/1/79 129/1/79 97/1/79
f 126/1/23 157/1/23 125/1/23
f 113/1/80 144/1/80 112/1/80
f 100/1/25 131/1/25 99/1/25
f 127/1/26 158/1/26 126/1/26
f 3/1/1 2/1/1 1/1/1
f 1/1/1 32/1/1 31/1/1
f 31/1/1 30/1/1 29/1/1
f 29/1/81 28/1/81 27/1/81
f 27/1/1 26/1/1 25/1/1
f 25/1/1 24/1/1 23/1/1
f 23/1/81 22/1/81 21/1/81
f 21/1/1 20/1/1 19/1/1
f 19/1/82 18/1/82 17/1/82
f 17/1/1 16/1/1 15/1/1
f 15/1/1 14/1/1 13/1/1
f 13/1/83 12/1/83 11/1/83
f 11/1/1 10/1/1 9/1/1
f 9/1/1 8/1/1 7/1/1
f 7/1/83 6/1/83 5/1/83
f 5/1/1 4/1/1 3/1/1
f 3/1/1 1/1/1 31/1/1
f 31/1/84 29/1/84 27/1/84
f 27/1/82 25/1/82 23/1/82
f 23/1/1 21/1/1 19/1/1
f 19/1/1 17/1/1 15/1/1
f 15/1/1 13/1/1 11/1/1
f 11/1/84 9/1/84 7/1/84
f 7/1/82 5/1/82 3/1/82
f 3/1/1 31/1/1 27/1/1
f 27/1/1 23/1/1 19/1/1
f 19/1/1 15/1/1 11/1/1
f 11/1/1 7/1/1 3/1/1
f 3/1/1 27/1/1 19/1/1
f 40/1/85 72/1/85 71/1/85
f 26/1/3 27/1/3 59/1/3
f 13/1/3 14/1/3 46/1/3
f 27/1/3 28/1/3 60/1/3
f 14/1/3 15/1/3 47/1/3
f 1/1/3 2/1/3 33/1/3
f 28/1/3 29/1/3 61/1/3
f 15/1/3 16/1/3 48/1/3
f 2/1/3 3/1/3 35/1/3
f 29/1/3 30/1/3 62/1/3
f 16/1/3 17/1/3 49/1/3
f 3/1/3 4/1/3 36/1/3
f 30/1/3 31/1/3 63/1/3
f 17/1/3 18/1/3 50/1/3
f 4/1/3 5/1/3 37/1/3
f 31/1/3 32/1/3 64/1/3
f 18/1/3 19/1/3 51/1/3
f 5/1/3 6/1/3 38/1/3
f 32/1/3 1/1/3 34/1/3
f 19/1/3 20/1/3 52/1/3
f 6/1/3 7/1/3 39/1/3
f 20/1/3 21/1/3 53/1/3
f 7/1/3 8/1/3 40/1/3
f 21/1/3 22/1/3 54/1/3
f 8/1/3 9/1/3 41/1/3
f 22/1/3 23/1/3 55/1/3
f 9/1/3 10/1/3 42/1/3
f 23/1/3 24/1/3 56/1/3
f 10/1/3 11/1/3 43/1/3
f 24/1/3 25/1/3 57/1/3
f 11/1/3 12/1/3 44/1/3
f 25/1/3 26/1/3 58/1/3
f 12/1/3 13/1/3 45/1/3
f 75/1/4 107/1/4 106/1/4
f 54/1/5 86/1/5 85/1/5
f 41/1/86 73/1/86 72/1/86
f 55/1/87 87/1/87 86/1/87
f 42/1/88 74/1/88 73/1/88
f 56/1/89 88/1/89 87/1/89
f 43/1/90 75/1/90 74/1/90
f 57/1/11 89/1/11 88/1/11
f 44/1/12 76/1/12 75/1/12
f 58/1/13 90/1/13 89/1/13
f 45/1/14 77/1/14 76/1/14
f 59/1/91 91/1/91 90/1/91
f 46/1/92 78/1/92 77/1/92
f 60/1/76 92/1/76 91/1/76
f 47/1/18 79/1/18 78/1/18
f 33/1/19 65/1/19 66/1/19
f 61/1/77 93/1/77 92/1/77
f 48/1/21 80/1/21 79/1/21
f 35/1/22 67/1/22 65/1/22
f 62/1/93 94/1/93 93/1/93
f 49/1/24 81/1/24 80/1/24
f 36/1/25 68/1/25 67/1/25
f 63/1/26 95/1/26 94/1/26
f 50/1/27 82/1/27 81/1/27
f 37/1/68 69/1/68 68/1/68
f 64/1/29 96/1/29 95/1/29
f 51/1/30 83/1/30 82/1/30
f 38/1/94 70/1/94 69/1/94
f 34/1/32 66/1/32 96/1/32
f 52/1/33 84/1/33 83/1/33
f 39/1/34 71/1/34 70/1/34
f 53/1/72 85/1/72 84/1/72
f 114/1/36 146/1/36 145/1/36
f 89/1/37 121/1/37 120/1/37
f 75/1/38 76/1/38 108/1/38
f 90/1/39 122/1/39 121/1/39
f 76/1/95 77/1/95 109/1/95
f 91/1/41 123/1/41 122/1/41
f 78/1/42 110/1/42 109/1/42
f 92/1/43 124/1/43 123/1/43
f 79/1/44 111/1/44 110/1/44
f 66/1/45 65/1/45 97/1/45
f 93/1/96 125/1/96 124/1/96
f 80/1/47 112/1/47 111/1/47
f 67/1/97 99/1/97 97/1/97
f 93/1/49 94/1/49 126/1/49
f 81/1/98 113/1/98 112/1/98
f 67/1/99 68/1/99 100/1/99
f 94/1/52 95/1/52 127/1/52
f 81/1/100 82/1/100 114/1/100
f 68/1/54 69/1/54 101/1/54
f 95/1/101 96/1/101 128/1/101
f 83/1/56 115/1/56 114/1/56
f 69/1/102 70/1/102 102/1/102
f 96/1/103 66/1/103 98/1/103
f 84/1/59 116/1/59 115/1/59
f 70/1/60 71/1/60 103/1/60
f 85/1/104 117/1/104 116/1/104
f 71/1/62 72/1/62 104/1/62
f 86/1/105 118/1/105 117/1/105
f 73/1/64 105/1/64 104/1/64
f 87/1/65 119/1/65 118/1/65
f 73/1/66 74/1/66 106/1/66
f 88/1/67 120/1/67 119/1/67
f 130/1/106 129/1/106 131/1/106
f 131/1/3 132/1/3 133/1/3
f 133/1/107 134/1/107 135/1/107
f 135/1/108 136/1/108 137/1/108
f 137/1/107 138/1/107 139/1/107
f 139/1/108 140/1/108 141/1/108
f 141/1/3 142/1/3 143/1/3
f 143/1/106 144/1/106 145/1/106
f 145/1/109 146/1/109 147/1/109
f 147/1/3 148/1/3 149/1/3
f 149/1/107 150/1/107 151/1/107
f 151/1/108 152/1/108 153/1/108
f 153/1/107 154/1/107 155/1/107
f 155/1/108 156/1/108 157/1/108
f 157/1/3 158/1/3 159/1/3
f 159/1/109 160/1/109 130/1/109
f 130/1/3 131/1/3 133/1/3
f 133/1/3 135/1/3 137/1/3
f 137/1/3 139/1/3 141/1/3
f 141/1/3 143/1/3 145/1/3
f 145/1/3 147/1/3 149/1/3
f 149/1/3 151/1/3 153/1/3
f 153/1/3 155/1/3 157/1/3
f 157/1/3 159/1/3 130/1/3
f 130/1/3 133/1/3 137/1/3
f 137/1/3 141/1/3 145/1/3
f 145/1/3 149/1/3 153/1/3
f 153/1/3 157/1/3 130/1/3
f 130/1/3 137/1/3 145/1/3
f 101/1/68 133/1/68 132/1/68
f 128/1/69 160/1/69 159/1/69
f 115/1/70 147/1/70 146/1/70
f 102/1/71 134/1/71 133/1/71
f 98/1/32 130/1/32 160/1/32
f 116/1/33 148/1/33 147/1/33
f 103/1/34 135/1/34 134/1/34
f 117/1/72 149/1/72 148/1/72
f 104/1/85 136/1/85 135/1/85
f 118/1/5 150/1/5 149/1/5
f 105/1/86 137/1/86 136/1/86
f 119/1/7 151/1/7 150/1/7
f 106/1/88 138/1/88 137/1/88
f 120/1/89 152/1/89 151/1/89
f 107/1/90 139/1/90 138/1/90
f 121/1/110 153/1/110 152/1/110
f 108/1/12 140/1/12 139/1/12
f 122/1/13 154/1/13 153/1/13
f 109/1/14 141/1/14 140/1/14
f 123/1/111 155/1/111 154/1/111
f 110/1/16 142/1/16 141/1/16
f 124/1/76 156/1/76 155/1/76
f 111/1/18 143/1/18 142/1/18
f 97/1/19 129/1/19 130/1/19
f 125/1/77 157/1/77 156/1/77
f 112/1/78 144/1/78 143/1/78
f 99/1/79 131/1/79 129/1/79
f 126/1/23 158/1/23 157/1/23
f 113/1/80 145/1/80 144/1/80
f 100/1/25 132/1/25 131/1/25
f 127/1/26 159/1/26 158/1/26
