# Blender 4.1.1
# www.blender.org
mtllib Scene.009.mtl
o LaneDivider_19
v 8.181822 1000.000000 -26.000002
v 10.000006 1000.000000 -26.000002
v -9.999998 1000.000000 -26.000002
v 6.363641 1000.000000 -26.000002
v 4.545459 1000.000000 -26.000002
v 2.727276 1000.000000 -26.000002
v 0.909094 1000.000000 -26.000002
v -0.909088 1000.000000 -26.000002
v -2.727270 1000.000000 -26.000002
v -4.545453 1000.000000 -26.000002
v -6.363635 1000.000000 -26.000002
v -8.181818 1000.000000 -26.000002
v -8.181818 0.000000 -26.000002
v -9.999998 0.000000 -26.000002
v 10.000006 0.000000 -26.000002
v -6.363635 0.000000 -26.000002
v -4.545453 0.000000 -26.000002
v -2.727270 0.000000 -26.000002
v -0.909088 0.000000 -26.000002
v 0.909094 0.000000 -26.000002
v 2.727276 0.000000 -26.000002
v 4.545459 0.000000 -26.000002
v 6.363641 0.000000 -26.000002
v 8.181822 0.000000 -26.000002
v 10.000006 100.000000 -26.000002
v 8.181822 100.000000 -26.000002
v 10.000006 200.000000 -26.000002
v 6.363641 100.000000 -26.000002
v 8.181822 200.000000 -26.000002
v 10.000006 300.000000 -26.000002
v 4.545459 100.000000 -26.000002
v 6.363641 200.000000 -26.000002
v 8.181822 300.000000 -26.000002
v 10.000006 400.000000 -26.000002
v 2.727276 100.000000 -26.000002
v 4.545459 200.000000 -26.000002
v 6.363641 300.000000 -26.000002
v 8.181822 400.000000 -26.000002
v 10.000006 500.000000 -26.000002
v 0.909094 100.000000 -26.000002
v 2.727276 200.000000 -26.000002
v 4.545459 300.000000 -26.000002
v 6.363641 400.000000 -26.000002
v 8.181822 500.000000 -26.000002
v 10.000006 600.000000 -26.000002
v -0.909088 100.000000 -26.000002
v 0.909094 200.000000 -26.000002
v 2.727276 300.000000 -26.000002
v 4.545459 400.000000 -26.000002
v 6.363641 500.000000 -26.000002
v 8.181822 600.000000 -26.000002
v 10.000006 700.000000 -26.000002
v -2.727270 100.000000 -26.000002
v -0.909088 200.000000 -26.000002
v 0.909094 300.000000 -26.000002
v 2.727276 400.000000 -26.000002
v 4.545459 500.000000 -26.000002
v 6.363641 600.000000 -26.000002
v 8.181822 700.000000 -26.000002
v 10.000006 800.000000 -26.000002
v 8.181822 800.000000 -26.000002
v 10.000006 900.000000 -26.000002
v 6.363641 700.000000 -26.000002
v 4.545459 600.000000 -26.000002
v 2.727276 500.000000 -26.000002
v 0.909094 400.000000 -26.000002
v 8.181822 900.000000 -26.000002
v 6.363641 800.000000 -26.000002
v 6.363641 900.000000 -26.000002
v 4.545459 700.000000 -26.000002
v 2.727276 600.000000 -26.000002
v 4.545459 900.000000 -26.000002
v 4.545459 800.000000 -26.000002
v 2.727276 900.000000 -26.000002
v 2.727276 700.000000 -26.000002
v 2.727276 800.000000 -26.000002
v 0.909094 500.000000 -26.000002
v 0.909094 900.000000 -26.000002
v 0.909094 600.000000 -26.000002
v 0.909094 700.000000 -26.000002
v 0.909094 800.000000 -26.000002
v -0.909088 900.000000 -26.000002
v -0.909088 800.000000 -26.000002
v -0.909088 700.000000 -26.000002
v -0.909088 600.000000 -26.000002
v -0.909088 500.000000 -26.000002
v -2.727270 900.000000 -26.000002
v -2.727270 800.000000 -26.000002
v -2.727270 700.000000 -26.000002
v -2.727270 600.000000 -26.000002
v -4.545453 900.000000 -26.000002
v -4.545453 800.000000 -26.000002
v -4.545453 700.000000 -26.000002
v -6.363635 900.000000 -26.000002
v -6.363635 800.000000 -26.000002
v -8.181818 900.000000 -26.000002
v -9.999998 900.000000 -26.000002
v -9.999998 800.000000 -26.000002
v -8.181818 800.000000 -26.000002
v -9.999998 700.000000 -26.000002
v -8.181818 700.000000 -26.000002
v -9.999998 600.000000 -26.000002
v -6.363635 700.000000 -26.000002
v -8.181818 600.000000 -26.000002
v -9.999998 500.000000 -26.000002
v -6.363635 600.000000 -26.000002
v -8.181818 500.000000 -26.000002
v -9.999998 400.000000 -26.000002
v -4.545453 600.000000 -26.000002
v -8.181818 400.000000 -26.000002
v -9.999998 300.000000 -26.000002
v -6.363635 500.000000 -26.000002
v -4.545453 500.000000 -26.000002
v -8.181818 300.000000 -26.000002
v -9.999998 200.000000 -26.000002
v -6.363635 400.000000 -26.000002
v -2.727270 500.000000 -26.000002
v -8.181818 200.000000 -26.000002
v -9.999998 100.000000 -26.000002
v -6.363635 300.000000 -26.000002
v -4.545453 400.000000 -26.000002
v -2.727270 400.000000 -26.000002
v -8.181818 100.000000 -26.000002
v -6.363635 200.000000 -26.000002
v -4.545453 300.000000 -26.000002
v -6.363635 100.000000 -26.000002
v -0.909088 400.000000 -26.000002
v -4.545453 200.000000 -26.000002
v -4.545453 100.000000 -26.000002
v -2.727270 300.000000 -26.000002
v -0.909088 300.000000 -26.000002
v -2.727270 200.000000 -26.000002
vn -0.0000 -0.0000 -1.0000
vn -0.0000 0.0001 -1.0000
vn -0.0000 -0.0001 -1.0000
vt 0.000000 0.000000
vt 0.090908 0.000000
vt 0.000001 0.100000
vt 0.090909 0.100000
vt 0.181816 0.000000
vt 0.000002 0.200000
vt 0.181817 0.100000
vt 0.272724 0.000000
vt 0.090910 0.200000
vt 0.000004 0.300000
vt 0.272725 0.100000
vt 0.363632 0.000000
vt 0.181818 0.200000
vt 0.090912 0.300000
vt 0.000005 0.400000
vt 0.363633 0.100000
vt 0.454540 0.000000
vt 0.272726 0.200000
vt 0.181820 0.300000
vt 0.090913 0.400000
vt 0.000006 0.500000
vt 0.454541 0.100000
vt 0.545448 0.000000
vt 0.363634 0.200000
vt 0.272728 0.300000
vt 0.181821 0.400000
vt 0.090914 0.500000
vt 0.000007 0.600000
vt 0.545449 0.100000
vt 0.636356 0.000000
vt 0.454542 0.200000
vt 0.363636 0.300000
vt 0.272729 0.400000
vt 0.181822 0.500000
vt 0.090915 0.600000
vt 0.000008 0.700000
vt 0.636357 0.100000
vt 0.727264 0.000000
vt 0.545450 0.200000
vt 0.454544 0.300000
vt 0.363637 0.400000
vt 0.272730 0.500000
vt 0.181823 0.600000
vt 0.090916 0.700000
vt 0.000010 0.800000
vt 0.090918 0.800000
vt 0.000011 0.900000
vt 0.181824 0.700000
vt 0.272731 0.600000
vt 0.363638 0.500000
vt 0.454545 0.400000
vt 0.090919 0.900000
vt 0.000012 1.000000
vt 0.090920 1.000000
vt 0.181826 0.800000
vt 0.181827 0.900000
vt 0.181828 1.000000
vt 0.272732 0.700000
vt 0.363639 0.600000
vt 0.272735 0.900000
vt 0.272736 1.000000
vt 0.272734 0.800000
vt 0.363643 0.900000
vt 0.363644 1.000000
vt 0.363640 0.700000
vt 0.363642 0.800000
vt 0.454546 0.500000
vt 0.454551 0.900000
vt 0.454552 1.000000
vt 0.454547 0.600000
vt 0.454548 0.700000
vt 0.454550 0.800000
vt 0.545459 0.900000
vt 0.545460 1.000000
vt 0.545458 0.800000
vt 0.545456 0.700000
vt 0.545455 0.600000
vt 0.545454 0.500000
vt 0.636367 0.900000
vt 0.636368 1.000000
vt 0.636366 0.800000
vt 0.636364 0.700000
vt 0.636363 0.600000
vt 0.727275 0.900000
vt 0.727276 1.000000
vt 0.727274 0.800000
vt 0.727272 0.700000
vt 0.818183 0.900000
vt 0.818184 1.000000
vt 0.818182 0.800000
vt 0.909091 0.900000
vt 0.909092 1.000000
vt 0.999999 0.900000
vt 1.000000 1.000000
vt 0.999998 0.800000
vt 0.909090 0.800000
vt 0.999996 0.700000
vt 0.909088 0.700000
vt 0.999995 0.600000
vt 0.818180 0.700000
vt 0.909087 0.600000
vt 0.999994 0.500000
vt 0.818179 0.600000
vt 0.909086 0.500000
vt 0.999993 0.400000
vt 0.727271 0.600000
vt 0.909085 0.400000
vt 0.999992 0.300000
vt 0.818178 0.500000
vt 0.727270 0.500000
vt 0.909084 0.300000
vt 0.999990 0.200000
vt 0.818177 0.400000
vt 0.636362 0.500000
vt 0.909083 0.200000
vt 0.999989 0.100000
vt 0.818176 0.300000
vt 0.727269 0.400000
vt 0.636361 0.400000
vt 0.909081 0.100000
vt 0.999988 0.000000
vt 0.909080 0.000000
vt 0.818174 0.200000
vt 0.727268 0.300000
vt 0.818173 0.100000
vt 0.818172 0.000000
vt 0.545453 0.400000
vt 0.727266 0.200000
vt 0.727265 0.100000
vt 0.636360 0.300000
vt 0.545452 0.300000
vt 0.636358 0.200000
s 1
usemtl Modular_Track_Lane_Divider
f 1/1/1 3/1/1 2/1/1
f 4/1/1 3/1/1 1/1/1
f 5/1/1 3/1/1 4/1/1
f 6/1/2 3/1/1 5/1/1
f 7/1/1 3/1/1 6/1/2
f 8/1/1 3/1/1 7/1/1
f 9/1/1 3/1/1 8/1/1
f 10/1/1 3/1/1 9/1/1
f 11/1/1 3/1/1 10/1/1
f 12/1/1 3/1/1 11/1/1
f 13/1/3 15/1/1 14/1/1
f 16/1/3 15/1/1 13/1/3
f 17/1/3 15/1/1 16/1/3
f 18/1/3 15/1/1 17/1/3
f 19/1/3 15/1/1 18/1/3
f 20/1/3 15/1/1 19/1/3
f 21/1/3 15/1/1 20/1/3
f 22/1/1 15/1/1 21/1/3
f 23/1/3 15/1/1 22/1/1
f 24/1/3 15/1/1 23/1/3
f 24/2/3 25/3/1 15/1/1
f 24/2/3 26/4/1 25/3/1
f 23/5/3 26/4/1 24/2/3
f 26/4/1 27/6/1 25/3/1
f 23/5/3 28/7/1 26/4/1
f 22/8/1 28/7/1 23/5/3
f 26/4/1 29/9/1 27/6/1
f 28/7/1 29/9/1 26/4/1
f 29/9/1 30/10/1 27/6/1
f 22/8/1 31/11/1 28/7/1
f 21/12/3 31/11/1 22/8/1
f 28/7/1 32/13/1 29/9/1
f 31/11/1 32/13/1 28/7/1
f 29/9/1 33/14/1 30/10/1
f 32/13/1 33/14/1 29/9/1
f 33/14/1 34/15/1 30/10/1
f 21/12/3 35/16/1 31/11/1
f 20/17/3 35/16/1 21/12/3
f 31/11/1 36/18/1 32/13/1
f 35/16/1 36/18/1 31/11/1
f 32/13/1 37/19/1 33/14/1
f 36/18/1 37/19/1 32/13/1
f 33/14/1 38/20/1 34/15/1
f 37/19/1 38/20/1 33/14/1
f 38/20/1 39/21/1 34/15/1
f 20/17/3 40/22/1 35/16/1
f 19/23/3 40/22/1 20/17/3
f 35/16/1 41/24/1 36/18/1
f 40/22/1 41/24/1 35/16/1
f 36/18/1 42/25/1 37/19/1
f 41/24/1 42/25/1 36/18/1
f 37/19/1 43/26/1 38/20/1
f 42/25/1 43/26/1 37/19/1
f 38/20/1 44/27/1 39/21/1
f 43/26/1 44/27/1 38/20/1
f 44/27/1 45/28/1 39/21/1
f 19/23/3 46/29/1 40/22/1
f 18/30/3 46/29/1 19/23/3
f 40/22/1 47/31/1 41/24/1
f 46/29/1 47/31/1 40/22/1
f 41/24/1 48/32/1 42/25/1
f 47/31/1 48/32/1 41/24/1
f 42/25/1 49/33/1 43/26/1
f 48/32/1 49/33/1 42/25/1
f 43/26/1 50/34/1 44/27/1
f 49/33/1 50/34/1 43/26/1
f 44/27/1 51/35/1 45/28/1
f 50/34/1 51/35/1 44/27/1
f 51/35/1 52/36/1 45/28/1
f 18/30/3 53/37/1 46/29/1
f 17/38/3 53/37/1 18/30/3
f 46/29/1 54/39/1 47/31/1
f 53/37/1 54/39/1 46/29/1
f 47/31/1 55/40/1 48/32/1
f 54/39/1 55/40/1 47/31/1
f 48/32/1 56/41/1 49/33/1
f 55/40/1 56/41/1 48/32/1
f 49/33/1 57/42/1 50/34/1
f 56/41/1 57/42/1 49/33/1
f 50/34/1 58/43/1 51/35/1
f 57/42/1 58/43/1 50/34/1
f 51/35/1 59/44/1 52/36/1
f 58/43/1 59/44/1 51/35/1
f 59/44/1 60/45/1 52/36/1
f 59/44/1 61/46/1 60/45/1
f 61/46/1 62/47/1 60/45/1
f 58/43/1 63/48/1 59/44/1
f 63/48/1 61/46/1 59/44/1
f 57/42/1 64/49/1 58/43/1
f 64/49/1 63/48/1 58/43/1
f 56/41/1 65/50/1 57/42/1
f 65/50/1 64/49/1 57/42/1
f 55/40/1 66/51/1 56/41/1
f 66/51/1 65/50/1 56/41/1
f 61/46/1 67/52/1 62/47/1
f 67/52/1 2/53/1 62/47/1
f 67/52/1 1/54/1 2/53/1
f 63/48/1 68/55/1 61/46/1
f 68/55/1 67/52/1 61/46/1
f 69/56/1 1/54/1 67/52/1
f 68/55/1 69/56/1 67/52/1
f 69/56/1 4/57/1 1/54/1
f 64/49/1 70/58/1 63/48/1
f 70/58/1 68/55/1 63/48/1
f 65/50/1 71/59/1 64/49/1
f 71/59/1 70/58/1 64/49/1
f 72/60/1 4/57/1 69/56/1
f 72/60/1 5/61/1 4/57/1
f 73/62/1 69/56/1 68/55/1
f 70/58/1 73/62/1 68/55/1
f 73/62/1 72/60/1 69/56/1
f 74/63/1 5/61/1 72/60/1
f 74/63/1 6/64/2 5/61/1
f 75/65/1 73/62/1 70/58/1
f 71/59/1 75/65/1 70/58/1
f 76/66/1 72/60/1 73/62/1
f 76/66/1 74/63/1 72/60/1
f 75/65/1 76/66/1 73/62/1
f 77/67/1 71/59/1 65/50/1
f 66/51/1 77/67/1 65/50/1
f 78/68/1 6/64/2 74/63/1
f 78/68/1 7/69/1 6/64/2
f 79/70/1 75/65/1 71/59/1
f 77/67/1 79/70/1 71/59/1
f 80/71/1 76/66/1 75/65/1
f 79/70/1 80/71/1 75/65/1
f 81/72/1 74/63/1 76/66/1
f 81/72/1 78/68/1 74/63/1
f 80/71/1 81/72/1 76/66/1
f 82/73/1 7/69/1 78/68/1
f 82/73/1 8/74/1 7/69/1
f 83/75/1 78/68/1 81/72/1
f 83/75/1 82/73/1 78/68/1
f 84/76/1 81/72/1 80/71/1
f 84/76/1 83/75/1 81/72/1
f 85/77/1 80/71/1 79/70/1
f 85/77/1 84/76/1 80/71/1
f 86/78/1 79/70/1 77/67/1
f 86/78/1 85/77/1 79/70/1
f 87/79/1 8/74/1 82/73/1
f 87/79/1 9/80/1 8/74/1
f 88/81/1 82/73/1 83/75/1
f 88/81/1 87/79/1 82/73/1
f 89/82/1 83/75/1 84/76/1
f 89/82/1 88/81/1 83/75/1
f 90/83/1 84/76/1 85/77/1
f 90/83/1 89/82/1 84/76/1
f 91/84/1 9/80/1 87/79/1
f 91/84/1 10/85/1 9/80/1
f 92/86/1 87/79/1 88/81/1
f 92/86/1 91/84/1 87/79/1
f 93/87/1 88/81/1 89/82/1
f 93/87/1 92/86/1 88/81/1
f 94/88/1 10/85/1 91/84/1
f 94/88/1 11/89/1 10/85/1
f 95/90/1 91/84/1 92/86/1
f 95/90/1 94/88/1 91/84/1
f 96/91/1 11/89/1 94/88/1
f 96/91/1 12/92/1 11/89/1
f 97/93/1 12/92/1 96/91/1
f 97/93/1 3/94/1 12/92/1
f 98/95/1 97/93/1 96/91/1
f 99/96/1 96/91/1 94/88/1
f 98/95/1 96/91/1 99/96/1
f 99/96/1 94/88/1 95/90/1
f 100/97/1 98/95/1 99/96/1
f 100/97/1 99/96/1 101/98/1
f 101/98/1 99/96/1 95/90/1
f 102/99/1 100/97/1 101/98/1
f 103/100/1 95/90/1 92/86/1
f 101/98/1 95/90/1 103/100/1
f 103/100/1 92/86/1 93/87/1
f 102/99/1 101/98/1 104/101/1
f 104/101/1 101/98/1 103/100/1
f 105/102/1 102/99/1 104/101/1
f 106/103/1 103/100/1 93/87/1
f 104/101/1 103/100/1 106/103/1
f 105/102/1 104/101/1 107/104/1
f 107/104/1 104/101/1 106/103/1
f 108/105/1 105/102/1 107/104/1
f 106/103/1 93/87/1 109/106/1
f 109/106/1 93/87/1 89/82/1
f 109/106/1 89/82/1 90/83/1
f 108/105/1 107/104/1 110/107/1
f 111/108/1 108/105/1 110/107/1
f 107/104/1 106/103/1 112/109/1
f 112/109/1 106/103/1 109/106/1
f 110/107/1 107/104/1 112/109/1
f 113/110/1 109/106/1 90/83/1
f 112/109/1 109/106/1 113/110/1
f 111/108/1 110/107/1 114/111/1
f 115/112/1 111/108/1 114/111/1
f 110/107/1 112/109/1 116/113/1
f 116/113/1 112/109/1 113/110/1
f 114/111/1 110/107/1 116/113/1
f 113/110/1 90/83/1 117/114/1
f 117/114/1 90/83/1 85/77/1
f 117/114/1 85/77/1 86/78/1
f 115/112/1 114/111/1 118/115/1
f 119/116/1 115/112/1 118/115/1
f 114/111/1 116/113/1 120/117/1
f 118/115/1 114/111/1 120/117/1
f 116/113/1 113/110/1 121/118/1
f 121/118/1 113/110/1 117/114/1
f 120/117/1 116/113/1 121/118/1
f 122/119/1 117/114/1 86/78/1
f 121/118/1 117/114/1 122/119/1
f 119/116/1 118/115/1 123/120/1
f 14/121/1 119/116/1 123/120/1
f 14/121/1 123/120/1 13/122/3
f 118/115/1 120/117/1 124/123/1
f 123/120/1 118/115/1 124/123/1
f 120/117/1 121/118/1 125/124/1
f 125/124/1 121/118/1 122/119/1
f 124/123/1 120/117/1 125/124/1
f 13/122/3 123/120/1 126/125/1
f 123/120/1 124/123/1 126/125/1
f 13/122/3 126/125/1 16/126/3
f 122/119/1 86/78/1 127/127/1
f 127/127/1 86/78/1 77/67/1
f 127/127/1 77/67/1 66/51/1
f 124/123/1 125/124/1 128/128/1
f 126/125/1 124/123/1 128/128/1
f 16/126/3 126/125/1 129/129/1
f 126/125/1 128/128/1 129/129/1
f 16/126/3 129/129/1 17/38/3
f 17/38/3 129/129/1 53/37/1
f 125/124/1 122/119/1 130/130/1
f 130/130/1 122/119/1 127/127/1
f 128/128/1 125/124/1 130/130/1
f 131/131/1 127/127/1 66/51/1
f 130/130/1 127/127/1 131/131/1
f 131/131/1 66/51/1 55/40/1
f 54/39/1 131/131/1 55/40/1
f 129/129/1 132/132/1 53/37/1
f 129/129/1 128/128/1 132/132/1
f 128/128/1 130/130/1 132/132/1
f 53/37/1 132/132/1 54/39/1
f 132/132/1 131/131/1 54/39/1
f 132/132/1 130/130/1 131/131/1
