# Blender 4.1.1
# www.blender.org
mtllib Circle.039.mtl
o Pipe.160
v 3740.008057 171.752472 130.917755
v 3737.396484 171.752472 131.175003
v 3734.884766 171.752472 131.936844
v 3732.570068 171.752472 133.174026
v 3730.541260 171.752472 134.839005
v 3728.876465 171.752472 136.867767
v 3727.639160 171.752472 139.182358
v 3726.877441 171.752472 141.693863
v 3726.620117 171.752472 144.305725
v 3726.877441 171.752472 146.917587
v 3727.639160 171.752472 149.429077
v 3728.876465 171.752472 151.743683
v 3730.541260 171.752472 153.772446
v 3732.570068 171.752472 155.437424
v 3734.884766 171.752472 156.674591
v 3737.396484 171.752472 157.436447
v 3740.008057 171.752472 157.693680
v 3742.619873 171.752472 157.436447
v 3745.131592 171.752472 156.674591
v 3747.446289 171.752472 155.437424
v 3749.475098 171.752472 153.772446
v 3751.139893 171.752472 151.743683
v 3752.377197 171.752472 149.429077
v 3753.138916 171.752472 146.917587
v 3753.396240 171.752472 144.305725
v 3753.138916 171.752472 141.693863
v 3752.377197 171.752472 139.182358
v 3751.139893 171.752472 136.867767
v 3749.475098 171.752472 134.839005
v 3747.446289 171.752472 133.174026
v 3745.131592 171.752472 131.936844
v 3742.619873 171.752472 131.175003
v 3737.396484 171.752472 131.175003
v 3740.008057 171.752472 130.917755
v 3734.884766 171.752472 131.936844
v 3732.570068 171.752472 133.174026
v 3730.541260 171.752472 134.839005
v 3728.876465 171.752472 136.867767
v 3727.639160 171.752472 139.182358
v 3726.877441 171.752472 141.693863
v 3726.620117 171.752472 144.305725
v 3726.877441 171.752472 146.917587
v 3727.639160 171.752472 149.429077
v 3728.876465 171.752472 151.743683
v 3730.541260 171.752472 153.772446
v 3732.570068 171.752472 155.437424
v 3734.884766 171.752472 156.674591
v 3737.396484 171.752472 157.436447
v 3740.008057 171.752472 157.693680
v 3742.619873 171.752472 157.436447
v 3745.131592 171.752472 156.674591
v 3747.446289 171.752472 155.437424
v 3749.475098 171.752472 153.772446
v 3751.139893 171.752472 151.743683
v 3752.377197 171.752472 149.429077
v 3753.138916 171.752472 146.917587
v 3753.396240 171.752472 144.305725
v 3753.138916 171.752472 141.693863
v 3752.377197 171.752472 139.182358
v 3751.139893 171.752472 136.867767
v 3749.475098 171.752472 134.839005
v 3747.446289 171.752472 133.174026
v 3745.131592 171.752472 131.936844
v 3742.619873 171.752472 131.175003
v 3737.396484 210.716736 131.175003
v 3740.008057 210.716736 130.917755
v 3734.884766 210.716736 131.936844
v 3732.570068 210.716736 133.174026
v 3730.541260 210.716736 134.839005
v 3728.876465 210.716736 136.867767
v 3727.639160 210.716736 139.182358
v 3726.877441 210.716736 141.693863
v 3726.620117 210.716736 144.305725
v 3726.877441 210.716736 146.917587
v 3727.639160 210.716736 149.429077
v 3728.876465 210.716736 151.743683
v 3730.541260 210.716736 153.772446
v 3732.570068 210.716736 155.437424
v 3734.884766 210.716736 156.674591
v 3737.396484 210.716736 157.436447
v 3740.008057 210.716736 157.693680
v 3742.619873 210.716736 157.436447
v 3745.131592 210.716736 156.674591
v 3747.446289 210.716736 155.437424
v 3749.475098 210.716736 153.772446
v 3751.139893 210.716736 151.743683
v 3752.377197 210.716736 149.429077
v 3753.138916 210.716736 146.917587
v 3753.396240 210.716736 144.305725
v 3753.138916 210.716736 141.693863
v 3752.377197 210.716736 139.182358
v 3751.139893 210.716736 136.867767
v 3749.475098 210.716736 134.839005
v 3747.446289 210.716736 133.174026
v 3745.131592 210.716736 131.936844
v 3742.619873 210.716736 131.175003
v 3735.583740 211.280762 122.061584
v 3740.008057 211.280762 121.625793
v 3731.329346 211.280762 123.352188
v 3727.407959 211.280762 125.448013
v 3723.971191 211.280762 128.268509
v 3721.150635 211.280762 131.705307
v 3719.054932 211.280762 135.626328
v 3717.764160 211.280762 139.880859
v 3717.328613 211.280762 144.305450
v 3717.764160 211.280762 148.730011
v 3719.054932 211.280762 152.984558
v 3721.150635 211.280762 156.905563
v 3723.971191 211.280762 160.342361
v 3727.407959 211.280762 163.162857
v 3731.329346 211.280762 165.258698
v 3735.583740 211.280762 166.549286
v 3740.008057 211.280762 166.985077
v 3744.432617 211.280762 166.549286
v 3748.687012 211.280762 165.258698
v 3752.608398 211.280762 163.162857
v 3756.045166 211.280762 160.342361
v 3758.865723 211.280762 156.905563
v 3760.961426 211.280762 152.984558
v 3762.252197 211.280762 148.730011
v 3762.687744 211.280762 144.305450
v 3762.252197 211.280762 139.880859
v 3760.961426 211.280762 135.626328
v 3758.865723 211.280762 131.705307
v 3756.045166 211.280762 128.268509
v 3752.608398 211.280762 125.448013
v 3748.687012 211.280762 123.352188
v 3744.432617 211.280762 122.061584
v 3735.583740 220.122528 122.061584
v 3740.008057 220.122528 121.625793
v 3731.329346 220.122528 123.352188
v 3727.407959 220.122528 125.448013
v 3723.971191 220.122528 128.268509
v 3721.150635 220.122528 131.705307
v 3719.054932 220.122528 135.626328
v 3717.764160 220.122528 139.880859
v 3717.328613 220.122528 144.305450
v 3717.764160 220.122528 148.730011
v 3719.054932 220.122528 152.984558
v 3721.150635 220.122528 156.905563
v 3723.971191 220.122528 160.342361
v 3727.407959 220.122528 163.162857
v 3731.329346 220.122528 165.258698
v 3735.583740 220.122528 166.549286
v 3740.008057 220.122528 166.985077
v 3744.432617 220.122528 166.549286
v 3748.687012 220.122528 165.258698
v 3752.608398 220.122528 163.162857
v 3756.045166 220.122528 160.342361
v 3758.865723 220.122528 156.905563
v 3760.961426 220.122528 152.984558
v 3762.252197 220.122528 148.730011
v 3762.687744 220.122528 144.305450
v 3762.252197 220.122528 139.880859
v 3760.961426 220.122528 135.626328
v 3758.865723 220.122528 131.705307
v 3756.045166 220.122528 128.268509
v 3752.608398 220.122528 125.448013
v 3748.687012 220.122528 123.352188
v 3744.432617 220.122528 122.061584
vn -0.0000 -1.0000 -0.0000
vn -0.9569 -0.0000 -0.2903
vn -0.0000 1.0000 -0.0000
vn -0.0583 -0.9981 0.0177
vn 0.7730 -0.0000 0.6344
vn -0.9952 -0.0000 -0.0981
vn 0.8819 -0.0000 0.4715
vn -0.9952 -0.0000 0.0978
vn 0.9569 -0.0000 0.2903
vn -0.9569 -0.0000 0.2903
vn 0.9952 -0.0000 0.0981
vn -0.8819 -0.0000 0.4715
vn 0.9952 -0.0000 -0.0981
vn -0.7730 -0.0000 0.6344
vn 0.9569 -0.0000 -0.2903
vn -0.6345 -0.0000 0.7729
vn 0.8820 -0.0000 -0.4713
vn -0.4714 -0.0000 0.8819
vn -0.0980 -0.0000 -0.9952
vn 0.7730 -0.0000 -0.6344
vn -0.2902 -0.0000 0.9570
vn -0.2902 -0.0000 -0.9570
vn 0.6345 -0.0000 -0.7729
vn -0.0980 -0.0000 0.9952
vn -0.4714 -0.0000 -0.8819
vn 0.4714 -0.0000 -0.8819
vn 0.0980 -0.0000 0.9952
vn -0.6343 -0.0000 -0.7731
vn 0.2902 -0.0000 -0.9570
vn 0.2902 -0.0000 0.9570
vn -0.7730 -0.0000 -0.6344
vn 0.0980 -0.0000 -0.9952
vn 0.4714 -0.0000 0.8819
vn -0.8820 -0.0000 -0.4713
vn 0.6343 -0.0000 0.7731
vn 0.0606 -0.9981 0.0060
vn -0.0537 -0.9981 0.0287
vn 0.0606 -0.9981 -0.0060
vn -0.0471 -0.9981 0.0386
vn 0.0583 -0.9981 -0.0177
vn -0.0386 -0.9981 0.0471
vn 0.0537 -0.9981 -0.0287
vn -0.0287 -0.9981 0.0537
vn -0.0060 -0.9981 -0.0606
vn 0.0471 -0.9981 -0.0386
vn -0.0177 -0.9981 0.0583
vn -0.0177 -0.9981 -0.0583
vn 0.0386 -0.9981 -0.0471
vn -0.0060 -0.9981 0.0606
vn -0.0287 -0.9981 -0.0537
vn 0.0287 -0.9981 -0.0537
vn 0.0060 -0.9981 0.0606
vn -0.0386 -0.9981 -0.0471
vn 0.0177 -0.9981 -0.0583
vn 0.0177 -0.9981 0.0583
vn -0.0471 -0.9981 -0.0386
vn 0.0060 -0.9981 -0.0606
vn 0.0287 -0.9981 0.0537
vn -0.0537 -0.9981 -0.0287
vn 0.0386 -0.9981 0.0471
vn -0.0583 -0.9981 -0.0177
vn 0.0471 -0.9981 0.0386
vn -0.0606 -0.9981 -0.0060
vn 0.0537 -0.9981 0.0287
vn -0.0606 -0.9981 0.0060
vn 0.0583 -0.9981 0.0177
vn -0.6344 -0.0000 -0.7730
vn 0.2903 -0.0000 -0.9569
vn 0.2903 -0.0000 0.9569
vn 0.6344 -0.0000 0.7730
vn -0.9569 -0.0000 -0.2904
vn -0.9952 -0.0000 -0.0980
vn 0.8819 -0.0000 0.4714
vn -0.9952 -0.0000 0.0980
vn 0.9569 -0.0000 0.2904
vn -0.9569 -0.0000 0.2904
vn 0.9952 -0.0000 0.0980
vn -0.8819 -0.0000 0.4714
vn 0.9952 -0.0000 -0.0980
vn -0.7729 -0.0000 0.6345
vn 0.9570 -0.0000 -0.2902
vn -0.6344 -0.0000 0.7730
vn 0.8819 -0.0000 -0.4714
vn -0.2903 -0.0000 0.9569
vn -0.2903 -0.0000 -0.9569
vn 0.6344 -0.0000 -0.7730
vn -0.9952 -0.0000 -0.0978
vn 0.8820 -0.0000 0.4713
vn -0.9952 -0.0000 0.0981
vn -0.8820 -0.0000 0.4713
vn -0.6343 -0.0000 0.7731
vn 0.8819 -0.0000 -0.4715
vn 0.6343 -0.0000 -0.7731
vn -0.6345 -0.0000 -0.7729
vn -0.8819 -0.0000 -0.4715
vn 0.6345 -0.0000 0.7729
vn -0.7729 -0.0000 -0.6345
vn -0.8819 -0.0000 -0.4714
vn 0.9570 -0.0000 0.2902
vn 0.9569 -0.0000 -0.2904
vt 0.000000 0.000000
s 0
usemtl Material.003
f 19/1/1 11/1/1 3/1/1
f 40/1/2 71/1/2 39/1/2
f 26/1/3 59/1/3 58/1/3
f 13/1/3 46/1/3 45/1/3
f 27/1/3 60/1/3 59/1/3
f 14/1/3 47/1/3 46/1/3
f 1/1/3 33/1/3 34/1/3
f 28/1/3 61/1/3 60/1/3
f 15/1/3 48/1/3 47/1/3
f 2/1/3 35/1/3 33/1/3
f 29/1/3 62/1/3 61/1/3
f 16/1/3 49/1/3 48/1/3
f 3/1/3 36/1/3 35/1/3
f 30/1/3 63/1/3 62/1/3
f 17/1/3 50/1/3 49/1/3
f 4/1/3 37/1/3 36/1/3
f 31/1/3 64/1/3 63/1/3
f 18/1/3 51/1/3 50/1/3
f 5/1/3 38/1/3 37/1/3
f 32/1/3 34/1/3 64/1/3
f 19/1/3 52/1/3 51/1/3
f 6/1/3 39/1/3 38/1/3
f 20/1/3 53/1/3 52/1/3
f 7/1/3 40/1/3 39/1/3
f 21/1/3 54/1/3 53/1/3
f 8/1/3 41/1/3 40/1/3
f 22/1/3 55/1/3 54/1/3
f 9/1/3 42/1/3 41/1/3
f 23/1/3 56/1/3 55/1/3
f 10/1/3 43/1/3 42/1/3
f 24/1/3 57/1/3 56/1/3
f 11/1/3 44/1/3 43/1/3
f 25/1/3 58/1/3 57/1/3
f 12/1/3 45/1/3 44/1/3
f 74/1/4 107/1/4 106/1/4
f 54/1/5 85/1/5 53/1/5
f 41/1/6 72/1/6 40/1/6
f 55/1/7 86/1/7 54/1/7
f 42/1/8 73/1/8 41/1/8
f 56/1/9 87/1/9 55/1/9
f 43/1/10 74/1/10 42/1/10
f 57/1/11 88/1/11 56/1/11
f 44/1/12 75/1/12 43/1/12
f 58/1/13 89/1/13 57/1/13
f 45/1/14 76/1/14 44/1/14
f 59/1/15 90/1/15 58/1/15
f 46/1/16 77/1/16 45/1/16
f 60/1/17 91/1/17 59/1/17
f 47/1/18 78/1/18 46/1/18
f 33/1/19 66/1/19 34/1/19
f 61/1/20 92/1/20 60/1/20
f 48/1/21 79/1/21 47/1/21
f 35/1/22 65/1/22 33/1/22
f 62/1/23 93/1/23 61/1/23
f 49/1/24 80/1/24 48/1/24
f 36/1/25 67/1/25 35/1/25
f 63/1/26 94/1/26 62/1/26
f 50/1/27 81/1/27 49/1/27
f 37/1/28 68/1/28 36/1/28
f 64/1/29 95/1/29 63/1/29
f 51/1/30 82/1/30 50/1/30
f 38/1/31 69/1/31 37/1/31
f 34/1/32 96/1/32 64/1/32
f 52/1/33 83/1/33 51/1/33
f 39/1/34 70/1/34 38/1/34
f 53/1/35 84/1/35 52/1/35
f 114/1/27 145/1/27 113/1/27
f 89/1/36 120/1/36 88/1/36
f 75/1/37 108/1/37 107/1/37
f 90/1/38 121/1/38 89/1/38
f 77/1/39 108/1/39 76/1/39
f 91/1/40 122/1/40 90/1/40
f 77/1/41 110/1/41 109/1/41
f 92/1/42 123/1/42 91/1/42
f 78/1/43 111/1/43 110/1/43
f 66/1/44 97/1/44 98/1/44
f 93/1/45 124/1/45 92/1/45
f 80/1/46 111/1/46 79/1/46
f 65/1/47 99/1/47 97/1/47
f 93/1/48 126/1/48 125/1/48
f 81/1/49 112/1/49 80/1/49
f 67/1/50 100/1/50 99/1/50
f 95/1/51 126/1/51 94/1/51
f 82/1/52 113/1/52 81/1/52
f 69/1/53 100/1/53 68/1/53
f 96/1/54 127/1/54 95/1/54
f 82/1/55 115/1/55 114/1/55
f 69/1/56 102/1/56 101/1/56
f 66/1/57 128/1/57 96/1/57
f 84/1/58 115/1/58 83/1/58
f 70/1/59 103/1/59 102/1/59
f 85/1/60 116/1/60 84/1/60
f 71/1/61 104/1/61 103/1/61
f 86/1/62 117/1/62 85/1/62
f 72/1/63 105/1/63 104/1/63
f 87/1/64 118/1/64 86/1/64
f 74/1/65 105/1/65 73/1/65
f 88/1/66 119/1/66 87/1/66
f 145/1/3 153/1/3 130/1/3
f 101/1/67 132/1/67 100/1/67
f 128/1/68 159/1/68 127/1/68
f 115/1/69 146/1/69 114/1/69
f 102/1/31 133/1/31 101/1/31
f 98/1/32 160/1/32 128/1/32
f 116/1/33 147/1/33 115/1/33
f 103/1/34 134/1/34 102/1/34
f 117/1/70 148/1/70 116/1/70
f 104/1/71 135/1/71 103/1/71
f 118/1/5 149/1/5 117/1/5
f 105/1/72 136/1/72 104/1/72
f 119/1/73 150/1/73 118/1/73
f 106/1/74 137/1/74 105/1/74
f 120/1/75 151/1/75 119/1/75
f 107/1/76 138/1/76 106/1/76
f 121/1/77 152/1/77 120/1/77
f 108/1/78 139/1/78 107/1/78
f 122/1/79 153/1/79 121/1/79
f 109/1/80 140/1/80 108/1/80
f 123/1/81 154/1/81 122/1/81
f 110/1/82 141/1/82 109/1/82
f 124/1/83 155/1/83 123/1/83
f 111/1/18 142/1/18 110/1/18
f 97/1/19 130/1/19 98/1/19
f 125/1/20 156/1/20 124/1/20
f 112/1/84 143/1/84 111/1/84
f 99/1/85 129/1/85 97/1/85
f 126/1/86 157/1/86 125/1/86
f 113/1/24 144/1/24 112/1/24
f 100/1/25 131/1/25 99/1/25
f 127/1/26 158/1/26 126/1/26
f 3/1/1 2/1/1 1/1/1
f 1/1/1 32/1/1 31/1/1
f 31/1/1 30/1/1 29/1/1
f 29/1/1 28/1/1 27/1/1
f 27/1/1 26/1/1 25/1/1
f 25/1/1 24/1/1 23/1/1
f 23/1/1 22/1/1 21/1/1
f 21/1/1 20/1/1 19/1/1
f 19/1/1 18/1/1 17/1/1
f 17/1/1 16/1/1 15/1/1
f 15/1/1 14/1/1 13/1/1
f 13/1/1 12/1/1 11/1/1
f 11/1/1 10/1/1 9/1/1
f 9/1/1 8/1/1 7/1/1
f 7/1/1 6/1/1 5/1/1
f 5/1/1 4/1/1 3/1/1
f 3/1/1 1/1/1 31/1/1
f 31/1/1 29/1/1 27/1/1
f 27/1/1 25/1/1 23/1/1
f 23/1/1 21/1/1 19/1/1
f 19/1/1 17/1/1 15/1/1
f 15/1/1 13/1/1 11/1/1
f 11/1/1 9/1/1 7/1/1
f 7/1/1 5/1/1 3/1/1
f 3/1/1 31/1/1 27/1/1
f 27/1/1 23/1/1 19/1/1
f 19/1/1 15/1/1 11/1/1
f 11/1/1 7/1/1 3/1/1
f 3/1/1 27/1/1 19/1/1
f 40/1/2 72/1/2 71/1/2
f 26/1/3 27/1/3 59/1/3
f 13/1/3 14/1/3 46/1/3
f 27/1/3 28/1/3 60/1/3
f 14/1/3 15/1/3 47/1/3
f 1/1/3 2/1/3 33/1/3
f 28/1/3 29/1/3 61/1/3
f 15/1/3 16/1/3 48/1/3
f 2/1/3 3/1/3 35/1/3
f 29/1/3 30/1/3 62/1/3
f 16/1/3 17/1/3 49/1/3
f 3/1/3 4/1/3 36/1/3
f 30/1/3 31/1/3 63/1/3
f 17/1/3 18/1/3 50/1/3
f 4/1/3 5/1/3 37/1/3
f 31/1/3 32/1/3 64/1/3
f 18/1/3 19/1/3 51/1/3
f 5/1/3 6/1/3 38/1/3
f 32/1/3 1/1/3 34/1/3
f 19/1/3 20/1/3 52/1/3
f 6/1/3 7/1/3 39/1/3
f 20/1/3 21/1/3 53/1/3
f 7/1/3 8/1/3 40/1/3
f 21/1/3 22/1/3 54/1/3
f 8/1/3 9/1/3 41/1/3
f 22/1/3 23/1/3 55/1/3
f 9/1/3 10/1/3 42/1/3
f 23/1/3 24/1/3 56/1/3
f 10/1/3 11/1/3 43/1/3
f 24/1/3 25/1/3 57/1/3
f 11/1/3 12/1/3 44/1/3
f 25/1/3 26/1/3 58/1/3
f 12/1/3 13/1/3 45/1/3
f 74/1/4 75/1/4 107/1/4
f 54/1/5 86/1/5 85/1/5
f 41/1/87 73/1/87 72/1/87
f 55/1/88 87/1/88 86/1/88
f 42/1/89 74/1/89 73/1/89
f 56/1/9 88/1/9 87/1/9
f 43/1/10 75/1/10 74/1/10
f 57/1/11 89/1/11 88/1/11
f 44/1/90 76/1/90 75/1/90
f 58/1/13 90/1/13 89/1/13
f 45/1/14 77/1/14 76/1/14
f 59/1/15 91/1/15 90/1/15
f 46/1/91 78/1/91 77/1/91
f 60/1/92 92/1/92 91/1/92
f 47/1/18 79/1/18 78/1/18
f 33/1/19 65/1/19 66/1/19
f 61/1/20 93/1/20 92/1/20
f 48/1/21 80/1/21 79/1/21
f 35/1/22 67/1/22 65/1/22
f 62/1/93 94/1/93 93/1/93
f 49/1/24 81/1/24 80/1/24
f 36/1/25 68/1/25 67/1/25
f 63/1/26 95/1/26 94/1/26
f 50/1/27 82/1/27 81/1/27
f 37/1/94 69/1/94 68/1/94
f 64/1/29 96/1/29 95/1/29
f 51/1/30 83/1/30 82/1/30
f 38/1/31 70/1/31 69/1/31
f 34/1/32 66/1/32 96/1/32
f 52/1/33 84/1/33 83/1/33
f 39/1/95 71/1/95 70/1/95
f 53/1/96 85/1/96 84/1/96
f 114/1/27 146/1/27 145/1/27
f 89/1/36 121/1/36 120/1/36
f 75/1/37 76/1/37 108/1/37
f 90/1/38 122/1/38 121/1/38
f 77/1/39 109/1/39 108/1/39
f 91/1/40 123/1/40 122/1/40
f 77/1/41 78/1/41 110/1/41
f 92/1/42 124/1/42 123/1/42
f 78/1/43 79/1/43 111/1/43
f 66/1/44 65/1/44 97/1/44
f 93/1/45 125/1/45 124/1/45
f 80/1/46 112/1/46 111/1/46
f 65/1/47 67/1/47 99/1/47
f 93/1/48 94/1/48 126/1/48
f 81/1/49 113/1/49 112/1/49
f 67/1/50 68/1/50 100/1/50
f 95/1/51 127/1/51 126/1/51
f 82/1/52 114/1/52 113/1/52
f 69/1/53 101/1/53 100/1/53
f 96/1/54 128/1/54 127/1/54
f 82/1/55 83/1/55 115/1/55
f 69/1/56 70/1/56 102/1/56
f 66/1/57 98/1/57 128/1/57
f 84/1/58 116/1/58 115/1/58
f 70/1/59 71/1/59 103/1/59
f 85/1/60 117/1/60 116/1/60
f 71/1/61 72/1/61 104/1/61
f 86/1/62 118/1/62 117/1/62
f 72/1/63 73/1/63 105/1/63
f 87/1/64 119/1/64 118/1/64
f 74/1/65 106/1/65 105/1/65
f 88/1/66 120/1/66 119/1/66
f 130/1/3 129/1/3 131/1/3
f 131/1/3 132/1/3 133/1/3
f 133/1/3 134/1/3 135/1/3
f 135/1/3 136/1/3 137/1/3
f 137/1/3 138/1/3 139/1/3
f 139/1/3 140/1/3 141/1/3
f 141/1/3 142/1/3 143/1/3
f 143/1/3 144/1/3 145/1/3
f 145/1/3 146/1/3 147/1/3
f 147/1/3 148/1/3 149/1/3
f 149/1/3 150/1/3 151/1/3
f 151/1/3 152/1/3 153/1/3
f 153/1/3 154/1/3 155/1/3
f 155/1/3 156/1/3 157/1/3
f 157/1/3 158/1/3 159/1/3
f 159/1/3 160/1/3 130/1/3
f 130/1/3 131/1/3 133/1/3
f 133/1/3 135/1/3 137/1/3
f 137/1/3 139/1/3 141/1/3
f 141/1/3 143/1/3 145/1/3
f 145/1/3 147/1/3 149/1/3
f 149/1/3 151/1/3 153/1/3
f 153/1/3 155/1/3 157/1/3
f 157/1/3 159/1/3 130/1/3
f 130/1/3 133/1/3 137/1/3
f 137/1/3 141/1/3 145/1/3
f 145/1/3 149/1/3 153/1/3
f 153/1/3 157/1/3 130/1/3
f 130/1/3 137/1/3 145/1/3
f 101/1/67 133/1/67 132/1/67
f 128/1/68 160/1/68 159/1/68
f 115/1/69 147/1/69 146/1/69
f 102/1/97 134/1/97 133/1/97
f 98/1/32 130/1/32 160/1/32
f 116/1/33 148/1/33 147/1/33
f 103/1/98 135/1/98 134/1/98
f 117/1/70 149/1/70 148/1/70
f 104/1/71 136/1/71 135/1/71
f 118/1/5 150/1/5 149/1/5
f 105/1/72 137/1/72 136/1/72
f 119/1/73 151/1/73 150/1/73
f 106/1/74 138/1/74 137/1/74
f 120/1/99 152/1/99 151/1/99
f 107/1/76 139/1/76 138/1/76
f 121/1/77 153/1/77 152/1/77
f 108/1/90 140/1/90 139/1/90
f 122/1/79 154/1/79 153/1/79
f 109/1/14 141/1/14 140/1/14
f 123/1/100 155/1/100 154/1/100
f 110/1/82 142/1/82 141/1/82
f 124/1/83 156/1/83 155/1/83
f 111/1/18 143/1/18 142/1/18
f 97/1/19 129/1/19 130/1/19
f 125/1/20 157/1/20 156/1/20
f 112/1/84 144/1/84 143/1/84
f 99/1/85 131/1/85 129/1/85
f 126/1/86 158/1/86 157/1/86
f 113/1/24 145/1/24 144/1/24
f 100/1/25 132/1/25 131/1/25
f 127/1/26 159/1/26 158/1/26
