# Blender 4.1.1
# www.blender.org
mtllib polygon0.009.mtl
o polygon0.009
v 2560.945068 -1285.228516 -465.746399
v 2560.945068 -1285.228516 -451.261230
v 2560.945068 -1270.743408 -451.261230
v 2560.945068 -1270.743408 -465.746399
v 2575.430420 -1285.228516 -451.261230
v 2575.430420 -1285.228516 -465.746399
v 2575.430420 -1270.743408 -465.746399
v 2575.430420 -1270.743408 -451.261230
v 2560.945068 -1285.228516 -465.746399
v 2575.430420 -1285.228516 -465.746399
v 2575.430420 -1285.228516 -451.261230
v 2560.945068 -1285.228516 -451.261230
v 2560.945068 -1270.743408 -465.746399
v 2575.430420 -1270.743408 -465.746399
v 2575.430420 -1285.228516 -465.746399
v 2560.945068 -1285.228516 -465.746399
v 2560.945068 -1270.743408 -451.261230
v 2575.430420 -1270.743408 -451.261230
v 2575.430420 -1270.743408 -465.746399
v 2560.945068 -1270.743408 -465.746399
v 2560.945068 -1285.228516 -451.261230
v 2575.430420 -1285.228516 -451.261230
v 2575.430420 -1270.743408 -451.261230
v 2560.945068 -1270.743408 -451.261230
vn -1.0000 -0.0000 -0.0000
vn 1.0000 -0.0000 -0.0000
vn -0.0000 -1.0000 -0.0000
vn -0.0000 -0.0000 -1.0000
vn -0.0000 1.0000 -0.0000
vn -0.0000 -0.0000 1.0000
vt 0.000000 -1.000000
vt -1.000000 0.000000
vt -1.000000 -1.000000
vt 2.000000 -1.000000
vt 1.000000 0.000000
vt 1.000000 -1.000000
vt 1.000000 2.000000
vt 0.000000 3.000000
vt 0.000000 2.000000
vt 1.000000 1.000000
vt 0.000000 1.000000
vt 0.000000 0.000000
vt 2.000000 0.000000
vt 1.000000 3.000000
s 0
usemtl box_mat
f 2/1/1 4/2/1 1/3/1
f 6/4/2 8/5/2 5/6/2
f 10/7/3 12/8/3 9/9/3
f 14/9/4 16/10/4 13/7/4
f 18/5/5 20/11/5 17/12/5
f 22/6/6 24/12/6 21/1/6
f 2/1/1 3/12/1 4/2/1
f 6/4/2 7/13/2 8/5/2
f 10/7/3 11/14/3 12/8/3
f 14/9/4 15/11/4 16/10/4
f 18/5/5 19/10/5 20/11/5
f 22/6/6 23/5/6 24/12/6
