# Blender 4.1.1
# www.blender.org
mtllib polygon10.mtl
o polygon10
v -8952.374023 -17099.998047 -11997.629883
v -6879.422852 -17102.787109 -11180.000000
v -8896.413086 -17099.998047 -10375.529297
v 38.760880 -8099.999512 -22072.830078
v 1856.053101 -8099.862305 -21356.039062
v 88.118515 -8100.000000 -20642.099609
v 9048.475586 900.000000 -11997.629883
v 11121.429688 897.840454 -11180.000000
v 9104.303711 899.999939 -10379.370117
v -8952.374023 900.000000 -11997.629883
v -6879.422852 897.840454 -11180.000000
v -8896.350586 899.999939 -10373.689453
v 9048.069336 -17099.998047 -11997.629883
v 11121.019531 -17102.787109 -11180.000000
v 9104.049805 -17099.998047 -10375.009766
vn 0.0014 1.0000 -0.0000
vn -0.0001 1.0000 -0.0000
vn 0.0011 1.0000 -0.0000
vt 1.000000 0.021362
vt 0.000000 0.465973
vt 1.000000 0.909729
s 1
usemtl lambert328
f 3/1/1 2/2/1 1/3/1
f 6/1/2 5/2/2 4/3/2
f 9/1/3 8/2/3 7/3/3
f 12/1/3 11/2/3 10/3/3
f 15/1/1 14/2/1 13/3/1
