# Blender 4.1.1
# www.blender.org
mtllib polygon18.mtl
o polygon18
v 10957.889648 42289.160156 -1224.000000
v 10882.099609 42187.898438 -1224.000000
v 11440.549805 41558.140625 -1224.000000
v 11309.240234 41506.167969 -1224.000000
v 11596.568359 40748.839844 -1224.000000
v 5983.159180 35075.210938 -1224.000000
v 11701.589844 40159.980469 -1224.000000
v 7067.440918 35070.890625 -1224.000000
v 11700.689453 38966.847656 -1223.999878
v 8151.721191 35066.570312 -1224.000000
v 11699.790039 37773.710938 -1223.999878
v 9236.001953 35062.238281 -1224.000000
v 11698.879883 36580.578125 -1224.000000
v 10320.279297 35057.917969 -1224.000000
v 11404.559570 35053.601562 -1224.000000
v 11472.649414 34974.410156 -1224.000000
v 11697.979492 35387.449219 -1224.000000
v 11806.689453 35340.148438 -1224.000000
v 11808.049805 36555.109375 -1224.000000
v 5940.834473 34974.410156 -1224.000000
v 5683.752930 35389.359375 -1224.000000
v 5572.948242 35342.378906 -1224.000000
v 5684.681641 36834.121094 -1224.000000
v 5577.250000 36808.960938 -1224.000000
v 5685.609863 38278.871094 -1224.000000
v 5581.553223 38275.539062 -1224.000000
v 5686.538574 39723.628906 -1224.000000
v 5585.855469 39742.109375 -1224.000000
v 5687.467773 41168.378906 -1223.999878
v 5590.157227 41208.699219 -1223.999878
v 5594.459961 42675.269531 -1224.000000
v 10366.290039 34974.410156 -1224.000000
v 9259.927734 34974.410156 -1224.000000
v 8153.563477 34974.410156 -1224.000000
v 7047.197754 34974.410156 -1224.000000
v 8104.306152 42905.863281 -1224.000122
v 7035.708496 43020.660156 -1224.000000
v 7045.377930 42918.179688 -1224.000122
v 5986.449707 42930.488281 -1224.000122
v 5688.395996 42613.128906 -1224.000000
v 5935.929688 43020.660156 -1224.000000
v 10083.679688 42804.917969 -1224.000000
v 10019.229492 42696.929688 -1224.000000
v 9123.074219 42863.609375 -1224.000122
v 8135.487305 43020.660156 -1224.000000
v 9159.282227 42974.750000 -1224.000000
v 11809.410156 37770.078125 -1224.000000
v 11810.769531 38985.039062 -1223.999878
v 11812.129883 40200.000000 -1224.000000
v 11720.759766 40785.187500 -1224.000000
vn -0.0000 -0.0000 -1.0000
vt 0.940430 0.106689
vt 0.850952 0.010010
vt 0.863098 -0.005554
vt 0.919373 0.114685
vt 0.965454 0.231018
vt 0.065735 1.102417
vt 0.982300 0.321472
vt 0.239563 1.103088
vt 0.982117 0.504700
vt 0.413330 1.103760
vt 0.981995 0.687988
vt 0.587097 1.104431
vt 0.981873 0.871216
vt 0.760864 1.105103
vt 0.934692 1.105774
vt 0.945618 1.117920
vt 0.981690 1.054504
vt 0.999146 1.061768
vt 0.999329 0.875122
vt 0.058960 1.117920
vt 0.017761 1.054199
vt 0.000000 1.061401
vt 0.017883 0.832275
vt 0.000671 0.836121
vt 0.018066 0.610352
vt 0.001404 0.610901
vt 0.018188 0.388489
vt 0.002075 0.385620
vt 0.018372 0.166565
vt 0.002747 0.160400
vt 0.003418 -0.064880
vt 0.768250 1.117920
vt 0.590942 1.117920
vt 0.413635 1.117920
vt 0.236267 1.117920
vt 0.236023 -0.102173
vt 0.234436 -0.117920
vt 0.405701 -0.100281
vt 0.066284 -0.104065
vt 0.018494 -0.055298
vt 0.058167 -0.117920
vt 0.722961 -0.084778
vt 0.712646 -0.068176
vt 0.569031 -0.093811
vt 0.410706 -0.117920
vt 0.574829 -0.110840
vt 0.999573 0.688538
vt 0.999756 0.501892
vt 1.000000 0.315308
vt 0.985352 0.225403
s 1
usemtl suna1
f 3/1/1 2/2/1 1/3/1
f 4/4/1 2/2/1 3/1/1
f 5/5/1 4/4/1 3/1/1
f 6/6/1 4/4/1 5/5/1
f 7/7/1 6/6/1 5/5/1
f 8/8/1 6/6/1 7/7/1
f 9/9/1 8/8/1 7/7/1
f 10/10/1 8/8/1 9/9/1
f 11/11/1 10/10/1 9/9/1
f 12/12/1 10/10/1 11/11/1
f 13/13/1 12/12/1 11/11/1
f 14/14/1 12/12/1 13/13/1
f 15/15/1 14/14/1 13/13/1
f 16/16/1 14/14/1 15/15/1
f 17/17/1 16/16/1 15/15/1
f 18/18/1 16/16/1 17/17/1
f 19/19/1 18/18/1 17/17/1
f 20/20/1 6/6/1 8/8/1
f 21/21/1 6/6/1 20/20/1
f 22/22/1 21/21/1 20/20/1
f 23/23/1 21/21/1 22/22/1
f 24/24/1 23/23/1 22/22/1
f 25/25/1 23/23/1 24/24/1
f 26/26/1 25/25/1 24/24/1
f 27/27/1 25/25/1 26/26/1
f 28/28/1 27/27/1 26/26/1
f 29/29/1 27/27/1 28/28/1
f 30/30/1 29/29/1 28/28/1
f 31/31/1 29/29/1 30/30/1
f 32/32/1 14/14/1 16/16/1
f 12/12/1 14/14/1 32/32/1
f 33/33/1 12/12/1 32/32/1
f 10/10/1 12/12/1 33/33/1
f 34/34/1 10/10/1 33/33/1
f 8/8/1 10/10/1 34/34/1
f 35/35/1 8/8/1 34/34/1
f 20/20/1 8/8/1 35/35/1
f 38/36/1 37/37/1 36/38/1
f 39/39/1 37/37/1 38/36/1
f 29/29/1 39/39/1 38/36/1
f 40/40/1 39/39/1 29/29/1
f 31/31/1 40/40/1 29/29/1
f 39/39/1 40/40/1 31/31/1
f 41/41/1 39/39/1 31/31/1
f 37/37/1 39/39/1 41/41/1
f 2/2/1 42/42/1 1/3/1
f 43/43/1 42/42/1 2/2/1
f 21/21/1 43/43/1 2/2/1
f 44/44/1 43/43/1 21/21/1
f 36/38/1 44/44/1 21/21/1
f 45/45/1 44/44/1 36/38/1
f 37/37/1 45/45/1 36/38/1
f 46/46/1 44/44/1 45/45/1
f 43/43/1 44/44/1 46/46/1
f 42/42/1 43/43/1 46/46/1
f 13/13/1 17/17/1 15/15/1
f 19/19/1 17/17/1 13/13/1
f 47/47/1 19/19/1 13/13/1
f 4/4/1 21/21/1 2/2/1
f 6/6/1 21/21/1 4/4/1
f 11/11/1 47/47/1 13/13/1
f 9/9/1 47/47/1 11/11/1
f 9/9/1 48/48/1 47/47/1
f 7/7/1 48/48/1 9/9/1
f 7/7/1 49/49/1 48/48/1
f 5/5/1 49/49/1 7/7/1
f 5/5/1 50/50/1 49/49/1
f 3/1/1 50/50/1 5/5/1
f 23/23/1 36/38/1 21/21/1
f 25/25/1 36/38/1 23/23/1
f 27/27/1 36/38/1 25/25/1
f 29/29/1 36/38/1 27/27/1
f 38/36/1 36/38/1 29/29/1
