# Blender 4.1.1
# www.blender.org
mtllib Circle.728.mtl
o Circle.016
v -2957.006104 1223.674561 1119.793579
v -2959.175781 1223.674561 1120.007324
v -2961.262207 1223.674561 1120.640137
v -2963.185059 1223.674561 1121.667969
v -2964.870361 1223.674561 1123.051025
v -2966.253418 1223.674561 1124.736450
v -2967.281250 1223.674561 1126.659180
v -2967.914062 1223.674561 1128.745605
v -2968.127686 1223.674561 1130.915283
v -2967.914062 1223.674561 1133.084961
v -2967.281250 1223.674561 1135.171387
v -2966.253418 1223.674561 1137.094116
v -2964.870361 1223.674561 1138.779541
v -2963.185059 1223.674561 1140.162598
v -2961.262207 1223.674561 1141.190430
v -2959.175781 1223.674561 1141.823242
v -2957.006104 1223.674561 1142.036987
v -2954.836426 1223.674561 1141.823242
v -2952.750000 1223.674561 1141.190430
v -2950.827148 1223.674561 1140.162598
v -2949.141846 1223.674561 1138.779541
v -2947.758789 1223.674561 1137.094116
v -2946.730957 1223.674561 1135.171387
v -2946.098145 1223.674561 1133.084961
v -2945.884521 1223.674561 1130.915283
v -2946.098145 1223.674561 1128.745605
v -2946.730957 1223.674561 1126.659180
v -2947.758789 1223.674561 1124.736450
v -2949.141846 1223.674561 1123.051025
v -2950.827148 1223.674561 1121.667969
v -2952.750000 1223.674561 1120.640137
v -2954.836426 1223.674561 1120.007324
v -2959.175781 1223.674561 1120.007324
v -2957.006104 1223.674561 1119.793579
v -2961.262207 1223.674561 1120.640137
v -2963.185059 1223.674561 1121.667969
v -2964.870361 1223.674561 1123.051025
v -2966.253418 1223.674561 1124.736450
v -2967.281250 1223.674561 1126.659180
v -2967.914062 1223.674561 1128.745605
v -2968.127686 1223.674561 1130.915283
v -2967.914062 1223.674561 1133.084961
v -2967.281250 1223.674561 1135.171387
v -2966.253418 1223.674561 1137.094116
v -2964.870361 1223.674561 1138.779541
v -2963.185059 1223.674561 1140.162598
v -2961.262207 1223.674561 1141.190430
v -2959.175781 1223.674561 1141.823242
v -2957.006104 1223.674561 1142.036987
v -2954.836426 1223.674561 1141.823242
v -2952.750000 1223.674561 1141.190430
v -2950.827148 1223.674561 1140.162598
v -2949.141846 1223.674561 1138.779541
v -2947.758789 1223.674561 1137.094116
v -2946.730957 1223.674561 1135.171387
v -2946.098145 1223.674561 1133.084961
v -2945.884521 1223.674561 1130.915283
v -2946.098145 1223.674561 1128.745605
v -2946.730957 1223.674561 1126.659180
v -2947.758789 1223.674561 1124.736450
v -2949.141846 1223.674561 1123.051025
v -2950.827148 1223.674561 1121.667969
v -2952.750000 1223.674561 1120.640137
v -2954.836426 1223.674561 1120.007324
v -2959.175781 1253.035767 1120.007324
v -2957.006104 1253.035767 1119.793579
v -2961.262207 1253.035767 1120.640137
v -2963.185059 1253.035767 1121.667969
v -2964.870361 1253.035767 1123.051025
v -2966.253418 1253.035767 1124.736450
v -2967.281250 1253.035767 1126.659180
v -2967.914062 1253.035767 1128.745605
v -2968.127686 1253.035767 1130.915283
v -2967.914062 1253.035767 1133.084961
v -2967.281250 1253.035767 1135.171387
v -2966.253418 1253.035767 1137.094116
v -2964.870361 1253.035767 1138.779541
v -2963.185059 1253.035767 1140.162598
v -2961.262207 1253.035767 1141.190430
v -2959.175781 1253.035767 1141.823242
v -2957.006104 1253.035767 1142.036987
v -2954.836426 1253.035767 1141.823242
v -2952.750000 1253.035767 1141.190430
v -2950.827148 1253.035767 1140.162598
v -2949.141846 1253.035767 1138.779541
v -2947.758789 1253.035767 1137.094116
v -2946.730957 1253.035767 1135.171387
v -2946.098145 1253.035767 1133.084961
v -2945.884521 1253.035767 1130.915283
v -2946.098145 1253.035767 1128.745605
v -2946.730957 1253.035767 1126.659180
v -2947.758789 1253.035767 1124.736450
v -2949.141846 1253.035767 1123.051025
v -2950.827148 1253.035767 1121.667969
v -2952.750000 1253.035767 1120.640137
v -2954.836426 1253.035767 1120.007324
v -2960.671387 1254.386963 1112.486572
v -2957.005859 1254.386963 1112.125610
v -2964.196289 1254.386963 1113.555786
v -2967.444580 1254.386963 1115.292114
v -2970.291992 1254.386963 1117.628784
v -2972.628662 1254.386963 1120.476074
v -2974.364990 1254.386963 1123.724487
v -2975.434082 1254.386963 1127.249268
v -2975.795166 1254.386963 1130.914795
v -2975.434082 1254.386963 1134.580444
v -2974.364990 1254.386963 1138.105103
v -2972.628662 1254.386963 1141.353516
v -2970.291992 1254.386963 1144.200806
v -2967.444580 1254.386963 1146.537476
v -2964.196289 1254.386963 1148.273804
v -2960.671387 1254.386963 1149.343018
v -2957.005859 1254.386963 1149.704102
v -2953.340332 1254.386963 1149.343018
v -2949.815430 1254.386963 1148.273804
v -2946.567139 1254.386963 1146.537476
v -2943.719971 1254.386963 1144.200806
v -2941.383057 1254.386963 1141.353516
v -2939.646973 1254.386963 1138.105103
v -2938.577637 1254.386963 1134.580444
v -2938.216553 1254.386963 1130.914795
v -2938.577637 1254.386963 1127.249268
v -2939.646973 1254.386963 1123.724487
v -2941.383057 1254.386963 1120.476074
v -2943.719971 1254.386963 1117.628784
v -2946.567139 1254.386963 1115.292114
v -2949.815430 1254.386963 1113.555786
v -2953.340332 1254.386963 1112.486572
v -2960.671387 1264.352661 1112.486572
v -2957.005859 1264.352661 1112.125610
v -2964.196289 1264.352661 1113.555786
v -2967.444580 1264.352661 1115.292114
v -2970.291992 1264.352661 1117.628784
v -2972.628662 1264.352661 1120.476074
v -2974.364990 1264.352661 1123.724487
v -2975.434082 1264.352661 1127.249268
v -2975.795166 1264.352661 1130.914795
v -2975.434082 1264.352661 1134.580444
v -2974.364990 1264.352661 1138.105103
v -2972.628662 1264.352661 1141.353516
v -2970.291992 1264.352661 1144.200806
v -2967.444580 1264.352661 1146.537476
v -2964.196289 1264.352661 1148.273804
v -2960.671387 1264.352661 1149.343018
v -2957.005859 1264.352661 1149.704102
v -2953.340332 1264.352661 1149.343018
v -2949.815430 1264.352661 1148.273804
v -2946.567139 1264.352661 1146.537476
v -2943.719971 1264.352661 1144.200806
v -2941.383057 1264.352661 1141.353516
v -2939.646973 1264.352661 1138.105103
v -2938.577637 1264.352661 1134.580444
v -2938.216553 1264.352661 1130.914795
v -2938.577637 1264.352661 1127.249268
v -2939.646973 1264.352661 1123.724487
v -2941.383057 1264.352661 1120.476074
v -2943.719971 1264.352661 1117.628784
v -2946.567139 1264.352661 1115.292114
v -2949.815430 1264.352661 1113.555786
v -2953.340332 1264.352661 1112.486572
vn -0.0000 -1.0000 -0.0000
vn -0.0980 -0.0000 0.9952
vn -0.0000 1.0000 -0.0000
vn 0.0822 -0.9847 0.1538
vn -0.4713 -0.0000 -0.8820
vn 0.4714 -0.0000 -0.8819
vn 0.0980 -0.0000 0.9952
vn -0.6344 -0.0000 -0.7730
vn 0.2903 -0.0000 -0.9569
vn 0.2902 -0.0000 0.9570
vn -0.7730 -0.0000 -0.6344
vn 0.0980 -0.0000 -0.9952
vn 0.4713 -0.0000 0.8820
vn -0.8819 -0.0000 -0.4714
vn 0.6344 -0.0000 0.7730
vn -0.9569 -0.0000 -0.2904
vn 0.7730 -0.0000 0.6344
vn -0.9952 -0.0000 -0.0981
vn 0.8819 -0.0000 0.4714
vn -0.9952 -0.0000 0.0976
vn 0.9569 -0.0000 0.2904
vn -0.9570 -0.0000 0.2902
vn 0.9952 -0.0000 0.0981
vn -0.8819 -0.0000 0.4714
vn 0.9952 -0.0000 -0.0979
vn -0.7730 -0.0000 0.6344
vn 0.9570 -0.0000 -0.2902
vn -0.6344 -0.0000 0.7730
vn 0.8819 -0.0000 -0.4714
vn -0.4714 -0.0000 0.8819
vn -0.0980 -0.0000 -0.9952
vn 0.7730 -0.0000 -0.6344
vn -0.2903 -0.0000 0.9569
vn -0.2902 -0.0000 -0.9570
vn 0.6344 -0.0000 -0.7730
vn 0.8820 -0.0000 0.4713
vn -0.1537 -0.9847 -0.0822
vn 0.1106 -0.9847 0.1348
vn -0.1669 -0.9847 -0.0506
vn 0.1347 -0.9847 0.1106
vn -0.1735 -0.9847 -0.0171
vn 0.1537 -0.9847 0.0822
vn -0.1735 -0.9847 0.0171
vn 0.1668 -0.9847 0.0506
vn -0.1668 -0.9847 0.0506
vn 0.1735 -0.9847 0.0171
vn -0.1538 -0.9847 0.0822
vn 0.1735 -0.9847 -0.0171
vn -0.1348 -0.9847 0.1106
vn 0.1669 -0.9847 -0.0506
vn -0.1107 -0.9847 0.1348
vn 0.1538 -0.9847 -0.0822
vn -0.0823 -0.9847 0.1538
vn -0.0171 -0.9847 -0.1735
vn 0.1348 -0.9847 -0.1106
vn -0.0506 -0.9847 0.1669
vn -0.0506 -0.9847 -0.1669
vn 0.1106 -0.9847 -0.1348
vn -0.0171 -0.9847 0.1735
vn -0.0822 -0.9847 -0.1538
vn 0.0822 -0.9847 -0.1538
vn 0.0171 -0.9847 0.1735
vn -0.1106 -0.9847 -0.1348
vn 0.0506 -0.9847 -0.1668
vn 0.0506 -0.9847 0.1669
vn -0.1348 -0.9847 -0.1106
vn 0.0171 -0.9847 -0.1735
vn -0.9952 -0.0000 0.0980
vn 0.9569 -0.0000 0.2903
vn -0.9569 -0.0000 0.2903
vn -0.8820 -0.0000 0.4713
vn 0.9952 -0.0000 -0.0980
vn 0.9569 -0.0000 -0.2903
vn -0.6343 -0.0000 0.7731
vn -0.2903 -0.0000 -0.9569
vn -0.4714 -0.0000 -0.8819
vn 0.2903 -0.0000 0.9569
vn 0.4714 -0.0000 0.8819
vn -0.9570 -0.0000 -0.2902
vn -0.0001 -1.0000 -0.0000
vn 0.0003 -1.0000 -0.0000
vn 0.0005 -1.0000 -0.0000
vn 0.0001 -1.0000 -0.0000
vn -0.0003 -1.0000 -0.0000
vn -0.0005 -1.0000 -0.0000
vn 0.4713 -0.0000 -0.8820
vn 0.2902 -0.0000 -0.9570
vn -0.9952 -0.0000 -0.0976
vn -0.9952 -0.0000 0.0981
vn 0.9570 -0.0000 0.2902
vn -0.9569 -0.0000 0.2904
vn 0.9952 -0.0000 0.0979
vn 0.9952 -0.0000 -0.0981
vn 0.9569 -0.0000 -0.2904
vn -0.4713 -0.0000 0.8820
vn -0.2902 -0.0000 0.9570
vn -0.1538 -0.9847 -0.0822
vn 0.1107 -0.9847 0.1348
vn 0.1348 -0.9847 0.1106
vn 0.1538 -0.9847 0.0822
vn -0.1669 -0.9847 0.0506
vn -0.1537 -0.9847 0.0822
vn -0.1347 -0.9847 0.1106
vn -0.1106 -0.9847 0.1348
vn 0.1537 -0.9847 -0.0822
vn -0.0822 -0.9847 0.1538
vn -0.0506 -0.9847 -0.1668
vn -0.0171 -0.9847 0.1736
vn 0.0171 -0.9847 0.1736
vn 0.0506 -0.9847 -0.1669
vn -0.1349 -0.9847 -0.1106
vn -0.0002 1.0000 -0.0000
vn -0.0004 1.0000 -0.0000
vn 0.0002 1.0000 -0.0000
vn 0.0004 1.0000 -0.0000
vn 0.0001 1.0000 -0.0000
vn -0.0001 1.0000 -0.0000
vn 0.9952 -0.0000 0.0980
vn 0.8820 -0.0000 -0.4713
vn -0.6343 -0.0000 -0.7731
vn -0.8819 -0.0000 -0.4713
vn -0.9569 -0.0000 -0.2903
vn -0.9952 -0.0000 -0.0980
vt 0.000000 0.000000
s 0
usemtl Material.003
f 19/1/1 11/1/1 3/1/1
f 49/1/2 80/1/2 48/1/2
f 8/1/3 41/1/3 40/1/3
f 22/1/3 55/1/3 54/1/3
f 9/1/3 42/1/3 41/1/3
f 23/1/3 56/1/3 55/1/3
f 10/1/3 43/1/3 42/1/3
f 24/1/3 57/1/3 56/1/3
f 11/1/3 44/1/3 43/1/3
f 25/1/3 58/1/3 57/1/3
f 12/1/3 45/1/3 44/1/3
f 26/1/3 59/1/3 58/1/3
f 13/1/3 46/1/3 45/1/3
f 27/1/3 60/1/3 59/1/3
f 14/1/3 47/1/3 46/1/3
f 1/1/3 33/1/3 34/1/3
f 28/1/3 61/1/3 60/1/3
f 15/1/3 48/1/3 47/1/3
f 2/1/3 35/1/3 33/1/3
f 29/1/3 62/1/3 61/1/3
f 16/1/3 49/1/3 48/1/3
f 3/1/3 36/1/3 35/1/3
f 30/1/3 63/1/3 62/1/3
f 17/1/3 50/1/3 49/1/3
f 4/1/3 37/1/3 36/1/3
f 31/1/3 64/1/3 63/1/3
f 18/1/3 51/1/3 50/1/3
f 5/1/3 38/1/3 37/1/3
f 32/1/3 34/1/3 64/1/3
f 19/1/3 52/1/3 51/1/3
f 6/1/3 39/1/3 38/1/3
f 20/1/3 53/1/3 52/1/3
f 7/1/3 40/1/3 39/1/3
f 21/1/3 54/1/3 53/1/3
f 84/1/4 115/1/4 83/1/4
f 36/1/5 67/1/5 35/1/5
f 63/1/6 94/1/6 62/1/6
f 50/1/7 81/1/7 49/1/7
f 37/1/8 68/1/8 36/1/8
f 64/1/9 95/1/9 63/1/9
f 51/1/10 82/1/10 50/1/10
f 38/1/11 69/1/11 37/1/11
f 34/1/12 96/1/12 64/1/12
f 52/1/13 83/1/13 51/1/13
f 39/1/14 70/1/14 38/1/14
f 53/1/15 84/1/15 52/1/15
f 40/1/16 71/1/16 39/1/16
f 54/1/17 85/1/17 53/1/17
f 41/1/18 72/1/18 40/1/18
f 55/1/19 86/1/19 54/1/19
f 42/1/20 73/1/20 41/1/20
f 56/1/21 87/1/21 55/1/21
f 43/1/22 74/1/22 42/1/22
f 57/1/23 88/1/23 56/1/23
f 44/1/24 75/1/24 43/1/24
f 58/1/25 89/1/25 57/1/25
f 45/1/26 76/1/26 44/1/26
f 59/1/27 90/1/27 58/1/27
f 46/1/28 77/1/28 45/1/28
f 60/1/29 91/1/29 59/1/29
f 47/1/30 78/1/30 46/1/30
f 33/1/31 66/1/31 34/1/31
f 61/1/32 92/1/32 60/1/32
f 48/1/33 79/1/33 47/1/33
f 35/1/34 65/1/34 33/1/34
f 62/1/35 93/1/35 61/1/35
f 119/1/36 150/1/36 118/1/36
f 71/1/37 102/1/37 70/1/37
f 85/1/38 116/1/38 84/1/38
f 71/1/39 104/1/39 103/1/39
f 86/1/40 117/1/40 85/1/40
f 72/1/41 105/1/41 104/1/41
f 87/1/42 118/1/42 86/1/42
f 74/1/43 105/1/43 73/1/43
f 87/1/44 120/1/44 119/1/44
f 74/1/45 107/1/45 106/1/45
f 88/1/46 121/1/46 120/1/46
f 75/1/47 108/1/47 107/1/47
f 90/1/48 121/1/48 89/1/48
f 76/1/49 109/1/49 108/1/49
f 91/1/50 122/1/50 90/1/50
f 77/1/51 110/1/51 109/1/51
f 92/1/52 123/1/52 91/1/52
f 79/1/53 110/1/53 78/1/53
f 65/1/54 98/1/54 66/1/54
f 93/1/55 124/1/55 92/1/55
f 79/1/56 112/1/56 111/1/56
f 67/1/57 97/1/57 65/1/57
f 94/1/58 125/1/58 93/1/58
f 81/1/59 112/1/59 80/1/59
f 67/1/60 100/1/60 99/1/60
f 95/1/61 126/1/61 94/1/61
f 81/1/62 114/1/62 113/1/62
f 68/1/63 101/1/63 100/1/63
f 95/1/64 128/1/64 127/1/64
f 83/1/65 114/1/65 82/1/65
f 69/1/66 102/1/66 101/1/66
f 66/1/67 128/1/67 96/1/67
f 145/1/3 153/1/3 130/1/3
f 106/1/68 137/1/68 105/1/68
f 120/1/69 151/1/69 119/1/69
f 107/1/70 138/1/70 106/1/70
f 121/1/23 152/1/23 120/1/23
f 108/1/71 139/1/71 107/1/71
f 122/1/72 153/1/72 121/1/72
f 109/1/26 140/1/26 108/1/26
f 123/1/73 154/1/73 122/1/73
f 110/1/74 141/1/74 109/1/74
f 124/1/29 155/1/29 123/1/29
f 111/1/30 142/1/30 110/1/30
f 97/1/31 130/1/31 98/1/31
f 125/1/32 156/1/32 124/1/32
f 112/1/33 143/1/33 111/1/33
f 99/1/75 129/1/75 97/1/75
f 126/1/35 157/1/35 125/1/35
f 113/1/2 144/1/2 112/1/2
f 100/1/76 131/1/76 99/1/76
f 127/1/6 158/1/6 126/1/6
f 114/1/7 145/1/7 113/1/7
f 101/1/8 132/1/8 100/1/8
f 128/1/9 159/1/9 127/1/9
f 115/1/77 146/1/77 114/1/77
f 102/1/11 133/1/11 101/1/11
f 98/1/12 160/1/12 128/1/12
f 116/1/78 147/1/78 115/1/78
f 103/1/14 134/1/14 102/1/14
f 117/1/15 148/1/15 116/1/15
f 104/1/79 135/1/79 103/1/79
f 118/1/17 149/1/17 117/1/17
f 105/1/18 136/1/18 104/1/18
f 3/1/80 2/1/80 1/1/80
f 1/1/1 32/1/1 31/1/1
f 31/1/81 30/1/81 29/1/81
f 29/1/1 28/1/1 27/1/1
f 27/1/82 26/1/82 25/1/82
f 25/1/82 24/1/82 23/1/82
f 23/1/1 22/1/1 21/1/1
f 21/1/81 20/1/81 19/1/81
f 19/1/83 18/1/83 17/1/83
f 17/1/1 16/1/1 15/1/1
f 15/1/84 14/1/84 13/1/84
f 13/1/1 12/1/1 11/1/1
f 11/1/85 10/1/85 9/1/85
f 9/1/85 8/1/85 7/1/85
f 7/1/1 6/1/1 5/1/1
f 5/1/84 4/1/84 3/1/84
f 3/1/1 1/1/1 31/1/1
f 31/1/1 29/1/1 27/1/1
f 27/1/1 25/1/1 23/1/1
f 23/1/1 21/1/1 19/1/1
f 19/1/1 17/1/1 15/1/1
f 15/1/1 13/1/1 11/1/1
f 11/1/1 9/1/1 7/1/1
f 7/1/1 5/1/1 3/1/1
f 3/1/1 31/1/1 27/1/1
f 27/1/1 23/1/1 19/1/1
f 19/1/1 15/1/1 11/1/1
f 11/1/1 7/1/1 3/1/1
f 3/1/1 27/1/1 19/1/1
f 49/1/2 81/1/2 80/1/2
f 8/1/3 9/1/3 41/1/3
f 22/1/3 23/1/3 55/1/3
f 9/1/3 10/1/3 42/1/3
f 23/1/3 24/1/3 56/1/3
f 10/1/3 11/1/3 43/1/3
f 24/1/3 25/1/3 57/1/3
f 11/1/3 12/1/3 44/1/3
f 25/1/3 26/1/3 58/1/3
f 12/1/3 13/1/3 45/1/3
f 26/1/3 27/1/3 59/1/3
f 13/1/3 14/1/3 46/1/3
f 27/1/3 28/1/3 60/1/3
f 14/1/3 15/1/3 47/1/3
f 1/1/3 2/1/3 33/1/3
f 28/1/3 29/1/3 61/1/3
f 15/1/3 16/1/3 48/1/3
f 2/1/3 3/1/3 35/1/3
f 29/1/3 30/1/3 62/1/3
f 16/1/3 17/1/3 49/1/3
f 3/1/3 4/1/3 36/1/3
f 30/1/3 31/1/3 63/1/3
f 17/1/3 18/1/3 50/1/3
f 4/1/3 5/1/3 37/1/3
f 31/1/3 32/1/3 64/1/3
f 18/1/3 19/1/3 51/1/3
f 5/1/3 6/1/3 38/1/3
f 32/1/3 1/1/3 34/1/3
f 19/1/3 20/1/3 52/1/3
f 6/1/3 7/1/3 39/1/3
f 20/1/3 21/1/3 53/1/3
f 7/1/3 8/1/3 40/1/3
f 21/1/3 22/1/3 54/1/3
f 84/1/4 116/1/4 115/1/4
f 36/1/76 68/1/76 67/1/76
f 63/1/86 95/1/86 94/1/86
f 50/1/7 82/1/7 81/1/7
f 37/1/8 69/1/8 68/1/8
f 64/1/87 96/1/87 95/1/87
f 51/1/77 83/1/77 82/1/77
f 38/1/11 70/1/11 69/1/11
f 34/1/12 66/1/12 96/1/12
f 52/1/78 84/1/78 83/1/78
f 39/1/14 71/1/14 70/1/14
f 53/1/15 85/1/15 84/1/15
f 40/1/79 72/1/79 71/1/79
f 54/1/17 86/1/17 85/1/17
f 41/1/88 73/1/88 72/1/88
f 55/1/19 87/1/19 86/1/19
f 42/1/89 74/1/89 73/1/89
f 56/1/90 88/1/90 87/1/90
f 43/1/91 75/1/91 74/1/91
f 57/1/92 89/1/92 88/1/92
f 44/1/24 76/1/24 75/1/24
f 58/1/93 90/1/93 89/1/93
f 45/1/26 77/1/26 76/1/26
f 59/1/94 91/1/94 90/1/94
f 46/1/28 78/1/28 77/1/28
f 60/1/29 92/1/29 91/1/29
f 47/1/95 79/1/95 78/1/95
f 33/1/31 65/1/31 66/1/31
f 61/1/32 93/1/32 92/1/32
f 48/1/96 80/1/96 79/1/96
f 35/1/75 67/1/75 65/1/75
f 62/1/35 94/1/35 93/1/35
f 119/1/19 151/1/19 150/1/19
f 71/1/97 103/1/97 102/1/97
f 85/1/98 117/1/98 116/1/98
f 71/1/39 72/1/39 104/1/39
f 86/1/99 118/1/99 117/1/99
f 72/1/41 73/1/41 105/1/41
f 87/1/100 119/1/100 118/1/100
f 74/1/43 106/1/43 105/1/43
f 87/1/44 88/1/44 120/1/44
f 74/1/101 75/1/101 107/1/101
f 88/1/46 89/1/46 121/1/46
f 75/1/102 76/1/102 108/1/102
f 90/1/48 122/1/48 121/1/48
f 76/1/103 77/1/103 109/1/103
f 91/1/50 123/1/50 122/1/50
f 77/1/104 78/1/104 110/1/104
f 92/1/105 124/1/105 123/1/105
f 79/1/106 111/1/106 110/1/106
f 65/1/54 97/1/54 98/1/54
f 93/1/55 125/1/55 124/1/55
f 79/1/56 80/1/56 112/1/56
f 67/1/107 99/1/107 97/1/107
f 94/1/58 126/1/58 125/1/58
f 81/1/108 113/1/108 112/1/108
f 67/1/60 68/1/60 100/1/60
f 95/1/61 127/1/61 126/1/61
f 81/1/109 82/1/109 114/1/109
f 68/1/63 69/1/63 101/1/63
f 95/1/110 96/1/110 128/1/110
f 83/1/65 115/1/65 114/1/65
f 69/1/111 70/1/111 102/1/111
f 66/1/67 98/1/67 128/1/67
f 130/1/3 129/1/3 131/1/3
f 131/1/112 132/1/112 133/1/112
f 133/1/3 134/1/3 135/1/3
f 135/1/113 136/1/113 137/1/113
f 137/1/3 138/1/3 139/1/3
f 139/1/112 140/1/112 141/1/112
f 141/1/112 142/1/112 143/1/112
f 143/1/3 144/1/3 145/1/3
f 145/1/3 146/1/3 147/1/3
f 147/1/114 148/1/114 149/1/114
f 149/1/3 150/1/3 151/1/3
f 151/1/3 152/1/3 153/1/3
f 153/1/115 154/1/115 155/1/115
f 155/1/114 156/1/114 157/1/114
f 157/1/114 158/1/114 159/1/114
f 159/1/3 160/1/3 130/1/3
f 130/1/3 131/1/3 133/1/3
f 133/1/116 135/1/116 137/1/116
f 137/1/3 139/1/3 141/1/3
f 141/1/3 143/1/3 145/1/3
f 145/1/3 147/1/3 149/1/3
f 149/1/117 151/1/117 153/1/117
f 153/1/3 155/1/3 157/1/3
f 157/1/3 159/1/3 130/1/3
f 130/1/3 133/1/3 137/1/3
f 137/1/3 141/1/3 145/1/3
f 145/1/3 149/1/3 153/1/3
f 153/1/3 157/1/3 130/1/3
f 130/1/3 137/1/3 145/1/3
f 106/1/89 138/1/89 137/1/89
f 120/1/69 152/1/69 151/1/69
f 107/1/22 139/1/22 138/1/22
f 121/1/118 153/1/118 152/1/118
f 108/1/24 140/1/24 139/1/24
f 122/1/93 154/1/93 153/1/93
f 109/1/26 141/1/26 140/1/26
f 123/1/73 155/1/73 154/1/73
f 110/1/28 142/1/28 141/1/28
f 124/1/119 156/1/119 155/1/119
f 111/1/30 143/1/30 142/1/30
f 97/1/31 129/1/31 130/1/31
f 125/1/32 157/1/32 156/1/32
f 112/1/33 144/1/33 143/1/33
f 99/1/75 131/1/75 129/1/75
f 126/1/35 158/1/35 157/1/35
f 113/1/2 145/1/2 144/1/2
f 100/1/76 132/1/76 131/1/76
f 127/1/6 159/1/6 158/1/6
f 114/1/7 146/1/7 145/1/7
f 101/1/120 133/1/120 132/1/120
f 128/1/9 160/1/9 159/1/9
f 115/1/77 147/1/77 146/1/77
f 102/1/11 134/1/11 133/1/11
f 98/1/12 130/1/12 160/1/12
f 116/1/78 148/1/78 147/1/78
f 103/1/121 135/1/121 134/1/121
f 117/1/15 149/1/15 148/1/15
f 104/1/122 136/1/122 135/1/122
f 118/1/17 150/1/17 149/1/17
f 105/1/123 137/1/123 136/1/123
