# Blender 4.1.1
# www.blender.org
mtllib ID203.mtl
o n12b14
v -129.066010 36.642204 36.738396
v -129.066010 28.608500 36.738396
v -175.245987 28.608500 36.738396
v -174.167999 28.614603 41.463394
v -128.020996 28.614603 41.463394
v -128.020996 36.636101 41.463394
v -174.167999 36.636101 41.463394
v -162.009003 11.055002 37.055599
v -162.004990 11.055002 34.736099
v -162.007004 11.055002 32.425999
v -140.547989 11.055002 37.055599
v -140.541992 11.055002 34.758900
v -140.524994 11.055002 32.425999
v -140.528000 11.055002 32.828697
v -140.546997 11.055002 36.691002
v -162.007004 11.055002 32.786697
v -162.007996 11.055002 36.691002
v -175.245987 36.642204 36.738396
vn -0.0000 1.0000 -0.0000
vn -0.0000 -0.0000 -1.0000
vn -0.0000 -0.0000 1.0000
vt 1.997080 4.000000
vt 1.980040 0.000000
vt 1.999440 0.000000
vt 1.977670 4.000000
vt 1.752980 0.000000
vt 1.772050 4.000000
vt 1.750610 4.000000
vt 1.772180 0.000000
vt 1.874810 4.000000
vt 1.875960 0.000000
vt 0.703316 0.000000
vt 0.007781 1.000000
vt 0.007781 0.000000
vt 0.703316 1.000000
vt 0.007781 0.999248
vt 0.703316 0.000752
vt 0.703316 0.999248
vt 0.007781 0.000752
s 0
usemtl m12
f 11/1/1 17/2/1 8/3/1
f 17/2/1 11/1/1 15/4/1
f 10/5/1 14/6/1 13/7/1
f 14/6/1 10/5/1 16/8/1
f 16/8/1 12/9/1 14/6/1
f 12/9/1 16/8/1 9/10/1
f 15/4/1 9/10/1 17/2/1
f 9/10/1 15/4/1 12/9/1
f 3/11/2 1/12/2 2/13/2
f 1/12/2 3/11/2 18/14/2
f 7/15/3 5/16/3 6/17/3
f 5/16/3 7/15/3 4/18/3
