# Blender 4.1.1
# www.blender.org
mtllib Circle.032.mtl
o Pipe.153
v 1809.380859 1300.754150 -2126.619873
v 1806.769043 1300.754150 -2126.362549
v 1804.257446 1300.754150 -2125.600830
v 1801.942993 1300.754150 -2124.363770
v 1799.914062 1300.754150 -2122.698730
v 1798.249268 1300.754150 -2120.669922
v 1797.012085 1300.754150 -2118.355469
v 1796.250244 1300.754150 -2115.843750
v 1795.992920 1300.754150 -2113.231934
v 1796.250244 1300.754150 -2110.620117
v 1797.012085 1300.754150 -2108.108643
v 1798.249268 1300.754150 -2105.794189
v 1799.914062 1300.754150 -2103.765137
v 1801.942993 1300.754150 -2102.100342
v 1804.257446 1300.754150 -2100.863281
v 1806.769043 1300.754150 -2100.101318
v 1809.380859 1300.754150 -2099.843994
v 1811.992676 1300.754150 -2100.101318
v 1814.504272 1300.754150 -2100.863281
v 1816.818726 1300.754150 -2102.100342
v 1818.847656 1300.754150 -2103.765137
v 1820.512573 1300.754150 -2105.794189
v 1821.749634 1300.754150 -2108.108643
v 1822.511475 1300.754150 -2110.620117
v 1822.768799 1300.754150 -2113.231934
v 1822.511475 1300.754150 -2115.843750
v 1821.749634 1300.754150 -2118.355469
v 1820.512573 1300.754150 -2120.669922
v 1818.847656 1300.754150 -2122.698730
v 1816.818726 1300.754150 -2124.363770
v 1814.504272 1300.754150 -2125.600830
v 1811.992676 1300.754150 -2126.362549
v 1806.769043 1300.754150 -2126.362549
v 1809.380859 1300.754150 -2126.619873
v 1804.257446 1300.754150 -2125.600830
v 1801.942993 1300.754150 -2124.363770
v 1799.914062 1300.754150 -2122.698730
v 1798.249268 1300.754150 -2120.669922
v 1797.012085 1300.754150 -2118.355469
v 1796.250244 1300.754150 -2115.843750
v 1795.992920 1300.754150 -2113.231934
v 1796.250244 1300.754150 -2110.620117
v 1797.012085 1300.754150 -2108.108643
v 1798.249268 1300.754150 -2105.794189
v 1799.914062 1300.754150 -2103.765137
v 1801.942993 1300.754150 -2102.100342
v 1804.257446 1300.754150 -2100.863281
v 1806.769043 1300.754150 -2100.101318
v 1809.380859 1300.754150 -2099.843994
v 1811.992676 1300.754150 -2100.101318
v 1814.504272 1300.754150 -2100.863281
v 1816.818726 1300.754150 -2102.100342
v 1818.847656 1300.754150 -2103.765137
v 1820.512573 1300.754150 -2105.794189
v 1821.749634 1300.754150 -2108.108643
v 1822.511475 1300.754150 -2110.620117
v 1822.768799 1300.754150 -2113.231934
v 1822.511475 1300.754150 -2115.843750
v 1821.749634 1300.754150 -2118.355469
v 1820.512573 1300.754150 -2120.669922
v 1818.847656 1300.754150 -2122.698730
v 1816.818726 1300.754150 -2124.363770
v 1814.504272 1300.754150 -2125.600830
v 1811.992676 1300.754150 -2126.362549
v 1806.769043 1339.718384 -2126.362549
v 1809.380859 1339.718384 -2126.619873
v 1804.257446 1339.718384 -2125.600830
v 1801.942993 1339.718384 -2124.363770
v 1799.914062 1339.718384 -2122.698730
v 1798.249268 1339.718384 -2120.669922
v 1797.012085 1339.718384 -2118.355469
v 1796.250244 1339.718384 -2115.843750
v 1795.992920 1339.718384 -2113.231934
v 1796.250244 1339.718384 -2110.620117
v 1797.012085 1339.718384 -2108.108643
v 1798.249268 1339.718384 -2105.794189
v 1799.914062 1339.718384 -2103.765137
v 1801.942993 1339.718384 -2102.100342
v 1804.257446 1339.718384 -2100.863281
v 1806.769043 1339.718384 -2100.101318
v 1809.380859 1339.718384 -2099.843994
v 1811.992676 1339.718384 -2100.101318
v 1814.504272 1339.718384 -2100.863281
v 1816.818726 1339.718384 -2102.100342
v 1818.847656 1339.718384 -2103.765137
v 1820.512573 1339.718384 -2105.794189
v 1821.749634 1339.718384 -2108.108643
v 1822.511475 1339.718384 -2110.620117
v 1822.768799 1339.718384 -2113.231934
v 1822.511475 1339.718384 -2115.843750
v 1821.749634 1339.718384 -2118.355469
v 1820.512573 1339.718384 -2120.669922
v 1818.847656 1339.718384 -2122.698730
v 1816.818726 1339.718384 -2124.363770
v 1814.504272 1339.718384 -2125.600830
v 1811.992676 1339.718384 -2126.362549
v 1804.956299 1340.282349 -2135.476074
v 1809.380859 1340.282349 -2135.911865
v 1800.701782 1340.282349 -2134.185547
v 1796.780884 1340.282349 -2132.089600
v 1793.343994 1340.282349 -2129.269287
v 1790.523560 1340.282349 -2125.832275
v 1788.427490 1340.282349 -2121.911377
v 1787.137085 1340.282349 -2117.656982
v 1786.701172 1340.282349 -2113.232422
v 1787.137085 1340.282349 -2108.807617
v 1788.427490 1340.282349 -2104.553223
v 1790.523560 1340.282349 -2100.632080
v 1793.343994 1340.282349 -2097.195312
v 1796.780884 1340.282349 -2094.374756
v 1800.701782 1340.282349 -2092.279053
v 1804.956299 1340.282349 -2090.988281
v 1809.380859 1340.282349 -2090.552734
v 1813.805420 1340.282349 -2090.988281
v 1818.059937 1340.282349 -2092.279053
v 1821.980957 1340.282349 -2094.374756
v 1825.417725 1340.282349 -2097.195312
v 1828.238281 1340.282349 -2100.632080
v 1830.334229 1340.282349 -2104.553223
v 1831.624634 1340.282349 -2108.807617
v 1832.060547 1340.282349 -2113.232422
v 1831.624634 1340.282349 -2117.656982
v 1830.334229 1340.282349 -2121.911377
v 1828.238281 1340.282349 -2125.832275
v 1825.417725 1340.282349 -2129.269287
v 1821.980957 1340.282349 -2132.089600
v 1818.059937 1340.282349 -2134.185547
v 1813.805420 1340.282349 -2135.476074
v 1804.956299 1349.124146 -2135.476074
v 1809.380859 1349.124146 -2135.911865
v 1800.701782 1349.124146 -2134.185547
v 1796.780884 1349.124146 -2132.089600
v 1793.343994 1349.124146 -2129.269287
v 1790.523560 1349.124146 -2125.832275
v 1788.427490 1349.124146 -2121.911377
v 1787.137085 1349.124146 -2117.656982
v 1786.701172 1349.124146 -2113.232422
v 1787.137085 1349.124146 -2108.807617
v 1788.427490 1349.124146 -2104.553223
v 1790.523560 1349.124146 -2100.632080
v 1793.343994 1349.124146 -2097.195312
v 1796.780884 1349.124146 -2094.374756
v 1800.701782 1349.124146 -2092.279053
v 1804.956299 1349.124146 -2090.988281
v 1809.380859 1349.124146 -2090.552734
v 1813.805420 1349.124146 -2090.988281
v 1818.059937 1349.124146 -2092.279053
v 1821.980957 1349.124146 -2094.374756
v 1825.417725 1349.124146 -2097.195312
v 1828.238281 1349.124146 -2100.632080
v 1830.334229 1349.124146 -2104.553223
v 1831.624634 1349.124146 -2108.807617
v 1832.060547 1349.124146 -2113.232422
v 1831.624634 1349.124146 -2117.656982
v 1830.334229 1349.124146 -2121.911377
v 1828.238281 1349.124146 -2125.832275
v 1825.417725 1349.124146 -2129.269287
v 1821.980957 1349.124146 -2132.089600
v 1818.059937 1349.124146 -2134.185547
v 1813.805420 1349.124146 -2135.476074
vn -0.0000 -1.0000 -0.0000
vn -0.9569 -0.0000 -0.2903
vn -0.0000 1.0000 -0.0000
vn -0.0582 -0.9981 0.0177
vn 0.7731 -0.0000 0.6343
vn -0.9952 -0.0000 -0.0981
vn 0.8819 -0.0000 0.4714
vn -0.9952 -0.0000 0.0981
vn 0.9569 -0.0000 0.2903
vn -0.9570 -0.0000 0.2902
vn 0.9952 -0.0000 0.0979
vn -0.8819 -0.0000 0.4714
vn 0.9952 -0.0000 -0.0981
vn -0.7731 -0.0000 0.6343
vn 0.9569 -0.0000 -0.2903
vn -0.6344 -0.0000 0.7730
vn 0.8819 -0.0000 -0.4714
vn -0.4714 -0.0000 0.8819
vn -0.0981 -0.0000 -0.9952
vn 0.7731 -0.0000 -0.6343
vn -0.2903 -0.0000 0.9569
vn -0.2902 -0.0000 -0.9570
vn 0.6343 -0.0000 -0.7730
vn -0.0980 -0.0000 0.9952
vn -0.4714 -0.0000 -0.8819
vn 0.4714 -0.0000 -0.8819
vn 0.0981 -0.0000 0.9952
vn -0.6343 -0.0000 -0.7730
vn 0.2902 -0.0000 -0.9570
vn 0.2903 -0.0000 0.9569
vn -0.7730 -0.0000 -0.6344
vn 0.0981 -0.0000 -0.9952
vn 0.4714 -0.0000 0.8819
vn -0.8819 -0.0000 -0.4715
vn 0.6343 -0.0000 0.7731
vn 0.0980 -0.0000 0.9952
vn 0.0606 -0.9981 0.0060
vn -0.0537 -0.9981 0.0287
vn 0.0606 -0.9981 -0.0060
vn -0.0471 -0.9981 0.0386
vn 0.0582 -0.9981 -0.0177
vn -0.0386 -0.9981 0.0471
vn 0.0537 -0.9981 -0.0287
vn -0.0287 -0.9981 0.0537
vn -0.0060 -0.9981 -0.0606
vn 0.0471 -0.9981 -0.0386
vn -0.0177 -0.9981 0.0583
vn -0.0178 -0.9981 -0.0582
vn 0.0386 -0.9981 -0.0471
vn -0.0059 -0.9981 0.0606
vn -0.0287 -0.9981 -0.0537
vn 0.0288 -0.9981 -0.0537
vn 0.0060 -0.9981 0.0606
vn -0.0386 -0.9981 -0.0471
vn 0.0177 -0.9981 -0.0582
vn 0.0177 -0.9981 0.0583
vn -0.0471 -0.9981 -0.0386
vn 0.0059 -0.9981 -0.0606
vn 0.0288 -0.9981 0.0537
vn -0.0537 -0.9981 -0.0287
vn 0.0386 -0.9981 0.0471
vn -0.0582 -0.9981 -0.0177
vn 0.0471 -0.9981 0.0386
vn -0.0606 -0.9981 -0.0060
vn 0.0537 -0.9981 0.0287
vn -0.0606 -0.9981 0.0060
vn 0.0583 -0.9981 0.0177
vn -0.6344 -0.0000 -0.7730
vn 0.2903 -0.0000 -0.9569
vn 0.0980 -0.0000 -0.9952
vn -0.8819 -0.0000 -0.4714
vn 0.6344 -0.0000 0.7730
vn 0.7730 -0.0000 0.6344
vn -0.9952 -0.0000 -0.0980
vn 0.9952 -0.0000 0.0980
vn -0.8819 -0.0000 0.4715
vn -0.7730 -0.0000 0.6344
vn 0.9570 -0.0000 -0.2902
vn -0.0980 -0.0000 -0.9952
vn 0.7730 -0.0000 -0.6344
vn -0.2903 -0.0000 -0.9569
vn 0.6344 -0.0000 -0.7730
vn -0.0004 -1.0000 -0.0000
vn 0.0004 -1.0000 -0.0000
vn 0.0002 -1.0000 -0.0000
vn -0.0001 -1.0000 -0.0000
vn 0.0001 -1.0000 -0.0000
vn -0.9570 -0.0000 -0.2901
vn -0.0583 -0.9981 0.0177
vn -0.9569 -0.0000 0.2903
vn 0.9952 -0.0000 0.0981
vn 0.9952 -0.0000 -0.0979
vn -0.7730 -0.0000 0.6343
vn -0.6343 -0.0000 0.7731
vn 0.6343 -0.0000 -0.7731
vn -0.7731 -0.0000 -0.6343
vn -0.0288 -0.9981 0.0537
vn -0.0059 -0.9981 -0.0606
vn -0.0176 -0.9981 -0.0583
vn -0.0060 -0.9981 0.0606
vn -0.0288 -0.9981 -0.0537
vn 0.0287 -0.9981 -0.0537
vn 0.0059 -0.9981 0.0606
vn 0.0177 -0.9981 -0.0583
vn 0.0177 -0.9981 0.0582
vn 0.0060 -0.9981 -0.0606
vn 0.0287 -0.9981 0.0537
vn 0.0582 -0.9981 0.0177
vn -0.0001 1.0000 -0.0000
vn 0.0001 1.0000 -0.0000
vn -0.0003 1.0000 -0.0000
vn 0.0003 1.0000 -0.0000
vn -0.9570 -0.0000 -0.2902
vn -0.9952 -0.0000 0.0980
vn 0.9570 -0.0000 0.2902
vn 0.9952 -0.0000 -0.0980
vn 0.8819 -0.0000 -0.4715
vt 0.000000 0.000000
s 0
usemtl Material.003
f 19/1/1 11/1/1 3/1/1
f 40/1/2 71/1/2 39/1/2
f 26/1/3 59/1/3 58/1/3
f 13/1/3 46/1/3 45/1/3
f 27/1/3 60/1/3 59/1/3
f 14/1/3 47/1/3 46/1/3
f 1/1/3 33/1/3 34/1/3
f 28/1/3 61/1/3 60/1/3
f 15/1/3 48/1/3 47/1/3
f 2/1/3 35/1/3 33/1/3
f 29/1/3 62/1/3 61/1/3
f 16/1/3 49/1/3 48/1/3
f 3/1/3 36/1/3 35/1/3
f 30/1/3 63/1/3 62/1/3
f 17/1/3 50/1/3 49/1/3
f 4/1/3 37/1/3 36/1/3
f 31/1/3 64/1/3 63/1/3
f 18/1/3 51/1/3 50/1/3
f 5/1/3 38/1/3 37/1/3
f 32/1/3 34/1/3 64/1/3
f 19/1/3 52/1/3 51/1/3
f 6/1/3 39/1/3 38/1/3
f 20/1/3 53/1/3 52/1/3
f 7/1/3 40/1/3 39/1/3
f 21/1/3 54/1/3 53/1/3
f 8/1/3 41/1/3 40/1/3
f 22/1/3 55/1/3 54/1/3
f 9/1/3 42/1/3 41/1/3
f 23/1/3 56/1/3 55/1/3
f 10/1/3 43/1/3 42/1/3
f 24/1/3 57/1/3 56/1/3
f 11/1/3 44/1/3 43/1/3
f 25/1/3 58/1/3 57/1/3
f 12/1/3 45/1/3 44/1/3
f 74/1/4 107/1/4 106/1/4
f 54/1/5 85/1/5 53/1/5
f 41/1/6 72/1/6 40/1/6
f 55/1/7 86/1/7 54/1/7
f 42/1/8 73/1/8 41/1/8
f 56/1/9 87/1/9 55/1/9
f 43/1/10 74/1/10 42/1/10
f 57/1/11 88/1/11 56/1/11
f 44/1/12 75/1/12 43/1/12
f 58/1/13 89/1/13 57/1/13
f 45/1/14 76/1/14 44/1/14
f 59/1/15 90/1/15 58/1/15
f 46/1/16 77/1/16 45/1/16
f 60/1/17 91/1/17 59/1/17
f 47/1/18 78/1/18 46/1/18
f 33/1/19 66/1/19 34/1/19
f 61/1/20 92/1/20 60/1/20
f 48/1/21 79/1/21 47/1/21
f 35/1/22 65/1/22 33/1/22
f 62/1/23 93/1/23 61/1/23
f 49/1/24 80/1/24 48/1/24
f 36/1/25 67/1/25 35/1/25
f 63/1/26 94/1/26 62/1/26
f 50/1/27 81/1/27 49/1/27
f 37/1/28 68/1/28 36/1/28
f 64/1/29 95/1/29 63/1/29
f 51/1/30 82/1/30 50/1/30
f 38/1/31 69/1/31 37/1/31
f 34/1/32 96/1/32 64/1/32
f 52/1/33 83/1/33 51/1/33
f 39/1/34 70/1/34 38/1/34
f 53/1/35 84/1/35 52/1/35
f 114/1/36 145/1/36 113/1/36
f 89/1/37 120/1/37 88/1/37
f 75/1/38 108/1/38 107/1/38
f 90/1/39 121/1/39 89/1/39
f 77/1/40 108/1/40 76/1/40
f 91/1/41 122/1/41 90/1/41
f 77/1/42 110/1/42 109/1/42
f 92/1/43 123/1/43 91/1/43
f 78/1/44 111/1/44 110/1/44
f 65/1/45 98/1/45 66/1/45
f 93/1/46 124/1/46 92/1/46
f 80/1/47 111/1/47 79/1/47
f 67/1/48 97/1/48 65/1/48
f 94/1/49 125/1/49 93/1/49
f 80/1/50 113/1/50 112/1/50
f 67/1/51 100/1/51 99/1/51
f 95/1/52 126/1/52 94/1/52
f 82/1/53 113/1/53 81/1/53
f 69/1/54 100/1/54 68/1/54
f 96/1/55 127/1/55 95/1/55
f 82/1/56 115/1/56 114/1/56
f 69/1/57 102/1/57 101/1/57
f 66/1/58 128/1/58 96/1/58
f 84/1/59 115/1/59 83/1/59
f 71/1/60 102/1/60 70/1/60
f 85/1/61 116/1/61 84/1/61
f 71/1/62 104/1/62 103/1/62
f 85/1/63 118/1/63 117/1/63
f 72/1/64 105/1/64 104/1/64
f 87/1/65 118/1/65 86/1/65
f 73/1/66 106/1/66 105/1/66
f 88/1/67 119/1/67 87/1/67
f 145/1/3 153/1/3 130/1/3
f 101/1/68 132/1/68 100/1/68
f 128/1/69 159/1/69 127/1/69
f 115/1/30 146/1/30 114/1/30
f 102/1/31 133/1/31 101/1/31
f 98/1/70 160/1/70 128/1/70
f 116/1/33 147/1/33 115/1/33
f 103/1/71 134/1/71 102/1/71
f 117/1/72 148/1/72 116/1/72
f 104/1/2 135/1/2 103/1/2
f 118/1/73 149/1/73 117/1/73
f 105/1/74 136/1/74 104/1/74
f 119/1/7 150/1/7 118/1/7
f 106/1/8 137/1/8 105/1/8
f 120/1/9 151/1/9 119/1/9
f 107/1/10 138/1/10 106/1/10
f 121/1/75 152/1/75 120/1/75
f 108/1/76 139/1/76 107/1/76
f 122/1/13 153/1/13 121/1/13
f 109/1/77 140/1/77 108/1/77
f 123/1/78 154/1/78 122/1/78
f 110/1/16 141/1/16 109/1/16
f 124/1/17 155/1/17 123/1/17
f 111/1/18 142/1/18 110/1/18
f 97/1/79 130/1/79 98/1/79
f 125/1/80 156/1/80 124/1/80
f 112/1/21 143/1/21 111/1/21
f 99/1/81 129/1/81 97/1/81
f 126/1/82 157/1/82 125/1/82
f 113/1/24 144/1/24 112/1/24
f 100/1/25 131/1/25 99/1/25
f 127/1/26 158/1/26 126/1/26
f 3/1/1 2/1/1 1/1/1
f 1/1/1 32/1/1 31/1/1
f 31/1/83 30/1/83 29/1/83
f 29/1/1 28/1/1 27/1/1
f 27/1/84 26/1/84 25/1/84
f 25/1/1 24/1/1 23/1/1
f 23/1/83 22/1/83 21/1/83
f 21/1/85 20/1/85 19/1/85
f 19/1/1 18/1/1 17/1/1
f 17/1/86 16/1/86 15/1/86
f 15/1/83 14/1/83 13/1/83
f 13/1/84 12/1/84 11/1/84
f 11/1/1 10/1/1 9/1/1
f 9/1/83 8/1/83 7/1/83
f 7/1/1 6/1/1 5/1/1
f 5/1/85 4/1/85 3/1/85
f 3/1/1 1/1/1 31/1/1
f 31/1/1 29/1/1 27/1/1
f 27/1/1 25/1/1 23/1/1
f 23/1/87 21/1/87 19/1/87
f 19/1/1 17/1/1 15/1/1
f 15/1/86 13/1/86 11/1/86
f 11/1/1 9/1/1 7/1/1
f 7/1/1 5/1/1 3/1/1
f 3/1/1 31/1/1 27/1/1
f 27/1/1 23/1/1 19/1/1
f 19/1/1 15/1/1 11/1/1
f 11/1/1 7/1/1 3/1/1
f 3/1/1 27/1/1 19/1/1
f 40/1/88 72/1/88 71/1/88
f 26/1/3 27/1/3 59/1/3
f 13/1/3 14/1/3 46/1/3
f 27/1/3 28/1/3 60/1/3
f 14/1/3 15/1/3 47/1/3
f 1/1/3 2/1/3 33/1/3
f 28/1/3 29/1/3 61/1/3
f 15/1/3 16/1/3 48/1/3
f 2/1/3 3/1/3 35/1/3
f 29/1/3 30/1/3 62/1/3
f 16/1/3 17/1/3 49/1/3
f 3/1/3 4/1/3 36/1/3
f 30/1/3 31/1/3 63/1/3
f 17/1/3 18/1/3 50/1/3
f 4/1/3 5/1/3 37/1/3
f 31/1/3 32/1/3 64/1/3
f 18/1/3 19/1/3 51/1/3
f 5/1/3 6/1/3 38/1/3
f 32/1/3 1/1/3 34/1/3
f 19/1/3 20/1/3 52/1/3
f 6/1/3 7/1/3 39/1/3
f 20/1/3 21/1/3 53/1/3
f 7/1/3 8/1/3 40/1/3
f 21/1/3 22/1/3 54/1/3
f 8/1/3 9/1/3 41/1/3
f 22/1/3 23/1/3 55/1/3
f 9/1/3 10/1/3 42/1/3
f 23/1/3 24/1/3 56/1/3
f 10/1/3 11/1/3 43/1/3
f 24/1/3 25/1/3 57/1/3
f 11/1/3 12/1/3 44/1/3
f 25/1/3 26/1/3 58/1/3
f 12/1/3 13/1/3 45/1/3
f 74/1/89 75/1/89 107/1/89
f 54/1/5 86/1/5 85/1/5
f 41/1/6 73/1/6 72/1/6
f 55/1/7 87/1/7 86/1/7
f 42/1/8 74/1/8 73/1/8
f 56/1/9 88/1/9 87/1/9
f 43/1/90 75/1/90 74/1/90
f 57/1/91 89/1/91 88/1/91
f 44/1/76 76/1/76 75/1/76
f 58/1/92 90/1/92 89/1/92
f 45/1/93 77/1/93 76/1/93
f 59/1/15 91/1/15 90/1/15
f 46/1/94 78/1/94 77/1/94
f 60/1/17 92/1/17 91/1/17
f 47/1/18 79/1/18 78/1/18
f 33/1/79 65/1/79 66/1/79
f 61/1/80 93/1/80 92/1/80
f 48/1/21 80/1/21 79/1/21
f 35/1/22 67/1/22 65/1/22
f 62/1/95 94/1/95 93/1/95
f 49/1/24 81/1/24 80/1/24
f 36/1/25 68/1/25 67/1/25
f 63/1/26 95/1/26 94/1/26
f 50/1/36 82/1/36 81/1/36
f 37/1/68 69/1/68 68/1/68
f 64/1/29 96/1/29 95/1/29
f 51/1/30 83/1/30 82/1/30
f 38/1/96 70/1/96 69/1/96
f 34/1/70 66/1/70 96/1/70
f 52/1/33 84/1/33 83/1/33
f 39/1/71 71/1/71 70/1/71
f 53/1/35 85/1/35 84/1/35
f 114/1/36 146/1/36 145/1/36
f 89/1/37 121/1/37 120/1/37
f 75/1/38 76/1/38 108/1/38
f 90/1/39 122/1/39 121/1/39
f 77/1/40 109/1/40 108/1/40
f 91/1/41 123/1/41 122/1/41
f 77/1/42 78/1/42 110/1/42
f 92/1/43 124/1/43 123/1/43
f 78/1/97 79/1/97 111/1/97
f 65/1/98 97/1/98 98/1/98
f 93/1/46 125/1/46 124/1/46
f 80/1/47 112/1/47 111/1/47
f 67/1/99 99/1/99 97/1/99
f 94/1/49 126/1/49 125/1/49
f 80/1/100 81/1/100 113/1/100
f 67/1/101 68/1/101 100/1/101
f 95/1/102 127/1/102 126/1/102
f 82/1/103 114/1/103 113/1/103
f 69/1/54 101/1/54 100/1/54
f 96/1/104 128/1/104 127/1/104
f 82/1/105 83/1/105 115/1/105
f 69/1/57 70/1/57 102/1/57
f 66/1/106 98/1/106 128/1/106
f 84/1/107 116/1/107 115/1/107
f 71/1/60 103/1/60 102/1/60
f 85/1/61 117/1/61 116/1/61
f 71/1/62 72/1/62 104/1/62
f 85/1/63 86/1/63 118/1/63
f 72/1/64 73/1/64 105/1/64
f 87/1/65 119/1/65 118/1/65
f 73/1/66 74/1/66 106/1/66
f 88/1/108 120/1/108 119/1/108
f 130/1/109 129/1/109 131/1/109
f 131/1/110 132/1/110 133/1/110
f 133/1/3 134/1/3 135/1/3
f 135/1/111 136/1/111 137/1/111
f 137/1/3 138/1/3 139/1/3
f 139/1/111 140/1/111 141/1/111
f 141/1/110 142/1/110 143/1/110
f 143/1/3 144/1/3 145/1/3
f 145/1/3 146/1/3 147/1/3
f 147/1/109 148/1/109 149/1/109
f 149/1/112 150/1/112 151/1/112
f 151/1/3 152/1/3 153/1/3
f 153/1/112 154/1/112 155/1/112
f 155/1/3 156/1/3 157/1/3
f 157/1/109 158/1/109 159/1/109
f 159/1/110 160/1/110 130/1/110
f 130/1/3 131/1/3 133/1/3
f 133/1/3 135/1/3 137/1/3
f 137/1/110 139/1/110 141/1/110
f 141/1/3 143/1/3 145/1/3
f 145/1/3 147/1/3 149/1/3
f 149/1/109 151/1/109 153/1/109
f 153/1/3 155/1/3 157/1/3
f 157/1/3 159/1/3 130/1/3
f 130/1/3 133/1/3 137/1/3
f 137/1/3 141/1/3 145/1/3
f 145/1/3 149/1/3 153/1/3
f 153/1/3 157/1/3 130/1/3
f 130/1/3 137/1/3 145/1/3
f 101/1/68 133/1/68 132/1/68
f 128/1/69 160/1/69 159/1/69
f 115/1/30 147/1/30 146/1/30
f 102/1/31 134/1/31 133/1/31
f 98/1/70 130/1/70 160/1/70
f 116/1/33 148/1/33 147/1/33
f 103/1/34 135/1/34 134/1/34
f 117/1/72 149/1/72 148/1/72
f 104/1/113 136/1/113 135/1/113
f 118/1/73 150/1/73 149/1/73
f 105/1/6 137/1/6 136/1/6
f 119/1/7 151/1/7 150/1/7
f 106/1/114 138/1/114 137/1/114
f 120/1/115 152/1/115 151/1/115
f 107/1/90 139/1/90 138/1/90
f 121/1/91 153/1/91 152/1/91
f 108/1/12 140/1/12 139/1/12
f 122/1/116 154/1/116 153/1/116
f 109/1/77 141/1/77 140/1/77
f 123/1/15 155/1/15 154/1/15
f 110/1/16 142/1/16 141/1/16
f 124/1/117 156/1/117 155/1/117
f 111/1/18 143/1/18 142/1/18
f 97/1/79 129/1/79 130/1/79
f 125/1/80 157/1/80 156/1/80
f 112/1/21 144/1/21 143/1/21
f 99/1/81 131/1/81 129/1/81
f 126/1/82 158/1/82 157/1/82
f 113/1/24 145/1/24 144/1/24
f 100/1/25 132/1/25 131/1/25
f 127/1/26 159/1/26 158/1/26
