# Blender 4.1.1
# www.blender.org
mtllib Circle.031.mtl
o Pipe.152
v 2012.929565 1352.621338 -2576.893555
v 2010.317749 1352.621338 -2576.636475
v 2007.806152 1352.621338 -2575.874512
v 2005.491577 1352.621338 -2574.637451
v 2003.462769 1352.621338 -2572.972656
v 2001.797852 1352.621338 -2570.943604
v 2000.560791 1352.621338 -2568.629150
v 1999.798828 1352.621338 -2566.117432
v 1999.541626 1352.621338 -2563.505615
v 1999.798828 1352.621338 -2560.894043
v 2000.560791 1352.621338 -2558.382324
v 2001.797852 1352.621338 -2556.067871
v 2003.462769 1352.621338 -2554.038818
v 2005.491577 1352.621338 -2552.374023
v 2007.806152 1352.621338 -2551.136963
v 2010.317749 1352.621338 -2550.375000
v 2012.929565 1352.621338 -2550.117920
v 2015.541382 1352.621338 -2550.375000
v 2018.052979 1352.621338 -2551.136963
v 2020.367554 1352.621338 -2552.374023
v 2022.396362 1352.621338 -2554.038818
v 2024.061157 1352.621338 -2556.067871
v 2025.298218 1352.621338 -2558.382324
v 2026.060181 1352.621338 -2560.894043
v 2026.317505 1352.621338 -2563.505615
v 2026.060181 1352.621338 -2566.117432
v 2025.298218 1352.621338 -2568.629150
v 2024.061157 1352.621338 -2570.943604
v 2022.396362 1352.621338 -2572.972656
v 2020.367554 1352.621338 -2574.637451
v 2018.052979 1352.621338 -2575.874512
v 2015.541382 1352.621338 -2576.636475
v 2010.317749 1352.621338 -2576.636475
v 2012.929565 1352.621338 -2576.893555
v 2007.806152 1352.621338 -2575.874512
v 2005.491577 1352.621338 -2574.637451
v 2003.462769 1352.621338 -2572.972656
v 2001.797852 1352.621338 -2570.943604
v 2000.560791 1352.621338 -2568.629150
v 1999.798828 1352.621338 -2566.117432
v 1999.541626 1352.621338 -2563.505615
v 1999.798828 1352.621338 -2560.894043
v 2000.560791 1352.621338 -2558.382324
v 2001.797852 1352.621338 -2556.067871
v 2003.462769 1352.621338 -2554.038818
v 2005.491577 1352.621338 -2552.374023
v 2007.806152 1352.621338 -2551.136963
v 2010.317749 1352.621338 -2550.375000
v 2012.929565 1352.621338 -2550.117920
v 2015.541382 1352.621338 -2550.375000
v 2018.052979 1352.621338 -2551.136963
v 2020.367554 1352.621338 -2552.374023
v 2022.396362 1352.621338 -2554.038818
v 2024.061157 1352.621338 -2556.067871
v 2025.298218 1352.621338 -2558.382324
v 2026.060181 1352.621338 -2560.894043
v 2026.317505 1352.621338 -2563.505615
v 2026.060181 1352.621338 -2566.117432
v 2025.298218 1352.621338 -2568.629150
v 2024.061157 1352.621338 -2570.943604
v 2022.396362 1352.621338 -2572.972656
v 2020.367554 1352.621338 -2574.637451
v 2018.052979 1352.621338 -2575.874512
v 2015.541382 1352.621338 -2576.636475
v 2010.317749 1391.585571 -2576.636475
v 2012.929565 1391.585571 -2576.893555
v 2007.806152 1391.585571 -2575.874512
v 2005.491577 1391.585571 -2574.637451
v 2003.462769 1391.585571 -2572.972656
v 2001.797852 1391.585571 -2570.943604
v 2000.560791 1391.585571 -2568.629150
v 1999.798828 1391.585571 -2566.117432
v 1999.541626 1391.585571 -2563.505615
v 1999.798828 1391.585571 -2560.894043
v 2000.560791 1391.585571 -2558.382324
v 2001.797852 1391.585571 -2556.067871
v 2003.462769 1391.585571 -2554.038818
v 2005.491577 1391.585571 -2552.374023
v 2007.806152 1391.585571 -2551.136963
v 2010.317749 1391.585571 -2550.375000
v 2012.929565 1391.585571 -2550.117920
v 2015.541382 1391.585571 -2550.375000
v 2018.052979 1391.585571 -2551.136963
v 2020.367554 1391.585571 -2552.374023
v 2022.396362 1391.585571 -2554.038818
v 2024.061157 1391.585571 -2556.067871
v 2025.298218 1391.585571 -2558.382324
v 2026.060181 1391.585571 -2560.894043
v 2026.317505 1391.585571 -2563.505615
v 2026.060181 1391.585571 -2566.117432
v 2025.298218 1391.585571 -2568.629150
v 2024.061157 1391.585571 -2570.943604
v 2022.396362 1391.585571 -2572.972656
v 2020.367554 1391.585571 -2574.637451
v 2018.052979 1391.585571 -2575.874512
v 2015.541382 1391.585571 -2576.636475
v 2008.505005 1392.149658 -2585.749756
v 2012.929565 1392.149658 -2586.185791
v 2004.250366 1392.149658 -2584.459229
v 2000.329468 1392.149658 -2582.363525
v 1996.892700 1392.149658 -2579.542969
v 1994.072144 1392.149658 -2576.106201
v 1991.976196 1392.149658 -2572.185303
v 1990.685791 1392.149658 -2567.930664
v 1990.249878 1392.149658 -2563.506104
v 1990.685791 1392.149658 -2559.081299
v 1991.976196 1392.149658 -2554.826904
v 1994.072144 1392.149658 -2550.905762
v 1996.892700 1392.149658 -2547.468994
v 2000.329468 1392.149658 -2544.648438
v 2004.250366 1392.149658 -2542.552734
v 2008.505005 1392.149658 -2541.262207
v 2012.929565 1392.149658 -2540.826416
v 2017.354126 1392.149658 -2541.262207
v 2021.608765 1392.149658 -2542.552734
v 2025.529663 1392.149658 -2544.648438
v 2028.966431 1392.149658 -2547.468994
v 2031.786987 1392.149658 -2550.905762
v 2033.882935 1392.149658 -2554.826904
v 2035.173218 1392.149658 -2559.081299
v 2035.609253 1392.149658 -2563.506104
v 2035.173218 1392.149658 -2567.930664
v 2033.882935 1392.149658 -2572.185303
v 2031.786987 1392.149658 -2576.106201
v 2028.966431 1392.149658 -2579.542969
v 2025.529663 1392.149658 -2582.363525
v 2021.608765 1392.149658 -2584.459229
v 2017.354126 1392.149658 -2585.749756
v 2008.505005 1400.991455 -2585.749756
v 2012.929565 1400.991455 -2586.185791
v 2004.250366 1400.991455 -2584.459229
v 2000.329468 1400.991455 -2582.363525
v 1996.892700 1400.991455 -2579.542969
v 1994.072144 1400.991455 -2576.106201
v 1991.976196 1400.991455 -2572.185303
v 1990.685791 1400.991455 -2567.930664
v 1990.249878 1400.991455 -2563.506104
v 1990.685791 1400.991455 -2559.081299
v 1991.976196 1400.991455 -2554.826904
v 1994.072144 1400.991455 -2550.905762
v 1996.892700 1400.991455 -2547.468994
v 2000.329468 1400.991455 -2544.648438
v 2004.250366 1400.991455 -2542.552734
v 2008.505005 1400.991455 -2541.262207
v 2012.929565 1400.991455 -2540.826416
v 2017.354126 1400.991455 -2541.262207
v 2021.608765 1400.991455 -2542.552734
v 2025.529663 1400.991455 -2544.648438
v 2028.966431 1400.991455 -2547.468994
v 2031.786987 1400.991455 -2550.905762
v 2033.882935 1400.991455 -2554.826904
v 2035.173218 1400.991455 -2559.081299
v 2035.609253 1400.991455 -2563.506104
v 2035.173218 1400.991455 -2567.930664
v 2033.882935 1400.991455 -2572.185303
v 2031.786987 1400.991455 -2576.106201
v 2028.966431 1400.991455 -2579.542969
v 2025.529663 1400.991455 -2582.363525
v 2021.608765 1400.991455 -2584.459229
v 2017.354126 1400.991455 -2585.749756
vn -0.0000 -1.0000 -0.0000
vn -0.9569 -0.0000 -0.2903
vn -0.0000 1.0000 -0.0000
vn -0.0583 -0.9981 0.0177
vn 0.7731 -0.0000 0.6343
vn -0.9952 -0.0000 -0.0979
vn 0.8819 -0.0000 0.4714
vn -0.9952 -0.0000 0.0980
vn 0.9569 -0.0000 0.2903
vn -0.9569 -0.0000 0.2904
vn 0.9952 -0.0000 0.0981
vn -0.8819 -0.0000 0.4714
vn 0.9952 -0.0000 -0.0979
vn -0.7730 -0.0000 0.6344
vn 0.9569 -0.0000 -0.2903
vn -0.6344 -0.0000 0.7730
vn 0.8819 -0.0000 -0.4714
vn -0.4714 -0.0000 0.8819
vn -0.0980 -0.0000 -0.9952
vn 0.7731 -0.0000 -0.6343
vn -0.2903 -0.0000 0.9569
vn -0.2903 -0.0000 -0.9569
vn 0.6344 -0.0000 -0.7730
vn -0.0980 -0.0000 0.9952
vn -0.4714 -0.0000 -0.8819
vn 0.4714 -0.0000 -0.8819
vn 0.0980 -0.0000 0.9952
vn -0.6343 -0.0000 -0.7731
vn 0.2903 -0.0000 -0.9569
vn 0.2903 -0.0000 0.9569
vn -0.7731 -0.0000 -0.6343
vn 0.0980 -0.0000 -0.9952
vn 0.4714 -0.0000 0.8819
vn -0.8820 -0.0000 -0.4713
vn 0.6343 -0.0000 0.7731
vn 0.0606 -0.9981 0.0060
vn -0.0537 -0.9981 0.0287
vn 0.0606 -0.9981 -0.0060
vn -0.0471 -0.9981 0.0386
vn 0.0583 -0.9981 -0.0177
vn -0.0386 -0.9981 0.0471
vn 0.0537 -0.9981 -0.0287
vn -0.0287 -0.9981 0.0537
vn -0.0059 -0.9981 -0.0606
vn 0.0471 -0.9981 -0.0386
vn -0.0177 -0.9981 0.0583
vn -0.0177 -0.9981 -0.0583
vn 0.0386 -0.9981 -0.0471
vn -0.0060 -0.9981 0.0606
vn -0.0287 -0.9981 -0.0537
vn 0.0287 -0.9981 -0.0537
vn 0.0059 -0.9981 0.0606
vn -0.0386 -0.9981 -0.0471
vn 0.0177 -0.9981 -0.0583
vn 0.0177 -0.9981 0.0583
vn -0.0470 -0.9981 -0.0386
vn 0.0060 -0.9981 -0.0606
vn 0.0287 -0.9981 0.0537
vn -0.0537 -0.9981 -0.0287
vn 0.0386 -0.9981 0.0471
vn -0.0583 -0.9981 -0.0177
vn 0.0470 -0.9981 0.0386
vn -0.0606 -0.9981 -0.0060
vn 0.0537 -0.9981 0.0287
vn -0.0606 -0.9981 0.0060
vn 0.0583 -0.9981 0.0177
vn -0.6344 -0.0000 -0.7730
vn 0.2902 -0.0000 0.9570
vn -0.7730 -0.0000 -0.6344
vn 0.0981 -0.0000 -0.9952
vn -0.8819 -0.0000 -0.4715
vn 0.6344 -0.0000 0.7730
vn -0.9570 -0.0000 -0.2902
vn 0.7730 -0.0000 0.6344
vn -0.9952 -0.0000 -0.0981
vn -0.9952 -0.0000 0.0981
vn -0.9569 -0.0000 0.2903
vn 0.9952 -0.0000 -0.0981
vn 0.9570 -0.0000 -0.2902
vn -0.0981 -0.0000 -0.9952
vn 0.7730 -0.0000 -0.6344
vn -0.2902 -0.0000 0.9570
vn 0.0001 -1.0000 -0.0000
vn 0.0004 -1.0000 -0.0000
vn -0.0004 -1.0000 -0.0000
vn 0.0002 -1.0000 -0.0000
vn -0.0001 -1.0000 -0.0000
vn -0.0002 -1.0000 -0.0000
vn -0.9569 -0.0000 -0.2904
vn 0.9952 -0.0000 0.0980
vn -0.8820 -0.0000 0.4713
vn -0.7731 -0.0000 0.6343
vn -0.6343 -0.0000 0.7731
vn 0.6343 -0.0000 -0.7731
vn -0.8819 -0.0000 -0.4714
vn -0.0470 -0.9981 0.0386
vn 0.0582 -0.9981 -0.0177
vn -0.0060 -0.9981 -0.0606
vn 0.0470 -0.9981 -0.0386
vn -0.0059 -0.9981 0.0606
vn 0.0060 -0.9981 0.0606
vn -0.0471 -0.9981 -0.0386
vn 0.0059 -0.9981 -0.0606
vn 0.0471 -0.9981 0.0386
vn 0.0582 -0.9981 0.0177
vn 0.0001 1.0000 -0.0000
vn -0.0003 1.0000 -0.0000
vn -0.0001 1.0000 -0.0000
vn 0.0003 1.0000 -0.0000
vn 0.2902 -0.0000 -0.9570
vn 0.9570 -0.0000 0.2902
vn -0.9570 -0.0000 0.2902
vn -0.8819 -0.0000 0.4715
vn -0.2902 -0.0000 -0.9570
vt 0.000000 0.000000
s 0
usemtl Material.003
f 19/1/1 11/1/1 3/1/1
f 40/1/2 71/1/2 39/1/2
f 26/1/3 59/1/3 58/1/3
f 13/1/3 46/1/3 45/1/3
f 27/1/3 60/1/3 59/1/3
f 14/1/3 47/1/3 46/1/3
f 1/1/3 33/1/3 34/1/3
f 28/1/3 61/1/3 60/1/3
f 15/1/3 48/1/3 47/1/3
f 2/1/3 35/1/3 33/1/3
f 29/1/3 62/1/3 61/1/3
f 16/1/3 49/1/3 48/1/3
f 3/1/3 36/1/3 35/1/3
f 30/1/3 63/1/3 62/1/3
f 17/1/3 50/1/3 49/1/3
f 4/1/3 37/1/3 36/1/3
f 31/1/3 64/1/3 63/1/3
f 18/1/3 51/1/3 50/1/3
f 5/1/3 38/1/3 37/1/3
f 32/1/3 34/1/3 64/1/3
f 19/1/3 52/1/3 51/1/3
f 6/1/3 39/1/3 38/1/3
f 20/1/3 53/1/3 52/1/3
f 7/1/3 40/1/3 39/1/3
f 21/1/3 54/1/3 53/1/3
f 8/1/3 41/1/3 40/1/3
f 22/1/3 55/1/3 54/1/3
f 9/1/3 42/1/3 41/1/3
f 23/1/3 56/1/3 55/1/3
f 10/1/3 43/1/3 42/1/3
f 24/1/3 57/1/3 56/1/3
f 11/1/3 44/1/3 43/1/3
f 25/1/3 58/1/3 57/1/3
f 12/1/3 45/1/3 44/1/3
f 75/1/4 106/1/4 74/1/4
f 54/1/5 85/1/5 53/1/5
f 41/1/6 72/1/6 40/1/6
f 55/1/7 86/1/7 54/1/7
f 42/1/8 73/1/8 41/1/8
f 56/1/9 87/1/9 55/1/9
f 43/1/10 74/1/10 42/1/10
f 57/1/11 88/1/11 56/1/11
f 44/1/12 75/1/12 43/1/12
f 58/1/13 89/1/13 57/1/13
f 45/1/14 76/1/14 44/1/14
f 59/1/15 90/1/15 58/1/15
f 46/1/16 77/1/16 45/1/16
f 60/1/17 91/1/17 59/1/17
f 47/1/18 78/1/18 46/1/18
f 33/1/19 66/1/19 34/1/19
f 61/1/20 92/1/20 60/1/20
f 48/1/21 79/1/21 47/1/21
f 35/1/22 65/1/22 33/1/22
f 62/1/23 93/1/23 61/1/23
f 49/1/24 80/1/24 48/1/24
f 36/1/25 67/1/25 35/1/25
f 63/1/26 94/1/26 62/1/26
f 50/1/27 81/1/27 49/1/27
f 37/1/28 68/1/28 36/1/28
f 64/1/29 95/1/29 63/1/29
f 51/1/30 82/1/30 50/1/30
f 38/1/31 69/1/31 37/1/31
f 34/1/32 96/1/32 64/1/32
f 52/1/33 83/1/33 51/1/33
f 39/1/34 70/1/34 38/1/34
f 53/1/35 84/1/35 52/1/35
f 114/1/27 145/1/27 113/1/27
f 89/1/36 120/1/36 88/1/36
f 75/1/37 108/1/37 107/1/37
f 89/1/38 122/1/38 121/1/38
f 77/1/39 108/1/39 76/1/39
f 91/1/40 122/1/40 90/1/40
f 77/1/41 110/1/41 109/1/41
f 91/1/42 124/1/42 123/1/42
f 79/1/43 110/1/43 78/1/43
f 65/1/44 98/1/44 66/1/44
f 93/1/45 124/1/45 92/1/45
f 79/1/46 112/1/46 111/1/46
f 67/1/47 97/1/47 65/1/47
f 94/1/48 125/1/48 93/1/48
f 80/1/49 113/1/49 112/1/49
f 68/1/50 99/1/50 67/1/50
f 94/1/51 127/1/51 126/1/51
f 82/1/52 113/1/52 81/1/52
f 69/1/53 100/1/53 68/1/53
f 96/1/54 127/1/54 95/1/54
f 83/1/55 114/1/55 82/1/55
f 69/1/56 102/1/56 101/1/56
f 96/1/57 98/1/57 128/1/57
f 84/1/58 115/1/58 83/1/58
f 70/1/59 103/1/59 102/1/59
f 85/1/60 116/1/60 84/1/60
f 71/1/61 104/1/61 103/1/61
f 85/1/62 118/1/62 117/1/62
f 72/1/63 105/1/63 104/1/63
f 87/1/64 118/1/64 86/1/64
f 73/1/65 106/1/65 105/1/65
f 88/1/66 119/1/66 87/1/66
f 145/1/3 153/1/3 130/1/3
f 101/1/67 132/1/67 100/1/67
f 128/1/29 159/1/29 127/1/29
f 115/1/68 146/1/68 114/1/68
f 102/1/69 133/1/69 101/1/69
f 98/1/70 160/1/70 128/1/70
f 116/1/33 147/1/33 115/1/33
f 103/1/71 134/1/71 102/1/71
f 117/1/72 148/1/72 116/1/72
f 104/1/73 135/1/73 103/1/73
f 118/1/74 149/1/74 117/1/74
f 105/1/75 136/1/75 104/1/75
f 119/1/7 150/1/7 118/1/7
f 106/1/76 137/1/76 105/1/76
f 120/1/9 151/1/9 119/1/9
f 107/1/77 138/1/77 106/1/77
f 121/1/11 152/1/11 120/1/11
f 108/1/12 139/1/12 107/1/12
f 122/1/78 153/1/78 121/1/78
f 109/1/14 140/1/14 108/1/14
f 123/1/79 154/1/79 122/1/79
f 110/1/16 141/1/16 109/1/16
f 124/1/17 155/1/17 123/1/17
f 111/1/18 142/1/18 110/1/18
f 97/1/80 130/1/80 98/1/80
f 125/1/81 156/1/81 124/1/81
f 112/1/82 143/1/82 111/1/82
f 99/1/22 129/1/22 97/1/22
f 126/1/23 157/1/23 125/1/23
f 113/1/24 144/1/24 112/1/24
f 100/1/25 131/1/25 99/1/25
f 127/1/26 158/1/26 126/1/26
f 3/1/83 2/1/83 1/1/83
f 1/1/1 32/1/1 31/1/1
f 31/1/84 30/1/84 29/1/84
f 29/1/1 28/1/1 27/1/1
f 27/1/85 26/1/85 25/1/85
f 25/1/1 24/1/1 23/1/1
f 23/1/1 22/1/1 21/1/1
f 21/1/86 20/1/86 19/1/86
f 19/1/87 18/1/87 17/1/87
f 17/1/1 16/1/1 15/1/1
f 15/1/85 14/1/85 13/1/85
f 13/1/1 12/1/1 11/1/1
f 11/1/1 10/1/1 9/1/1
f 9/1/84 8/1/84 7/1/84
f 7/1/1 6/1/1 5/1/1
f 5/1/88 4/1/88 3/1/88
f 3/1/1 1/1/1 31/1/1
f 31/1/87 29/1/87 27/1/87
f 27/1/87 25/1/87 23/1/87
f 23/1/1 21/1/1 19/1/1
f 19/1/1 17/1/1 15/1/1
f 15/1/83 13/1/83 11/1/83
f 11/1/83 9/1/83 7/1/83
f 7/1/1 5/1/1 3/1/1
f 3/1/1 31/1/1 27/1/1
f 27/1/1 23/1/1 19/1/1
f 19/1/1 15/1/1 11/1/1
f 11/1/1 7/1/1 3/1/1
f 3/1/1 27/1/1 19/1/1
f 40/1/89 72/1/89 71/1/89
f 26/1/3 27/1/3 59/1/3
f 13/1/3 14/1/3 46/1/3
f 27/1/3 28/1/3 60/1/3
f 14/1/3 15/1/3 47/1/3
f 1/1/3 2/1/3 33/1/3
f 28/1/3 29/1/3 61/1/3
f 15/1/3 16/1/3 48/1/3
f 2/1/3 3/1/3 35/1/3
f 29/1/3 30/1/3 62/1/3
f 16/1/3 17/1/3 49/1/3
f 3/1/3 4/1/3 36/1/3
f 30/1/3 31/1/3 63/1/3
f 17/1/3 18/1/3 50/1/3
f 4/1/3 5/1/3 37/1/3
f 31/1/3 32/1/3 64/1/3
f 18/1/3 19/1/3 51/1/3
f 5/1/3 6/1/3 38/1/3
f 32/1/3 1/1/3 34/1/3
f 19/1/3 20/1/3 52/1/3
f 6/1/3 7/1/3 39/1/3
f 20/1/3 21/1/3 53/1/3
f 7/1/3 8/1/3 40/1/3
f 21/1/3 22/1/3 54/1/3
f 8/1/3 9/1/3 41/1/3
f 22/1/3 23/1/3 55/1/3
f 9/1/3 10/1/3 42/1/3
f 23/1/3 24/1/3 56/1/3
f 10/1/3 11/1/3 43/1/3
f 24/1/3 25/1/3 57/1/3
f 11/1/3 12/1/3 44/1/3
f 25/1/3 26/1/3 58/1/3
f 12/1/3 13/1/3 45/1/3
f 75/1/4 107/1/4 106/1/4
f 54/1/5 86/1/5 85/1/5
f 41/1/6 73/1/6 72/1/6
f 55/1/7 87/1/7 86/1/7
f 42/1/8 74/1/8 73/1/8
f 56/1/9 88/1/9 87/1/9
f 43/1/77 75/1/77 74/1/77
f 57/1/90 89/1/90 88/1/90
f 44/1/91 76/1/91 75/1/91
f 58/1/78 90/1/78 89/1/78
f 45/1/92 77/1/92 76/1/92
f 59/1/15 91/1/15 90/1/15
f 46/1/93 78/1/93 77/1/93
f 60/1/17 92/1/17 91/1/17
f 47/1/18 79/1/18 78/1/18
f 33/1/19 65/1/19 66/1/19
f 61/1/20 93/1/20 92/1/20
f 48/1/21 80/1/21 79/1/21
f 35/1/22 67/1/22 65/1/22
f 62/1/94 94/1/94 93/1/94
f 49/1/24 81/1/24 80/1/24
f 36/1/25 68/1/25 67/1/25
f 63/1/26 95/1/26 94/1/26
f 50/1/27 82/1/27 81/1/27
f 37/1/67 69/1/67 68/1/67
f 64/1/29 96/1/29 95/1/29
f 51/1/30 83/1/30 82/1/30
f 38/1/69 70/1/69 69/1/69
f 34/1/32 66/1/32 96/1/32
f 52/1/33 84/1/33 83/1/33
f 39/1/95 71/1/95 70/1/95
f 53/1/72 85/1/72 84/1/72
f 114/1/27 146/1/27 145/1/27
f 89/1/36 121/1/36 120/1/36
f 75/1/37 76/1/37 108/1/37
f 89/1/38 90/1/38 122/1/38
f 77/1/96 109/1/96 108/1/96
f 91/1/97 123/1/97 122/1/97
f 77/1/41 78/1/41 110/1/41
f 91/1/42 92/1/42 124/1/42
f 79/1/43 111/1/43 110/1/43
f 65/1/98 97/1/98 98/1/98
f 93/1/99 125/1/99 124/1/99
f 79/1/46 80/1/46 112/1/46
f 67/1/47 99/1/47 97/1/47
f 94/1/48 126/1/48 125/1/48
f 80/1/100 81/1/100 113/1/100
f 68/1/50 100/1/50 99/1/50
f 94/1/51 95/1/51 127/1/51
f 82/1/101 114/1/101 113/1/101
f 69/1/53 101/1/53 100/1/53
f 96/1/54 128/1/54 127/1/54
f 83/1/55 115/1/55 114/1/55
f 69/1/102 70/1/102 102/1/102
f 96/1/103 66/1/103 98/1/103
f 84/1/58 116/1/58 115/1/58
f 70/1/59 71/1/59 103/1/59
f 85/1/60 117/1/60 116/1/60
f 71/1/61 72/1/61 104/1/61
f 85/1/104 86/1/104 118/1/104
f 72/1/63 73/1/63 105/1/63
f 87/1/64 119/1/64 118/1/64
f 73/1/65 74/1/65 106/1/65
f 88/1/105 120/1/105 119/1/105
f 130/1/3 129/1/3 131/1/3
f 131/1/106 132/1/106 133/1/106
f 133/1/107 134/1/107 135/1/107
f 135/1/107 136/1/107 137/1/107
f 137/1/3 138/1/3 139/1/3
f 139/1/3 140/1/3 141/1/3
f 141/1/106 142/1/106 143/1/106
f 143/1/3 144/1/3 145/1/3
f 145/1/3 146/1/3 147/1/3
f 147/1/108 148/1/108 149/1/108
f 149/1/3 150/1/3 151/1/3
f 151/1/3 152/1/3 153/1/3
f 153/1/109 154/1/109 155/1/109
f 155/1/109 156/1/109 157/1/109
f 157/1/108 158/1/108 159/1/108
f 159/1/3 160/1/3 130/1/3
f 130/1/3 131/1/3 133/1/3
f 133/1/3 135/1/3 137/1/3
f 137/1/3 139/1/3 141/1/3
f 141/1/3 143/1/3 145/1/3
f 145/1/3 147/1/3 149/1/3
f 149/1/3 151/1/3 153/1/3
f 153/1/3 155/1/3 157/1/3
f 157/1/3 159/1/3 130/1/3
f 130/1/3 133/1/3 137/1/3
f 137/1/3 141/1/3 145/1/3
f 145/1/3 149/1/3 153/1/3
f 153/1/3 157/1/3 130/1/3
f 130/1/3 137/1/3 145/1/3
f 101/1/67 133/1/67 132/1/67
f 128/1/110 160/1/110 159/1/110
f 115/1/30 147/1/30 146/1/30
f 102/1/69 134/1/69 133/1/69
f 98/1/70 130/1/70 160/1/70
f 116/1/33 148/1/33 147/1/33
f 103/1/95 135/1/95 134/1/95
f 117/1/72 149/1/72 148/1/72
f 104/1/2 136/1/2 135/1/2
f 118/1/74 150/1/74 149/1/74
f 105/1/75 137/1/75 136/1/75
f 119/1/7 151/1/7 150/1/7
f 106/1/76 138/1/76 137/1/76
f 120/1/111 152/1/111 151/1/111
f 107/1/112 139/1/112 138/1/112
f 121/1/11 153/1/11 152/1/11
f 108/1/113 140/1/113 139/1/113
f 122/1/78 154/1/78 153/1/78
f 109/1/14 141/1/14 140/1/14
f 123/1/15 155/1/15 154/1/15
f 110/1/16 142/1/16 141/1/16
f 124/1/17 156/1/17 155/1/17
f 111/1/18 143/1/18 142/1/18
f 97/1/80 129/1/80 130/1/80
f 125/1/81 157/1/81 156/1/81
f 112/1/21 144/1/21 143/1/21
f 99/1/114 131/1/114 129/1/114
f 126/1/23 158/1/23 157/1/23
f 113/1/24 145/1/24 144/1/24
f 100/1/25 132/1/25 131/1/25
f 127/1/26 159/1/26 158/1/26
