# Blender 4.1.1
# www.blender.org
mtllib Circle.733.mtl
o Circle.021
v -1005.883179 768.208618 -489.027344
v -1008.052917 768.208618 -488.813660
v -1010.139282 768.208618 -488.180756
v -1012.062073 768.208618 -487.153015
v -1013.747375 768.208618 -485.769897
v -1015.130493 768.208618 -484.084534
v -1016.158264 768.208618 -482.161743
v -1016.791138 768.208618 -480.075409
v -1017.004883 768.208618 -477.905670
v -1016.791138 768.208618 -475.735931
v -1016.158264 768.208618 -473.649597
v -1015.130493 768.208618 -471.726807
v -1013.747375 768.208618 -470.041443
v -1012.062073 768.208618 -468.658325
v -1010.139282 768.208618 -467.630585
v -1008.052917 768.208618 -466.997681
v -1005.883179 768.208618 -466.783997
v -1003.713440 768.208618 -466.997681
v -1001.627075 768.208618 -467.630585
v -999.704285 768.208618 -468.658325
v -998.018982 768.208618 -470.041443
v -996.635864 768.208618 -471.726807
v -995.608093 768.208618 -473.649597
v -994.975220 768.208618 -475.735931
v -994.761475 768.208618 -477.905670
v -994.975220 768.208618 -480.075409
v -995.608093 768.208618 -482.161743
v -996.635864 768.208618 -484.084534
v -998.018982 768.208618 -485.769897
v -999.704285 768.208618 -487.153015
v -1001.627075 768.208618 -488.180756
v -1003.713440 768.208618 -488.813660
v -1008.052917 768.208618 -488.813660
v -1005.883179 768.208618 -489.027344
v -1010.139282 768.208618 -488.180756
v -1012.062073 768.208618 -487.153015
v -1013.747375 768.208618 -485.769897
v -1015.130493 768.208618 -484.084534
v -1016.158264 768.208618 -482.161743
v -1016.791138 768.208618 -480.075409
v -1017.004883 768.208618 -477.905670
v -1016.791138 768.208618 -475.735931
v -1016.158264 768.208618 -473.649597
v -1015.130493 768.208618 -471.726807
v -1013.747375 768.208618 -470.041443
v -1012.062073 768.208618 -468.658325
v -1010.139282 768.208618 -467.630585
v -1008.052917 768.208618 -466.997681
v -1005.883179 768.208618 -466.783997
v -1003.713440 768.208618 -466.997681
v -1001.627075 768.208618 -467.630585
v -999.704285 768.208618 -468.658325
v -998.018982 768.208618 -470.041443
v -996.635864 768.208618 -471.726807
v -995.608093 768.208618 -473.649597
v -994.975220 768.208618 -475.735931
v -994.761475 768.208618 -477.905670
v -994.975220 768.208618 -480.075409
v -995.608093 768.208618 -482.161743
v -996.635864 768.208618 -484.084534
v -998.018982 768.208618 -485.769897
v -999.704285 768.208618 -487.153015
v -1001.627075 768.208618 -488.180756
v -1003.713440 768.208618 -488.813660
v -1008.052917 797.569885 -488.813660
v -1005.883179 797.569885 -489.027344
v -1010.139282 797.569885 -488.180756
v -1012.062073 797.569885 -487.153015
v -1013.747375 797.569885 -485.769897
v -1015.130493 797.569885 -484.084534
v -1016.158264 797.569885 -482.161743
v -1016.791138 797.569885 -480.075409
v -1017.004883 797.569885 -477.905670
v -1016.791138 797.569885 -475.735931
v -1016.158264 797.569885 -473.649597
v -1015.130493 797.569885 -471.726807
v -1013.747375 797.569885 -470.041443
v -1012.062073 797.569885 -468.658325
v -1010.139282 797.569885 -467.630585
v -1008.052917 797.569885 -466.997681
v -1005.883179 797.569885 -466.783997
v -1003.713440 797.569885 -466.997681
v -1001.627075 797.569885 -467.630585
v -999.704285 797.569885 -468.658325
v -998.018982 797.569885 -470.041443
v -996.635864 797.569885 -471.726807
v -995.608093 797.569885 -473.649597
v -994.975220 797.569885 -475.735931
v -994.761475 797.569885 -477.905670
v -994.975220 797.569885 -480.075409
v -995.608093 797.569885 -482.161743
v -996.635864 797.569885 -484.084534
v -998.018982 797.569885 -485.769897
v -999.704285 797.569885 -487.153015
v -1001.627075 797.569885 -488.180756
v -1003.713440 797.569885 -488.813660
v -1009.548523 798.921021 -496.334351
v -1005.882935 798.921021 -496.695404
v -1013.073303 798.921021 -495.265137
v -1016.321716 798.921021 -493.528839
v -1019.168945 798.921021 -491.192139
v -1021.505615 798.921021 -488.344879
v -1023.241943 798.921021 -485.096466
v -1024.311157 798.921021 -481.571747
v -1024.672241 798.921021 -477.906128
v -1024.311157 798.921021 -474.240540
v -1023.241943 798.921021 -470.715790
v -1021.505615 798.921021 -467.467377
v -1019.168945 798.921021 -464.620117
v -1016.321716 798.921021 -462.283447
v -1013.073303 798.921021 -460.547119
v -1009.548523 798.921021 -459.477905
v -1005.882935 798.921021 -459.116882
v -1002.217346 798.921021 -459.477905
v -998.692627 798.921021 -460.547119
v -995.444214 798.921021 -462.283447
v -992.596924 798.921021 -464.620117
v -990.260254 798.921021 -467.467377
v -988.523926 798.921021 -470.715790
v -987.454712 798.921021 -474.240540
v -987.093689 798.921021 -477.906128
v -987.454712 798.921021 -481.571747
v -988.523926 798.921021 -485.096466
v -990.260254 798.921021 -488.344879
v -992.596924 798.921021 -491.192139
v -995.444214 798.921021 -493.528839
v -998.692627 798.921021 -495.265137
v -1002.217346 798.921021 -496.334351
v -1009.548523 808.886780 -496.334351
v -1005.882935 808.886780 -496.695404
v -1013.073303 808.886780 -495.265137
v -1016.321716 808.886780 -493.528839
v -1019.168945 808.886780 -491.192139
v -1021.505615 808.886780 -488.344879
v -1023.241943 808.886780 -485.096466
v -1024.311157 808.886780 -481.571747
v -1024.672241 808.886780 -477.906128
v -1024.311157 808.886780 -474.240540
v -1023.241943 808.886780 -470.715790
v -1021.505615 808.886780 -467.467377
v -1019.168945 808.886780 -464.620117
v -1016.321716 808.886780 -462.283447
v -1013.073303 808.886780 -460.547119
v -1009.548523 808.886780 -459.477905
v -1005.882935 808.886780 -459.116882
v -1002.217346 808.886780 -459.477905
v -998.692627 808.886780 -460.547119
v -995.444214 808.886780 -462.283447
v -992.596924 808.886780 -464.620117
v -990.260254 808.886780 -467.467377
v -988.523926 808.886780 -470.715790
v -987.454712 808.886780 -474.240540
v -987.093689 808.886780 -477.906128
v -987.454712 808.886780 -481.571747
v -988.523926 808.886780 -485.096466
v -990.260254 808.886780 -488.344879
v -992.596924 808.886780 -491.192139
v -995.444214 808.886780 -493.528839
v -998.692627 808.886780 -495.265137
v -1002.217346 808.886780 -496.334351
vn -0.0000 -1.0000 -0.0000
vn -0.0980 -0.0000 0.9952
vn -0.0000 1.0000 -0.0000
vn 0.0822 -0.9847 0.1538
vn -0.4714 -0.0000 -0.8819
vn 0.4714 -0.0000 -0.8819
vn 0.0980 -0.0000 0.9952
vn -0.6344 -0.0000 -0.7730
vn 0.2903 -0.0000 -0.9569
vn 0.2903 -0.0000 0.9569
vn -0.7730 -0.0000 -0.6344
vn 0.0980 -0.0000 -0.9952
vn 0.4714 -0.0000 0.8819
vn -0.8819 -0.0000 -0.4714
vn 0.6344 -0.0000 0.7730
vn -0.9569 -0.0000 -0.2903
vn 0.7730 -0.0000 0.6344
vn -0.9952 -0.0000 -0.0981
vn 0.8819 -0.0000 0.4714
vn -0.9952 -0.0000 0.0981
vn 0.9569 -0.0000 0.2903
vn -0.9570 -0.0000 0.2902
vn 0.9952 -0.0000 0.0980
vn -0.8819 -0.0000 0.4713
vn 0.9952 -0.0000 -0.0981
vn -0.7730 -0.0000 0.6344
vn 0.9569 -0.0000 -0.2903
vn -0.6344 -0.0000 0.7730
vn 0.8819 -0.0000 -0.4714
vn -0.4714 -0.0000 0.8819
vn -0.0980 -0.0000 -0.9952
vn 0.7730 -0.0000 -0.6344
vn -0.2903 -0.0000 0.9569
vn -0.2903 -0.0000 -0.9569
vn 0.6344 -0.0000 -0.7730
vn -0.1538 -0.9847 -0.0822
vn 0.1107 -0.9847 0.1348
vn -0.1668 -0.9847 -0.0506
vn 0.1348 -0.9847 0.1106
vn -0.1735 -0.9847 -0.0171
vn 0.1538 -0.9847 0.0822
vn -0.1735 -0.9847 0.0171
vn 0.1669 -0.9847 0.0506
vn -0.1668 -0.9847 0.0506
vn 0.1735 -0.9847 0.0171
vn -0.1538 -0.9847 0.0822
vn 0.1735 -0.9847 -0.0171
vn -0.1348 -0.9847 0.1106
vn 0.1668 -0.9847 -0.0506
vn -0.1106 -0.9847 0.1348
vn 0.1538 -0.9847 -0.0822
vn -0.0822 -0.9847 0.1538
vn -0.0171 -0.9847 -0.1735
vn 0.1348 -0.9847 -0.1106
vn -0.0506 -0.9847 0.1669
vn -0.0506 -0.9847 -0.1668
vn 0.1106 -0.9847 -0.1348
vn -0.0171 -0.9847 0.1735
vn -0.0822 -0.9847 -0.1537
vn 0.0822 -0.9847 -0.1538
vn 0.0171 -0.9847 0.1735
vn -0.1106 -0.9847 -0.1348
vn 0.0506 -0.9847 -0.1668
vn 0.0506 -0.9847 0.1668
vn -0.1348 -0.9847 -0.1106
vn 0.0171 -0.9847 -0.1735
vn -0.9952 -0.0000 0.0980
vn 0.9952 -0.0000 0.0981
vn -0.8819 -0.0000 0.4714
vn 0.9952 -0.0000 -0.0980
vn -0.0001 -1.0000 -0.0000
vn 0.0001 -1.0000 -0.0000
vn -0.8819 -0.0000 -0.4713
vn -0.9570 -0.0000 -0.2902
vn -0.9569 -0.0000 0.2903
vn 0.1106 -0.9847 0.1348
vn -0.1669 -0.9847 -0.0506
vn 0.1668 -0.9847 0.0506
vn -0.1669 -0.9847 0.0506
vn -0.0822 -0.9847 -0.1538
vn 0.0506 -0.9847 0.1669
vn 0.0170 -0.9847 -0.1735
vn 0.0001 1.0000 -0.0000
vn -0.0001 1.0000 -0.0000
vn -0.9952 -0.0000 -0.0980
vt 0.000000 0.000000
s 0
usemtl Material.003
f 19/1/1 11/1/1 3/1/1
f 49/1/2 80/1/2 48/1/2
f 8/1/3 41/1/3 40/1/3
f 22/1/3 55/1/3 54/1/3
f 9/1/3 42/1/3 41/1/3
f 23/1/3 56/1/3 55/1/3
f 10/1/3 43/1/3 42/1/3
f 24/1/3 57/1/3 56/1/3
f 11/1/3 44/1/3 43/1/3
f 25/1/3 58/1/3 57/1/3
f 12/1/3 45/1/3 44/1/3
f 26/1/3 59/1/3 58/1/3
f 13/1/3 46/1/3 45/1/3
f 27/1/3 60/1/3 59/1/3
f 14/1/3 47/1/3 46/1/3
f 1/1/3 33/1/3 34/1/3
f 28/1/3 61/1/3 60/1/3
f 15/1/3 48/1/3 47/1/3
f 2/1/3 35/1/3 33/1/3
f 29/1/3 62/1/3 61/1/3
f 16/1/3 49/1/3 48/1/3
f 3/1/3 36/1/3 35/1/3
f 30/1/3 63/1/3 62/1/3
f 17/1/3 50/1/3 49/1/3
f 4/1/3 37/1/3 36/1/3
f 31/1/3 64/1/3 63/1/3
f 18/1/3 51/1/3 50/1/3
f 5/1/3 38/1/3 37/1/3
f 32/1/3 34/1/3 64/1/3
f 19/1/3 52/1/3 51/1/3
f 6/1/3 39/1/3 38/1/3
f 20/1/3 53/1/3 52/1/3
f 7/1/3 40/1/3 39/1/3
f 21/1/3 54/1/3 53/1/3
f 84/1/4 115/1/4 83/1/4
f 36/1/5 67/1/5 35/1/5
f 63/1/6 94/1/6 62/1/6
f 50/1/7 81/1/7 49/1/7
f 37/1/8 68/1/8 36/1/8
f 64/1/9 95/1/9 63/1/9
f 51/1/10 82/1/10 50/1/10
f 38/1/11 69/1/11 37/1/11
f 34/1/12 96/1/12 64/1/12
f 52/1/13 83/1/13 51/1/13
f 39/1/14 70/1/14 38/1/14
f 53/1/15 84/1/15 52/1/15
f 40/1/16 71/1/16 39/1/16
f 54/1/17 85/1/17 53/1/17
f 41/1/18 72/1/18 40/1/18
f 55/1/19 86/1/19 54/1/19
f 42/1/20 73/1/20 41/1/20
f 56/1/21 87/1/21 55/1/21
f 43/1/22 74/1/22 42/1/22
f 57/1/23 88/1/23 56/1/23
f 44/1/24 75/1/24 43/1/24
f 58/1/25 89/1/25 57/1/25
f 45/1/26 76/1/26 44/1/26
f 59/1/27 90/1/27 58/1/27
f 46/1/28 77/1/28 45/1/28
f 60/1/29 91/1/29 59/1/29
f 47/1/30 78/1/30 46/1/30
f 33/1/31 66/1/31 34/1/31
f 61/1/32 92/1/32 60/1/32
f 48/1/33 79/1/33 47/1/33
f 35/1/34 65/1/34 33/1/34
f 62/1/35 93/1/35 61/1/35
f 119/1/19 150/1/19 118/1/19
f 70/1/36 103/1/36 102/1/36
f 85/1/37 116/1/37 84/1/37
f 71/1/38 104/1/38 103/1/38
f 86/1/39 117/1/39 85/1/39
f 72/1/40 105/1/40 104/1/40
f 87/1/41 118/1/41 86/1/41
f 73/1/42 106/1/42 105/1/42
f 88/1/43 119/1/43 87/1/43
f 74/1/44 107/1/44 106/1/44
f 89/1/45 120/1/45 88/1/45
f 75/1/46 108/1/46 107/1/46
f 90/1/47 121/1/47 89/1/47
f 76/1/48 109/1/48 108/1/48
f 91/1/49 122/1/49 90/1/49
f 78/1/50 109/1/50 77/1/50
f 92/1/51 123/1/51 91/1/51
f 79/1/52 110/1/52 78/1/52
f 66/1/53 97/1/53 98/1/53
f 93/1/54 124/1/54 92/1/54
f 80/1/55 111/1/55 79/1/55
f 65/1/56 99/1/56 97/1/56
f 94/1/57 125/1/57 93/1/57
f 81/1/58 112/1/58 80/1/58
f 67/1/59 100/1/59 99/1/59
f 94/1/60 127/1/60 126/1/60
f 82/1/61 113/1/61 81/1/61
f 68/1/62 101/1/62 100/1/62
f 95/1/63 128/1/63 127/1/63
f 83/1/64 114/1/64 82/1/64
f 69/1/65 102/1/65 101/1/65
f 96/1/66 98/1/66 128/1/66
f 145/1/3 153/1/3 130/1/3
f 106/1/67 137/1/67 105/1/67
f 120/1/21 151/1/21 119/1/21
f 107/1/22 138/1/22 106/1/22
f 121/1/68 152/1/68 120/1/68
f 108/1/69 139/1/69 107/1/69
f 122/1/70 153/1/70 121/1/70
f 109/1/26 140/1/26 108/1/26
f 123/1/27 154/1/27 122/1/27
f 110/1/28 141/1/28 109/1/28
f 124/1/29 155/1/29 123/1/29
f 111/1/30 142/1/30 110/1/30
f 97/1/31 130/1/31 98/1/31
f 125/1/32 156/1/32 124/1/32
f 112/1/33 143/1/33 111/1/33
f 99/1/34 129/1/34 97/1/34
f 126/1/35 157/1/35 125/1/35
f 113/1/2 144/1/2 112/1/2
f 100/1/5 131/1/5 99/1/5
f 127/1/6 158/1/6 126/1/6
f 114/1/7 145/1/7 113/1/7
f 101/1/8 132/1/8 100/1/8
f 128/1/9 159/1/9 127/1/9
f 115/1/10 146/1/10 114/1/10
f 102/1/11 133/1/11 101/1/11
f 98/1/12 160/1/12 128/1/12
f 116/1/13 147/1/13 115/1/13
f 103/1/14 134/1/14 102/1/14
f 117/1/15 148/1/15 116/1/15
f 104/1/16 135/1/16 103/1/16
f 118/1/17 149/1/17 117/1/17
f 105/1/18 136/1/18 104/1/18
f 3/1/1 2/1/1 1/1/1
f 1/1/71 32/1/71 31/1/71
f 31/1/1 30/1/1 29/1/1
f 29/1/1 28/1/1 27/1/1
f 27/1/1 26/1/1 25/1/1
f 25/1/1 24/1/1 23/1/1
f 23/1/1 22/1/1 21/1/1
f 21/1/72 20/1/72 19/1/72
f 19/1/1 18/1/1 17/1/1
f 17/1/72 16/1/72 15/1/72
f 15/1/1 14/1/1 13/1/1
f 13/1/1 12/1/1 11/1/1
f 11/1/1 10/1/1 9/1/1
f 9/1/1 8/1/1 7/1/1
f 7/1/1 6/1/1 5/1/1
f 5/1/71 4/1/71 3/1/71
f 3/1/1 1/1/1 31/1/1
f 31/1/71 29/1/71 27/1/71
f 27/1/1 25/1/1 23/1/1
f 23/1/71 21/1/71 19/1/71
f 19/1/1 17/1/1 15/1/1
f 15/1/72 13/1/72 11/1/72
f 11/1/1 9/1/1 7/1/1
f 7/1/72 5/1/72 3/1/72
f 3/1/1 31/1/1 27/1/1
f 27/1/1 23/1/1 19/1/1
f 19/1/1 15/1/1 11/1/1
f 11/1/1 7/1/1 3/1/1
f 3/1/1 27/1/1 19/1/1
f 49/1/2 81/1/2 80/1/2
f 8/1/3 9/1/3 41/1/3
f 22/1/3 23/1/3 55/1/3
f 9/1/3 10/1/3 42/1/3
f 23/1/3 24/1/3 56/1/3
f 10/1/3 11/1/3 43/1/3
f 24/1/3 25/1/3 57/1/3
f 11/1/3 12/1/3 44/1/3
f 25/1/3 26/1/3 58/1/3
f 12/1/3 13/1/3 45/1/3
f 26/1/3 27/1/3 59/1/3
f 13/1/3 14/1/3 46/1/3
f 27/1/3 28/1/3 60/1/3
f 14/1/3 15/1/3 47/1/3
f 1/1/3 2/1/3 33/1/3
f 28/1/3 29/1/3 61/1/3
f 15/1/3 16/1/3 48/1/3
f 2/1/3 3/1/3 35/1/3
f 29/1/3 30/1/3 62/1/3
f 16/1/3 17/1/3 49/1/3
f 3/1/3 4/1/3 36/1/3
f 30/1/3 31/1/3 63/1/3
f 17/1/3 18/1/3 50/1/3
f 4/1/3 5/1/3 37/1/3
f 31/1/3 32/1/3 64/1/3
f 18/1/3 19/1/3 51/1/3
f 5/1/3 6/1/3 38/1/3
f 32/1/3 1/1/3 34/1/3
f 19/1/3 20/1/3 52/1/3
f 6/1/3 7/1/3 39/1/3
f 20/1/3 21/1/3 53/1/3
f 7/1/3 8/1/3 40/1/3
f 21/1/3 22/1/3 54/1/3
f 84/1/4 116/1/4 115/1/4
f 36/1/5 68/1/5 67/1/5
f 63/1/6 95/1/6 94/1/6
f 50/1/7 82/1/7 81/1/7
f 37/1/8 69/1/8 68/1/8
f 64/1/9 96/1/9 95/1/9
f 51/1/10 83/1/10 82/1/10
f 38/1/11 70/1/11 69/1/11
f 34/1/12 66/1/12 96/1/12
f 52/1/13 84/1/13 83/1/13
f 39/1/73 71/1/73 70/1/73
f 53/1/15 85/1/15 84/1/15
f 40/1/74 72/1/74 71/1/74
f 54/1/17 86/1/17 85/1/17
f 41/1/18 73/1/18 72/1/18
f 55/1/19 87/1/19 86/1/19
f 42/1/20 74/1/20 73/1/20
f 56/1/21 88/1/21 87/1/21
f 43/1/75 75/1/75 74/1/75
f 57/1/68 89/1/68 88/1/68
f 44/1/69 76/1/69 75/1/69
f 58/1/70 90/1/70 89/1/70
f 45/1/26 77/1/26 76/1/26
f 59/1/27 91/1/27 90/1/27
f 46/1/28 78/1/28 77/1/28
f 60/1/29 92/1/29 91/1/29
f 47/1/30 79/1/30 78/1/30
f 33/1/31 65/1/31 66/1/31
f 61/1/32 93/1/32 92/1/32
f 48/1/33 80/1/33 79/1/33
f 35/1/34 67/1/34 65/1/34
f 62/1/35 94/1/35 93/1/35
f 119/1/19 151/1/19 150/1/19
f 70/1/36 71/1/36 103/1/36
f 85/1/76 117/1/76 116/1/76
f 71/1/77 72/1/77 104/1/77
f 86/1/39 118/1/39 117/1/39
f 72/1/40 73/1/40 105/1/40
f 87/1/41 119/1/41 118/1/41
f 73/1/42 74/1/42 106/1/42
f 88/1/78 120/1/78 119/1/78
f 74/1/79 75/1/79 107/1/79
f 89/1/45 121/1/45 120/1/45
f 75/1/46 76/1/46 108/1/46
f 90/1/47 122/1/47 121/1/47
f 76/1/48 77/1/48 109/1/48
f 91/1/49 123/1/49 122/1/49
f 78/1/50 110/1/50 109/1/50
f 92/1/51 124/1/51 123/1/51
f 79/1/52 111/1/52 110/1/52
f 66/1/53 65/1/53 97/1/53
f 93/1/54 125/1/54 124/1/54
f 80/1/55 112/1/55 111/1/55
f 65/1/56 67/1/56 99/1/56
f 94/1/57 126/1/57 125/1/57
f 81/1/58 113/1/58 112/1/58
f 67/1/80 68/1/80 100/1/80
f 94/1/60 95/1/60 127/1/60
f 82/1/61 114/1/61 113/1/61
f 68/1/62 69/1/62 101/1/62
f 95/1/63 96/1/63 128/1/63
f 83/1/81 115/1/81 114/1/81
f 69/1/65 70/1/65 102/1/65
f 96/1/82 66/1/82 98/1/82
f 130/1/3 129/1/3 131/1/3
f 131/1/3 132/1/3 133/1/3
f 133/1/3 134/1/3 135/1/3
f 135/1/3 136/1/3 137/1/3
f 137/1/3 138/1/3 139/1/3
f 139/1/3 140/1/3 141/1/3
f 141/1/83 142/1/83 143/1/83
f 143/1/3 144/1/3 145/1/3
f 145/1/3 146/1/3 147/1/3
f 147/1/84 148/1/84 149/1/84
f 149/1/3 150/1/3 151/1/3
f 151/1/3 152/1/3 153/1/3
f 153/1/3 154/1/3 155/1/3
f 155/1/3 156/1/3 157/1/3
f 157/1/3 158/1/3 159/1/3
f 159/1/3 160/1/3 130/1/3
f 130/1/3 131/1/3 133/1/3
f 133/1/3 135/1/3 137/1/3
f 137/1/3 139/1/3 141/1/3
f 141/1/3 143/1/3 145/1/3
f 145/1/3 147/1/3 149/1/3
f 149/1/3 151/1/3 153/1/3
f 153/1/3 155/1/3 157/1/3
f 157/1/3 159/1/3 130/1/3
f 130/1/3 133/1/3 137/1/3
f 137/1/3 141/1/3 145/1/3
f 145/1/3 149/1/3 153/1/3
f 153/1/3 157/1/3 130/1/3
f 130/1/3 137/1/3 145/1/3
f 106/1/20 138/1/20 137/1/20
f 120/1/21 152/1/21 151/1/21
f 107/1/75 139/1/75 138/1/75
f 121/1/23 153/1/23 152/1/23
f 108/1/69 140/1/69 139/1/69
f 122/1/25 154/1/25 153/1/25
f 109/1/26 141/1/26 140/1/26
f 123/1/27 155/1/27 154/1/27
f 110/1/28 142/1/28 141/1/28
f 124/1/29 156/1/29 155/1/29
f 111/1/30 143/1/30 142/1/30
f 97/1/31 129/1/31 130/1/31
f 125/1/32 157/1/32 156/1/32
f 112/1/33 144/1/33 143/1/33
f 99/1/34 131/1/34 129/1/34
f 126/1/35 158/1/35 157/1/35
f 113/1/2 145/1/2 144/1/2
f 100/1/5 132/1/5 131/1/5
f 127/1/6 159/1/6 158/1/6
f 114/1/7 146/1/7 145/1/7
f 101/1/8 133/1/8 132/1/8
f 128/1/9 160/1/9 159/1/9
f 115/1/10 147/1/10 146/1/10
f 102/1/11 134/1/11 133/1/11
f 98/1/12 130/1/12 160/1/12
f 116/1/13 148/1/13 147/1/13
f 103/1/14 135/1/14 134/1/14
f 117/1/15 149/1/15 148/1/15
f 104/1/16 136/1/16 135/1/16
f 118/1/17 150/1/17 149/1/17
f 105/1/85 137/1/85 136/1/85
