# Blender 4.1.1
# www.blender.org
mtllib Circle.021.mtl
o Pipe.142
v -1071.138184 2140.534912 -1170.558960
v -1073.750122 2140.534912 -1170.301758
v -1076.261475 2140.534912 -1169.539917
v -1078.576172 2140.534912 -1168.302612
v -1080.604858 2140.534912 -1166.637695
v -1082.269775 2140.534912 -1164.609009
v -1083.507080 2140.534912 -1162.294312
v -1084.268921 2140.534912 -1159.782959
v -1084.526123 2140.534912 -1157.171021
v -1084.268921 2140.534912 -1154.559082
v -1083.507080 2140.534912 -1152.047729
v -1082.269775 2140.534912 -1149.733032
v -1080.604858 2140.534912 -1147.704346
v -1078.576172 2140.534912 -1146.039307
v -1076.261475 2140.534912 -1144.802124
v -1073.750122 2140.534912 -1144.040283
v -1071.138184 2140.534912 -1143.783081
v -1068.526245 2140.534912 -1144.040283
v -1066.014893 2140.534912 -1144.802124
v -1063.700195 2140.534912 -1146.039307
v -1061.671509 2140.534912 -1147.704346
v -1060.006470 2140.534912 -1149.733032
v -1058.769287 2140.534912 -1152.047729
v -1058.007446 2140.534912 -1154.559082
v -1057.750244 2140.534912 -1157.171021
v -1058.007446 2140.534912 -1159.782959
v -1058.769287 2140.534912 -1162.294312
v -1060.006470 2140.534912 -1164.609009
v -1061.671509 2140.534912 -1166.637695
v -1063.700195 2140.534912 -1168.302612
v -1066.014893 2140.534912 -1169.539917
v -1068.526245 2140.534912 -1170.301758
v -1073.750122 2140.534912 -1170.301758
v -1071.138184 2140.534912 -1170.558960
v -1076.261475 2140.534912 -1169.539917
v -1078.576172 2140.534912 -1168.302612
v -1080.604858 2140.534912 -1166.637695
v -1082.269775 2140.534912 -1164.609009
v -1083.507080 2140.534912 -1162.294312
v -1084.268921 2140.534912 -1159.782959
v -1084.526123 2140.534912 -1157.171021
v -1084.268921 2140.534912 -1154.559082
v -1083.507080 2140.534912 -1152.047729
v -1082.269775 2140.534912 -1149.733032
v -1080.604858 2140.534912 -1147.704346
v -1078.576172 2140.534912 -1146.039307
v -1076.261475 2140.534912 -1144.802124
v -1073.750122 2140.534912 -1144.040283
v -1071.138184 2140.534912 -1143.783081
v -1068.526245 2140.534912 -1144.040283
v -1066.014893 2140.534912 -1144.802124
v -1063.700195 2140.534912 -1146.039307
v -1061.671509 2140.534912 -1147.704346
v -1060.006470 2140.534912 -1149.733032
v -1058.769287 2140.534912 -1152.047729
v -1058.007446 2140.534912 -1154.559082
v -1057.750244 2140.534912 -1157.171021
v -1058.007446 2140.534912 -1159.782959
v -1058.769287 2140.534912 -1162.294312
v -1060.006470 2140.534912 -1164.609009
v -1061.671509 2140.534912 -1166.637695
v -1063.700195 2140.534912 -1168.302612
v -1066.014893 2140.534912 -1169.539917
v -1068.526245 2140.534912 -1170.301758
v -1073.750122 2179.499268 -1170.301758
v -1071.138184 2179.499268 -1170.558960
v -1076.261475 2179.499268 -1169.539917
v -1078.576172 2179.499268 -1168.302612
v -1080.604858 2179.499268 -1166.637695
v -1082.269775 2179.499268 -1164.609009
v -1083.507080 2179.499268 -1162.294312
v -1084.268921 2179.499268 -1159.782959
v -1084.526123 2179.499268 -1157.171021
v -1084.268921 2179.499268 -1154.559082
v -1083.507080 2179.499268 -1152.047729
v -1082.269775 2179.499268 -1149.733032
v -1080.604858 2179.499268 -1147.704346
v -1078.576172 2179.499268 -1146.039307
v -1076.261475 2179.499268 -1144.802124
v -1073.750122 2179.499268 -1144.040283
v -1071.138184 2179.499268 -1143.783081
v -1068.526245 2179.499268 -1144.040283
v -1066.014893 2179.499268 -1144.802124
v -1063.700195 2179.499268 -1146.039307
v -1061.671509 2179.499268 -1147.704346
v -1060.006470 2179.499268 -1149.733032
v -1058.769287 2179.499268 -1152.047729
v -1058.007446 2179.499268 -1154.559082
v -1057.750244 2179.499268 -1157.171021
v -1058.007446 2179.499268 -1159.782959
v -1058.769287 2179.499268 -1162.294312
v -1060.006470 2179.499268 -1164.609009
v -1061.671509 2179.499268 -1166.637695
v -1063.700195 2179.499268 -1168.302612
v -1066.014893 2179.499268 -1169.539917
v -1068.526245 2179.499268 -1170.301758
v -1075.562744 2180.063232 -1179.415161
v -1071.138184 2180.063232 -1179.850952
v -1079.817261 2180.063232 -1178.124512
v -1083.738281 2180.063232 -1176.028687
v -1087.175049 2180.063232 -1173.208252
v -1089.995605 2180.063232 -1169.771362
v -1092.091431 2180.063232 -1165.850342
v -1093.382080 2180.063232 -1161.595947
v -1093.817871 2180.063232 -1157.171265
v -1093.382080 2180.063232 -1152.746704
v -1092.091431 2180.063232 -1148.492188
v -1089.995605 2180.063232 -1144.571167
v -1087.175049 2180.063232 -1141.134399
v -1083.738281 2180.063232 -1138.313843
v -1079.817261 2180.063232 -1136.218018
v -1075.562744 2180.063232 -1134.927490
v -1071.138184 2180.063232 -1134.491577
v -1066.713623 2180.063232 -1134.927490
v -1062.459106 2180.063232 -1136.218018
v -1058.538086 2180.063232 -1138.313843
v -1055.101318 2180.063232 -1141.134399
v -1052.280762 2180.063232 -1144.571167
v -1050.184937 2180.063232 -1148.492188
v -1048.894287 2180.063232 -1152.746704
v -1048.458496 2180.063232 -1157.171265
v -1048.894287 2180.063232 -1161.595947
v -1050.184937 2180.063232 -1165.850342
v -1052.280762 2180.063232 -1169.771362
v -1055.101318 2180.063232 -1173.208252
v -1058.538086 2180.063232 -1176.028687
v -1062.459106 2180.063232 -1178.124512
v -1066.713623 2180.063232 -1179.415161
v -1075.562744 2188.905029 -1179.415161
v -1071.138184 2188.905029 -1179.850952
v -1079.817261 2188.905029 -1178.124512
v -1083.738281 2188.905029 -1176.028687
v -1087.175049 2188.905029 -1173.208252
v -1089.995605 2188.905029 -1169.771362
v -1092.091431 2188.905029 -1165.850342
v -1093.382080 2188.905029 -1161.595947
v -1093.817871 2188.905029 -1157.171265
v -1093.382080 2188.905029 -1152.746704
v -1092.091431 2188.905029 -1148.492188
v -1089.995605 2188.905029 -1144.571167
v -1087.175049 2188.905029 -1141.134399
v -1083.738281 2188.905029 -1138.313843
v -1079.817261 2188.905029 -1136.218018
v -1075.562744 2188.905029 -1134.927490
v -1071.138184 2188.905029 -1134.491577
v -1066.713623 2188.905029 -1134.927490
v -1062.459106 2188.905029 -1136.218018
v -1058.538086 2188.905029 -1138.313843
v -1055.101318 2188.905029 -1141.134399
v -1052.280762 2188.905029 -1144.571167
v -1050.184937 2188.905029 -1148.492188
v -1048.894287 2188.905029 -1152.746704
v -1048.458496 2188.905029 -1157.171265
v -1048.894287 2188.905029 -1161.595947
v -1050.184937 2188.905029 -1165.850342
v -1052.280762 2188.905029 -1169.771362
v -1055.101318 2188.905029 -1173.208252
v -1058.538086 2188.905029 -1176.028687
v -1062.459106 2188.905029 -1178.124512
v -1066.713623 2188.905029 -1179.415161
vn -0.0000 -1.0000 -0.0000
vn -0.9570 -0.0000 -0.2903
vn -0.0000 1.0000 -0.0000
vn -0.0582 -0.9981 0.0177
vn 0.7730 -0.0000 0.6345
vn -0.9952 -0.0000 -0.0979
vn 0.8819 -0.0000 0.4714
vn -0.9952 -0.0000 0.0981
vn 0.9570 -0.0000 0.2903
vn -0.9569 -0.0000 0.2903
vn 0.9952 -0.0000 0.0979
vn -0.8819 -0.0000 0.4714
vn 0.9952 -0.0000 -0.0981
vn -0.7730 -0.0000 0.6345
vn 0.9569 -0.0000 -0.2903
vn -0.6345 -0.0000 0.7730
vn 0.8819 -0.0000 -0.4714
vn -0.4714 -0.0000 0.8819
vn -0.0980 -0.0000 -0.9952
vn 0.7730 -0.0000 -0.6344
vn -0.2903 -0.0000 0.9569
vn -0.2903 -0.0000 -0.9569
vn 0.6344 -0.0000 -0.7730
vn -0.0980 -0.0000 0.9952
vn -0.4714 -0.0000 -0.8819
vn 0.4714 -0.0000 -0.8819
vn 0.0980 -0.0000 0.9952
vn -0.6344 -0.0000 -0.7730
vn 0.2903 -0.0000 -0.9569
vn 0.2903 -0.0000 0.9569
vn -0.7730 -0.0000 -0.6344
vn 0.0980 -0.0000 -0.9952
vn 0.4714 -0.0000 0.8819
vn -0.8819 -0.0000 -0.4714
vn 0.6344 -0.0000 0.7730
vn 0.0606 -0.9981 0.0060
vn -0.0537 -0.9981 0.0287
vn 0.0606 -0.9981 -0.0060
vn -0.0471 -0.9981 0.0386
vn 0.0582 -0.9981 -0.0177
vn -0.0386 -0.9981 0.0471
vn 0.0537 -0.9981 -0.0287
vn -0.0286 -0.9981 0.0537
vn -0.0060 -0.9981 -0.0606
vn 0.0471 -0.9981 -0.0386
vn -0.0177 -0.9981 0.0583
vn -0.0176 -0.9981 -0.0583
vn 0.0386 -0.9981 -0.0471
vn -0.0059 -0.9981 0.0606
vn -0.0287 -0.9981 -0.0537
vn 0.0288 -0.9981 -0.0537
vn 0.0060 -0.9981 0.0606
vn -0.0386 -0.9981 -0.0471
vn 0.0177 -0.9981 -0.0583
vn 0.0177 -0.9981 0.0583
vn -0.0471 -0.9981 -0.0386
vn 0.0059 -0.9981 -0.0606
vn 0.0286 -0.9981 0.0537
vn -0.0537 -0.9981 -0.0287
vn 0.0387 -0.9981 0.0471
vn -0.0582 -0.9981 -0.0177
vn 0.0470 -0.9981 0.0386
vn -0.0606 -0.9981 -0.0060
vn 0.0537 -0.9981 0.0287
vn -0.0606 -0.9981 0.0060
vn 0.0582 -0.9981 0.0177
vn -0.9569 -0.0000 -0.2903
vn 0.7730 -0.0000 0.6344
vn -0.9952 -0.0000 -0.0980
vn -0.9952 -0.0000 0.0980
vn 0.9569 -0.0000 0.2903
vn 0.9952 -0.0000 0.0980
vn 0.9952 -0.0000 -0.0980
vn -0.7730 -0.0000 0.6344
vn -0.6344 -0.0000 0.7730
vn 0.0002 -1.0000 -0.0000
vn -0.0002 -1.0000 -0.0000
vn 0.0004 -1.0000 -0.0000
vn -0.0007 -1.0000 -0.0000
vn -0.0004 -1.0000 -0.0000
vn 0.0007 -1.0000 -0.0000
vn -0.9952 -0.0000 -0.0981
vn -0.9952 -0.0000 0.0979
vn -0.9570 -0.0000 0.2903
vn 0.9952 -0.0000 0.0981
vn 0.9952 -0.0000 -0.0979
vn 0.9570 -0.0000 -0.2903
vn 0.7730 -0.0000 -0.6345
vn -0.7730 -0.0000 -0.6345
vn 0.6345 -0.0000 0.7730
vn -0.0470 -0.9981 0.0386
vn -0.0387 -0.9981 0.0471
vn -0.0059 -0.9981 -0.0606
vn -0.0177 -0.9981 -0.0583
vn -0.0060 -0.9981 0.0606
vn -0.0288 -0.9981 -0.0537
vn 0.0287 -0.9981 -0.0537
vn 0.0059 -0.9981 0.0606
vn 0.0176 -0.9981 -0.0583
vn 0.0060 -0.9981 -0.0606
vn 0.0386 -0.9981 0.0471
vn 0.0471 -0.9981 0.0386
vn 0.0003 1.0000 -0.0000
vn -0.0005 1.0000 -0.0000
vn 0.0005 1.0000 -0.0000
vn -0.0003 1.0000 -0.0000
vn 0.0001 1.0000 -0.0000
vn -0.0001 1.0000 -0.0000
vn -0.8819 -0.0000 -0.4715
vn 0.8819 -0.0000 0.4715
vt 0.000000 0.000000
s 0
usemtl Material.003
f 19/1/1 11/1/1 3/1/1
f 40/1/2 71/1/2 39/1/2
f 26/1/3 59/1/3 58/1/3
f 13/1/3 46/1/3 45/1/3
f 27/1/3 60/1/3 59/1/3
f 14/1/3 47/1/3 46/1/3
f 1/1/3 33/1/3 34/1/3
f 28/1/3 61/1/3 60/1/3
f 15/1/3 48/1/3 47/1/3
f 2/1/3 35/1/3 33/1/3
f 29/1/3 62/1/3 61/1/3
f 16/1/3 49/1/3 48/1/3
f 3/1/3 36/1/3 35/1/3
f 30/1/3 63/1/3 62/1/3
f 17/1/3 50/1/3 49/1/3
f 4/1/3 37/1/3 36/1/3
f 31/1/3 64/1/3 63/1/3
f 18/1/3 51/1/3 50/1/3
f 5/1/3 38/1/3 37/1/3
f 32/1/3 34/1/3 64/1/3
f 19/1/3 52/1/3 51/1/3
f 6/1/3 39/1/3 38/1/3
f 20/1/3 53/1/3 52/1/3
f 7/1/3 40/1/3 39/1/3
f 21/1/3 54/1/3 53/1/3
f 8/1/3 41/1/3 40/1/3
f 22/1/3 55/1/3 54/1/3
f 9/1/3 42/1/3 41/1/3
f 23/1/3 56/1/3 55/1/3
f 10/1/3 43/1/3 42/1/3
f 24/1/3 57/1/3 56/1/3
f 11/1/3 44/1/3 43/1/3
f 25/1/3 58/1/3 57/1/3
f 12/1/3 45/1/3 44/1/3
f 74/1/4 107/1/4 106/1/4
f 54/1/5 85/1/5 53/1/5
f 41/1/6 72/1/6 40/1/6
f 55/1/7 86/1/7 54/1/7
f 42/1/8 73/1/8 41/1/8
f 56/1/9 87/1/9 55/1/9
f 43/1/10 74/1/10 42/1/10
f 57/1/11 88/1/11 56/1/11
f 44/1/12 75/1/12 43/1/12
f 58/1/13 89/1/13 57/1/13
f 45/1/14 76/1/14 44/1/14
f 59/1/15 90/1/15 58/1/15
f 46/1/16 77/1/16 45/1/16
f 60/1/17 91/1/17 59/1/17
f 47/1/18 78/1/18 46/1/18
f 33/1/19 66/1/19 34/1/19
f 61/1/20 92/1/20 60/1/20
f 48/1/21 79/1/21 47/1/21
f 35/1/22 65/1/22 33/1/22
f 62/1/23 93/1/23 61/1/23
f 49/1/24 80/1/24 48/1/24
f 36/1/25 67/1/25 35/1/25
f 63/1/26 94/1/26 62/1/26
f 50/1/27 81/1/27 49/1/27
f 37/1/28 68/1/28 36/1/28
f 64/1/29 95/1/29 63/1/29
f 51/1/30 82/1/30 50/1/30
f 38/1/31 69/1/31 37/1/31
f 34/1/32 96/1/32 64/1/32
f 52/1/33 83/1/33 51/1/33
f 39/1/34 70/1/34 38/1/34
f 53/1/35 84/1/35 52/1/35
f 114/1/27 145/1/27 113/1/27
f 89/1/36 120/1/36 88/1/36
f 75/1/37 108/1/37 107/1/37
f 90/1/38 121/1/38 89/1/38
f 76/1/39 109/1/39 108/1/39
f 91/1/40 122/1/40 90/1/40
f 78/1/41 109/1/41 77/1/41
f 92/1/42 123/1/42 91/1/42
f 78/1/43 111/1/43 110/1/43
f 66/1/44 97/1/44 98/1/44
f 93/1/45 124/1/45 92/1/45
f 79/1/46 112/1/46 111/1/46
f 65/1/47 99/1/47 97/1/47
f 94/1/48 125/1/48 93/1/48
f 81/1/49 112/1/49 80/1/49
f 67/1/50 100/1/50 99/1/50
f 95/1/51 126/1/51 94/1/51
f 81/1/52 114/1/52 113/1/52
f 68/1/53 101/1/53 100/1/53
f 96/1/54 127/1/54 95/1/54
f 83/1/55 114/1/55 82/1/55
f 69/1/56 102/1/56 101/1/56
f 66/1/57 128/1/57 96/1/57
f 84/1/58 115/1/58 83/1/58
f 70/1/59 103/1/59 102/1/59
f 84/1/60 117/1/60 116/1/60
f 71/1/61 104/1/61 103/1/61
f 86/1/62 117/1/62 85/1/62
f 72/1/63 105/1/63 104/1/63
f 87/1/64 118/1/64 86/1/64
f 73/1/65 106/1/65 105/1/65
f 88/1/66 119/1/66 87/1/66
f 145/1/3 153/1/3 130/1/3
f 101/1/28 132/1/28 100/1/28
f 128/1/29 159/1/29 127/1/29
f 115/1/30 146/1/30 114/1/30
f 102/1/31 133/1/31 101/1/31
f 98/1/32 160/1/32 128/1/32
f 116/1/33 147/1/33 115/1/33
f 103/1/34 134/1/34 102/1/34
f 117/1/35 148/1/35 116/1/35
f 104/1/67 135/1/67 103/1/67
f 118/1/68 149/1/68 117/1/68
f 105/1/69 136/1/69 104/1/69
f 119/1/7 150/1/7 118/1/7
f 106/1/70 137/1/70 105/1/70
f 120/1/71 151/1/71 119/1/71
f 107/1/10 138/1/10 106/1/10
f 121/1/72 152/1/72 120/1/72
f 108/1/12 139/1/12 107/1/12
f 122/1/73 153/1/73 121/1/73
f 109/1/74 140/1/74 108/1/74
f 123/1/15 154/1/15 122/1/15
f 110/1/75 141/1/75 109/1/75
f 124/1/17 155/1/17 123/1/17
f 111/1/18 142/1/18 110/1/18
f 97/1/19 130/1/19 98/1/19
f 125/1/20 156/1/20 124/1/20
f 112/1/21 143/1/21 111/1/21
f 99/1/22 129/1/22 97/1/22
f 126/1/23 157/1/23 125/1/23
f 113/1/24 144/1/24 112/1/24
f 100/1/25 131/1/25 99/1/25
f 127/1/26 158/1/26 126/1/26
f 3/1/76 2/1/76 1/1/76
f 1/1/77 32/1/77 31/1/77
f 31/1/78 30/1/78 29/1/78
f 29/1/79 28/1/79 27/1/79
f 27/1/1 26/1/1 25/1/1
f 25/1/1 24/1/1 23/1/1
f 23/1/79 22/1/79 21/1/79
f 21/1/78 20/1/78 19/1/78
f 19/1/77 18/1/77 17/1/77
f 17/1/76 16/1/76 15/1/76
f 15/1/80 14/1/80 13/1/80
f 13/1/81 12/1/81 11/1/81
f 11/1/1 10/1/1 9/1/1
f 9/1/1 8/1/1 7/1/1
f 7/1/81 6/1/81 5/1/81
f 5/1/80 4/1/80 3/1/80
f 3/1/1 1/1/1 31/1/1
f 31/1/1 29/1/1 27/1/1
f 27/1/1 25/1/1 23/1/1
f 23/1/1 21/1/1 19/1/1
f 19/1/1 17/1/1 15/1/1
f 15/1/1 13/1/1 11/1/1
f 11/1/1 9/1/1 7/1/1
f 7/1/1 5/1/1 3/1/1
f 3/1/1 31/1/1 27/1/1
f 27/1/1 23/1/1 19/1/1
f 19/1/1 15/1/1 11/1/1
f 11/1/1 7/1/1 3/1/1
f 3/1/1 27/1/1 19/1/1
f 40/1/67 72/1/67 71/1/67
f 26/1/3 27/1/3 59/1/3
f 13/1/3 14/1/3 46/1/3
f 27/1/3 28/1/3 60/1/3
f 14/1/3 15/1/3 47/1/3
f 1/1/3 2/1/3 33/1/3
f 28/1/3 29/1/3 61/1/3
f 15/1/3 16/1/3 48/1/3
f 2/1/3 3/1/3 35/1/3
f 29/1/3 30/1/3 62/1/3
f 16/1/3 17/1/3 49/1/3
f 3/1/3 4/1/3 36/1/3
f 30/1/3 31/1/3 63/1/3
f 17/1/3 18/1/3 50/1/3
f 4/1/3 5/1/3 37/1/3
f 31/1/3 32/1/3 64/1/3
f 18/1/3 19/1/3 51/1/3
f 5/1/3 6/1/3 38/1/3
f 32/1/3 1/1/3 34/1/3
f 19/1/3 20/1/3 52/1/3
f 6/1/3 7/1/3 39/1/3
f 20/1/3 21/1/3 53/1/3
f 7/1/3 8/1/3 40/1/3
f 21/1/3 22/1/3 54/1/3
f 8/1/3 9/1/3 41/1/3
f 22/1/3 23/1/3 55/1/3
f 9/1/3 10/1/3 42/1/3
f 23/1/3 24/1/3 56/1/3
f 10/1/3 11/1/3 43/1/3
f 24/1/3 25/1/3 57/1/3
f 11/1/3 12/1/3 44/1/3
f 25/1/3 26/1/3 58/1/3
f 12/1/3 13/1/3 45/1/3
f 74/1/4 75/1/4 107/1/4
f 54/1/68 86/1/68 85/1/68
f 41/1/82 73/1/82 72/1/82
f 55/1/7 87/1/7 86/1/7
f 42/1/83 74/1/83 73/1/83
f 56/1/71 88/1/71 87/1/71
f 43/1/84 75/1/84 74/1/84
f 57/1/85 89/1/85 88/1/85
f 44/1/12 76/1/12 75/1/12
f 58/1/86 90/1/86 89/1/86
f 45/1/74 77/1/74 76/1/74
f 59/1/87 91/1/87 90/1/87
f 46/1/75 78/1/75 77/1/75
f 60/1/17 92/1/17 91/1/17
f 47/1/18 79/1/18 78/1/18
f 33/1/19 65/1/19 66/1/19
f 61/1/88 93/1/88 92/1/88
f 48/1/21 80/1/21 79/1/21
f 35/1/22 67/1/22 65/1/22
f 62/1/23 94/1/23 93/1/23
f 49/1/24 81/1/24 80/1/24
f 36/1/25 68/1/25 67/1/25
f 63/1/26 95/1/26 94/1/26
f 50/1/27 82/1/27 81/1/27
f 37/1/28 69/1/28 68/1/28
f 64/1/29 96/1/29 95/1/29
f 51/1/30 83/1/30 82/1/30
f 38/1/89 70/1/89 69/1/89
f 34/1/32 66/1/32 96/1/32
f 52/1/33 84/1/33 83/1/33
f 39/1/34 71/1/34 70/1/34
f 53/1/90 85/1/90 84/1/90
f 114/1/27 146/1/27 145/1/27
f 89/1/36 121/1/36 120/1/36
f 75/1/37 76/1/37 108/1/37
f 90/1/38 122/1/38 121/1/38
f 76/1/91 77/1/91 109/1/91
f 91/1/40 123/1/40 122/1/40
f 78/1/92 110/1/92 109/1/92
f 92/1/42 124/1/42 123/1/42
f 78/1/43 79/1/43 111/1/43
f 66/1/93 65/1/93 97/1/93
f 93/1/45 125/1/45 124/1/45
f 79/1/46 80/1/46 112/1/46
f 65/1/94 67/1/94 99/1/94
f 94/1/48 126/1/48 125/1/48
f 81/1/95 113/1/95 112/1/95
f 67/1/96 68/1/96 100/1/96
f 95/1/97 127/1/97 126/1/97
f 81/1/98 82/1/98 114/1/98
f 68/1/53 69/1/53 101/1/53
f 96/1/99 128/1/99 127/1/99
f 83/1/55 115/1/55 114/1/55
f 69/1/56 70/1/56 102/1/56
f 66/1/100 98/1/100 128/1/100
f 84/1/58 116/1/58 115/1/58
f 70/1/59 71/1/59 103/1/59
f 84/1/101 85/1/101 117/1/101
f 71/1/61 72/1/61 104/1/61
f 86/1/102 118/1/102 117/1/102
f 72/1/63 73/1/63 105/1/63
f 87/1/64 119/1/64 118/1/64
f 73/1/65 74/1/65 106/1/65
f 88/1/66 120/1/66 119/1/66
f 130/1/3 129/1/3 131/1/3
f 131/1/103 132/1/103 133/1/103
f 133/1/104 134/1/104 135/1/104
f 135/1/3 136/1/3 137/1/3
f 137/1/104 138/1/104 139/1/104
f 139/1/3 140/1/3 141/1/3
f 141/1/3 142/1/3 143/1/3
f 143/1/3 144/1/3 145/1/3
f 145/1/3 146/1/3 147/1/3
f 147/1/3 148/1/3 149/1/3
f 149/1/3 150/1/3 151/1/3
f 151/1/105 152/1/105 153/1/105
f 153/1/3 154/1/3 155/1/3
f 155/1/103 156/1/103 157/1/103
f 157/1/106 158/1/106 159/1/106
f 159/1/107 160/1/107 130/1/107
f 130/1/108 131/1/108 133/1/108
f 133/1/3 135/1/3 137/1/3
f 137/1/108 139/1/108 141/1/108
f 141/1/3 143/1/3 145/1/3
f 145/1/108 147/1/108 149/1/108
f 149/1/3 151/1/3 153/1/3
f 153/1/108 155/1/108 157/1/108
f 157/1/3 159/1/3 130/1/3
f 130/1/3 133/1/3 137/1/3
f 137/1/3 141/1/3 145/1/3
f 145/1/3 149/1/3 153/1/3
f 153/1/3 157/1/3 130/1/3
f 130/1/3 137/1/3 145/1/3
f 101/1/28 133/1/28 132/1/28
f 128/1/29 160/1/29 159/1/29
f 115/1/30 147/1/30 146/1/30
f 102/1/31 134/1/31 133/1/31
f 98/1/32 130/1/32 160/1/32
f 116/1/33 148/1/33 147/1/33
f 103/1/109 135/1/109 134/1/109
f 117/1/35 149/1/35 148/1/35
f 104/1/67 136/1/67 135/1/67
f 118/1/68 150/1/68 149/1/68
f 105/1/69 137/1/69 136/1/69
f 119/1/110 151/1/110 150/1/110
f 106/1/70 138/1/70 137/1/70
f 120/1/71 152/1/71 151/1/71
f 107/1/10 139/1/10 138/1/10
f 121/1/72 153/1/72 152/1/72
f 108/1/12 140/1/12 139/1/12
f 122/1/73 154/1/73 153/1/73
f 109/1/74 141/1/74 140/1/74
f 123/1/15 155/1/15 154/1/15
f 110/1/75 142/1/75 141/1/75
f 124/1/17 156/1/17 155/1/17
f 111/1/18 143/1/18 142/1/18
f 97/1/19 129/1/19 130/1/19
f 125/1/20 157/1/20 156/1/20
f 112/1/21 144/1/21 143/1/21
f 99/1/22 131/1/22 129/1/22
f 126/1/23 158/1/23 157/1/23
f 113/1/24 145/1/24 144/1/24
f 100/1/25 132/1/25 131/1/25
f 127/1/26 159/1/26 158/1/26
