# Blender 4.1.1
# www.blender.org
mtllib Circle.744.mtl
o Circle.032
v 2779.979980 -587.639343 -1878.774536
v 2777.810303 -587.639343 -1878.560791
v 2775.723877 -587.639343 -1877.927979
v 2773.801025 -587.639343 -1876.900146
v 2772.115723 -587.639343 -1875.517090
v 2770.732666 -587.639343 -1873.831665
v 2769.704834 -587.639343 -1871.908936
v 2769.072021 -587.639343 -1869.822510
v 2768.858398 -587.639343 -1867.652832
v 2769.072021 -587.639343 -1865.483154
v 2769.704834 -587.639343 -1863.396729
v 2770.732666 -587.639343 -1861.473999
v 2772.115723 -587.639343 -1859.788574
v 2773.801025 -587.639343 -1858.405518
v 2775.723877 -587.639343 -1857.377686
v 2777.810303 -587.639343 -1856.744873
v 2779.979980 -587.639343 -1856.531128
v 2782.149658 -587.639343 -1856.744873
v 2784.236084 -587.639343 -1857.377686
v 2786.158936 -587.639343 -1858.405518
v 2787.844238 -587.639343 -1859.788574
v 2789.227295 -587.639343 -1861.473999
v 2790.255127 -587.639343 -1863.396729
v 2790.887939 -587.639343 -1865.483154
v 2791.101562 -587.639343 -1867.652832
v 2790.887939 -587.639343 -1869.822510
v 2790.255127 -587.639343 -1871.908936
v 2789.227295 -587.639343 -1873.831665
v 2787.844238 -587.639343 -1875.517090
v 2786.158936 -587.639343 -1876.900146
v 2784.236084 -587.639343 -1877.927979
v 2782.149658 -587.639343 -1878.560791
v 2777.810303 -587.639343 -1878.560791
v 2779.979980 -587.639343 -1878.774536
v 2775.723877 -587.639343 -1877.927979
v 2773.801025 -587.639343 -1876.900146
v 2772.115723 -587.639343 -1875.517090
v 2770.732666 -587.639343 -1873.831665
v 2769.704834 -587.639343 -1871.908936
v 2769.072021 -587.639343 -1869.822510
v 2768.858398 -587.639343 -1867.652832
v 2769.072021 -587.639343 -1865.483154
v 2769.704834 -587.639343 -1863.396729
v 2770.732666 -587.639343 -1861.473999
v 2772.115723 -587.639343 -1859.788574
v 2773.801025 -587.639343 -1858.405518
v 2775.723877 -587.639343 -1857.377686
v 2777.810303 -587.639343 -1856.744873
v 2779.979980 -587.639343 -1856.531128
v 2782.149658 -587.639343 -1856.744873
v 2784.236084 -587.639343 -1857.377686
v 2786.158936 -587.639343 -1858.405518
v 2787.844238 -587.639343 -1859.788574
v 2789.227295 -587.639343 -1861.473999
v 2790.255127 -587.639343 -1863.396729
v 2790.887939 -587.639343 -1865.483154
v 2791.101562 -587.639343 -1867.652832
v 2790.887939 -587.639343 -1869.822510
v 2790.255127 -587.639343 -1871.908936
v 2789.227295 -587.639343 -1873.831665
v 2787.844238 -587.639343 -1875.517090
v 2786.158936 -587.639343 -1876.900146
v 2784.236084 -587.639343 -1877.927979
v 2782.149658 -587.639343 -1878.560791
v 2777.810303 -558.278076 -1878.560791
v 2779.979980 -558.278076 -1878.774536
v 2775.723877 -558.278076 -1877.927979
v 2773.801025 -558.278076 -1876.900146
v 2772.115723 -558.278076 -1875.517090
v 2770.732666 -558.278076 -1873.831665
v 2769.704834 -558.278076 -1871.908936
v 2769.072021 -558.278076 -1869.822510
v 2768.858398 -558.278076 -1867.652832
v 2769.072021 -558.278076 -1865.483154
v 2769.704834 -558.278076 -1863.396729
v 2770.732666 -558.278076 -1861.473999
v 2772.115723 -558.278076 -1859.788574
v 2773.801025 -558.278076 -1858.405518
v 2775.723877 -558.278076 -1857.377686
v 2777.810303 -558.278076 -1856.744873
v 2779.979980 -558.278076 -1856.531128
v 2782.149658 -558.278076 -1856.744873
v 2784.236084 -558.278076 -1857.377686
v 2786.158936 -558.278076 -1858.405518
v 2787.844238 -558.278076 -1859.788574
v 2789.227295 -558.278076 -1861.473999
v 2790.255127 -558.278076 -1863.396729
v 2790.887939 -558.278076 -1865.483154
v 2791.101562 -558.278076 -1867.652832
v 2790.887939 -558.278076 -1869.822510
v 2790.255127 -558.278076 -1871.908936
v 2789.227295 -558.278076 -1873.831665
v 2787.844238 -558.278076 -1875.517090
v 2786.158936 -558.278076 -1876.900146
v 2784.236084 -558.278076 -1877.927979
v 2782.149658 -558.278076 -1878.560791
v 2776.314697 -556.926941 -1886.081543
v 2779.980225 -556.926941 -1886.442505
v 2772.789795 -556.926941 -1885.012329
v 2769.541504 -556.926941 -1883.276001
v 2766.694092 -556.926941 -1880.939331
v 2764.357422 -556.926941 -1878.092041
v 2762.621094 -556.926941 -1874.843628
v 2761.552002 -556.926941 -1871.318848
v 2761.190918 -556.926941 -1867.653320
v 2761.552002 -556.926941 -1863.987671
v 2762.621094 -556.926941 -1860.463013
v 2764.357422 -556.926941 -1857.214600
v 2766.694092 -556.926941 -1854.367310
v 2769.541504 -556.926941 -1852.030640
v 2772.789795 -556.926941 -1850.294312
v 2776.314697 -556.926941 -1849.225098
v 2779.980225 -556.926941 -1848.864014
v 2783.645752 -556.926941 -1849.225098
v 2787.170654 -556.926941 -1850.294312
v 2790.418945 -556.926941 -1852.030640
v 2793.266113 -556.926941 -1854.367310
v 2795.603027 -556.926941 -1857.214600
v 2797.339111 -556.926941 -1860.463013
v 2798.408447 -556.926941 -1863.987671
v 2798.769531 -556.926941 -1867.653320
v 2798.408447 -556.926941 -1871.318848
v 2797.339111 -556.926941 -1874.843628
v 2795.603027 -556.926941 -1878.092041
v 2793.266113 -556.926941 -1880.939331
v 2790.418945 -556.926941 -1883.276001
v 2787.170654 -556.926941 -1885.012329
v 2783.645752 -556.926941 -1886.081543
v 2776.314697 -546.961182 -1886.081543
v 2779.980225 -546.961182 -1886.442505
v 2772.789795 -546.961182 -1885.012329
v 2769.541504 -546.961182 -1883.276001
v 2766.694092 -546.961182 -1880.939331
v 2764.357422 -546.961182 -1878.092041
v 2762.621094 -546.961182 -1874.843628
v 2761.552002 -546.961182 -1871.318848
v 2761.190918 -546.961182 -1867.653320
v 2761.552002 -546.961182 -1863.987671
v 2762.621094 -546.961182 -1860.463013
v 2764.357422 -546.961182 -1857.214600
v 2766.694092 -546.961182 -1854.367310
v 2769.541504 -546.961182 -1852.030640
v 2772.789795 -546.961182 -1850.294312
v 2776.314697 -546.961182 -1849.225098
v 2779.980225 -546.961182 -1848.864014
v 2783.645752 -546.961182 -1849.225098
v 2787.170654 -546.961182 -1850.294312
v 2790.418945 -546.961182 -1852.030640
v 2793.266113 -546.961182 -1854.367310
v 2795.603027 -546.961182 -1857.214600
v 2797.339111 -546.961182 -1860.463013
v 2798.408447 -546.961182 -1863.987671
v 2798.769531 -546.961182 -1867.653320
v 2798.408447 -546.961182 -1871.318848
v 2797.339111 -546.961182 -1874.843628
v 2795.603027 -546.961182 -1878.092041
v 2793.266113 -546.961182 -1880.939331
v 2790.418945 -546.961182 -1883.276001
v 2787.170654 -546.961182 -1885.012329
v 2783.645752 -546.961182 -1886.081543
vn -0.0000 -1.0000 -0.0000
vn -0.0981 -0.0000 0.9952
vn -0.0000 1.0000 -0.0000
vn 0.0822 -0.9847 0.1538
vn -0.4713 -0.0000 -0.8820
vn 0.4714 -0.0000 -0.8819
vn 0.0980 -0.0000 0.9952
vn -0.6345 -0.0000 -0.7729
vn 0.2902 -0.0000 -0.9570
vn 0.2902 -0.0000 0.9570
vn -0.7732 -0.0000 -0.6342
vn 0.0981 -0.0000 -0.9952
vn 0.4714 -0.0000 0.8819
vn -0.8819 -0.0000 -0.4714
vn 0.6345 -0.0000 0.7729
vn -0.9569 -0.0000 -0.2904
vn 0.7732 -0.0000 0.6342
vn -0.9952 -0.0000 -0.0979
vn 0.8819 -0.0000 0.4714
vn -0.9952 -0.0000 0.0981
vn 0.9570 -0.0000 0.2902
vn -0.9570 -0.0000 0.2902
vn 0.9952 -0.0000 0.0979
vn -0.8819 -0.0000 0.4714
vn 0.9952 -0.0000 -0.0981
vn -0.7729 -0.0000 0.6345
vn 0.9570 -0.0000 -0.2902
vn -0.6343 -0.0000 0.7731
vn 0.8818 -0.0000 -0.4715
vn -0.4714 -0.0000 0.8819
vn -0.0980 -0.0000 -0.9952
vn 0.7729 -0.0000 -0.6345
vn -0.2903 -0.0000 0.9569
vn -0.2902 -0.0000 -0.9570
vn 0.6343 -0.0000 -0.7731
vn -0.1538 -0.9847 -0.0822
vn 0.1106 -0.9847 0.1348
vn -0.1669 -0.9847 -0.0506
vn 0.1348 -0.9847 0.1106
vn -0.1735 -0.9847 -0.0171
vn 0.1538 -0.9847 0.0822
vn -0.1735 -0.9847 0.0171
vn 0.1669 -0.9847 0.0506
vn -0.1669 -0.9847 0.0506
vn 0.1735 -0.9847 0.0170
vn -0.1538 -0.9847 0.0822
vn 0.1735 -0.9847 -0.0171
vn -0.1348 -0.9847 0.1106
vn 0.1668 -0.9847 -0.0506
vn -0.1106 -0.9847 0.1348
vn 0.1537 -0.9847 -0.0822
vn -0.0822 -0.9847 0.1538
vn -0.0171 -0.9847 -0.1735
vn 0.1348 -0.9847 -0.1106
vn -0.0506 -0.9847 0.1668
vn -0.0506 -0.9847 -0.1668
vn 0.1106 -0.9847 -0.1348
vn -0.0171 -0.9847 0.1736
vn -0.0822 -0.9847 -0.1537
vn 0.0822 -0.9847 -0.1538
vn 0.0171 -0.9847 0.1736
vn -0.1106 -0.9847 -0.1348
vn 0.0506 -0.9847 -0.1668
vn 0.0506 -0.9847 0.1668
vn -0.1348 -0.9847 -0.1106
vn 0.0171 -0.9847 -0.1735
vn 0.9569 -0.0000 0.2904
vn -0.7730 -0.0000 0.6344
vn 0.9569 -0.0000 -0.2903
vn -0.6344 -0.0000 0.7730
vn 0.8820 -0.0000 -0.4713
vn 0.7730 -0.0000 -0.6344
vn -0.2903 -0.0000 -0.9569
vn 0.6344 -0.0000 -0.7730
vn -0.0980 -0.0000 0.9952
vn -0.4714 -0.0000 -0.8819
vn 0.4715 -0.0000 -0.8819
vn -0.6343 -0.0000 -0.7731
vn 0.2903 -0.0000 -0.9569
vn 0.2903 -0.0000 0.9569
vn -0.7730 -0.0000 -0.6344
vn 0.0980 -0.0000 -0.9952
vn -0.8820 -0.0000 -0.4713
vn 0.6344 -0.0000 0.7730
vn -0.9569 -0.0000 -0.2903
vn 0.7730 -0.0000 0.6344
vn -0.9952 -0.0000 -0.0980
vn -0.0001 -1.0000 -0.0000
vn 0.0003 -1.0000 -0.0000
vn 0.0001 -1.0000 -0.0000
vn -0.0003 -1.0000 -0.0000
vn 0.0981 -0.0000 0.9952
vn -0.7729 -0.0000 -0.6345
vn 0.6343 -0.0000 0.7731
vn -0.9570 -0.0000 -0.2902
vn 0.7729 -0.0000 0.6345
vn -0.9952 -0.0000 -0.0981
vn 0.8818 -0.0000 0.4715
vn -0.9952 -0.0000 0.0979
vn -0.9569 -0.0000 0.2904
vn 0.9952 -0.0000 0.0981
vn 0.9952 -0.0000 -0.0979
vn -0.7732 -0.0000 0.6342
vn -0.6345 -0.0000 0.7729
vn 0.8819 -0.0000 -0.4714
vn -0.4713 -0.0000 0.8820
vn -0.0981 -0.0000 -0.9952
vn 0.7732 -0.0000 -0.6342
vn -0.2902 -0.0000 0.9570
vn 0.6345 -0.0000 -0.7729
vn 0.8820 -0.0000 0.4713
vn -0.1537 -0.9847 -0.0822
vn -0.1668 -0.9847 -0.0506
vn 0.1735 -0.9847 0.0171
vn -0.1538 -0.9847 0.0821
vn 0.1669 -0.9847 -0.0506
vn 0.1538 -0.9847 -0.0822
vn -0.0506 -0.9847 0.1669
vn 0.1106 -0.9847 -0.1347
vn -0.0171 -0.9847 0.1735
vn -0.0822 -0.9847 -0.1538
vn 0.0171 -0.9847 0.1735
vn 0.0506 -0.9847 0.1669
vn -0.0001 1.0000 -0.0000
vn 0.0001 1.0000 -0.0000
vn -0.9952 -0.0000 0.0980
vn 0.9569 -0.0000 0.2903
vn -0.9569 -0.0000 0.2903
vn -0.8820 -0.0000 0.4713
vn 0.9569 -0.0000 -0.2904
vn -0.6344 -0.0000 -0.7730
vn 0.4715 -0.0000 0.8819
vt 0.000000 0.000000
s 0
usemtl Material.003
f 19/1/1 11/1/1 3/1/1
f 49/1/2 80/1/2 48/1/2
f 8/1/3 41/1/3 40/1/3
f 22/1/3 55/1/3 54/1/3
f 9/1/3 42/1/3 41/1/3
f 23/1/3 56/1/3 55/1/3
f 10/1/3 43/1/3 42/1/3
f 24/1/3 57/1/3 56/1/3
f 11/1/3 44/1/3 43/1/3
f 25/1/3 58/1/3 57/1/3
f 12/1/3 45/1/3 44/1/3
f 26/1/3 59/1/3 58/1/3
f 13/1/3 46/1/3 45/1/3
f 27/1/3 60/1/3 59/1/3
f 14/1/3 47/1/3 46/1/3
f 1/1/3 33/1/3 34/1/3
f 28/1/3 61/1/3 60/1/3
f 15/1/3 48/1/3 47/1/3
f 2/1/3 35/1/3 33/1/3
f 29/1/3 62/1/3 61/1/3
f 16/1/3 49/1/3 48/1/3
f 3/1/3 36/1/3 35/1/3
f 30/1/3 63/1/3 62/1/3
f 17/1/3 50/1/3 49/1/3
f 4/1/3 37/1/3 36/1/3
f 31/1/3 64/1/3 63/1/3
f 18/1/3 51/1/3 50/1/3
f 5/1/3 38/1/3 37/1/3
f 32/1/3 34/1/3 64/1/3
f 19/1/3 52/1/3 51/1/3
f 6/1/3 39/1/3 38/1/3
f 20/1/3 53/1/3 52/1/3
f 7/1/3 40/1/3 39/1/3
f 21/1/3 54/1/3 53/1/3
f 84/1/4 115/1/4 83/1/4
f 36/1/5 67/1/5 35/1/5
f 63/1/6 94/1/6 62/1/6
f 50/1/7 81/1/7 49/1/7
f 37/1/8 68/1/8 36/1/8
f 64/1/9 95/1/9 63/1/9
f 51/1/10 82/1/10 50/1/10
f 38/1/11 69/1/11 37/1/11
f 34/1/12 96/1/12 64/1/12
f 52/1/13 83/1/13 51/1/13
f 39/1/14 70/1/14 38/1/14
f 53/1/15 84/1/15 52/1/15
f 40/1/16 71/1/16 39/1/16
f 54/1/17 85/1/17 53/1/17
f 41/1/18 72/1/18 40/1/18
f 55/1/19 86/1/19 54/1/19
f 42/1/20 73/1/20 41/1/20
f 56/1/21 87/1/21 55/1/21
f 43/1/22 74/1/22 42/1/22
f 57/1/23 88/1/23 56/1/23
f 44/1/24 75/1/24 43/1/24
f 58/1/25 89/1/25 57/1/25
f 45/1/26 76/1/26 44/1/26
f 59/1/27 90/1/27 58/1/27
f 46/1/28 77/1/28 45/1/28
f 60/1/29 91/1/29 59/1/29
f 47/1/30 78/1/30 46/1/30
f 33/1/31 66/1/31 34/1/31
f 61/1/32 92/1/32 60/1/32
f 48/1/33 79/1/33 47/1/33
f 35/1/34 65/1/34 33/1/34
f 62/1/35 93/1/35 61/1/35
f 119/1/19 150/1/19 118/1/19
f 70/1/36 103/1/36 102/1/36
f 85/1/37 116/1/37 84/1/37
f 71/1/38 104/1/38 103/1/38
f 86/1/39 117/1/39 85/1/39
f 72/1/40 105/1/40 104/1/40
f 87/1/41 118/1/41 86/1/41
f 73/1/42 106/1/42 105/1/42
f 88/1/43 119/1/43 87/1/43
f 74/1/44 107/1/44 106/1/44
f 89/1/45 120/1/45 88/1/45
f 75/1/46 108/1/46 107/1/46
f 90/1/47 121/1/47 89/1/47
f 76/1/48 109/1/48 108/1/48
f 91/1/49 122/1/49 90/1/49
f 77/1/50 110/1/50 109/1/50
f 92/1/51 123/1/51 91/1/51
f 78/1/52 111/1/52 110/1/52
f 66/1/53 97/1/53 98/1/53
f 93/1/54 124/1/54 92/1/54
f 80/1/55 111/1/55 79/1/55
f 65/1/56 99/1/56 97/1/56
f 94/1/57 125/1/57 93/1/57
f 81/1/58 112/1/58 80/1/58
f 67/1/59 100/1/59 99/1/59
f 94/1/60 127/1/60 126/1/60
f 82/1/61 113/1/61 81/1/61
f 68/1/62 101/1/62 100/1/62
f 95/1/63 128/1/63 127/1/63
f 83/1/64 114/1/64 82/1/64
f 69/1/65 102/1/65 101/1/65
f 66/1/66 128/1/66 96/1/66
f 145/1/3 153/1/3 130/1/3
f 106/1/20 137/1/20 105/1/20
f 120/1/67 151/1/67 119/1/67
f 107/1/22 138/1/22 106/1/22
f 121/1/23 152/1/23 120/1/23
f 108/1/24 139/1/24 107/1/24
f 122/1/25 153/1/25 121/1/25
f 109/1/68 140/1/68 108/1/68
f 123/1/69 154/1/69 122/1/69
f 110/1/70 141/1/70 109/1/70
f 124/1/71 155/1/71 123/1/71
f 111/1/30 142/1/30 110/1/30
f 97/1/31 130/1/31 98/1/31
f 125/1/72 156/1/72 124/1/72
f 112/1/33 143/1/33 111/1/33
f 99/1/73 129/1/73 97/1/73
f 126/1/74 157/1/74 125/1/74
f 113/1/75 144/1/75 112/1/75
f 100/1/76 131/1/76 99/1/76
f 127/1/77 158/1/77 126/1/77
f 114/1/7 145/1/7 113/1/7
f 101/1/78 132/1/78 100/1/78
f 128/1/79 159/1/79 127/1/79
f 115/1/80 146/1/80 114/1/80
f 102/1/81 133/1/81 101/1/81
f 98/1/82 160/1/82 128/1/82
f 116/1/13 147/1/13 115/1/13
f 103/1/83 134/1/83 102/1/83
f 117/1/84 148/1/84 116/1/84
f 104/1/85 135/1/85 103/1/85
f 118/1/86 149/1/86 117/1/86
f 105/1/87 136/1/87 104/1/87
f 3/1/1 2/1/1 1/1/1
f 1/1/1 32/1/1 31/1/1
f 31/1/88 30/1/88 29/1/88
f 29/1/89 28/1/89 27/1/89
f 27/1/1 26/1/1 25/1/1
f 25/1/1 24/1/1 23/1/1
f 23/1/90 22/1/90 21/1/90
f 21/1/88 20/1/88 19/1/88
f 19/1/1 18/1/1 17/1/1
f 17/1/1 16/1/1 15/1/1
f 15/1/90 14/1/90 13/1/90
f 13/1/91 12/1/91 11/1/91
f 11/1/1 10/1/1 9/1/1
f 9/1/1 8/1/1 7/1/1
f 7/1/88 6/1/88 5/1/88
f 5/1/90 4/1/90 3/1/90
f 3/1/1 1/1/1 31/1/1
f 31/1/1 29/1/1 27/1/1
f 27/1/1 25/1/1 23/1/1
f 23/1/1 21/1/1 19/1/1
f 19/1/1 17/1/1 15/1/1
f 15/1/1 13/1/1 11/1/1
f 11/1/1 9/1/1 7/1/1
f 7/1/1 5/1/1 3/1/1
f 3/1/1 31/1/1 27/1/1
f 27/1/1 23/1/1 19/1/1
f 19/1/1 15/1/1 11/1/1
f 11/1/1 7/1/1 3/1/1
f 3/1/1 27/1/1 19/1/1
f 49/1/75 81/1/75 80/1/75
f 8/1/3 9/1/3 41/1/3
f 22/1/3 23/1/3 55/1/3
f 9/1/3 10/1/3 42/1/3
f 23/1/3 24/1/3 56/1/3
f 10/1/3 11/1/3 43/1/3
f 24/1/3 25/1/3 57/1/3
f 11/1/3 12/1/3 44/1/3
f 25/1/3 26/1/3 58/1/3
f 12/1/3 13/1/3 45/1/3
f 26/1/3 27/1/3 59/1/3
f 13/1/3 14/1/3 46/1/3
f 27/1/3 28/1/3 60/1/3
f 14/1/3 15/1/3 47/1/3
f 1/1/3 2/1/3 33/1/3
f 28/1/3 29/1/3 61/1/3
f 15/1/3 16/1/3 48/1/3
f 2/1/3 3/1/3 35/1/3
f 29/1/3 30/1/3 62/1/3
f 16/1/3 17/1/3 49/1/3
f 3/1/3 4/1/3 36/1/3
f 30/1/3 31/1/3 63/1/3
f 17/1/3 18/1/3 50/1/3
f 4/1/3 5/1/3 37/1/3
f 31/1/3 32/1/3 64/1/3
f 18/1/3 19/1/3 51/1/3
f 5/1/3 6/1/3 38/1/3
f 32/1/3 1/1/3 34/1/3
f 19/1/3 20/1/3 52/1/3
f 6/1/3 7/1/3 39/1/3
f 20/1/3 21/1/3 53/1/3
f 7/1/3 8/1/3 40/1/3
f 21/1/3 22/1/3 54/1/3
f 84/1/4 116/1/4 115/1/4
f 36/1/76 68/1/76 67/1/76
f 63/1/6 95/1/6 94/1/6
f 50/1/92 82/1/92 81/1/92
f 37/1/78 69/1/78 68/1/78
f 64/1/9 96/1/9 95/1/9
f 51/1/10 83/1/10 82/1/10
f 38/1/93 70/1/93 69/1/93
f 34/1/82 66/1/82 96/1/82
f 52/1/13 84/1/13 83/1/13
f 39/1/14 71/1/14 70/1/14
f 53/1/94 85/1/94 84/1/94
f 40/1/95 72/1/95 71/1/95
f 54/1/96 86/1/96 85/1/96
f 41/1/97 73/1/97 72/1/97
f 55/1/98 87/1/98 86/1/98
f 42/1/99 74/1/99 73/1/99
f 56/1/21 88/1/21 87/1/21
f 43/1/100 75/1/100 74/1/100
f 57/1/101 89/1/101 88/1/101
f 44/1/24 76/1/24 75/1/24
f 58/1/102 90/1/102 89/1/102
f 45/1/103 77/1/103 76/1/103
f 59/1/27 91/1/27 90/1/27
f 46/1/104 78/1/104 77/1/104
f 60/1/105 92/1/105 91/1/105
f 47/1/106 79/1/106 78/1/106
f 33/1/107 65/1/107 66/1/107
f 61/1/108 93/1/108 92/1/108
f 48/1/109 80/1/109 79/1/109
f 35/1/73 67/1/73 65/1/73
f 62/1/110 94/1/110 93/1/110
f 119/1/111 151/1/111 150/1/111
f 70/1/112 71/1/112 103/1/112
f 85/1/37 117/1/37 116/1/37
f 71/1/113 72/1/113 104/1/113
f 86/1/39 118/1/39 117/1/39
f 72/1/40 73/1/40 105/1/40
f 87/1/41 119/1/41 118/1/41
f 73/1/42 74/1/42 106/1/42
f 88/1/43 120/1/43 119/1/43
f 74/1/44 75/1/44 107/1/44
f 89/1/114 121/1/114 120/1/114
f 75/1/115 76/1/115 108/1/115
f 90/1/47 122/1/47 121/1/47
f 76/1/48 77/1/48 109/1/48
f 91/1/116 123/1/116 122/1/116
f 77/1/50 78/1/50 110/1/50
f 92/1/117 124/1/117 123/1/117
f 78/1/52 79/1/52 111/1/52
f 66/1/53 65/1/53 97/1/53
f 93/1/54 125/1/54 124/1/54
f 80/1/118 112/1/118 111/1/118
f 65/1/56 67/1/56 99/1/56
f 94/1/119 126/1/119 125/1/119
f 81/1/120 113/1/120 112/1/120
f 67/1/121 68/1/121 100/1/121
f 94/1/60 95/1/60 127/1/60
f 82/1/122 114/1/122 113/1/122
f 68/1/62 69/1/62 101/1/62
f 95/1/63 96/1/63 128/1/63
f 83/1/123 115/1/123 114/1/123
f 69/1/65 70/1/65 102/1/65
f 66/1/66 98/1/66 128/1/66
f 130/1/3 129/1/3 131/1/3
f 131/1/124 132/1/124 133/1/124
f 133/1/3 134/1/3 135/1/3
f 135/1/3 136/1/3 137/1/3
f 137/1/3 138/1/3 139/1/3
f 139/1/3 140/1/3 141/1/3
f 141/1/124 142/1/124 143/1/124
f 143/1/3 144/1/3 145/1/3
f 145/1/3 146/1/3 147/1/3
f 147/1/125 148/1/125 149/1/125
f 149/1/3 150/1/3 151/1/3
f 151/1/3 152/1/3 153/1/3
f 153/1/3 154/1/3 155/1/3
f 155/1/3 156/1/3 157/1/3
f 157/1/125 158/1/125 159/1/125
f 159/1/3 160/1/3 130/1/3
f 130/1/3 131/1/3 133/1/3
f 133/1/3 135/1/3 137/1/3
f 137/1/3 139/1/3 141/1/3
f 141/1/3 143/1/3 145/1/3
f 145/1/3 147/1/3 149/1/3
f 149/1/3 151/1/3 153/1/3
f 153/1/3 155/1/3 157/1/3
f 157/1/3 159/1/3 130/1/3
f 130/1/3 133/1/3 137/1/3
f 137/1/3 141/1/3 145/1/3
f 145/1/3 149/1/3 153/1/3
f 153/1/3 157/1/3 130/1/3
f 130/1/3 137/1/3 145/1/3
f 106/1/126 138/1/126 137/1/126
f 120/1/127 152/1/127 151/1/127
f 107/1/128 139/1/128 138/1/128
f 121/1/101 153/1/101 152/1/101
f 108/1/129 140/1/129 139/1/129
f 122/1/102 154/1/102 153/1/102
f 109/1/68 141/1/68 140/1/68
f 123/1/130 155/1/130 154/1/130
f 110/1/28 142/1/28 141/1/28
f 124/1/105 156/1/105 155/1/105
f 111/1/30 143/1/30 142/1/30
f 97/1/31 129/1/31 130/1/31
f 125/1/72 157/1/72 156/1/72
f 112/1/33 144/1/33 143/1/33
f 99/1/73 131/1/73 129/1/73
f 126/1/74 158/1/74 157/1/74
f 113/1/75 145/1/75 144/1/75
f 100/1/76 132/1/76 131/1/76
f 127/1/6 159/1/6 158/1/6
f 114/1/7 146/1/7 145/1/7
f 101/1/131 133/1/131 132/1/131
f 128/1/79 160/1/79 159/1/79
f 115/1/80 147/1/80 146/1/80
f 102/1/81 134/1/81 133/1/81
f 98/1/82 130/1/82 160/1/82
f 116/1/132 148/1/132 147/1/132
f 103/1/14 135/1/14 134/1/14
f 117/1/84 149/1/84 148/1/84
f 104/1/95 136/1/95 135/1/95
f 118/1/86 150/1/86 149/1/86
f 105/1/97 137/1/97 136/1/97
