# Blender 4.1.1
# www.blender.org
mtllib wheels_f.mtl
o F2_Item_Kart_Yoshi_S.001
v -2.650743 -0.733512 -1.403169
v -4.532899 -0.733512 -1.403169
v -2.650753 -1.302715 -0.833960
v -4.532899 -1.302715 -0.833960
v -2.650743 0.044034 -1.611507
v -4.532899 0.044034 -1.611507
v -2.650743 0.821582 -1.403169
v -4.532899 0.821582 -1.403169
v -2.650743 1.390790 -0.833969
v -4.532899 1.390790 -0.833969
v -2.650743 1.599129 -0.056413
v -4.532899 1.599138 -0.056413
v -2.650743 1.390791 0.721135
v -4.532899 1.390791 0.721135
v -2.650743 1.599129 -0.056413
v -4.532899 1.599138 -0.056413
v -2.650743 0.821582 1.290335
v -4.532899 0.821582 1.290335
v -2.650743 0.044034 1.498683
v -4.532899 0.044034 1.498683
v -2.650743 -0.733510 1.290335
v -4.532899 -0.733510 1.290335
v -2.650753 -1.302714 0.721135
v -4.532899 -1.302714 0.721135
v -2.773093 -1.511058 -0.056413
v -4.532908 -1.511058 -0.056413
v -4.532899 -1.302715 -0.833960
v -4.532899 -0.733512 -1.403169
v -4.756563 0.044034 -0.056413
v -4.532899 0.044034 -1.611507
v -4.532899 0.821582 -1.403169
v -4.532899 1.390790 -0.833969
v -4.532899 1.390791 0.721135
v -4.532899 0.821582 1.290335
v -4.532899 -0.733510 1.290335
v -4.532899 -1.302714 0.721135
v -4.532908 -1.511058 -0.056413
v -4.532899 1.599138 -0.056413
v -4.532899 0.044034 1.498683
v -2.463296 0.037588 -0.051663
v -2.650743 1.390790 -0.833969
v -2.650743 1.599129 -0.056413
v -2.650743 0.821582 -1.403169
v -2.650743 0.044034 -1.611507
v -2.650743 1.390791 0.721135
v -2.650743 0.821582 1.290335
v -2.650743 0.044034 1.498683
v -2.650743 -0.733510 1.290335
v -2.650753 -1.302714 0.721135
v -2.773093 -1.511058 -0.056413
v -2.650753 -1.302715 -0.833960
v -2.650743 -0.733512 -1.403169
v 2.650743 -0.733512 -1.403169
v 2.650753 -1.302715 -0.833960
v 4.532899 -0.733512 -1.403169
v 4.532899 -1.302715 -0.833960
v 2.650743 0.044034 -1.611507
v 4.532899 0.044034 -1.611507
v 2.650743 0.821582 -1.403169
v 4.532899 0.821582 -1.403169
v 2.650743 1.390790 -0.833969
v 4.532899 1.390790 -0.833969
v 2.650743 1.599129 -0.056413
v 4.532899 1.599138 -0.056413
v 2.650743 1.390791 0.721126
v 2.650743 1.599129 -0.056413
v 4.532899 1.390791 0.721126
v 4.532899 1.599138 -0.056413
v 2.650743 0.821582 1.290335
v 4.532899 0.821582 1.290335
v 2.650743 0.044034 1.498683
v 4.532899 0.044034 1.498683
v 2.650743 -0.733510 1.290335
v 4.532899 -0.733510 1.290335
v 2.650753 -1.302714 0.721135
v 4.532899 -1.302714 0.721135
v 2.650753 -1.511058 -0.056413
v 4.532908 -1.511058 -0.056413
v 4.532899 -1.302715 -0.833960
v 4.756563 0.044034 -0.056413
v 4.532899 -0.733512 -1.403169
v 4.532899 0.044034 -1.611507
v 4.532899 0.821582 -1.403169
v 4.532899 1.390790 -0.833969
v 4.532899 1.390791 0.721126
v 4.532899 0.821582 1.290335
v 4.532899 -0.733510 1.290335
v 4.532899 -1.302714 0.721135
v 4.532908 -1.511058 -0.056413
v 4.532899 1.599138 -0.056413
v 4.532899 0.044034 1.498683
v 2.463296 0.037588 -0.051663
v 2.650743 1.599129 -0.056413
v 2.650743 1.390790 -0.833969
v 2.650743 0.821582 -1.403169
v 2.650743 0.044034 -1.611507
v 2.650743 1.390791 0.721126
v 2.650743 0.821582 1.290335
v 2.650743 0.044034 1.498683
v 2.650743 -0.733510 1.290335
v 2.650753 -1.302714 0.721135
v 2.650753 -1.511058 -0.056413
v 2.650753 -1.302715 -0.833960
v 2.650743 -0.733512 -1.403169
vn -0.0000 -0.5000 -0.8660
vn -0.0000 -0.8660 -0.5000
vn -0.6659 -0.3730 -0.6461
vn -0.6660 -0.0000 -0.7460
vn -0.0000 -0.0000 -1.0000
vn -0.6659 0.3730 -0.6461
vn -0.0000 0.5000 -0.8660
vn -0.6659 0.6462 -0.3729
vn -0.0000 0.8660 -0.5000
vn -0.6661 0.7459 -0.0001
vn -0.0000 1.0000 -0.0000
vn -0.6659 -0.6462 -0.3729
vn -0.0000 -1.0000 -0.0000
vn -0.6660 -0.7459 -0.0000
vn -0.0000 -0.8660 0.5000
vn -0.6659 -0.6462 0.3728
vn -0.0000 -0.5000 0.8660
vn -0.6659 -0.3730 0.6461
vn -0.0000 -0.0000 1.0000
vn -0.6660 -0.0000 0.7459
vn -0.0000 0.5000 0.8660
vn -0.6659 0.3730 0.6461
vn -0.0000 0.8660 0.5000
vn -0.6659 0.6461 0.3730
vn -0.0000 1.0000 0.0001
vn -0.6660 0.7459 -0.0002
vn -0.6659 -0.6461 -0.3730
vn -1.0000 -0.0000 -0.0000
vn -0.6659 -0.3731 -0.6461
vn -0.6658 -0.7461 -0.0000
vn -0.6658 -0.6462 0.3731
vn -0.6658 -0.0000 0.7461
vn -0.6659 0.3731 0.6461
vn -0.6658 0.7461 -0.0000
vn -0.6658 0.6462 -0.3731
vn -0.6658 -0.0000 -0.7461
vn -0.9999 0.0134 -0.0003
vn -0.9929 -0.1192 -0.0000
vn -0.9929 -0.1031 0.0595
vn -0.9929 -0.0596 0.1031
vn -0.9929 -0.0001 0.1193
vn -0.9928 0.0597 0.1036
vn -0.9897 0.1426 -0.0072
vn -0.9806 0.1962 -0.0001
vn -0.9898 0.1423 0.0067
vn -0.9927 0.0601 -0.1041
vn -0.9928 -0.0001 -0.1200
vn -0.9928 -0.0599 -0.1037
vn -0.9928 -0.1035 -0.0596
vn 0.6684 -0.3719 -0.6442
vn 0.6684 -0.0000 -0.7438
vn 0.6684 0.3719 -0.6442
vn 0.6684 0.6441 -0.3720
vn 0.6683 0.7439 -0.0001
vn 0.6684 -0.6442 -0.3719
vn 0.6684 -0.7438 -0.0000
vn 0.6684 -0.6441 0.3720
vn 0.6684 -0.3719 0.6442
vn 0.6684 -0.0000 0.7438
vn 0.6684 0.3719 0.6442
vn 0.6684 0.6442 0.3719
vn -0.0000 1.0000 0.0002
vn 0.6683 0.7439 0.0001
vn 0.6683 -0.6442 -0.3720
vn 0.6683 -0.3719 -0.6443
vn 1.0000 -0.0000 -0.0000
vn 0.6683 -0.7439 -0.0000
vn 0.6683 -0.6442 0.3719
vn 0.6683 -0.3720 0.6442
vn 0.6683 -0.0000 0.7439
vn 0.6683 0.3719 0.6443
vn 0.6683 0.6442 0.3720
vn 0.6683 0.7439 -0.0000
vn 0.6683 0.6442 -0.3719
vn 0.6683 0.3720 -0.6442
vn 0.6683 -0.0000 -0.7439
vn 0.9929 -0.1031 0.0595
vn 0.9929 -0.1192 -0.0000
vn 0.9929 -0.0596 0.1031
vn 0.9929 -0.0001 0.1193
vn 0.9928 0.0597 0.1036
vn 0.9928 0.1038 0.0600
vn 0.9928 0.1202 -0.0000
vn 0.9927 0.1042 -0.0601
vn 0.9927 0.0601 -0.1041
vn 0.9928 -0.0001 -0.1200
vn 0.9928 -0.0599 -0.1037
vn 0.9928 -0.1035 -0.0596
vt 1.319540 -1.011870
vt 1.819940 -1.011870
vt 1.319490 -0.532995
vt 0.816721 -0.532995
vt 0.816766 -1.011870
vt 0.314113 -0.532995
vt 0.314158 -1.011870
vt -0.188416 -0.532995
vt -0.188372 -1.011870
vt -0.690830 -0.532995
vt -0.690786 -1.011870
vt 1.819900 -0.532995
vt 2.318390 -1.011870
vt 2.318340 -0.532995
vt 2.815520 -1.011870
vt 2.815480 -0.532995
vt 3.311550 -1.011870
vt 3.311500 -0.532995
vt 3.806820 -1.011870
vt 3.806780 -0.532995
vt 4.301540 -1.011870
vt 4.301500 -0.532995
vt 4.795580 -1.011870
vt 4.795530 -0.532995
vt 5.299250 -1.011870
vt 5.299210 -0.532995
vt 0.721872 0.560165
vt 0.493151 0.760519
vt 0.889309 0.644845
vt 0.493150 0.529170
vt 0.264427 0.560165
vt 0.096992 0.644845
vt 0.035705 0.760519
vt 0.096992 0.876194
vt 0.264428 0.960874
vt 0.493151 0.991869
vt 0.721873 0.960874
vt 0.889309 0.876194
vt 0.950596 0.760519
vt 0.497661 1.000270
vt 0.730909 0.968065
vt 0.901658 0.880077
vt 0.964157 0.759882
vt 0.901658 0.639688
vt 0.730908 0.551700
vt 0.497660 0.519494
vt 0.264412 0.551700
vt 0.093664 0.639688
vt 0.031164 0.759882
vt 0.093664 0.880077
vt 0.264412 0.968065
s 1
usemtl mt_Kart_Yoshi_Tire_S.003
f 1/1/1 3/2/2 2/3/3
f 6/4/4 1/1/1 2/3/3
f 5/5/5 1/1/1 6/4/4
f 8/6/6 5/5/5 6/4/4
f 7/7/7 5/5/5 8/6/6
f 10/8/8 7/7/7 8/6/6
f 9/9/9 7/7/7 10/8/8
f 12/10/10 9/9/9 10/8/8
f 11/11/11 9/9/9 12/10/10
f 2/3/3 3/2/2 4/12/12
f 3/2/2 25/13/13 4/12/12
f 4/12/12 25/13/13 26/14/14
f 25/13/13 23/15/15 26/14/14
f 26/14/14 23/15/15 24/16/16
f 23/15/15 21/17/17 24/16/16
f 24/16/16 21/17/17 22/18/18
f 21/17/17 19/19/19 22/18/18
f 22/18/18 19/19/19 20/20/20
f 19/19/19 17/21/21 20/20/20
f 20/20/20 17/21/21 18/22/22
f 17/21/21 13/23/23 18/22/22
f 18/22/22 13/23/23 14/24/24
f 13/23/23 15/25/25 14/24/24
f 14/24/24 15/25/25 16/26/26
f 27/27/27 29/28/28 28/29/29
f 29/28/28 27/27/27 37/30/30
f 37/30/30 36/31/31 29/28/28
f 35/32/18 29/28/28 36/31/31
f 39/33/32 29/28/28 35/32/18
f 34/34/33 29/28/28 39/33/32
f 33/35/24 29/28/28 34/34/33
f 38/36/34 29/28/28 33/35/24
f 32/37/35 29/28/28 38/36/34
f 31/38/6 29/28/28 32/37/35
f 31/38/6 30/39/36 29/28/28
f 30/39/36 28/29/29 29/28/28
f 40/28/37 42/40/38 41/41/39
f 43/42/40 40/28/37 41/41/39
f 43/42/40 44/43/41 40/28/37
f 40/28/37 44/43/41 52/44/42
f 51/45/43 40/28/37 52/44/42
f 51/45/43 50/46/44 40/28/37
f 40/28/37 50/46/44 49/47/45
f 40/28/37 49/47/45 48/48/46
f 48/48/46 47/49/47 40/28/37
f 40/28/37 47/49/47 46/50/48
f 46/50/48 45/51/49 40/28/37
f 45/51/49 42/40/38 40/28/37
f 53/1/1 55/3/50 54/2/2
f 53/1/1 58/4/51 55/3/50
f 57/5/5 58/4/51 53/1/1
f 57/5/5 60/6/52 58/4/51
f 59/7/7 60/6/52 57/5/5
f 59/7/7 62/8/53 60/6/52
f 61/9/9 62/8/53 59/7/7
f 61/9/9 64/10/54 62/8/53
f 63/11/11 64/10/54 61/9/9
f 54/2/2 55/3/50 56/12/55
f 54/2/2 56/12/55 77/13/13
f 77/13/13 56/12/55 78/14/56
f 77/13/13 78/14/56 75/15/15
f 75/15/15 78/14/56 76/16/57
f 75/15/15 76/16/57 73/17/17
f 73/17/17 76/16/57 74/18/58
f 73/17/17 74/18/58 71/19/19
f 71/19/19 74/18/58 72/20/59
f 71/19/19 72/20/59 69/21/21
f 69/21/21 72/20/59 70/22/60
f 69/21/21 70/22/60 65/23/23
f 65/23/23 70/22/60 67/24/61
f 65/23/23 67/24/61 66/25/62
f 66/25/62 67/24/61 68/26/63
f 79/27/64 81/29/65 80/28/66
f 80/28/66 89/30/67 79/27/64
f 89/30/67 80/28/66 88/31/68
f 87/32/69 88/31/68 80/28/66
f 91/33/70 87/32/69 80/28/66
f 86/34/71 91/33/70 80/28/66
f 85/35/72 86/34/71 80/28/66
f 90/36/73 85/35/72 80/28/66
f 84/37/74 90/36/73 80/28/66
f 83/38/75 84/37/74 80/28/66
f 83/38/75 80/28/66 82/39/76
f 82/39/76 80/28/66 81/29/65
f 92/28/66 94/41/77 93/40/78
f 95/42/79 94/41/77 92/28/66
f 95/42/79 92/28/66 96/43/80
f 92/28/66 104/44/81 96/43/80
f 103/45/82 104/44/81 92/28/66
f 103/45/82 92/28/66 102/46/83
f 92/28/66 101/47/84 102/46/83
f 92/28/66 100/48/85 101/47/84
f 100/48/85 92/28/66 99/49/86
f 92/28/66 98/50/87 99/49/86
f 98/50/87 92/28/66 97/51/88
f 97/51/88 92/28/66 93/40/78
