# Blender 4.1.1
# www.blender.org
mtllib Circle.012.mtl
o Pipe.133
v -3692.595947 3068.547119 2672.189941
v -3695.207764 3068.547119 2672.447266
v -3697.719482 3068.547119 2673.208984
v -3700.034180 3068.547119 2674.446289
v -3702.062744 3068.547119 2676.111084
v -3703.727783 3068.547119 2678.139893
v -3704.965088 3068.547119 2680.454346
v -3705.726807 3068.547119 2682.966064
v -3705.984131 3068.547119 2685.577881
v -3705.726807 3068.547119 2688.189697
v -3704.965088 3068.547119 2690.701416
v -3703.727783 3068.547119 2693.015869
v -3702.062744 3068.547119 2695.044678
v -3700.034180 3068.547119 2696.709473
v -3697.719482 3068.547119 2697.946777
v -3695.207764 3068.547119 2698.708496
v -3692.595947 3068.547119 2698.965820
v -3689.984131 3068.547119 2698.708496
v -3687.472656 3068.547119 2697.946777
v -3685.157959 3068.547119 2696.709473
v -3683.129150 3068.547119 2695.044678
v -3681.464111 3068.547119 2693.015869
v -3680.227051 3068.547119 2690.701416
v -3679.465332 3068.547119 2688.189697
v -3679.208008 3068.547119 2685.577881
v -3679.465332 3068.547119 2682.966064
v -3680.227051 3068.547119 2680.454346
v -3681.464111 3068.547119 2678.139893
v -3683.129150 3068.547119 2676.111084
v -3685.157959 3068.547119 2674.446289
v -3687.472656 3068.547119 2673.208984
v -3689.984131 3068.547119 2672.447266
v -3695.207764 3068.547119 2672.447266
v -3692.595947 3068.547119 2672.189941
v -3697.719482 3068.547119 2673.208984
v -3700.034180 3068.547119 2674.446289
v -3702.062744 3068.547119 2676.111084
v -3703.727783 3068.547119 2678.139893
v -3704.965088 3068.547119 2680.454346
v -3705.726807 3068.547119 2682.966064
v -3705.984131 3068.547119 2685.577881
v -3705.726807 3068.547119 2688.189697
v -3704.965088 3068.547119 2690.701416
v -3703.727783 3068.547119 2693.015869
v -3702.062744 3068.547119 2695.044678
v -3700.034180 3068.547119 2696.709473
v -3697.719482 3068.547119 2697.946777
v -3695.207764 3068.547119 2698.708496
v -3692.595947 3068.547119 2698.965820
v -3689.984131 3068.547119 2698.708496
v -3687.472656 3068.547119 2697.946777
v -3685.157959 3068.547119 2696.709473
v -3683.129150 3068.547119 2695.044678
v -3681.464111 3068.547119 2693.015869
v -3680.227051 3068.547119 2690.701416
v -3679.465332 3068.547119 2688.189697
v -3679.208008 3068.547119 2685.577881
v -3679.465332 3068.547119 2682.966064
v -3680.227051 3068.547119 2680.454346
v -3681.464111 3068.547119 2678.139893
v -3683.129150 3068.547119 2676.111084
v -3685.157959 3068.547119 2674.446289
v -3687.472656 3068.547119 2673.208984
v -3689.984131 3068.547119 2672.447266
v -3695.207764 3107.511230 2672.447266
v -3692.595947 3107.511230 2672.189941
v -3697.719482 3107.511230 2673.208984
v -3700.034180 3107.511230 2674.446289
v -3702.062744 3107.511230 2676.111084
v -3703.727783 3107.511230 2678.139893
v -3704.965088 3107.511230 2680.454346
v -3705.726807 3107.511230 2682.966064
v -3705.984131 3107.511230 2685.577881
v -3705.726807 3107.511230 2688.189697
v -3704.965088 3107.511230 2690.701416
v -3703.727783 3107.511230 2693.015869
v -3702.062744 3107.511230 2695.044678
v -3700.034180 3107.511230 2696.709473
v -3697.719482 3107.511230 2697.946777
v -3695.207764 3107.511230 2698.708496
v -3692.595947 3107.511230 2698.965820
v -3689.984131 3107.511230 2698.708496
v -3687.472656 3107.511230 2697.946777
v -3685.157959 3107.511230 2696.709473
v -3683.129150 3107.511230 2695.044678
v -3681.464111 3107.511230 2693.015869
v -3680.227051 3107.511230 2690.701416
v -3679.465332 3107.511230 2688.189697
v -3679.208008 3107.511230 2685.577881
v -3679.465332 3107.511230 2682.966064
v -3680.227051 3107.511230 2680.454346
v -3681.464111 3107.511230 2678.139893
v -3683.129150 3107.511230 2676.111084
v -3685.157959 3107.511230 2674.446289
v -3687.472656 3107.511230 2673.208984
v -3689.984131 3107.511230 2672.447266
v -3697.020508 3108.075195 2663.333740
v -3692.595947 3108.075195 2662.897949
v -3701.274902 3108.075195 2664.624268
v -3705.196289 3108.075195 2666.720215
v -3708.632812 3108.075195 2669.540771
v -3711.453613 3108.075195 2672.977539
v -3713.549316 3108.075195 2676.898438
v -3714.840088 3108.075195 2681.153076
v -3715.275635 3108.075195 2685.577637
v -3714.840088 3108.075195 2690.002197
v -3713.549316 3108.075195 2694.256592
v -3711.453613 3108.075195 2698.177734
v -3708.632812 3108.075195 2701.614502
v -3705.196289 3108.075195 2704.435059
v -3701.274902 3108.075195 2706.530762
v -3697.020508 3108.075195 2707.821533
v -3692.595947 3108.075195 2708.257080
v -3688.171387 3108.075195 2707.821533
v -3683.916992 3108.075195 2706.530762
v -3679.995850 3108.075195 2704.435059
v -3676.559082 3108.075195 2701.614502
v -3673.738525 3108.075195 2698.177734
v -3671.642822 3108.075195 2694.256592
v -3670.352051 3108.075195 2690.002197
v -3669.916504 3108.075195 2685.577637
v -3670.352051 3108.075195 2681.153076
v -3671.642822 3108.075195 2676.898438
v -3673.738525 3108.075195 2672.977539
v -3676.559082 3108.075195 2669.540771
v -3679.995850 3108.075195 2666.720215
v -3683.916992 3108.075195 2664.624268
v -3688.171387 3108.075195 2663.333740
v -3697.020508 3116.917236 2663.333740
v -3692.595947 3116.917236 2662.897949
v -3701.274902 3116.917236 2664.624268
v -3705.196289 3116.917236 2666.720215
v -3708.632812 3116.917236 2669.540771
v -3711.453613 3116.917236 2672.977539
v -3713.549316 3116.917236 2676.898438
v -3714.840088 3116.917236 2681.153076
v -3715.275635 3116.917236 2685.577637
v -3714.840088 3116.917236 2690.002197
v -3713.549316 3116.917236 2694.256592
v -3711.453613 3116.917236 2698.177734
v -3708.632812 3116.917236 2701.614502
v -3705.196289 3116.917236 2704.435059
v -3701.274902 3116.917236 2706.530762
v -3697.020508 3116.917236 2707.821533
v -3692.595947 3116.917236 2708.257080
v -3688.171387 3116.917236 2707.821533
v -3683.916992 3116.917236 2706.530762
v -3679.995850 3116.917236 2704.435059
v -3676.559082 3116.917236 2701.614502
v -3673.738525 3116.917236 2698.177734
v -3671.642822 3116.917236 2694.256592
v -3670.352051 3116.917236 2690.002197
v -3669.916504 3116.917236 2685.577637
v -3670.352051 3116.917236 2681.153076
v -3671.642822 3116.917236 2676.898438
v -3673.738525 3116.917236 2672.977539
v -3676.559082 3116.917236 2669.540771
v -3679.995850 3116.917236 2666.720215
v -3683.916992 3116.917236 2664.624268
v -3688.171387 3116.917236 2663.333740
vn -0.0000 -1.0000 -0.0000
vn -0.9569 -0.0000 -0.2903
vn -0.0000 1.0000 -0.0000
vn -0.0582 -0.9981 0.0177
vn 0.7730 -0.0000 0.6344
vn -0.9952 -0.0000 -0.0978
vn 0.8819 -0.0000 0.4715
vn -0.9952 -0.0000 0.0981
vn 0.9569 -0.0000 0.2903
vn -0.9569 -0.0000 0.2903
vn 0.9952 -0.0000 0.0981
vn -0.8819 -0.0000 0.4715
vn 0.9952 -0.0000 -0.0978
vn -0.7729 -0.0000 0.6346
vn 0.9569 -0.0000 -0.2903
vn -0.6344 -0.0000 0.7730
vn 0.8820 -0.0000 -0.4713
vn -0.4714 -0.0000 0.8819
vn -0.0980 -0.0000 -0.9952
vn 0.7730 -0.0000 -0.6344
vn -0.2902 -0.0000 0.9570
vn -0.2902 -0.0000 -0.9570
vn 0.6344 -0.0000 -0.7730
vn -0.0981 -0.0000 0.9952
vn -0.4714 -0.0000 -0.8819
vn 0.4714 -0.0000 -0.8819
vn 0.0981 -0.0000 0.9952
vn -0.6344 -0.0000 -0.7730
vn 0.2902 -0.0000 -0.9570
vn 0.2903 -0.0000 0.9569
vn -0.7730 -0.0000 -0.6344
vn 0.0980 -0.0000 -0.9952
vn 0.4714 -0.0000 0.8819
vn -0.8820 -0.0000 -0.4713
vn 0.6343 -0.0000 0.7731
vn 0.0980 -0.0000 0.9952
vn 0.0606 -0.9981 0.0060
vn -0.0537 -0.9981 0.0287
vn 0.0606 -0.9981 -0.0060
vn -0.0470 -0.9981 0.0386
vn 0.0582 -0.9981 -0.0177
vn -0.0386 -0.9981 0.0471
vn 0.0537 -0.9981 -0.0287
vn -0.0287 -0.9981 0.0537
vn -0.0060 -0.9981 -0.0606
vn 0.0471 -0.9981 -0.0386
vn -0.0177 -0.9981 0.0583
vn -0.0177 -0.9981 -0.0583
vn 0.0386 -0.9981 -0.0471
vn -0.0059 -0.9981 0.0606
vn -0.0287 -0.9981 -0.0537
vn 0.0288 -0.9981 -0.0537
vn 0.0059 -0.9981 0.0606
vn -0.0386 -0.9981 -0.0471
vn 0.0177 -0.9981 -0.0583
vn 0.0177 -0.9981 0.0582
vn -0.0472 -0.9981 -0.0386
vn 0.0060 -0.9981 -0.0606
vn 0.0288 -0.9981 0.0537
vn -0.0537 -0.9981 -0.0287
vn 0.0386 -0.9981 0.0471
vn -0.0583 -0.9981 -0.0177
vn 0.0472 -0.9981 0.0386
vn -0.0606 -0.9981 -0.0060
vn 0.0537 -0.9981 0.0287
vn -0.0606 -0.9981 0.0060
vn 0.0583 -0.9981 0.0177
vn 0.2903 -0.0000 -0.9569
vn -0.7729 -0.0000 -0.6345
vn -0.8819 -0.0000 -0.4714
vn 0.6344 -0.0000 0.7730
vn -0.9569 -0.0000 -0.2904
vn -0.9952 -0.0000 -0.0980
vn 0.8819 -0.0000 0.4714
vn -0.9952 -0.0000 0.0980
vn -0.9569 -0.0000 0.2904
vn 0.9952 -0.0000 0.0980
vn -0.8819 -0.0000 0.4714
vn 0.9952 -0.0000 -0.0980
vn -0.7730 -0.0000 0.6344
vn 0.9569 -0.0000 -0.2904
vn -0.6345 -0.0000 0.7729
vn 0.8819 -0.0000 -0.4714
vn -0.4713 -0.0000 0.8820
vn -0.2903 -0.0000 0.9569
vn -0.2903 -0.0000 -0.9569
vn 0.6345 -0.0000 -0.7729
vn -0.0980 -0.0000 0.9952
vn 0.4713 -0.0000 -0.8820
vn 0.0001 -1.0000 -0.0000
vn -0.0007 -1.0000 -0.0000
vn 0.0007 -1.0000 -0.0000
vn -0.0004 -1.0000 -0.0000
vn -0.0001 -1.0000 -0.0000
vn 0.0004 -1.0000 -0.0000
vn -0.0583 -0.9981 0.0177
vn -0.9952 -0.0000 -0.0981
vn 0.8820 -0.0000 0.4713
vn -0.9952 -0.0000 0.0978
vn 0.9952 -0.0000 0.0978
vn -0.8820 -0.0000 0.4713
vn 0.9952 -0.0000 -0.0981
vn 0.8819 -0.0000 -0.4715
vn -0.0981 -0.0000 -0.9952
vn 0.6343 -0.0000 -0.7731
vn 0.2902 -0.0000 0.9570
vn -0.7729 -0.0000 -0.6346
vn 0.0981 -0.0000 -0.9952
vn -0.8819 -0.0000 -0.4715
vn -0.0472 -0.9981 0.0386
vn 0.0583 -0.9981 -0.0177
vn -0.0288 -0.9981 0.0537
vn -0.0059 -0.9981 -0.0606
vn -0.0177 -0.9981 0.0582
vn -0.0177 -0.9981 -0.0582
vn -0.0060 -0.9981 0.0606
vn -0.0288 -0.9981 -0.0537
vn 0.0287 -0.9981 -0.0537
vn 0.0060 -0.9981 0.0606
vn 0.0177 -0.9981 -0.0582
vn 0.0177 -0.9981 0.0583
vn -0.0470 -0.9981 -0.0386
vn 0.0059 -0.9981 -0.0606
vn 0.0287 -0.9981 0.0537
vn -0.0582 -0.9981 -0.0177
vn 0.0470 -0.9981 0.0386
vn 0.0582 -0.9981 0.0177
vn 0.0001 1.0000 -0.0000
vn 0.0005 1.0000 -0.0000
vn -0.0003 1.0000 -0.0000
vn -0.0001 1.0000 -0.0000
vn -0.0005 1.0000 -0.0000
vn 0.0003 1.0000 -0.0000
vn -0.6345 -0.0000 -0.7729
vn 0.4713 -0.0000 0.8820
vn 0.6345 -0.0000 0.7729
vn -0.7729 -0.0000 0.6345
vn 0.9570 -0.0000 -0.2902
vn 0.4715 -0.0000 -0.8819
vt 0.000000 0.000000
s 0
usemtl Material.003
f 19/1/1 11/1/1 3/1/1
f 40/1/2 71/1/2 39/1/2
f 26/1/3 59/1/3 58/1/3
f 13/1/3 46/1/3 45/1/3
f 27/1/3 60/1/3 59/1/3
f 14/1/3 47/1/3 46/1/3
f 1/1/3 33/1/3 34/1/3
f 28/1/3 61/1/3 60/1/3
f 15/1/3 48/1/3 47/1/3
f 2/1/3 35/1/3 33/1/3
f 29/1/3 62/1/3 61/1/3
f 16/1/3 49/1/3 48/1/3
f 3/1/3 36/1/3 35/1/3
f 30/1/3 63/1/3 62/1/3
f 17/1/3 50/1/3 49/1/3
f 4/1/3 37/1/3 36/1/3
f 31/1/3 64/1/3 63/1/3
f 18/1/3 51/1/3 50/1/3
f 5/1/3 38/1/3 37/1/3
f 32/1/3 34/1/3 64/1/3
f 19/1/3 52/1/3 51/1/3
f 6/1/3 39/1/3 38/1/3
f 20/1/3 53/1/3 52/1/3
f 7/1/3 40/1/3 39/1/3
f 21/1/3 54/1/3 53/1/3
f 8/1/3 41/1/3 40/1/3
f 22/1/3 55/1/3 54/1/3
f 9/1/3 42/1/3 41/1/3
f 23/1/3 56/1/3 55/1/3
f 10/1/3 43/1/3 42/1/3
f 24/1/3 57/1/3 56/1/3
f 11/1/3 44/1/3 43/1/3
f 25/1/3 58/1/3 57/1/3
f 12/1/3 45/1/3 44/1/3
f 74/1/4 107/1/4 106/1/4
f 54/1/5 85/1/5 53/1/5
f 41/1/6 72/1/6 40/1/6
f 55/1/7 86/1/7 54/1/7
f 42/1/8 73/1/8 41/1/8
f 56/1/9 87/1/9 55/1/9
f 43/1/10 74/1/10 42/1/10
f 57/1/11 88/1/11 56/1/11
f 44/1/12 75/1/12 43/1/12
f 58/1/13 89/1/13 57/1/13
f 45/1/14 76/1/14 44/1/14
f 59/1/15 90/1/15 58/1/15
f 46/1/16 77/1/16 45/1/16
f 60/1/17 91/1/17 59/1/17
f 47/1/18 78/1/18 46/1/18
f 33/1/19 66/1/19 34/1/19
f 61/1/20 92/1/20 60/1/20
f 48/1/21 79/1/21 47/1/21
f 35/1/22 65/1/22 33/1/22
f 62/1/23 93/1/23 61/1/23
f 49/1/24 80/1/24 48/1/24
f 36/1/25 67/1/25 35/1/25
f 63/1/26 94/1/26 62/1/26
f 50/1/27 81/1/27 49/1/27
f 37/1/28 68/1/28 36/1/28
f 64/1/29 95/1/29 63/1/29
f 51/1/30 82/1/30 50/1/30
f 38/1/31 69/1/31 37/1/31
f 34/1/32 96/1/32 64/1/32
f 52/1/33 83/1/33 51/1/33
f 39/1/34 70/1/34 38/1/34
f 53/1/35 84/1/35 52/1/35
f 114/1/36 145/1/36 113/1/36
f 88/1/37 121/1/37 120/1/37
f 75/1/38 108/1/38 107/1/38
f 89/1/39 122/1/39 121/1/39
f 76/1/40 109/1/40 108/1/40
f 91/1/41 122/1/41 90/1/41
f 78/1/42 109/1/42 77/1/42
f 92/1/43 123/1/43 91/1/43
f 78/1/44 111/1/44 110/1/44
f 66/1/45 97/1/45 98/1/45
f 93/1/46 124/1/46 92/1/46
f 80/1/47 111/1/47 79/1/47
f 67/1/48 97/1/48 65/1/48
f 93/1/49 126/1/49 125/1/49
f 81/1/50 112/1/50 80/1/50
f 67/1/51 100/1/51 99/1/51
f 95/1/52 126/1/52 94/1/52
f 82/1/53 113/1/53 81/1/53
f 68/1/54 101/1/54 100/1/54
f 95/1/55 128/1/55 127/1/55
f 82/1/56 115/1/56 114/1/56
f 70/1/57 101/1/57 69/1/57
f 96/1/58 98/1/58 128/1/58
f 84/1/59 115/1/59 83/1/59
f 71/1/60 102/1/60 70/1/60
f 85/1/61 116/1/61 84/1/61
f 71/1/62 104/1/62 103/1/62
f 86/1/63 117/1/63 85/1/63
f 72/1/64 105/1/64 104/1/64
f 87/1/65 118/1/65 86/1/65
f 74/1/66 105/1/66 73/1/66
f 88/1/67 119/1/67 87/1/67
f 145/1/3 153/1/3 130/1/3
f 101/1/28 132/1/28 100/1/28
f 128/1/68 159/1/68 127/1/68
f 115/1/30 146/1/30 114/1/30
f 102/1/69 133/1/69 101/1/69
f 98/1/32 160/1/32 128/1/32
f 116/1/33 147/1/33 115/1/33
f 103/1/70 134/1/70 102/1/70
f 117/1/71 148/1/71 116/1/71
f 104/1/72 135/1/72 103/1/72
f 118/1/5 149/1/5 117/1/5
f 105/1/73 136/1/73 104/1/73
f 119/1/74 150/1/74 118/1/74
f 106/1/75 137/1/75 105/1/75
f 120/1/9 151/1/9 119/1/9
f 107/1/76 138/1/76 106/1/76
f 121/1/77 152/1/77 120/1/77
f 108/1/78 139/1/78 107/1/78
f 122/1/79 153/1/79 121/1/79
f 109/1/80 140/1/80 108/1/80
f 123/1/81 154/1/81 122/1/81
f 110/1/82 141/1/82 109/1/82
f 124/1/83 155/1/83 123/1/83
f 111/1/84 142/1/84 110/1/84
f 97/1/19 130/1/19 98/1/19
f 125/1/20 156/1/20 124/1/20
f 112/1/85 143/1/85 111/1/85
f 99/1/86 129/1/86 97/1/86
f 126/1/87 157/1/87 125/1/87
f 113/1/88 144/1/88 112/1/88
f 100/1/25 131/1/25 99/1/25
f 127/1/89 158/1/89 126/1/89
f 3/1/90 2/1/90 1/1/90
f 1/1/1 32/1/1 31/1/1
f 31/1/91 30/1/91 29/1/91
f 29/1/1 28/1/1 27/1/1
f 27/1/92 26/1/92 25/1/92
f 25/1/92 24/1/92 23/1/92
f 23/1/1 22/1/1 21/1/1
f 21/1/93 20/1/93 19/1/93
f 19/1/94 18/1/94 17/1/94
f 17/1/1 16/1/1 15/1/1
f 15/1/92 14/1/92 13/1/92
f 13/1/1 12/1/1 11/1/1
f 11/1/91 10/1/91 9/1/91
f 9/1/91 8/1/91 7/1/91
f 7/1/1 6/1/1 5/1/1
f 5/1/95 4/1/95 3/1/95
f 3/1/1 1/1/1 31/1/1
f 31/1/1 29/1/1 27/1/1
f 27/1/1 25/1/1 23/1/1
f 23/1/1 21/1/1 19/1/1
f 19/1/1 17/1/1 15/1/1
f 15/1/1 13/1/1 11/1/1
f 11/1/1 9/1/1 7/1/1
f 7/1/1 5/1/1 3/1/1
f 3/1/1 31/1/1 27/1/1
f 27/1/94 23/1/94 19/1/94
f 19/1/1 15/1/1 11/1/1
f 11/1/90 7/1/90 3/1/90
f 3/1/1 27/1/1 19/1/1
f 40/1/2 72/1/2 71/1/2
f 26/1/3 27/1/3 59/1/3
f 13/1/3 14/1/3 46/1/3
f 27/1/3 28/1/3 60/1/3
f 14/1/3 15/1/3 47/1/3
f 1/1/3 2/1/3 33/1/3
f 28/1/3 29/1/3 61/1/3
f 15/1/3 16/1/3 48/1/3
f 2/1/3 3/1/3 35/1/3
f 29/1/3 30/1/3 62/1/3
f 16/1/3 17/1/3 49/1/3
f 3/1/3 4/1/3 36/1/3
f 30/1/3 31/1/3 63/1/3
f 17/1/3 18/1/3 50/1/3
f 4/1/3 5/1/3 37/1/3
f 31/1/3 32/1/3 64/1/3
f 18/1/3 19/1/3 51/1/3
f 5/1/3 6/1/3 38/1/3
f 32/1/3 1/1/3 34/1/3
f 19/1/3 20/1/3 52/1/3
f 6/1/3 7/1/3 39/1/3
f 20/1/3 21/1/3 53/1/3
f 7/1/3 8/1/3 40/1/3
f 21/1/3 22/1/3 54/1/3
f 8/1/3 9/1/3 41/1/3
f 22/1/3 23/1/3 55/1/3
f 9/1/3 10/1/3 42/1/3
f 23/1/3 24/1/3 56/1/3
f 10/1/3 11/1/3 43/1/3
f 24/1/3 25/1/3 57/1/3
f 11/1/3 12/1/3 44/1/3
f 25/1/3 26/1/3 58/1/3
f 12/1/3 13/1/3 45/1/3
f 74/1/96 75/1/96 107/1/96
f 54/1/5 86/1/5 85/1/5
f 41/1/97 73/1/97 72/1/97
f 55/1/98 87/1/98 86/1/98
f 42/1/99 74/1/99 73/1/99
f 56/1/9 88/1/9 87/1/9
f 43/1/10 75/1/10 74/1/10
f 57/1/100 89/1/100 88/1/100
f 44/1/101 76/1/101 75/1/101
f 58/1/102 90/1/102 89/1/102
f 45/1/80 77/1/80 76/1/80
f 59/1/15 91/1/15 90/1/15
f 46/1/16 78/1/16 77/1/16
f 60/1/103 92/1/103 91/1/103
f 47/1/18 79/1/18 78/1/18
f 33/1/104 65/1/104 66/1/104
f 61/1/20 93/1/20 92/1/20
f 48/1/21 80/1/21 79/1/21
f 35/1/22 67/1/22 65/1/22
f 62/1/105 94/1/105 93/1/105
f 49/1/88 81/1/88 80/1/88
f 36/1/25 68/1/25 67/1/25
f 63/1/26 95/1/26 94/1/26
f 50/1/36 82/1/36 81/1/36
f 37/1/28 69/1/28 68/1/28
f 64/1/68 96/1/68 95/1/68
f 51/1/106 83/1/106 82/1/106
f 38/1/107 70/1/107 69/1/107
f 34/1/108 66/1/108 96/1/108
f 52/1/33 84/1/33 83/1/33
f 39/1/109 71/1/109 70/1/109
f 53/1/71 85/1/71 84/1/71
f 114/1/36 146/1/36 145/1/36
f 88/1/37 89/1/37 121/1/37
f 75/1/38 76/1/38 108/1/38
f 89/1/39 90/1/39 122/1/39
f 76/1/110 77/1/110 109/1/110
f 91/1/111 123/1/111 122/1/111
f 78/1/42 110/1/42 109/1/42
f 92/1/43 124/1/43 123/1/43
f 78/1/112 79/1/112 111/1/112
f 66/1/113 65/1/113 97/1/113
f 93/1/46 125/1/46 124/1/46
f 80/1/114 112/1/114 111/1/114
f 67/1/115 99/1/115 97/1/115
f 93/1/49 94/1/49 126/1/49
f 81/1/116 113/1/116 112/1/116
f 67/1/117 68/1/117 100/1/117
f 95/1/118 127/1/118 126/1/118
f 82/1/119 114/1/119 113/1/119
f 68/1/54 69/1/54 101/1/54
f 95/1/120 96/1/120 128/1/120
f 82/1/121 83/1/121 115/1/121
f 70/1/122 102/1/122 101/1/122
f 96/1/123 66/1/123 98/1/123
f 84/1/124 116/1/124 115/1/124
f 71/1/60 103/1/60 102/1/60
f 85/1/61 117/1/61 116/1/61
f 71/1/125 72/1/125 104/1/125
f 86/1/126 118/1/126 117/1/126
f 72/1/64 73/1/64 105/1/64
f 87/1/65 119/1/65 118/1/65
f 74/1/66 106/1/66 105/1/66
f 88/1/127 120/1/127 119/1/127
f 130/1/128 129/1/128 131/1/128
f 131/1/3 132/1/3 133/1/3
f 133/1/3 134/1/3 135/1/3
f 135/1/3 136/1/3 137/1/3
f 137/1/129 138/1/129 139/1/129
f 139/1/129 140/1/129 141/1/129
f 141/1/130 142/1/130 143/1/130
f 143/1/131 144/1/131 145/1/131
f 145/1/128 146/1/128 147/1/128
f 147/1/3 148/1/3 149/1/3
f 149/1/132 150/1/132 151/1/132
f 151/1/132 152/1/132 153/1/132
f 153/1/3 154/1/3 155/1/3
f 155/1/3 156/1/3 157/1/3
f 157/1/133 158/1/133 159/1/133
f 159/1/131 160/1/131 130/1/131
f 130/1/3 131/1/3 133/1/3
f 133/1/3 135/1/3 137/1/3
f 137/1/131 139/1/131 141/1/131
f 141/1/3 143/1/3 145/1/3
f 145/1/128 147/1/128 149/1/128
f 149/1/128 151/1/128 153/1/128
f 153/1/3 155/1/3 157/1/3
f 157/1/3 159/1/3 130/1/3
f 130/1/3 133/1/3 137/1/3
f 137/1/3 141/1/3 145/1/3
f 145/1/3 149/1/3 153/1/3
f 153/1/3 157/1/3 130/1/3
f 130/1/3 137/1/3 145/1/3
f 101/1/134 133/1/134 132/1/134
f 128/1/68 160/1/68 159/1/68
f 115/1/30 147/1/30 146/1/30
f 102/1/31 134/1/31 133/1/31
f 98/1/32 130/1/32 160/1/32
f 116/1/135 148/1/135 147/1/135
f 103/1/70 135/1/70 134/1/70
f 117/1/136 149/1/136 148/1/136
f 104/1/2 136/1/2 135/1/2
f 118/1/5 150/1/5 149/1/5
f 105/1/73 137/1/73 136/1/73
f 119/1/74 151/1/74 150/1/74
f 106/1/75 138/1/75 137/1/75
f 120/1/9 152/1/9 151/1/9
f 107/1/10 139/1/10 138/1/10
f 121/1/77 153/1/77 152/1/77
f 108/1/78 140/1/78 139/1/78
f 122/1/79 154/1/79 153/1/79
f 109/1/137 141/1/137 140/1/137
f 123/1/138 155/1/138 154/1/138
f 110/1/16 142/1/16 141/1/16
f 124/1/83 156/1/83 155/1/83
f 111/1/18 143/1/18 142/1/18
f 97/1/19 129/1/19 130/1/19
f 125/1/20 157/1/20 156/1/20
f 112/1/85 144/1/85 143/1/85
f 99/1/86 131/1/86 129/1/86
f 126/1/23 158/1/23 157/1/23
f 113/1/88 145/1/88 144/1/88
f 100/1/25 132/1/25 131/1/25
f 127/1/139 159/1/139 158/1/139
