# Blender 4.1.1
# www.blender.org
mtllib Circle.035.mtl
o Pipe.156
v 952.010376 862.684204 93.908905
v 949.398499 862.684204 94.166138
v 946.887024 862.684204 94.927994
v 944.572388 862.684204 96.165176
v 942.543701 862.684204 97.830154
v 940.878723 862.684204 99.858917
v 939.641541 862.684204 102.173523
v 938.879639 862.684204 104.684998
v 938.622375 862.684204 107.296875
v 938.879639 862.684204 109.908737
v 939.641541 862.684204 112.420212
v 940.878723 862.684204 114.734818
v 942.543701 862.684204 116.763580
v 944.572388 862.684204 118.428558
v 946.887024 862.684204 119.665741
v 949.398499 862.684204 120.427597
v 952.010376 862.684204 120.684830
v 954.622253 862.684204 120.427597
v 957.133728 862.684204 119.665741
v 959.448364 862.684204 118.428558
v 961.477112 862.684204 116.763580
v 963.142029 862.684204 114.734818
v 964.379272 862.684204 112.420212
v 965.141113 862.684204 109.908737
v 965.398376 862.684204 107.296875
v 965.141113 862.684204 104.684998
v 964.379272 862.684204 102.173523
v 963.142029 862.684204 99.858917
v 961.477112 862.684204 97.830154
v 959.448364 862.684204 96.165176
v 957.133728 862.684204 94.927994
v 954.622253 862.684204 94.166138
v 949.398499 862.684204 94.166138
v 952.010376 862.684204 93.908905
v 946.887024 862.684204 94.927994
v 944.572388 862.684204 96.165176
v 942.543701 862.684204 97.830154
v 940.878723 862.684204 99.858917
v 939.641541 862.684204 102.173523
v 938.879639 862.684204 104.684998
v 938.622375 862.684204 107.296875
v 938.879639 862.684204 109.908737
v 939.641541 862.684204 112.420212
v 940.878723 862.684204 114.734818
v 942.543701 862.684204 116.763580
v 944.572388 862.684204 118.428558
v 946.887024 862.684204 119.665741
v 949.398499 862.684204 120.427597
v 952.010376 862.684204 120.684830
v 954.622253 862.684204 120.427597
v 957.133728 862.684204 119.665741
v 959.448364 862.684204 118.428558
v 961.477112 862.684204 116.763580
v 963.142029 862.684204 114.734818
v 964.379272 862.684204 112.420212
v 965.141113 862.684204 109.908737
v 965.398376 862.684204 107.296875
v 965.141113 862.684204 104.684998
v 964.379272 862.684204 102.173523
v 963.142029 862.684204 99.858917
v 961.477112 862.684204 97.830154
v 959.448364 862.684204 96.165176
v 957.133728 862.684204 94.927994
v 954.622253 862.684204 94.166138
v 949.398499 901.648438 94.166138
v 952.010376 901.648438 93.908905
v 946.887024 901.648438 94.927994
v 944.572388 901.648438 96.165176
v 942.543701 901.648438 97.830154
v 940.878723 901.648438 99.858917
v 939.641541 901.648438 102.173523
v 938.879639 901.648438 104.684998
v 938.622375 901.648438 107.296875
v 938.879639 901.648438 109.908737
v 939.641541 901.648438 112.420212
v 940.878723 901.648438 114.734818
v 942.543701 901.648438 116.763580
v 944.572388 901.648438 118.428558
v 946.887024 901.648438 119.665741
v 949.398499 901.648438 120.427597
v 952.010376 901.648438 120.684830
v 954.622253 901.648438 120.427597
v 957.133728 901.648438 119.665741
v 959.448364 901.648438 118.428558
v 961.477112 901.648438 116.763580
v 963.142029 901.648438 114.734818
v 964.379272 901.648438 112.420212
v 965.141113 901.648438 109.908737
v 965.398376 901.648438 107.296875
v 965.141113 901.648438 104.684998
v 964.379272 901.648438 102.173523
v 963.142029 901.648438 99.858917
v 961.477112 901.648438 97.830154
v 959.448364 901.648438 96.165176
v 957.133728 901.648438 94.927994
v 954.622253 901.648438 94.166138
v 947.585876 902.212463 85.052734
v 952.010376 902.212463 84.616943
v 943.331299 902.212463 86.343338
v 939.410278 902.212463 88.439163
v 935.973511 902.212463 91.259659
v 933.152954 902.212463 94.696457
v 931.057129 902.212463 98.617462
v 929.766541 902.212463 102.872009
v 929.330750 902.212463 107.296585
v 929.766541 902.212463 111.721161
v 931.057129 902.212463 115.975708
v 933.152954 902.212463 119.896713
v 935.973511 902.212463 123.333496
v 939.410278 902.212463 126.154007
v 943.331299 902.212463 128.249832
v 947.585876 902.212463 129.540436
v 952.010376 902.212463 129.976212
v 956.434937 902.212463 129.540436
v 960.689514 902.212463 128.249832
v 964.610535 902.212463 126.154007
v 968.047302 902.212463 123.333496
v 970.867859 902.212463 119.896713
v 972.963623 902.212463 115.975708
v 974.254272 902.212463 111.721161
v 974.690063 902.212463 107.296585
v 974.254272 902.212463 102.872009
v 972.963623 902.212463 98.617462
v 970.867859 902.212463 94.696457
v 968.047302 902.212463 91.259659
v 964.610535 902.212463 88.439163
v 960.689514 902.212463 86.343338
v 956.434937 902.212463 85.052734
v 947.585876 911.054199 85.052734
v 952.010376 911.054199 84.616943
v 943.331299 911.054199 86.343338
v 939.410278 911.054199 88.439163
v 935.973511 911.054199 91.259659
v 933.152954 911.054199 94.696457
v 931.057129 911.054199 98.617462
v 929.766541 911.054199 102.872009
v 929.330750 911.054199 107.296585
v 929.766541 911.054199 111.721161
v 931.057129 911.054199 115.975708
v 933.152954 911.054199 119.896713
v 935.973511 911.054199 123.333496
v 939.410278 911.054199 126.154007
v 943.331299 911.054199 128.249832
v 947.585876 911.054199 129.540436
v 952.010376 911.054199 129.976212
v 956.434937 911.054199 129.540436
v 960.689514 911.054199 128.249832
v 964.610535 911.054199 126.154007
v 968.047302 911.054199 123.333496
v 970.867859 911.054199 119.896713
v 972.963623 911.054199 115.975708
v 974.254272 911.054199 111.721161
v 974.690063 911.054199 107.296585
v 974.254272 911.054199 102.872009
v 972.963623 911.054199 98.617462
v 970.867859 911.054199 94.696457
v 968.047302 911.054199 91.259659
v 964.610535 911.054199 88.439163
v 960.689514 911.054199 86.343338
v 956.434937 911.054199 85.052734
vn -0.0000 -1.0000 -0.0000
vn -0.9569 -0.0000 -0.2903
vn -0.0000 1.0000 -0.0000
vn -0.0583 -0.9981 0.0177
vn 0.7730 -0.0000 0.6344
vn -0.9952 -0.0000 -0.0981
vn 0.8819 -0.0000 0.4714
vn -0.9952 -0.0000 0.0979
vn 0.9570 -0.0000 0.2902
vn -0.9569 -0.0000 0.2903
vn 0.9952 -0.0000 0.0980
vn -0.8819 -0.0000 0.4714
vn 0.9952 -0.0000 -0.0980
vn -0.7730 -0.0000 0.6344
vn 0.9569 -0.0000 -0.2903
vn -0.6344 -0.0000 0.7730
vn 0.8819 -0.0000 -0.4714
vn -0.4714 -0.0000 0.8819
vn -0.0980 -0.0000 -0.9952
vn 0.7730 -0.0000 -0.6344
vn -0.2903 -0.0000 0.9569
vn -0.2903 -0.0000 -0.9569
vn 0.6344 -0.0000 -0.7730
vn -0.0980 -0.0000 0.9952
vn -0.4714 -0.0000 -0.8819
vn 0.4714 -0.0000 -0.8819
vn 0.0980 -0.0000 0.9952
vn -0.6344 -0.0000 -0.7730
vn 0.2903 -0.0000 -0.9569
vn 0.2903 -0.0000 0.9569
vn -0.7730 -0.0000 -0.6344
vn 0.0980 -0.0000 -0.9952
vn 0.4714 -0.0000 0.8819
vn -0.8819 -0.0000 -0.4714
vn 0.6344 -0.0000 0.7730
vn 0.0606 -0.9981 0.0060
vn -0.0537 -0.9981 0.0287
vn 0.0606 -0.9981 -0.0060
vn -0.0471 -0.9981 0.0386
vn 0.0583 -0.9981 -0.0177
vn -0.0386 -0.9981 0.0471
vn 0.0537 -0.9981 -0.0287
vn -0.0287 -0.9981 0.0537
vn -0.0060 -0.9981 -0.0606
vn 0.0471 -0.9981 -0.0386
vn -0.0177 -0.9981 0.0583
vn -0.0177 -0.9981 -0.0583
vn 0.0386 -0.9981 -0.0471
vn -0.0060 -0.9981 0.0606
vn -0.0287 -0.9981 -0.0537
vn 0.0287 -0.9981 -0.0537
vn 0.0059 -0.9981 0.0606
vn -0.0386 -0.9981 -0.0471
vn 0.0177 -0.9981 -0.0583
vn 0.0177 -0.9981 0.0583
vn -0.0471 -0.9981 -0.0386
vn 0.0059 -0.9981 -0.0606
vn 0.0287 -0.9981 0.0537
vn -0.0537 -0.9981 -0.0287
vn 0.0387 -0.9981 0.0471
vn -0.0583 -0.9981 -0.0177
vn 0.0470 -0.9981 0.0386
vn -0.0606 -0.9981 -0.0060
vn 0.0537 -0.9981 0.0287
vn -0.0606 -0.9981 0.0060
vn 0.0582 -0.9981 0.0177
vn -0.9952 -0.0000 -0.0980
vn -0.9952 -0.0000 0.0980
vn 0.9569 -0.0000 0.2903
vn -0.0002 -1.0000 -0.0000
vn 0.0002 -1.0000 -0.0000
vn -0.0004 -1.0000 -0.0000
vn 0.0004 -1.0000 -0.0000
vn 0.0001 -1.0000 -0.0000
vn -0.0001 -1.0000 -0.0000
vn -0.0582 -0.9981 0.0177
vn -0.9952 -0.0000 -0.0979
vn -0.9952 -0.0000 0.0981
vn 0.9570 -0.0000 -0.2902
vn -0.0470 -0.9981 0.0386
vn -0.0387 -0.9981 0.0471
vn -0.0059 -0.9981 -0.0606
vn -0.0059 -0.9981 0.0606
vn 0.0060 -0.9981 0.0606
vn 0.0060 -0.9981 -0.0606
vn 0.0386 -0.9981 0.0471
vn 0.0471 -0.9981 0.0386
vn 0.0583 -0.9981 0.0177
vn 0.0001 1.0000 -0.0000
vn -0.0001 1.0000 -0.0000
vt 0.000000 0.000000
s 0
usemtl Material.003
f 19/1/1 11/1/1 3/1/1
f 40/1/2 71/1/2 39/1/2
f 26/1/3 59/1/3 58/1/3
f 13/1/3 46/1/3 45/1/3
f 27/1/3 60/1/3 59/1/3
f 14/1/3 47/1/3 46/1/3
f 1/1/3 33/1/3 34/1/3
f 28/1/3 61/1/3 60/1/3
f 15/1/3 48/1/3 47/1/3
f 2/1/3 35/1/3 33/1/3
f 29/1/3 62/1/3 61/1/3
f 16/1/3 49/1/3 48/1/3
f 3/1/3 36/1/3 35/1/3
f 30/1/3 63/1/3 62/1/3
f 17/1/3 50/1/3 49/1/3
f 4/1/3 37/1/3 36/1/3
f 31/1/3 64/1/3 63/1/3
f 18/1/3 51/1/3 50/1/3
f 5/1/3 38/1/3 37/1/3
f 32/1/3 34/1/3 64/1/3
f 19/1/3 52/1/3 51/1/3
f 6/1/3 39/1/3 38/1/3
f 20/1/3 53/1/3 52/1/3
f 7/1/3 40/1/3 39/1/3
f 21/1/3 54/1/3 53/1/3
f 8/1/3 41/1/3 40/1/3
f 22/1/3 55/1/3 54/1/3
f 9/1/3 42/1/3 41/1/3
f 23/1/3 56/1/3 55/1/3
f 10/1/3 43/1/3 42/1/3
f 24/1/3 57/1/3 56/1/3
f 11/1/3 44/1/3 43/1/3
f 25/1/3 58/1/3 57/1/3
f 12/1/3 45/1/3 44/1/3
f 74/1/4 107/1/4 106/1/4
f 54/1/5 85/1/5 53/1/5
f 41/1/6 72/1/6 40/1/6
f 55/1/7 86/1/7 54/1/7
f 42/1/8 73/1/8 41/1/8
f 56/1/9 87/1/9 55/1/9
f 43/1/10 74/1/10 42/1/10
f 57/1/11 88/1/11 56/1/11
f 44/1/12 75/1/12 43/1/12
f 58/1/13 89/1/13 57/1/13
f 45/1/14 76/1/14 44/1/14
f 59/1/15 90/1/15 58/1/15
f 46/1/16 77/1/16 45/1/16
f 60/1/17 91/1/17 59/1/17
f 47/1/18 78/1/18 46/1/18
f 33/1/19 66/1/19 34/1/19
f 61/1/20 92/1/20 60/1/20
f 48/1/21 79/1/21 47/1/21
f 35/1/22 65/1/22 33/1/22
f 62/1/23 93/1/23 61/1/23
f 49/1/24 80/1/24 48/1/24
f 36/1/25 67/1/25 35/1/25
f 63/1/26 94/1/26 62/1/26
f 50/1/27 81/1/27 49/1/27
f 37/1/28 68/1/28 36/1/28
f 64/1/29 95/1/29 63/1/29
f 51/1/30 82/1/30 50/1/30
f 38/1/31 69/1/31 37/1/31
f 34/1/32 96/1/32 64/1/32
f 52/1/33 83/1/33 51/1/33
f 39/1/34 70/1/34 38/1/34
f 53/1/35 84/1/35 52/1/35
f 114/1/27 145/1/27 113/1/27
f 89/1/36 120/1/36 88/1/36
f 75/1/37 108/1/37 107/1/37
f 90/1/38 121/1/38 89/1/38
f 76/1/39 109/1/39 108/1/39
f 91/1/40 122/1/40 90/1/40
f 77/1/41 110/1/41 109/1/41
f 92/1/42 123/1/42 91/1/42
f 78/1/43 111/1/43 110/1/43
f 66/1/44 97/1/44 98/1/44
f 93/1/45 124/1/45 92/1/45
f 79/1/46 112/1/46 111/1/46
f 65/1/47 99/1/47 97/1/47
f 94/1/48 125/1/48 93/1/48
f 80/1/49 113/1/49 112/1/49
f 67/1/50 100/1/50 99/1/50
f 95/1/51 126/1/51 94/1/51
f 82/1/52 113/1/52 81/1/52
f 68/1/53 101/1/53 100/1/53
f 96/1/54 127/1/54 95/1/54
f 83/1/55 114/1/55 82/1/55
f 69/1/56 102/1/56 101/1/56
f 66/1/57 128/1/57 96/1/57
f 84/1/58 115/1/58 83/1/58
f 70/1/59 103/1/59 102/1/59
f 85/1/60 116/1/60 84/1/60
f 71/1/61 104/1/61 103/1/61
f 86/1/62 117/1/62 85/1/62
f 72/1/63 105/1/63 104/1/63
f 87/1/64 118/1/64 86/1/64
f 73/1/65 106/1/65 105/1/65
f 88/1/66 119/1/66 87/1/66
f 145/1/3 153/1/3 130/1/3
f 101/1/28 132/1/28 100/1/28
f 128/1/29 159/1/29 127/1/29
f 115/1/30 146/1/30 114/1/30
f 102/1/31 133/1/31 101/1/31
f 98/1/32 160/1/32 128/1/32
f 116/1/33 147/1/33 115/1/33
f 103/1/34 134/1/34 102/1/34
f 117/1/35 148/1/35 116/1/35
f 104/1/2 135/1/2 103/1/2
f 118/1/5 149/1/5 117/1/5
f 105/1/67 136/1/67 104/1/67
f 119/1/7 150/1/7 118/1/7
f 106/1/68 137/1/68 105/1/68
f 120/1/69 151/1/69 119/1/69
f 107/1/10 138/1/10 106/1/10
f 121/1/11 152/1/11 120/1/11
f 108/1/12 139/1/12 107/1/12
f 122/1/13 153/1/13 121/1/13
f 109/1/14 140/1/14 108/1/14
f 123/1/15 154/1/15 122/1/15
f 110/1/16 141/1/16 109/1/16
f 124/1/17 155/1/17 123/1/17
f 111/1/18 142/1/18 110/1/18
f 97/1/19 130/1/19 98/1/19
f 125/1/20 156/1/20 124/1/20
f 112/1/21 143/1/21 111/1/21
f 99/1/22 129/1/22 97/1/22
f 126/1/23 157/1/23 125/1/23
f 113/1/24 144/1/24 112/1/24
f 100/1/25 131/1/25 99/1/25
f 127/1/26 158/1/26 126/1/26
f 3/1/1 2/1/1 1/1/1
f 1/1/1 32/1/1 31/1/1
f 31/1/70 30/1/70 29/1/70
f 29/1/71 28/1/71 27/1/71
f 27/1/72 26/1/72 25/1/72
f 25/1/72 24/1/72 23/1/72
f 23/1/71 22/1/71 21/1/71
f 21/1/70 20/1/70 19/1/70
f 19/1/1 18/1/1 17/1/1
f 17/1/1 16/1/1 15/1/1
f 15/1/71 14/1/71 13/1/71
f 13/1/70 12/1/70 11/1/70
f 11/1/73 10/1/73 9/1/73
f 9/1/73 8/1/73 7/1/73
f 7/1/70 6/1/70 5/1/70
f 5/1/71 4/1/71 3/1/71
f 3/1/1 1/1/1 31/1/1
f 31/1/1 29/1/1 27/1/1
f 27/1/74 25/1/74 23/1/74
f 23/1/1 21/1/1 19/1/1
f 19/1/1 17/1/1 15/1/1
f 15/1/1 13/1/1 11/1/1
f 11/1/75 9/1/75 7/1/75
f 7/1/1 5/1/1 3/1/1
f 3/1/1 31/1/1 27/1/1
f 27/1/1 23/1/1 19/1/1
f 19/1/1 15/1/1 11/1/1
f 11/1/1 7/1/1 3/1/1
f 3/1/1 27/1/1 19/1/1
f 40/1/2 72/1/2 71/1/2
f 26/1/3 27/1/3 59/1/3
f 13/1/3 14/1/3 46/1/3
f 27/1/3 28/1/3 60/1/3
f 14/1/3 15/1/3 47/1/3
f 1/1/3 2/1/3 33/1/3
f 28/1/3 29/1/3 61/1/3
f 15/1/3 16/1/3 48/1/3
f 2/1/3 3/1/3 35/1/3
f 29/1/3 30/1/3 62/1/3
f 16/1/3 17/1/3 49/1/3
f 3/1/3 4/1/3 36/1/3
f 30/1/3 31/1/3 63/1/3
f 17/1/3 18/1/3 50/1/3
f 4/1/3 5/1/3 37/1/3
f 31/1/3 32/1/3 64/1/3
f 18/1/3 19/1/3 51/1/3
f 5/1/3 6/1/3 38/1/3
f 32/1/3 1/1/3 34/1/3
f 19/1/3 20/1/3 52/1/3
f 6/1/3 7/1/3 39/1/3
f 20/1/3 21/1/3 53/1/3
f 7/1/3 8/1/3 40/1/3
f 21/1/3 22/1/3 54/1/3
f 8/1/3 9/1/3 41/1/3
f 22/1/3 23/1/3 55/1/3
f 9/1/3 10/1/3 42/1/3
f 23/1/3 24/1/3 56/1/3
f 10/1/3 11/1/3 43/1/3
f 24/1/3 25/1/3 57/1/3
f 11/1/3 12/1/3 44/1/3
f 25/1/3 26/1/3 58/1/3
f 12/1/3 13/1/3 45/1/3
f 74/1/76 75/1/76 107/1/76
f 54/1/5 86/1/5 85/1/5
f 41/1/77 73/1/77 72/1/77
f 55/1/7 87/1/7 86/1/7
f 42/1/78 74/1/78 73/1/78
f 56/1/69 88/1/69 87/1/69
f 43/1/10 75/1/10 74/1/10
f 57/1/11 89/1/11 88/1/11
f 44/1/12 76/1/12 75/1/12
f 58/1/13 90/1/13 89/1/13
f 45/1/14 77/1/14 76/1/14
f 59/1/79 91/1/79 90/1/79
f 46/1/16 78/1/16 77/1/16
f 60/1/17 92/1/17 91/1/17
f 47/1/18 79/1/18 78/1/18
f 33/1/19 65/1/19 66/1/19
f 61/1/20 93/1/20 92/1/20
f 48/1/21 80/1/21 79/1/21
f 35/1/22 67/1/22 65/1/22
f 62/1/23 94/1/23 93/1/23
f 49/1/24 81/1/24 80/1/24
f 36/1/25 68/1/25 67/1/25
f 63/1/26 95/1/26 94/1/26
f 50/1/27 82/1/27 81/1/27
f 37/1/28 69/1/28 68/1/28
f 64/1/29 96/1/29 95/1/29
f 51/1/30 83/1/30 82/1/30
f 38/1/31 70/1/31 69/1/31
f 34/1/32 66/1/32 96/1/32
f 52/1/33 84/1/33 83/1/33
f 39/1/34 71/1/34 70/1/34
f 53/1/35 85/1/35 84/1/35
f 114/1/27 146/1/27 145/1/27
f 89/1/36 121/1/36 120/1/36
f 75/1/37 76/1/37 108/1/37
f 90/1/38 122/1/38 121/1/38
f 76/1/80 77/1/80 109/1/80
f 91/1/40 123/1/40 122/1/40
f 77/1/81 78/1/81 110/1/81
f 92/1/42 124/1/42 123/1/42
f 78/1/43 79/1/43 111/1/43
f 66/1/82 65/1/82 97/1/82
f 93/1/45 125/1/45 124/1/45
f 79/1/46 80/1/46 112/1/46
f 65/1/47 67/1/47 99/1/47
f 94/1/48 126/1/48 125/1/48
f 80/1/83 81/1/83 113/1/83
f 67/1/50 68/1/50 100/1/50
f 95/1/51 127/1/51 126/1/51
f 82/1/84 114/1/84 113/1/84
f 68/1/53 69/1/53 101/1/53
f 96/1/54 128/1/54 127/1/54
f 83/1/55 115/1/55 114/1/55
f 69/1/56 70/1/56 102/1/56
f 66/1/85 98/1/85 128/1/85
f 84/1/58 116/1/58 115/1/58
f 70/1/59 71/1/59 103/1/59
f 85/1/86 117/1/86 116/1/86
f 71/1/61 72/1/61 104/1/61
f 86/1/87 118/1/87 117/1/87
f 72/1/63 73/1/63 105/1/63
f 87/1/64 119/1/64 118/1/64
f 73/1/65 74/1/65 106/1/65
f 88/1/88 120/1/88 119/1/88
f 130/1/3 129/1/3 131/1/3
f 131/1/3 132/1/3 133/1/3
f 133/1/89 134/1/89 135/1/89
f 135/1/3 136/1/3 137/1/3
f 137/1/3 138/1/3 139/1/3
f 139/1/3 140/1/3 141/1/3
f 141/1/90 142/1/90 143/1/90
f 143/1/3 144/1/3 145/1/3
f 145/1/3 146/1/3 147/1/3
f 147/1/89 148/1/89 149/1/89
f 149/1/3 150/1/3 151/1/3
f 151/1/3 152/1/3 153/1/3
f 153/1/3 154/1/3 155/1/3
f 155/1/90 156/1/90 157/1/90
f 157/1/3 158/1/3 159/1/3
f 159/1/3 160/1/3 130/1/3
f 130/1/3 131/1/3 133/1/3
f 133/1/3 135/1/3 137/1/3
f 137/1/3 139/1/3 141/1/3
f 141/1/3 143/1/3 145/1/3
f 145/1/3 147/1/3 149/1/3
f 149/1/3 151/1/3 153/1/3
f 153/1/3 155/1/3 157/1/3
f 157/1/3 159/1/3 130/1/3
f 130/1/3 133/1/3 137/1/3
f 137/1/3 141/1/3 145/1/3
f 145/1/3 149/1/3 153/1/3
f 153/1/3 157/1/3 130/1/3
f 130/1/3 137/1/3 145/1/3
f 101/1/28 133/1/28 132/1/28
f 128/1/29 160/1/29 159/1/29
f 115/1/30 147/1/30 146/1/30
f 102/1/31 134/1/31 133/1/31
f 98/1/32 130/1/32 160/1/32
f 116/1/33 148/1/33 147/1/33
f 103/1/34 135/1/34 134/1/34
f 117/1/35 149/1/35 148/1/35
f 104/1/2 136/1/2 135/1/2
f 118/1/5 150/1/5 149/1/5
f 105/1/67 137/1/67 136/1/67
f 119/1/7 151/1/7 150/1/7
f 106/1/68 138/1/68 137/1/68
f 120/1/69 152/1/69 151/1/69
f 107/1/10 139/1/10 138/1/10
f 121/1/11 153/1/11 152/1/11
f 108/1/12 140/1/12 139/1/12
f 122/1/13 154/1/13 153/1/13
f 109/1/14 141/1/14 140/1/14
f 123/1/15 155/1/15 154/1/15
f 110/1/16 142/1/16 141/1/16
f 124/1/17 156/1/17 155/1/17
f 111/1/18 143/1/18 142/1/18
f 97/1/19 129/1/19 130/1/19
f 125/1/20 157/1/20 156/1/20
f 112/1/21 144/1/21 143/1/21
f 99/1/22 131/1/22 129/1/22
f 126/1/23 158/1/23 157/1/23
f 113/1/24 145/1/24 144/1/24
f 100/1/25 132/1/25 131/1/25
f 127/1/26 159/1/26 158/1/26
