# Blender 4.1.1
# www.blender.org
mtllib Circle.716.mtl
o Circle.004
v 411.248260 2303.073242 4748.198242
v 409.078522 2303.073242 4748.411621
v 406.992188 2303.073242 4749.044922
v 405.069397 2303.073242 4750.072266
v 403.384033 2303.073242 4751.455566
v 402.000916 2303.073242 4753.141113
v 400.973175 2303.073242 4755.063965
v 400.340271 2303.073242 4757.149902
v 400.126587 2303.073242 4759.319824
v 400.340271 2303.073242 4761.489746
v 400.973175 2303.073242 4763.575684
v 402.000916 2303.073242 4765.498535
v 403.384033 2303.073242 4767.184082
v 405.069397 2303.073242 4768.567383
v 406.992188 2303.073242 4769.594727
v 409.078522 2303.073242 4770.228027
v 411.248260 2303.073242 4770.441406
v 413.417999 2303.073242 4770.228027
v 415.504333 2303.073242 4769.594727
v 417.427124 2303.073242 4768.567383
v 419.112488 2303.073242 4767.184082
v 420.495605 2303.073242 4765.498535
v 421.523346 2303.073242 4763.575684
v 422.156250 2303.073242 4761.489746
v 422.369934 2303.073242 4759.319824
v 422.156250 2303.073242 4757.149902
v 421.523346 2303.073242 4755.063965
v 420.495605 2303.073242 4753.141113
v 419.112488 2303.073242 4751.455566
v 417.427124 2303.073242 4750.072266
v 415.504333 2303.073242 4749.044922
v 413.417999 2303.073242 4748.411621
v 409.078522 2303.073242 4748.411621
v 411.248260 2303.073242 4748.198242
v 406.992188 2303.073242 4749.044922
v 405.069397 2303.073242 4750.072266
v 403.384033 2303.073242 4751.455566
v 402.000916 2303.073242 4753.141113
v 400.973175 2303.073242 4755.063965
v 400.340271 2303.073242 4757.149902
v 400.126587 2303.073242 4759.319824
v 400.340271 2303.073242 4761.489746
v 400.973175 2303.073242 4763.575684
v 402.000916 2303.073242 4765.498535
v 403.384033 2303.073242 4767.184082
v 405.069397 2303.073242 4768.567383
v 406.992188 2303.073242 4769.594727
v 409.078522 2303.073242 4770.228027
v 411.248260 2303.073242 4770.441406
v 413.417999 2303.073242 4770.228027
v 415.504333 2303.073242 4769.594727
v 417.427124 2303.073242 4768.567383
v 419.112488 2303.073242 4767.184082
v 420.495605 2303.073242 4765.498535
v 421.523346 2303.073242 4763.575684
v 422.156250 2303.073242 4761.489746
v 422.369934 2303.073242 4759.319824
v 422.156250 2303.073242 4757.149902
v 421.523346 2303.073242 4755.063965
v 420.495605 2303.073242 4753.141113
v 419.112488 2303.073242 4751.455566
v 417.427124 2303.073242 4750.072266
v 415.504333 2303.073242 4749.044922
v 413.417999 2303.073242 4748.411621
v 409.078522 2332.434570 4748.411621
v 411.248260 2332.434570 4748.198242
v 406.992188 2332.434570 4749.044922
v 405.069397 2332.434570 4750.072266
v 403.384033 2332.434570 4751.455566
v 402.000916 2332.434570 4753.141113
v 400.973175 2332.434570 4755.063965
v 400.340271 2332.434570 4757.149902
v 400.126587 2332.434570 4759.319824
v 400.340271 2332.434570 4761.489746
v 400.973175 2332.434570 4763.575684
v 402.000916 2332.434570 4765.498535
v 403.384033 2332.434570 4767.184082
v 405.069397 2332.434570 4768.567383
v 406.992188 2332.434570 4769.594727
v 409.078522 2332.434570 4770.228027
v 411.248260 2332.434570 4770.441406
v 413.417999 2332.434570 4770.228027
v 415.504333 2332.434570 4769.594727
v 417.427124 2332.434570 4768.567383
v 419.112488 2332.434570 4767.184082
v 420.495605 2332.434570 4765.498535
v 421.523346 2332.434570 4763.575684
v 422.156250 2332.434570 4761.489746
v 422.369934 2332.434570 4759.319824
v 422.156250 2332.434570 4757.149902
v 421.523346 2332.434570 4755.063965
v 420.495605 2332.434570 4753.141113
v 419.112488 2332.434570 4751.455566
v 417.427124 2332.434570 4750.072266
v 415.504333 2332.434570 4749.044922
v 413.417999 2332.434570 4748.411621
v 407.582886 2333.785645 4740.891113
v 411.248505 2333.785645 4740.530273
v 404.058167 2333.785645 4741.960449
v 400.809753 2333.785645 4743.696777
v 397.962494 2333.785645 4746.033203
v 395.625793 2333.785645 4748.880371
v 393.889496 2333.785645 4752.128906
v 392.820282 2333.785645 4755.653809
v 392.459229 2333.785645 4759.319336
v 392.820282 2333.785645 4762.984863
v 393.889496 2333.785645 4766.509766
v 395.625793 2333.785645 4769.758301
v 397.962494 2333.785645 4772.605469
v 400.809753 2333.785645 4774.941895
v 404.058167 2333.785645 4776.678223
v 407.582886 2333.785645 4777.747559
v 411.248505 2333.785645 4778.108398
v 414.914093 2333.785645 4777.747559
v 418.438843 2333.785645 4776.678223
v 421.687256 2333.785645 4774.941895
v 424.534515 2333.785645 4772.605469
v 426.871185 2333.785645 4769.758301
v 428.607513 2333.785645 4766.509766
v 429.676727 2333.785645 4762.984863
v 430.037750 2333.785645 4759.319336
v 429.676727 2333.785645 4755.653809
v 428.607513 2333.785645 4752.128906
v 426.871185 2333.785645 4748.880371
v 424.534515 2333.785645 4746.033203
v 421.687256 2333.785645 4743.696777
v 418.438843 2333.785645 4741.960449
v 414.914093 2333.785645 4740.891113
v 407.582886 2343.751465 4740.891113
v 411.248505 2343.751465 4740.530273
v 404.058167 2343.751465 4741.960449
v 400.809753 2343.751465 4743.696777
v 397.962494 2343.751465 4746.033203
v 395.625793 2343.751465 4748.880371
v 393.889496 2343.751465 4752.128906
v 392.820282 2343.751465 4755.653809
v 392.459229 2343.751465 4759.319336
v 392.820282 2343.751465 4762.984863
v 393.889496 2343.751465 4766.509766
v 395.625793 2343.751465 4769.758301
v 397.962494 2343.751465 4772.605469
v 400.809753 2343.751465 4774.941895
v 404.058167 2343.751465 4776.678223
v 407.582886 2343.751465 4777.747559
v 411.248505 2343.751465 4778.108398
v 414.914093 2343.751465 4777.747559
v 418.438843 2343.751465 4776.678223
v 421.687256 2343.751465 4774.941895
v 424.534515 2343.751465 4772.605469
v 426.871185 2343.751465 4769.758301
v 428.607513 2343.751465 4766.509766
v 429.676727 2343.751465 4762.984863
v 430.037750 2343.751465 4759.319336
v 429.676727 2343.751465 4755.653809
v 428.607513 2343.751465 4752.128906
v 426.871185 2343.751465 4748.880371
v 424.534515 2343.751465 4746.033203
v 421.687256 2343.751465 4743.696777
v 418.438843 2343.751465 4741.960449
v 414.914093 2343.751465 4740.891113
vn -0.0000 -1.0000 -0.0000
vn -0.0979 -0.0000 0.9952
vn -0.0000 1.0000 -0.0000
vn 0.0821 -0.9847 0.1538
vn -0.4713 -0.0000 -0.8820
vn 0.4713 -0.0000 -0.8820
vn 0.0979 -0.0000 0.9952
vn -0.6344 -0.0000 -0.7730
vn 0.2905 -0.0000 -0.9569
vn 0.2905 -0.0000 0.9569
vn -0.7731 -0.0000 -0.6343
vn 0.0979 -0.0000 -0.9952
vn 0.4712 -0.0000 0.8820
vn -0.8819 -0.0000 -0.4714
vn 0.6344 -0.0000 0.7730
vn -0.9569 -0.0000 -0.2903
vn 0.7731 -0.0000 0.6343
vn -0.9952 -0.0000 -0.0980
vn 0.8819 -0.0000 0.4714
vn -0.9952 -0.0000 0.0980
vn 0.9569 -0.0000 0.2903
vn -0.9569 -0.0000 0.2903
vn 0.9952 -0.0000 0.0980
vn -0.8819 -0.0000 0.4714
vn 0.9952 -0.0000 -0.0980
vn -0.7731 -0.0000 0.6343
vn 0.9569 -0.0000 -0.2904
vn -0.6344 -0.0000 0.7730
vn 0.8819 -0.0000 -0.4714
vn -0.4712 -0.0000 0.8820
vn -0.0979 -0.0000 -0.9952
vn 0.7730 -0.0000 -0.6344
vn -0.2905 -0.0000 0.9569
vn -0.2905 -0.0000 -0.9569
vn 0.6344 -0.0000 -0.7730
vn -0.1539 -0.9847 -0.0822
vn 0.1105 -0.9847 0.1348
vn -0.1668 -0.9847 -0.0506
vn 0.1346 -0.9847 0.1106
vn -0.1735 -0.9847 -0.0171
vn 0.1537 -0.9847 0.0822
vn -0.1735 -0.9847 0.0171
vn 0.1668 -0.9847 0.0506
vn -0.1668 -0.9847 0.0506
vn 0.1735 -0.9847 0.0171
vn -0.1538 -0.9847 0.0822
vn 0.1735 -0.9847 -0.0171
vn -0.1348 -0.9847 0.1106
vn 0.1668 -0.9847 -0.0506
vn -0.1106 -0.9847 0.1348
vn 0.1538 -0.9847 -0.0822
vn -0.0822 -0.9847 0.1538
vn -0.0173 -0.9847 -0.1735
vn 0.1346 -0.9847 -0.1106
vn -0.0506 -0.9847 0.1669
vn -0.0507 -0.9847 -0.1668
vn 0.1107 -0.9847 -0.1348
vn -0.0171 -0.9847 0.1735
vn -0.0822 -0.9847 -0.1537
vn 0.0821 -0.9847 -0.1537
vn 0.0171 -0.9847 0.1735
vn -0.1106 -0.9847 -0.1348
vn 0.0508 -0.9847 -0.1668
vn 0.0506 -0.9847 0.1668
vn -0.1348 -0.9847 -0.1106
vn 0.0171 -0.9847 -0.1735
vn -0.7730 -0.0000 0.6344
vn 0.9569 -0.0000 -0.2903
vn -0.4714 -0.0000 0.8819
vn -0.0980 -0.0000 -0.9952
vn -0.2903 -0.0000 0.9569
vn -0.2903 -0.0000 -0.9569
vn -0.0980 -0.0000 0.9952
vn -0.4714 -0.0000 -0.8819
vn 0.4714 -0.0000 -0.8819
vn 0.0980 -0.0000 0.9952
vn 0.2903 -0.0000 -0.9569
vn 0.2903 -0.0000 0.9569
vn -0.7730 -0.0000 -0.6344
vn 0.0980 -0.0000 -0.9952
vn 0.4714 -0.0000 0.8819
vn 0.7730 -0.0000 0.6344
vn -0.0005 -1.0000 -0.0000
vn -0.0011 -1.0000 -0.0000
vn 0.0005 -1.0000 -0.0000
vn 0.0011 -1.0000 -0.0000
vn 0.0001 -1.0000 -0.0000
vn -0.0001 -1.0000 -0.0000
vn 0.0822 -0.9847 0.1538
vn -0.4712 -0.0000 -0.8820
vn 0.4712 -0.0000 -0.8820
vn 0.4713 -0.0000 0.8820
vn 0.9569 -0.0000 0.2904
vn -0.4713 -0.0000 0.8820
vn 0.7731 -0.0000 -0.6343
vn -0.1537 -0.9847 -0.0821
vn 0.1106 -0.9847 0.1348
vn -0.1669 -0.9847 -0.0506
vn 0.1348 -0.9847 0.1106
vn -0.1736 -0.9847 -0.0171
vn 0.1538 -0.9847 0.0822
vn 0.1667 -0.9847 0.0506
vn -0.1669 -0.9847 0.0506
vn -0.1105 -0.9847 0.1348
vn -0.0821 -0.9847 0.1538
vn -0.0170 -0.9847 -0.1735
vn 0.1348 -0.9847 -0.1106
vn -0.0506 -0.9847 0.1668
vn -0.0509 -0.9847 -0.1668
vn 0.1106 -0.9847 -0.1348
vn -0.0821 -0.9847 -0.1538
vn 0.0821 -0.9847 -0.1538
vn 0.0507 -0.9847 -0.1668
vn -0.1346 -0.9847 -0.1106
vn 0.0004 1.0000 -0.0000
vn -0.0004 1.0000 -0.0000
vn -0.0001 1.0000 -0.0000
vn 0.0002 1.0000 -0.0000
vn 0.0001 1.0000 -0.0000
vn -0.0002 1.0000 -0.0000
vn -0.6343 -0.0000 0.7731
vt 0.000000 0.000000
s 0
usemtl Material.003
f 19/1/1 11/1/1 3/1/1
f 49/1/2 80/1/2 48/1/2
f 8/1/3 41/1/3 40/1/3
f 22/1/3 55/1/3 54/1/3
f 9/1/3 42/1/3 41/1/3
f 23/1/3 56/1/3 55/1/3
f 10/1/3 43/1/3 42/1/3
f 24/1/3 57/1/3 56/1/3
f 11/1/3 44/1/3 43/1/3
f 25/1/3 58/1/3 57/1/3
f 12/1/3 45/1/3 44/1/3
f 26/1/3 59/1/3 58/1/3
f 13/1/3 46/1/3 45/1/3
f 27/1/3 60/1/3 59/1/3
f 14/1/3 47/1/3 46/1/3
f 1/1/3 33/1/3 34/1/3
f 28/1/3 61/1/3 60/1/3
f 15/1/3 48/1/3 47/1/3
f 2/1/3 35/1/3 33/1/3
f 29/1/3 62/1/3 61/1/3
f 16/1/3 49/1/3 48/1/3
f 3/1/3 36/1/3 35/1/3
f 30/1/3 63/1/3 62/1/3
f 17/1/3 50/1/3 49/1/3
f 4/1/3 37/1/3 36/1/3
f 31/1/3 64/1/3 63/1/3
f 18/1/3 51/1/3 50/1/3
f 5/1/3 38/1/3 37/1/3
f 32/1/3 34/1/3 64/1/3
f 19/1/3 52/1/3 51/1/3
f 6/1/3 39/1/3 38/1/3
f 20/1/3 53/1/3 52/1/3
f 7/1/3 40/1/3 39/1/3
f 21/1/3 54/1/3 53/1/3
f 84/1/4 115/1/4 83/1/4
f 36/1/5 67/1/5 35/1/5
f 63/1/6 94/1/6 62/1/6
f 50/1/7 81/1/7 49/1/7
f 37/1/8 68/1/8 36/1/8
f 64/1/9 95/1/9 63/1/9
f 51/1/10 82/1/10 50/1/10
f 38/1/11 69/1/11 37/1/11
f 34/1/12 96/1/12 64/1/12
f 52/1/13 83/1/13 51/1/13
f 39/1/14 70/1/14 38/1/14
f 53/1/15 84/1/15 52/1/15
f 40/1/16 71/1/16 39/1/16
f 54/1/17 85/1/17 53/1/17
f 41/1/18 72/1/18 40/1/18
f 55/1/19 86/1/19 54/1/19
f 42/1/20 73/1/20 41/1/20
f 56/1/21 87/1/21 55/1/21
f 43/1/22 74/1/22 42/1/22
f 57/1/23 88/1/23 56/1/23
f 44/1/24 75/1/24 43/1/24
f 58/1/25 89/1/25 57/1/25
f 45/1/26 76/1/26 44/1/26
f 59/1/27 90/1/27 58/1/27
f 46/1/28 77/1/28 45/1/28
f 60/1/29 91/1/29 59/1/29
f 47/1/30 78/1/30 46/1/30
f 33/1/31 66/1/31 34/1/31
f 61/1/32 92/1/32 60/1/32
f 48/1/33 79/1/33 47/1/33
f 35/1/34 65/1/34 33/1/34
f 62/1/35 93/1/35 61/1/35
f 119/1/19 150/1/19 118/1/19
f 70/1/36 103/1/36 102/1/36
f 85/1/37 116/1/37 84/1/37
f 71/1/38 104/1/38 103/1/38
f 86/1/39 117/1/39 85/1/39
f 72/1/40 105/1/40 104/1/40
f 87/1/41 118/1/41 86/1/41
f 73/1/42 106/1/42 105/1/42
f 88/1/43 119/1/43 87/1/43
f 74/1/44 107/1/44 106/1/44
f 89/1/45 120/1/45 88/1/45
f 76/1/46 107/1/46 75/1/46
f 90/1/47 121/1/47 89/1/47
f 77/1/48 108/1/48 76/1/48
f 91/1/49 122/1/49 90/1/49
f 77/1/50 110/1/50 109/1/50
f 92/1/51 123/1/51 91/1/51
f 78/1/52 111/1/52 110/1/52
f 65/1/53 98/1/53 66/1/53
f 93/1/54 124/1/54 92/1/54
f 80/1/55 111/1/55 79/1/55
f 65/1/56 99/1/56 97/1/56
f 94/1/57 125/1/57 93/1/57
f 80/1/58 113/1/58 112/1/58
f 67/1/59 100/1/59 99/1/59
f 94/1/60 127/1/60 126/1/60
f 81/1/61 114/1/61 113/1/61
f 69/1/62 100/1/62 68/1/62
f 96/1/63 127/1/63 95/1/63
f 82/1/64 115/1/64 114/1/64
f 69/1/65 102/1/65 101/1/65
f 66/1/66 128/1/66 96/1/66
f 145/1/3 153/1/3 130/1/3
f 106/1/20 137/1/20 105/1/20
f 120/1/21 151/1/21 119/1/21
f 107/1/22 138/1/22 106/1/22
f 121/1/23 152/1/23 120/1/23
f 108/1/24 139/1/24 107/1/24
f 122/1/25 153/1/25 121/1/25
f 109/1/67 140/1/67 108/1/67
f 123/1/68 154/1/68 122/1/68
f 110/1/28 141/1/28 109/1/28
f 124/1/29 155/1/29 123/1/29
f 111/1/69 142/1/69 110/1/69
f 97/1/70 130/1/70 98/1/70
f 125/1/32 156/1/32 124/1/32
f 112/1/71 143/1/71 111/1/71
f 99/1/72 129/1/72 97/1/72
f 126/1/35 157/1/35 125/1/35
f 113/1/73 144/1/73 112/1/73
f 100/1/74 131/1/74 99/1/74
f 127/1/75 158/1/75 126/1/75
f 114/1/76 145/1/76 113/1/76
f 101/1/8 132/1/8 100/1/8
f 128/1/77 159/1/77 127/1/77
f 115/1/78 146/1/78 114/1/78
f 102/1/79 133/1/79 101/1/79
f 98/1/80 160/1/80 128/1/80
f 116/1/81 147/1/81 115/1/81
f 103/1/14 134/1/14 102/1/14
f 117/1/15 148/1/15 116/1/15
f 104/1/16 135/1/16 103/1/16
f 118/1/82 149/1/82 117/1/82
f 105/1/18 136/1/18 104/1/18
f 3/1/1 2/1/1 1/1/1
f 1/1/1 32/1/1 31/1/1
f 31/1/83 30/1/83 29/1/83
f 29/1/84 28/1/84 27/1/84
f 27/1/1 26/1/1 25/1/1
f 25/1/1 24/1/1 23/1/1
f 23/1/84 22/1/84 21/1/84
f 21/1/83 20/1/83 19/1/83
f 19/1/1 18/1/1 17/1/1
f 17/1/1 16/1/1 15/1/1
f 15/1/85 14/1/85 13/1/85
f 13/1/86 12/1/86 11/1/86
f 11/1/1 10/1/1 9/1/1
f 9/1/1 8/1/1 7/1/1
f 7/1/86 6/1/86 5/1/86
f 5/1/85 4/1/85 3/1/85
f 3/1/1 1/1/1 31/1/1
f 31/1/1 29/1/1 27/1/1
f 27/1/1 25/1/1 23/1/1
f 23/1/87 21/1/87 19/1/87
f 19/1/1 17/1/1 15/1/1
f 15/1/1 13/1/1 11/1/1
f 11/1/1 9/1/1 7/1/1
f 7/1/88 5/1/88 3/1/88
f 3/1/1 31/1/1 27/1/1
f 27/1/88 23/1/88 19/1/88
f 19/1/1 15/1/1 11/1/1
f 11/1/87 7/1/87 3/1/87
f 3/1/1 27/1/1 19/1/1
f 49/1/2 81/1/2 80/1/2
f 8/1/3 9/1/3 41/1/3
f 22/1/3 23/1/3 55/1/3
f 9/1/3 10/1/3 42/1/3
f 23/1/3 24/1/3 56/1/3
f 10/1/3 11/1/3 43/1/3
f 24/1/3 25/1/3 57/1/3
f 11/1/3 12/1/3 44/1/3
f 25/1/3 26/1/3 58/1/3
f 12/1/3 13/1/3 45/1/3
f 26/1/3 27/1/3 59/1/3
f 13/1/3 14/1/3 46/1/3
f 27/1/3 28/1/3 60/1/3
f 14/1/3 15/1/3 47/1/3
f 1/1/3 2/1/3 33/1/3
f 28/1/3 29/1/3 61/1/3
f 15/1/3 16/1/3 48/1/3
f 2/1/3 3/1/3 35/1/3
f 29/1/3 30/1/3 62/1/3
f 16/1/3 17/1/3 49/1/3
f 3/1/3 4/1/3 36/1/3
f 30/1/3 31/1/3 63/1/3
f 17/1/3 18/1/3 50/1/3
f 4/1/3 5/1/3 37/1/3
f 31/1/3 32/1/3 64/1/3
f 18/1/3 19/1/3 51/1/3
f 5/1/3 6/1/3 38/1/3
f 32/1/3 1/1/3 34/1/3
f 19/1/3 20/1/3 52/1/3
f 6/1/3 7/1/3 39/1/3
f 20/1/3 21/1/3 53/1/3
f 7/1/3 8/1/3 40/1/3
f 21/1/3 22/1/3 54/1/3
f 84/1/89 116/1/89 115/1/89
f 36/1/90 68/1/90 67/1/90
f 63/1/91 95/1/91 94/1/91
f 50/1/7 82/1/7 81/1/7
f 37/1/8 69/1/8 68/1/8
f 64/1/9 96/1/9 95/1/9
f 51/1/10 83/1/10 82/1/10
f 38/1/11 70/1/11 69/1/11
f 34/1/12 66/1/12 96/1/12
f 52/1/92 84/1/92 83/1/92
f 39/1/14 71/1/14 70/1/14
f 53/1/15 85/1/15 84/1/15
f 40/1/16 72/1/16 71/1/16
f 54/1/82 86/1/82 85/1/82
f 41/1/18 73/1/18 72/1/18
f 55/1/19 87/1/19 86/1/19
f 42/1/20 74/1/20 73/1/20
f 56/1/93 88/1/93 87/1/93
f 43/1/22 75/1/22 74/1/22
f 57/1/23 89/1/23 88/1/23
f 44/1/24 76/1/24 75/1/24
f 58/1/25 90/1/25 89/1/25
f 45/1/26 77/1/26 76/1/26
f 59/1/68 91/1/68 90/1/68
f 46/1/28 78/1/28 77/1/28
f 60/1/29 92/1/29 91/1/29
f 47/1/94 79/1/94 78/1/94
f 33/1/31 65/1/31 66/1/31
f 61/1/95 93/1/95 92/1/95
f 48/1/33 80/1/33 79/1/33
f 35/1/34 67/1/34 65/1/34
f 62/1/35 94/1/35 93/1/35
f 119/1/19 151/1/19 150/1/19
f 70/1/96 71/1/96 103/1/96
f 85/1/97 117/1/97 116/1/97
f 71/1/98 72/1/98 104/1/98
f 86/1/99 118/1/99 117/1/99
f 72/1/100 73/1/100 105/1/100
f 87/1/101 119/1/101 118/1/101
f 73/1/42 74/1/42 106/1/42
f 88/1/102 120/1/102 119/1/102
f 74/1/103 75/1/103 107/1/103
f 89/1/45 121/1/45 120/1/45
f 76/1/46 108/1/46 107/1/46
f 90/1/47 122/1/47 121/1/47
f 77/1/48 109/1/48 108/1/48
f 91/1/49 123/1/49 122/1/49
f 77/1/104 78/1/104 110/1/104
f 92/1/51 124/1/51 123/1/51
f 78/1/105 79/1/105 111/1/105
f 65/1/106 97/1/106 98/1/106
f 93/1/107 125/1/107 124/1/107
f 80/1/108 112/1/108 111/1/108
f 65/1/109 67/1/109 99/1/109
f 94/1/110 126/1/110 125/1/110
f 80/1/58 81/1/58 113/1/58
f 67/1/111 68/1/111 100/1/111
f 94/1/112 95/1/112 127/1/112
f 81/1/61 82/1/61 114/1/61
f 69/1/62 101/1/62 100/1/62
f 96/1/113 128/1/113 127/1/113
f 82/1/64 83/1/64 115/1/64
f 69/1/114 70/1/114 102/1/114
f 66/1/66 98/1/66 128/1/66
f 130/1/3 129/1/3 131/1/3
f 131/1/115 132/1/115 133/1/115
f 133/1/116 134/1/116 135/1/116
f 135/1/3 136/1/3 137/1/3
f 137/1/3 138/1/3 139/1/3
f 139/1/116 140/1/116 141/1/116
f 141/1/115 142/1/115 143/1/115
f 143/1/3 144/1/3 145/1/3
f 145/1/3 146/1/3 147/1/3
f 147/1/116 148/1/116 149/1/116
f 149/1/115 150/1/115 151/1/115
f 151/1/3 152/1/3 153/1/3
f 153/1/3 154/1/3 155/1/3
f 155/1/115 156/1/115 157/1/115
f 157/1/116 158/1/116 159/1/116
f 159/1/3 160/1/3 130/1/3
f 130/1/117 131/1/117 133/1/117
f 133/1/118 135/1/118 137/1/118
f 137/1/119 139/1/119 141/1/119
f 141/1/117 143/1/117 145/1/117
f 145/1/119 147/1/119 149/1/119
f 149/1/120 151/1/120 153/1/120
f 153/1/117 155/1/117 157/1/117
f 157/1/119 159/1/119 130/1/119
f 130/1/3 133/1/3 137/1/3
f 137/1/3 141/1/3 145/1/3
f 145/1/3 149/1/3 153/1/3
f 153/1/3 157/1/3 130/1/3
f 130/1/3 137/1/3 145/1/3
f 106/1/20 138/1/20 137/1/20
f 120/1/21 152/1/21 151/1/21
f 107/1/22 139/1/22 138/1/22
f 121/1/23 153/1/23 152/1/23
f 108/1/24 140/1/24 139/1/24
f 122/1/25 154/1/25 153/1/25
f 109/1/67 141/1/67 140/1/67
f 123/1/68 155/1/68 154/1/68
f 110/1/121 142/1/121 141/1/121
f 124/1/29 156/1/29 155/1/29
f 111/1/69 143/1/69 142/1/69
f 97/1/70 129/1/70 130/1/70
f 125/1/32 157/1/32 156/1/32
f 112/1/71 144/1/71 143/1/71
f 99/1/72 131/1/72 129/1/72
f 126/1/35 158/1/35 157/1/35
f 113/1/73 145/1/73 144/1/73
f 100/1/74 132/1/74 131/1/74
f 127/1/75 159/1/75 158/1/75
f 114/1/76 146/1/76 145/1/76
f 101/1/8 133/1/8 132/1/8
f 128/1/77 160/1/77 159/1/77
f 115/1/78 147/1/78 146/1/78
f 102/1/79 134/1/79 133/1/79
f 98/1/80 130/1/80 160/1/80
f 116/1/81 148/1/81 147/1/81
f 103/1/14 135/1/14 134/1/14
f 117/1/15 149/1/15 148/1/15
f 104/1/16 136/1/16 135/1/16
f 118/1/82 150/1/82 149/1/82
f 105/1/18 137/1/18 136/1/18
