# Blender 4.1.1
# www.blender.org
mtllib polygon15.mtl
o polygon15
v 17865.650391 27730.009766 -1140.000000
v 17865.650391 18655.009766 -1140.000000
v 42065.648438 27730.009766 -1140.000000
v 29965.646484 3530.004883 -1140.000000
v 42065.648438 3530.004883 -1140.000000
v 29965.646484 -8569.995117 -1140.000000
v 42065.648438 -8569.995117 -1140.000000
v 29965.646484 -20670.000000 -1140.000000
v 42065.648438 -20670.000000 -1140.000000
v -12384.359375 9580.005859 -1140.000000
v -12384.359375 3530.004883 -1140.000000
v 5765.645508 9580.005859 -1140.000000
v 5765.645996 3530.004883 -1140.000000
v 17865.650391 3530.004883 -1140.000000
v 5765.645996 -8569.995117 -1140.000000
v 17865.650391 -8569.995117 -1140.000000
v 5765.645996 -20670.000000 -1140.000000
v 17865.650391 -20670.000000 -1140.000000
v -12384.359375 -20670.000000 -1140.000000
v -12384.359375 -8569.995117 -1140.000000
vn -0.0000 -0.0000 -1.0000
vt 2.725830 -1.513916
vt 0.878540 -0.821167
vt 0.878540 -1.513916
vt 1.802124 0.333374
vt 2.725830 0.333374
vt 1.802124 1.256958
vt 2.725830 1.256958
vt 1.802124 2.180664
vt 2.725830 2.180664
vt -0.045166 -0.128540
vt -1.430664 0.333374
vt -1.430664 -0.128540
vt -0.045166 0.333374
vt 0.878540 0.333374
vt -0.045166 1.256958
vt 0.878540 1.256958
vt -0.045166 2.180664
vt 0.878540 2.180664
vt -1.430664 2.180664
vt -1.430664 1.256958
vt 0.878418 2.180664
s 1
usemtl ef_sea
f 3/1/1 2/2/1 1/3/1
f 4/4/1 2/2/1 3/1/1
f 5/5/1 4/4/1 3/1/1
f 6/6/1 4/4/1 5/5/1
f 7/7/1 6/6/1 5/5/1
f 8/8/1 6/6/1 7/7/1
f 9/9/1 8/8/1 7/7/1
f 12/10/1 11/11/1 10/12/1
f 13/13/1 11/11/1 12/10/1
f 14/14/1 13/13/1 12/10/1
f 15/15/1 13/13/1 14/14/1
f 16/16/1 15/15/1 14/14/1
f 17/17/1 15/15/1 16/16/1
f 18/18/1 17/17/1 16/16/1
f 2/2/1 14/14/1 12/10/1
f 4/4/1 14/14/1 2/2/1
f 19/19/1 15/15/1 17/17/1
f 20/20/1 15/15/1 19/19/1
f 13/13/1 20/20/1 11/11/1
f 15/15/1 20/20/1 13/13/1
f 18/21/1 6/6/1 8/8/1
f 16/16/1 6/6/1 18/21/1
f 16/16/1 4/4/1 6/6/1
f 14/14/1 4/4/1 16/16/1
