# Blender 4.1.1
# www.blender.org
mtllib Scene.008.mtl
o ModularTrackStraight__16_
v 500.000092 1000.000000 -125.000023
v 460.000092 1000.000000 -25.000017
v 460.000092 1000.000000 -125.000038
v 500.000061 1000.000000 25.000004
v -500.000061 1000.000000 24.999844
v -460.000000 1000.000000 -25.000158
v -500.000061 1000.000000 -125.000168
v -460.000031 1000.000000 -125.000153
v 460.000092 0.000000 -125.000038
v 460.000092 0.000000 -25.000017
v 500.000092 0.000000 -125.000023
v 500.000061 -0.000000 25.000004
v -500.000061 -0.000000 24.999844
v -460.000000 0.000000 -25.000158
v -500.000061 0.000000 -125.000168
v -460.000031 0.000000 -125.000153
v -460.000031 900.000000 -125.000153
v -460.000000 900.000000 -25.000158
v -460.000031 800.000000 -125.000153
v -460.000000 800.000000 -25.000158
v -460.000031 700.000000 -125.000153
v -460.000000 700.000000 -25.000158
v -460.000031 600.000000 -125.000153
v -460.000000 600.000000 -25.000158
v -460.000031 500.000000 -125.000153
v -460.000000 500.000000 -25.000158
v -460.000031 400.000000 -125.000153
v -460.000000 400.000000 -25.000158
v -460.000031 300.000000 -125.000153
v -460.000000 300.000000 -25.000158
v -460.000031 200.000000 -125.000153
v -460.000000 200.000000 -25.000158
v -460.000031 100.000000 -125.000153
v -460.000000 100.000000 -25.000158
v -500.000061 900.000000 -125.000168
v -500.000061 800.000000 -125.000168
v -500.000061 700.000000 -125.000168
v -500.000061 600.000000 -125.000168
v -500.000061 500.000000 -125.000168
v -500.000061 400.000000 -125.000168
v -500.000061 300.000000 -125.000168
v -500.000061 200.000000 -125.000168
v -500.000061 100.000000 -125.000168
v -500.000061 900.000000 24.999844
v -500.000061 800.000000 24.999844
v -500.000061 700.000000 24.999844
v -500.000061 600.000000 24.999844
v -500.000061 500.000000 24.999844
v -500.000061 400.000000 24.999844
v -500.000061 300.000000 24.999844
v -500.000061 200.000000 24.999844
v -500.000061 100.000000 24.999844
v 500.000061 900.000000 25.000004
v 500.000061 800.000000 25.000004
v 500.000061 700.000000 25.000004
v 500.000061 600.000000 25.000004
v 500.000061 500.000000 25.000004
v 500.000061 400.000000 25.000004
v 500.000061 300.000000 25.000004
v 500.000061 200.000000 25.000004
v 500.000061 100.000000 25.000004
v 500.000092 900.000000 -125.000023
v 500.000092 800.000000 -125.000023
v 500.000092 700.000000 -125.000023
v 500.000092 600.000000 -125.000023
v 500.000092 500.000000 -125.000023
v 500.000092 400.000000 -125.000023
v 500.000092 300.000000 -125.000023
v 500.000092 200.000000 -125.000023
v 500.000092 100.000000 -125.000023
v 460.000092 900.000000 -125.000038
v 460.000092 800.000000 -125.000038
v 460.000092 700.000000 -125.000038
v 460.000092 600.000000 -125.000038
v 460.000092 500.000000 -125.000038
v 460.000092 400.000000 -125.000038
v 460.000092 300.000000 -125.000038
v 460.000092 200.000000 -125.000038
v 460.000092 100.000000 -125.000038
v 460.000092 900.000000 -25.000017
v 460.000092 800.000000 -25.000017
v 460.000092 700.000000 -25.000017
v 460.000092 600.000000 -25.000017
v 460.000092 500.000000 -25.000017
v 460.000092 400.000000 -25.000017
v 460.000092 300.000000 -25.000017
v 460.000092 200.000000 -25.000017
v 460.000092 100.000000 -25.000017
vn -0.0000 1.0000 -0.0000
vn -0.0000 -1.0000 -0.0000
vn 1.0000 -0.0000 -0.0000
vn -0.0000 -0.0000 -1.0000
vn -1.0000 -0.0000 -0.0000
vn -0.0000 -0.0000 1.0000
vt 0.075000 1.000000
vt 0.075000 0.980000
vt 0.125000 0.980000
vt 0.150000 1.000000
vt 0.150000 0.500000
vt 0.125000 0.520000
vt 0.075000 0.500000
vt 0.075000 0.520000
vt 0.300000 0.980000
vt 0.300000 1.000000
vt 0.250000 0.980000
vt 0.225000 1.000000
vt 0.225000 0.500000
vt 0.250000 0.520000
vt 0.300000 0.500000
vt 0.300000 0.520000
vt 0.300000 0.550000
vt 0.300000 0.500000
vt 0.350000 0.500000
vt 0.350000 0.550000
vt 0.300000 0.600000
vt 0.350000 0.600000
vt 0.300000 0.650000
vt 0.350000 0.650000
vt 0.300000 0.700000
vt 0.350000 0.700000
vt 0.300000 0.750000
vt 0.350000 0.750000
vt 0.300000 0.800000
vt 0.350000 0.800000
vt 0.300000 0.850000
vt 0.350000 0.850000
vt 0.300000 0.900000
vt 0.350000 0.900000
vt 0.300000 0.950000
vt 0.350000 0.950000
vt 0.300000 1.000000
vt 0.350000 1.000000
vt 0.960000 0.050000
vt 0.960000 0.000000
vt 0.980000 0.000000
vt 0.980000 0.050000
vt 0.960000 0.100000
vt 0.980000 0.100000
vt 0.960000 0.150000
vt 0.980000 0.150000
vt 0.960000 0.200000
vt 0.980000 0.200000
vt 0.960000 0.250000
vt 0.980000 0.250000
vt 0.960000 0.300000
vt 0.980000 0.300000
vt 0.960000 0.350000
vt 0.980000 0.350000
vt 0.960000 0.400000
vt 0.980000 0.400000
vt 0.960000 0.450000
vt 0.980000 0.450000
vt 0.960000 0.500000
vt 0.980000 0.500000
vt 0.150000 0.550000
vt 0.150000 0.500000
vt 0.225000 0.550000
vt 0.150000 0.600000
vt 0.225000 0.600000
vt 0.150000 0.650000
vt 0.225000 0.650000
vt 0.150000 0.700000
vt 0.225000 0.700000
vt 0.150000 0.750000
vt 0.225000 0.750000
vt 0.150000 0.800000
vt 0.225000 0.800000
vt 0.150000 0.850000
vt 0.225000 0.850000
vt 0.150000 0.900000
vt 0.225000 0.900000
vt 0.150000 0.950000
vt 0.225000 0.950000
vt 0.225000 1.000000
vt 0.000000 0.050000
vt 0.000000 0.000000
vt 0.500000 0.000000
vt 0.500000 0.050000
vt 0.000000 0.100000
vt 0.500000 0.100000
vt 0.000000 0.150000
vt 0.500000 0.150000
vt 0.000000 0.200000
vt 0.500000 0.200000
vt 0.000000 0.250000
vt 0.500000 0.250000
vt 0.000000 0.300000
vt 0.500000 0.300000
vt 0.000000 0.350000
vt 0.500000 0.350000
vt 0.000000 0.400000
vt 0.500000 0.400000
vt 0.000000 0.450000
vt 0.500000 0.450000
vt 0.000000 0.500000
vt 0.500000 0.500000
vt 0.000000 0.550000
vt 0.000000 0.500000
vt 0.075000 0.500000
vt 0.075000 0.550000
vt 0.000000 0.600000
vt 0.075000 0.600000
vt 0.000000 0.650000
vt 0.075000 0.650000
vt 0.000000 0.700000
vt 0.075000 0.700000
vt 0.000000 0.750000
vt 0.075000 0.750000
vt 0.000000 0.800000
vt 0.075000 0.800000
vt 0.000000 0.850000
vt 0.075000 0.850000
vt 0.000000 0.900000
vt 0.075000 0.900000
vt 0.000000 0.950000
vt 0.075000 0.950000
vt 0.000000 1.000000
vt 0.075000 1.000000
vt 0.980000 0.050000
vt 0.980000 0.000000
vt 1.000000 0.000000
vt 1.000000 0.050000
vt 0.980000 0.100000
vt 1.000000 0.100000
vt 0.980000 0.150000
vt 1.000000 0.150000
vt 0.980000 0.200000
vt 1.000000 0.200000
vt 0.980000 0.250000
vt 1.000000 0.250000
vt 0.980000 0.300000
vt 1.000000 0.300000
vt 0.980000 0.350000
vt 1.000000 0.350000
vt 0.980000 0.400000
vt 1.000000 0.400000
vt 0.980000 0.450000
vt 1.000000 0.450000
vt 0.980000 0.500000
vt 1.000000 0.500000
vt 0.350000 0.550000
vt 0.350000 0.500000
vt 0.400000 0.500000
vt 0.400000 0.550000
vt 0.350000 0.600000
vt 0.400000 0.600000
vt 0.350000 0.650000
vt 0.400000 0.650000
vt 0.350000 0.700000
vt 0.400000 0.700000
vt 0.350000 0.750000
vt 0.400000 0.750000
vt 0.350000 0.800000
vt 0.400000 0.800000
vt 0.350000 0.850000
vt 0.400000 0.850000
vt 0.350000 0.900000
vt 0.400000 0.900000
vt 0.350000 0.950000
vt 0.400000 0.950000
vt 0.350000 1.000000
vt 0.400000 1.000000
vt 0.500000 0.050000
vt 0.500000 0.000000
vt 0.960000 0.000000
vt 0.960000 0.050000
vt 0.500000 0.100000
vt 0.960000 0.100000
vt 0.500000 0.150000
vt 0.960000 0.150000
vt 0.500000 0.200000
vt 0.960000 0.200000
vt 0.500000 0.250000
vt 0.960000 0.250000
vt 0.500000 0.300000
vt 0.960000 0.300000
vt 0.500000 0.350000
vt 0.960000 0.350000
vt 0.500000 0.400000
vt 0.960000 0.400000
vt 0.500000 0.450000
vt 0.960000 0.450000
vt 0.500000 0.500000
vt 0.960000 0.500000
s 1
usemtl Modular_Track_Road
f 1/1/1 3/2/1 2/3/1
f 1/1/1 2/3/1 4/4/1
f 2/3/1 5/5/1 4/4/1
f 2/3/1 6/6/1 5/5/1
f 6/6/1 7/7/1 5/5/1
f 8/8/1 7/7/1 6/6/1
f 9/9/2 11/10/2 10/11/2
f 10/11/2 11/10/2 12/12/2
f 13/13/2 10/11/2 12/12/2
f 14/14/2 10/11/2 13/13/2
f 15/15/2 14/14/2 13/13/2
f 15/15/2 16/16/2 14/14/2
f 17/17/3 8/18/3 6/19/3
f 17/17/3 6/19/3 18/20/3
f 19/21/3 17/17/3 18/20/3
f 19/21/3 18/20/3 20/22/3
f 21/23/3 19/21/3 20/22/3
f 21/23/3 20/22/3 22/24/3
f 23/25/3 21/23/3 22/24/3
f 23/25/3 22/24/3 24/26/3
f 25/27/3 23/25/3 24/26/3
f 25/27/3 24/26/3 26/28/3
f 27/29/3 25/27/3 26/28/3
f 27/29/3 26/28/3 28/30/3
f 29/31/3 27/29/3 28/30/3
f 29/31/3 28/30/3 30/32/3
f 31/33/3 29/31/3 30/32/3
f 31/33/3 30/32/3 32/34/3
f 33/35/3 31/33/3 32/34/3
f 33/35/3 32/34/3 34/36/3
f 16/37/3 33/35/3 34/36/3
f 16/37/3 34/36/3 14/38/3
f 35/39/4 7/40/4 8/41/4
f 35/39/4 8/41/4 17/42/4
f 36/43/4 35/39/4 17/42/4
f 36/43/4 17/42/4 19/44/4
f 37/45/4 36/43/4 19/44/4
f 37/45/4 19/44/4 21/46/4
f 38/47/4 37/45/4 21/46/4
f 38/47/4 21/46/4 23/48/4
f 39/49/4 38/47/4 23/48/4
f 39/49/4 23/48/4 25/50/4
f 40/51/4 39/49/4 25/50/4
f 40/51/4 25/50/4 27/52/4
f 41/53/4 40/51/4 27/52/4
f 41/53/4 27/52/4 29/54/4
f 42/55/4 41/53/4 29/54/4
f 42/55/4 29/54/4 31/56/4
f 43/57/4 42/55/4 31/56/4
f 43/57/4 31/56/4 33/58/4
f 15/59/4 43/57/4 33/58/4
f 15/59/4 33/58/4 16/60/4
f 44/61/5 5/62/5 7/13/5
f 44/61/5 7/13/5 35/63/5
f 45/64/5 44/61/5 35/63/5
f 45/64/5 35/63/5 36/65/5
f 46/66/5 45/64/5 36/65/5
f 46/66/5 36/65/5 37/67/5
f 47/68/5 46/66/5 37/67/5
f 47/68/5 37/67/5 38/69/5
f 48/70/5 47/68/5 38/69/5
f 48/70/5 38/69/5 39/71/5
f 49/72/5 48/70/5 39/71/5
f 49/72/5 39/71/5 40/73/5
f 50/74/5 49/72/5 40/73/5
f 50/74/5 40/73/5 41/75/5
f 51/76/5 50/74/5 41/75/5
f 51/76/5 41/75/5 42/77/5
f 52/78/5 51/76/5 42/77/5
f 52/78/5 42/77/5 43/79/5
f 13/4/5 52/78/5 43/79/5
f 13/4/5 43/79/5 15/80/5
f 53/81/6 4/82/6 5/83/6
f 53/81/6 5/83/6 44/84/6
f 54/85/6 53/81/6 44/84/6
f 54/85/6 44/84/6 45/86/6
f 55/87/6 54/85/6 45/86/6
f 55/87/6 45/86/6 46/88/6
f 56/89/6 55/87/6 46/88/6
f 56/89/6 46/88/6 47/90/6
f 57/91/6 56/89/6 47/90/6
f 57/91/6 47/90/6 48/92/6
f 58/93/6 57/91/6 48/92/6
f 58/93/6 48/92/6 49/94/6
f 59/95/6 58/93/6 49/94/6
f 59/95/6 49/94/6 50/96/6
f 60/97/6 59/95/6 50/96/6
f 60/97/6 50/96/6 51/98/6
f 61/99/6 60/97/6 51/98/6
f 61/99/6 51/98/6 52/100/6
f 12/101/6 61/99/6 52/100/6
f 12/101/6 52/100/6 13/102/6
f 62/103/3 1/104/3 4/105/3
f 62/103/3 4/105/3 53/106/3
f 63/107/3 62/103/3 53/106/3
f 63/107/3 53/106/3 54/108/3
f 64/109/3 63/107/3 54/108/3
f 64/109/3 54/108/3 55/110/3
f 65/111/3 64/109/3 55/110/3
f 65/111/3 55/110/3 56/112/3
f 66/113/3 65/111/3 56/112/3
f 66/113/3 56/112/3 57/114/3
f 67/115/3 66/113/3 57/114/3
f 67/115/3 57/114/3 58/116/3
f 68/117/3 67/115/3 58/116/3
f 68/117/3 58/116/3 59/118/3
f 69/119/3 68/117/3 59/118/3
f 69/119/3 59/118/3 60/120/3
f 70/121/3 69/119/3 60/120/3
f 70/121/3 60/120/3 61/122/3
f 11/123/3 70/121/3 61/122/3
f 11/123/3 61/122/3 12/124/3
f 71/125/4 3/126/4 1/127/4
f 71/125/4 1/127/4 62/128/4
f 72/129/4 71/125/4 62/128/4
f 72/129/4 62/128/4 63/130/4
f 73/131/4 72/129/4 63/130/4
f 73/131/4 63/130/4 64/132/4
f 74/133/4 73/131/4 64/132/4
f 74/133/4 64/132/4 65/134/4
f 75/135/4 74/133/4 65/134/4
f 75/135/4 65/134/4 66/136/4
f 76/137/4 75/135/4 66/136/4
f 76/137/4 66/136/4 67/138/4
f 77/139/4 76/137/4 67/138/4
f 77/139/4 67/138/4 68/140/4
f 78/141/4 77/139/4 68/140/4
f 78/141/4 68/140/4 69/142/4
f 79/143/4 78/141/4 69/142/4
f 79/143/4 69/142/4 70/144/4
f 9/145/4 79/143/4 70/144/4
f 9/145/4 70/144/4 11/146/4
f 80/147/5 2/148/5 3/149/5
f 80/147/5 3/149/5 71/150/5
f 81/151/5 80/147/5 71/150/5
f 81/151/5 71/150/5 72/152/5
f 82/153/5 81/151/5 72/152/5
f 82/153/5 72/152/5 73/154/5
f 83/155/5 82/153/5 73/154/5
f 83/155/5 73/154/5 74/156/5
f 84/157/5 83/155/5 74/156/5
f 84/157/5 74/156/5 75/158/5
f 85/159/5 84/157/5 75/158/5
f 85/159/5 75/158/5 76/160/5
f 86/161/5 85/159/5 76/160/5
f 86/161/5 76/160/5 77/162/5
f 87/163/5 86/161/5 77/162/5
f 87/163/5 77/162/5 78/164/5
f 88/165/5 87/163/5 78/164/5
f 88/165/5 78/164/5 79/166/5
f 10/167/5 88/165/5 79/166/5
f 10/167/5 79/166/5 9/168/5
f 18/169/4 6/170/4 2/171/4
f 18/169/4 2/171/4 80/172/4
f 20/173/4 18/169/4 80/172/4
f 20/173/4 80/172/4 81/174/4
f 22/175/4 20/173/4 81/174/4
f 22/175/4 81/174/4 82/176/4
f 24/177/4 22/175/4 82/176/4
f 24/177/4 82/176/4 83/178/4
f 26/179/4 24/177/4 83/178/4
f 26/179/4 83/178/4 84/180/4
f 28/181/4 26/179/4 84/180/4
f 28/181/4 84/180/4 85/182/4
f 30/183/4 28/181/4 85/182/4
f 30/183/4 85/182/4 86/184/4
f 32/185/4 30/183/4 86/184/4
f 32/185/4 86/184/4 87/186/4
f 34/187/4 32/185/4 87/186/4
f 34/187/4 87/186/4 88/188/4
f 14/189/4 34/187/4 88/188/4
f 14/189/4 88/188/4 10/190/4
