# Blender 4.1.1
# www.blender.org
mtllib polygon0.005.mtl
o polygon0.005
v -740.666870 3573.007812 4113.977539
v -740.666870 3573.007812 4119.193848
v -740.666870 3578.224121 4119.193848
v -740.666870 3578.224121 4113.977539
v -735.450806 3573.007812 4119.193848
v -735.450806 3573.007812 4113.977539
v -735.450806 3578.224121 4113.977539
v -735.450806 3578.224121 4119.193848
v -740.666870 3573.007812 4113.977539
v -735.450806 3573.007812 4113.977539
v -735.450806 3573.007812 4119.193848
v -740.666870 3573.007812 4119.193848
v -740.666870 3578.224121 4113.977539
v -735.450806 3578.224121 4113.977539
v -735.450806 3573.007812 4113.977539
v -740.666870 3573.007812 4113.977539
v -740.666870 3578.224121 4119.193848
v -735.450806 3578.224121 4119.193848
v -735.450806 3578.224121 4113.977539
v -740.666870 3578.224121 4113.977539
v -740.666870 3573.007812 4119.193848
v -735.450806 3573.007812 4119.193848
v -735.450806 3578.224121 4119.193848
v -740.666870 3578.224121 4119.193848
vn -1.0000 -0.0000 -0.0000
vn 1.0000 -0.0000 -0.0000
vn -0.0000 -1.0000 -0.0000
vn -0.0000 -0.0000 -1.0000
vn -0.0000 1.0000 -0.0000
vn -0.0000 -0.0000 1.0000
vt 0.000000 -1.000000
vt -1.000000 0.000000
vt -1.000000 -1.000000
vt 2.000000 -1.000000
vt 1.000000 0.000000
vt 1.000000 -1.000000
vt 1.000000 2.000000
vt 0.000000 3.000000
vt 0.000000 2.000000
vt 1.000000 1.000000
vt 0.000000 1.000000
vt 0.000000 0.000000
vt 2.000000 0.000000
vt 1.000000 3.000000
s 0
usemtl box_mat
f 2/1/1 4/2/1 1/3/1
f 6/4/2 8/5/2 5/6/2
f 10/7/3 12/8/3 9/9/3
f 14/9/4 16/10/4 13/7/4
f 18/5/5 20/11/5 17/12/5
f 22/6/6 24/12/6 21/1/6
f 2/1/1 3/12/1 4/2/1
f 6/4/2 7/13/2 8/5/2
f 10/7/3 11/14/3 12/8/3
f 14/9/4 15/11/4 16/10/4
f 18/5/5 19/10/5 20/11/5
f 22/6/6 23/5/6 24/12/6
