# Blender 4.1.1
# www.blender.org
mtllib polygon20.mtl
o polygon20
v -13139.859375 57299.863281 -2716.945068
v -13105.879883 61746.230469 -3243.326172
v -13190.318359 61768.449219 -3082.289062
v -13101.330078 62740.339844 -3369.163818
v -13184.660156 62877.437500 -3223.767090
v -13087.870117 63224.160156 -3447.604492
v -13166.939453 63410.863281 -3315.797363
v -13025.568359 63912.019531 -3558.956055
v -13110.778320 63948.039062 -3411.521484
v -12979.959961 64508.070312 -3496.266113
v -12805.238281 50859.890625 -1617.100952
v -13006.200195 51181.289062 -1708.479004
v -13052.549805 51153.789062 -1562.212036
v -13138.040039 51561.757812 -1806.991089
v -13187.160156 51551.917969 -1673.681030
v -13174.679688 52039.800781 -1939.899902
v -13219.559570 52000.453125 -1797.621094
v -13202.790039 52511.449219 -1921.948975
v -10732.769531 66296.375000 -3788.739990
v -9734.793945 66514.148438 -3803.217285
v -9823.027344 66577.585938 -3642.000000
v -8849.069336 66569.140625 -3799.798096
v -8801.263672 66639.351562 -3642.000000
v -7788.099609 66529.054688 -3799.828125
v -7782.397461 66585.187500 -3642.000000
v -6831.723145 66454.460938 -3642.000000
v -6802.612305 66391.359375 -3795.559814
v -6039.609375 66201.039062 -3787.240967
v -5962.027344 66234.085938 -3641.999756
v -5220.754395 65826.492188 -3799.607910
v -5181.623047 65891.921875 -3641.999756
v -4520.390137 65362.417969 -3641.999756
v -4532.431152 65243.988281 -3800.602051
v -4124.069824 64587.898438 -3805.538818
v -4046.770020 64607.039062 -3641.999756
v -3820.523926 63563.128906 -3823.088135
v -3753.537109 63603.378906 -3642.000000
v -3624.268066 62374.507812 -3641.999756
v -3227.199951 73135.507812 -3862.396973
v -3249.083008 73056.726562 -3641.669922
v -1458.095093 71881.281250 -3861.204102
v -1489.934937 71818.406250 -3642.000000
v 233.786697 70508.804688 -3861.204102
v 189.207474 70472.828125 -3642.000000
v 1578.754028 68746.960938 -3641.999756
v -4300.865234 44281.140625 -1378.328125
v -4342.671387 44280.550781 -1241.999878
v -4294.040039 43154.468750 -1378.549927
v -4342.671387 43212.539062 -1242.000000
v -5400.000000 43144.160156 -1388.556030
v -5400.000000 43208.398438 -1242.000000
v -10680.000000 43206.230469 -1242.714111
v -4329.975098 49812.828125 -1242.000000
v -4286.136230 49865.757812 -1388.132080
v -5400.000000 49812.828125 -1242.000000
v -5400.000000 49864.949219 -1375.992065
v -10680.000000 49817.070312 -1242.335083
v -10626.849609 49871.589844 -1394.667236
v -11162.259766 49924.070312 -1395.534058
v -11554.669922 50024.699219 -1408.998169
v -11897.979492 50191.417969 -1435.204102
v -11933.910156 50143.480469 -1295.331055
v -12237.939453 50375.500000 -1463.343018
v -12284.059570 50339.410156 -1337.410889
v -12585.568359 50551.890625 -1394.107056
v -12902.459961 64521.507812 -3640.927979
v -12650.488281 65031.128906 -3716.252930
v -12711.379883 65067.437500 -3562.719238
v -12237.040039 65496.347656 -3747.447998
v -12254.559570 65574.585938 -3606.979248
v -11605.799805 66011.960938 -3631.427002
v 2510.594238 66755.492188 -3861.204102
v 2919.822998 64675.007812 -3641.999756
v 2959.221191 64678.109375 -3861.203857
v 3106.887207 62801.488281 -3641.999756
v 3145.318115 62808.000000 -3861.203857
v 3167.684814 60007.378906 -3861.204346
v -10680.000000 43151.519531 -1411.222046
v -13075.689453 43504.378906 -1282.207031
v -13093.979492 43438.558594 -1458.803101
v -14246.120117 43811.398438 -1508.318115
v -3600.001221 50685.898438 -3642.000000
v -3095.996094 50685.898438 -3642.000000
v -3134.833008 50761.613281 -3926.702148
v -3575.996094 52800.000000 -3641.999756
v -3674.637939 52868.339844 -3842.031006
v -3654.192139 55231.968750 -3847.913086
v -14226.889648 43852.429688 -1313.395020
v -15412.849609 44414.480469 -1357.549927
v -15451.559570 44356.410156 -1561.552124
v -16792.628906 45153.480469 -1605.977905
v -16769.218750 45194.218750 -1418.653076
v -18081.400391 46227.890625 -1500.421143
v -18124.208984 46182.730469 -1691.810059
v -19143.179688 47484.718750 -1787.778076
v -19090.759766 47523.449219 -1603.703979
v -19764.449219 48984.410156 -1718.125000
v -19837.650391 48952.410156 -1888.677002
v -20206.048828 50467.613281 -2021.973145
v -20142.929688 50468.949219 -1832.248169
v -20298.628906 51800.449219 -1941.616943
v -20370.869141 51799.507812 -2129.239014
v -20431.277344 53720.328125 -2342.835205
v -20366.160156 53678.769531 -2140.995117
v -20362.689453 61768.449219 -3082.289062
v -20456.218750 61768.449219 -3253.278076
v -20339.609375 63266.128906 -3250.700195
v -20413.179688 63274.730469 -3435.748291
v -20300.939453 64659.937500 -3587.463867
v -20239.830078 64629.699219 -3400.312988
v -19929.708984 66313.609375 -3578.229980
v -19963.009766 66351.015625 -3772.096191
v -19319.519531 68128.507812 -3942.126221
v -19276.759766 68093.476562 -3752.883057
v -18222.689453 69777.445312 -3896.148926
v -18260.429688 69816.601562 -4087.479980
v -16810.349609 71283.875000 -4173.466309
v -16769.849609 71233.226562 -3985.092041
v -14903.149414 72376.398438 -4002.808105
v -14924.679688 72438.406250 -4199.243652
v -12687.599609 73236.656250 -4132.756836
v -12677.939453 73153.500000 -3945.966064
v -10260.740234 73619.210938 -3848.974854
v -10264.540039 73683.945312 -4031.354248
v -7845.124023 73848.742188 -3936.594238
v 1753.947144 68458.906250 -3861.203857
v 2464.792236 66745.125000 -3642.000000
v -5495.288574 73615.085938 -3674.502930
v -5484.223145 73683.789062 -3888.857178
v 1641.311035 68787.976562 -3861.203857
v 3106.887207 60000.000000 -3642.000244
v 3196.316162 55277.808594 -3861.204102
v -11234.429688 49874.660156 -1251.486084
v -11575.979492 49969.410156 -1267.039917
v 3107.079102 55200.000000 -3642.000000
v 3600.000000 55200.000000 -3642.000000
v -12543.919922 50590.968750 -1533.337036
v -12842.040039 50818.398438 -1468.285767
v -13162.939453 52523.769531 -2045.063965
v -13190.318359 53749.679688 -2138.381104
v -13139.019531 53811.757812 -2290.547119
v -13190.318359 57305.289062 -2556.919922
v -4329.975098 48719.890625 -1242.000000
v -4291.358398 49867.250000 -1388.249023
v -4291.229004 48719.269531 -1388.626953
v -3696.795166 62337.929688 -3828.860840
v -3575.996094 60000.000000 -3642.000244
v -3656.284912 59981.738281 -3835.178223
v -3575.996094 55200.000000 -3642.000000
v -11435.959961 65996.828125 -3785.779053
v -10773.580078 66362.742188 -3640.678223
v -7845.124023 73789.539062 -3749.031982
v -11806.769531 43331.808594 -1260.587036
vn -0.9528 -0.0362 -0.3015
vn -0.8874 -0.0507 -0.4583
vn -0.8883 -0.0506 -0.4565
vn -0.8870 -0.0526 -0.4587
vn -0.8866 -0.0513 -0.4598
vn -0.8795 -0.0376 -0.4744
vn -0.8684 -0.0165 -0.4955
vn -0.8601 0.0592 -0.5066
vn -0.8578 0.0599 -0.5104
vn -0.8669 0.2094 -0.4523
vn -0.6969 -0.6274 -0.3474
vn -0.8155 -0.4642 -0.3457
vn -0.7977 -0.4942 -0.3456
vn -0.8988 -0.2630 -0.3506
vn -0.8895 -0.2959 -0.3482
vn -0.9428 -0.0855 -0.3222
vn -0.9366 -0.1207 -0.3288
vn -0.9491 -0.0448 -0.3117
vn -0.2688 0.8490 -0.4550
vn -0.1078 0.9036 -0.4146
vn -0.1456 0.8910 -0.4300
vn -0.0184 0.9155 -0.4018
vn -0.0019 0.9157 -0.4017
vn 0.0884 0.9356 -0.3419
vn 0.0893 0.9374 -0.3366
vn 0.1735 0.9225 -0.3449
vn 0.1890 0.9204 -0.3424
vn 0.2887 0.8886 -0.3564
vn 0.3229 0.8695 -0.3737
vn 0.4674 0.7669 -0.4398
vn 0.4659 0.7702 -0.4354
vn 0.6363 0.5990 -0.4862
vn 0.6948 0.5500 -0.4634
vn 0.8186 0.3795 -0.4312
vn 0.8245 0.3690 -0.4290
vn 0.9096 0.1715 -0.3785
vn 0.9074 0.1858 -0.3770
vn 0.9267 0.0609 -0.3709
vn -0.3835 -0.8576 -0.3427
vn -0.3961 -0.8520 -0.3424
vn -0.5741 -0.7608 -0.3026
vn -0.5762 -0.7603 -0.2999
vn -0.6840 -0.6832 -0.2557
vn -0.6823 -0.6865 -0.2514
vn -0.8278 -0.4755 -0.2978
vn -0.9560 -0.0057 -0.2932
vn -0.9550 -0.0053 -0.2967
vn -0.6097 0.6295 -0.4818
vn -0.6387 0.5992 -0.4828
vn -0.0020 0.9165 -0.4001
vn -0.0020 0.9159 -0.4014
vn 0.0631 0.9501 -0.3054
vn -0.6679 -0.6257 -0.4030
vn -0.0003 -0.9394 -0.3428
vn -0.0019 -0.9323 -0.3616
vn -0.0020 -0.9321 -0.3623
vn -0.0537 -0.9340 -0.3533
vn -0.0367 -0.9367 -0.3481
vn -0.1422 -0.9137 -0.3808
vn -0.3012 -0.8723 -0.3851
vn -0.3964 -0.8324 -0.3871
vn -0.3963 -0.8326 -0.3869
vn -0.4454 -0.8060 -0.3899
vn -0.4464 -0.8036 -0.3938
vn -0.5415 -0.7513 -0.3772
vn -0.8607 0.2616 -0.4368
vn -0.7686 0.4834 -0.4191
vn -0.7781 0.4677 -0.4193
vn -0.6122 0.6515 -0.4481
vn -0.5924 0.6702 -0.4471
vn -0.4308 0.7268 -0.5350
vn -0.9301 -0.3033 -0.2071
vn -0.9720 -0.1536 -0.1780
vn -0.9724 -0.1525 -0.1768
vn -0.9829 -0.0520 -0.1765
vn -0.9833 -0.0533 -0.1740
vn -0.9642 -0.0031 -0.2650
vn 0.0623 0.9489 -0.3095
vn 0.2075 0.9138 -0.3493
vn 0.2130 0.9081 -0.3605
vn 0.3589 0.9026 -0.2378
vn -0.0000 -0.9664 -0.2570
vn 0.7224 -0.6374 -0.2681
vn 0.9044 -0.3566 -0.2343
vn 0.9122 0.1460 -0.3829
vn 0.9052 0.0917 -0.4150
vn 0.9339 0.0005 -0.3576
vn 0.3548 0.9072 -0.2260
vn 0.4465 0.8376 -0.3148
vn 0.4492 0.8332 -0.3224
vn 0.5524 0.7956 -0.2486
vn 0.5512 0.7983 -0.2425
vn 0.6804 0.6651 -0.3076
vn 0.6847 0.6601 -0.3089
vn 0.8170 0.4698 -0.3345
vn 0.8159 0.4735 -0.3320
vn 0.8669 0.2768 -0.4146
vn 0.8651 0.2708 -0.4221
vn 0.9368 0.1424 -0.3196
vn 0.9372 0.1539 -0.3129
vn 0.9338 0.0416 -0.3554
vn 0.9326 0.0344 -0.3593
vn 0.9498 -0.0191 -0.3122
vn 0.9505 -0.0123 -0.3106
vn 0.8757 -0.0614 -0.4790
vn 0.8787 -0.0621 -0.4733
vn 0.9229 -0.0910 -0.3740
vn 0.9235 -0.0952 -0.3716
vn 0.9309 -0.1624 -0.3273
vn 0.9328 -0.1480 -0.3285
vn 0.9367 -0.2726 -0.2199
vn 0.9313 -0.2930 -0.2165
vn 0.8497 -0.4507 -0.2735
vn 0.8576 -0.4351 -0.2743
vn 0.7479 -0.6049 -0.2734
vn 0.7409 -0.6142 -0.2718
vn 0.5784 -0.7489 -0.3235
vn 0.5802 -0.7466 -0.3255
vn 0.4129 -0.8536 -0.3176
vn 0.4104 -0.8557 -0.3151
vn 0.2497 -0.8817 -0.4004
vn 0.2516 -0.8793 -0.4045
vn 0.1308 -0.9330 -0.3352
vn 0.1316 -0.9333 -0.3340
vn 0.0104 -0.9532 -0.3021
vn -0.8986 -0.3814 -0.2169
vn -0.9290 -0.3056 -0.2086
vn -0.1423 -0.9401 -0.3098
vn -0.1404 -0.9407 -0.3088
vn -0.8261 -0.4623 -0.3223
vn -0.9631 -0.0029 -0.2691
vn -0.7009 -0.5343 -0.4725
vn -0.1738 -0.9015 -0.3963
vn -0.2975 -0.8719 -0.3890
vn -0.6293 -0.6154 -0.4746
vn -0.0000 -0.9424 -0.3345
vn -0.5535 -0.7458 -0.3706
vn -0.6733 -0.6501 -0.3521
vn -0.9488 -0.0449 -0.3126
vn -0.9414 -0.0440 -0.3345
vn -0.9417 -0.0417 -0.3339
vn -0.9533 -0.0361 -0.2999
vn -0.9668 -0.0000 -0.2555
vn -0.9669 -0.0000 -0.2553
vn 0.9272 0.0530 -0.3709
vn 0.9233 0.0090 -0.3839
vn 0.9233 0.0080 -0.3840
vn 0.9347 0.0006 -0.3553
vn -0.3804 0.7812 -0.4950
vn -0.2802 0.8447 -0.4560
vn 0.0076 -0.9536 -0.3010
vn -0.0105 0.0479 0.9988
vt 0.022217 0.000000
vt 0.022217 1.000000
vt -0.155884 1.000000
vt 0.063110 1.000000
vt 0.067871 0.000000
vt 0.073730 1.000000
vt 0.079468 0.000000
vt 0.099243 1.000000
vt 0.098999 0.000000
vt 0.123413 0.000000
vt -0.385376 0.000000
vt -0.385376 1.000000
vt -0.392700 1.000000
vt -0.373047 1.000000
vt -0.372436 0.000000
vt -0.360352 1.000000
vt -0.360840 0.000000
vt -0.349976 0.000000
vt 0.309326 0.000000
vt 0.312012 1.000000
vt 0.266357 1.000000
vt 0.347412 1.000000
vt 0.350220 0.000000
vt 0.391357 1.000000
vt 0.391357 0.000000
vt 0.437500 0.000000
vt 0.439819 1.000000
vt 0.482544 1.000000
vt 0.486206 0.000000
vt 0.520264 1.000000
vt 0.520264 0.000000
vt 0.573120 0.000000
vt 0.574097 1.000000
vt 0.603882 1.000000
vt 0.607544 0.000000
vt 0.641968 1.000000
vt 0.641968 0.000000
vt 0.706299 0.000000
vt 1.260986 1.000000
vt 1.173584 0.000000
vt 1.173584 1.000000
vt 1.260986 0.000000
vt 1.376465 1.000000
vt 1.376465 0.000000
vt 1.488647 0.000000
vt -1.104248 1.000000
vt -1.168823 0.000000
vt -1.169800 1.000000
vt -1.104248 0.000000
vt -1.040894 1.000000
vt -1.040894 0.000000
vt -0.830933 0.000000
vt -0.659546 0.000000
vt -0.726929 1.000000
vt -0.726929 0.000000
vt -0.659546 1.000000
vt -0.500000 0.000000
vt -0.500000 1.000000
vt -0.477295 1.000000
vt -0.428345 0.000000
vt -0.428345 1.000000
vt -0.451172 1.000000
vt -0.419678 1.000000
vt -0.419311 0.000000
vt -0.406128 0.000000
vt 0.143066 0.000000
vt 0.143066 1.000000
vt 0.125122 1.000000
vt 0.187988 1.000000
vt 0.192261 0.000000
vt 0.231567 0.000000
vt 1.699951 1.000000
vt 1.699951 0.000000
vt 1.599243 1.000000
vt 1.778442 0.000000
vt 1.778442 1.000000
vt 1.878540 1.000000
vt -0.830933 1.000000
vt -0.728760 0.000000
vt -0.728760 1.000000
vt -0.670410 1.000000
vt 1.206421 1.000000
vt 1.203613 0.000000
vt 1.216431 0.000000
vt 1.122314 0.000000
vt 1.122314 1.000000
vt 1.019653 1.000000
vt -0.669922 0.000000
vt -0.607666 0.000000
vt -0.607666 1.000000
vt -0.546509 1.000000
vt -0.546753 0.000000
vt -0.481567 0.000000
vt -0.481567 1.000000
vt -0.420044 1.000000
vt -0.420288 0.000000
vt -0.352295 0.000000
vt -0.352295 1.000000
vt -0.288208 1.000000
vt -0.291504 0.000000
vt -0.225830 0.000000
vt -0.225830 1.000000
vt -0.153320 1.000000
vt 0.153809 1.000000
vt 0.153809 0.000000
vt -0.155273 0.000000
vt 0.207275 0.000000
vt 0.208252 1.000000
vt 0.278076 1.000000
vt 0.278076 0.000000
vt 0.344482 0.000000
vt 0.344116 1.000000
vt 0.403442 1.000000
vt 0.403442 0.000000
vt 0.476318 0.000000
vt 0.475464 1.000000
vt 0.541992 1.000000
vt 0.541992 0.000000
vt 0.635742 0.000000
vt 0.635620 1.000000
vt 0.739502 1.000000
vt 0.739502 0.000000
vt 0.854492 0.000000
vt 0.853760 1.000000
vt 0.942627 1.000000
vt 1.506226 1.000000
vt 1.599243 0.000000
vt 1.053467 0.000000
vt 1.053589 1.000000
vt 1.488647 1.000000
vt 1.878540 0.000000
vt 2.060181 1.000000
vt -0.475830 0.000000
vt -0.452271 0.000000
vt 2.060181 0.000000
vt 2.083862 0.000000
vt -0.406128 1.000000
vt -0.393066 0.000000
vt -0.349976 1.000000
vt -0.297852 0.000000
vt -0.296997 1.000000
vt -0.155884 0.000000
vt -1.476807 1.000000
vt -1.411621 0.000000
vt -1.476563 0.000000
vt -1.409912 1.000000
vt 0.706299 1.000000
vt 0.817871 0.000000
vt 0.810181 1.000000
vt 1.019653 0.000000
vt 0.266357 0.000000
vt 0.236939 1.000000
vt 0.942627 0.000000
vt -0.785889 0.000000
s 1
usemtl k_iwa3
f 3/1/3 2/2/2 1/3/1
f 4/4/4 2/2/2 3/1/3
f 5/5/5 4/4/4 3/1/3
f 6/6/6 4/4/4 5/5/5
f 7/7/7 6/6/6 5/5/5
f 8/8/8 6/6/6 7/7/7
f 9/9/9 8/8/8 7/7/7
f 10/10/10 8/8/8 9/9/9
f 13/11/13 12/12/12 11/13/11
f 14/14/14 12/12/12 13/11/13
f 15/15/15 14/14/14 13/11/13
f 16/16/16 14/14/14 15/15/15
f 17/17/17 16/16/16 15/15/15
f 18/18/18 16/16/16 17/17/17
f 21/19/21 20/20/20 19/21/19
f 22/22/22 20/20/20 21/19/21
f 23/23/23 22/22/22 21/19/21
f 24/24/24 22/22/22 23/23/23
f 25/25/25 24/24/24 23/23/23
f 26/26/26 24/24/24 25/25/25
f 26/26/26 27/27/27 24/24/24
f 28/28/28 27/27/27 26/26/26
f 29/29/29 28/28/28 26/26/26
f 30/30/30 28/28/28 29/29/29
f 31/31/31 30/30/30 29/29/29
f 32/32/32 30/30/30 31/31/31
f 32/32/32 33/33/33 30/30/30
f 34/34/34 33/33/33 32/32/32
f 35/35/35 34/34/34 32/32/32
f 36/36/36 34/34/34 35/35/35
f 37/37/37 36/36/36 35/35/35
f 38/38/38 36/36/36 37/37/37
f 41/39/41 40/40/40 39/41/39
f 42/42/42 40/40/40 41/39/41
f 43/43/43 42/42/42 41/39/41
f 44/44/44 42/42/42 43/43/43
f 45/45/45 44/44/44 43/43/43
f 48/46/48 47/47/47 46/48/46
f 49/49/49 47/47/47 48/46/48
f 50/50/50 49/49/49 48/46/48
f 51/51/51 49/49/49 50/50/50
f 52/52/52 51/51/51 50/50/50
f 55/53/55 54/54/54 53/55/53
f 56/56/56 54/54/54 55/53/55
f 57/57/57 56/56/56 55/53/55
f 58/58/58 56/56/56 57/57/57
f 59/59/59 58/58/58 57/57/57
f 62/60/62 61/61/61 60/62/60
f 63/63/63 61/61/61 62/60/62
f 64/64/64 63/63/63 62/60/62
f 65/65/65 63/63/63 64/64/64
f 68/66/68 67/67/67 66/68/66
f 69/69/69 67/67/67 68/66/68
f 70/70/70 69/69/69 68/66/68
f 71/71/71 69/69/69 70/70/70
f 74/72/74 73/73/73 72/74/72
f 75/75/75 73/73/73 74/72/74
f 76/76/76 75/75/75 74/72/74
f 77/77/77 75/75/75 76/76/76
f 78/78/78 52/52/52 50/50/50
f 79/79/79 52/52/52 78/78/78
f 80/80/80 79/79/79 78/78/78
f 81/81/81 79/79/79 80/80/80
f 84/82/84 83/83/83 82/84/82
f 85/85/85 83/83/83 84/82/84
f 86/86/86 85/85/85 84/82/84
f 87/87/87 85/85/85 86/86/86
f 81/81/81 88/88/88 79/79/79
f 89/89/89 88/88/88 81/81/81
f 90/90/90 89/89/89 81/81/81
f 91/91/91 89/89/89 90/90/90
f 91/91/91 92/92/92 89/89/89
f 93/93/93 92/92/92 91/91/91
f 94/94/94 93/93/93 91/91/91
f 95/95/95 93/93/93 94/94/94
f 95/95/95 96/96/96 93/93/93
f 97/97/97 96/96/96 95/95/95
f 98/98/98 97/97/97 95/95/95
f 99/99/99 97/97/97 98/98/98
f 99/99/99 100/100/100 97/97/97
f 101/101/101 100/100/100 99/99/99
f 102/102/102 101/101/101 99/99/99
f 103/103/103 101/101/101 102/102/102
f 106/104/106 105/105/105 104/106/104
f 107/107/107 105/105/105 106/104/106
f 108/108/108 107/107/107 106/104/106
f 109/109/109 107/107/107 108/108/108
f 109/109/109 110/110/110 107/107/107
f 111/111/111 110/110/110 109/109/109
f 112/112/112 111/111/111 109/109/109
f 113/113/113 111/111/111 112/112/112
f 113/113/113 114/114/114 111/111/111
f 115/115/115 114/114/114 113/113/113
f 116/116/116 115/115/115 113/113/113
f 117/117/117 115/115/115 116/116/116
f 117/117/117 118/118/118 115/115/115
f 119/119/119 118/118/118 117/117/117
f 120/120/120 119/119/119 117/117/117
f 121/121/121 119/119/119 120/120/120
f 121/121/121 122/122/122 119/119/119
f 123/123/123 122/122/122 121/121/121
f 124/124/124 123/123/123 121/121/121
f 125/125/125 123/123/123 124/124/124
f 72/74/72 45/45/45 126/126/126
f 127/127/127 45/45/45 72/74/72
f 73/73/73 127/127/127 72/74/72
f 128/128/128 39/41/39 40/40/40
f 129/129/129 39/41/39 128/128/128
f 125/125/125 129/129/129 128/128/128
f 130/130/130 45/45/45 43/43/43
f 126/126/126 45/45/45 130/130/130
f 77/77/77 131/131/131 75/75/75
f 132/132/132 131/131/131 77/77/77
f 133/133/133 59/59/59 57/57/57
f 134/134/134 59/59/59 133/133/133
f 134/134/134 60/62/60 59/59/59
f 62/60/62 60/62/60 134/134/134
f 132/132/132 135/135/135 131/131/131
f 136/136/136 135/135/135 132/132/132
f 65/65/65 137/137/137 63/63/63
f 138/138/138 137/137/137 65/65/65
f 138/138/138 11/13/11 137/137/137
f 13/11/13 11/13/11 138/138/138
f 18/18/18 139/139/139 16/16/16
f 140/140/140 139/139/139 18/18/18
f 140/140/140 141/141/141 139/139/139
f 142/142/142 141/141/141 140/140/140
f 142/142/142 1/3/1 141/141/141
f 3/1/3 1/3/1 142/142/142
f 144/143/144 143/144/143 53/145/53
f 145/146/143 143/144/143 144/143/144
f 38/38/38 146/147/145 36/36/36
f 147/148/146 146/147/145 38/38/38
f 103/103/103 104/106/104 101/101/101
f 106/104/106 104/106/104 103/103/103
f 147/148/146 148/149/147 146/147/145
f 149/150/148 148/149/147 147/148/146
f 151/151/150 19/21/19 150/152/149
f 21/19/21 19/21/19 151/151/150
f 10/10/10 66/68/66 8/8/8
f 68/66/68 66/68/66 10/10/10
f 87/87/87 149/150/148 85/85/85
f 148/149/147 149/150/148 87/87/87
f 71/71/71 150/152/149 69/69/69
f 151/151/150 150/152/149 71/71/71
f 125/125/125 152/153/151 123/123/123
f 128/128/128 152/153/151 125/125/125
f 153/154/152 52/52/52 79/79/79
