# Blender 4.1.1
# www.blender.org
mtllib ID248.mtl
o n17b2
v -66.000000 10.450004 51.333298
v 25.666698 10.450004 51.333298
v -249.333008 10.449997 -40.333298
v -157.666992 10.449997 -40.333298
v -66.000000 10.449997 -40.333298
v 25.666698 10.449997 -40.333298
v -249.333008 10.449990 -132.000000
v -157.666992 10.449990 -132.000000
v 25.666698 10.449990 -132.000000
v 117.332993 10.449990 -132.000000
v -249.333008 10.449983 -223.667007
v -157.666992 10.449983 -223.667007
v -157.666992 10.449976 -315.333008
v -249.333008 10.449980 -265.845001
v -275.716003 10.449983 -223.667007
v -291.324982 10.449990 -132.000000
v -300.848999 10.449997 -40.333298
v -137.020004 10.449977 -307.717010
v -127.347992 10.449983 -223.667007
v -127.777000 10.449990 -132.000000
v -66.000000 10.449993 -83.920692
v 25.666698 10.449993 -83.532402
v 25.666698 10.449987 -159.772995
v 117.332993 10.449987 -159.979004
v 158.199997 10.449990 -132.000000
v 162.936005 10.449997 -40.333298
v -116.436996 10.449997 -40.333298
v -116.454002 10.450004 51.333298
v -116.516998 10.450007 104.477997
v -66.000000 10.450007 104.049004
v 25.666698 10.450007 102.415001
v 60.281197 10.450007 102.641998
v 59.475899 10.450004 51.333298
v 61.062000 10.449997 -40.333298
v 117.332993 10.449992 -98.381004
vn -0.0000 1.0000 -0.0000
vt 13.333300 10.000000
vt 16.666700 10.000000
vt 13.333300 11.009900
vt 16.666700 8.777490
vt 13.333300 8.237540
vt 14.620399 6.666670
vt 13.333300 6.666670
vt 14.562799 3.333330
vt 13.333300 3.333330
vt 13.333300 1.475810
vt 10.000000 3.333330
vt 10.000000 1.416380
vt 8.165299 3.333330
vt 8.163020 1.400820
vt 7.753560 10.000000
vt 8.165920 6.666670
vt 10.000000 8.251659
vt 6.666670 6.666670
vt 6.666670 10.000000
vt 3.333330 10.000000
vt 3.333330 13.333300
vt 2.373980 13.333300
vt 3.333330 14.867100
vt 10.000000 6.666670
vt 18.152700 10.000000
vt 18.419399 6.666670
vt 16.666700 11.017400
vt 1.806380 10.000000
vt 3.333330 6.666670
vt 1.460030 6.666670
vt 6.666670 13.333300
vt 7.769180 13.333300
vt 7.417450 16.389700
vt 6.666670 16.666700
vt 14.592001 1.467570
s 0
usemtl m17
f 9/1/1 10/2/1 23/3/1
f 10/2/1 9/1/1 35/4/1
f 22/5/1 35/4/1 9/1/1
f 35/4/1 22/5/1 34/6/1
f 6/7/1 34/6/1 22/5/1
f 34/6/1 6/7/1 33/8/1
f 2/9/1 33/8/1 6/7/1
f 33/8/1 2/9/1 31/10/1
f 1/11/1 31/10/1 2/9/1
f 31/10/1 1/11/1 30/12/1
f 28/13/1 30/12/1 1/11/1
f 30/12/1 28/13/1 29/14/1
f 20/15/1 27/16/1 21/17/1
f 27/16/1 20/15/1 4/18/1
f 8/19/1 4/18/1 20/15/1
f 4/18/1 8/19/1 7/20/1
f 11/21/1 7/20/1 8/19/1
f 7/20/1 11/21/1 15/22/1
f 14/23/1 15/22/1 11/21/1
f 21/17/1 6/7/1 22/5/1
f 6/7/1 21/17/1 5/24/1
f 27/16/1 5/24/1 21/17/1
f 5/24/1 27/16/1 1/11/1
f 28/13/1 1/11/1 27/16/1
f 25/25/1 35/4/1 26/26/1
f 35/4/1 25/25/1 10/2/1
f 24/27/1 10/2/1 25/25/1
f 10/2/1 24/27/1 23/3/1
f 16/28/1 7/20/1 15/22/1
f 7/20/1 16/28/1 3/29/1
f 17/30/1 3/29/1 16/28/1
f 12/31/1 20/15/1 19/32/1
f 20/15/1 12/31/1 8/19/1
f 11/21/1 8/19/1 12/31/1
f 18/33/1 12/31/1 19/32/1
f 12/31/1 18/33/1 13/34/1
f 12/31/1 14/23/1 11/21/1
f 14/23/1 12/31/1 13/34/1
f 3/29/1 4/18/1 7/20/1
f 32/35/1 33/8/1 31/10/1
