# Blender 4.1.1
# www.blender.org
mtllib wheels.mtl
o F2_Item_Kart_Yoshi_S.002
v -2.650743 0.766488 -5.403169
v -4.532899 0.766488 -5.403169
v -2.650753 0.197285 -4.833960
v -4.532899 0.197285 -4.833960
v -2.650743 1.544034 -5.611507
v -4.532899 1.544034 -5.611507
v -2.650743 2.321582 -5.403169
v -4.532899 2.321582 -5.403169
v -2.650743 2.890790 -4.833969
v -4.532899 2.890790 -4.833969
v -2.650743 3.099129 -4.056413
v -4.532899 3.099138 -4.056413
v -2.650743 2.890791 -3.278865
v -4.532899 2.890791 -3.278865
v -2.650743 3.099129 -4.056413
v -4.532899 3.099138 -4.056413
v -2.650743 2.321582 -2.709665
v -4.532899 2.321582 -2.709665
v -2.650743 1.544034 -2.501317
v -4.532899 1.544034 -2.501317
v -2.650743 0.766490 -2.709665
v -4.532899 0.766490 -2.709665
v -2.650753 0.197286 -3.278865
v -4.532899 0.197286 -3.278865
v -2.773093 -0.011058 -4.056413
v -4.532908 -0.011058 -4.056413
v -4.532899 0.197285 -4.833960
v -4.532899 0.766488 -5.403169
v -4.756563 1.544034 -4.056413
v -4.532899 1.544034 -5.611507
v -4.532899 2.321582 -5.403169
v -4.532899 2.890790 -4.833969
v -4.532899 2.890791 -3.278865
v -4.532899 2.321582 -2.709665
v -4.532899 0.766490 -2.709665
v -4.532899 0.197286 -3.278865
v -4.532908 -0.011058 -4.056413
v -4.532899 3.099138 -4.056413
v -4.532899 1.544034 -2.501317
v -2.463296 1.537588 -4.051663
v -2.650743 2.890790 -4.833969
v -2.650743 3.099129 -4.056413
v -2.650743 2.321582 -5.403169
v -2.650743 1.544034 -5.611507
v -2.650743 2.890791 -3.278865
v -2.650743 2.321582 -2.709665
v -2.650743 1.544034 -2.501317
v -2.650743 0.766490 -2.709665
v -2.650753 0.197286 -3.278865
v -2.773093 -0.011058 -4.056413
v -2.650753 0.197285 -4.833960
v -2.650743 0.766488 -5.403169
v -2.855976 0.981281 4.863820
v -2.855976 0.257461 4.140014
v -5.276296 0.981281 4.863820
v -5.276296 0.257461 4.140014
v -2.855976 1.970031 5.128772
v -5.276296 1.970031 5.128772
v -2.855976 2.958791 4.863829
v -5.276296 2.958791 4.863829
v -2.855976 3.682605 4.140013
v -5.276296 3.682605 4.140013
v -2.855976 3.947539 3.151255
v -5.276296 3.947539 3.151264
v -2.855976 3.682605 2.162505
v -2.855976 3.947539 3.151255
v -5.276296 3.682605 2.162505
v -5.276296 3.947539 3.151264
v -2.855976 2.958789 1.438689
v -5.276296 2.958789 1.438689
v -2.925212 1.970030 1.173755
v -5.276296 1.970030 1.173755
v -2.855976 0.981281 1.438689
v -5.276296 0.981281 1.438689
v -2.855976 0.257460 2.162505
v -5.276296 0.257460 2.162505
v -2.855976 -0.007476 3.151255
v -5.276304 -0.007476 3.151255
v -5.276296 0.257461 4.140014
v -5.548070 1.970030 3.151255
v -5.276296 0.981281 4.863820
v -5.276296 1.970031 5.128772
v -5.276296 2.958791 4.863829
v -5.276296 3.682605 4.140013
v -5.276296 3.682605 2.162505
v -5.276296 2.958789 1.438689
v -5.276296 0.981281 1.438689
v -5.276296 0.257460 2.162505
v -5.276304 -0.007476 3.151255
v -5.276296 3.947539 3.151264
v -5.276296 1.970030 1.173755
v -2.639818 1.961834 3.145212
v -2.855976 3.947539 3.151255
v -2.855976 3.682605 4.140013
v -2.855976 2.958791 4.863829
v -2.855976 1.970031 5.128772
v -2.855976 3.682605 2.162505
v -2.855976 2.958789 1.438689
v -2.925212 1.970030 1.173755
v -2.855976 0.981281 1.438689
v -2.855976 0.257460 2.162505
v -2.855976 -0.007476 3.151255
v -2.855976 0.257461 4.140014
v -2.855976 0.981281 4.863820
v 2.855976 0.981281 4.863820
v 5.276296 0.981281 4.863820
v 2.855976 0.257461 4.140014
v 5.276296 0.257461 4.140014
v 2.855976 1.970031 5.128763
v 5.276296 1.970031 5.128772
v 2.855976 2.958791 4.863829
v 5.276296 2.958791 4.863829
v 2.855976 3.682605 4.140013
v 5.276296 3.682605 4.140013
v 2.855976 3.947539 3.151255
v 5.276296 3.947539 3.151264
v 2.855976 3.682605 2.162505
v 5.276296 3.682605 2.162505
v 2.855976 3.947539 3.151255
v 5.276296 3.947539 3.151264
v 2.855976 2.958789 1.438689
v 5.276296 2.958789 1.438689
v 2.855976 1.970030 1.173755
v 5.276296 1.970030 1.173755
v 2.855976 0.981281 1.438689
v 5.276296 0.981281 1.438689
v 2.855976 0.257460 2.162505
v 5.276296 0.257460 2.162505
v 2.855976 -0.007476 3.151255
v 5.276304 -0.007476 3.151255
v 5.276296 0.257461 4.140014
v 5.276296 0.981281 4.863820
v 5.548070 1.970030 3.151255
v 5.276296 1.970031 5.128772
v 5.276296 2.958791 4.863829
v 5.276296 3.682605 4.140013
v 5.276296 3.682605 2.162505
v 5.276296 2.958789 1.438689
v 5.276296 0.981281 1.438689
v 5.276296 0.257460 2.162505
v 5.276304 -0.007476 3.151255
v 5.276296 3.947539 3.151264
v 5.276296 1.970030 1.173755
v 2.572538 1.961834 3.145212
v 2.855976 3.682605 4.140013
v 2.855976 3.947539 3.151255
v 2.855976 2.958791 4.863829
v 2.855976 1.970031 5.128763
v 2.855976 3.682605 2.162505
v 2.855976 2.958789 1.438689
v 2.855976 1.970030 1.173755
v 2.855976 0.981281 1.438689
v 2.855976 0.257460 2.162505
v 2.855976 -0.007476 3.151255
v 2.855976 0.257461 4.140014
v 2.855976 0.981281 4.863820
v 2.650743 0.766488 -5.403169
v 2.650753 0.197285 -4.833960
v 4.532899 0.766488 -5.403169
v 4.532899 0.197285 -4.833960
v 2.650743 1.544034 -5.611507
v 4.532899 1.544034 -5.611507
v 2.650743 2.321582 -5.403169
v 4.532899 2.321582 -5.403169
v 2.650743 2.890790 -4.833969
v 4.532899 2.890790 -4.833969
v 2.650743 3.099129 -4.056413
v 4.532899 3.099138 -4.056413
v 2.650743 2.890791 -3.278874
v 2.650743 3.099129 -4.056413
v 4.532899 2.890791 -3.278874
v 4.532899 3.099138 -4.056413
v 2.650743 2.321582 -2.709665
v 4.532899 2.321582 -2.709665
v 2.650743 1.544034 -2.501317
v 4.532899 1.544034 -2.501317
v 2.650743 0.766490 -2.709665
v 4.532899 0.766490 -2.709665
v 2.650753 0.197286 -3.278865
v 4.532899 0.197286 -3.278865
v 2.650753 -0.011058 -4.056413
v 4.532908 -0.011058 -4.056413
v 4.532899 0.197285 -4.833960
v 4.756563 1.544034 -4.056413
v 4.532899 0.766488 -5.403169
v 4.532899 1.544034 -5.611507
v 4.532899 2.321582 -5.403169
v 4.532899 2.890790 -4.833969
v 4.532899 2.890791 -3.278874
v 4.532899 2.321582 -2.709665
v 4.532899 0.766490 -2.709665
v 4.532899 0.197286 -3.278865
v 4.532908 -0.011058 -4.056413
v 4.532899 3.099138 -4.056413
v 4.532899 1.544034 -2.501317
v 2.463296 1.537588 -4.051663
v 2.650743 3.099129 -4.056413
v 2.650743 2.890790 -4.833969
v 2.650743 2.321582 -5.403169
v 2.650743 1.544034 -5.611507
v 2.650743 2.890791 -3.278874
v 2.650743 2.321582 -2.709665
v 2.650743 1.544034 -2.501317
v 2.650743 0.766490 -2.709665
v 2.650753 0.197286 -3.278865
v 2.650753 -0.011058 -4.056413
v 2.650753 0.197285 -4.833960
v 2.650743 0.766488 -5.403169
vn -0.0000 -0.5000 -0.8660
vn -0.0000 -0.8660 -0.5000
vn -0.6659 -0.3730 -0.6461
vn -0.6660 -0.0000 -0.7460
vn -0.0000 -0.0000 -1.0000
vn -0.6659 0.3730 -0.6461
vn -0.0000 0.5000 -0.8660
vn -0.6659 0.6461 -0.3730
vn -0.0000 0.8660 -0.5000
vn -0.6660 0.7460 -0.0001
vn -0.0000 1.0000 -0.0000
vn -0.6659 -0.6461 -0.3730
vn -0.0000 -1.0000 -0.0000
vn -0.6660 -0.7460 -0.0000
vn -0.0000 -0.8660 0.5000
vn -0.6659 -0.6461 0.3730
vn -0.0000 -0.5000 0.8660
vn -0.6659 -0.3730 0.6461
vn -0.0000 -0.0000 1.0000
vn -0.6660 -0.0000 0.7460
vn -0.0000 0.5000 0.8660
vn -0.6659 0.3730 0.6461
vn -0.0000 0.8660 0.5000
vn -0.6659 0.6461 0.3730
vn -0.0000 1.0000 0.0001
vn -1.0000 -0.0000 -0.0000
vn -0.6659 -0.3731 -0.6461
vn -0.6658 -0.7461 -0.0000
vn -0.6658 -0.6461 0.3731
vn -0.6658 -0.0000 0.7461
vn -0.6659 0.3731 0.6461
vn -0.6658 0.7461 -0.0000
vn -0.6658 0.6461 -0.3731
vn -0.6658 -0.0000 -0.7461
vn -0.9999 0.0129 -0.0002
vn -0.9929 -0.1192 -0.0000
vn -0.9929 -0.1031 0.0595
vn -0.9929 -0.0596 0.1031
vn -0.9929 -0.0001 0.1193
vn -0.9928 0.0597 0.1036
vn -0.9897 0.1426 -0.0072
vn -0.9806 0.1962 -0.0001
vn -0.9898 0.1423 0.0067
vn -0.9927 0.0601 -0.1041
vn -0.9928 -0.0001 -0.1200
vn -0.9928 -0.0599 -0.1037
vn -0.9928 -0.1035 -0.0596
vn -0.6659 0.7460 -0.0000
vn -0.0000 1.0000 -0.0002
vn -0.6660 0.7460 -0.0000
vn -0.6658 -0.6462 0.3731
vn -0.6658 -0.3730 0.6462
vn -0.6658 -0.7462 -0.0000
vn -0.6658 -0.6462 -0.3730
vn -0.6658 -0.3731 -0.6462
vn -0.6658 -0.0000 -0.7462
vn -0.6658 0.3730 -0.6462
vn -0.6658 0.6462 -0.3731
vn -0.6658 0.7462 -0.0000
vn -0.6658 0.6462 0.3730
vn -0.6658 0.3731 0.6462
vn -0.6658 -0.0000 0.7462
vn -0.9928 -0.1034 -0.0597
vn -0.9941 -0.1082 -0.0000
vn -0.9941 -0.0541 -0.0937
vn -0.9941 -0.0001 -0.1083
vn -0.9941 0.0542 -0.0941
vn -0.9941 0.0943 -0.0545
vn -0.9940 0.1091 -0.0000
vn -0.9940 0.0946 0.0546
vn -0.9934 0.0243 0.1119
vn -0.9897 0.0001 0.1433
vn -0.9935 -0.0244 0.1116
vn 0.6684 -0.3719 0.6442
vn 0.6684 -0.0000 0.7438
vn 0.6684 0.3719 0.6442
vn 0.6683 0.6442 0.3720
vn 0.6683 0.7439 0.0001
vn 0.6684 -0.6442 0.3719
vn 0.6684 -0.7438 -0.0000
vn 0.6684 -0.6442 -0.3719
vn 0.6684 -0.3719 -0.6442
vn 0.6684 -0.0000 -0.7438
vn 0.6683 0.3720 -0.6442
vn 0.6684 0.6442 -0.3719
vn 0.6683 0.7439 -0.0001
vn 0.6682 -0.6443 0.3719
vn 1.0000 -0.0000 -0.0000
vn 0.6683 -0.3720 0.6442
vn 0.6683 -0.7439 -0.0000
vn 0.6683 -0.6442 -0.3720
vn 0.6682 -0.3719 -0.6443
vn 0.6683 -0.0000 -0.7439
vn 0.6682 0.6443 -0.3719
vn 0.6683 0.7439 -0.0000
vn 0.6682 0.3719 0.6443
vn 0.6683 -0.0000 0.7439
vn 0.9900 -0.1413 -0.0001
vn 0.9900 -0.1223 -0.0706
vn 0.9900 -0.0706 -0.1223
vn 0.9899 -0.0001 -0.1415
vn 0.9899 0.0708 -0.1229
vn 0.9898 0.1231 -0.0712
vn 0.9898 0.1425 -0.0001
vn 0.9898 0.1235 0.0713
vn 0.9898 0.0712 0.1235
vn 0.9898 -0.0001 0.1423
vn 0.9899 -0.0711 0.1229
vn 0.9899 -0.1227 0.0707
vn 0.6684 0.3719 -0.6442
vn 0.6684 0.6442 0.3719
vn -0.0000 1.0000 0.0002
vn 0.6683 -0.3719 -0.6443
vn 0.6683 -0.6442 0.3719
vn 0.6683 0.3719 0.6443
vn 0.6683 0.6442 -0.3719
vn 0.9929 -0.1031 0.0595
vn 0.9929 -0.1192 -0.0000
vn 0.9929 -0.0596 0.1031
vn 0.9929 -0.0001 0.1193
vn 0.9928 0.0597 0.1036
vn 0.9928 0.1038 0.0600
vn 0.9928 0.1202 -0.0000
vn 0.9927 0.1042 -0.0601
vn 0.9927 0.0601 -0.1041
vn 0.9928 -0.0001 -0.1200
vn 0.9928 -0.0599 -0.1037
vn 0.9928 -0.1035 -0.0596
vt 1.319540 -1.011870
vt 1.819940 -1.011870
vt 1.319490 -0.532995
vt 0.816721 -0.532995
vt 0.816766 -1.011870
vt 0.314113 -0.532995
vt 0.314158 -1.011870
vt -0.188416 -0.532995
vt -0.188372 -1.011870
vt -0.690830 -0.532995
vt -0.690786 -1.011870
vt 1.819900 -0.532995
vt 2.318390 -1.011870
vt 2.318340 -0.532995
vt 2.815520 -1.011870
vt 2.815480 -0.532995
vt 3.311550 -1.011870
vt 3.311500 -0.532995
vt 3.806820 -1.011870
vt 3.806780 -0.532995
vt 4.301540 -1.011870
vt 4.301500 -0.532995
vt 4.795580 -1.011870
vt 4.795530 -0.532995
vt 5.299250 -1.011870
vt 5.299210 -0.532995
vt 0.721872 0.560165
vt 0.493151 0.760519
vt 0.889309 0.644845
vt 0.493150 0.529170
vt 0.264427 0.560165
vt 0.096992 0.644845
vt 0.035705 0.760519
vt 0.096992 0.876194
vt 0.264428 0.960874
vt 0.493151 0.991869
vt 0.721873 0.960874
vt 0.889309 0.876194
vt 0.950596 0.760519
vt 0.497661 1.000270
vt 0.730909 0.968065
vt 0.901658 0.880077
vt 0.964157 0.759882
vt 0.901658 0.639688
vt 0.730908 0.551700
vt 0.497660 0.519494
vt 0.264412 0.551700
vt 0.093664 0.639688
vt 0.031164 0.759882
vt 0.093664 0.880077
vt 0.264412 0.968065
vt 3.301940 -1.011870
vt 3.301990 -0.532995
vt 2.801540 -1.011870
vt 3.804760 -0.532995
vt 3.804710 -1.011870
vt 4.307370 -0.532995
vt 4.307320 -1.011870
vt 4.809890 -0.532995
vt 4.809850 -1.011870
vt 5.312310 -0.532995
vt 5.312260 -1.011870
vt 2.801580 -0.532995
vt 2.303090 -1.011870
vt 2.303130 -0.532995
vt 1.805960 -1.011870
vt 1.806000 -0.532995
vt 1.309930 -1.011870
vt 1.309980 -0.532995
vt 0.814656 -1.011870
vt 0.814694 -0.532995
vt 0.319939 -1.011870
vt 0.319979 -0.532995
vt -0.174101 -1.011870
vt -0.174055 -0.532995
vt -0.677772 -1.011870
vt -0.677731 -0.532995
vt 0.493448 0.760477
vt 0.715551 0.954357
vt 0.497661 0.984443
vt 0.875057 0.872163
vt 0.933441 0.759882
vt 0.875057 0.647602
vt 0.715550 0.565407
vt 0.497660 0.535322
vt 0.279770 0.565407
vt 0.120264 0.647602
vt 0.061880 0.759882
vt 0.120264 0.872163
vt 0.279770 0.954357
s 1
usemtl mt_Kart_Yoshi_Tire_S.002
f 1/1/1 3/2/2 2/3/3
f 6/4/4 1/1/1 2/3/3
f 5/5/5 1/1/1 6/4/4
f 8/6/6 5/5/5 6/4/4
f 7/7/7 5/5/5 8/6/6
f 10/8/8 7/7/7 8/6/6
f 9/9/9 7/7/7 10/8/8
f 12/10/10 9/9/9 10/8/8
f 11/11/11 9/9/9 12/10/10
f 2/3/3 3/2/2 4/12/12
f 3/2/2 25/13/13 4/12/12
f 4/12/12 25/13/13 26/14/14
f 25/13/13 23/15/15 26/14/14
f 26/14/14 23/15/15 24/16/16
f 23/15/15 21/17/17 24/16/16
f 24/16/16 21/17/17 22/18/18
f 21/17/17 19/19/19 22/18/18
f 22/18/18 19/19/19 20/20/20
f 19/19/19 17/21/21 20/20/20
f 20/20/20 17/21/21 18/22/22
f 17/21/21 13/23/23 18/22/22
f 18/22/22 13/23/23 14/24/24
f 13/23/23 15/25/25 14/24/24
f 14/24/24 15/25/25 16/26/10
f 27/27/12 29/28/26 28/29/27
f 29/28/26 27/27/12 37/30/28
f 37/30/28 36/31/29 29/28/26
f 35/32/18 29/28/26 36/31/29
f 39/33/30 29/28/26 35/32/18
f 34/34/31 29/28/26 39/33/30
f 33/35/24 29/28/26 34/34/31
f 38/36/32 29/28/26 33/35/24
f 32/37/33 29/28/26 38/36/32
f 31/38/6 29/28/26 32/37/33
f 31/38/6 30/39/34 29/28/26
f 30/39/34 28/29/27 29/28/26
f 40/28/35 42/40/36 41/41/37
f 43/42/38 40/28/35 41/41/37
f 43/42/38 44/43/39 40/28/35
f 40/28/35 44/43/39 52/44/40
f 51/45/41 40/28/35 52/44/40
f 51/45/41 50/46/42 40/28/35
f 40/28/35 50/46/42 49/47/43
f 40/28/35 49/47/43 48/48/44
f 48/48/44 47/49/45 40/28/35
f 40/28/35 47/49/45 46/50/46
f 46/50/46 45/51/47 40/28/35
f 45/51/47 42/40/36 40/28/35
f 53/52/17 55/53/18 54/54/15
f 53/52/17 58/55/20 55/53/18
f 57/56/19 58/55/20 53/52/17
f 57/56/19 60/57/22 58/55/20
f 59/58/21 60/57/22 57/56/19
f 59/58/21 62/59/24 60/57/22
f 61/60/23 62/59/24 59/58/21
f 61/60/23 64/61/48 62/59/24
f 63/62/25 64/61/48 61/60/23
f 54/54/15 55/53/18 56/63/16
f 54/54/15 56/63/16 77/64/13
f 77/64/13 56/63/16 78/65/14
f 77/64/13 78/65/14 75/66/2
f 75/66/2 78/65/14 76/67/12
f 75/66/2 76/67/12 73/68/1
f 73/68/1 76/67/12 74/69/3
f 73/68/1 74/69/3 71/70/5
f 71/70/5 74/69/3 72/71/4
f 71/70/5 72/71/4 69/72/7
f 69/72/7 72/71/4 70/73/6
f 69/72/7 70/73/6 65/74/9
f 65/74/9 70/73/6 67/75/8
f 65/74/9 67/75/8 66/76/49
f 66/76/49 67/75/8 68/77/50
f 79/27/51 81/29/52 80/28/26
f 80/28/26 89/30/53 79/27/51
f 89/30/53 80/28/26 88/31/54
f 87/32/55 88/31/54 80/28/26
f 91/33/56 87/32/55 80/28/26
f 86/34/57 91/33/56 80/28/26
f 85/35/58 86/34/57 80/28/26
f 90/36/59 85/35/58 80/28/26
f 84/37/60 90/36/59 80/28/26
f 83/38/61 84/37/60 80/28/26
f 83/38/61 80/28/26 82/39/62
f 82/39/62 80/28/26 81/29/52
f 92/78/26 94/79/63 93/80/64
f 95/81/65 94/79/63 92/78/26
f 95/81/65 92/78/26 96/82/66
f 92/78/26 104/83/67 96/82/66
f 103/84/68 104/83/67 92/78/26
f 103/84/68 92/78/26 102/85/69
f 92/78/26 101/86/70 102/85/69
f 92/78/26 100/87/71 101/86/70
f 100/87/71 92/78/26 99/88/72
f 92/78/26 98/89/73 99/88/72
f 98/89/73 92/78/26 97/90/37
f 97/90/37 92/78/26 93/80/64
f 105/52/17 107/54/15 106/53/74
f 110/55/75 105/52/17 106/53/74
f 109/56/19 105/52/17 110/55/75
f 112/57/76 109/56/19 110/55/75
f 111/58/21 109/56/19 112/57/76
f 114/59/77 111/58/21 112/57/76
f 113/60/23 111/58/21 114/59/77
f 116/61/78 113/60/23 114/59/77
f 115/62/25 113/60/23 116/61/78
f 106/53/74 107/54/15 108/63/79
f 107/54/15 129/64/13 108/63/79
f 108/63/79 129/64/13 130/65/80
f 129/64/13 127/66/2 130/65/80
f 130/65/80 127/66/2 128/67/81
f 127/66/2 125/68/1 128/67/81
f 128/67/81 125/68/1 126/69/82
f 125/68/1 123/70/5 126/69/82
f 126/69/82 123/70/5 124/71/83
f 123/70/5 121/72/7 124/71/83
f 124/71/83 121/72/7 122/73/84
f 121/72/7 117/74/9 122/73/84
f 122/73/84 117/74/9 118/75/85
f 117/74/9 119/76/49 118/75/85
f 118/75/85 119/76/49 120/77/86
f 131/27/87 133/28/88 132/29/89
f 133/28/88 131/27/87 141/30/90
f 141/30/90 140/31/91 133/28/88
f 139/32/92 133/28/88 140/31/91
f 143/33/93 133/28/88 139/32/92
f 138/34/84 133/28/88 143/33/93
f 137/35/94 133/28/88 138/34/84
f 142/36/95 133/28/88 137/35/94
f 136/37/77 133/28/88 142/36/95
f 135/38/96 133/28/88 136/37/77
f 135/38/96 134/39/97 133/28/88
f 134/39/97 132/29/89 133/28/88
f 144/78/88 146/80/98 145/79/99
f 147/81/100 144/78/88 145/79/99
f 147/81/100 148/82/101 144/78/88
f 144/78/88 148/82/101 156/83/102
f 155/84/103 144/78/88 156/83/102
f 155/84/103 154/85/104 144/78/88
f 144/78/88 154/85/104 153/86/105
f 144/78/88 153/86/105 152/87/106
f 152/87/106 151/88/107 144/78/88
f 144/78/88 151/88/107 150/89/108
f 150/89/108 149/90/109 144/78/88
f 149/90/109 146/80/98 144/78/88
f 157/1/1 159/3/82 158/2/2
f 157/1/1 162/4/83 159/3/82
f 161/5/5 162/4/83 157/1/1
f 161/5/5 164/6/110 162/4/83
f 163/7/7 164/6/110 161/5/5
f 163/7/7 166/8/85 164/6/110
f 165/9/9 166/8/85 163/7/7
f 165/9/9 168/10/86 166/8/85
f 167/11/11 168/10/86 165/9/9
f 158/2/2 159/3/82 160/12/81
f 158/2/2 160/12/81 181/13/13
f 181/13/13 160/12/81 182/14/80
f 181/13/13 182/14/80 179/15/15
f 179/15/15 182/14/80 180/16/79
f 179/15/15 180/16/79 177/17/17
f 177/17/17 180/16/79 178/18/74
f 177/17/17 178/18/74 175/19/19
f 175/19/19 178/18/74 176/20/75
f 175/19/19 176/20/75 173/21/21
f 173/21/21 176/20/75 174/22/76
f 173/21/21 174/22/76 169/23/23
f 169/23/23 174/22/76 171/24/111
f 169/23/23 171/24/111 170/25/112
f 170/25/112 171/24/111 172/26/78
f 183/27/91 185/29/113 184/28/88
f 184/28/88 193/30/90 183/27/91
f 193/30/90 184/28/88 192/31/114
f 191/32/89 192/31/114 184/28/88
f 195/33/97 191/32/89 184/28/88
f 190/34/115 195/33/97 184/28/88
f 189/35/77 190/34/115 184/28/88
f 194/36/95 189/35/77 184/28/88
f 188/37/116 194/36/95 184/28/88
f 187/38/84 188/37/116 184/28/88
f 187/38/84 184/28/88 186/39/93
f 186/39/93 184/28/88 185/29/113
f 196/28/88 198/41/117 197/40/118
f 199/42/119 198/41/117 196/28/88
f 199/42/119 196/28/88 200/43/120
f 196/28/88 208/44/121 200/43/120
f 207/45/122 208/44/121 196/28/88
f 207/45/122 196/28/88 206/46/123
f 196/28/88 205/47/124 206/46/123
f 196/28/88 204/48/125 205/47/124
f 204/48/125 196/28/88 203/49/126
f 196/28/88 202/50/127 203/49/126
f 202/50/127 196/28/88 201/51/128
f 201/51/128 196/28/88 197/40/118
