# Blender 4.1.1
# www.blender.org
mtllib Plane.004.mtl
o Start_posts.002
v 2253.220215 3867.446045 4450.071289
v 2253.220215 3867.446045 4331.238770
v 2253.220215 3867.446045 4456.926758
v 2253.220215 3867.446045 4323.935059
v 2253.220215 3935.887695 4450.071289
v 2253.220215 3935.887695 4331.238770
v 2253.220215 3935.887695 4456.926758
v 2253.220215 3935.887695 4323.935059
vn 1.0000 -0.0000 -0.0000
vt -0.000227 0.000255
vt 0.051304 0.000193
vt 0.944546 -0.000875
vt 0.999448 -0.000940
s 0
usemtl Material.005
f 1/1/1 7/2/1 3/2/1
f 4/3/1 6/4/1 2/4/1
f 1/1/1 5/1/1 7/2/1
f 4/3/1 8/3/1 6/4/1
l 3 4
