# Blender 4.1.1
# www.blender.org
mtllib Plane.004.mtl
o Road.002
v 2230.420166 3866.679932 4456.926758
v 2241.819336 3867.062988 4456.923828
v 2230.420166 3866.679932 4323.935059
v 2241.819336 3867.062988 4323.932617
v 2241.819336 3867.062988 4456.923828
v 2253.220215 3867.446045 4456.926758
v 2241.819336 3867.062988 4323.932617
v 2253.220215 3867.446045 4323.935059
v 2241.819336 3867.062988 4450.068359
v 2253.220215 3867.446045 4450.071289
v 2253.220215 3867.446045 4331.238770
v 2241.819336 3867.062988 4331.236328
v 2253.220215 3935.887695 4456.926758
v 2253.220215 3935.887695 4323.935059
v 2253.220215 3935.887695 4450.071289
v 2253.220215 3935.887695 4331.238770
v 2253.220215 3956.319580 4456.926758
v 2253.220215 3956.319580 4323.935059
v 2253.220215 3956.319580 4450.071289
v 2253.220215 3956.319580 4331.238770
vn -0.0336 0.9994 -0.0000
vn -1.0000 -0.0000 -0.0000
vn -0.0335 0.9994 -0.0000
vt -0.000227 0.000255
vt 1.000331 1.001564
vt -0.000482 0.999898
vt 0.945367 1.001473
vt 0.999448 -0.000940
vt 0.051304 0.000193
vt 0.051108 0.999984
vt 0.944546 -0.000875
s 0
usemtl Material.005
f 2/1/1 3/2/1 1/3/1
f 12/4/1 8/5/1 7/2/1
f 5/3/1 10/6/1 9/7/1
f 9/7/1 11/8/1 12/4/1
f 6/1/2 15/6/2 10/6/2
f 11/8/2 14/5/2 8/5/2
f 13/1/2 19/6/2 15/6/2
f 16/8/2 18/5/2 14/5/2
f 20/8/2 15/6/2 19/6/2
f 2/1/3 4/5/3 3/2/3
f 12/4/1 11/8/1 8/5/1
f 5/3/1 6/1/1 10/6/1
f 9/7/1 10/6/1 11/8/1
f 6/1/2 13/1/2 15/6/2
f 11/8/2 16/8/2 14/5/2
f 13/1/2 17/1/2 19/6/2
f 16/8/2 20/8/2 18/5/2
f 20/8/2 16/8/2 15/6/2
