# Blender 4.1.1
# www.blender.org
mtllib Circle.037.mtl
o Pipe.158
v 2179.469482 518.812439 377.643036
v 2176.857666 518.812439 377.900269
v 2174.345947 518.812439 378.662109
v 2172.031494 518.812439 379.899292
v 2170.002686 518.812439 381.564270
v 2168.337891 518.812439 383.593018
v 2167.100586 518.812439 385.907654
v 2166.338867 518.812439 388.419128
v 2166.081543 518.812439 391.030975
v 2166.338867 518.812439 393.642822
v 2167.100586 518.812439 396.154327
v 2168.337891 518.812439 398.468933
v 2170.002686 518.812439 400.497711
v 2172.031494 518.812439 402.162689
v 2174.345947 518.812439 403.399841
v 2176.857666 518.812439 404.161682
v 2179.469482 518.812439 404.418915
v 2182.081299 518.812439 404.161682
v 2184.592773 518.812439 403.399841
v 2186.907471 518.812439 402.162689
v 2188.936279 518.812439 400.497711
v 2190.601074 518.812439 398.468933
v 2191.838135 518.812439 396.154327
v 2192.600098 518.812439 393.642822
v 2192.857422 518.812439 391.030975
v 2192.600098 518.812439 388.419128
v 2191.838135 518.812439 385.907654
v 2190.601074 518.812439 383.593018
v 2188.936279 518.812439 381.564270
v 2186.907471 518.812439 379.899292
v 2184.592773 518.812439 378.662109
v 2182.081299 518.812439 377.900269
v 2176.857666 518.812439 377.900269
v 2179.469482 518.812439 377.643036
v 2174.345947 518.812439 378.662109
v 2172.031494 518.812439 379.899292
v 2170.002686 518.812439 381.564270
v 2168.337891 518.812439 383.593018
v 2167.100586 518.812439 385.907654
v 2166.338867 518.812439 388.419128
v 2166.081543 518.812439 391.030975
v 2166.338867 518.812439 393.642822
v 2167.100586 518.812439 396.154327
v 2168.337891 518.812439 398.468933
v 2170.002686 518.812439 400.497711
v 2172.031494 518.812439 402.162689
v 2174.345947 518.812439 403.399841
v 2176.857666 518.812439 404.161682
v 2179.469482 518.812439 404.418915
v 2182.081299 518.812439 404.161682
v 2184.592773 518.812439 403.399841
v 2186.907471 518.812439 402.162689
v 2188.936279 518.812439 400.497711
v 2190.601074 518.812439 398.468933
v 2191.838135 518.812439 396.154327
v 2192.600098 518.812439 393.642822
v 2192.857422 518.812439 391.030975
v 2192.600098 518.812439 388.419128
v 2191.838135 518.812439 385.907654
v 2190.601074 518.812439 383.593018
v 2188.936279 518.812439 381.564270
v 2186.907471 518.812439 379.899292
v 2184.592773 518.812439 378.662109
v 2182.081299 518.812439 377.900269
v 2176.857666 557.776611 377.900269
v 2179.469482 557.776611 377.643036
v 2174.345947 557.776611 378.662109
v 2172.031494 557.776611 379.899292
v 2170.002686 557.776611 381.564270
v 2168.337891 557.776611 383.593018
v 2167.100586 557.776611 385.907654
v 2166.338867 557.776611 388.419128
v 2166.081543 557.776611 391.030975
v 2166.338867 557.776611 393.642822
v 2167.100586 557.776611 396.154327
v 2168.337891 557.776611 398.468933
v 2170.002686 557.776611 400.497711
v 2172.031494 557.776611 402.162689
v 2174.345947 557.776611 403.399841
v 2176.857666 557.776611 404.161682
v 2179.469482 557.776611 404.418915
v 2182.081299 557.776611 404.161682
v 2184.592773 557.776611 403.399841
v 2186.907471 557.776611 402.162689
v 2188.936279 557.776611 400.497711
v 2190.601074 557.776611 398.468933
v 2191.838135 557.776611 396.154327
v 2192.600098 557.776611 393.642822
v 2192.857422 557.776611 391.030975
v 2192.600098 557.776611 388.419128
v 2191.838135 557.776611 385.907654
v 2190.601074 557.776611 383.593018
v 2188.936279 557.776611 381.564270
v 2186.907471 557.776611 379.899292
v 2184.592773 557.776611 378.662109
v 2182.081299 557.776611 377.900269
v 2175.044922 558.340698 368.786865
v 2179.469482 558.340698 368.351074
v 2170.790283 558.340698 370.077454
v 2166.869385 558.340698 372.173279
v 2163.432617 558.340698 374.993805
v 2160.612061 558.340698 378.430542
v 2158.516113 558.340698 382.351562
v 2157.225586 558.340698 386.606140
v 2156.789795 558.340698 391.030701
v 2157.225586 558.340698 395.455261
v 2158.516113 558.340698 399.709808
v 2160.612061 558.340698 403.630829
v 2163.432617 558.340698 407.067627
v 2166.869385 558.340698 409.888153
v 2170.790283 558.340698 411.983917
v 2175.044922 558.340698 413.274536
v 2179.469482 558.340698 413.710327
v 2183.894043 558.340698 413.274536
v 2188.148682 558.340698 411.983917
v 2192.069580 558.340698 409.888153
v 2195.506348 558.340698 407.067627
v 2198.326904 558.340698 403.630829
v 2200.422852 558.340698 399.709808
v 2201.713135 558.340698 395.455261
v 2202.149170 558.340698 391.030701
v 2201.713135 558.340698 386.606140
v 2200.422852 558.340698 382.351562
v 2198.326904 558.340698 378.430542
v 2195.506348 558.340698 374.993805
v 2192.069580 558.340698 372.173279
v 2188.148682 558.340698 370.077454
v 2183.894043 558.340698 368.786865
v 2175.044922 567.182495 368.786865
v 2179.469482 567.182495 368.351074
v 2170.790283 567.182495 370.077454
v 2166.869385 567.182495 372.173279
v 2163.432617 567.182495 374.993805
v 2160.612061 567.182495 378.430542
v 2158.516113 567.182495 382.351562
v 2157.225586 567.182495 386.606140
v 2156.789795 567.182495 391.030701
v 2157.225586 567.182495 395.455261
v 2158.516113 567.182495 399.709808
v 2160.612061 567.182495 403.630829
v 2163.432617 567.182495 407.067627
v 2166.869385 567.182495 409.888153
v 2170.790283 567.182495 411.983917
v 2175.044922 567.182495 413.274536
v 2179.469482 567.182495 413.710327
v 2183.894043 567.182495 413.274536
v 2188.148682 567.182495 411.983917
v 2192.069580 567.182495 409.888153
v 2195.506348 567.182495 407.067627
v 2198.326904 567.182495 403.630829
v 2200.422852 567.182495 399.709808
v 2201.713135 567.182495 395.455261
v 2202.149170 567.182495 391.030701
v 2201.713135 567.182495 386.606140
v 2200.422852 567.182495 382.351562
v 2198.326904 567.182495 378.430542
v 2195.506348 567.182495 374.993805
v 2192.069580 567.182495 372.173279
v 2188.148682 567.182495 370.077454
v 2183.894043 567.182495 368.786865
vn -0.0000 -1.0000 -0.0000
vn -0.9569 -0.0000 -0.2903
vn -0.0000 1.0000 -0.0000
vn -0.0583 -0.9981 0.0177
vn 0.7732 -0.0000 0.6342
vn -0.9952 -0.0000 -0.0981
vn 0.8819 -0.0000 0.4714
vn -0.9952 -0.0000 0.0979
vn 0.9569 -0.0000 0.2904
vn -0.9570 -0.0000 0.2902
vn 0.9952 -0.0000 0.0979
vn -0.8819 -0.0000 0.4714
vn 0.9952 -0.0000 -0.0981
vn -0.7730 -0.0000 0.6344
vn 0.9569 -0.0000 -0.2903
vn -0.6344 -0.0000 0.7730
vn 0.8820 -0.0000 -0.4713
vn -0.4714 -0.0000 0.8819
vn -0.0980 -0.0000 -0.9952
vn 0.7729 -0.0000 -0.6345
vn -0.2903 -0.0000 0.9569
vn -0.2902 -0.0000 -0.9570
vn 0.6343 -0.0000 -0.7731
vn -0.0980 -0.0000 0.9952
vn -0.4714 -0.0000 -0.8819
vn 0.4713 -0.0000 -0.8820
vn 0.0980 -0.0000 0.9952
vn -0.6344 -0.0000 -0.7730
vn 0.2902 -0.0000 -0.9570
vn 0.2903 -0.0000 0.9569
vn -0.7731 -0.0000 -0.6343
vn 0.0980 -0.0000 -0.9952
vn 0.4714 -0.0000 0.8819
vn -0.8819 -0.0000 -0.4715
vn 0.6344 -0.0000 0.7730
vn 0.0606 -0.9981 0.0060
vn -0.0537 -0.9981 0.0287
vn 0.0606 -0.9981 -0.0060
vn -0.0471 -0.9981 0.0386
vn 0.0583 -0.9981 -0.0177
vn -0.0386 -0.9981 0.0471
vn 0.0537 -0.9981 -0.0287
vn -0.0287 -0.9981 0.0537
vn -0.0060 -0.9981 -0.0606
vn 0.0471 -0.9981 -0.0386
vn -0.0177 -0.9981 0.0583
vn -0.0177 -0.9981 -0.0583
vn 0.0386 -0.9981 -0.0471
vn -0.0059 -0.9981 0.0606
vn -0.0287 -0.9981 -0.0537
vn 0.0287 -0.9981 -0.0537
vn 0.0059 -0.9981 0.0606
vn -0.0386 -0.9981 -0.0471
vn 0.0177 -0.9981 -0.0583
vn 0.0177 -0.9981 0.0583
vn -0.0471 -0.9981 -0.0386
vn 0.0059 -0.9981 -0.0606
vn 0.0287 -0.9981 0.0537
vn -0.0537 -0.9981 -0.0287
vn 0.0386 -0.9981 0.0471
vn -0.0583 -0.9981 -0.0177
vn 0.0471 -0.9981 0.0386
vn -0.0606 -0.9981 -0.0060
vn 0.0537 -0.9981 0.0287
vn -0.0606 -0.9981 0.0060
vn 0.0583 -0.9981 0.0177
vn 0.2903 -0.0000 -0.9569
vn 0.7730 -0.0000 0.6344
vn -0.9952 -0.0000 -0.0980
vn 0.8819 -0.0000 0.4715
vn -0.9952 -0.0000 0.0981
vn 0.9570 -0.0000 0.2902
vn -0.9569 -0.0000 0.2903
vn 0.9952 -0.0000 0.0981
vn 0.7730 -0.0000 -0.6344
vn -0.2903 -0.0000 -0.9569
vn 0.6345 -0.0000 -0.7730
vn 0.4714 -0.0000 -0.8819
vn 0.0001 -1.0000 -0.0000
vn -0.0002 -1.0000 -0.0000
vn 0.0002 -1.0000 -0.0000
vn -0.0001 -1.0000 -0.0000
vn -0.9570 -0.0000 -0.2902
vn 0.7729 -0.0000 0.6345
vn -0.9952 -0.0000 -0.0979
vn 0.8820 -0.0000 0.4713
vn 0.9569 -0.0000 0.2903
vn -0.8819 -0.0000 0.4715
vn 0.9952 -0.0000 -0.0979
vn -0.7731 -0.0000 0.6343
vn 0.9569 -0.0000 -0.2904
vn 0.8819 -0.0000 -0.4714
vn 0.7732 -0.0000 -0.6342
vn -0.2902 -0.0000 0.9570
vn 0.6344 -0.0000 -0.7730
vn 0.4715 -0.0000 -0.8819
vn 0.2902 -0.0000 0.9570
vn -0.7730 -0.0000 -0.6344
vn 0.4713 -0.0000 0.8820
vn -0.8819 -0.0000 -0.4714
vn 0.6343 -0.0000 0.7731
vn -0.0059 -0.9981 -0.0606
vn -0.0060 -0.9981 0.0606
vn 0.0060 -0.9981 0.0606
vn 0.0060 -0.9981 -0.0606
vn -0.0001 1.0000 -0.0000
vn 0.0001 1.0000 -0.0000
vn 0.6345 -0.0000 0.7730
vn -0.9952 -0.0000 0.0980
vn 0.9570 -0.0000 -0.2902
vn 0.8819 -0.0000 -0.4715
vt 0.000000 0.000000
s 0
usemtl Material.003
f 19/1/1 11/1/1 3/1/1
f 40/1/2 71/1/2 39/1/2
f 26/1/3 59/1/3 58/1/3
f 13/1/3 46/1/3 45/1/3
f 27/1/3 60/1/3 59/1/3
f 14/1/3 47/1/3 46/1/3
f 1/1/3 33/1/3 34/1/3
f 28/1/3 61/1/3 60/1/3
f 15/1/3 48/1/3 47/1/3
f 2/1/3 35/1/3 33/1/3
f 29/1/3 62/1/3 61/1/3
f 16/1/3 49/1/3 48/1/3
f 3/1/3 36/1/3 35/1/3
f 30/1/3 63/1/3 62/1/3
f 17/1/3 50/1/3 49/1/3
f 4/1/3 37/1/3 36/1/3
f 31/1/3 64/1/3 63/1/3
f 18/1/3 51/1/3 50/1/3
f 5/1/3 38/1/3 37/1/3
f 32/1/3 34/1/3 64/1/3
f 19/1/3 52/1/3 51/1/3
f 6/1/3 39/1/3 38/1/3
f 20/1/3 53/1/3 52/1/3
f 7/1/3 40/1/3 39/1/3
f 21/1/3 54/1/3 53/1/3
f 8/1/3 41/1/3 40/1/3
f 22/1/3 55/1/3 54/1/3
f 9/1/3 42/1/3 41/1/3
f 23/1/3 56/1/3 55/1/3
f 10/1/3 43/1/3 42/1/3
f 24/1/3 57/1/3 56/1/3
f 11/1/3 44/1/3 43/1/3
f 25/1/3 58/1/3 57/1/3
f 12/1/3 45/1/3 44/1/3
f 74/1/4 107/1/4 106/1/4
f 54/1/5 85/1/5 53/1/5
f 41/1/6 72/1/6 40/1/6
f 55/1/7 86/1/7 54/1/7
f 42/1/8 73/1/8 41/1/8
f 56/1/9 87/1/9 55/1/9
f 43/1/10 74/1/10 42/1/10
f 57/1/11 88/1/11 56/1/11
f 44/1/12 75/1/12 43/1/12
f 58/1/13 89/1/13 57/1/13
f 45/1/14 76/1/14 44/1/14
f 59/1/15 90/1/15 58/1/15
f 46/1/16 77/1/16 45/1/16
f 60/1/17 91/1/17 59/1/17
f 47/1/18 78/1/18 46/1/18
f 33/1/19 66/1/19 34/1/19
f 61/1/20 92/1/20 60/1/20
f 48/1/21 79/1/21 47/1/21
f 35/1/22 65/1/22 33/1/22
f 62/1/23 93/1/23 61/1/23
f 49/1/24 80/1/24 48/1/24
f 36/1/25 67/1/25 35/1/25
f 63/1/26 94/1/26 62/1/26
f 50/1/27 81/1/27 49/1/27
f 37/1/28 68/1/28 36/1/28
f 64/1/29 95/1/29 63/1/29
f 51/1/30 82/1/30 50/1/30
f 38/1/31 69/1/31 37/1/31
f 34/1/32 96/1/32 64/1/32
f 52/1/33 83/1/33 51/1/33
f 39/1/34 70/1/34 38/1/34
f 53/1/35 84/1/35 52/1/35
f 114/1/27 145/1/27 113/1/27
f 89/1/36 120/1/36 88/1/36
f 75/1/37 108/1/37 107/1/37
f 89/1/38 122/1/38 121/1/38
f 77/1/39 108/1/39 76/1/39
f 91/1/40 122/1/40 90/1/40
f 77/1/41 110/1/41 109/1/41
f 92/1/42 123/1/42 91/1/42
f 79/1/43 110/1/43 78/1/43
f 66/1/44 97/1/44 98/1/44
f 93/1/45 124/1/45 92/1/45
f 79/1/46 112/1/46 111/1/46
f 65/1/47 99/1/47 97/1/47
f 94/1/48 125/1/48 93/1/48
f 81/1/49 112/1/49 80/1/49
f 67/1/50 100/1/50 99/1/50
f 95/1/51 126/1/51 94/1/51
f 82/1/52 113/1/52 81/1/52
f 68/1/53 101/1/53 100/1/53
f 95/1/54 128/1/54 127/1/54
f 83/1/55 114/1/55 82/1/55
f 69/1/56 102/1/56 101/1/56
f 66/1/57 128/1/57 96/1/57
f 84/1/58 115/1/58 83/1/58
f 70/1/59 103/1/59 102/1/59
f 85/1/60 116/1/60 84/1/60
f 71/1/61 104/1/61 103/1/61
f 85/1/62 118/1/62 117/1/62
f 72/1/63 105/1/63 104/1/63
f 87/1/64 118/1/64 86/1/64
f 73/1/65 106/1/65 105/1/65
f 88/1/66 119/1/66 87/1/66
f 145/1/3 153/1/3 130/1/3
f 101/1/28 132/1/28 100/1/28
f 128/1/67 159/1/67 127/1/67
f 115/1/30 146/1/30 114/1/30
f 102/1/31 133/1/31 101/1/31
f 98/1/32 160/1/32 128/1/32
f 116/1/33 147/1/33 115/1/33
f 103/1/34 134/1/34 102/1/34
f 117/1/35 148/1/35 116/1/35
f 104/1/2 135/1/2 103/1/2
f 118/1/68 149/1/68 117/1/68
f 105/1/69 136/1/69 104/1/69
f 119/1/70 150/1/70 118/1/70
f 106/1/71 137/1/71 105/1/71
f 120/1/72 151/1/72 119/1/72
f 107/1/73 138/1/73 106/1/73
f 121/1/74 152/1/74 120/1/74
f 108/1/12 139/1/12 107/1/12
f 122/1/13 153/1/13 121/1/13
f 109/1/14 140/1/14 108/1/14
f 123/1/15 154/1/15 122/1/15
f 110/1/16 141/1/16 109/1/16
f 124/1/17 155/1/17 123/1/17
f 111/1/18 142/1/18 110/1/18
f 97/1/19 130/1/19 98/1/19
f 125/1/75 156/1/75 124/1/75
f 112/1/21 143/1/21 111/1/21
f 99/1/76 129/1/76 97/1/76
f 126/1/77 157/1/77 125/1/77
f 113/1/24 144/1/24 112/1/24
f 100/1/25 131/1/25 99/1/25
f 127/1/78 158/1/78 126/1/78
f 3/1/1 2/1/1 1/1/1
f 1/1/1 32/1/1 31/1/1
f 31/1/79 30/1/79 29/1/79
f 29/1/80 28/1/80 27/1/80
f 27/1/1 26/1/1 25/1/1
f 25/1/1 24/1/1 23/1/1
f 23/1/80 22/1/80 21/1/80
f 21/1/1 20/1/1 19/1/1
f 19/1/1 18/1/1 17/1/1
f 17/1/1 16/1/1 15/1/1
f 15/1/1 14/1/1 13/1/1
f 13/1/81 12/1/81 11/1/81
f 11/1/1 10/1/1 9/1/1
f 9/1/1 8/1/1 7/1/1
f 7/1/81 6/1/81 5/1/81
f 5/1/82 4/1/82 3/1/82
f 3/1/1 1/1/1 31/1/1
f 31/1/1 29/1/1 27/1/1
f 27/1/1 25/1/1 23/1/1
f 23/1/1 21/1/1 19/1/1
f 19/1/1 17/1/1 15/1/1
f 15/1/1 13/1/1 11/1/1
f 11/1/1 9/1/1 7/1/1
f 7/1/1 5/1/1 3/1/1
f 3/1/1 31/1/1 27/1/1
f 27/1/1 23/1/1 19/1/1
f 19/1/1 15/1/1 11/1/1
f 11/1/1 7/1/1 3/1/1
f 3/1/1 27/1/1 19/1/1
f 40/1/83 72/1/83 71/1/83
f 26/1/3 27/1/3 59/1/3
f 13/1/3 14/1/3 46/1/3
f 27/1/3 28/1/3 60/1/3
f 14/1/3 15/1/3 47/1/3
f 1/1/3 2/1/3 33/1/3
f 28/1/3 29/1/3 61/1/3
f 15/1/3 16/1/3 48/1/3
f 2/1/3 3/1/3 35/1/3
f 29/1/3 30/1/3 62/1/3
f 16/1/3 17/1/3 49/1/3
f 3/1/3 4/1/3 36/1/3
f 30/1/3 31/1/3 63/1/3
f 17/1/3 18/1/3 50/1/3
f 4/1/3 5/1/3 37/1/3
f 31/1/3 32/1/3 64/1/3
f 18/1/3 19/1/3 51/1/3
f 5/1/3 6/1/3 38/1/3
f 32/1/3 1/1/3 34/1/3
f 19/1/3 20/1/3 52/1/3
f 6/1/3 7/1/3 39/1/3
f 20/1/3 21/1/3 53/1/3
f 7/1/3 8/1/3 40/1/3
f 21/1/3 22/1/3 54/1/3
f 8/1/3 9/1/3 41/1/3
f 22/1/3 23/1/3 55/1/3
f 9/1/3 10/1/3 42/1/3
f 23/1/3 24/1/3 56/1/3
f 10/1/3 11/1/3 43/1/3
f 24/1/3 25/1/3 57/1/3
f 11/1/3 12/1/3 44/1/3
f 25/1/3 26/1/3 58/1/3
f 12/1/3 13/1/3 45/1/3
f 74/1/4 75/1/4 107/1/4
f 54/1/84 86/1/84 85/1/84
f 41/1/85 73/1/85 72/1/85
f 55/1/86 87/1/86 86/1/86
f 42/1/71 74/1/71 73/1/71
f 56/1/87 88/1/87 87/1/87
f 43/1/73 75/1/73 74/1/73
f 57/1/74 89/1/74 88/1/74
f 44/1/88 76/1/88 75/1/88
f 58/1/89 90/1/89 89/1/89
f 45/1/90 77/1/90 76/1/90
f 59/1/91 91/1/91 90/1/91
f 46/1/16 78/1/16 77/1/16
f 60/1/92 92/1/92 91/1/92
f 47/1/18 79/1/18 78/1/18
f 33/1/19 65/1/19 66/1/19
f 61/1/93 93/1/93 92/1/93
f 48/1/94 80/1/94 79/1/94
f 35/1/76 67/1/76 65/1/76
f 62/1/95 94/1/95 93/1/95
f 49/1/24 81/1/24 80/1/24
f 36/1/25 68/1/25 67/1/25
f 63/1/96 95/1/96 94/1/96
f 50/1/27 82/1/27 81/1/27
f 37/1/28 69/1/28 68/1/28
f 64/1/67 96/1/67 95/1/67
f 51/1/97 83/1/97 82/1/97
f 38/1/98 70/1/98 69/1/98
f 34/1/32 66/1/32 96/1/32
f 52/1/99 84/1/99 83/1/99
f 39/1/100 71/1/100 70/1/100
f 53/1/101 85/1/101 84/1/101
f 114/1/27 146/1/27 145/1/27
f 89/1/36 121/1/36 120/1/36
f 75/1/37 76/1/37 108/1/37
f 89/1/38 90/1/38 122/1/38
f 77/1/39 109/1/39 108/1/39
f 91/1/40 123/1/40 122/1/40
f 77/1/41 78/1/41 110/1/41
f 92/1/42 124/1/42 123/1/42
f 79/1/43 111/1/43 110/1/43
f 66/1/102 65/1/102 97/1/102
f 93/1/45 125/1/45 124/1/45
f 79/1/46 80/1/46 112/1/46
f 65/1/47 67/1/47 99/1/47
f 94/1/48 126/1/48 125/1/48
f 81/1/103 113/1/103 112/1/103
f 67/1/50 68/1/50 100/1/50
f 95/1/51 127/1/51 126/1/51
f 82/1/104 114/1/104 113/1/104
f 68/1/53 69/1/53 101/1/53
f 95/1/54 96/1/54 128/1/54
f 83/1/55 115/1/55 114/1/55
f 69/1/56 70/1/56 102/1/56
f 66/1/105 98/1/105 128/1/105
f 84/1/58 116/1/58 115/1/58
f 70/1/59 71/1/59 103/1/59
f 85/1/60 117/1/60 116/1/60
f 71/1/61 72/1/61 104/1/61
f 85/1/62 86/1/62 118/1/62
f 72/1/63 73/1/63 105/1/63
f 87/1/64 119/1/64 118/1/64
f 73/1/65 74/1/65 106/1/65
f 88/1/66 120/1/66 119/1/66
f 130/1/3 129/1/3 131/1/3
f 131/1/106 132/1/106 133/1/106
f 133/1/106 134/1/106 135/1/106
f 135/1/3 136/1/3 137/1/3
f 137/1/106 138/1/106 139/1/106
f 139/1/106 140/1/106 141/1/106
f 141/1/3 142/1/3 143/1/3
f 143/1/3 144/1/3 145/1/3
f 145/1/3 146/1/3 147/1/3
f 147/1/3 148/1/3 149/1/3
f 149/1/107 150/1/107 151/1/107
f 151/1/107 152/1/107 153/1/107
f 153/1/3 154/1/3 155/1/3
f 155/1/107 156/1/107 157/1/107
f 157/1/107 158/1/107 159/1/107
f 159/1/3 160/1/3 130/1/3
f 130/1/3 131/1/3 133/1/3
f 133/1/3 135/1/3 137/1/3
f 137/1/3 139/1/3 141/1/3
f 141/1/3 143/1/3 145/1/3
f 145/1/3 147/1/3 149/1/3
f 149/1/3 151/1/3 153/1/3
f 153/1/3 155/1/3 157/1/3
f 157/1/3 159/1/3 130/1/3
f 130/1/3 133/1/3 137/1/3
f 137/1/3 141/1/3 145/1/3
f 145/1/3 149/1/3 153/1/3
f 153/1/3 157/1/3 130/1/3
f 130/1/3 137/1/3 145/1/3
f 101/1/28 133/1/28 132/1/28
f 128/1/67 160/1/67 159/1/67
f 115/1/30 147/1/30 146/1/30
f 102/1/98 134/1/98 133/1/98
f 98/1/32 130/1/32 160/1/32
f 116/1/33 148/1/33 147/1/33
f 103/1/100 135/1/100 134/1/100
f 117/1/108 149/1/108 148/1/108
f 104/1/2 136/1/2 135/1/2
f 118/1/68 150/1/68 149/1/68
f 105/1/6 137/1/6 136/1/6
f 119/1/86 151/1/86 150/1/86
f 106/1/109 138/1/109 137/1/109
f 120/1/87 152/1/87 151/1/87
f 107/1/73 139/1/73 138/1/73
f 121/1/74 153/1/74 152/1/74
f 108/1/88 140/1/88 139/1/88
f 122/1/13 154/1/13 153/1/13
f 109/1/90 141/1/90 140/1/90
f 123/1/110 155/1/110 154/1/110
f 110/1/16 142/1/16 141/1/16
f 124/1/111 156/1/111 155/1/111
f 111/1/18 143/1/18 142/1/18
f 97/1/19 129/1/19 130/1/19
f 125/1/75 157/1/75 156/1/75
f 112/1/21 144/1/21 143/1/21
f 99/1/76 131/1/76 129/1/76
f 126/1/95 158/1/95 157/1/95
f 113/1/24 145/1/24 144/1/24
f 100/1/25 132/1/25 131/1/25
f 127/1/78 159/1/78 158/1/78
