# Blender 4.1.1
# www.blender.org
mtllib Circle.747.mtl
o Circle.035
v 1876.301758 -1115.206909 92.886497
v 1874.132080 -1115.206909 93.100197
v 1872.045654 -1115.206909 93.733086
v 1870.122925 -1115.206909 94.760841
v 1868.437500 -1115.206909 96.143967
v 1867.054443 -1115.206909 97.829308
v 1866.026611 -1115.206909 99.752098
v 1865.393799 -1115.206909 101.838448
v 1865.180054 -1115.206909 104.008179
v 1865.393799 -1115.206909 106.177910
v 1866.026611 -1115.206909 108.264259
v 1867.054443 -1115.206909 110.187050
v 1868.437500 -1115.206909 111.872391
v 1870.122925 -1115.206909 113.255516
v 1872.045654 -1115.206909 114.283272
v 1874.132080 -1115.206909 114.916161
v 1876.301758 -1115.206909 115.129860
v 1878.471436 -1115.206909 114.916161
v 1880.557861 -1115.206909 114.283272
v 1882.480591 -1115.206909 113.255516
v 1884.166016 -1115.206909 111.872391
v 1885.549072 -1115.206909 110.187050
v 1886.576904 -1115.206909 108.264259
v 1887.209717 -1115.206909 106.177910
v 1887.423462 -1115.206909 104.008179
v 1887.209717 -1115.206909 101.838448
v 1886.576904 -1115.206909 99.752098
v 1885.549072 -1115.206909 97.829308
v 1884.166016 -1115.206909 96.143967
v 1882.480591 -1115.206909 94.760841
v 1880.557861 -1115.206909 93.733086
v 1878.471436 -1115.206909 93.100197
v 1874.132080 -1115.206909 93.100197
v 1876.301758 -1115.206909 92.886497
v 1872.045654 -1115.206909 93.733086
v 1870.122925 -1115.206909 94.760841
v 1868.437500 -1115.206909 96.143967
v 1867.054443 -1115.206909 97.829308
v 1866.026611 -1115.206909 99.752098
v 1865.393799 -1115.206909 101.838448
v 1865.180054 -1115.206909 104.008179
v 1865.393799 -1115.206909 106.177910
v 1866.026611 -1115.206909 108.264259
v 1867.054443 -1115.206909 110.187050
v 1868.437500 -1115.206909 111.872391
v 1870.122925 -1115.206909 113.255516
v 1872.045654 -1115.206909 114.283272
v 1874.132080 -1115.206909 114.916161
v 1876.301758 -1115.206909 115.129860
v 1878.471436 -1115.206909 114.916161
v 1880.557861 -1115.206909 114.283272
v 1882.480591 -1115.206909 113.255516
v 1884.166016 -1115.206909 111.872391
v 1885.549072 -1115.206909 110.187050
v 1886.576904 -1115.206909 108.264259
v 1887.209717 -1115.206909 106.177910
v 1887.423462 -1115.206909 104.008179
v 1887.209717 -1115.206909 101.838448
v 1886.576904 -1115.206909 99.752098
v 1885.549072 -1115.206909 97.829308
v 1884.166016 -1115.206909 96.143967
v 1882.480591 -1115.206909 94.760841
v 1880.557861 -1115.206909 93.733086
v 1878.471436 -1115.206909 93.100197
v 1874.132080 -1085.845703 93.100197
v 1876.301758 -1085.845703 92.886497
v 1872.045654 -1085.845703 93.733086
v 1870.122925 -1085.845703 94.760841
v 1868.437500 -1085.845703 96.143967
v 1867.054443 -1085.845703 97.829308
v 1866.026611 -1085.845703 99.752098
v 1865.393799 -1085.845703 101.838448
v 1865.180054 -1085.845703 104.008179
v 1865.393799 -1085.845703 106.177910
v 1866.026611 -1085.845703 108.264259
v 1867.054443 -1085.845703 110.187050
v 1868.437500 -1085.845703 111.872391
v 1870.122925 -1085.845703 113.255516
v 1872.045654 -1085.845703 114.283272
v 1874.132080 -1085.845703 114.916161
v 1876.301758 -1085.845703 115.129860
v 1878.471436 -1085.845703 114.916161
v 1880.557861 -1085.845703 114.283272
v 1882.480591 -1085.845703 113.255516
v 1884.166016 -1085.845703 111.872391
v 1885.549072 -1085.845703 110.187050
v 1886.576904 -1085.845703 108.264259
v 1887.209717 -1085.845703 106.177910
v 1887.423462 -1085.845703 104.008179
v 1887.209717 -1085.845703 101.838448
v 1886.576904 -1085.845703 99.752098
v 1885.549072 -1085.845703 97.829308
v 1884.166016 -1085.845703 96.143967
v 1882.480591 -1085.845703 94.760841
v 1880.557861 -1085.845703 93.733086
v 1878.471436 -1085.845703 93.100197
v 1872.636353 -1084.494507 85.579491
v 1876.302002 -1084.494507 85.218460
v 1869.111694 -1084.494507 86.648705
v 1865.863281 -1084.494507 88.385017
v 1863.015991 -1084.494507 90.721703
v 1860.679321 -1084.494507 93.568962
v 1858.942993 -1084.494507 96.817375
v 1857.873779 -1084.494507 100.342110
v 1857.512695 -1084.494507 104.007713
v 1857.873779 -1084.494507 107.673309
v 1858.942993 -1084.494507 111.198044
v 1860.679321 -1084.494507 114.446457
v 1863.015991 -1084.494507 117.293716
v 1865.863281 -1084.494507 119.630402
v 1869.111694 -1084.494507 121.366714
v 1872.636353 -1084.494507 122.435928
v 1876.302002 -1084.494507 122.796967
v 1879.967651 -1084.494507 122.435928
v 1883.492310 -1084.494507 121.366714
v 1886.740723 -1084.494507 119.630402
v 1889.588013 -1084.494507 117.293716
v 1891.924683 -1084.494507 114.446457
v 1893.661011 -1084.494507 111.198044
v 1894.730225 -1084.494507 107.673309
v 1895.091187 -1084.494507 104.007713
v 1894.730225 -1084.494507 100.342110
v 1893.661011 -1084.494507 96.817375
v 1891.924683 -1084.494507 93.568962
v 1889.588013 -1084.494507 90.721703
v 1886.740723 -1084.494507 88.385017
v 1883.492310 -1084.494507 86.648705
v 1879.967651 -1084.494507 85.579491
v 1872.636353 -1074.528809 85.579491
v 1876.302002 -1074.528809 85.218460
v 1869.111694 -1074.528809 86.648705
v 1865.863281 -1074.528809 88.385017
v 1863.015991 -1074.528809 90.721703
v 1860.679321 -1074.528809 93.568962
v 1858.942993 -1074.528809 96.817375
v 1857.873779 -1074.528809 100.342110
v 1857.512695 -1074.528809 104.007713
v 1857.873779 -1074.528809 107.673309
v 1858.942993 -1074.528809 111.198044
v 1860.679321 -1074.528809 114.446457
v 1863.015991 -1074.528809 117.293716
v 1865.863281 -1074.528809 119.630402
v 1869.111694 -1074.528809 121.366714
v 1872.636353 -1074.528809 122.435928
v 1876.302002 -1074.528809 122.796967
v 1879.967651 -1074.528809 122.435928
v 1883.492310 -1074.528809 121.366714
v 1886.740723 -1074.528809 119.630402
v 1889.588013 -1074.528809 117.293716
v 1891.924683 -1074.528809 114.446457
v 1893.661011 -1074.528809 111.198044
v 1894.730225 -1074.528809 107.673309
v 1895.091187 -1074.528809 104.007713
v 1894.730225 -1074.528809 100.342110
v 1893.661011 -1074.528809 96.817375
v 1891.924683 -1074.528809 93.568962
v 1889.588013 -1074.528809 90.721703
v 1886.740723 -1074.528809 88.385017
v 1883.492310 -1074.528809 86.648705
v 1879.967651 -1074.528809 85.579491
vn -0.0000 -1.0000 -0.0000
vn -0.0980 -0.0000 0.9952
vn -0.0000 1.0000 -0.0000
vn 0.0823 -0.9847 0.1538
vn -0.4714 -0.0000 -0.8819
vn 0.4714 -0.0000 -0.8819
vn 0.0980 -0.0000 0.9952
vn -0.6344 -0.0000 -0.7730
vn 0.2903 -0.0000 -0.9569
vn 0.2903 -0.0000 0.9569
vn -0.7730 -0.0000 -0.6344
vn 0.0980 -0.0000 -0.9952
vn 0.4714 -0.0000 0.8819
vn -0.8819 -0.0000 -0.4713
vn 0.6344 -0.0000 0.7730
vn -0.9569 -0.0000 -0.2903
vn 0.7730 -0.0000 0.6344
vn -0.9952 -0.0000 -0.0981
vn 0.8819 -0.0000 0.4714
vn -0.9952 -0.0000 0.0979
vn 0.9569 -0.0000 0.2903
vn -0.9570 -0.0000 0.2902
vn 0.9952 -0.0000 0.0981
vn -0.8819 -0.0000 0.4714
vn 0.9952 -0.0000 -0.0979
vn -0.7730 -0.0000 0.6344
vn 0.9570 -0.0000 -0.2902
vn -0.6343 -0.0000 0.7731
vn 0.8819 -0.0000 -0.4713
vn -0.4715 -0.0000 0.8819
vn -0.0980 -0.0000 -0.9952
vn 0.7730 -0.0000 -0.6344
vn -0.2903 -0.0000 0.9569
vn -0.2903 -0.0000 -0.9569
vn 0.6343 -0.0000 -0.7731
vn -0.1538 -0.9847 -0.0822
vn 0.1106 -0.9847 0.1348
vn -0.1669 -0.9847 -0.0506
vn 0.1348 -0.9847 0.1106
vn -0.1735 -0.9847 -0.0171
vn 0.1537 -0.9847 0.0822
vn -0.1735 -0.9847 0.0171
vn 0.1668 -0.9847 0.0506
vn -0.1669 -0.9847 0.0506
vn 0.1735 -0.9847 0.0171
vn -0.1538 -0.9847 0.0822
vn 0.1735 -0.9847 -0.0171
vn -0.1348 -0.9847 0.1106
vn 0.1668 -0.9847 -0.0506
vn -0.1106 -0.9847 0.1348
vn 0.1537 -0.9847 -0.0822
vn -0.0823 -0.9847 0.1538
vn -0.0171 -0.9847 -0.1735
vn 0.1348 -0.9847 -0.1106
vn -0.0506 -0.9847 0.1669
vn -0.0506 -0.9847 -0.1669
vn 0.1106 -0.9847 -0.1348
vn -0.0171 -0.9847 0.1735
vn -0.0822 -0.9847 -0.1537
vn 0.0822 -0.9847 -0.1537
vn 0.0171 -0.9847 0.1735
vn -0.1106 -0.9847 -0.1348
vn 0.0506 -0.9847 -0.1668
vn 0.0506 -0.9847 0.1669
vn -0.1348 -0.9847 -0.1106
vn 0.0171 -0.9847 -0.1735
vn -0.9952 -0.0000 0.0981
vn 0.9570 -0.0000 0.2902
vn -0.9569 -0.0000 0.2903
vn 0.9952 -0.0000 0.0979
vn 0.9952 -0.0000 -0.0980
vn 0.9569 -0.0000 -0.2904
vn -0.6344 -0.0000 0.7730
vn 0.8819 -0.0000 -0.4714
vn -0.4714 -0.0000 0.8819
vn -0.8819 -0.0000 -0.4714
vn -0.9570 -0.0000 -0.2902
vn -0.9952 -0.0000 -0.0980
vn -0.0003 -1.0000 -0.0000
vn -0.0005 -1.0000 -0.0000
vn 0.0003 -1.0000 -0.0000
vn 0.0005 -1.0000 -0.0000
vn 0.0001 -1.0000 -0.0000
vn -0.0001 -1.0000 -0.0000
vn 0.0822 -0.9847 0.1538
vn -0.4715 -0.0000 -0.8819
vn -0.6343 -0.0000 -0.7731
vn 0.6343 -0.0000 0.7731
vn -0.9952 -0.0000 -0.0979
vn 0.8820 -0.0000 0.4713
vn -0.8820 -0.0000 0.4713
vn 0.9952 -0.0000 -0.0981
vn 0.9569 -0.0000 -0.2903
vn 0.6344 -0.0000 -0.7730
vn -0.1537 -0.9847 -0.0822
vn -0.1668 -0.9847 -0.0506
vn 0.1538 -0.9847 0.0822
vn 0.1669 -0.9847 0.0506
vn 0.1669 -0.9847 -0.0506
vn 0.1538 -0.9847 -0.0822
vn -0.0822 -0.9847 0.1538
vn -0.0821 -0.9847 -0.1538
vn 0.0822 -0.9847 -0.1538
vn 0.0506 -0.9847 -0.1669
vn -0.0002 1.0000 -0.0000
vn 0.0002 1.0000 -0.0000
vn 0.0001 1.0000 -0.0000
vn -0.0001 1.0000 -0.0000
vn -0.9952 -0.0000 0.0980
vn 0.9569 -0.0000 0.2904
vn 0.9952 -0.0000 0.0980
vn 0.6345 -0.0000 -0.7730
vn 0.6343 -0.0000 0.7730
vt 0.000000 0.000000
s 0
usemtl Material.003
f 19/1/1 11/1/1 3/1/1
f 49/1/2 80/1/2 48/1/2
f 8/1/3 41/1/3 40/1/3
f 22/1/3 55/1/3 54/1/3
f 9/1/3 42/1/3 41/1/3
f 23/1/3 56/1/3 55/1/3
f 10/1/3 43/1/3 42/1/3
f 24/1/3 57/1/3 56/1/3
f 11/1/3 44/1/3 43/1/3
f 25/1/3 58/1/3 57/1/3
f 12/1/3 45/1/3 44/1/3
f 26/1/3 59/1/3 58/1/3
f 13/1/3 46/1/3 45/1/3
f 27/1/3 60/1/3 59/1/3
f 14/1/3 47/1/3 46/1/3
f 1/1/3 33/1/3 34/1/3
f 28/1/3 61/1/3 60/1/3
f 15/1/3 48/1/3 47/1/3
f 2/1/3 35/1/3 33/1/3
f 29/1/3 62/1/3 61/1/3
f 16/1/3 49/1/3 48/1/3
f 3/1/3 36/1/3 35/1/3
f 30/1/3 63/1/3 62/1/3
f 17/1/3 50/1/3 49/1/3
f 4/1/3 37/1/3 36/1/3
f 31/1/3 64/1/3 63/1/3
f 18/1/3 51/1/3 50/1/3
f 5/1/3 38/1/3 37/1/3
f 32/1/3 34/1/3 64/1/3
f 19/1/3 52/1/3 51/1/3
f 6/1/3 39/1/3 38/1/3
f 20/1/3 53/1/3 52/1/3
f 7/1/3 40/1/3 39/1/3
f 21/1/3 54/1/3 53/1/3
f 84/1/4 115/1/4 83/1/4
f 36/1/5 67/1/5 35/1/5
f 63/1/6 94/1/6 62/1/6
f 50/1/7 81/1/7 49/1/7
f 37/1/8 68/1/8 36/1/8
f 64/1/9 95/1/9 63/1/9
f 51/1/10 82/1/10 50/1/10
f 38/1/11 69/1/11 37/1/11
f 34/1/12 96/1/12 64/1/12
f 52/1/13 83/1/13 51/1/13
f 39/1/14 70/1/14 38/1/14
f 53/1/15 84/1/15 52/1/15
f 40/1/16 71/1/16 39/1/16
f 54/1/17 85/1/17 53/1/17
f 41/1/18 72/1/18 40/1/18
f 55/1/19 86/1/19 54/1/19
f 42/1/20 73/1/20 41/1/20
f 56/1/21 87/1/21 55/1/21
f 43/1/22 74/1/22 42/1/22
f 57/1/23 88/1/23 56/1/23
f 44/1/24 75/1/24 43/1/24
f 58/1/25 89/1/25 57/1/25
f 45/1/26 76/1/26 44/1/26
f 59/1/27 90/1/27 58/1/27
f 46/1/28 77/1/28 45/1/28
f 60/1/29 91/1/29 59/1/29
f 47/1/30 78/1/30 46/1/30
f 33/1/31 66/1/31 34/1/31
f 61/1/32 92/1/32 60/1/32
f 48/1/33 79/1/33 47/1/33
f 35/1/34 65/1/34 33/1/34
f 62/1/35 93/1/35 61/1/35
f 119/1/19 150/1/19 118/1/19
f 70/1/36 103/1/36 102/1/36
f 85/1/37 116/1/37 84/1/37
f 71/1/38 104/1/38 103/1/38
f 86/1/39 117/1/39 85/1/39
f 72/1/40 105/1/40 104/1/40
f 87/1/41 118/1/41 86/1/41
f 73/1/42 106/1/42 105/1/42
f 88/1/43 119/1/43 87/1/43
f 74/1/44 107/1/44 106/1/44
f 89/1/45 120/1/45 88/1/45
f 75/1/46 108/1/46 107/1/46
f 90/1/47 121/1/47 89/1/47
f 76/1/48 109/1/48 108/1/48
f 91/1/49 122/1/49 90/1/49
f 77/1/50 110/1/50 109/1/50
f 92/1/51 123/1/51 91/1/51
f 79/1/52 110/1/52 78/1/52
f 66/1/53 97/1/53 98/1/53
f 93/1/54 124/1/54 92/1/54
f 80/1/55 111/1/55 79/1/55
f 65/1/56 99/1/56 97/1/56
f 94/1/57 125/1/57 93/1/57
f 81/1/58 112/1/58 80/1/58
f 67/1/59 100/1/59 99/1/59
f 94/1/60 127/1/60 126/1/60
f 82/1/61 113/1/61 81/1/61
f 68/1/62 101/1/62 100/1/62
f 95/1/63 128/1/63 127/1/63
f 83/1/64 114/1/64 82/1/64
f 69/1/65 102/1/65 101/1/65
f 96/1/66 98/1/66 128/1/66
f 145/1/3 153/1/3 130/1/3
f 106/1/67 137/1/67 105/1/67
f 120/1/68 151/1/68 119/1/68
f 107/1/69 138/1/69 106/1/69
f 121/1/70 152/1/70 120/1/70
f 108/1/24 139/1/24 107/1/24
f 122/1/71 153/1/71 121/1/71
f 109/1/26 140/1/26 108/1/26
f 123/1/72 154/1/72 122/1/72
f 110/1/73 141/1/73 109/1/73
f 124/1/74 155/1/74 123/1/74
f 111/1/75 142/1/75 110/1/75
f 97/1/31 130/1/31 98/1/31
f 125/1/32 156/1/32 124/1/32
f 112/1/33 143/1/33 111/1/33
f 99/1/34 129/1/34 97/1/34
f 126/1/35 157/1/35 125/1/35
f 113/1/2 144/1/2 112/1/2
f 100/1/5 131/1/5 99/1/5
f 127/1/6 158/1/6 126/1/6
f 114/1/7 145/1/7 113/1/7
f 101/1/8 132/1/8 100/1/8
f 128/1/9 159/1/9 127/1/9
f 115/1/10 146/1/10 114/1/10
f 102/1/11 133/1/11 101/1/11
f 98/1/12 160/1/12 128/1/12
f 116/1/13 147/1/13 115/1/13
f 103/1/76 134/1/76 102/1/76
f 117/1/15 148/1/15 116/1/15
f 104/1/77 135/1/77 103/1/77
f 118/1/17 149/1/17 117/1/17
f 105/1/78 136/1/78 104/1/78
f 3/1/1 2/1/1 1/1/1
f 1/1/1 32/1/1 31/1/1
f 31/1/79 30/1/79 29/1/79
f 29/1/80 28/1/80 27/1/80
f 27/1/1 26/1/1 25/1/1
f 25/1/1 24/1/1 23/1/1
f 23/1/79 22/1/79 21/1/79
f 21/1/79 20/1/79 19/1/79
f 19/1/1 18/1/1 17/1/1
f 17/1/1 16/1/1 15/1/1
f 15/1/81 14/1/81 13/1/81
f 13/1/82 12/1/82 11/1/82
f 11/1/1 10/1/1 9/1/1
f 9/1/1 8/1/1 7/1/1
f 7/1/81 6/1/81 5/1/81
f 5/1/81 4/1/81 3/1/81
f 3/1/1 1/1/1 31/1/1
f 31/1/83 29/1/83 27/1/83
f 27/1/1 25/1/1 23/1/1
f 23/1/83 21/1/83 19/1/83
f 19/1/1 17/1/1 15/1/1
f 15/1/84 13/1/84 11/1/84
f 11/1/1 9/1/1 7/1/1
f 7/1/84 5/1/84 3/1/84
f 3/1/1 31/1/1 27/1/1
f 27/1/1 23/1/1 19/1/1
f 19/1/1 15/1/1 11/1/1
f 11/1/1 7/1/1 3/1/1
f 3/1/1 27/1/1 19/1/1
f 49/1/2 81/1/2 80/1/2
f 8/1/3 9/1/3 41/1/3
f 22/1/3 23/1/3 55/1/3
f 9/1/3 10/1/3 42/1/3
f 23/1/3 24/1/3 56/1/3
f 10/1/3 11/1/3 43/1/3
f 24/1/3 25/1/3 57/1/3
f 11/1/3 12/1/3 44/1/3
f 25/1/3 26/1/3 58/1/3
f 12/1/3 13/1/3 45/1/3
f 26/1/3 27/1/3 59/1/3
f 13/1/3 14/1/3 46/1/3
f 27/1/3 28/1/3 60/1/3
f 14/1/3 15/1/3 47/1/3
f 1/1/3 2/1/3 33/1/3
f 28/1/3 29/1/3 61/1/3
f 15/1/3 16/1/3 48/1/3
f 2/1/3 3/1/3 35/1/3
f 29/1/3 30/1/3 62/1/3
f 16/1/3 17/1/3 49/1/3
f 3/1/3 4/1/3 36/1/3
f 30/1/3 31/1/3 63/1/3
f 17/1/3 18/1/3 50/1/3
f 4/1/3 5/1/3 37/1/3
f 31/1/3 32/1/3 64/1/3
f 18/1/3 19/1/3 51/1/3
f 5/1/3 6/1/3 38/1/3
f 32/1/3 1/1/3 34/1/3
f 19/1/3 20/1/3 52/1/3
f 6/1/3 7/1/3 39/1/3
f 20/1/3 21/1/3 53/1/3
f 7/1/3 8/1/3 40/1/3
f 21/1/3 22/1/3 54/1/3
f 84/1/85 116/1/85 115/1/85
f 36/1/86 68/1/86 67/1/86
f 63/1/6 95/1/6 94/1/6
f 50/1/7 82/1/7 81/1/7
f 37/1/87 69/1/87 68/1/87
f 64/1/9 96/1/9 95/1/9
f 51/1/10 83/1/10 82/1/10
f 38/1/11 70/1/11 69/1/11
f 34/1/12 66/1/12 96/1/12
f 52/1/13 84/1/13 83/1/13
f 39/1/76 71/1/76 70/1/76
f 53/1/88 85/1/88 84/1/88
f 40/1/77 72/1/77 71/1/77
f 54/1/17 86/1/17 85/1/17
f 41/1/89 73/1/89 72/1/89
f 55/1/90 87/1/90 86/1/90
f 42/1/67 74/1/67 73/1/67
f 56/1/68 88/1/68 87/1/68
f 43/1/69 75/1/69 74/1/69
f 57/1/70 89/1/70 88/1/70
f 44/1/91 76/1/91 75/1/91
f 58/1/92 90/1/92 89/1/92
f 45/1/26 77/1/26 76/1/26
f 59/1/93 91/1/93 90/1/93
f 46/1/73 78/1/73 77/1/73
f 60/1/74 92/1/74 91/1/74
f 47/1/75 79/1/75 78/1/75
f 33/1/31 65/1/31 66/1/31
f 61/1/32 93/1/32 92/1/32
f 48/1/33 80/1/33 79/1/33
f 35/1/34 67/1/34 65/1/34
f 62/1/94 94/1/94 93/1/94
f 119/1/19 151/1/19 150/1/19
f 70/1/95 71/1/95 103/1/95
f 85/1/37 117/1/37 116/1/37
f 71/1/96 72/1/96 104/1/96
f 86/1/39 118/1/39 117/1/39
f 72/1/40 73/1/40 105/1/40
f 87/1/97 119/1/97 118/1/97
f 73/1/42 74/1/42 106/1/42
f 88/1/98 120/1/98 119/1/98
f 74/1/44 75/1/44 107/1/44
f 89/1/45 121/1/45 120/1/45
f 75/1/46 76/1/46 108/1/46
f 90/1/47 122/1/47 121/1/47
f 76/1/48 77/1/48 109/1/48
f 91/1/99 123/1/99 122/1/99
f 77/1/50 78/1/50 110/1/50
f 92/1/100 124/1/100 123/1/100
f 79/1/101 111/1/101 110/1/101
f 66/1/53 65/1/53 97/1/53
f 93/1/54 125/1/54 124/1/54
f 80/1/55 112/1/55 111/1/55
f 65/1/56 67/1/56 99/1/56
f 94/1/57 126/1/57 125/1/57
f 81/1/58 113/1/58 112/1/58
f 67/1/102 68/1/102 100/1/102
f 94/1/103 95/1/103 127/1/103
f 82/1/61 114/1/61 113/1/61
f 68/1/62 69/1/62 101/1/62
f 95/1/104 96/1/104 128/1/104
f 83/1/64 115/1/64 114/1/64
f 69/1/65 70/1/65 102/1/65
f 96/1/66 66/1/66 98/1/66
f 130/1/3 129/1/3 131/1/3
f 131/1/3 132/1/3 133/1/3
f 133/1/105 134/1/105 135/1/105
f 135/1/106 136/1/106 137/1/106
f 137/1/3 138/1/3 139/1/3
f 139/1/105 140/1/105 141/1/105
f 141/1/107 142/1/107 143/1/107
f 143/1/3 144/1/3 145/1/3
f 145/1/3 146/1/3 147/1/3
f 147/1/3 148/1/3 149/1/3
f 149/1/106 150/1/106 151/1/106
f 151/1/3 152/1/3 153/1/3
f 153/1/105 154/1/105 155/1/105
f 155/1/106 156/1/106 157/1/106
f 157/1/108 158/1/108 159/1/108
f 159/1/3 160/1/3 130/1/3
f 130/1/3 131/1/3 133/1/3
f 133/1/3 135/1/3 137/1/3
f 137/1/3 139/1/3 141/1/3
f 141/1/3 143/1/3 145/1/3
f 145/1/3 147/1/3 149/1/3
f 149/1/3 151/1/3 153/1/3
f 153/1/3 155/1/3 157/1/3
f 157/1/3 159/1/3 130/1/3
f 130/1/3 133/1/3 137/1/3
f 137/1/3 141/1/3 145/1/3
f 145/1/3 149/1/3 153/1/3
f 153/1/3 157/1/3 130/1/3
f 130/1/3 137/1/3 145/1/3
f 106/1/109 138/1/109 137/1/109
f 120/1/110 152/1/110 151/1/110
f 107/1/22 139/1/22 138/1/22
f 121/1/111 153/1/111 152/1/111
f 108/1/24 140/1/24 139/1/24
f 122/1/25 154/1/25 153/1/25
f 109/1/26 141/1/26 140/1/26
f 123/1/27 155/1/27 154/1/27
f 110/1/73 142/1/73 141/1/73
f 124/1/74 156/1/74 155/1/74
f 111/1/75 143/1/75 142/1/75
f 97/1/31 129/1/31 130/1/31
f 125/1/32 157/1/32 156/1/32
f 112/1/33 144/1/33 143/1/33
f 99/1/34 131/1/34 129/1/34
f 126/1/112 158/1/112 157/1/112
f 113/1/2 145/1/2 144/1/2
f 100/1/5 132/1/5 131/1/5
f 127/1/6 159/1/6 158/1/6
f 114/1/7 146/1/7 145/1/7
f 101/1/8 133/1/8 132/1/8
f 128/1/9 160/1/9 159/1/9
f 115/1/10 147/1/10 146/1/10
f 102/1/11 134/1/11 133/1/11
f 98/1/12 130/1/12 160/1/12
f 116/1/13 148/1/13 147/1/13
f 103/1/76 135/1/76 134/1/76
f 117/1/113 149/1/113 148/1/113
f 104/1/16 136/1/16 135/1/16
f 118/1/17 150/1/17 149/1/17
f 105/1/18 137/1/18 136/1/18
