# Blender 4.1.1
# www.blender.org
mtllib Circle.011.mtl
o Pipe.132
v -3785.117920 3142.001221 3103.959961
v -3787.729736 3142.001221 3104.217285
v -3790.241211 3142.001221 3104.979004
v -3792.555908 3142.001221 3106.216064
v -3794.584717 3142.001221 3107.881104
v -3796.249756 3142.001221 3109.909912
v -3797.486816 3142.001221 3112.224609
v -3798.248535 3142.001221 3114.736084
v -3798.505859 3142.001221 3117.347900
v -3798.248535 3142.001221 3119.959717
v -3797.486816 3142.001221 3122.471436
v -3796.249756 3142.001221 3124.786133
v -3794.584717 3142.001221 3126.814697
v -3792.555908 3142.001221 3128.479736
v -3790.241211 3142.001221 3129.716797
v -3787.729736 3142.001221 3130.478516
v -3785.117920 3142.001221 3130.736084
v -3782.506104 3142.001221 3130.478516
v -3779.994385 3142.001221 3129.716797
v -3777.679688 3142.001221 3128.479736
v -3775.651123 3142.001221 3126.814697
v -3773.986084 3142.001221 3124.786133
v -3772.748779 3142.001221 3122.471436
v -3771.987305 3142.001221 3119.959717
v -3771.729736 3142.001221 3117.347900
v -3771.987305 3142.001221 3114.736084
v -3772.748779 3142.001221 3112.224609
v -3773.986084 3142.001221 3109.909912
v -3775.651123 3142.001221 3107.881104
v -3777.679688 3142.001221 3106.216064
v -3779.994385 3142.001221 3104.979004
v -3782.506104 3142.001221 3104.217285
v -3787.729736 3142.001221 3104.217285
v -3785.117920 3142.001221 3103.959961
v -3790.241211 3142.001221 3104.979004
v -3792.555908 3142.001221 3106.216064
v -3794.584717 3142.001221 3107.881104
v -3796.249756 3142.001221 3109.909912
v -3797.486816 3142.001221 3112.224609
v -3798.248535 3142.001221 3114.736084
v -3798.505859 3142.001221 3117.347900
v -3798.248535 3142.001221 3119.959717
v -3797.486816 3142.001221 3122.471436
v -3796.249756 3142.001221 3124.786133
v -3794.584717 3142.001221 3126.814697
v -3792.555908 3142.001221 3128.479736
v -3790.241211 3142.001221 3129.716797
v -3787.729736 3142.001221 3130.478516
v -3785.117920 3142.001221 3130.736084
v -3782.506104 3142.001221 3130.478516
v -3779.994385 3142.001221 3129.716797
v -3777.679688 3142.001221 3128.479736
v -3775.651123 3142.001221 3126.814697
v -3773.986084 3142.001221 3124.786133
v -3772.748779 3142.001221 3122.471436
v -3771.987305 3142.001221 3119.959717
v -3771.729736 3142.001221 3117.347900
v -3771.987305 3142.001221 3114.736084
v -3772.748779 3142.001221 3112.224609
v -3773.986084 3142.001221 3109.909912
v -3775.651123 3142.001221 3107.881104
v -3777.679688 3142.001221 3106.216064
v -3779.994385 3142.001221 3104.979004
v -3782.506104 3142.001221 3104.217285
v -3787.729736 3180.965332 3104.217285
v -3785.117920 3180.965332 3103.959961
v -3790.241211 3180.965332 3104.979004
v -3792.555908 3180.965332 3106.216064
v -3794.584717 3180.965332 3107.881104
v -3796.249756 3180.965332 3109.909912
v -3797.486816 3180.965332 3112.224609
v -3798.248535 3180.965332 3114.736084
v -3798.505859 3180.965332 3117.347900
v -3798.248535 3180.965332 3119.959717
v -3797.486816 3180.965332 3122.471436
v -3796.249756 3180.965332 3124.786133
v -3794.584717 3180.965332 3126.814697
v -3792.555908 3180.965332 3128.479736
v -3790.241211 3180.965332 3129.716797
v -3787.729736 3180.965332 3130.478516
v -3785.117920 3180.965332 3130.736084
v -3782.506104 3180.965332 3130.478516
v -3779.994385 3180.965332 3129.716797
v -3777.679688 3180.965332 3128.479736
v -3775.651123 3180.965332 3126.814697
v -3773.986084 3180.965332 3124.786133
v -3772.748779 3180.965332 3122.471436
v -3771.987305 3180.965332 3119.959717
v -3771.729736 3180.965332 3117.347900
v -3771.987305 3180.965332 3114.736084
v -3772.748779 3180.965332 3112.224609
v -3773.986084 3180.965332 3109.909912
v -3775.651123 3180.965332 3107.881104
v -3777.679688 3180.965332 3106.216064
v -3779.994385 3180.965332 3104.979004
v -3782.506104 3180.965332 3104.217285
v -3789.542480 3181.529297 3095.103760
v -3785.117920 3181.529297 3094.667969
v -3793.796875 3181.529297 3096.394531
v -3797.718018 3181.529297 3098.490479
v -3801.154785 3181.529297 3101.310791
v -3803.975342 3181.529297 3104.747314
v -3806.071045 3181.529297 3108.668701
v -3807.361816 3181.529297 3112.923096
v -3807.797607 3181.529297 3117.347656
v -3807.361816 3181.529297 3121.772217
v -3806.071045 3181.529297 3126.026855
v -3803.975342 3181.529297 3129.947754
v -3801.154785 3181.529297 3133.384521
v -3797.718018 3181.529297 3136.205078
v -3793.796875 3181.529297 3138.300781
v -3789.542480 3181.529297 3139.591553
v -3785.117920 3181.529297 3140.027344
v -3780.693359 3181.529297 3139.591553
v -3776.438965 3181.529297 3138.300781
v -3772.517578 3181.529297 3136.205078
v -3769.081055 3181.529297 3133.384521
v -3766.260254 3181.529297 3129.947754
v -3764.164795 3181.529297 3126.026855
v -3762.873779 3181.529297 3121.772217
v -3762.438232 3181.529297 3117.347656
v -3762.873779 3181.529297 3112.923096
v -3764.164795 3181.529297 3108.668701
v -3766.260254 3181.529297 3104.747314
v -3769.081055 3181.529297 3101.310791
v -3772.517578 3181.529297 3098.490479
v -3776.438965 3181.529297 3096.394531
v -3780.693359 3181.529297 3095.103760
v -3789.542480 3190.371338 3095.103760
v -3785.117920 3190.371338 3094.667969
v -3793.796875 3190.371338 3096.394531
v -3797.718018 3190.371338 3098.490479
v -3801.154785 3190.371338 3101.310791
v -3803.975342 3190.371338 3104.747314
v -3806.071045 3190.371338 3108.668701
v -3807.361816 3190.371338 3112.923096
v -3807.797607 3190.371338 3117.347656
v -3807.361816 3190.371338 3121.772217
v -3806.071045 3190.371338 3126.026855
v -3803.975342 3190.371338 3129.947754
v -3801.154785 3190.371338 3133.384521
v -3797.718018 3190.371338 3136.205078
v -3793.796875 3190.371338 3138.300781
v -3789.542480 3190.371338 3139.591553
v -3785.117920 3190.371338 3140.027344
v -3780.693359 3190.371338 3139.591553
v -3776.438965 3190.371338 3138.300781
v -3772.517578 3190.371338 3136.205078
v -3769.081055 3190.371338 3133.384521
v -3766.260254 3190.371338 3129.947754
v -3764.164795 3190.371338 3126.026855
v -3762.873779 3190.371338 3121.772217
v -3762.438232 3190.371338 3117.347656
v -3762.873779 3190.371338 3112.923096
v -3764.164795 3190.371338 3108.668701
v -3766.260254 3190.371338 3104.747314
v -3769.081055 3190.371338 3101.310791
v -3772.517578 3190.371338 3098.490479
v -3776.438965 3190.371338 3096.394531
v -3780.693359 3190.371338 3095.103760
vn -0.0000 -1.0000 -0.0000
vn -0.9570 -0.0000 -0.2900
vn -0.0000 1.0000 -0.0000
vn -0.0582 -0.9981 0.0177
vn 0.7730 -0.0000 0.6344
vn -0.9952 -0.0000 -0.0981
vn 0.8819 -0.0000 0.4715
vn -0.9952 -0.0000 0.0981
vn 0.9570 -0.0000 0.2900
vn -0.9569 -0.0000 0.2903
vn 0.9951 -0.0000 0.0984
vn -0.8819 -0.0000 0.4715
vn 0.9952 -0.0000 -0.0981
vn -0.7730 -0.0000 0.6344
vn 0.9570 -0.0000 -0.2900
vn -0.6343 -0.0000 0.7730
vn 0.8819 -0.0000 -0.4715
vn -0.4712 -0.0000 0.8820
vn -0.0980 -0.0000 -0.9952
vn 0.7730 -0.0000 -0.6344
vn -0.2903 -0.0000 0.9569
vn -0.2902 -0.0000 -0.9570
vn 0.6343 -0.0000 -0.7730
vn -0.0982 -0.0000 0.9952
vn -0.4714 -0.0000 -0.8819
vn 0.4715 -0.0000 -0.8819
vn 0.0982 -0.0000 0.9952
vn -0.6345 -0.0000 -0.7729
vn 0.2902 -0.0000 -0.9570
vn 0.2903 -0.0000 0.9569
vn -0.7730 -0.0000 -0.6344
vn 0.0980 -0.0000 -0.9952
vn 0.4712 -0.0000 0.8820
vn -0.8820 -0.0000 -0.4712
vn 0.6345 -0.0000 0.7729
vn 0.0980 -0.0000 0.9952
vn 0.0606 -0.9981 0.0060
vn -0.0537 -0.9981 0.0287
vn 0.0606 -0.9981 -0.0060
vn -0.0470 -0.9981 0.0386
vn 0.0583 -0.9981 -0.0177
vn -0.0387 -0.9981 0.0471
vn 0.0537 -0.9981 -0.0287
vn -0.0287 -0.9981 0.0537
vn -0.0060 -0.9981 -0.0606
vn 0.0471 -0.9981 -0.0386
vn -0.0177 -0.9981 0.0583
vn -0.0177 -0.9981 -0.0582
vn 0.0386 -0.9981 -0.0471
vn -0.0059 -0.9981 0.0606
vn -0.0288 -0.9981 -0.0537
vn 0.0287 -0.9981 -0.0537
vn 0.0060 -0.9981 0.0606
vn -0.0386 -0.9981 -0.0471
vn 0.0177 -0.9981 -0.0582
vn 0.0177 -0.9981 0.0583
vn -0.0471 -0.9981 -0.0386
vn 0.0061 -0.9981 -0.0606
vn 0.0286 -0.9981 0.0537
vn -0.0537 -0.9981 -0.0287
vn 0.0387 -0.9981 0.0471
vn -0.0582 -0.9981 -0.0177
vn 0.0471 -0.9981 0.0386
vn -0.0606 -0.9981 -0.0060
vn 0.0538 -0.9981 0.0287
vn -0.0606 -0.9981 0.0060
vn 0.0583 -0.9981 0.0177
vn -0.6343 -0.0000 -0.7731
vn 0.2903 -0.0000 -0.9569
vn 0.4713 -0.0000 0.8820
vn -0.8819 -0.0000 -0.4714
vn -0.9570 -0.0000 -0.2902
vn 0.7729 -0.0000 0.6345
vn -0.9952 -0.0000 -0.0980
vn 0.8820 -0.0000 0.4713
vn -0.9952 -0.0000 0.0982
vn 0.9569 -0.0000 0.2903
vn 0.9952 -0.0000 0.0980
vn -0.8819 -0.0000 0.4714
vn 0.9952 -0.0000 -0.0980
vn -0.7729 -0.0000 0.6345
vn 0.9569 -0.0000 -0.2904
vn -0.6345 -0.0000 0.7729
vn 0.8819 -0.0000 -0.4714
vn -0.4713 -0.0000 0.8820
vn 0.7729 -0.0000 -0.6345
vn -0.2903 -0.0000 -0.9569
vn 0.6344 -0.0000 -0.7730
vn -0.0980 -0.0000 0.9952
vn 0.4714 -0.0000 -0.8819
vn -0.0001 -1.0000 -0.0000
vn 0.0007 -1.0000 -0.0000
vn 0.0001 -1.0000 -0.0000
vn -0.0007 -1.0000 -0.0000
vn -0.0002 -1.0000 -0.0000
vn 0.0002 -1.0000 -0.0000
vn -0.9569 -0.0000 -0.2903
vn -0.0583 -0.9981 0.0177
vn -0.9570 -0.0000 0.2900
vn 0.9952 -0.0000 0.0981
vn -0.8820 -0.0000 0.4712
vn 0.9951 -0.0000 -0.0984
vn -0.4714 -0.0000 0.8819
vn -0.0981 -0.0000 -0.9952
vn -0.2902 -0.0000 0.9570
vn 0.6345 -0.0000 -0.7729
vn -0.0981 -0.0000 0.9952
vn -0.4712 -0.0000 -0.8820
vn 0.4712 -0.0000 -0.8820
vn 0.0981 -0.0000 0.9952
vn -0.6343 -0.0000 -0.7730
vn 0.2902 -0.0000 0.9570
vn 0.0981 -0.0000 -0.9952
vn 0.4715 -0.0000 0.8819
vn -0.8819 -0.0000 -0.4715
vn 0.6343 -0.0000 0.7730
vn -0.0471 -0.9981 0.0386
vn 0.0582 -0.9981 -0.0177
vn -0.0386 -0.9981 0.0471
vn -0.0286 -0.9981 0.0537
vn -0.0061 -0.9981 -0.0606
vn -0.0177 -0.9981 0.0582
vn -0.0177 -0.9981 -0.0583
vn -0.0060 -0.9981 0.0606
vn -0.0287 -0.9981 -0.0537
vn 0.0288 -0.9981 -0.0537
vn 0.0059 -0.9981 0.0606
vn -0.0386 -0.9981 -0.0470
vn 0.0177 -0.9981 -0.0583
vn 0.0177 -0.9981 0.0582
vn 0.0060 -0.9981 -0.0606
vn 0.0287 -0.9981 0.0537
vn -0.0583 -0.9981 -0.0177
vn 0.0470 -0.9981 0.0386
vn 0.0537 -0.9981 0.0287
vn 0.0582 -0.9981 0.0177
vn 0.0003 1.0000 -0.0000
vn 0.0005 1.0000 -0.0000
vn -0.0005 1.0000 -0.0000
vn 0.0001 1.0000 -0.0000
vn -0.0003 1.0000 -0.0000
vn -0.0001 1.0000 -0.0000
vn -0.6344 -0.0000 -0.7730
vn 0.2904 -0.0000 -0.9569
vn 0.2904 -0.0000 0.9569
vn -0.7729 -0.0000 -0.6345
vn 0.4714 -0.0000 0.8819
vn -0.9952 -0.0000 -0.0982
vn 0.8819 -0.0000 0.4714
vn -0.9952 -0.0000 0.0980
vn -0.9570 -0.0000 0.2902
vn 0.9569 -0.0000 -0.2903
vn -0.6344 -0.0000 0.7730
vn 0.8820 -0.0000 -0.4712
vn -0.2904 -0.0000 0.9569
vn -0.2904 -0.0000 -0.9569
vn 0.4713 -0.0000 -0.8820
vt 0.000000 0.000000
s 0
usemtl Material.003
f 19/1/1 11/1/1 3/1/1
f 40/1/2 71/1/2 39/1/2
f 26/1/3 59/1/3 58/1/3
f 13/1/3 46/1/3 45/1/3
f 27/1/3 60/1/3 59/1/3
f 14/1/3 47/1/3 46/1/3
f 1/1/3 33/1/3 34/1/3
f 28/1/3 61/1/3 60/1/3
f 15/1/3 48/1/3 47/1/3
f 2/1/3 35/1/3 33/1/3
f 29/1/3 62/1/3 61/1/3
f 16/1/3 49/1/3 48/1/3
f 3/1/3 36/1/3 35/1/3
f 30/1/3 63/1/3 62/1/3
f 17/1/3 50/1/3 49/1/3
f 4/1/3 37/1/3 36/1/3
f 31/1/3 64/1/3 63/1/3
f 18/1/3 51/1/3 50/1/3
f 5/1/3 38/1/3 37/1/3
f 32/1/3 34/1/3 64/1/3
f 19/1/3 52/1/3 51/1/3
f 6/1/3 39/1/3 38/1/3
f 20/1/3 53/1/3 52/1/3
f 7/1/3 40/1/3 39/1/3
f 21/1/3 54/1/3 53/1/3
f 8/1/3 41/1/3 40/1/3
f 22/1/3 55/1/3 54/1/3
f 9/1/3 42/1/3 41/1/3
f 23/1/3 56/1/3 55/1/3
f 10/1/3 43/1/3 42/1/3
f 24/1/3 57/1/3 56/1/3
f 11/1/3 44/1/3 43/1/3
f 25/1/3 58/1/3 57/1/3
f 12/1/3 45/1/3 44/1/3
f 75/1/4 106/1/4 74/1/4
f 54/1/5 85/1/5 53/1/5
f 41/1/6 72/1/6 40/1/6
f 55/1/7 86/1/7 54/1/7
f 42/1/8 73/1/8 41/1/8
f 56/1/9 87/1/9 55/1/9
f 43/1/10 74/1/10 42/1/10
f 57/1/11 88/1/11 56/1/11
f 44/1/12 75/1/12 43/1/12
f 58/1/13 89/1/13 57/1/13
f 45/1/14 76/1/14 44/1/14
f 59/1/15 90/1/15 58/1/15
f 46/1/16 77/1/16 45/1/16
f 60/1/17 91/1/17 59/1/17
f 47/1/18 78/1/18 46/1/18
f 33/1/19 66/1/19 34/1/19
f 61/1/20 92/1/20 60/1/20
f 48/1/21 79/1/21 47/1/21
f 35/1/22 65/1/22 33/1/22
f 62/1/23 93/1/23 61/1/23
f 49/1/24 80/1/24 48/1/24
f 36/1/25 67/1/25 35/1/25
f 63/1/26 94/1/26 62/1/26
f 50/1/27 81/1/27 49/1/27
f 37/1/28 68/1/28 36/1/28
f 64/1/29 95/1/29 63/1/29
f 51/1/30 82/1/30 50/1/30
f 38/1/31 69/1/31 37/1/31
f 34/1/32 96/1/32 64/1/32
f 52/1/33 83/1/33 51/1/33
f 39/1/34 70/1/34 38/1/34
f 53/1/35 84/1/35 52/1/35
f 114/1/36 145/1/36 113/1/36
f 89/1/37 120/1/37 88/1/37
f 76/1/38 107/1/38 75/1/38
f 89/1/39 122/1/39 121/1/39
f 76/1/40 109/1/40 108/1/40
f 91/1/41 122/1/41 90/1/41
f 77/1/42 110/1/42 109/1/42
f 92/1/43 123/1/43 91/1/43
f 78/1/44 111/1/44 110/1/44
f 66/1/45 97/1/45 98/1/45
f 93/1/46 124/1/46 92/1/46
f 80/1/47 111/1/47 79/1/47
f 67/1/48 97/1/48 65/1/48
f 94/1/49 125/1/49 93/1/49
f 81/1/50 112/1/50 80/1/50
f 68/1/51 99/1/51 67/1/51
f 94/1/52 127/1/52 126/1/52
f 81/1/53 114/1/53 113/1/53
f 68/1/54 101/1/54 100/1/54
f 95/1/55 128/1/55 127/1/55
f 83/1/56 114/1/56 82/1/56
f 69/1/57 102/1/57 101/1/57
f 66/1/58 128/1/58 96/1/58
f 84/1/59 115/1/59 83/1/59
f 70/1/60 103/1/60 102/1/60
f 84/1/61 117/1/61 116/1/61
f 71/1/62 104/1/62 103/1/62
f 86/1/63 117/1/63 85/1/63
f 73/1/64 104/1/64 72/1/64
f 87/1/65 118/1/65 86/1/65
f 73/1/66 106/1/66 105/1/66
f 87/1/67 120/1/67 119/1/67
f 145/1/3 153/1/3 130/1/3
f 101/1/68 132/1/68 100/1/68
f 128/1/69 159/1/69 127/1/69
f 115/1/30 146/1/30 114/1/30
f 102/1/31 133/1/31 101/1/31
f 98/1/32 160/1/32 128/1/32
f 116/1/70 147/1/70 115/1/70
f 103/1/71 134/1/71 102/1/71
f 117/1/35 148/1/35 116/1/35
f 104/1/72 135/1/72 103/1/72
f 118/1/73 149/1/73 117/1/73
f 105/1/74 136/1/74 104/1/74
f 119/1/75 150/1/75 118/1/75
f 106/1/76 137/1/76 105/1/76
f 120/1/77 151/1/77 119/1/77
f 107/1/10 138/1/10 106/1/10
f 121/1/78 152/1/78 120/1/78
f 108/1/79 139/1/79 107/1/79
f 122/1/80 153/1/80 121/1/80
f 109/1/81 140/1/81 108/1/81
f 123/1/82 154/1/82 122/1/82
f 110/1/83 141/1/83 109/1/83
f 124/1/84 155/1/84 123/1/84
f 111/1/85 142/1/85 110/1/85
f 97/1/19 130/1/19 98/1/19
f 125/1/86 156/1/86 124/1/86
f 112/1/21 143/1/21 111/1/21
f 99/1/87 129/1/87 97/1/87
f 126/1/88 157/1/88 125/1/88
f 113/1/89 144/1/89 112/1/89
f 100/1/25 131/1/25 99/1/25
f 127/1/90 158/1/90 126/1/90
f 3/1/91 2/1/91 1/1/91
f 1/1/1 32/1/1 31/1/1
f 31/1/1 30/1/1 29/1/1
f 29/1/1 28/1/1 27/1/1
f 27/1/1 26/1/1 25/1/1
f 25/1/1 24/1/1 23/1/1
f 23/1/92 22/1/92 21/1/92
f 21/1/1 20/1/1 19/1/1
f 19/1/93 18/1/93 17/1/93
f 17/1/1 16/1/1 15/1/1
f 15/1/1 14/1/1 13/1/1
f 13/1/94 12/1/94 11/1/94
f 11/1/1 10/1/1 9/1/1
f 9/1/92 8/1/92 7/1/92
f 7/1/1 6/1/1 5/1/1
f 5/1/1 4/1/1 3/1/1
f 3/1/1 1/1/1 31/1/1
f 31/1/1 29/1/1 27/1/1
f 27/1/95 25/1/95 23/1/95
f 23/1/1 21/1/1 19/1/1
f 19/1/1 17/1/1 15/1/1
f 15/1/1 13/1/1 11/1/1
f 11/1/96 9/1/96 7/1/96
f 7/1/1 5/1/1 3/1/1
f 3/1/1 31/1/1 27/1/1
f 27/1/93 23/1/93 19/1/93
f 19/1/1 15/1/1 11/1/1
f 11/1/1 7/1/1 3/1/1
f 3/1/1 27/1/1 19/1/1
f 40/1/97 72/1/97 71/1/97
f 26/1/3 27/1/3 59/1/3
f 13/1/3 14/1/3 46/1/3
f 27/1/3 28/1/3 60/1/3
f 14/1/3 15/1/3 47/1/3
f 1/1/3 2/1/3 33/1/3
f 28/1/3 29/1/3 61/1/3
f 15/1/3 16/1/3 48/1/3
f 2/1/3 3/1/3 35/1/3
f 29/1/3 30/1/3 62/1/3
f 16/1/3 17/1/3 49/1/3
f 3/1/3 4/1/3 36/1/3
f 30/1/3 31/1/3 63/1/3
f 17/1/3 18/1/3 50/1/3
f 4/1/3 5/1/3 37/1/3
f 31/1/3 32/1/3 64/1/3
f 18/1/3 19/1/3 51/1/3
f 5/1/3 6/1/3 38/1/3
f 32/1/3 1/1/3 34/1/3
f 19/1/3 20/1/3 52/1/3
f 6/1/3 7/1/3 39/1/3
f 20/1/3 21/1/3 53/1/3
f 7/1/3 8/1/3 40/1/3
f 21/1/3 22/1/3 54/1/3
f 8/1/3 9/1/3 41/1/3
f 22/1/3 23/1/3 55/1/3
f 9/1/3 10/1/3 42/1/3
f 23/1/3 24/1/3 56/1/3
f 10/1/3 11/1/3 43/1/3
f 24/1/3 25/1/3 57/1/3
f 11/1/3 12/1/3 44/1/3
f 25/1/3 26/1/3 58/1/3
f 12/1/3 13/1/3 45/1/3
f 75/1/98 107/1/98 106/1/98
f 54/1/5 86/1/5 85/1/5
f 41/1/6 73/1/6 72/1/6
f 55/1/7 87/1/7 86/1/7
f 42/1/8 74/1/8 73/1/8
f 56/1/9 88/1/9 87/1/9
f 43/1/99 75/1/99 74/1/99
f 57/1/100 89/1/100 88/1/100
f 44/1/101 76/1/101 75/1/101
f 58/1/102 90/1/102 89/1/102
f 45/1/14 77/1/14 76/1/14
f 59/1/15 91/1/15 90/1/15
f 46/1/83 78/1/83 77/1/83
f 60/1/17 92/1/17 91/1/17
f 47/1/103 79/1/103 78/1/103
f 33/1/104 65/1/104 66/1/104
f 61/1/20 93/1/20 92/1/20
f 48/1/105 80/1/105 79/1/105
f 35/1/87 67/1/87 65/1/87
f 62/1/106 94/1/106 93/1/106
f 49/1/107 81/1/107 80/1/107
f 36/1/108 68/1/108 67/1/108
f 63/1/109 95/1/109 94/1/109
f 50/1/110 82/1/110 81/1/110
f 37/1/111 69/1/111 68/1/111
f 64/1/69 96/1/69 95/1/69
f 51/1/112 83/1/112 82/1/112
f 38/1/31 70/1/31 69/1/31
f 34/1/113 66/1/113 96/1/113
f 52/1/114 84/1/114 83/1/114
f 39/1/115 71/1/115 70/1/115
f 53/1/116 85/1/116 84/1/116
f 114/1/36 146/1/36 145/1/36
f 89/1/37 121/1/37 120/1/37
f 76/1/38 108/1/38 107/1/38
f 89/1/39 90/1/39 122/1/39
f 76/1/117 77/1/117 109/1/117
f 91/1/118 123/1/118 122/1/118
f 77/1/119 78/1/119 110/1/119
f 92/1/43 124/1/43 123/1/43
f 78/1/120 79/1/120 111/1/120
f 66/1/121 65/1/121 97/1/121
f 93/1/46 125/1/46 124/1/46
f 80/1/122 112/1/122 111/1/122
f 67/1/123 99/1/123 97/1/123
f 94/1/49 126/1/49 125/1/49
f 81/1/124 113/1/124 112/1/124
f 68/1/125 100/1/125 99/1/125
f 94/1/126 95/1/126 127/1/126
f 81/1/127 82/1/127 114/1/127
f 68/1/128 69/1/128 101/1/128
f 95/1/129 96/1/129 128/1/129
f 83/1/130 115/1/130 114/1/130
f 69/1/57 70/1/57 102/1/57
f 66/1/131 98/1/131 128/1/131
f 84/1/132 116/1/132 115/1/132
f 70/1/60 71/1/60 103/1/60
f 84/1/61 85/1/61 117/1/61
f 71/1/133 72/1/133 104/1/133
f 86/1/134 118/1/134 117/1/134
f 73/1/64 105/1/64 104/1/64
f 87/1/135 119/1/135 118/1/135
f 73/1/66 74/1/66 106/1/66
f 87/1/136 88/1/136 120/1/136
f 130/1/137 129/1/137 131/1/137
f 131/1/3 132/1/3 133/1/3
f 133/1/138 134/1/138 135/1/138
f 135/1/3 136/1/3 137/1/3
f 137/1/139 138/1/139 139/1/139
f 139/1/139 140/1/139 141/1/139
f 141/1/3 142/1/3 143/1/3
f 143/1/140 144/1/140 145/1/140
f 145/1/141 146/1/141 147/1/141
f 147/1/3 148/1/3 149/1/3
f 149/1/138 150/1/138 151/1/138
f 151/1/138 152/1/138 153/1/138
f 153/1/3 154/1/3 155/1/3
f 155/1/139 156/1/139 157/1/139
f 157/1/137 158/1/137 159/1/137
f 159/1/142 160/1/142 130/1/142
f 130/1/142 131/1/142 133/1/142
f 133/1/3 135/1/3 137/1/3
f 137/1/140 139/1/140 141/1/140
f 141/1/3 143/1/3 145/1/3
f 145/1/140 147/1/140 149/1/140
f 149/1/142 151/1/142 153/1/142
f 153/1/3 155/1/3 157/1/3
f 157/1/3 159/1/3 130/1/3
f 130/1/3 133/1/3 137/1/3
f 137/1/3 141/1/3 145/1/3
f 145/1/3 149/1/3 153/1/3
f 153/1/3 157/1/3 130/1/3
f 130/1/3 137/1/3 145/1/3
f 101/1/143 133/1/143 132/1/143
f 128/1/144 160/1/144 159/1/144
f 115/1/145 147/1/145 146/1/145
f 102/1/146 134/1/146 133/1/146
f 98/1/32 130/1/32 160/1/32
f 116/1/147 148/1/147 147/1/147
f 103/1/71 135/1/71 134/1/71
f 117/1/35 149/1/35 148/1/35
f 104/1/97 136/1/97 135/1/97
f 118/1/73 150/1/73 149/1/73
f 105/1/148 137/1/148 136/1/148
f 119/1/149 151/1/149 150/1/149
f 106/1/150 138/1/150 137/1/150
f 120/1/77 152/1/77 151/1/77
f 107/1/151 139/1/151 138/1/151
f 121/1/78 153/1/78 152/1/78
f 108/1/79 140/1/79 139/1/79
f 122/1/80 154/1/80 153/1/80
f 109/1/14 141/1/14 140/1/14
f 123/1/152 155/1/152 154/1/152
f 110/1/153 142/1/153 141/1/153
f 124/1/154 156/1/154 155/1/154
f 111/1/103 143/1/103 142/1/103
f 97/1/19 129/1/19 130/1/19
f 125/1/86 157/1/86 156/1/86
f 112/1/155 144/1/155 143/1/155
f 99/1/156 131/1/156 129/1/156
f 126/1/88 158/1/88 157/1/88
f 113/1/89 145/1/89 144/1/89
f 100/1/25 132/1/25 131/1/25
f 127/1/157 159/1/157 158/1/157
