# Blender 4.1.1
# www.blender.org
mtllib ID248.mtl
o n17b2
v -6600.000000 5133.330078 -1045.000000
v 2566.669922 5133.330078 -1045.000000
v -24933.300781 -4033.329834 -1045.000000
v -15766.700195 -4033.329834 -1045.000000
v -6600.000000 -4033.329834 -1045.000000
v 2566.669922 -4033.329834 -1045.000000
v -24933.300781 -13200.000000 -1045.000000
v -15766.700195 -13200.000000 -1045.000000
v 2566.669922 -13200.000000 -1045.000000
v 11733.299805 -13200.000000 -1045.000000
v -24933.300781 -22366.701172 -1045.000000
v -15766.700195 -22366.701172 -1045.000000
v -15766.700195 -31533.300781 -1045.000000
v -24933.300781 -26584.500000 -1045.000000
v -27571.599609 -22366.701172 -1045.000000
v -29132.500000 -13200.000000 -1045.000000
v -30084.900391 -4033.329834 -1045.000000
v -13702.000000 -30771.701172 -1045.000000
v -12734.799805 -22366.701172 -1045.000000
v -12777.700195 -13200.000000 -1045.000000
v -6600.000000 -8392.069336 -1045.000000
v 2566.669922 -8353.240234 -1045.000000
v 2566.669922 -15977.299805 -1045.000000
v 11733.299805 -15997.900391 -1045.000000
v 15820.000000 -13200.000000 -1045.000000
v 16293.600586 -4033.329834 -1045.000000
v -11643.700195 -4033.329834 -1045.000000
v -11645.400391 5133.330078 -1045.000000
v -11651.700195 10447.799805 -1045.000000
v -6600.000000 10404.900391 -1045.000000
v 2566.669922 10241.500000 -1045.000000
v 6028.119629 10264.200195 -1045.000000
v 5947.589844 5133.330078 -1045.000000
v 6106.200195 -4033.329834 -1045.000000
v 11733.299805 -9838.100586 -1045.000000
vn -0.0000 -0.0000 -1.0000
vt 13.333300 10.000000
vt 16.666700 10.000000
vt 13.333300 11.009900
vt 16.666700 8.777490
vt 13.333300 8.237540
vt 14.620399 6.666670
vt 13.333300 6.666670
vt 14.562799 3.333330
vt 13.333300 3.333330
vt 13.333300 1.475810
vt 10.000000 3.333330
vt 10.000000 1.416380
vt 8.165299 3.333330
vt 8.163020 1.400820
vt 7.753560 10.000000
vt 8.165920 6.666670
vt 10.000000 8.251659
vt 6.666670 6.666670
vt 6.666670 10.000000
vt 3.333330 10.000000
vt 3.333330 13.333300
vt 2.373980 13.333300
vt 3.333330 14.867100
vt 10.000000 6.666670
vt 18.152700 10.000000
vt 18.419399 6.666670
vt 16.666700 11.017400
vt 1.806380 10.000000
vt 3.333330 6.666670
vt 1.460030 6.666670
vt 6.666670 13.333300
vt 7.769180 13.333300
vt 7.417450 16.389700
vt 6.666670 16.666700
vt 14.592001 1.467570
s 0
usemtl m17
f 9/1/1 10/2/1 23/3/1
f 10/2/1 9/1/1 35/4/1
f 22/5/1 35/4/1 9/1/1
f 35/4/1 22/5/1 34/6/1
f 6/7/1 34/6/1 22/5/1
f 34/6/1 6/7/1 33/8/1
f 2/9/1 33/8/1 6/7/1
f 33/8/1 2/9/1 31/10/1
f 1/11/1 31/10/1 2/9/1
f 31/10/1 1/11/1 30/12/1
f 28/13/1 30/12/1 1/11/1
f 30/12/1 28/13/1 29/14/1
f 20/15/1 27/16/1 21/17/1
f 27/16/1 20/15/1 4/18/1
f 8/19/1 4/18/1 20/15/1
f 4/18/1 8/19/1 7/20/1
f 11/21/1 7/20/1 8/19/1
f 7/20/1 11/21/1 15/22/1
f 14/23/1 15/22/1 11/21/1
f 21/17/1 6/7/1 22/5/1
f 6/7/1 21/17/1 5/24/1
f 27/16/1 5/24/1 21/17/1
f 5/24/1 27/16/1 1/11/1
f 28/13/1 1/11/1 27/16/1
f 25/25/1 35/4/1 26/26/1
f 35/4/1 25/25/1 10/2/1
f 24/27/1 10/2/1 25/25/1
f 10/2/1 24/27/1 23/3/1
f 16/28/1 7/20/1 15/22/1
f 7/20/1 16/28/1 3/29/1
f 17/30/1 3/29/1 16/28/1
f 12/31/1 20/15/1 19/32/1
f 20/15/1 12/31/1 8/19/1
f 11/21/1 8/19/1 12/31/1
f 18/33/1 12/31/1 19/32/1
f 12/31/1 18/33/1 13/34/1
f 12/31/1 14/23/1 11/21/1
f 14/23/1 12/31/1 13/34/1
f 3/29/1 4/18/1 7/20/1
f 32/35/1 33/8/1 31/10/1
