# Blender 4.1.1
# www.blender.org
mtllib Circle.020.mtl
o Pipe.141
v -1539.916504 2284.608154 -701.780640
v -1542.528198 2284.608154 -701.523438
v -1545.039917 2284.608154 -700.761597
v -1547.354370 2284.608154 -699.524414
v -1549.383301 2284.608154 -697.859436
v -1551.048096 2284.608154 -695.830688
v -1552.285278 2284.608154 -693.516052
v -1553.047119 2284.608154 -691.004578
v -1553.304321 2284.608154 -688.392700
v -1553.047119 2284.608154 -685.780884
v -1552.285278 2284.608154 -683.269348
v -1551.048096 2284.608154 -680.954773
v -1549.383301 2284.608154 -678.925964
v -1547.354370 2284.608154 -677.260986
v -1545.039917 2284.608154 -676.023804
v -1542.528198 2284.608154 -675.262024
v -1539.916504 2284.608154 -675.004761
v -1537.304688 2284.608154 -675.262024
v -1534.792969 2284.608154 -676.023804
v -1532.478516 2284.608154 -677.260986
v -1530.449707 2284.608154 -678.925964
v -1528.784790 2284.608154 -680.954773
v -1527.547607 2284.608154 -683.269348
v -1526.785767 2284.608154 -685.780884
v -1526.528564 2284.608154 -688.392700
v -1526.785767 2284.608154 -691.004578
v -1527.547607 2284.608154 -693.516052
v -1528.784790 2284.608154 -695.830688
v -1530.449707 2284.608154 -697.859436
v -1532.478516 2284.608154 -699.524414
v -1534.792969 2284.608154 -700.761597
v -1537.304688 2284.608154 -701.523438
v -1542.528198 2284.608154 -701.523438
v -1539.916504 2284.608154 -701.780640
v -1545.039917 2284.608154 -700.761597
v -1547.354370 2284.608154 -699.524414
v -1549.383301 2284.608154 -697.859436
v -1551.048096 2284.608154 -695.830688
v -1552.285278 2284.608154 -693.516052
v -1553.047119 2284.608154 -691.004578
v -1553.304321 2284.608154 -688.392700
v -1553.047119 2284.608154 -685.780884
v -1552.285278 2284.608154 -683.269348
v -1551.048096 2284.608154 -680.954773
v -1549.383301 2284.608154 -678.925964
v -1547.354370 2284.608154 -677.260986
v -1545.039917 2284.608154 -676.023804
v -1542.528198 2284.608154 -675.262024
v -1539.916504 2284.608154 -675.004761
v -1537.304688 2284.608154 -675.262024
v -1534.792969 2284.608154 -676.023804
v -1532.478516 2284.608154 -677.260986
v -1530.449707 2284.608154 -678.925964
v -1528.784790 2284.608154 -680.954773
v -1527.547607 2284.608154 -683.269348
v -1526.785767 2284.608154 -685.780884
v -1526.528564 2284.608154 -688.392700
v -1526.785767 2284.608154 -691.004578
v -1527.547607 2284.608154 -693.516052
v -1528.784790 2284.608154 -695.830688
v -1530.449707 2284.608154 -697.859436
v -1532.478516 2284.608154 -699.524414
v -1534.792969 2284.608154 -700.761597
v -1537.304688 2284.608154 -701.523438
v -1542.528198 2323.572510 -701.523438
v -1539.916504 2323.572510 -701.780640
v -1545.039917 2323.572510 -700.761597
v -1547.354370 2323.572510 -699.524414
v -1549.383301 2323.572510 -697.859436
v -1551.048096 2323.572510 -695.830688
v -1552.285278 2323.572510 -693.516052
v -1553.047119 2323.572510 -691.004578
v -1553.304321 2323.572510 -688.392700
v -1553.047119 2323.572510 -685.780884
v -1552.285278 2323.572510 -683.269348
v -1551.048096 2323.572510 -680.954773
v -1549.383301 2323.572510 -678.925964
v -1547.354370 2323.572510 -677.260986
v -1545.039917 2323.572510 -676.023804
v -1542.528198 2323.572510 -675.262024
v -1539.916504 2323.572510 -675.004761
v -1537.304688 2323.572510 -675.262024
v -1534.792969 2323.572510 -676.023804
v -1532.478516 2323.572510 -677.260986
v -1530.449707 2323.572510 -678.925964
v -1528.784790 2323.572510 -680.954773
v -1527.547607 2323.572510 -683.269348
v -1526.785767 2323.572510 -685.780884
v -1526.528564 2323.572510 -688.392700
v -1526.785767 2323.572510 -691.004578
v -1527.547607 2323.572510 -693.516052
v -1528.784790 2323.572510 -695.830688
v -1530.449707 2323.572510 -697.859436
v -1532.478516 2323.572510 -699.524414
v -1534.792969 2323.572510 -700.761597
v -1537.304688 2323.572510 -701.523438
v -1544.340942 2324.136475 -710.636841
v -1539.916504 2324.136475 -711.072632
v -1548.595581 2324.136475 -709.346252
v -1552.516479 2324.136475 -707.250427
v -1555.953369 2324.136475 -704.429871
v -1558.773804 2324.136475 -700.993164
v -1560.869751 2324.136475 -697.072144
v -1562.160278 2324.136475 -692.817566
v -1562.596069 2324.136475 -688.393005
v -1562.160278 2324.136475 -683.968445
v -1560.869751 2324.136475 -679.713867
v -1558.773804 2324.136475 -675.792847
v -1555.953369 2324.136475 -672.356079
v -1552.516479 2324.136475 -669.535522
v -1548.595581 2324.136475 -667.439758
v -1544.340942 2324.136475 -666.149109
v -1539.916504 2324.136475 -665.713379
v -1535.491943 2324.136475 -666.149109
v -1531.237305 2324.136475 -667.439758
v -1527.316406 2324.136475 -669.535522
v -1523.879517 2324.136475 -672.356079
v -1521.059082 2324.136475 -675.792847
v -1518.963135 2324.136475 -679.713867
v -1517.672729 2324.136475 -683.968445
v -1517.236816 2324.136475 -688.393005
v -1517.672729 2324.136475 -692.817566
v -1518.963135 2324.136475 -697.072144
v -1521.059082 2324.136475 -700.993164
v -1523.879517 2324.136475 -704.429871
v -1527.316406 2324.136475 -707.250427
v -1531.237305 2324.136475 -709.346252
v -1535.491943 2324.136475 -710.636841
v -1544.340942 2332.978271 -710.636841
v -1539.916504 2332.978271 -711.072632
v -1548.595581 2332.978271 -709.346252
v -1552.516479 2332.978271 -707.250427
v -1555.953369 2332.978271 -704.429871
v -1558.773804 2332.978271 -700.993164
v -1560.869751 2332.978271 -697.072144
v -1562.160278 2332.978271 -692.817566
v -1562.596069 2332.978271 -688.393005
v -1562.160278 2332.978271 -683.968445
v -1560.869751 2332.978271 -679.713867
v -1558.773804 2332.978271 -675.792847
v -1555.953369 2332.978271 -672.356079
v -1552.516479 2332.978271 -669.535522
v -1548.595581 2332.978271 -667.439758
v -1544.340942 2332.978271 -666.149109
v -1539.916504 2332.978271 -665.713379
v -1535.491943 2332.978271 -666.149109
v -1531.237305 2332.978271 -667.439758
v -1527.316406 2332.978271 -669.535522
v -1523.879517 2332.978271 -672.356079
v -1521.059082 2332.978271 -675.792847
v -1518.963135 2332.978271 -679.713867
v -1517.672729 2332.978271 -683.968445
v -1517.236816 2332.978271 -688.393005
v -1517.672729 2332.978271 -692.817566
v -1518.963135 2332.978271 -697.072144
v -1521.059082 2332.978271 -700.993164
v -1523.879517 2332.978271 -704.429871
v -1527.316406 2332.978271 -707.250427
v -1531.237305 2332.978271 -709.346252
v -1535.491943 2332.978271 -710.636841
vn -0.0000 -1.0000 -0.0000
vn -0.9569 -0.0000 -0.2903
vn -0.0000 1.0000 -0.0000
vn -0.0582 -0.9981 0.0177
vn 0.7730 -0.0000 0.6344
vn -0.9952 -0.0000 -0.0980
vn 0.8819 -0.0000 0.4714
vn -0.9952 -0.0000 0.0979
vn 0.9570 -0.0000 0.2902
vn -0.9570 -0.0000 0.2902
vn 0.9952 -0.0000 0.0979
vn -0.8819 -0.0000 0.4714
vn 0.9952 -0.0000 -0.0980
vn -0.7730 -0.0000 0.6343
vn 0.9569 -0.0000 -0.2903
vn -0.6344 -0.0000 0.7730
vn 0.8819 -0.0000 -0.4714
vn -0.4714 -0.0000 0.8819
vn -0.0980 -0.0000 -0.9952
vn 0.7730 -0.0000 -0.6344
vn -0.2902 -0.0000 0.9570
vn -0.2903 -0.0000 -0.9569
vn 0.6344 -0.0000 -0.7730
vn -0.0980 -0.0000 0.9952
vn -0.4714 -0.0000 -0.8819
vn 0.4714 -0.0000 -0.8819
vn 0.0980 -0.0000 0.9952
vn -0.6343 -0.0000 -0.7731
vn 0.2903 -0.0000 -0.9569
vn 0.2902 -0.0000 0.9570
vn -0.7730 -0.0000 -0.6344
vn 0.0980 -0.0000 -0.9952
vn 0.4714 -0.0000 0.8819
vn -0.8819 -0.0000 -0.4714
vn 0.6344 -0.0000 0.7730
vn 0.0607 -0.9981 0.0060
vn -0.0537 -0.9981 0.0287
vn 0.0606 -0.9981 -0.0060
vn -0.0470 -0.9981 0.0386
vn 0.0583 -0.9981 -0.0177
vn -0.0386 -0.9981 0.0471
vn 0.0537 -0.9981 -0.0287
vn -0.0288 -0.9981 0.0537
vn -0.0060 -0.9981 -0.0606
vn 0.0471 -0.9981 -0.0386
vn -0.0177 -0.9981 0.0583
vn -0.0177 -0.9981 -0.0583
vn 0.0386 -0.9981 -0.0471
vn -0.0059 -0.9981 0.0606
vn -0.0287 -0.9981 -0.0537
vn 0.0288 -0.9981 -0.0537
vn 0.0059 -0.9981 0.0606
vn -0.0386 -0.9981 -0.0471
vn 0.0176 -0.9981 -0.0583
vn 0.0177 -0.9981 0.0583
vn -0.0470 -0.9981 -0.0386
vn 0.0060 -0.9981 -0.0606
vn 0.0288 -0.9981 0.0537
vn -0.0537 -0.9981 -0.0287
vn 0.0387 -0.9981 0.0471
vn -0.0582 -0.9981 -0.0177
vn 0.0471 -0.9981 0.0386
vn -0.0606 -0.9981 -0.0060
vn 0.0536 -0.9982 0.0287
vn -0.0606 -0.9981 0.0060
vn 0.0583 -0.9981 0.0177
vn -0.6344 -0.0000 -0.7730
vn 0.2903 -0.0000 0.9569
vn -0.9570 -0.0000 -0.2903
vn -0.9952 -0.0000 0.0980
vn 0.9570 -0.0000 0.2903
vn -0.9570 -0.0000 0.2903
vn 0.9952 -0.0000 0.0980
vn 0.9952 -0.0000 -0.0981
vn -0.7730 -0.0000 0.6344
vn 0.9570 -0.0000 -0.2902
vn -0.2903 -0.0000 0.9569
vn -0.0001 -1.0000 -0.0000
vn 0.0002 -1.0000 -0.0000
vn 0.0007 -1.0000 -0.0000
vn 0.0001 -1.0000 -0.0000
vn -0.0002 -1.0000 -0.0000
vn -0.0007 -1.0000 -0.0000
vn -0.9570 -0.0000 -0.2902
vn -0.0583 -0.9981 0.0177
vn 0.7731 -0.0000 0.6343
vn -0.9952 -0.0000 -0.0979
vn 0.9569 -0.0000 0.2903
vn -0.9569 -0.0000 0.2903
vn 0.9952 -0.0000 -0.0979
vn -0.7731 -0.0000 0.6343
vn -0.6343 -0.0000 0.7731
vn 0.0606 -0.9981 0.0060
vn -0.0536 -0.9982 0.0287
vn -0.0471 -0.9981 0.0386
vn 0.0582 -0.9981 -0.0177
vn -0.0387 -0.9981 0.0471
vn -0.0287 -0.9981 0.0537
vn -0.0059 -0.9981 -0.0606
vn 0.0470 -0.9981 -0.0386
vn -0.0176 -0.9981 -0.0583
vn -0.0288 -0.9981 -0.0537
vn 0.0287 -0.9981 -0.0537
vn 0.0177 -0.9981 -0.0583
vn -0.0471 -0.9981 -0.0386
vn 0.0059 -0.9981 -0.0606
vn 0.0286 -0.9981 0.0537
vn 0.0386 -0.9981 0.0471
vn -0.0583 -0.9981 -0.0177
vn 0.0537 -0.9981 0.0287
vn -0.0607 -0.9981 0.0060
vn 0.0582 -0.9981 0.0177
vn -0.0001 1.0000 -0.0000
vn 0.0003 1.0000 -0.0000
vn -0.0005 1.0000 -0.0000
vn -0.0003 1.0000 -0.0000
vn 0.0005 1.0000 -0.0000
vn 0.0001 1.0000 -0.0000
vn -0.8819 -0.0000 -0.4715
vn 0.7730 -0.0000 0.6343
vn 0.8819 -0.0000 0.4715
vn 0.9952 -0.0000 0.0981
vt 0.000000 0.000000
s 0
usemtl Material.003
f 19/1/1 11/1/1 3/1/1
f 40/1/2 71/1/2 39/1/2
f 26/1/3 59/1/3 58/1/3
f 13/1/3 46/1/3 45/1/3
f 27/1/3 60/1/3 59/1/3
f 14/1/3 47/1/3 46/1/3
f 1/1/3 33/1/3 34/1/3
f 28/1/3 61/1/3 60/1/3
f 15/1/3 48/1/3 47/1/3
f 2/1/3 35/1/3 33/1/3
f 29/1/3 62/1/3 61/1/3
f 16/1/3 49/1/3 48/1/3
f 3/1/3 36/1/3 35/1/3
f 30/1/3 63/1/3 62/1/3
f 17/1/3 50/1/3 49/1/3
f 4/1/3 37/1/3 36/1/3
f 31/1/3 64/1/3 63/1/3
f 18/1/3 51/1/3 50/1/3
f 5/1/3 38/1/3 37/1/3
f 32/1/3 34/1/3 64/1/3
f 19/1/3 52/1/3 51/1/3
f 6/1/3 39/1/3 38/1/3
f 20/1/3 53/1/3 52/1/3
f 7/1/3 40/1/3 39/1/3
f 21/1/3 54/1/3 53/1/3
f 8/1/3 41/1/3 40/1/3
f 22/1/3 55/1/3 54/1/3
f 9/1/3 42/1/3 41/1/3
f 23/1/3 56/1/3 55/1/3
f 10/1/3 43/1/3 42/1/3
f 24/1/3 57/1/3 56/1/3
f 11/1/3 44/1/3 43/1/3
f 25/1/3 58/1/3 57/1/3
f 12/1/3 45/1/3 44/1/3
f 74/1/4 107/1/4 106/1/4
f 54/1/5 85/1/5 53/1/5
f 41/1/6 72/1/6 40/1/6
f 55/1/7 86/1/7 54/1/7
f 42/1/8 73/1/8 41/1/8
f 56/1/9 87/1/9 55/1/9
f 43/1/10 74/1/10 42/1/10
f 57/1/11 88/1/11 56/1/11
f 44/1/12 75/1/12 43/1/12
f 58/1/13 89/1/13 57/1/13
f 45/1/14 76/1/14 44/1/14
f 59/1/15 90/1/15 58/1/15
f 46/1/16 77/1/16 45/1/16
f 60/1/17 91/1/17 59/1/17
f 47/1/18 78/1/18 46/1/18
f 33/1/19 66/1/19 34/1/19
f 61/1/20 92/1/20 60/1/20
f 48/1/21 79/1/21 47/1/21
f 35/1/22 65/1/22 33/1/22
f 62/1/23 93/1/23 61/1/23
f 49/1/24 80/1/24 48/1/24
f 36/1/25 67/1/25 35/1/25
f 63/1/26 94/1/26 62/1/26
f 50/1/27 81/1/27 49/1/27
f 37/1/28 68/1/28 36/1/28
f 64/1/29 95/1/29 63/1/29
f 51/1/30 82/1/30 50/1/30
f 38/1/31 69/1/31 37/1/31
f 34/1/32 96/1/32 64/1/32
f 52/1/33 83/1/33 51/1/33
f 39/1/34 70/1/34 38/1/34
f 53/1/35 84/1/35 52/1/35
f 114/1/27 145/1/27 113/1/27
f 89/1/36 120/1/36 88/1/36
f 75/1/37 108/1/37 107/1/37
f 90/1/38 121/1/38 89/1/38
f 77/1/39 108/1/39 76/1/39
f 91/1/40 122/1/40 90/1/40
f 77/1/41 110/1/41 109/1/41
f 92/1/42 123/1/42 91/1/42
f 79/1/43 110/1/43 78/1/43
f 66/1/44 97/1/44 98/1/44
f 93/1/45 124/1/45 92/1/45
f 79/1/46 112/1/46 111/1/46
f 67/1/47 97/1/47 65/1/47
f 94/1/48 125/1/48 93/1/48
f 80/1/49 113/1/49 112/1/49
f 67/1/50 100/1/50 99/1/50
f 95/1/51 126/1/51 94/1/51
f 81/1/52 114/1/52 113/1/52
f 68/1/53 101/1/53 100/1/53
f 95/1/54 128/1/54 127/1/54
f 83/1/55 114/1/55 82/1/55
f 69/1/56 102/1/56 101/1/56
f 96/1/57 98/1/57 128/1/57
f 84/1/58 115/1/58 83/1/58
f 70/1/59 103/1/59 102/1/59
f 85/1/60 116/1/60 84/1/60
f 71/1/61 104/1/61 103/1/61
f 86/1/62 117/1/62 85/1/62
f 72/1/63 105/1/63 104/1/63
f 87/1/64 118/1/64 86/1/64
f 73/1/65 106/1/65 105/1/65
f 87/1/66 120/1/66 119/1/66
f 145/1/3 153/1/3 130/1/3
f 101/1/67 132/1/67 100/1/67
f 128/1/29 159/1/29 127/1/29
f 115/1/68 146/1/68 114/1/68
f 102/1/31 133/1/31 101/1/31
f 98/1/32 160/1/32 128/1/32
f 116/1/33 147/1/33 115/1/33
f 103/1/34 134/1/34 102/1/34
f 117/1/35 148/1/35 116/1/35
f 104/1/69 135/1/69 103/1/69
f 118/1/5 149/1/5 117/1/5
f 105/1/6 136/1/6 104/1/6
f 119/1/7 150/1/7 118/1/7
f 106/1/70 137/1/70 105/1/70
f 120/1/71 151/1/71 119/1/71
f 107/1/72 138/1/72 106/1/72
f 121/1/73 152/1/73 120/1/73
f 108/1/12 139/1/12 107/1/12
f 122/1/74 153/1/74 121/1/74
f 109/1/75 140/1/75 108/1/75
f 123/1/76 154/1/76 122/1/76
f 110/1/16 141/1/16 109/1/16
f 124/1/17 155/1/17 123/1/17
f 111/1/18 142/1/18 110/1/18
f 97/1/19 130/1/19 98/1/19
f 125/1/20 156/1/20 124/1/20
f 112/1/77 143/1/77 111/1/77
f 99/1/22 129/1/22 97/1/22
f 126/1/23 157/1/23 125/1/23
f 113/1/24 144/1/24 112/1/24
f 100/1/25 131/1/25 99/1/25
f 127/1/26 158/1/26 126/1/26
f 3/1/78 2/1/78 1/1/78
f 1/1/79 32/1/79 31/1/79
f 31/1/1 30/1/1 29/1/1
f 29/1/1 28/1/1 27/1/1
f 27/1/80 26/1/80 25/1/80
f 25/1/80 24/1/80 23/1/80
f 23/1/80 22/1/80 21/1/80
f 21/1/1 20/1/1 19/1/1
f 19/1/81 18/1/81 17/1/81
f 17/1/82 16/1/82 15/1/82
f 15/1/1 14/1/1 13/1/1
f 13/1/83 12/1/83 11/1/83
f 11/1/83 10/1/83 9/1/83
f 9/1/83 8/1/83 7/1/83
f 7/1/1 6/1/1 5/1/1
f 5/1/1 4/1/1 3/1/1
f 3/1/1 1/1/1 31/1/1
f 31/1/82 29/1/82 27/1/82
f 27/1/1 25/1/1 23/1/1
f 23/1/82 21/1/82 19/1/82
f 19/1/1 17/1/1 15/1/1
f 15/1/79 13/1/79 11/1/79
f 11/1/1 9/1/1 7/1/1
f 7/1/79 5/1/79 3/1/79
f 3/1/1 31/1/1 27/1/1
f 27/1/1 23/1/1 19/1/1
f 19/1/1 15/1/1 11/1/1
f 11/1/1 7/1/1 3/1/1
f 3/1/1 27/1/1 19/1/1
f 40/1/84 72/1/84 71/1/84
f 26/1/3 27/1/3 59/1/3
f 13/1/3 14/1/3 46/1/3
f 27/1/3 28/1/3 60/1/3
f 14/1/3 15/1/3 47/1/3
f 1/1/3 2/1/3 33/1/3
f 28/1/3 29/1/3 61/1/3
f 15/1/3 16/1/3 48/1/3
f 2/1/3 3/1/3 35/1/3
f 29/1/3 30/1/3 62/1/3
f 16/1/3 17/1/3 49/1/3
f 3/1/3 4/1/3 36/1/3
f 30/1/3 31/1/3 63/1/3
f 17/1/3 18/1/3 50/1/3
f 4/1/3 5/1/3 37/1/3
f 31/1/3 32/1/3 64/1/3
f 18/1/3 19/1/3 51/1/3
f 5/1/3 6/1/3 38/1/3
f 32/1/3 1/1/3 34/1/3
f 19/1/3 20/1/3 52/1/3
f 6/1/3 7/1/3 39/1/3
f 20/1/3 21/1/3 53/1/3
f 7/1/3 8/1/3 40/1/3
f 21/1/3 22/1/3 54/1/3
f 8/1/3 9/1/3 41/1/3
f 22/1/3 23/1/3 55/1/3
f 9/1/3 10/1/3 42/1/3
f 23/1/3 24/1/3 56/1/3
f 10/1/3 11/1/3 43/1/3
f 24/1/3 25/1/3 57/1/3
f 11/1/3 12/1/3 44/1/3
f 25/1/3 26/1/3 58/1/3
f 12/1/3 13/1/3 45/1/3
f 74/1/85 75/1/85 107/1/85
f 54/1/86 86/1/86 85/1/86
f 41/1/87 73/1/87 72/1/87
f 55/1/7 87/1/7 86/1/7
f 42/1/70 74/1/70 73/1/70
f 56/1/88 88/1/88 87/1/88
f 43/1/89 75/1/89 74/1/89
f 57/1/73 89/1/73 88/1/73
f 44/1/12 76/1/12 75/1/12
f 58/1/90 90/1/90 89/1/90
f 45/1/91 77/1/91 76/1/91
f 59/1/76 91/1/76 90/1/76
f 46/1/92 78/1/92 77/1/92
f 60/1/17 92/1/17 91/1/17
f 47/1/18 79/1/18 78/1/18
f 33/1/19 65/1/19 66/1/19
f 61/1/20 93/1/20 92/1/20
f 48/1/21 80/1/21 79/1/21
f 35/1/22 67/1/22 65/1/22
f 62/1/23 94/1/23 93/1/23
f 49/1/24 81/1/24 80/1/24
f 36/1/25 68/1/25 67/1/25
f 63/1/26 95/1/26 94/1/26
f 50/1/27 82/1/27 81/1/27
f 37/1/67 69/1/67 68/1/67
f 64/1/29 96/1/29 95/1/29
f 51/1/30 83/1/30 82/1/30
f 38/1/31 70/1/31 69/1/31
f 34/1/32 66/1/32 96/1/32
f 52/1/33 84/1/33 83/1/33
f 39/1/34 71/1/34 70/1/34
f 53/1/35 85/1/35 84/1/35
f 114/1/27 146/1/27 145/1/27
f 89/1/93 121/1/93 120/1/93
f 75/1/94 76/1/94 108/1/94
f 90/1/38 122/1/38 121/1/38
f 77/1/95 109/1/95 108/1/95
f 91/1/96 123/1/96 122/1/96
f 77/1/97 78/1/97 110/1/97
f 92/1/42 124/1/42 123/1/42
f 79/1/98 111/1/98 110/1/98
f 66/1/99 65/1/99 97/1/99
f 93/1/100 125/1/100 124/1/100
f 79/1/46 80/1/46 112/1/46
f 67/1/101 99/1/101 97/1/101
f 94/1/48 126/1/48 125/1/48
f 80/1/49 81/1/49 113/1/49
f 67/1/102 68/1/102 100/1/102
f 95/1/103 127/1/103 126/1/103
f 81/1/52 82/1/52 114/1/52
f 68/1/53 69/1/53 101/1/53
f 95/1/104 96/1/104 128/1/104
f 83/1/55 115/1/55 114/1/55
f 69/1/105 70/1/105 102/1/105
f 96/1/106 66/1/106 98/1/106
f 84/1/107 116/1/107 115/1/107
f 70/1/59 71/1/59 103/1/59
f 85/1/108 117/1/108 116/1/108
f 71/1/109 72/1/109 104/1/109
f 86/1/62 118/1/62 117/1/62
f 72/1/63 73/1/63 105/1/63
f 87/1/110 119/1/110 118/1/110
f 73/1/111 74/1/111 106/1/111
f 87/1/112 88/1/112 120/1/112
f 130/1/113 129/1/113 131/1/113
f 131/1/114 132/1/114 133/1/114
f 133/1/115 134/1/115 135/1/115
f 135/1/3 136/1/3 137/1/3
f 137/1/3 138/1/3 139/1/3
f 139/1/115 140/1/115 141/1/115
f 141/1/116 142/1/116 143/1/116
f 143/1/3 144/1/3 145/1/3
f 145/1/3 146/1/3 147/1/3
f 147/1/114 148/1/114 149/1/114
f 149/1/117 150/1/117 151/1/117
f 151/1/3 152/1/3 153/1/3
f 153/1/3 154/1/3 155/1/3
f 155/1/117 156/1/117 157/1/117
f 157/1/116 158/1/116 159/1/116
f 159/1/118 160/1/118 130/1/118
f 130/1/113 131/1/113 133/1/113
f 133/1/118 135/1/118 137/1/118
f 137/1/3 139/1/3 141/1/3
f 141/1/3 143/1/3 145/1/3
f 145/1/3 147/1/3 149/1/3
f 149/1/3 151/1/3 153/1/3
f 153/1/113 155/1/113 157/1/113
f 157/1/3 159/1/3 130/1/3
f 130/1/3 133/1/3 137/1/3
f 137/1/3 141/1/3 145/1/3
f 145/1/3 149/1/3 153/1/3
f 153/1/3 157/1/3 130/1/3
f 130/1/3 137/1/3 145/1/3
f 101/1/67 133/1/67 132/1/67
f 128/1/29 160/1/29 159/1/29
f 115/1/68 147/1/68 146/1/68
f 102/1/31 134/1/31 133/1/31
f 98/1/32 130/1/32 160/1/32
f 116/1/33 148/1/33 147/1/33
f 103/1/119 135/1/119 134/1/119
f 117/1/35 149/1/35 148/1/35
f 104/1/2 136/1/2 135/1/2
f 118/1/120 150/1/120 149/1/120
f 105/1/6 137/1/6 136/1/6
f 119/1/121 151/1/121 150/1/121
f 106/1/70 138/1/70 137/1/70
f 120/1/9 152/1/9 151/1/9
f 107/1/89 139/1/89 138/1/89
f 121/1/122 153/1/122 152/1/122
f 108/1/12 140/1/12 139/1/12
f 122/1/13 154/1/13 153/1/13
f 109/1/14 141/1/14 140/1/14
f 123/1/15 155/1/15 154/1/15
f 110/1/16 142/1/16 141/1/16
f 124/1/17 156/1/17 155/1/17
f 111/1/18 143/1/18 142/1/18
f 97/1/19 129/1/19 130/1/19
f 125/1/20 157/1/20 156/1/20
f 112/1/77 144/1/77 143/1/77
f 99/1/22 131/1/22 129/1/22
f 126/1/23 158/1/23 157/1/23
f 113/1/24 145/1/24 144/1/24
f 100/1/25 132/1/25 131/1/25
f 127/1/26 159/1/26 158/1/26
