# Blender 4.1.1
# www.blender.org
mtllib Circle.038.mtl
o Pipe.159
v 2290.495605 392.278168 1037.633667
v 2287.883789 392.278168 1037.890869
v 2285.372314 392.278168 1038.652710
v 2283.057617 392.278168 1039.890015
v 2281.028809 392.278168 1041.554932
v 2279.364014 392.278168 1043.583618
v 2278.126953 392.278168 1045.898315
v 2277.364990 392.278168 1048.409668
v 2277.107666 392.278168 1051.021606
v 2277.364990 392.278168 1053.633545
v 2278.126953 392.278168 1056.144897
v 2279.364014 392.278168 1058.459595
v 2281.028809 392.278168 1060.488281
v 2283.057617 392.278168 1062.153320
v 2285.372314 392.278168 1063.390503
v 2287.883789 392.278168 1064.152344
v 2290.495605 392.278168 1064.409546
v 2293.107422 392.278168 1064.152344
v 2295.619141 392.278168 1063.390503
v 2297.933594 392.278168 1062.153320
v 2299.962402 392.278168 1060.488281
v 2301.627197 392.278168 1058.459595
v 2302.864502 392.278168 1056.144897
v 2303.626221 392.278168 1053.633545
v 2303.883545 392.278168 1051.021606
v 2303.626221 392.278168 1048.409668
v 2302.864502 392.278168 1045.898315
v 2301.627197 392.278168 1043.583618
v 2299.962402 392.278168 1041.554932
v 2297.933594 392.278168 1039.890015
v 2295.619141 392.278168 1038.652710
v 2293.107422 392.278168 1037.890869
v 2287.883789 392.278168 1037.890869
v 2290.495605 392.278168 1037.633667
v 2285.372314 392.278168 1038.652710
v 2283.057617 392.278168 1039.890015
v 2281.028809 392.278168 1041.554932
v 2279.364014 392.278168 1043.583618
v 2278.126953 392.278168 1045.898315
v 2277.364990 392.278168 1048.409668
v 2277.107666 392.278168 1051.021606
v 2277.364990 392.278168 1053.633545
v 2278.126953 392.278168 1056.144897
v 2279.364014 392.278168 1058.459595
v 2281.028809 392.278168 1060.488281
v 2283.057617 392.278168 1062.153320
v 2285.372314 392.278168 1063.390503
v 2287.883789 392.278168 1064.152344
v 2290.495605 392.278168 1064.409546
v 2293.107422 392.278168 1064.152344
v 2295.619141 392.278168 1063.390503
v 2297.933594 392.278168 1062.153320
v 2299.962402 392.278168 1060.488281
v 2301.627197 392.278168 1058.459595
v 2302.864502 392.278168 1056.144897
v 2303.626221 392.278168 1053.633545
v 2303.883545 392.278168 1051.021606
v 2303.626221 392.278168 1048.409668
v 2302.864502 392.278168 1045.898315
v 2301.627197 392.278168 1043.583618
v 2299.962402 392.278168 1041.554932
v 2297.933594 392.278168 1039.890015
v 2295.619141 392.278168 1038.652710
v 2293.107422 392.278168 1037.890869
v 2287.883789 431.242401 1037.890869
v 2290.495605 431.242401 1037.633667
v 2285.372314 431.242401 1038.652710
v 2283.057617 431.242401 1039.890015
v 2281.028809 431.242401 1041.554932
v 2279.364014 431.242401 1043.583618
v 2278.126953 431.242401 1045.898315
v 2277.364990 431.242401 1048.409668
v 2277.107666 431.242401 1051.021606
v 2277.364990 431.242401 1053.633545
v 2278.126953 431.242401 1056.144897
v 2279.364014 431.242401 1058.459595
v 2281.028809 431.242401 1060.488281
v 2283.057617 431.242401 1062.153320
v 2285.372314 431.242401 1063.390503
v 2287.883789 431.242401 1064.152344
v 2290.495605 431.242401 1064.409546
v 2293.107422 431.242401 1064.152344
v 2295.619141 431.242401 1063.390503
v 2297.933594 431.242401 1062.153320
v 2299.962402 431.242401 1060.488281
v 2301.627197 431.242401 1058.459595
v 2302.864502 431.242401 1056.144897
v 2303.626221 431.242401 1053.633545
v 2303.883545 431.242401 1051.021606
v 2303.626221 431.242401 1048.409668
v 2302.864502 431.242401 1045.898315
v 2301.627197 431.242401 1043.583618
v 2299.962402 431.242401 1041.554932
v 2297.933594 431.242401 1039.890015
v 2295.619141 431.242401 1038.652710
v 2293.107422 431.242401 1037.890869
v 2286.071045 431.806458 1028.777466
v 2290.495605 431.806458 1028.341675
v 2281.816406 431.806458 1030.068115
v 2277.895508 431.806458 1032.163940
v 2274.458740 431.806458 1034.984375
v 2271.638184 431.806458 1038.421265
v 2269.542236 431.806458 1042.342285
v 2268.251953 431.806458 1046.596680
v 2267.815918 431.806458 1051.021362
v 2268.251953 431.806458 1055.445923
v 2269.542236 431.806458 1059.700439
v 2271.638184 431.806458 1063.621460
v 2274.458740 431.806458 1067.058228
v 2277.895508 431.806458 1069.878784
v 2281.816406 431.806458 1071.974609
v 2286.071045 431.806458 1073.265137
v 2290.495605 431.806458 1073.701050
v 2294.920166 431.806458 1073.265137
v 2299.174805 431.806458 1071.974609
v 2303.095703 431.806458 1069.878784
v 2306.532471 431.806458 1067.058228
v 2309.353027 431.806458 1063.621460
v 2311.448975 431.806458 1059.700439
v 2312.739502 431.806458 1055.445923
v 2313.175293 431.806458 1051.021362
v 2312.739502 431.806458 1046.596680
v 2311.448975 431.806458 1042.342285
v 2309.353027 431.806458 1038.421265
v 2306.532471 431.806458 1034.984375
v 2303.095703 431.806458 1032.163940
v 2299.174805 431.806458 1030.068115
v 2294.920166 431.806458 1028.777466
v 2286.071045 440.648254 1028.777466
v 2290.495605 440.648254 1028.341675
v 2281.816406 440.648254 1030.068115
v 2277.895508 440.648254 1032.163940
v 2274.458740 440.648254 1034.984375
v 2271.638184 440.648254 1038.421265
v 2269.542236 440.648254 1042.342285
v 2268.251953 440.648254 1046.596680
v 2267.815918 440.648254 1051.021362
v 2268.251953 440.648254 1055.445923
v 2269.542236 440.648254 1059.700439
v 2271.638184 440.648254 1063.621460
v 2274.458740 440.648254 1067.058228
v 2277.895508 440.648254 1069.878784
v 2281.816406 440.648254 1071.974609
v 2286.071045 440.648254 1073.265137
v 2290.495605 440.648254 1073.701050
v 2294.920166 440.648254 1073.265137
v 2299.174805 440.648254 1071.974609
v 2303.095703 440.648254 1069.878784
v 2306.532471 440.648254 1067.058228
v 2309.353027 440.648254 1063.621460
v 2311.448975 440.648254 1059.700439
v 2312.739502 440.648254 1055.445923
v 2313.175293 440.648254 1051.021362
v 2312.739502 440.648254 1046.596680
v 2311.448975 440.648254 1042.342285
v 2309.353027 440.648254 1038.421265
v 2306.532471 440.648254 1034.984375
v 2303.095703 440.648254 1032.163940
v 2299.174805 440.648254 1030.068115
v 2294.920166 440.648254 1028.777466
vn -0.0000 -1.0000 -0.0000
vn -0.9570 -0.0000 -0.2902
vn -0.0000 1.0000 -0.0000
vn -0.0583 -0.9981 0.0177
vn 0.7730 -0.0000 0.6344
vn -0.9952 -0.0000 -0.0981
vn 0.8819 -0.0000 0.4714
vn -0.9952 -0.0000 0.0979
vn 0.9570 -0.0000 0.2902
vn -0.9569 -0.0000 0.2905
vn 0.9952 -0.0000 0.0979
vn -0.8819 -0.0000 0.4715
vn 0.9952 -0.0000 -0.0981
vn -0.7731 -0.0000 0.6343
vn 0.9569 -0.0000 -0.2903
vn -0.6344 -0.0000 0.7730
vn 0.8819 -0.0000 -0.4715
vn -0.4715 -0.0000 0.8819
vn -0.0980 -0.0000 -0.9952
vn 0.7731 -0.0000 -0.6343
vn -0.2903 -0.0000 0.9569
vn -0.2902 -0.0000 -0.9570
vn 0.6344 -0.0000 -0.7730
vn -0.0980 -0.0000 0.9952
vn -0.4714 -0.0000 -0.8819
vn 0.4715 -0.0000 -0.8819
vn 0.0980 -0.0000 0.9952
vn -0.6343 -0.0000 -0.7731
vn 0.2903 -0.0000 -0.9569
vn 0.2902 -0.0000 0.9570
vn -0.7730 -0.0000 -0.6344
vn 0.0980 -0.0000 -0.9952
vn 0.4714 -0.0000 0.8819
vn -0.8820 -0.0000 -0.4712
vn 0.6343 -0.0000 0.7730
vn 0.0606 -0.9981 0.0060
vn -0.0537 -0.9981 0.0287
vn 0.0606 -0.9981 -0.0060
vn -0.0471 -0.9981 0.0386
vn 0.0583 -0.9981 -0.0177
vn -0.0386 -0.9981 0.0471
vn 0.0537 -0.9981 -0.0287
vn -0.0287 -0.9981 0.0537
vn -0.0060 -0.9981 -0.0606
vn 0.0471 -0.9981 -0.0386
vn -0.0177 -0.9981 0.0583
vn -0.0177 -0.9981 -0.0583
vn 0.0386 -0.9981 -0.0471
vn -0.0060 -0.9981 0.0606
vn -0.0287 -0.9981 -0.0537
vn 0.0287 -0.9981 -0.0537
vn 0.0060 -0.9981 0.0606
vn -0.0386 -0.9981 -0.0471
vn 0.0177 -0.9981 -0.0583
vn 0.0177 -0.9981 0.0583
vn -0.0471 -0.9981 -0.0386
vn 0.0060 -0.9981 -0.0606
vn 0.0287 -0.9981 0.0537
vn -0.0537 -0.9981 -0.0287
vn 0.0386 -0.9981 0.0471
vn -0.0583 -0.9981 -0.0177
vn 0.0471 -0.9981 0.0386
vn -0.0606 -0.9981 -0.0060
vn 0.0537 -0.9981 0.0287
vn -0.0606 -0.9981 0.0060
vn 0.0583 -0.9981 0.0177
vn -0.6344 -0.0000 -0.7730
vn 0.2903 -0.0000 0.9569
vn -0.8819 -0.0000 -0.4714
vn 0.6344 -0.0000 0.7730
vn -0.9569 -0.0000 -0.2903
vn -0.9952 -0.0000 0.0981
vn 0.9569 -0.0000 0.2903
vn -0.9570 -0.0000 0.2902
vn 0.9952 -0.0000 0.0981
vn -0.8819 -0.0000 0.4714
vn 0.9952 -0.0000 -0.0980
vn -0.7730 -0.0000 0.6344
vn -0.4714 -0.0000 0.8819
vn 0.7730 -0.0000 -0.6344
vn -0.2902 -0.0000 0.9570
vn -0.2903 -0.0000 -0.9569
vn -0.0981 -0.0000 0.9952
vn 0.4714 -0.0000 -0.8819
vn 0.0001 -1.0000 -0.0000
vn -0.0001 -1.0000 -0.0000
vn -0.9569 -0.0000 -0.2905
vn 0.7731 -0.0000 0.6343
vn -0.9952 -0.0000 -0.0979
vn 0.8819 -0.0000 0.4715
vn -0.8820 -0.0000 0.4712
vn 0.9952 -0.0000 -0.0979
vn 0.9570 -0.0000 -0.2902
vn -0.6343 -0.0000 0.7730
vn 0.8819 -0.0000 -0.4714
vn -0.4713 -0.0000 0.8820
vn 0.6343 -0.0000 -0.7731
vn -0.4715 -0.0000 -0.8819
vn 0.2902 -0.0000 -0.9570
vn -0.7731 -0.0000 -0.6343
vn 0.4715 -0.0000 0.8819
vn -0.8819 -0.0000 -0.4715
vn 0.0001 1.0000 -0.0000
vn -0.0001 1.0000 -0.0000
vn -0.9569 -0.0000 0.2903
vn 0.9952 -0.0000 0.0980
vt 0.000000 0.000000
s 0
usemtl Material.003
f 19/1/1 11/1/1 3/1/1
f 40/1/2 71/1/2 39/1/2
f 26/1/3 59/1/3 58/1/3
f 13/1/3 46/1/3 45/1/3
f 27/1/3 60/1/3 59/1/3
f 14/1/3 47/1/3 46/1/3
f 1/1/3 33/1/3 34/1/3
f 28/1/3 61/1/3 60/1/3
f 15/1/3 48/1/3 47/1/3
f 2/1/3 35/1/3 33/1/3
f 29/1/3 62/1/3 61/1/3
f 16/1/3 49/1/3 48/1/3
f 3/1/3 36/1/3 35/1/3
f 30/1/3 63/1/3 62/1/3
f 17/1/3 50/1/3 49/1/3
f 4/1/3 37/1/3 36/1/3
f 31/1/3 64/1/3 63/1/3
f 18/1/3 51/1/3 50/1/3
f 5/1/3 38/1/3 37/1/3
f 32/1/3 34/1/3 64/1/3
f 19/1/3 52/1/3 51/1/3
f 6/1/3 39/1/3 38/1/3
f 20/1/3 53/1/3 52/1/3
f 7/1/3 40/1/3 39/1/3
f 21/1/3 54/1/3 53/1/3
f 8/1/3 41/1/3 40/1/3
f 22/1/3 55/1/3 54/1/3
f 9/1/3 42/1/3 41/1/3
f 23/1/3 56/1/3 55/1/3
f 10/1/3 43/1/3 42/1/3
f 24/1/3 57/1/3 56/1/3
f 11/1/3 44/1/3 43/1/3
f 25/1/3 58/1/3 57/1/3
f 12/1/3 45/1/3 44/1/3
f 74/1/4 107/1/4 106/1/4
f 54/1/5 85/1/5 53/1/5
f 41/1/6 72/1/6 40/1/6
f 55/1/7 86/1/7 54/1/7
f 42/1/8 73/1/8 41/1/8
f 56/1/9 87/1/9 55/1/9
f 43/1/10 74/1/10 42/1/10
f 57/1/11 88/1/11 56/1/11
f 44/1/12 75/1/12 43/1/12
f 58/1/13 89/1/13 57/1/13
f 45/1/14 76/1/14 44/1/14
f 59/1/15 90/1/15 58/1/15
f 46/1/16 77/1/16 45/1/16
f 60/1/17 91/1/17 59/1/17
f 47/1/18 78/1/18 46/1/18
f 33/1/19 66/1/19 34/1/19
f 61/1/20 92/1/20 60/1/20
f 48/1/21 79/1/21 47/1/21
f 35/1/22 65/1/22 33/1/22
f 62/1/23 93/1/23 61/1/23
f 49/1/24 80/1/24 48/1/24
f 36/1/25 67/1/25 35/1/25
f 63/1/26 94/1/26 62/1/26
f 50/1/27 81/1/27 49/1/27
f 37/1/28 68/1/28 36/1/28
f 64/1/29 95/1/29 63/1/29
f 51/1/30 82/1/30 50/1/30
f 38/1/31 69/1/31 37/1/31
f 34/1/32 96/1/32 64/1/32
f 52/1/33 83/1/33 51/1/33
f 39/1/34 70/1/34 38/1/34
f 53/1/35 84/1/35 52/1/35
f 114/1/27 145/1/27 113/1/27
f 89/1/36 120/1/36 88/1/36
f 76/1/37 107/1/37 75/1/37
f 90/1/38 121/1/38 89/1/38
f 76/1/39 109/1/39 108/1/39
f 91/1/40 122/1/40 90/1/40
f 77/1/41 110/1/41 109/1/41
f 91/1/42 124/1/42 123/1/42
f 78/1/43 111/1/43 110/1/43
f 65/1/44 98/1/44 66/1/44
f 93/1/45 124/1/45 92/1/45
f 79/1/46 112/1/46 111/1/46
f 67/1/47 97/1/47 65/1/47
f 94/1/48 125/1/48 93/1/48
f 81/1/49 112/1/49 80/1/49
f 67/1/50 100/1/50 99/1/50
f 95/1/51 126/1/51 94/1/51
f 81/1/52 114/1/52 113/1/52
f 68/1/53 101/1/53 100/1/53
f 95/1/54 128/1/54 127/1/54
f 83/1/55 114/1/55 82/1/55
f 69/1/56 102/1/56 101/1/56
f 66/1/57 128/1/57 96/1/57
f 83/1/58 116/1/58 115/1/58
f 70/1/59 103/1/59 102/1/59
f 84/1/60 117/1/60 116/1/60
f 71/1/61 104/1/61 103/1/61
f 86/1/62 117/1/62 85/1/62
f 72/1/63 105/1/63 104/1/63
f 87/1/64 118/1/64 86/1/64
f 73/1/65 106/1/65 105/1/65
f 88/1/66 119/1/66 87/1/66
f 145/1/3 153/1/3 130/1/3
f 101/1/67 132/1/67 100/1/67
f 128/1/29 159/1/29 127/1/29
f 115/1/68 146/1/68 114/1/68
f 102/1/31 133/1/31 101/1/31
f 98/1/32 160/1/32 128/1/32
f 116/1/33 147/1/33 115/1/33
f 103/1/69 134/1/69 102/1/69
f 117/1/70 148/1/70 116/1/70
f 104/1/71 135/1/71 103/1/71
f 118/1/5 149/1/5 117/1/5
f 105/1/6 136/1/6 104/1/6
f 119/1/7 150/1/7 118/1/7
f 106/1/72 137/1/72 105/1/72
f 120/1/73 151/1/73 119/1/73
f 107/1/74 138/1/74 106/1/74
f 121/1/75 152/1/75 120/1/75
f 108/1/76 139/1/76 107/1/76
f 122/1/77 153/1/77 121/1/77
f 109/1/78 140/1/78 108/1/78
f 123/1/15 154/1/15 122/1/15
f 110/1/16 141/1/16 109/1/16
f 124/1/17 155/1/17 123/1/17
f 111/1/79 142/1/79 110/1/79
f 97/1/19 130/1/19 98/1/19
f 125/1/80 156/1/80 124/1/80
f 112/1/81 143/1/81 111/1/81
f 99/1/82 129/1/82 97/1/82
f 126/1/23 157/1/23 125/1/23
f 113/1/83 144/1/83 112/1/83
f 100/1/25 131/1/25 99/1/25
f 127/1/84 158/1/84 126/1/84
f 3/1/1 2/1/1 1/1/1
f 1/1/1 32/1/1 31/1/1
f 31/1/85 30/1/85 29/1/85
f 29/1/85 28/1/85 27/1/85
f 27/1/1 26/1/1 25/1/1
f 25/1/86 24/1/86 23/1/86
f 23/1/85 22/1/85 21/1/85
f 21/1/1 20/1/1 19/1/1
f 19/1/1 18/1/1 17/1/1
f 17/1/1 16/1/1 15/1/1
f 15/1/1 14/1/1 13/1/1
f 13/1/86 12/1/86 11/1/86
f 11/1/1 10/1/1 9/1/1
f 9/1/85 8/1/85 7/1/85
f 7/1/86 6/1/86 5/1/86
f 5/1/86 4/1/86 3/1/86
f 3/1/1 1/1/1 31/1/1
f 31/1/1 29/1/1 27/1/1
f 27/1/1 25/1/1 23/1/1
f 23/1/1 21/1/1 19/1/1
f 19/1/1 17/1/1 15/1/1
f 15/1/1 13/1/1 11/1/1
f 11/1/1 9/1/1 7/1/1
f 7/1/1 5/1/1 3/1/1
f 3/1/1 31/1/1 27/1/1
f 27/1/1 23/1/1 19/1/1
f 19/1/1 15/1/1 11/1/1
f 11/1/1 7/1/1 3/1/1
f 3/1/1 27/1/1 19/1/1
f 40/1/87 72/1/87 71/1/87
f 26/1/3 27/1/3 59/1/3
f 13/1/3 14/1/3 46/1/3
f 27/1/3 28/1/3 60/1/3
f 14/1/3 15/1/3 47/1/3
f 1/1/3 2/1/3 33/1/3
f 28/1/3 29/1/3 61/1/3
f 15/1/3 16/1/3 48/1/3
f 2/1/3 3/1/3 35/1/3
f 29/1/3 30/1/3 62/1/3
f 16/1/3 17/1/3 49/1/3
f 3/1/3 4/1/3 36/1/3
f 30/1/3 31/1/3 63/1/3
f 17/1/3 18/1/3 50/1/3
f 4/1/3 5/1/3 37/1/3
f 31/1/3 32/1/3 64/1/3
f 18/1/3 19/1/3 51/1/3
f 5/1/3 6/1/3 38/1/3
f 32/1/3 1/1/3 34/1/3
f 19/1/3 20/1/3 52/1/3
f 6/1/3 7/1/3 39/1/3
f 20/1/3 21/1/3 53/1/3
f 7/1/3 8/1/3 40/1/3
f 21/1/3 22/1/3 54/1/3
f 8/1/3 9/1/3 41/1/3
f 22/1/3 23/1/3 55/1/3
f 9/1/3 10/1/3 42/1/3
f 23/1/3 24/1/3 56/1/3
f 10/1/3 11/1/3 43/1/3
f 24/1/3 25/1/3 57/1/3
f 11/1/3 12/1/3 44/1/3
f 25/1/3 26/1/3 58/1/3
f 12/1/3 13/1/3 45/1/3
f 74/1/4 75/1/4 107/1/4
f 54/1/88 86/1/88 85/1/88
f 41/1/89 73/1/89 72/1/89
f 55/1/90 87/1/90 86/1/90
f 42/1/72 74/1/72 73/1/72
f 56/1/73 88/1/73 87/1/73
f 43/1/74 75/1/74 74/1/74
f 57/1/75 89/1/75 88/1/75
f 44/1/91 76/1/91 75/1/91
f 58/1/92 90/1/92 89/1/92
f 45/1/78 77/1/78 76/1/78
f 59/1/93 91/1/93 90/1/93
f 46/1/94 78/1/94 77/1/94
f 60/1/95 92/1/95 91/1/95
f 47/1/96 79/1/96 78/1/96
f 33/1/19 65/1/19 66/1/19
f 61/1/80 93/1/80 92/1/80
f 48/1/81 80/1/81 79/1/81
f 35/1/82 67/1/82 65/1/82
f 62/1/97 94/1/97 93/1/97
f 49/1/24 81/1/24 80/1/24
f 36/1/98 68/1/98 67/1/98
f 63/1/84 95/1/84 94/1/84
f 50/1/27 82/1/27 81/1/27
f 37/1/67 69/1/67 68/1/67
f 64/1/99 96/1/99 95/1/99
f 51/1/68 83/1/68 82/1/68
f 38/1/100 70/1/100 69/1/100
f 34/1/32 66/1/32 96/1/32
f 52/1/101 84/1/101 83/1/101
f 39/1/102 71/1/102 70/1/102
f 53/1/70 85/1/70 84/1/70
f 114/1/27 146/1/27 145/1/27
f 89/1/36 121/1/36 120/1/36
f 76/1/37 108/1/37 107/1/37
f 90/1/38 122/1/38 121/1/38
f 76/1/39 77/1/39 109/1/39
f 91/1/40 123/1/40 122/1/40
f 77/1/41 78/1/41 110/1/41
f 91/1/42 92/1/42 124/1/42
f 78/1/43 79/1/43 111/1/43
f 65/1/44 97/1/44 98/1/44
f 93/1/45 125/1/45 124/1/45
f 79/1/46 80/1/46 112/1/46
f 67/1/47 99/1/47 97/1/47
f 94/1/48 126/1/48 125/1/48
f 81/1/49 113/1/49 112/1/49
f 67/1/50 68/1/50 100/1/50
f 95/1/51 127/1/51 126/1/51
f 81/1/52 82/1/52 114/1/52
f 68/1/53 69/1/53 101/1/53
f 95/1/54 96/1/54 128/1/54
f 83/1/55 115/1/55 114/1/55
f 69/1/56 70/1/56 102/1/56
f 66/1/57 98/1/57 128/1/57
f 83/1/58 84/1/58 116/1/58
f 70/1/59 71/1/59 103/1/59
f 84/1/60 85/1/60 117/1/60
f 71/1/61 72/1/61 104/1/61
f 86/1/62 118/1/62 117/1/62
f 72/1/63 73/1/63 105/1/63
f 87/1/64 119/1/64 118/1/64
f 73/1/65 74/1/65 106/1/65
f 88/1/66 120/1/66 119/1/66
f 130/1/3 129/1/3 131/1/3
f 131/1/3 132/1/3 133/1/3
f 133/1/103 134/1/103 135/1/103
f 135/1/3 136/1/3 137/1/3
f 137/1/103 138/1/103 139/1/103
f 139/1/3 140/1/3 141/1/3
f 141/1/103 142/1/103 143/1/103
f 143/1/3 144/1/3 145/1/3
f 145/1/3 146/1/3 147/1/3
f 147/1/104 148/1/104 149/1/104
f 149/1/3 150/1/3 151/1/3
f 151/1/104 152/1/104 153/1/104
f 153/1/3 154/1/3 155/1/3
f 155/1/104 156/1/104 157/1/104
f 157/1/3 158/1/3 159/1/3
f 159/1/3 160/1/3 130/1/3
f 130/1/3 131/1/3 133/1/3
f 133/1/3 135/1/3 137/1/3
f 137/1/3 139/1/3 141/1/3
f 141/1/3 143/1/3 145/1/3
f 145/1/3 147/1/3 149/1/3
f 149/1/3 151/1/3 153/1/3
f 153/1/3 155/1/3 157/1/3
f 157/1/3 159/1/3 130/1/3
f 130/1/3 133/1/3 137/1/3
f 137/1/3 141/1/3 145/1/3
f 145/1/3 149/1/3 153/1/3
f 153/1/3 157/1/3 130/1/3
f 130/1/3 137/1/3 145/1/3
f 101/1/67 133/1/67 132/1/67
f 128/1/29 160/1/29 159/1/29
f 115/1/30 147/1/30 146/1/30
f 102/1/31 134/1/31 133/1/31
f 98/1/32 130/1/32 160/1/32
f 116/1/33 148/1/33 147/1/33
f 103/1/69 135/1/69 134/1/69
f 117/1/70 149/1/70 148/1/70
f 104/1/2 136/1/2 135/1/2
f 118/1/5 150/1/5 149/1/5
f 105/1/6 137/1/6 136/1/6
f 119/1/90 151/1/90 150/1/90
f 106/1/72 138/1/72 137/1/72
f 120/1/73 152/1/73 151/1/73
f 107/1/105 139/1/105 138/1/105
f 121/1/106 153/1/106 152/1/106
f 108/1/76 140/1/76 139/1/76
f 122/1/13 154/1/13 153/1/13
f 109/1/78 141/1/78 140/1/78
f 123/1/15 155/1/15 154/1/15
f 110/1/16 142/1/16 141/1/16
f 124/1/95 156/1/95 155/1/95
f 111/1/79 143/1/79 142/1/79
f 97/1/19 129/1/19 130/1/19
f 125/1/80 157/1/80 156/1/80
f 112/1/21 144/1/21 143/1/21
f 99/1/82 131/1/82 129/1/82
f 126/1/23 158/1/23 157/1/23
f 113/1/24 145/1/24 144/1/24
f 100/1/25 132/1/25 131/1/25
f 127/1/84 159/1/84 158/1/84
