# Blender 4.1.1
# www.blender.org
mtllib Circle.007.mtl
o Pipe.128
v -861.421814 3542.624512 3973.666504
v -864.033752 3542.624512 3973.924072
v -866.545166 3542.624512 3974.685791
v -868.859863 3542.624512 3975.922852
v -870.888550 3542.624512 3977.587891
v -872.553467 3542.624512 3979.616699
v -873.790710 3542.624512 3981.931152
v -874.552612 3542.624512 3984.442871
v -874.809814 3542.624512 3987.054688
v -874.552612 3542.624512 3989.666504
v -873.790710 3542.624512 3992.178223
v -872.553467 3542.624512 3994.492676
v -870.888550 3542.624512 3996.521484
v -868.859863 3542.624512 3998.186523
v -866.545166 3542.624512 3999.423584
v -864.033752 3542.624512 4000.185303
v -861.421814 3542.624512 4000.442871
v -858.809937 3542.624512 4000.185303
v -856.298523 3542.624512 3999.423584
v -853.983826 3542.624512 3998.186523
v -851.955139 3542.624512 3996.521484
v -850.290161 3542.624512 3994.492676
v -849.052979 3542.624512 3992.178223
v -848.291077 3542.624512 3989.666504
v -848.033875 3542.624512 3987.054688
v -848.291077 3542.624512 3984.442871
v -849.052979 3542.624512 3981.931152
v -850.290161 3542.624512 3979.616699
v -851.955139 3542.624512 3977.587891
v -853.983826 3542.624512 3975.922852
v -856.298523 3542.624512 3974.685791
v -858.809937 3542.624512 3973.924072
v -864.033752 3542.624512 3973.924072
v -861.421814 3542.624512 3973.666504
v -866.545166 3542.624512 3974.685791
v -868.859863 3542.624512 3975.922852
v -870.888550 3542.624512 3977.587891
v -872.553467 3542.624512 3979.616699
v -873.790710 3542.624512 3981.931152
v -874.552612 3542.624512 3984.442871
v -874.809814 3542.624512 3987.054688
v -874.552612 3542.624512 3989.666504
v -873.790710 3542.624512 3992.178223
v -872.553467 3542.624512 3994.492676
v -870.888550 3542.624512 3996.521484
v -868.859863 3542.624512 3998.186523
v -866.545166 3542.624512 3999.423584
v -864.033752 3542.624512 4000.185303
v -861.421814 3542.624512 4000.442871
v -858.809937 3542.624512 4000.185303
v -856.298523 3542.624512 3999.423584
v -853.983826 3542.624512 3998.186523
v -851.955139 3542.624512 3996.521484
v -850.290161 3542.624512 3994.492676
v -849.052979 3542.624512 3992.178223
v -848.291077 3542.624512 3989.666504
v -848.033875 3542.624512 3987.054688
v -848.291077 3542.624512 3984.442871
v -849.052979 3542.624512 3981.931152
v -850.290161 3542.624512 3979.616699
v -851.955139 3542.624512 3977.587891
v -853.983826 3542.624512 3975.922852
v -856.298523 3542.624512 3974.685791
v -858.809937 3542.624512 3973.924072
v -864.033752 3581.588623 3973.924072
v -861.421814 3581.588623 3973.666504
v -866.545166 3581.588623 3974.685791
v -868.859863 3581.588623 3975.922852
v -870.888550 3581.588623 3977.587891
v -872.553467 3581.588623 3979.616699
v -873.790710 3581.588623 3981.931152
v -874.552612 3581.588623 3984.442871
v -874.809814 3581.588623 3987.054688
v -874.552612 3581.588623 3989.666504
v -873.790710 3581.588623 3992.178223
v -872.553467 3581.588623 3994.492676
v -870.888550 3581.588623 3996.521484
v -868.859863 3581.588623 3998.186523
v -866.545166 3581.588623 3999.423584
v -864.033752 3581.588623 4000.185303
v -861.421814 3581.588623 4000.442871
v -858.809937 3581.588623 4000.185303
v -856.298523 3581.588623 3999.423584
v -853.983826 3581.588623 3998.186523
v -851.955139 3581.588623 3996.521484
v -850.290161 3581.588623 3994.492676
v -849.052979 3581.588623 3992.178223
v -848.291077 3581.588623 3989.666504
v -848.033875 3581.588623 3987.054688
v -848.291077 3581.588623 3984.442871
v -849.052979 3581.588623 3981.931152
v -850.290161 3581.588623 3979.616699
v -851.955139 3581.588623 3977.587891
v -853.983826 3581.588623 3975.922852
v -856.298523 3581.588623 3974.685791
v -858.809937 3581.588623 3973.924072
v -865.846375 3582.152832 3964.810303
v -861.421814 3582.152832 3964.374756
v -870.100952 3582.152832 3966.101074
v -874.021973 3582.152832 3968.196777
v -877.458740 3582.152832 3971.017578
v -880.279297 3582.152832 3974.454102
v -882.375061 3582.152832 3978.375488
v -883.665710 3582.152832 3982.629883
v -884.101501 3582.152832 3987.054443
v -883.665710 3582.152832 3991.479004
v -882.375061 3582.152832 3995.733643
v -880.279297 3582.152832 3999.654541
v -877.458740 3582.152832 4003.091309
v -874.021973 3582.152832 4005.911865
v -870.100952 3582.152832 4008.007568
v -865.846375 3582.152832 4009.298340
v -861.421814 3582.152832 4009.733887
v -856.997314 3582.152832 4009.298340
v -852.742737 3582.152832 4008.007568
v -848.821716 3582.152832 4005.911865
v -845.384949 3582.152832 4003.091309
v -842.564392 3582.152832 3999.654541
v -840.468567 3582.152832 3995.733643
v -839.177979 3582.152832 3991.479004
v -838.742188 3582.152832 3987.054443
v -839.177979 3582.152832 3982.629883
v -840.468567 3582.152832 3978.375488
v -842.564392 3582.152832 3974.454102
v -845.384949 3582.152832 3971.017578
v -848.821716 3582.152832 3968.196777
v -852.742737 3582.152832 3966.101074
v -856.997314 3582.152832 3964.810303
v -865.846375 3590.994629 3964.810303
v -861.421814 3590.994629 3964.374756
v -870.100952 3590.994629 3966.101074
v -874.021973 3590.994629 3968.196777
v -877.458740 3590.994629 3971.017578
v -880.279297 3590.994629 3974.454102
v -882.375061 3590.994629 3978.375488
v -883.665710 3590.994629 3982.629883
v -884.101501 3590.994629 3987.054443
v -883.665710 3590.994629 3991.479004
v -882.375061 3590.994629 3995.733643
v -880.279297 3590.994629 3999.654541
v -877.458740 3590.994629 4003.091309
v -874.021973 3590.994629 4005.911865
v -870.100952 3590.994629 4008.007568
v -865.846375 3590.994629 4009.298340
v -861.421814 3590.994629 4009.733887
v -856.997314 3590.994629 4009.298340
v -852.742737 3590.994629 4008.007568
v -848.821716 3590.994629 4005.911865
v -845.384949 3590.994629 4003.091309
v -842.564392 3590.994629 3999.654541
v -840.468567 3590.994629 3995.733643
v -839.177979 3590.994629 3991.479004
v -838.742188 3590.994629 3987.054443
v -839.177979 3590.994629 3982.629883
v -840.468567 3590.994629 3978.375488
v -842.564392 3590.994629 3974.454102
v -845.384949 3590.994629 3971.017578
v -848.821716 3590.994629 3968.196777
v -852.742737 3590.994629 3966.101074
v -856.997314 3590.994629 3964.810303
vn -0.0000 -1.0000 -0.0000
vn -0.9570 -0.0000 -0.2902
vn -0.0000 1.0000 -0.0000
vn -0.0583 -0.9981 0.0177
vn 0.7730 -0.0000 0.6344
vn -0.9952 -0.0000 -0.0980
vn 0.8819 -0.0000 0.4714
vn -0.9952 -0.0000 0.0980
vn 0.9569 -0.0000 0.2903
vn -0.9569 -0.0000 0.2903
vn 0.9952 -0.0000 0.0979
vn -0.8819 -0.0000 0.4715
vn 0.9952 -0.0000 -0.0980
vn -0.7730 -0.0000 0.6344
vn 0.9569 -0.0000 -0.2903
vn -0.6344 -0.0000 0.7730
vn 0.8819 -0.0000 -0.4715
vn -0.4714 -0.0000 0.8819
vn -0.0981 -0.0000 -0.9952
vn 0.7730 -0.0000 -0.6344
vn -0.2902 -0.0000 0.9570
vn -0.2903 -0.0000 -0.9569
vn 0.6344 -0.0000 -0.7730
vn -0.0981 -0.0000 0.9952
vn -0.4714 -0.0000 -0.8819
vn 0.4714 -0.0000 -0.8819
vn 0.0981 -0.0000 0.9952
vn -0.6344 -0.0000 -0.7730
vn 0.2903 -0.0000 -0.9569
vn 0.2902 -0.0000 0.9570
vn -0.7730 -0.0000 -0.6344
vn 0.0981 -0.0000 -0.9952
vn 0.4714 -0.0000 0.8819
vn -0.8819 -0.0000 -0.4715
vn 0.6344 -0.0000 0.7730
vn 0.0980 -0.0000 0.9952
vn 0.0606 -0.9981 0.0060
vn -0.0537 -0.9981 0.0287
vn 0.0605 -0.9981 -0.0060
vn -0.0471 -0.9981 0.0386
vn 0.0583 -0.9981 -0.0177
vn -0.0386 -0.9981 0.0471
vn 0.0537 -0.9981 -0.0287
vn -0.0287 -0.9981 0.0537
vn -0.0060 -0.9981 -0.0606
vn 0.0469 -0.9982 -0.0386
vn -0.0175 -0.9981 0.0583
vn -0.0177 -0.9981 -0.0583
vn 0.0387 -0.9981 -0.0471
vn -0.0061 -0.9981 0.0606
vn -0.0286 -0.9981 -0.0537
vn 0.0287 -0.9981 -0.0537
vn 0.0060 -0.9981 0.0606
vn -0.0386 -0.9981 -0.0471
vn 0.0177 -0.9981 -0.0583
vn 0.0175 -0.9981 0.0583
vn -0.0471 -0.9981 -0.0386
vn 0.0059 -0.9981 -0.0606
vn 0.0286 -0.9981 0.0537
vn -0.0538 -0.9981 -0.0287
vn 0.0387 -0.9981 0.0471
vn -0.0582 -0.9981 -0.0177
vn 0.0471 -0.9981 0.0386
vn -0.0607 -0.9981 -0.0060
vn 0.0537 -0.9981 0.0287
vn -0.0607 -0.9981 0.0060
vn 0.0582 -0.9981 0.0177
vn 0.2903 -0.0000 0.9569
vn 0.0980 -0.0000 -0.9952
vn -0.8820 -0.0000 -0.4713
vn -0.9569 -0.0000 -0.2903
vn 0.9952 -0.0000 0.0980
vn -0.8819 -0.0000 0.4714
vn 0.8819 -0.0000 -0.4714
vn -0.0980 -0.0000 -0.9952
vn -0.2903 -0.0000 0.9569
vn -0.0980 -0.0000 0.9952
vn 0.0001 -1.0000 -0.0000
vn 0.0007 -1.0000 -0.0000
vn -0.0015 -1.0000 -0.0000
vn -0.0007 -1.0000 -0.0000
vn -0.0001 -1.0000 -0.0000
vn 0.0015 -1.0000 -0.0000
vn 0.0002 -1.0000 -0.0000
vn -0.0002 -1.0000 -0.0000
vn -0.0582 -0.9981 0.0177
vn 0.8819 -0.0000 0.4715
vn -0.9570 -0.0000 0.2902
vn 0.9952 -0.0000 -0.0979
vn -0.2902 -0.0000 -0.9570
vn 0.2902 -0.0000 -0.9570
vn -0.7731 -0.0000 -0.6343
vn 0.0607 -0.9981 0.0060
vn 0.0607 -0.9981 -0.0060
vn -0.0387 -0.9981 0.0471
vn 0.0538 -0.9981 -0.0287
vn -0.0286 -0.9981 0.0537
vn -0.0059 -0.9981 -0.0606
vn 0.0471 -0.9981 -0.0386
vn -0.0177 -0.9981 0.0583
vn 0.0386 -0.9981 -0.0471
vn -0.0060 -0.9981 0.0606
vn -0.0288 -0.9981 -0.0537
vn 0.0286 -0.9981 -0.0537
vn 0.0061 -0.9981 0.0606
vn -0.0387 -0.9981 -0.0471
vn 0.0177 -0.9981 0.0583
vn -0.0469 -0.9982 -0.0386
vn 0.0060 -0.9981 -0.0606
vn 0.0287 -0.9981 0.0537
vn -0.0537 -0.9981 -0.0287
vn 0.0386 -0.9981 0.0471
vn -0.0583 -0.9981 -0.0177
vn -0.0605 -0.9981 -0.0060
vn -0.0606 -0.9981 0.0060
vn 0.0583 -0.9981 0.0177
vn -0.0003 1.0000 -0.0000
vn -0.0005 1.0000 -0.0000
vn 0.0005 1.0000 -0.0000
vn 0.0003 1.0000 -0.0000
vn -0.0002 1.0000 -0.0000
vn 0.0002 1.0000 -0.0000
vn -0.0001 1.0000 -0.0000
vn 0.0001 1.0000 -0.0000
vn -0.8819 -0.0000 -0.4714
vn 0.9570 -0.0000 0.2903
vt 0.000000 0.000000
s 0
usemtl Material.003
f 19/1/1 11/1/1 3/1/1
f 40/1/2 71/1/2 39/1/2
f 26/1/3 59/1/3 58/1/3
f 13/1/3 46/1/3 45/1/3
f 27/1/3 60/1/3 59/1/3
f 14/1/3 47/1/3 46/1/3
f 1/1/3 33/1/3 34/1/3
f 28/1/3 61/1/3 60/1/3
f 15/1/3 48/1/3 47/1/3
f 2/1/3 35/1/3 33/1/3
f 29/1/3 62/1/3 61/1/3
f 16/1/3 49/1/3 48/1/3
f 3/1/3 36/1/3 35/1/3
f 30/1/3 63/1/3 62/1/3
f 17/1/3 50/1/3 49/1/3
f 4/1/3 37/1/3 36/1/3
f 31/1/3 64/1/3 63/1/3
f 18/1/3 51/1/3 50/1/3
f 5/1/3 38/1/3 37/1/3
f 32/1/3 34/1/3 64/1/3
f 19/1/3 52/1/3 51/1/3
f 6/1/3 39/1/3 38/1/3
f 20/1/3 53/1/3 52/1/3
f 7/1/3 40/1/3 39/1/3
f 21/1/3 54/1/3 53/1/3
f 8/1/3 41/1/3 40/1/3
f 22/1/3 55/1/3 54/1/3
f 9/1/3 42/1/3 41/1/3
f 23/1/3 56/1/3 55/1/3
f 10/1/3 43/1/3 42/1/3
f 24/1/3 57/1/3 56/1/3
f 11/1/3 44/1/3 43/1/3
f 25/1/3 58/1/3 57/1/3
f 12/1/3 45/1/3 44/1/3
f 74/1/4 107/1/4 106/1/4
f 54/1/5 85/1/5 53/1/5
f 41/1/6 72/1/6 40/1/6
f 55/1/7 86/1/7 54/1/7
f 42/1/8 73/1/8 41/1/8
f 56/1/9 87/1/9 55/1/9
f 43/1/10 74/1/10 42/1/10
f 57/1/11 88/1/11 56/1/11
f 44/1/12 75/1/12 43/1/12
f 58/1/13 89/1/13 57/1/13
f 45/1/14 76/1/14 44/1/14
f 59/1/15 90/1/15 58/1/15
f 46/1/16 77/1/16 45/1/16
f 60/1/17 91/1/17 59/1/17
f 47/1/18 78/1/18 46/1/18
f 33/1/19 66/1/19 34/1/19
f 61/1/20 92/1/20 60/1/20
f 48/1/21 79/1/21 47/1/21
f 35/1/22 65/1/22 33/1/22
f 62/1/23 93/1/23 61/1/23
f 49/1/24 80/1/24 48/1/24
f 36/1/25 67/1/25 35/1/25
f 63/1/26 94/1/26 62/1/26
f 50/1/27 81/1/27 49/1/27
f 37/1/28 68/1/28 36/1/28
f 64/1/29 95/1/29 63/1/29
f 51/1/30 82/1/30 50/1/30
f 38/1/31 69/1/31 37/1/31
f 34/1/32 96/1/32 64/1/32
f 52/1/33 83/1/33 51/1/33
f 39/1/34 70/1/34 38/1/34
f 53/1/35 84/1/35 52/1/35
f 114/1/36 145/1/36 113/1/36
f 89/1/37 120/1/37 88/1/37
f 75/1/38 108/1/38 107/1/38
f 90/1/39 121/1/39 89/1/39
f 76/1/40 109/1/40 108/1/40
f 91/1/41 122/1/41 90/1/41
f 78/1/42 109/1/42 77/1/42
f 92/1/43 123/1/43 91/1/43
f 78/1/44 111/1/44 110/1/44
f 66/1/45 97/1/45 98/1/45
f 93/1/46 124/1/46 92/1/46
f 80/1/47 111/1/47 79/1/47
f 67/1/48 97/1/48 65/1/48
f 94/1/49 125/1/49 93/1/49
f 81/1/50 112/1/50 80/1/50
f 67/1/51 100/1/51 99/1/51
f 94/1/52 127/1/52 126/1/52
f 81/1/53 114/1/53 113/1/53
f 68/1/54 101/1/54 100/1/54
f 96/1/55 127/1/55 95/1/55
f 83/1/56 114/1/56 82/1/56
f 69/1/57 102/1/57 101/1/57
f 66/1/58 128/1/58 96/1/58
f 84/1/59 115/1/59 83/1/59
f 70/1/60 103/1/60 102/1/60
f 85/1/61 116/1/61 84/1/61
f 72/1/62 103/1/62 71/1/62
f 86/1/63 117/1/63 85/1/63
f 72/1/64 105/1/64 104/1/64
f 87/1/65 118/1/65 86/1/65
f 73/1/66 106/1/66 105/1/66
f 88/1/67 119/1/67 87/1/67
f 145/1/3 153/1/3 130/1/3
f 101/1/28 132/1/28 100/1/28
f 128/1/29 159/1/29 127/1/29
f 115/1/68 146/1/68 114/1/68
f 102/1/31 133/1/31 101/1/31
f 98/1/69 160/1/69 128/1/69
f 116/1/33 147/1/33 115/1/33
f 103/1/70 134/1/70 102/1/70
f 117/1/35 148/1/35 116/1/35
f 104/1/71 135/1/71 103/1/71
f 118/1/5 149/1/5 117/1/5
f 105/1/6 136/1/6 104/1/6
f 119/1/7 150/1/7 118/1/7
f 106/1/8 137/1/8 105/1/8
f 120/1/9 151/1/9 119/1/9
f 107/1/10 138/1/10 106/1/10
f 121/1/72 152/1/72 120/1/72
f 108/1/73 139/1/73 107/1/73
f 122/1/13 153/1/13 121/1/13
f 109/1/14 140/1/14 108/1/14
f 123/1/15 154/1/15 122/1/15
f 110/1/16 141/1/16 109/1/16
f 124/1/74 155/1/74 123/1/74
f 111/1/18 142/1/18 110/1/18
f 97/1/75 130/1/75 98/1/75
f 125/1/20 156/1/20 124/1/20
f 112/1/76 143/1/76 111/1/76
f 99/1/22 129/1/22 97/1/22
f 126/1/23 157/1/23 125/1/23
f 113/1/77 144/1/77 112/1/77
f 100/1/25 131/1/25 99/1/25
f 127/1/26 158/1/26 126/1/26
f 3/1/78 2/1/78 1/1/78
f 1/1/1 32/1/1 31/1/1
f 31/1/79 30/1/79 29/1/79
f 29/1/1 28/1/1 27/1/1
f 27/1/80 26/1/80 25/1/80
f 25/1/80 24/1/80 23/1/80
f 23/1/81 22/1/81 21/1/81
f 21/1/79 20/1/79 19/1/79
f 19/1/82 18/1/82 17/1/82
f 17/1/1 16/1/1 15/1/1
f 15/1/81 14/1/81 13/1/81
f 13/1/1 12/1/1 11/1/1
f 11/1/83 10/1/83 9/1/83
f 9/1/83 8/1/83 7/1/83
f 7/1/79 6/1/79 5/1/79
f 5/1/81 4/1/81 3/1/81
f 3/1/1 1/1/1 31/1/1
f 31/1/84 29/1/84 27/1/84
f 27/1/1 25/1/1 23/1/1
f 23/1/84 21/1/84 19/1/84
f 19/1/1 17/1/1 15/1/1
f 15/1/85 13/1/85 11/1/85
f 11/1/1 9/1/1 7/1/1
f 7/1/85 5/1/85 3/1/85
f 3/1/1 31/1/1 27/1/1
f 27/1/1 23/1/1 19/1/1
f 19/1/1 15/1/1 11/1/1
f 11/1/1 7/1/1 3/1/1
f 3/1/1 27/1/1 19/1/1
f 40/1/71 72/1/71 71/1/71
f 26/1/3 27/1/3 59/1/3
f 13/1/3 14/1/3 46/1/3
f 27/1/3 28/1/3 60/1/3
f 14/1/3 15/1/3 47/1/3
f 1/1/3 2/1/3 33/1/3
f 28/1/3 29/1/3 61/1/3
f 15/1/3 16/1/3 48/1/3
f 2/1/3 3/1/3 35/1/3
f 29/1/3 30/1/3 62/1/3
f 16/1/3 17/1/3 49/1/3
f 3/1/3 4/1/3 36/1/3
f 30/1/3 31/1/3 63/1/3
f 17/1/3 18/1/3 50/1/3
f 4/1/3 5/1/3 37/1/3
f 31/1/3 32/1/3 64/1/3
f 18/1/3 19/1/3 51/1/3
f 5/1/3 6/1/3 38/1/3
f 32/1/3 1/1/3 34/1/3
f 19/1/3 20/1/3 52/1/3
f 6/1/3 7/1/3 39/1/3
f 20/1/3 21/1/3 53/1/3
f 7/1/3 8/1/3 40/1/3
f 21/1/3 22/1/3 54/1/3
f 8/1/3 9/1/3 41/1/3
f 22/1/3 23/1/3 55/1/3
f 9/1/3 10/1/3 42/1/3
f 23/1/3 24/1/3 56/1/3
f 10/1/3 11/1/3 43/1/3
f 24/1/3 25/1/3 57/1/3
f 11/1/3 12/1/3 44/1/3
f 25/1/3 26/1/3 58/1/3
f 12/1/3 13/1/3 45/1/3
f 74/1/86 75/1/86 107/1/86
f 54/1/5 86/1/5 85/1/5
f 41/1/6 73/1/6 72/1/6
f 55/1/87 87/1/87 86/1/87
f 42/1/8 74/1/8 73/1/8
f 56/1/9 88/1/9 87/1/9
f 43/1/88 75/1/88 74/1/88
f 57/1/72 89/1/72 88/1/72
f 44/1/12 76/1/12 75/1/12
f 58/1/89 90/1/89 89/1/89
f 45/1/14 77/1/14 76/1/14
f 59/1/15 91/1/15 90/1/15
f 46/1/16 78/1/16 77/1/16
f 60/1/74 92/1/74 91/1/74
f 47/1/18 79/1/18 78/1/18
f 33/1/19 65/1/19 66/1/19
f 61/1/20 93/1/20 92/1/20
f 48/1/76 80/1/76 79/1/76
f 35/1/90 67/1/90 65/1/90
f 62/1/23 94/1/23 93/1/23
f 49/1/24 81/1/24 80/1/24
f 36/1/25 68/1/25 67/1/25
f 63/1/26 95/1/26 94/1/26
f 50/1/27 82/1/27 81/1/27
f 37/1/28 69/1/28 68/1/28
f 64/1/91 96/1/91 95/1/91
f 51/1/68 83/1/68 82/1/68
f 38/1/92 70/1/92 69/1/92
f 34/1/32 66/1/32 96/1/32
f 52/1/33 84/1/33 83/1/33
f 39/1/34 71/1/34 70/1/34
f 53/1/35 85/1/35 84/1/35
f 114/1/36 146/1/36 145/1/36
f 89/1/93 121/1/93 120/1/93
f 75/1/38 76/1/38 108/1/38
f 90/1/94 122/1/94 121/1/94
f 76/1/40 77/1/40 109/1/40
f 91/1/41 123/1/41 122/1/41
f 78/1/95 110/1/95 109/1/95
f 92/1/96 124/1/96 123/1/96
f 78/1/97 79/1/97 111/1/97
f 66/1/98 65/1/98 97/1/98
f 93/1/99 125/1/99 124/1/99
f 80/1/100 112/1/100 111/1/100
f 67/1/48 99/1/48 97/1/48
f 94/1/101 126/1/101 125/1/101
f 81/1/102 113/1/102 112/1/102
f 67/1/103 68/1/103 100/1/103
f 94/1/104 95/1/104 127/1/104
f 81/1/105 82/1/105 114/1/105
f 68/1/106 69/1/106 101/1/106
f 96/1/55 128/1/55 127/1/55
f 83/1/107 115/1/107 114/1/107
f 69/1/108 70/1/108 102/1/108
f 66/1/109 98/1/109 128/1/109
f 84/1/110 116/1/110 115/1/110
f 70/1/111 71/1/111 103/1/111
f 85/1/112 117/1/112 116/1/112
f 72/1/113 104/1/113 103/1/113
f 86/1/63 118/1/63 117/1/63
f 72/1/114 73/1/114 105/1/114
f 87/1/65 119/1/65 118/1/65
f 73/1/115 74/1/115 106/1/115
f 88/1/116 120/1/116 119/1/116
f 130/1/117 129/1/117 131/1/117
f 131/1/3 132/1/3 133/1/3
f 133/1/118 134/1/118 135/1/118
f 135/1/118 136/1/118 137/1/118
f 137/1/119 138/1/119 139/1/119
f 139/1/118 140/1/118 141/1/118
f 141/1/120 142/1/120 143/1/120
f 143/1/121 144/1/121 145/1/121
f 145/1/120 146/1/120 147/1/120
f 147/1/3 148/1/3 149/1/3
f 149/1/119 150/1/119 151/1/119
f 151/1/118 152/1/118 153/1/118
f 153/1/119 154/1/119 155/1/119
f 155/1/119 156/1/119 157/1/119
f 157/1/117 158/1/117 159/1/117
f 159/1/122 160/1/122 130/1/122
f 130/1/123 131/1/123 133/1/123
f 133/1/124 135/1/124 137/1/124
f 137/1/3 139/1/3 141/1/3
f 141/1/123 143/1/123 145/1/123
f 145/1/3 147/1/3 149/1/3
f 149/1/3 151/1/3 153/1/3
f 153/1/123 155/1/123 157/1/123
f 157/1/124 159/1/124 130/1/124
f 130/1/3 133/1/3 137/1/3
f 137/1/3 141/1/3 145/1/3
f 145/1/3 149/1/3 153/1/3
f 153/1/3 157/1/3 130/1/3
f 130/1/3 137/1/3 145/1/3
f 101/1/28 133/1/28 132/1/28
f 128/1/29 160/1/29 159/1/29
f 115/1/68 147/1/68 146/1/68
f 102/1/31 134/1/31 133/1/31
f 98/1/69 130/1/69 160/1/69
f 116/1/33 148/1/33 147/1/33
f 103/1/125 135/1/125 134/1/125
f 117/1/35 149/1/35 148/1/35
f 104/1/71 136/1/71 135/1/71
f 118/1/5 150/1/5 149/1/5
f 105/1/6 137/1/6 136/1/6
f 119/1/7 151/1/7 150/1/7
f 106/1/8 138/1/8 137/1/8
f 120/1/126 152/1/126 151/1/126
f 107/1/10 139/1/10 138/1/10
f 121/1/72 153/1/72 152/1/72
f 108/1/73 140/1/73 139/1/73
f 122/1/13 154/1/13 153/1/13
f 109/1/14 141/1/14 140/1/14
f 123/1/15 155/1/15 154/1/15
f 110/1/16 142/1/16 141/1/16
f 124/1/74 156/1/74 155/1/74
f 111/1/18 143/1/18 142/1/18
f 97/1/75 129/1/75 130/1/75
f 125/1/20 157/1/20 156/1/20
f 112/1/76 144/1/76 143/1/76
f 99/1/22 131/1/22 129/1/22
f 126/1/23 158/1/23 157/1/23
f 113/1/77 145/1/77 144/1/77
f 100/1/25 132/1/25 131/1/25
f 127/1/26 159/1/26 158/1/26
