# Blender 4.1.1
# www.blender.org
mtllib Circle.749.mtl
o Circle.037
v 3491.968262 -1615.725464 544.725647
v 3489.798584 -1615.725464 544.939392
v 3487.712158 -1615.725464 545.572266
v 3485.789307 -1615.725464 546.600037
v 3484.104004 -1615.725464 547.983154
v 3482.720947 -1615.725464 549.668457
v 3481.693115 -1615.725464 551.591248
v 3481.060303 -1615.725464 553.677612
v 3480.846680 -1615.725464 555.847351
v 3481.060303 -1615.725464 558.017090
v 3481.693115 -1615.725464 560.103455
v 3482.720947 -1615.725464 562.026245
v 3484.104004 -1615.725464 563.711548
v 3485.789307 -1615.725464 565.094666
v 3487.712158 -1615.725464 566.122437
v 3489.798584 -1615.725464 566.755310
v 3491.968262 -1615.725464 566.969055
v 3494.137939 -1615.725464 566.755310
v 3496.224365 -1615.725464 566.122437
v 3498.147217 -1615.725464 565.094666
v 3499.832520 -1615.725464 563.711548
v 3501.215576 -1615.725464 562.026245
v 3502.243408 -1615.725464 560.103455
v 3502.876221 -1615.725464 558.017090
v 3503.089844 -1615.725464 555.847351
v 3502.876221 -1615.725464 553.677612
v 3502.243408 -1615.725464 551.591248
v 3501.215576 -1615.725464 549.668457
v 3499.832520 -1615.725464 547.983154
v 3498.147217 -1615.725464 546.600037
v 3496.224365 -1615.725464 545.572266
v 3494.137939 -1615.725464 544.939392
v 3489.798584 -1615.725464 544.939392
v 3491.968262 -1615.725464 544.725647
v 3487.712158 -1615.725464 545.572266
v 3485.789307 -1615.725464 546.600037
v 3484.104004 -1615.725464 547.983154
v 3482.720947 -1615.725464 549.668457
v 3481.693115 -1615.725464 551.591248
v 3481.060303 -1615.725464 553.677612
v 3480.846680 -1615.725464 555.847351
v 3481.060303 -1615.725464 558.017090
v 3481.693115 -1615.725464 560.103455
v 3482.720947 -1615.725464 562.026245
v 3484.104004 -1615.725464 563.711548
v 3485.789307 -1615.725464 565.094666
v 3487.712158 -1615.725464 566.122437
v 3489.798584 -1615.725464 566.755310
v 3491.968262 -1615.725464 566.969055
v 3494.137939 -1615.725464 566.755310
v 3496.224365 -1615.725464 566.122437
v 3498.147217 -1615.725464 565.094666
v 3499.832520 -1615.725464 563.711548
v 3501.215576 -1615.725464 562.026245
v 3502.243408 -1615.725464 560.103455
v 3502.876221 -1615.725464 558.017090
v 3503.089844 -1615.725464 555.847351
v 3502.876221 -1615.725464 553.677612
v 3502.243408 -1615.725464 551.591248
v 3501.215576 -1615.725464 549.668457
v 3499.832520 -1615.725464 547.983154
v 3498.147217 -1615.725464 546.600037
v 3496.224365 -1615.725464 545.572266
v 3494.137939 -1615.725464 544.939392
v 3489.798584 -1586.364258 544.939392
v 3491.968262 -1586.364258 544.725647
v 3487.712158 -1586.364258 545.572266
v 3485.789307 -1586.364258 546.600037
v 3484.104004 -1586.364258 547.983154
v 3482.720947 -1586.364258 549.668457
v 3481.693115 -1586.364258 551.591248
v 3481.060303 -1586.364258 553.677612
v 3480.846680 -1586.364258 555.847351
v 3481.060303 -1586.364258 558.017090
v 3481.693115 -1586.364258 560.103455
v 3482.720947 -1586.364258 562.026245
v 3484.104004 -1586.364258 563.711548
v 3485.789307 -1586.364258 565.094666
v 3487.712158 -1586.364258 566.122437
v 3489.798584 -1586.364258 566.755310
v 3491.968262 -1586.364258 566.969055
v 3494.137939 -1586.364258 566.755310
v 3496.224365 -1586.364258 566.122437
v 3498.147217 -1586.364258 565.094666
v 3499.832520 -1586.364258 563.711548
v 3501.215576 -1586.364258 562.026245
v 3502.243408 -1586.364258 560.103455
v 3502.876221 -1586.364258 558.017090
v 3503.089844 -1586.364258 555.847351
v 3502.876221 -1586.364258 553.677612
v 3502.243408 -1586.364258 551.591248
v 3501.215576 -1586.364258 549.668457
v 3499.832520 -1586.364258 547.983154
v 3498.147217 -1586.364258 546.600037
v 3496.224365 -1586.364258 545.572266
v 3494.137939 -1586.364258 544.939392
v 3488.302979 -1585.013062 537.418640
v 3491.968506 -1585.013062 537.057617
v 3484.778076 -1585.013062 538.487854
v 3481.529785 -1585.013062 540.224182
v 3478.682373 -1585.013062 542.560852
v 3476.345703 -1585.013062 545.408142
v 3474.609375 -1585.013062 548.656555
v 3473.540283 -1585.013062 552.181274
v 3473.179199 -1585.013062 555.846863
v 3473.540283 -1585.013062 559.512512
v 3474.609375 -1585.013062 563.037231
v 3476.345703 -1585.013062 566.285645
v 3478.682373 -1585.013062 569.132874
v 3481.529785 -1585.013062 571.469604
v 3484.778076 -1585.013062 573.205872
v 3488.302979 -1585.013062 574.275085
v 3491.968506 -1585.013062 574.636108
v 3495.634033 -1585.013062 574.275085
v 3499.158936 -1585.013062 573.205872
v 3502.407227 -1585.013062 571.469604
v 3505.254395 -1585.013062 569.132874
v 3507.591309 -1585.013062 566.285645
v 3509.327393 -1585.013062 563.037231
v 3510.396729 -1585.013062 559.512512
v 3510.757812 -1585.013062 555.846863
v 3510.396729 -1585.013062 552.181274
v 3509.327393 -1585.013062 548.656555
v 3507.591309 -1585.013062 545.408142
v 3505.254395 -1585.013062 542.560852
v 3502.407227 -1585.013062 540.224182
v 3499.158936 -1585.013062 538.487854
v 3495.634033 -1585.013062 537.418640
v 3488.302979 -1575.047363 537.418640
v 3491.968506 -1575.047363 537.057617
v 3484.778076 -1575.047363 538.487854
v 3481.529785 -1575.047363 540.224182
v 3478.682373 -1575.047363 542.560852
v 3476.345703 -1575.047363 545.408142
v 3474.609375 -1575.047363 548.656555
v 3473.540283 -1575.047363 552.181274
v 3473.179199 -1575.047363 555.846863
v 3473.540283 -1575.047363 559.512512
v 3474.609375 -1575.047363 563.037231
v 3476.345703 -1575.047363 566.285645
v 3478.682373 -1575.047363 569.132874
v 3481.529785 -1575.047363 571.469604
v 3484.778076 -1575.047363 573.205872
v 3488.302979 -1575.047363 574.275085
v 3491.968506 -1575.047363 574.636108
v 3495.634033 -1575.047363 574.275085
v 3499.158936 -1575.047363 573.205872
v 3502.407227 -1575.047363 571.469604
v 3505.254395 -1575.047363 569.132874
v 3507.591309 -1575.047363 566.285645
v 3509.327393 -1575.047363 563.037231
v 3510.396729 -1575.047363 559.512512
v 3510.757812 -1575.047363 555.846863
v 3510.396729 -1575.047363 552.181274
v 3509.327393 -1575.047363 548.656555
v 3507.591309 -1575.047363 545.408142
v 3505.254395 -1575.047363 542.560852
v 3502.407227 -1575.047363 540.224182
v 3499.158936 -1575.047363 538.487854
v 3495.634033 -1575.047363 537.418640
vn -0.0000 -1.0000 -0.0000
vn -0.0980 -0.0000 0.9952
vn -0.0000 1.0000 -0.0000
vn 0.0822 -0.9847 0.1538
vn -0.4713 -0.0000 -0.8820
vn 0.4714 -0.0000 -0.8819
vn 0.0980 -0.0000 0.9952
vn -0.6345 -0.0000 -0.7729
vn 0.2902 -0.0000 -0.9570
vn 0.2902 -0.0000 0.9570
vn -0.7731 -0.0000 -0.6342
vn 0.0981 -0.0000 -0.9952
vn 0.4714 -0.0000 0.8819
vn -0.8818 -0.0000 -0.4715
vn 0.6344 -0.0000 0.7730
vn -0.9570 -0.0000 -0.2902
vn 0.7731 -0.0000 0.6342
vn -0.9952 -0.0000 -0.0976
vn 0.8819 -0.0000 0.4713
vn -0.9952 -0.0000 0.0981
vn 0.9570 -0.0000 0.2902
vn -0.9569 -0.0000 0.2904
vn 0.9952 -0.0000 0.0979
vn -0.8819 -0.0000 0.4713
vn 0.9952 -0.0000 -0.0981
vn -0.7730 -0.0000 0.6344
vn 0.9570 -0.0000 -0.2902
vn -0.6343 -0.0000 0.7731
vn 0.8818 -0.0000 -0.4715
vn -0.4714 -0.0000 0.8819
vn -0.0980 -0.0000 -0.9952
vn 0.7729 -0.0000 -0.6345
vn -0.2903 -0.0000 0.9569
vn -0.2902 -0.0000 -0.9570
vn 0.6344 -0.0000 -0.7730
vn 0.8819 -0.0000 0.4714
vn -0.1538 -0.9847 -0.0822
vn 0.1106 -0.9847 0.1348
vn -0.1669 -0.9847 -0.0506
vn 0.1348 -0.9847 0.1106
vn -0.1736 -0.9847 -0.0171
vn 0.1537 -0.9847 0.0823
vn -0.1736 -0.9847 0.0171
vn 0.1668 -0.9847 0.0506
vn -0.1669 -0.9847 0.0506
vn 0.1735 -0.9847 0.0171
vn -0.1538 -0.9847 0.0822
vn 0.1735 -0.9847 -0.0171
vn -0.1348 -0.9847 0.1106
vn 0.1668 -0.9847 -0.0506
vn -0.1106 -0.9847 0.1348
vn 0.1538 -0.9847 -0.0822
vn -0.0822 -0.9847 0.1538
vn -0.0171 -0.9847 -0.1735
vn 0.1348 -0.9847 -0.1106
vn -0.0506 -0.9847 0.1669
vn -0.0506 -0.9847 -0.1668
vn 0.1105 -0.9847 -0.1348
vn -0.0170 -0.9847 0.1735
vn -0.0822 -0.9847 -0.1538
vn 0.0822 -0.9847 -0.1537
vn 0.0170 -0.9847 0.1736
vn -0.1106 -0.9847 -0.1348
vn 0.0506 -0.9847 -0.1668
vn 0.0506 -0.9847 0.1669
vn -0.1348 -0.9847 -0.1106
vn 0.0171 -0.9847 -0.1735
vn 0.9569 -0.0000 0.2903
vn -0.9569 -0.0000 0.2903
vn -0.8820 -0.0000 0.4713
vn 0.9569 -0.0000 -0.2903
vn -0.6344 -0.0000 0.7730
vn 0.8820 -0.0000 -0.4713
vn -0.4715 -0.0000 0.8819
vn 0.7730 -0.0000 -0.6344
vn -0.2902 -0.0000 0.9570
vn -0.2903 -0.0000 -0.9569
vn -0.4714 -0.0000 -0.8819
vn 0.4715 -0.0000 -0.8819
vn -0.6344 -0.0000 -0.7730
vn 0.2903 -0.0000 0.9569
vn -0.7730 -0.0000 -0.6344
vn 0.0980 -0.0000 -0.9952
vn -0.8819 -0.0000 -0.4714
vn -0.9569 -0.0000 -0.2903
vn 0.7730 -0.0000 0.6344
vn -0.9952 -0.0000 -0.0979
vn -0.0001 -1.0000 -0.0000
vn 0.0001 -1.0000 -0.0000
vn -0.0005 -1.0000 -0.0000
vn -0.0003 -1.0000 -0.0000
vn 0.0005 -1.0000 -0.0000
vn 0.0003 -1.0000 -0.0000
vn 0.0981 -0.0000 0.9952
vn -0.6343 -0.0000 -0.7731
vn -0.8820 -0.0000 -0.4713
vn -0.9569 -0.0000 -0.2904
vn 0.7729 -0.0000 0.6345
vn -0.9952 -0.0000 -0.0981
vn 0.8818 -0.0000 0.4715
vn -0.9952 -0.0000 0.0976
vn -0.9570 -0.0000 0.2902
vn 0.9952 -0.0000 0.0981
vn -0.8818 -0.0000 0.4715
vn 0.9952 -0.0000 -0.0979
vn -0.7731 -0.0000 0.6342
vn -0.6345 -0.0000 0.7729
vn -0.4713 -0.0000 0.8820
vn 0.7731 -0.0000 -0.6342
vn 0.8820 -0.0000 0.4713
vn -0.1537 -0.9847 -0.0822
vn 0.1107 -0.9847 0.1348
vn -0.1668 -0.9847 -0.0506
vn -0.1735 -0.9847 -0.0171
vn 0.1538 -0.9847 0.0822
vn -0.1735 -0.9847 0.0171
vn 0.1669 -0.9847 0.0506
vn -0.1668 -0.9847 0.0506
vn 0.1736 -0.9847 0.0171
vn -0.1537 -0.9847 0.0821
vn 0.1736 -0.9847 -0.0171
vn 0.1669 -0.9847 -0.0506
vn 0.1537 -0.9847 -0.0822
vn -0.0505 -0.9847 -0.1669
vn 0.1106 -0.9847 -0.1348
vn -0.0171 -0.9847 0.1735
vn 0.0822 -0.9847 -0.1538
vn 0.0171 -0.9847 0.1735
vn 0.0505 -0.9847 -0.1669
vn 0.0170 -0.9847 -0.1736
vn 0.0002 1.0000 -0.0000
vn 0.0004 1.0000 -0.0000
vn -0.0002 1.0000 -0.0000
vn -0.0004 1.0000 -0.0000
vn -0.0001 1.0000 -0.0000
vn 0.0001 1.0000 -0.0000
vn -0.9952 -0.0000 0.0979
vn -0.8819 -0.0000 0.4714
vn 0.8819 -0.0000 -0.4714
vn -0.4715 -0.0000 -0.8819
vn 0.2903 -0.0000 -0.9569
vn 0.4715 -0.0000 0.8819
vt 0.000000 0.000000
s 0
usemtl Material.003
f 19/1/1 11/1/1 3/1/1
f 49/1/2 80/1/2 48/1/2
f 8/1/3 41/1/3 40/1/3
f 22/1/3 55/1/3 54/1/3
f 9/1/3 42/1/3 41/1/3
f 23/1/3 56/1/3 55/1/3
f 10/1/3 43/1/3 42/1/3
f 24/1/3 57/1/3 56/1/3
f 11/1/3 44/1/3 43/1/3
f 25/1/3 58/1/3 57/1/3
f 12/1/3 45/1/3 44/1/3
f 26/1/3 59/1/3 58/1/3
f 13/1/3 46/1/3 45/1/3
f 27/1/3 60/1/3 59/1/3
f 14/1/3 47/1/3 46/1/3
f 1/1/3 33/1/3 34/1/3
f 28/1/3 61/1/3 60/1/3
f 15/1/3 48/1/3 47/1/3
f 2/1/3 35/1/3 33/1/3
f 29/1/3 62/1/3 61/1/3
f 16/1/3 49/1/3 48/1/3
f 3/1/3 36/1/3 35/1/3
f 30/1/3 63/1/3 62/1/3
f 17/1/3 50/1/3 49/1/3
f 4/1/3 37/1/3 36/1/3
f 31/1/3 64/1/3 63/1/3
f 18/1/3 51/1/3 50/1/3
f 5/1/3 38/1/3 37/1/3
f 32/1/3 34/1/3 64/1/3
f 19/1/3 52/1/3 51/1/3
f 6/1/3 39/1/3 38/1/3
f 20/1/3 53/1/3 52/1/3
f 7/1/3 40/1/3 39/1/3
f 21/1/3 54/1/3 53/1/3
f 84/1/4 115/1/4 83/1/4
f 36/1/5 67/1/5 35/1/5
f 63/1/6 94/1/6 62/1/6
f 50/1/7 81/1/7 49/1/7
f 37/1/8 68/1/8 36/1/8
f 64/1/9 95/1/9 63/1/9
f 51/1/10 82/1/10 50/1/10
f 38/1/11 69/1/11 37/1/11
f 34/1/12 96/1/12 64/1/12
f 52/1/13 83/1/13 51/1/13
f 39/1/14 70/1/14 38/1/14
f 53/1/15 84/1/15 52/1/15
f 40/1/16 71/1/16 39/1/16
f 54/1/17 85/1/17 53/1/17
f 41/1/18 72/1/18 40/1/18
f 55/1/19 86/1/19 54/1/19
f 42/1/20 73/1/20 41/1/20
f 56/1/21 87/1/21 55/1/21
f 43/1/22 74/1/22 42/1/22
f 57/1/23 88/1/23 56/1/23
f 44/1/24 75/1/24 43/1/24
f 58/1/25 89/1/25 57/1/25
f 45/1/26 76/1/26 44/1/26
f 59/1/27 90/1/27 58/1/27
f 46/1/28 77/1/28 45/1/28
f 60/1/29 91/1/29 59/1/29
f 47/1/30 78/1/30 46/1/30
f 33/1/31 66/1/31 34/1/31
f 61/1/32 92/1/32 60/1/32
f 48/1/33 79/1/33 47/1/33
f 35/1/34 65/1/34 33/1/34
f 62/1/35 93/1/35 61/1/35
f 119/1/36 150/1/36 118/1/36
f 70/1/37 103/1/37 102/1/37
f 85/1/38 116/1/38 84/1/38
f 71/1/39 104/1/39 103/1/39
f 86/1/40 117/1/40 85/1/40
f 72/1/41 105/1/41 104/1/41
f 87/1/42 118/1/42 86/1/42
f 73/1/43 106/1/43 105/1/43
f 88/1/44 119/1/44 87/1/44
f 74/1/45 107/1/45 106/1/45
f 89/1/46 120/1/46 88/1/46
f 75/1/47 108/1/47 107/1/47
f 90/1/48 121/1/48 89/1/48
f 76/1/49 109/1/49 108/1/49
f 91/1/50 122/1/50 90/1/50
f 77/1/51 110/1/51 109/1/51
f 91/1/52 124/1/52 123/1/52
f 79/1/53 110/1/53 78/1/53
f 66/1/54 97/1/54 98/1/54
f 92/1/55 125/1/55 124/1/55
f 80/1/56 111/1/56 79/1/56
f 65/1/57 99/1/57 97/1/57
f 94/1/58 125/1/58 93/1/58
f 81/1/59 112/1/59 80/1/59
f 67/1/60 100/1/60 99/1/60
f 95/1/61 126/1/61 94/1/61
f 82/1/62 113/1/62 81/1/62
f 69/1/63 100/1/63 68/1/63
f 95/1/64 128/1/64 127/1/64
f 83/1/65 114/1/65 82/1/65
f 69/1/66 102/1/66 101/1/66
f 96/1/67 98/1/67 128/1/67
f 145/1/3 153/1/3 130/1/3
f 106/1/20 137/1/20 105/1/20
f 120/1/68 151/1/68 119/1/68
f 107/1/69 138/1/69 106/1/69
f 121/1/23 152/1/23 120/1/23
f 108/1/70 139/1/70 107/1/70
f 122/1/25 153/1/25 121/1/25
f 109/1/26 140/1/26 108/1/26
f 123/1/71 154/1/71 122/1/71
f 110/1/72 141/1/72 109/1/72
f 124/1/73 155/1/73 123/1/73
f 111/1/74 142/1/74 110/1/74
f 97/1/31 130/1/31 98/1/31
f 125/1/75 156/1/75 124/1/75
f 112/1/76 143/1/76 111/1/76
f 99/1/77 129/1/77 97/1/77
f 126/1/35 157/1/35 125/1/35
f 113/1/2 144/1/2 112/1/2
f 100/1/78 131/1/78 99/1/78
f 127/1/79 158/1/79 126/1/79
f 114/1/7 145/1/7 113/1/7
f 101/1/80 132/1/80 100/1/80
f 128/1/9 159/1/9 127/1/9
f 115/1/81 146/1/81 114/1/81
f 102/1/82 133/1/82 101/1/82
f 98/1/83 160/1/83 128/1/83
f 116/1/13 147/1/13 115/1/13
f 103/1/84 134/1/84 102/1/84
f 117/1/15 148/1/15 116/1/15
f 104/1/85 135/1/85 103/1/85
f 118/1/86 149/1/86 117/1/86
f 105/1/87 136/1/87 104/1/87
f 3/1/88 2/1/88 1/1/88
f 1/1/89 32/1/89 31/1/89
f 31/1/90 30/1/90 29/1/90
f 29/1/90 28/1/90 27/1/90
f 27/1/1 26/1/1 25/1/1
f 25/1/1 24/1/1 23/1/1
f 23/1/90 22/1/90 21/1/90
f 21/1/91 20/1/91 19/1/91
f 19/1/89 18/1/89 17/1/89
f 17/1/88 16/1/88 15/1/88
f 15/1/92 14/1/92 13/1/92
f 13/1/92 12/1/92 11/1/92
f 11/1/1 10/1/1 9/1/1
f 9/1/1 8/1/1 7/1/1
f 7/1/92 6/1/92 5/1/92
f 5/1/93 4/1/93 3/1/93
f 3/1/1 1/1/1 31/1/1
f 31/1/89 29/1/89 27/1/89
f 27/1/1 25/1/1 23/1/1
f 23/1/89 21/1/89 19/1/89
f 19/1/1 17/1/1 15/1/1
f 15/1/88 13/1/88 11/1/88
f 11/1/1 9/1/1 7/1/1
f 7/1/88 5/1/88 3/1/88
f 3/1/1 31/1/1 27/1/1
f 27/1/1 23/1/1 19/1/1
f 19/1/1 15/1/1 11/1/1
f 11/1/1 7/1/1 3/1/1
f 3/1/1 27/1/1 19/1/1
f 49/1/2 81/1/2 80/1/2
f 8/1/3 9/1/3 41/1/3
f 22/1/3 23/1/3 55/1/3
f 9/1/3 10/1/3 42/1/3
f 23/1/3 24/1/3 56/1/3
f 10/1/3 11/1/3 43/1/3
f 24/1/3 25/1/3 57/1/3
f 11/1/3 12/1/3 44/1/3
f 25/1/3 26/1/3 58/1/3
f 12/1/3 13/1/3 45/1/3
f 26/1/3 27/1/3 59/1/3
f 13/1/3 14/1/3 46/1/3
f 27/1/3 28/1/3 60/1/3
f 14/1/3 15/1/3 47/1/3
f 1/1/3 2/1/3 33/1/3
f 28/1/3 29/1/3 61/1/3
f 15/1/3 16/1/3 48/1/3
f 2/1/3 3/1/3 35/1/3
f 29/1/3 30/1/3 62/1/3
f 16/1/3 17/1/3 49/1/3
f 3/1/3 4/1/3 36/1/3
f 30/1/3 31/1/3 63/1/3
f 17/1/3 18/1/3 50/1/3
f 4/1/3 5/1/3 37/1/3
f 31/1/3 32/1/3 64/1/3
f 18/1/3 19/1/3 51/1/3
f 5/1/3 6/1/3 38/1/3
f 32/1/3 1/1/3 34/1/3
f 19/1/3 20/1/3 52/1/3
f 6/1/3 7/1/3 39/1/3
f 20/1/3 21/1/3 53/1/3
f 7/1/3 8/1/3 40/1/3
f 21/1/3 22/1/3 54/1/3
f 84/1/4 116/1/4 115/1/4
f 36/1/78 68/1/78 67/1/78
f 63/1/6 95/1/6 94/1/6
f 50/1/94 82/1/94 81/1/94
f 37/1/95 69/1/95 68/1/95
f 64/1/9 96/1/9 95/1/9
f 51/1/10 83/1/10 82/1/10
f 38/1/82 70/1/82 69/1/82
f 34/1/83 66/1/83 96/1/83
f 52/1/13 84/1/13 83/1/13
f 39/1/96 71/1/96 70/1/96
f 53/1/15 85/1/15 84/1/15
f 40/1/97 72/1/97 71/1/97
f 54/1/98 86/1/98 85/1/98
f 41/1/99 73/1/99 72/1/99
f 55/1/100 87/1/100 86/1/100
f 42/1/101 74/1/101 73/1/101
f 56/1/21 88/1/21 87/1/21
f 43/1/102 75/1/102 74/1/102
f 57/1/103 89/1/103 88/1/103
f 44/1/104 76/1/104 75/1/104
f 58/1/105 90/1/105 89/1/105
f 45/1/106 77/1/106 76/1/106
f 59/1/27 91/1/27 90/1/27
f 46/1/107 78/1/107 77/1/107
f 60/1/73 92/1/73 91/1/73
f 47/1/108 79/1/108 78/1/108
f 33/1/31 65/1/31 66/1/31
f 61/1/109 93/1/109 92/1/109
f 48/1/76 80/1/76 79/1/76
f 35/1/77 67/1/77 65/1/77
f 62/1/35 94/1/35 93/1/35
f 119/1/110 151/1/110 150/1/110
f 70/1/111 71/1/111 103/1/111
f 85/1/112 117/1/112 116/1/112
f 71/1/113 72/1/113 104/1/113
f 86/1/40 118/1/40 117/1/40
f 72/1/114 73/1/114 105/1/114
f 87/1/115 119/1/115 118/1/115
f 73/1/116 74/1/116 106/1/116
f 88/1/117 120/1/117 119/1/117
f 74/1/118 75/1/118 107/1/118
f 89/1/119 121/1/119 120/1/119
f 75/1/120 76/1/120 108/1/120
f 90/1/121 122/1/121 121/1/121
f 76/1/49 77/1/49 109/1/49
f 91/1/122 123/1/122 122/1/122
f 77/1/51 78/1/51 110/1/51
f 91/1/123 92/1/123 124/1/123
f 79/1/53 111/1/53 110/1/53
f 66/1/54 65/1/54 97/1/54
f 92/1/55 93/1/55 125/1/55
f 80/1/56 112/1/56 111/1/56
f 65/1/124 67/1/124 99/1/124
f 94/1/125 126/1/125 125/1/125
f 81/1/126 113/1/126 112/1/126
f 67/1/60 68/1/60 100/1/60
f 95/1/127 127/1/127 126/1/127
f 82/1/128 114/1/128 113/1/128
f 69/1/63 101/1/63 100/1/63
f 95/1/129 96/1/129 128/1/129
f 83/1/65 115/1/65 114/1/65
f 69/1/66 70/1/66 102/1/66
f 96/1/130 66/1/130 98/1/130
f 130/1/3 129/1/3 131/1/3
f 131/1/131 132/1/131 133/1/131
f 133/1/132 134/1/132 135/1/132
f 135/1/132 136/1/132 137/1/132
f 137/1/3 138/1/3 139/1/3
f 139/1/3 140/1/3 141/1/3
f 141/1/131 142/1/131 143/1/131
f 143/1/3 144/1/3 145/1/3
f 145/1/3 146/1/3 147/1/3
f 147/1/133 148/1/133 149/1/133
f 149/1/3 150/1/3 151/1/3
f 151/1/3 152/1/3 153/1/3
f 153/1/134 154/1/134 155/1/134
f 155/1/134 156/1/134 157/1/134
f 157/1/133 158/1/133 159/1/133
f 159/1/3 160/1/3 130/1/3
f 130/1/3 131/1/3 133/1/3
f 133/1/135 135/1/135 137/1/135
f 137/1/3 139/1/3 141/1/3
f 141/1/3 143/1/3 145/1/3
f 145/1/3 147/1/3 149/1/3
f 149/1/3 151/1/3 153/1/3
f 153/1/136 155/1/136 157/1/136
f 157/1/3 159/1/3 130/1/3
f 130/1/3 133/1/3 137/1/3
f 137/1/3 141/1/3 145/1/3
f 145/1/3 149/1/3 153/1/3
f 153/1/3 157/1/3 130/1/3
f 130/1/3 137/1/3 145/1/3
f 106/1/137 138/1/137 137/1/137
f 120/1/68 152/1/68 151/1/68
f 107/1/69 139/1/69 138/1/69
f 121/1/103 153/1/103 152/1/103
f 108/1/138 140/1/138 139/1/138
f 122/1/105 154/1/105 153/1/105
f 109/1/26 141/1/26 140/1/26
f 123/1/71 155/1/71 154/1/71
f 110/1/72 142/1/72 141/1/72
f 124/1/139 156/1/139 155/1/139
f 111/1/30 143/1/30 142/1/30
f 97/1/31 129/1/31 130/1/31
f 125/1/75 157/1/75 156/1/75
f 112/1/33 144/1/33 143/1/33
f 99/1/34 131/1/34 129/1/34
f 126/1/35 158/1/35 157/1/35
f 113/1/2 145/1/2 144/1/2
f 100/1/140 132/1/140 131/1/140
f 127/1/6 159/1/6 158/1/6
f 114/1/7 146/1/7 145/1/7
f 101/1/80 133/1/80 132/1/80
f 128/1/141 160/1/141 159/1/141
f 115/1/10 147/1/10 146/1/10
f 102/1/82 134/1/82 133/1/82
f 98/1/83 130/1/83 160/1/83
f 116/1/142 148/1/142 147/1/142
f 103/1/96 135/1/96 134/1/96
f 117/1/15 149/1/15 148/1/15
f 104/1/85 136/1/85 135/1/85
f 118/1/86 150/1/86 149/1/86
f 105/1/99 137/1/99 136/1/99
