# Blender 4.1.1
# www.blender.org
mtllib enemy_low.mtl
o goomba
v -2.468439 0.910097 5.269747
v -9.002158 1.338765 7.590893
v -10.285228 1.071651 1.035608
v -2.029068 1.082845 -4.425876
v -6.775308 5.075302 3.014157
v 9.851695 0.761017 0.388768
v 9.003631 1.733563 7.593453
v 2.557149 0.914755 4.894779
v 2.025724 0.781334 -4.554007
v 6.015147 5.191604 3.114842
v -1.253597 17.658388 8.181542
v 10.028775 16.671312 4.610633
v 5.777796 22.778448 2.654973
v -5.777796 22.778446 2.654973
v -10.028775 16.671312 4.610633
v 1.253597 17.658386 8.181542
v 4.186975 22.797478 1.938974
v 2.426018 23.957747 -2.099320
v -1.564719 22.786064 -4.375731
v -3.033041 23.774763 2.649654
v -0.110671 10.781162 -11.342754
v -8.098795 10.781162 -7.942283
v 11.344625 10.786416 -0.102792
v 7.942282 10.781162 -8.098796
v -0.484097 6.322187 -5.646133
v -11.342754 10.781164 0.110671
v -4.860355 6.498324 2.353262
v -7.937364 10.784900 8.105727
v 0.128695 10.790346 11.364450
v 4.335166 6.321823 3.650329
v 8.100618 10.792146 7.971906
v 2.245851 2.709728 -4.737409
v 4.737409 2.709728 2.245852
v 0.000000 0.659727 -0.000000
v -2.245852 2.709728 4.737408
v -4.737409 2.709728 -2.245851
vn -0.0883 -0.2656 0.9600
vn -0.9442 -0.3264 0.0432
vn -0.5015 -0.8358 -0.2234
vn -0.2504 0.9510 0.1813
vn -0.8882 0.1208 -0.4434
vn 0.6518 0.0445 -0.7571
vn 0.8780 -0.2516 0.4073
vn -0.4202 -0.3266 0.8466
vn -0.7252 -0.2095 0.6559
vn -0.1625 0.9043 0.3948
vn -0.8918 0.1217 0.4357
vn -0.9253 -0.3271 0.1921
vn 0.2006 0.5527 0.8089
vn -0.2006 0.5527 0.8089
vn -0.5149 0.4155 -0.7498
vn -0.3988 0.8506 0.3427
vn 0.3926 0.8679 -0.3045
vn -0.1792 0.8141 0.5524
vn 0.8426 0.4373 0.3142
vn 0.3227 0.8731 -0.3655
vn 0.6835 0.3746 -0.6266
vn 0.9388 0.3424 0.0366
vn -0.3514 -0.5011 -0.7908
vn 0.5324 -0.1734 -0.8286
vn -0.8053 -0.1238 -0.5798
vn -0.6677 -0.6215 0.4097
vn -0.5461 -0.1211 -0.8289
vn -0.8091 -0.1877 -0.5568
vn -0.6303 0.3670 0.6841
vn 0.6132 -0.6673 0.4227
vn -0.1616 0.3075 0.9377
vn 0.5525 -0.6565 0.5137
vn 0.8631 -0.4496 -0.2302
vn 0.4950 -0.8669 0.0594
vn -0.0013 -1.0000 -0.0036
vn -0.1637 -0.6369 0.7533
vn 0.0558 -0.9861 0.1563
vn -0.9971 -0.0330 0.0687
vn -0.0394 -0.4849 0.8737
vt 0.451107 0.457194
vt 0.451107 0.457194
vt 0.451107 0.457194
vt 0.451107 0.457194
vt 0.451107 0.457194
vt 0.451107 0.457194
vt 0.021869 0.085996
vt 0.987079 0.172901
vt 0.694177 0.742606
vt 0.694444 0.742688
vt 0.986979 0.172376
vt 0.022204 0.086027
vt 0.715434 0.760090
vt 0.714869 0.760090
vt 0.628204 0.797911
vt 0.373425 0.760385
vt 0.681442 0.760968
vt 0.982610 0.211366
vt 0.983665 0.211586
vt 0.718691 0.000000
vt 0.981265 0.211366
vt 0.979921 0.211366
vt 0.717878 0.000000
vt 0.979364 0.211366
vt 0.157583 0.211557
vt 0.015749 0.211389
vt 0.315645 0.000044
vt 0.641457 0.000044
vt 0.500403 0.211989
vt 0.842879 0.212028
s 1
usemtl g002m004.png
f 1/1/1 2/2/2 3/3/3
f 2/2/2 5/3/4 3/3/5
f 4/4/6 5/3/4 1/1/1
f 3/3/5 5/3/4 4/4/6
f 2/2/2 1/1/1 5/3/4
f 3/3/3 4/4/6 1/1/1
f 6/1/7 7/1/8 8/4/9
f 6/1/7 10/5/10 7/1/8
f 8/4/11 10/5/10 9/6/12
f 9/6/12 10/5/10 6/1/7
f 10/5/10 8/4/9 7/1/8
f 8/4/9 9/6/12 6/1/7
f 11/7/13 12/8/13 13/9/13
f 14/10/14 15/11/14 16/12/14
usemtl g002m00.png
f 19/13/15 20/14/16 18/15/17
f 20/16/18 17/17/19 18/15/20
f 24/18/21 18/15/20 23/19/22
f 18/15/20 17/17/19 23/19/22
f 25/20/23 21/21/24 24/18/21
f 21/21/24 19/13/15 24/18/21
f 19/13/15 18/15/17 24/18/21
f 25/20/23 22/22/25 21/21/24
f 22/22/25 19/13/15 21/21/24
f 25/20/23 27/23/26 22/22/27
f 27/23/26 26/24/28 22/22/27
f 26/24/28 20/14/16 22/22/27
f 20/14/16 19/13/15 22/22/27
f 28/25/29 20/16/16 26/26/28
f 27/27/26 30/28/30 28/25/29
f 30/28/30 29/29/31 28/25/29
f 29/29/31 20/16/16 28/25/29
f 23/19/22 31/30/32 30/28/30
f 30/28/30 31/30/32 29/29/31
f 31/30/32 17/17/19 29/29/31
f 17/17/19 20/16/18 29/29/31
f 23/19/22 17/17/19 31/30/32
f 28/25/29 26/26/28 27/27/26
f 24/18/21 23/19/22 25/20/23
f 23/19/22 30/28/30 25/20/23
f 32/1/33 33/2/34 34/1/35
f 33/2/34 35/1/36 34/1/37
f 36/5/38 32/1/33 34/1/35
f 35/1/39 36/5/38 34/1/35
f 33/2/34 32/1/33 30/6/30
f 32/1/33 25/1/23 30/6/30
f 35/1/36 33/2/34 30/6/30
f 32/1/33 36/5/38 25/1/23
f 35/1/39 30/6/30 27/4/26
f 36/5/38 27/4/26 25/1/23
f 36/5/38 35/1/39 27/4/26
