# Blender 4.1.1
# www.blender.org
mtllib Circle.402.mtl
o Circle
v 2567.816650 2506.832520 4742.291016
v 2565.646973 2506.832520 4742.504395
v 2563.560547 2506.832520 4743.137695
v 2561.637695 2506.832520 4744.165039
v 2559.952393 2506.832520 4745.548340
v 2558.569336 2506.832520 4747.233887
v 2557.541504 2506.832520 4749.156738
v 2556.908691 2506.832520 4751.242676
v 2556.695068 2506.832520 4753.412598
v 2556.908691 2506.832520 4755.582520
v 2557.541504 2506.832520 4757.668457
v 2558.569336 2506.832520 4759.591309
v 2559.952393 2506.832520 4761.276855
v 2561.637695 2506.832520 4762.660156
v 2563.560547 2506.832520 4763.687500
v 2565.646973 2506.832520 4764.320801
v 2567.816650 2506.832520 4764.534180
v 2569.986328 2506.832520 4764.320801
v 2572.072754 2506.832520 4763.687500
v 2573.995605 2506.832520 4762.660156
v 2575.680908 2506.832520 4761.276855
v 2577.063965 2506.832520 4759.591309
v 2578.091797 2506.832520 4757.668457
v 2578.724609 2506.832520 4755.582520
v 2578.938232 2506.832520 4753.412598
v 2578.724609 2506.832520 4751.242676
v 2578.091797 2506.832520 4749.156738
v 2577.063965 2506.832520 4747.233887
v 2575.680908 2506.832520 4745.548340
v 2573.995605 2506.832520 4744.165039
v 2572.072754 2506.832520 4743.137695
v 2569.986328 2506.832520 4742.504395
v 2565.646973 2506.832520 4742.504395
v 2567.816650 2506.832520 4742.291016
v 2563.560547 2506.832520 4743.137695
v 2561.637695 2506.832520 4744.165039
v 2559.952393 2506.832520 4745.548340
v 2558.569336 2506.832520 4747.233887
v 2557.541504 2506.832520 4749.156738
v 2556.908691 2506.832520 4751.242676
v 2556.695068 2506.832520 4753.412598
v 2556.908691 2506.832520 4755.582520
v 2557.541504 2506.832520 4757.668457
v 2558.569336 2506.832520 4759.591309
v 2559.952393 2506.832520 4761.276855
v 2561.637695 2506.832520 4762.660156
v 2563.560547 2506.832520 4763.687500
v 2565.646973 2506.832520 4764.320801
v 2567.816650 2506.832520 4764.534180
v 2569.986328 2506.832520 4764.320801
v 2572.072754 2506.832520 4763.687500
v 2573.995605 2506.832520 4762.660156
v 2575.680908 2506.832520 4761.276855
v 2577.063965 2506.832520 4759.591309
v 2578.091797 2506.832520 4757.668457
v 2578.724609 2506.832520 4755.582520
v 2578.938232 2506.832520 4753.412598
v 2578.724609 2506.832520 4751.242676
v 2578.091797 2506.832520 4749.156738
v 2577.063965 2506.832520 4747.233887
v 2575.680908 2506.832520 4745.548340
v 2573.995605 2506.832520 4744.165039
v 2572.072754 2506.832520 4743.137695
v 2569.986328 2506.832520 4742.504395
v 2565.646973 2536.193848 4742.504395
v 2567.816650 2536.193848 4742.291016
v 2563.560547 2536.193848 4743.137695
v 2561.637695 2536.193848 4744.165039
v 2559.952393 2536.193848 4745.548340
v 2558.569336 2536.193848 4747.233887
v 2557.541504 2536.193848 4749.156738
v 2556.908691 2536.193848 4751.242676
v 2556.695068 2536.193848 4753.412598
v 2556.908691 2536.193848 4755.582520
v 2557.541504 2536.193848 4757.668457
v 2558.569336 2536.193848 4759.591309
v 2559.952393 2536.193848 4761.276855
v 2561.637695 2536.193848 4762.660156
v 2563.560547 2536.193848 4763.687500
v 2565.646973 2536.193848 4764.320801
v 2567.816650 2536.193848 4764.534180
v 2569.986328 2536.193848 4764.320801
v 2572.072754 2536.193848 4763.687500
v 2573.995605 2536.193848 4762.660156
v 2575.680908 2536.193848 4761.276855
v 2577.063965 2536.193848 4759.591309
v 2578.091797 2536.193848 4757.668457
v 2578.724609 2536.193848 4755.582520
v 2578.938232 2536.193848 4753.412598
v 2578.724609 2536.193848 4751.242676
v 2578.091797 2536.193848 4749.156738
v 2577.063965 2536.193848 4747.233887
v 2575.680908 2536.193848 4745.548340
v 2573.995605 2536.193848 4744.165039
v 2572.072754 2536.193848 4743.137695
v 2569.986328 2536.193848 4742.504395
v 2564.151367 2537.544922 4734.983887
v 2567.816895 2537.544922 4734.623047
v 2560.626465 2537.544922 4736.053223
v 2557.378174 2537.544922 4737.789551
v 2554.530762 2537.544922 4740.125977
v 2552.194092 2537.544922 4742.973145
v 2550.457764 2537.544922 4746.221680
v 2549.388672 2537.544922 4749.746582
v 2549.027588 2537.544922 4753.412109
v 2549.388672 2537.544922 4757.077637
v 2550.457764 2537.544922 4760.602539
v 2552.194092 2537.544922 4763.851074
v 2554.530762 2537.544922 4766.698242
v 2557.378174 2537.544922 4769.034668
v 2560.626465 2537.544922 4770.770996
v 2564.151367 2537.544922 4771.840332
v 2567.816895 2537.544922 4772.201172
v 2571.482422 2537.544922 4771.840332
v 2575.007324 2537.544922 4770.770996
v 2578.255615 2537.544922 4769.034668
v 2581.102783 2537.544922 4766.698242
v 2583.439697 2537.544922 4763.851074
v 2585.175781 2537.544922 4760.602539
v 2586.245117 2537.544922 4757.077637
v 2586.606201 2537.544922 4753.412109
v 2586.245117 2537.544922 4749.746582
v 2585.175781 2537.544922 4746.221680
v 2583.439697 2537.544922 4742.973145
v 2581.102783 2537.544922 4740.125977
v 2578.255615 2537.544922 4737.789551
v 2575.007324 2537.544922 4736.053223
v 2571.482422 2537.544922 4734.983887
v 2564.151367 2547.510742 4734.983887
v 2567.816895 2547.510742 4734.623047
v 2560.626465 2547.510742 4736.053223
v 2557.378174 2547.510742 4737.789551
v 2554.530762 2547.510742 4740.125977
v 2552.194092 2547.510742 4742.973145
v 2550.457764 2547.510742 4746.221680
v 2549.388672 2547.510742 4749.746582
v 2549.027588 2547.510742 4753.412109
v 2549.388672 2547.510742 4757.077637
v 2550.457764 2547.510742 4760.602539
v 2552.194092 2547.510742 4763.851074
v 2554.530762 2547.510742 4766.698242
v 2557.378174 2547.510742 4769.034668
v 2560.626465 2547.510742 4770.770996
v 2564.151367 2547.510742 4771.840332
v 2567.816895 2547.510742 4772.201172
v 2571.482422 2547.510742 4771.840332
v 2575.007324 2547.510742 4770.770996
v 2578.255615 2547.510742 4769.034668
v 2581.102783 2547.510742 4766.698242
v 2583.439697 2547.510742 4763.851074
v 2585.175781 2547.510742 4760.602539
v 2586.245117 2547.510742 4757.077637
v 2586.606201 2547.510742 4753.412109
v 2586.245117 2547.510742 4749.746582
v 2585.175781 2547.510742 4746.221680
v 2583.439697 2547.510742 4742.973145
v 2581.102783 2547.510742 4740.125977
v 2578.255615 2547.510742 4737.789551
v 2575.007324 2547.510742 4736.053223
v 2571.482422 2547.510742 4734.983887
vn -0.0000 -1.0000 -0.0000
vn -0.0979 -0.0000 0.9952
vn -0.0000 1.0000 -0.0000
vn 0.0821 -0.9847 0.1537
vn -0.4713 -0.0000 -0.8820
vn 0.4713 -0.0000 -0.8820
vn 0.0979 -0.0000 0.9952
vn -0.6344 -0.0000 -0.7730
vn 0.2905 -0.0000 -0.9569
vn 0.2904 -0.0000 0.9569
vn -0.7731 -0.0000 -0.6343
vn 0.0979 -0.0000 -0.9952
vn 0.4712 -0.0000 0.8820
vn -0.8820 -0.0000 -0.4713
vn 0.6344 -0.0000 0.7730
vn -0.9569 -0.0000 -0.2903
vn 0.7731 -0.0000 0.6343
vn -0.9952 -0.0000 -0.0981
vn 0.8820 -0.0000 0.4713
vn -0.9952 -0.0000 0.0979
vn 0.9569 -0.0000 0.2905
vn -0.9569 -0.0000 0.2903
vn 0.9952 -0.0000 0.0981
vn -0.8819 -0.0000 0.4715
vn 0.9952 -0.0000 -0.0979
vn -0.7731 -0.0000 0.6343
vn 0.9569 -0.0000 -0.2903
vn -0.6344 -0.0000 0.7730
vn 0.8820 -0.0000 -0.4713
vn -0.4713 -0.0000 0.8820
vn -0.0979 -0.0000 -0.9952
vn 0.7731 -0.0000 -0.6343
vn -0.2904 -0.0000 0.9569
vn -0.2904 -0.0000 -0.9569
vn 0.6344 -0.0000 -0.7730
vn -0.1538 -0.9847 -0.0822
vn 0.1106 -0.9847 0.1348
vn -0.1669 -0.9847 -0.0506
vn 0.1348 -0.9847 0.1106
vn -0.1735 -0.9847 -0.0171
vn 0.1537 -0.9847 0.0821
vn -0.1735 -0.9847 0.0171
vn 0.1668 -0.9847 0.0506
vn -0.1668 -0.9847 0.0506
vn 0.1736 -0.9847 0.0171
vn -0.1538 -0.9847 0.0823
vn 0.1735 -0.9847 -0.0170
vn -0.1348 -0.9847 0.1106
vn 0.1669 -0.9847 -0.0506
vn -0.1106 -0.9847 0.1348
vn 0.1537 -0.9847 -0.0821
vn -0.0823 -0.9847 0.1538
vn -0.0171 -0.9847 -0.1735
vn 0.1348 -0.9847 -0.1106
vn -0.0506 -0.9847 0.1668
vn -0.0505 -0.9847 -0.1668
vn 0.1106 -0.9847 -0.1347
vn -0.0170 -0.9847 0.1735
vn -0.0823 -0.9847 -0.1537
vn 0.0822 -0.9847 -0.1537
vn 0.0171 -0.9847 0.1735
vn -0.1106 -0.9847 -0.1348
vn 0.0506 -0.9847 -0.1668
vn 0.0506 -0.9847 0.1668
vn -0.1347 -0.9847 -0.1106
vn 0.0172 -0.9847 -0.1735
vn -0.9952 -0.0000 0.0980
vn 0.9569 -0.0000 0.2904
vn -0.8819 -0.0000 0.4714
vn -0.7730 -0.0000 0.6344
vn -0.6343 -0.0000 0.7731
vn -0.4714 -0.0000 0.8819
vn -0.0980 -0.0000 -0.9952
vn 0.7730 -0.0000 -0.6344
vn -0.2903 -0.0000 0.9569
vn -0.2903 -0.0000 -0.9569
vn -0.0980 -0.0000 0.9952
vn -0.4714 -0.0000 -0.8819
vn 0.4714 -0.0000 -0.8819
vn 0.0980 -0.0000 0.9952
vn 0.2903 -0.0000 -0.9569
vn 0.2903 -0.0000 0.9569
vn -0.7730 -0.0000 -0.6344
vn 0.0980 -0.0000 -0.9952
vn 0.4715 -0.0000 0.8819
vn -0.9570 -0.0000 -0.2902
vn 0.7730 -0.0000 0.6344
vn 0.0011 -1.0000 -0.0000
vn -0.0011 -1.0000 -0.0000
vn -0.0001 -1.0000 -0.0000
vn 0.0001 -1.0000 -0.0000
vn 0.0823 -0.9847 0.1538
vn 0.4712 -0.0000 -0.8820
vn 0.2904 -0.0000 -0.9569
vn 0.2905 -0.0000 0.9569
vn 0.4713 -0.0000 0.8820
vn -0.8819 -0.0000 -0.4715
vn -0.9952 -0.0000 -0.0979
vn -0.9952 -0.0000 0.0981
vn 0.9569 -0.0000 0.2903
vn 0.9952 -0.0000 0.0979
vn -0.8820 -0.0000 0.4713
vn 0.9952 -0.0000 -0.0981
vn 0.9569 -0.0000 -0.2905
vn -0.1537 -0.9847 -0.0822
vn 0.1538 -0.9847 0.0822
vn -0.1736 -0.9847 0.0171
vn -0.1669 -0.9847 0.0506
vn 0.1735 -0.9847 0.0171
vn -0.1537 -0.9847 0.0822
vn 0.1735 -0.9847 -0.0171
vn 0.1668 -0.9847 -0.0506
vn -0.1106 -0.9847 0.1347
vn 0.1538 -0.9847 -0.0822
vn -0.0821 -0.9847 0.1538
vn -0.0172 -0.9847 -0.1735
vn 0.1347 -0.9847 -0.1106
vn -0.0506 -0.9847 -0.1668
vn 0.1106 -0.9847 -0.1348
vn -0.0171 -0.9847 0.1736
vn -0.0822 -0.9847 -0.1538
vn 0.0823 -0.9847 -0.1537
vn 0.0170 -0.9847 0.1735
vn -0.1107 -0.9847 -0.1348
vn 0.0505 -0.9847 -0.1668
vn -0.1348 -0.9847 -0.1106
vn 0.0171 -0.9847 -0.1735
vn -0.0004 1.0000 -0.0000
vn 0.0004 1.0000 -0.0000
vn -0.9570 -0.0000 0.2902
vn 0.9569 -0.0000 -0.2904
vn 0.4715 -0.0000 -0.8819
vn -0.6343 -0.0000 -0.7731
vn 0.4714 -0.0000 0.8819
vn -0.8819 -0.0000 -0.4714
vn -0.9952 -0.0000 -0.0980
vt 0.000000 0.000000
s 0
usemtl Material.003
f 19/1/1 11/1/1 3/1/1
f 49/1/2 80/1/2 48/1/2
f 8/1/3 41/1/3 40/1/3
f 22/1/3 55/1/3 54/1/3
f 9/1/3 42/1/3 41/1/3
f 23/1/3 56/1/3 55/1/3
f 10/1/3 43/1/3 42/1/3
f 24/1/3 57/1/3 56/1/3
f 11/1/3 44/1/3 43/1/3
f 25/1/3 58/1/3 57/1/3
f 12/1/3 45/1/3 44/1/3
f 26/1/3 59/1/3 58/1/3
f 13/1/3 46/1/3 45/1/3
f 27/1/3 60/1/3 59/1/3
f 14/1/3 47/1/3 46/1/3
f 1/1/3 33/1/3 34/1/3
f 28/1/3 61/1/3 60/1/3
f 15/1/3 48/1/3 47/1/3
f 2/1/3 35/1/3 33/1/3
f 29/1/3 62/1/3 61/1/3
f 16/1/3 49/1/3 48/1/3
f 3/1/3 36/1/3 35/1/3
f 30/1/3 63/1/3 62/1/3
f 17/1/3 50/1/3 49/1/3
f 4/1/3 37/1/3 36/1/3
f 31/1/3 64/1/3 63/1/3
f 18/1/3 51/1/3 50/1/3
f 5/1/3 38/1/3 37/1/3
f 32/1/3 34/1/3 64/1/3
f 19/1/3 52/1/3 51/1/3
f 6/1/3 39/1/3 38/1/3
f 20/1/3 53/1/3 52/1/3
f 7/1/3 40/1/3 39/1/3
f 21/1/3 54/1/3 53/1/3
f 84/1/4 115/1/4 83/1/4
f 36/1/5 67/1/5 35/1/5
f 63/1/6 94/1/6 62/1/6
f 50/1/7 81/1/7 49/1/7
f 37/1/8 68/1/8 36/1/8
f 64/1/9 95/1/9 63/1/9
f 51/1/10 82/1/10 50/1/10
f 38/1/11 69/1/11 37/1/11
f 34/1/12 96/1/12 64/1/12
f 52/1/13 83/1/13 51/1/13
f 39/1/14 70/1/14 38/1/14
f 53/1/15 84/1/15 52/1/15
f 40/1/16 71/1/16 39/1/16
f 54/1/17 85/1/17 53/1/17
f 41/1/18 72/1/18 40/1/18
f 55/1/19 86/1/19 54/1/19
f 42/1/20 73/1/20 41/1/20
f 56/1/21 87/1/21 55/1/21
f 43/1/22 74/1/22 42/1/22
f 57/1/23 88/1/23 56/1/23
f 44/1/24 75/1/24 43/1/24
f 58/1/25 89/1/25 57/1/25
f 45/1/26 76/1/26 44/1/26
f 59/1/27 90/1/27 58/1/27
f 46/1/28 77/1/28 45/1/28
f 60/1/29 91/1/29 59/1/29
f 47/1/30 78/1/30 46/1/30
f 33/1/31 66/1/31 34/1/31
f 61/1/32 92/1/32 60/1/32
f 48/1/33 79/1/33 47/1/33
f 35/1/34 65/1/34 33/1/34
f 62/1/35 93/1/35 61/1/35
f 119/1/19 150/1/19 118/1/19
f 70/1/36 103/1/36 102/1/36
f 85/1/37 116/1/37 84/1/37
f 71/1/38 104/1/38 103/1/38
f 86/1/39 117/1/39 85/1/39
f 72/1/40 105/1/40 104/1/40
f 87/1/41 118/1/41 86/1/41
f 73/1/42 106/1/42 105/1/42
f 88/1/43 119/1/43 87/1/43
f 74/1/44 107/1/44 106/1/44
f 89/1/45 120/1/45 88/1/45
f 76/1/46 107/1/46 75/1/46
f 90/1/47 121/1/47 89/1/47
f 77/1/48 108/1/48 76/1/48
f 91/1/49 122/1/49 90/1/49
f 77/1/50 110/1/50 109/1/50
f 92/1/51 123/1/51 91/1/51
f 78/1/52 111/1/52 110/1/52
f 65/1/53 98/1/53 66/1/53
f 93/1/54 124/1/54 92/1/54
f 80/1/55 111/1/55 79/1/55
f 65/1/56 99/1/56 97/1/56
f 94/1/57 125/1/57 93/1/57
f 80/1/58 113/1/58 112/1/58
f 68/1/59 99/1/59 67/1/59
f 94/1/60 127/1/60 126/1/60
f 82/1/61 113/1/61 81/1/61
f 68/1/62 101/1/62 100/1/62
f 96/1/63 127/1/63 95/1/63
f 82/1/64 115/1/64 114/1/64
f 69/1/65 102/1/65 101/1/65
f 96/1/66 98/1/66 128/1/66
f 145/1/3 153/1/3 130/1/3
f 106/1/67 137/1/67 105/1/67
f 120/1/68 151/1/68 119/1/68
f 107/1/22 138/1/22 106/1/22
f 121/1/23 152/1/23 120/1/23
f 108/1/69 139/1/69 107/1/69
f 122/1/25 153/1/25 121/1/25
f 109/1/70 140/1/70 108/1/70
f 123/1/27 154/1/27 122/1/27
f 110/1/71 141/1/71 109/1/71
f 124/1/29 155/1/29 123/1/29
f 111/1/72 142/1/72 110/1/72
f 97/1/73 130/1/73 98/1/73
f 125/1/74 156/1/74 124/1/74
f 112/1/75 143/1/75 111/1/75
f 99/1/76 129/1/76 97/1/76
f 126/1/35 157/1/35 125/1/35
f 113/1/77 144/1/77 112/1/77
f 100/1/78 131/1/78 99/1/78
f 127/1/79 158/1/79 126/1/79
f 114/1/80 145/1/80 113/1/80
f 101/1/8 132/1/8 100/1/8
f 128/1/81 159/1/81 127/1/81
f 115/1/82 146/1/82 114/1/82
f 102/1/83 133/1/83 101/1/83
f 98/1/84 160/1/84 128/1/84
f 116/1/85 147/1/85 115/1/85
f 103/1/14 134/1/14 102/1/14
f 117/1/15 148/1/15 116/1/15
f 104/1/86 135/1/86 103/1/86
f 118/1/87 149/1/87 117/1/87
f 105/1/18 136/1/18 104/1/18
f 3/1/1 2/1/1 1/1/1
f 1/1/1 32/1/1 31/1/1
f 31/1/1 30/1/1 29/1/1
f 29/1/1 28/1/1 27/1/1
f 27/1/88 26/1/88 25/1/88
f 25/1/88 24/1/88 23/1/88
f 23/1/1 22/1/1 21/1/1
f 21/1/1 20/1/1 19/1/1
f 19/1/1 18/1/1 17/1/1
f 17/1/1 16/1/1 15/1/1
f 15/1/1 14/1/1 13/1/1
f 13/1/1 12/1/1 11/1/1
f 11/1/89 10/1/89 9/1/89
f 9/1/89 8/1/89 7/1/89
f 7/1/1 6/1/1 5/1/1
f 5/1/1 4/1/1 3/1/1
f 3/1/1 1/1/1 31/1/1
f 31/1/1 29/1/1 27/1/1
f 27/1/1 25/1/1 23/1/1
f 23/1/1 21/1/1 19/1/1
f 19/1/1 17/1/1 15/1/1
f 15/1/1 13/1/1 11/1/1
f 11/1/1 9/1/1 7/1/1
f 7/1/1 5/1/1 3/1/1
f 3/1/1 31/1/1 27/1/1
f 27/1/90 23/1/90 19/1/90
f 19/1/1 15/1/1 11/1/1
f 11/1/91 7/1/91 3/1/91
f 3/1/1 27/1/1 19/1/1
f 49/1/2 81/1/2 80/1/2
f 8/1/3 9/1/3 41/1/3
f 22/1/3 23/1/3 55/1/3
f 9/1/3 10/1/3 42/1/3
f 23/1/3 24/1/3 56/1/3
f 10/1/3 11/1/3 43/1/3
f 24/1/3 25/1/3 57/1/3
f 11/1/3 12/1/3 44/1/3
f 25/1/3 26/1/3 58/1/3
f 12/1/3 13/1/3 45/1/3
f 26/1/3 27/1/3 59/1/3
f 13/1/3 14/1/3 46/1/3
f 27/1/3 28/1/3 60/1/3
f 14/1/3 15/1/3 47/1/3
f 1/1/3 2/1/3 33/1/3
f 28/1/3 29/1/3 61/1/3
f 15/1/3 16/1/3 48/1/3
f 2/1/3 3/1/3 35/1/3
f 29/1/3 30/1/3 62/1/3
f 16/1/3 17/1/3 49/1/3
f 3/1/3 4/1/3 36/1/3
f 30/1/3 31/1/3 63/1/3
f 17/1/3 18/1/3 50/1/3
f 4/1/3 5/1/3 37/1/3
f 31/1/3 32/1/3 64/1/3
f 18/1/3 19/1/3 51/1/3
f 5/1/3 6/1/3 38/1/3
f 32/1/3 1/1/3 34/1/3
f 19/1/3 20/1/3 52/1/3
f 6/1/3 7/1/3 39/1/3
f 20/1/3 21/1/3 53/1/3
f 7/1/3 8/1/3 40/1/3
f 21/1/3 22/1/3 54/1/3
f 84/1/92 116/1/92 115/1/92
f 36/1/5 68/1/5 67/1/5
f 63/1/93 95/1/93 94/1/93
f 50/1/7 82/1/7 81/1/7
f 37/1/8 69/1/8 68/1/8
f 64/1/94 96/1/94 95/1/94
f 51/1/95 83/1/95 82/1/95
f 38/1/11 70/1/11 69/1/11
f 34/1/12 66/1/12 96/1/12
f 52/1/96 84/1/96 83/1/96
f 39/1/97 71/1/97 70/1/97
f 53/1/15 85/1/15 84/1/15
f 40/1/16 72/1/16 71/1/16
f 54/1/17 86/1/17 85/1/17
f 41/1/98 73/1/98 72/1/98
f 55/1/19 87/1/19 86/1/19
f 42/1/99 74/1/99 73/1/99
f 56/1/100 88/1/100 87/1/100
f 43/1/22 75/1/22 74/1/22
f 57/1/101 89/1/101 88/1/101
f 44/1/102 76/1/102 75/1/102
f 58/1/103 90/1/103 89/1/103
f 45/1/26 77/1/26 76/1/26
f 59/1/104 91/1/104 90/1/104
f 46/1/28 78/1/28 77/1/28
f 60/1/29 92/1/29 91/1/29
f 47/1/30 79/1/30 78/1/30
f 33/1/31 65/1/31 66/1/31
f 61/1/32 93/1/32 92/1/32
f 48/1/33 80/1/33 79/1/33
f 35/1/34 67/1/34 65/1/34
f 62/1/35 94/1/35 93/1/35
f 119/1/19 151/1/19 150/1/19
f 70/1/105 71/1/105 103/1/105
f 85/1/37 117/1/37 116/1/37
f 71/1/38 72/1/38 104/1/38
f 86/1/39 118/1/39 117/1/39
f 72/1/40 73/1/40 105/1/40
f 87/1/106 119/1/106 118/1/106
f 73/1/107 74/1/107 106/1/107
f 88/1/43 120/1/43 119/1/43
f 74/1/108 75/1/108 107/1/108
f 89/1/109 121/1/109 120/1/109
f 76/1/110 108/1/110 107/1/110
f 90/1/111 122/1/111 121/1/111
f 77/1/48 109/1/48 108/1/48
f 91/1/112 123/1/112 122/1/112
f 77/1/113 78/1/113 110/1/113
f 92/1/114 124/1/114 123/1/114
f 78/1/115 79/1/115 111/1/115
f 65/1/116 97/1/116 98/1/116
f 93/1/117 125/1/117 124/1/117
f 80/1/55 112/1/55 111/1/55
f 65/1/118 67/1/118 99/1/118
f 94/1/119 126/1/119 125/1/119
f 80/1/120 81/1/120 113/1/120
f 68/1/121 100/1/121 99/1/121
f 94/1/122 95/1/122 127/1/122
f 82/1/123 114/1/123 113/1/123
f 68/1/124 69/1/124 101/1/124
f 96/1/125 128/1/125 127/1/125
f 82/1/64 83/1/64 115/1/64
f 69/1/126 70/1/126 102/1/126
f 96/1/127 66/1/127 98/1/127
f 130/1/3 129/1/3 131/1/3
f 131/1/128 132/1/128 133/1/128
f 133/1/3 134/1/3 135/1/3
f 135/1/3 136/1/3 137/1/3
f 137/1/3 138/1/3 139/1/3
f 139/1/128 140/1/128 141/1/128
f 141/1/128 142/1/128 143/1/128
f 143/1/3 144/1/3 145/1/3
f 145/1/3 146/1/3 147/1/3
f 147/1/129 148/1/129 149/1/129
f 149/1/3 150/1/3 151/1/3
f 151/1/3 152/1/3 153/1/3
f 153/1/3 154/1/3 155/1/3
f 155/1/129 156/1/129 157/1/129
f 157/1/129 158/1/129 159/1/129
f 159/1/3 160/1/3 130/1/3
f 130/1/3 131/1/3 133/1/3
f 133/1/3 135/1/3 137/1/3
f 137/1/3 139/1/3 141/1/3
f 141/1/3 143/1/3 145/1/3
f 145/1/3 147/1/3 149/1/3
f 149/1/3 151/1/3 153/1/3
f 153/1/3 155/1/3 157/1/3
f 157/1/3 159/1/3 130/1/3
f 130/1/3 133/1/3 137/1/3
f 137/1/3 141/1/3 145/1/3
f 145/1/3 149/1/3 153/1/3
f 153/1/3 157/1/3 130/1/3
f 130/1/3 137/1/3 145/1/3
f 106/1/99 138/1/99 137/1/99
f 120/1/100 152/1/100 151/1/100
f 107/1/130 139/1/130 138/1/130
f 121/1/101 153/1/101 152/1/101
f 108/1/102 140/1/102 139/1/102
f 122/1/103 154/1/103 153/1/103
f 109/1/70 141/1/70 140/1/70
f 123/1/131 155/1/131 154/1/131
f 110/1/28 142/1/28 141/1/28
f 124/1/29 156/1/29 155/1/29
f 111/1/72 143/1/72 142/1/72
f 97/1/73 129/1/73 130/1/73
f 125/1/74 157/1/74 156/1/74
f 112/1/75 144/1/75 143/1/75
f 99/1/76 131/1/76 129/1/76
f 126/1/35 158/1/35 157/1/35
f 113/1/77 145/1/77 144/1/77
f 100/1/78 132/1/78 131/1/78
f 127/1/132 159/1/132 158/1/132
f 114/1/80 146/1/80 145/1/80
f 101/1/133 133/1/133 132/1/133
f 128/1/81 160/1/81 159/1/81
f 115/1/82 147/1/82 146/1/82
f 102/1/83 134/1/83 133/1/83
f 98/1/84 130/1/84 160/1/84
f 116/1/134 148/1/134 147/1/134
f 103/1/135 135/1/135 134/1/135
f 117/1/15 149/1/15 148/1/15
f 104/1/16 136/1/16 135/1/16
f 118/1/87 150/1/87 149/1/87
f 105/1/136 137/1/136 136/1/136
