# Blender 4.1.1
# www.blender.org
mtllib Circle.725.mtl
o Circle.013
v -3757.993164 1503.064575 2379.466064
v -3760.162842 1503.064575 2379.679688
v -3762.249268 1503.064575 2380.312500
v -3764.172119 1503.064575 2381.340332
v -3765.857422 1503.064575 2382.723389
v -3767.240479 1503.064575 2384.408691
v -3768.268311 1503.064575 2386.331543
v -3768.901123 1503.064575 2388.417969
v -3769.114746 1503.064575 2390.587646
v -3768.901123 1503.064575 2392.757324
v -3768.268311 1503.064575 2394.843750
v -3767.240479 1503.064575 2396.766602
v -3765.857422 1503.064575 2398.451904
v -3764.172119 1503.064575 2399.834961
v -3762.249268 1503.064575 2400.862793
v -3760.162842 1503.064575 2401.495605
v -3757.993164 1503.064575 2401.709229
v -3755.823486 1503.064575 2401.495605
v -3753.737061 1503.064575 2400.862793
v -3751.814209 1503.064575 2399.834961
v -3750.128906 1503.064575 2398.451904
v -3748.745850 1503.064575 2396.766602
v -3747.718018 1503.064575 2394.843750
v -3747.085205 1503.064575 2392.757324
v -3746.871582 1503.064575 2390.587646
v -3747.085205 1503.064575 2388.417969
v -3747.718018 1503.064575 2386.331543
v -3748.745850 1503.064575 2384.408691
v -3750.128906 1503.064575 2382.723389
v -3751.814209 1503.064575 2381.340332
v -3753.737061 1503.064575 2380.312500
v -3755.823486 1503.064575 2379.679688
v -3760.162842 1503.064575 2379.679688
v -3757.993164 1503.064575 2379.466064
v -3762.249268 1503.064575 2380.312500
v -3764.172119 1503.064575 2381.340332
v -3765.857422 1503.064575 2382.723389
v -3767.240479 1503.064575 2384.408691
v -3768.268311 1503.064575 2386.331543
v -3768.901123 1503.064575 2388.417969
v -3769.114746 1503.064575 2390.587646
v -3768.901123 1503.064575 2392.757324
v -3768.268311 1503.064575 2394.843750
v -3767.240479 1503.064575 2396.766602
v -3765.857422 1503.064575 2398.451904
v -3764.172119 1503.064575 2399.834961
v -3762.249268 1503.064575 2400.862793
v -3760.162842 1503.064575 2401.495605
v -3757.993164 1503.064575 2401.709229
v -3755.823486 1503.064575 2401.495605
v -3753.737061 1503.064575 2400.862793
v -3751.814209 1503.064575 2399.834961
v -3750.128906 1503.064575 2398.451904
v -3748.745850 1503.064575 2396.766602
v -3747.718018 1503.064575 2394.843750
v -3747.085205 1503.064575 2392.757324
v -3746.871582 1503.064575 2390.587646
v -3747.085205 1503.064575 2388.417969
v -3747.718018 1503.064575 2386.331543
v -3748.745850 1503.064575 2384.408691
v -3750.128906 1503.064575 2382.723389
v -3751.814209 1503.064575 2381.340332
v -3753.737061 1503.064575 2380.312500
v -3755.823486 1503.064575 2379.679688
v -3760.162842 1532.425781 2379.679688
v -3757.993164 1532.425781 2379.466064
v -3762.249268 1532.425781 2380.312500
v -3764.172119 1532.425781 2381.340332
v -3765.857422 1532.425781 2382.723389
v -3767.240479 1532.425781 2384.408691
v -3768.268311 1532.425781 2386.331543
v -3768.901123 1532.425781 2388.417969
v -3769.114746 1532.425781 2390.587646
v -3768.901123 1532.425781 2392.757324
v -3768.268311 1532.425781 2394.843750
v -3767.240479 1532.425781 2396.766602
v -3765.857422 1532.425781 2398.451904
v -3764.172119 1532.425781 2399.834961
v -3762.249268 1532.425781 2400.862793
v -3760.162842 1532.425781 2401.495605
v -3757.993164 1532.425781 2401.709229
v -3755.823486 1532.425781 2401.495605
v -3753.737061 1532.425781 2400.862793
v -3751.814209 1532.425781 2399.834961
v -3750.128906 1532.425781 2398.451904
v -3748.745850 1532.425781 2396.766602
v -3747.718018 1532.425781 2394.843750
v -3747.085205 1532.425781 2392.757324
v -3746.871582 1532.425781 2390.587646
v -3747.085205 1532.425781 2388.417969
v -3747.718018 1532.425781 2386.331543
v -3748.745850 1532.425781 2384.408691
v -3750.128906 1532.425781 2382.723389
v -3751.814209 1532.425781 2381.340332
v -3753.737061 1532.425781 2380.312500
v -3755.823486 1532.425781 2379.679688
v -3761.658447 1533.776978 2372.158936
v -3757.992920 1533.776978 2371.797852
v -3765.183350 1533.776978 2373.228271
v -3768.431641 1533.776978 2374.964600
v -3771.279053 1533.776978 2377.301270
v -3773.615723 1533.776978 2380.148438
v -3775.352051 1533.776978 2383.396729
v -3776.421143 1533.776978 2386.921631
v -3776.782227 1533.776978 2390.587158
v -3776.421143 1533.776978 2394.252686
v -3775.352051 1533.776978 2397.777588
v -3773.615723 1533.776978 2401.025879
v -3771.279053 1533.776978 2403.873291
v -3768.431641 1533.776978 2406.209961
v -3765.183350 1533.776978 2407.946289
v -3761.658447 1533.776978 2409.015381
v -3757.992920 1533.776978 2409.376465
v -3754.327393 1533.776978 2409.015381
v -3750.802490 1533.776978 2407.946289
v -3747.554199 1533.776978 2406.209961
v -3744.707031 1533.776978 2403.873291
v -3742.370117 1533.776978 2401.025879
v -3740.634033 1533.776978 2397.777588
v -3739.564697 1533.776978 2394.252686
v -3739.203613 1533.776978 2390.587158
v -3739.564697 1533.776978 2386.921631
v -3740.634033 1533.776978 2383.396729
v -3742.370117 1533.776978 2380.148438
v -3744.707031 1533.776978 2377.301270
v -3747.554199 1533.776978 2374.964600
v -3750.802490 1533.776978 2373.228271
v -3754.327393 1533.776978 2372.158936
v -3761.658447 1543.742676 2372.158936
v -3757.992920 1543.742676 2371.797852
v -3765.183350 1543.742676 2373.228271
v -3768.431641 1543.742676 2374.964600
v -3771.279053 1543.742676 2377.301270
v -3773.615723 1543.742676 2380.148438
v -3775.352051 1543.742676 2383.396729
v -3776.421143 1543.742676 2386.921631
v -3776.782227 1543.742676 2390.587158
v -3776.421143 1543.742676 2394.252686
v -3775.352051 1543.742676 2397.777588
v -3773.615723 1543.742676 2401.025879
v -3771.279053 1543.742676 2403.873291
v -3768.431641 1543.742676 2406.209961
v -3765.183350 1543.742676 2407.946289
v -3761.658447 1543.742676 2409.015381
v -3757.992920 1543.742676 2409.376465
v -3754.327393 1543.742676 2409.015381
v -3750.802490 1543.742676 2407.946289
v -3747.554199 1543.742676 2406.209961
v -3744.707031 1543.742676 2403.873291
v -3742.370117 1543.742676 2401.025879
v -3740.634033 1543.742676 2397.777588
v -3739.564697 1543.742676 2394.252686
v -3739.203613 1543.742676 2390.587158
v -3739.564697 1543.742676 2386.921631
v -3740.634033 1543.742676 2383.396729
v -3742.370117 1543.742676 2380.148438
v -3744.707031 1543.742676 2377.301270
v -3747.554199 1543.742676 2374.964600
v -3750.802490 1543.742676 2373.228271
v -3754.327393 1543.742676 2372.158936
vn -0.0000 -1.0000 -0.0000
vn -0.0980 -0.0000 0.9952
vn -0.0000 1.0000 -0.0000
vn 0.0823 -0.9847 0.1538
vn -0.4714 -0.0000 -0.8819
vn 0.4714 -0.0000 -0.8819
vn 0.0980 -0.0000 0.9952
vn -0.6345 -0.0000 -0.7729
vn 0.2903 -0.0000 -0.9569
vn 0.2902 -0.0000 0.9570
vn -0.7731 -0.0000 -0.6342
vn 0.0980 -0.0000 -0.9952
vn 0.4713 -0.0000 0.8820
vn -0.8820 -0.0000 -0.4713
vn 0.6345 -0.0000 0.7729
vn -0.9569 -0.0000 -0.2904
vn 0.7731 -0.0000 0.6342
vn -0.9952 -0.0000 -0.0979
vn 0.8819 -0.0000 0.4715
vn -0.9952 -0.0000 0.0981
vn 0.9570 -0.0000 0.2902
vn -0.9570 -0.0000 0.2902
vn 0.9952 -0.0000 0.0979
vn -0.8820 -0.0000 0.4713
vn 0.9952 -0.0000 -0.0979
vn -0.7729 -0.0000 0.6345
vn 0.9569 -0.0000 -0.2904
vn -0.6342 -0.0000 0.7731
vn 0.8820 -0.0000 -0.4713
vn -0.4714 -0.0000 0.8819
vn -0.0980 -0.0000 -0.9952
vn 0.7730 -0.0000 -0.6344
vn -0.2902 -0.0000 0.9570
vn -0.2902 -0.0000 -0.9570
vn 0.6342 -0.0000 -0.7731
vn 0.8819 -0.0000 0.4714
vn -0.1538 -0.9847 -0.0822
vn 0.1106 -0.9847 0.1347
vn -0.1669 -0.9847 -0.0506
vn 0.1348 -0.9847 0.1106
vn -0.1736 -0.9847 -0.0171
vn 0.1538 -0.9847 0.0822
vn -0.1736 -0.9847 0.0171
vn 0.1669 -0.9847 0.0506
vn -0.1669 -0.9847 0.0506
vn 0.1735 -0.9847 0.0171
vn -0.1538 -0.9847 0.0822
vn 0.1735 -0.9847 -0.0171
vn -0.1348 -0.9847 0.1106
vn 0.1669 -0.9847 -0.0506
vn -0.1106 -0.9847 0.1348
vn 0.1537 -0.9847 -0.0822
vn -0.0822 -0.9847 0.1538
vn -0.0171 -0.9847 -0.1735
vn 0.1348 -0.9847 -0.1106
vn -0.0505 -0.9847 0.1669
vn -0.0506 -0.9847 -0.1668
vn 0.1106 -0.9847 -0.1349
vn -0.0170 -0.9847 0.1735
vn -0.0822 -0.9847 -0.1538
vn 0.0822 -0.9847 -0.1538
vn 0.0171 -0.9847 0.1736
vn -0.1106 -0.9847 -0.1348
vn 0.0506 -0.9847 -0.1668
vn 0.0506 -0.9847 0.1669
vn -0.1348 -0.9847 -0.1106
vn 0.0171 -0.9847 -0.1735
vn 0.9569 -0.0000 0.2903
vn -0.9570 -0.0000 0.2901
vn 0.9952 -0.0000 0.0981
vn -0.8819 -0.0000 0.4714
vn 0.9952 -0.0000 -0.0981
vn -0.7730 -0.0000 0.6344
vn 0.9569 -0.0000 -0.2903
vn -0.6344 -0.0000 0.7730
vn -0.4715 -0.0000 0.8819
vn 0.7730 -0.0000 -0.6345
vn -0.2903 -0.0000 0.9569
vn -0.2903 -0.0000 -0.9569
vn 0.6344 -0.0000 -0.7730
vn 0.4715 -0.0000 -0.8819
vn -0.6343 -0.0000 -0.7731
vn 0.2903 -0.0000 0.9569
vn -0.7731 -0.0000 -0.6343
vn 0.4714 -0.0000 0.8819
vn -0.8819 -0.0000 -0.4714
vn 0.6344 -0.0000 0.7730
vn -0.9569 -0.0000 -0.2903
vn 0.7730 -0.0000 0.6344
vn -0.9952 -0.0000 -0.0981
vn 0.0005 -1.0000 -0.0000
vn -0.0005 -1.0000 -0.0000
vn -0.0001 -1.0000 -0.0000
vn 0.0001 -1.0000 -0.0000
vn 0.0822 -0.9847 0.1538
vn 0.4713 -0.0000 -0.8820
vn 0.2902 -0.0000 -0.9570
vn -0.7729 -0.0000 -0.6345
vn 0.6343 -0.0000 0.7731
vn -0.9570 -0.0000 -0.2902
vn 0.8820 -0.0000 0.4713
vn -0.9952 -0.0000 0.0979
vn 0.9569 -0.0000 0.2904
vn -0.9569 -0.0000 0.2904
vn -0.7731 -0.0000 0.6342
vn 0.9570 -0.0000 -0.2902
vn -0.6345 -0.0000 0.7729
vn 0.8819 -0.0000 -0.4715
vn 0.7731 -0.0000 -0.6342
vn 0.6345 -0.0000 -0.7729
vn -0.1537 -0.9847 -0.0821
vn 0.1106 -0.9847 0.1348
vn -0.1668 -0.9847 -0.0506
vn -0.1735 -0.9847 -0.0171
vn 0.1537 -0.9847 0.0822
vn -0.1735 -0.9847 0.0171
vn 0.1736 -0.9847 0.0171
vn 0.1736 -0.9847 -0.0171
vn 0.1538 -0.9847 -0.0822
vn 0.1347 -0.9847 -0.1106
vn -0.0507 -0.9847 0.1669
vn -0.0505 -0.9847 -0.1669
vn 0.1106 -0.9847 -0.1347
vn -0.0171 -0.9847 0.1735
vn 0.0170 -0.9847 0.1735
vn -0.1107 -0.9847 -0.1348
vn 0.0505 -0.9847 -0.1669
vn -0.1347 -0.9847 -0.1106
vn 0.0171 -0.9847 -0.1736
vn 0.0001 1.0000 -0.0000
vn -0.0002 1.0000 -0.0000
vn -0.0004 1.0000 -0.0000
vn -0.0001 1.0000 -0.0000
vn 0.0002 1.0000 -0.0000
vn 0.0004 1.0000 -0.0000
vn -0.9569 -0.0000 0.2903
vn -0.7731 -0.0000 0.6343
vn -0.6343 -0.0000 0.7731
vn 0.8819 -0.0000 -0.4714
vn -0.4715 -0.0000 -0.8819
vn -0.6344 -0.0000 -0.7730
vn -0.7730 -0.0000 -0.6344
vn 0.4715 -0.0000 0.8819
vn -0.9570 -0.0000 -0.2901
vt 0.000000 0.000000
s 0
usemtl Material.003
f 19/1/1 11/1/1 3/1/1
f 49/1/2 80/1/2 48/1/2
f 8/1/3 41/1/3 40/1/3
f 22/1/3 55/1/3 54/1/3
f 9/1/3 42/1/3 41/1/3
f 23/1/3 56/1/3 55/1/3
f 10/1/3 43/1/3 42/1/3
f 24/1/3 57/1/3 56/1/3
f 11/1/3 44/1/3 43/1/3
f 25/1/3 58/1/3 57/1/3
f 12/1/3 45/1/3 44/1/3
f 26/1/3 59/1/3 58/1/3
f 13/1/3 46/1/3 45/1/3
f 27/1/3 60/1/3 59/1/3
f 14/1/3 47/1/3 46/1/3
f 1/1/3 33/1/3 34/1/3
f 28/1/3 61/1/3 60/1/3
f 15/1/3 48/1/3 47/1/3
f 2/1/3 35/1/3 33/1/3
f 29/1/3 62/1/3 61/1/3
f 16/1/3 49/1/3 48/1/3
f 3/1/3 36/1/3 35/1/3
f 30/1/3 63/1/3 62/1/3
f 17/1/3 50/1/3 49/1/3
f 4/1/3 37/1/3 36/1/3
f 31/1/3 64/1/3 63/1/3
f 18/1/3 51/1/3 50/1/3
f 5/1/3 38/1/3 37/1/3
f 32/1/3 34/1/3 64/1/3
f 19/1/3 52/1/3 51/1/3
f 6/1/3 39/1/3 38/1/3
f 20/1/3 53/1/3 52/1/3
f 7/1/3 40/1/3 39/1/3
f 21/1/3 54/1/3 53/1/3
f 84/1/4 115/1/4 83/1/4
f 36/1/5 67/1/5 35/1/5
f 63/1/6 94/1/6 62/1/6
f 50/1/7 81/1/7 49/1/7
f 37/1/8 68/1/8 36/1/8
f 64/1/9 95/1/9 63/1/9
f 51/1/10 82/1/10 50/1/10
f 38/1/11 69/1/11 37/1/11
f 34/1/12 96/1/12 64/1/12
f 52/1/13 83/1/13 51/1/13
f 39/1/14 70/1/14 38/1/14
f 53/1/15 84/1/15 52/1/15
f 40/1/16 71/1/16 39/1/16
f 54/1/17 85/1/17 53/1/17
f 41/1/18 72/1/18 40/1/18
f 55/1/19 86/1/19 54/1/19
f 42/1/20 73/1/20 41/1/20
f 56/1/21 87/1/21 55/1/21
f 43/1/22 74/1/22 42/1/22
f 57/1/23 88/1/23 56/1/23
f 44/1/24 75/1/24 43/1/24
f 58/1/25 89/1/25 57/1/25
f 45/1/26 76/1/26 44/1/26
f 59/1/27 90/1/27 58/1/27
f 46/1/28 77/1/28 45/1/28
f 60/1/29 91/1/29 59/1/29
f 47/1/30 78/1/30 46/1/30
f 33/1/31 66/1/31 34/1/31
f 61/1/32 92/1/32 60/1/32
f 48/1/33 79/1/33 47/1/33
f 35/1/34 65/1/34 33/1/34
f 62/1/35 93/1/35 61/1/35
f 119/1/36 150/1/36 118/1/36
f 70/1/37 103/1/37 102/1/37
f 85/1/38 116/1/38 84/1/38
f 71/1/39 104/1/39 103/1/39
f 85/1/40 118/1/40 117/1/40
f 72/1/41 105/1/41 104/1/41
f 87/1/42 118/1/42 86/1/42
f 73/1/43 106/1/43 105/1/43
f 88/1/44 119/1/44 87/1/44
f 74/1/45 107/1/45 106/1/45
f 89/1/46 120/1/46 88/1/46
f 75/1/47 108/1/47 107/1/47
f 90/1/48 121/1/48 89/1/48
f 76/1/49 109/1/49 108/1/49
f 90/1/50 123/1/50 122/1/50
f 77/1/51 110/1/51 109/1/51
f 92/1/52 123/1/52 91/1/52
f 79/1/53 110/1/53 78/1/53
f 66/1/54 97/1/54 98/1/54
f 92/1/55 125/1/55 124/1/55
f 80/1/56 111/1/56 79/1/56
f 65/1/57 99/1/57 97/1/57
f 94/1/58 125/1/58 93/1/58
f 81/1/59 112/1/59 80/1/59
f 67/1/60 100/1/60 99/1/60
f 95/1/61 126/1/61 94/1/61
f 82/1/62 113/1/62 81/1/62
f 68/1/63 101/1/63 100/1/63
f 95/1/64 128/1/64 127/1/64
f 83/1/65 114/1/65 82/1/65
f 69/1/66 102/1/66 101/1/66
f 96/1/67 98/1/67 128/1/67
f 145/1/3 153/1/3 130/1/3
f 106/1/20 137/1/20 105/1/20
f 120/1/68 151/1/68 119/1/68
f 107/1/69 138/1/69 106/1/69
f 121/1/70 152/1/70 120/1/70
f 108/1/71 139/1/71 107/1/71
f 122/1/72 153/1/72 121/1/72
f 109/1/73 140/1/73 108/1/73
f 123/1/74 154/1/74 122/1/74
f 110/1/75 141/1/75 109/1/75
f 124/1/29 155/1/29 123/1/29
f 111/1/76 142/1/76 110/1/76
f 97/1/31 130/1/31 98/1/31
f 125/1/77 156/1/77 124/1/77
f 112/1/78 143/1/78 111/1/78
f 99/1/79 129/1/79 97/1/79
f 126/1/80 157/1/80 125/1/80
f 113/1/2 144/1/2 112/1/2
f 100/1/5 131/1/5 99/1/5
f 127/1/81 158/1/81 126/1/81
f 114/1/7 145/1/7 113/1/7
f 101/1/82 132/1/82 100/1/82
f 128/1/9 159/1/9 127/1/9
f 115/1/83 146/1/83 114/1/83
f 102/1/84 133/1/84 101/1/84
f 98/1/12 160/1/12 128/1/12
f 116/1/85 147/1/85 115/1/85
f 103/1/86 134/1/86 102/1/86
f 117/1/87 148/1/87 116/1/87
f 104/1/88 135/1/88 103/1/88
f 118/1/89 149/1/89 117/1/89
f 105/1/90 136/1/90 104/1/90
f 3/1/1 2/1/1 1/1/1
f 1/1/1 32/1/1 31/1/1
f 31/1/1 30/1/1 29/1/1
f 29/1/1 28/1/1 27/1/1
f 27/1/91 26/1/91 25/1/91
f 25/1/91 24/1/91 23/1/91
f 23/1/1 22/1/1 21/1/1
f 21/1/1 20/1/1 19/1/1
f 19/1/1 18/1/1 17/1/1
f 17/1/1 16/1/1 15/1/1
f 15/1/1 14/1/1 13/1/1
f 13/1/1 12/1/1 11/1/1
f 11/1/92 10/1/92 9/1/92
f 9/1/92 8/1/92 7/1/92
f 7/1/1 6/1/1 5/1/1
f 5/1/1 4/1/1 3/1/1
f 3/1/1 1/1/1 31/1/1
f 31/1/1 29/1/1 27/1/1
f 27/1/1 25/1/1 23/1/1
f 23/1/93 21/1/93 19/1/93
f 19/1/1 17/1/1 15/1/1
f 15/1/1 13/1/1 11/1/1
f 11/1/1 9/1/1 7/1/1
f 7/1/94 5/1/94 3/1/94
f 3/1/1 31/1/1 27/1/1
f 27/1/1 23/1/1 19/1/1
f 19/1/1 15/1/1 11/1/1
f 11/1/1 7/1/1 3/1/1
f 3/1/1 27/1/1 19/1/1
f 49/1/2 81/1/2 80/1/2
f 8/1/3 9/1/3 41/1/3
f 22/1/3 23/1/3 55/1/3
f 9/1/3 10/1/3 42/1/3
f 23/1/3 24/1/3 56/1/3
f 10/1/3 11/1/3 43/1/3
f 24/1/3 25/1/3 57/1/3
f 11/1/3 12/1/3 44/1/3
f 25/1/3 26/1/3 58/1/3
f 12/1/3 13/1/3 45/1/3
f 26/1/3 27/1/3 59/1/3
f 13/1/3 14/1/3 46/1/3
f 27/1/3 28/1/3 60/1/3
f 14/1/3 15/1/3 47/1/3
f 1/1/3 2/1/3 33/1/3
f 28/1/3 29/1/3 61/1/3
f 15/1/3 16/1/3 48/1/3
f 2/1/3 3/1/3 35/1/3
f 29/1/3 30/1/3 62/1/3
f 16/1/3 17/1/3 49/1/3
f 3/1/3 4/1/3 36/1/3
f 30/1/3 31/1/3 63/1/3
f 17/1/3 18/1/3 50/1/3
f 4/1/3 5/1/3 37/1/3
f 31/1/3 32/1/3 64/1/3
f 18/1/3 19/1/3 51/1/3
f 5/1/3 6/1/3 38/1/3
f 32/1/3 1/1/3 34/1/3
f 19/1/3 20/1/3 52/1/3
f 6/1/3 7/1/3 39/1/3
f 20/1/3 21/1/3 53/1/3
f 7/1/3 8/1/3 40/1/3
f 21/1/3 22/1/3 54/1/3
f 84/1/95 116/1/95 115/1/95
f 36/1/5 68/1/5 67/1/5
f 63/1/96 95/1/96 94/1/96
f 50/1/7 82/1/7 81/1/7
f 37/1/82 69/1/82 68/1/82
f 64/1/97 96/1/97 95/1/97
f 51/1/83 83/1/83 82/1/83
f 38/1/98 70/1/98 69/1/98
f 34/1/12 66/1/12 96/1/12
f 52/1/85 84/1/85 83/1/85
f 39/1/14 71/1/14 70/1/14
f 53/1/99 85/1/99 84/1/99
f 40/1/100 72/1/100 71/1/100
f 54/1/89 86/1/89 85/1/89
f 41/1/90 73/1/90 72/1/90
f 55/1/101 87/1/101 86/1/101
f 42/1/102 74/1/102 73/1/102
f 56/1/103 88/1/103 87/1/103
f 43/1/104 75/1/104 74/1/104
f 57/1/23 89/1/23 88/1/23
f 44/1/24 76/1/24 75/1/24
f 58/1/25 90/1/25 89/1/25
f 45/1/105 77/1/105 76/1/105
f 59/1/106 91/1/106 90/1/106
f 46/1/107 78/1/107 77/1/107
f 60/1/108 92/1/108 91/1/108
f 47/1/30 79/1/30 78/1/30
f 33/1/31 65/1/31 66/1/31
f 61/1/109 93/1/109 92/1/109
f 48/1/33 80/1/33 79/1/33
f 35/1/34 67/1/34 65/1/34
f 62/1/110 94/1/110 93/1/110
f 119/1/101 151/1/101 150/1/101
f 70/1/111 71/1/111 103/1/111
f 85/1/112 117/1/112 116/1/112
f 71/1/113 72/1/113 104/1/113
f 85/1/40 86/1/40 118/1/40
f 72/1/114 73/1/114 105/1/114
f 87/1/115 119/1/115 118/1/115
f 73/1/116 74/1/116 106/1/116
f 88/1/44 120/1/44 119/1/44
f 74/1/45 75/1/45 107/1/45
f 89/1/117 121/1/117 120/1/117
f 75/1/47 76/1/47 108/1/47
f 90/1/118 122/1/118 121/1/118
f 76/1/49 77/1/49 109/1/49
f 90/1/50 91/1/50 123/1/50
f 77/1/51 78/1/51 110/1/51
f 92/1/119 124/1/119 123/1/119
f 79/1/53 111/1/53 110/1/53
f 66/1/54 65/1/54 97/1/54
f 92/1/120 93/1/120 125/1/120
f 80/1/121 112/1/121 111/1/121
f 65/1/122 67/1/122 99/1/122
f 94/1/123 126/1/123 125/1/123
f 81/1/124 113/1/124 112/1/124
f 67/1/60 68/1/60 100/1/60
f 95/1/61 127/1/61 126/1/61
f 82/1/125 114/1/125 113/1/125
f 68/1/126 69/1/126 101/1/126
f 95/1/127 96/1/127 128/1/127
f 83/1/65 115/1/65 114/1/65
f 69/1/128 70/1/128 102/1/128
f 96/1/129 66/1/129 98/1/129
f 130/1/130 129/1/130 131/1/130
f 131/1/131 132/1/131 133/1/131
f 133/1/3 134/1/3 135/1/3
f 135/1/3 136/1/3 137/1/3
f 137/1/3 138/1/3 139/1/3
f 139/1/132 140/1/132 141/1/132
f 141/1/131 142/1/131 143/1/131
f 143/1/133 144/1/133 145/1/133
f 145/1/130 146/1/130 147/1/130
f 147/1/134 148/1/134 149/1/134
f 149/1/135 150/1/135 151/1/135
f 151/1/3 152/1/3 153/1/3
f 153/1/3 154/1/3 155/1/3
f 155/1/3 156/1/3 157/1/3
f 157/1/134 158/1/134 159/1/134
f 159/1/133 160/1/133 130/1/133
f 130/1/3 131/1/3 133/1/3
f 133/1/133 135/1/133 137/1/133
f 137/1/133 139/1/133 141/1/133
f 141/1/3 143/1/3 145/1/3
f 145/1/3 147/1/3 149/1/3
f 149/1/130 151/1/130 153/1/130
f 153/1/130 155/1/130 157/1/130
f 157/1/3 159/1/3 130/1/3
f 130/1/3 133/1/3 137/1/3
f 137/1/3 141/1/3 145/1/3
f 145/1/3 149/1/3 153/1/3
f 153/1/3 157/1/3 130/1/3
f 130/1/3 137/1/3 145/1/3
f 106/1/20 138/1/20 137/1/20
f 120/1/68 152/1/68 151/1/68
f 107/1/136 139/1/136 138/1/136
f 121/1/70 153/1/70 152/1/70
f 108/1/71 140/1/71 139/1/71
f 122/1/72 154/1/72 153/1/72
f 109/1/137 141/1/137 140/1/137
f 123/1/74 155/1/74 154/1/74
f 110/1/138 142/1/138 141/1/138
f 124/1/139 156/1/139 155/1/139
f 111/1/30 143/1/30 142/1/30
f 97/1/31 129/1/31 130/1/31
f 125/1/32 157/1/32 156/1/32
f 112/1/78 144/1/78 143/1/78
f 99/1/79 131/1/79 129/1/79
f 126/1/80 158/1/80 157/1/80
f 113/1/2 145/1/2 144/1/2
f 100/1/140 132/1/140 131/1/140
f 127/1/6 159/1/6 158/1/6
f 114/1/7 146/1/7 145/1/7
f 101/1/141 133/1/141 132/1/141
f 128/1/9 160/1/9 159/1/9
f 115/1/83 147/1/83 146/1/83
f 102/1/142 134/1/142 133/1/142
f 98/1/12 130/1/12 160/1/12
f 116/1/143 148/1/143 147/1/143
f 103/1/86 135/1/86 134/1/86
f 117/1/87 149/1/87 148/1/87
f 104/1/144 136/1/144 135/1/144
f 118/1/89 150/1/89 149/1/89
f 105/1/90 137/1/90 136/1/90
