# Blender 4.1.1
# www.blender.org
mtllib Circle.731.mtl
o Circle.019
v -2340.861816 936.423462 -400.028656
v -2343.031494 936.423462 -399.814972
v -2345.117920 936.423462 -399.182068
v -2347.040771 936.423462 -398.154327
v -2348.726074 936.423462 -396.771210
v -2350.109131 936.423462 -395.085846
v -2351.136963 936.423462 -393.163055
v -2351.769775 936.423462 -391.076721
v -2351.983398 936.423462 -388.906982
v -2351.769775 936.423462 -386.737244
v -2351.136963 936.423462 -384.650909
v -2350.109131 936.423462 -382.728119
v -2348.726074 936.423462 -381.042755
v -2347.040771 936.423462 -379.659637
v -2345.117920 936.423462 -378.631897
v -2343.031494 936.423462 -377.998993
v -2340.861816 936.423462 -377.785309
v -2338.692139 936.423462 -377.998993
v -2336.605713 936.423462 -378.631897
v -2334.682861 936.423462 -379.659637
v -2332.997559 936.423462 -381.042755
v -2331.614502 936.423462 -382.728119
v -2330.586670 936.423462 -384.650909
v -2329.953857 936.423462 -386.737244
v -2329.740234 936.423462 -388.906982
v -2329.953857 936.423462 -391.076721
v -2330.586670 936.423462 -393.163055
v -2331.614502 936.423462 -395.085846
v -2332.997559 936.423462 -396.771210
v -2334.682861 936.423462 -398.154327
v -2336.605713 936.423462 -399.182068
v -2338.692139 936.423462 -399.814972
v -2343.031494 936.423462 -399.814972
v -2340.861816 936.423462 -400.028656
v -2345.117920 936.423462 -399.182068
v -2347.040771 936.423462 -398.154327
v -2348.726074 936.423462 -396.771210
v -2350.109131 936.423462 -395.085846
v -2351.136963 936.423462 -393.163055
v -2351.769775 936.423462 -391.076721
v -2351.983398 936.423462 -388.906982
v -2351.769775 936.423462 -386.737244
v -2351.136963 936.423462 -384.650909
v -2350.109131 936.423462 -382.728119
v -2348.726074 936.423462 -381.042755
v -2347.040771 936.423462 -379.659637
v -2345.117920 936.423462 -378.631897
v -2343.031494 936.423462 -377.998993
v -2340.861816 936.423462 -377.785309
v -2338.692139 936.423462 -377.998993
v -2336.605713 936.423462 -378.631897
v -2334.682861 936.423462 -379.659637
v -2332.997559 936.423462 -381.042755
v -2331.614502 936.423462 -382.728119
v -2330.586670 936.423462 -384.650909
v -2329.953857 936.423462 -386.737244
v -2329.740234 936.423462 -388.906982
v -2329.953857 936.423462 -391.076721
v -2330.586670 936.423462 -393.163055
v -2331.614502 936.423462 -395.085846
v -2332.997559 936.423462 -396.771210
v -2334.682861 936.423462 -398.154327
v -2336.605713 936.423462 -399.182068
v -2338.692139 936.423462 -399.814972
v -2343.031494 965.784729 -399.814972
v -2340.861816 965.784729 -400.028656
v -2345.117920 965.784729 -399.182068
v -2347.040771 965.784729 -398.154327
v -2348.726074 965.784729 -396.771210
v -2350.109131 965.784729 -395.085846
v -2351.136963 965.784729 -393.163055
v -2351.769775 965.784729 -391.076721
v -2351.983398 965.784729 -388.906982
v -2351.769775 965.784729 -386.737244
v -2351.136963 965.784729 -384.650909
v -2350.109131 965.784729 -382.728119
v -2348.726074 965.784729 -381.042755
v -2347.040771 965.784729 -379.659637
v -2345.117920 965.784729 -378.631897
v -2343.031494 965.784729 -377.998993
v -2340.861816 965.784729 -377.785309
v -2338.692139 965.784729 -377.998993
v -2336.605713 965.784729 -378.631897
v -2334.682861 965.784729 -379.659637
v -2332.997559 965.784729 -381.042755
v -2331.614502 965.784729 -382.728119
v -2330.586670 965.784729 -384.650909
v -2329.953857 965.784729 -386.737244
v -2329.740234 965.784729 -388.906982
v -2329.953857 965.784729 -391.076721
v -2330.586670 965.784729 -393.163055
v -2331.614502 965.784729 -395.085846
v -2332.997559 965.784729 -396.771210
v -2334.682861 965.784729 -398.154327
v -2336.605713 965.784729 -399.182068
v -2338.692139 965.784729 -399.814972
v -2344.527100 967.135864 -407.335663
v -2340.861572 967.135864 -407.696716
v -2348.052002 967.135864 -406.266449
v -2351.300293 967.135864 -404.530151
v -2354.147705 967.135864 -402.193451
v -2356.484375 967.135864 -399.346191
v -2358.220703 967.135864 -396.097778
v -2359.289795 967.135864 -392.573059
v -2359.650879 967.135864 -388.907440
v -2359.289795 967.135864 -385.241852
v -2358.220703 967.135864 -381.717102
v -2356.484375 967.135864 -378.468689
v -2354.147705 967.135864 -375.621429
v -2351.300293 967.135864 -373.284760
v -2348.052002 967.135864 -371.548431
v -2344.527100 967.135864 -370.479218
v -2340.861572 967.135864 -370.118195
v -2337.196045 967.135864 -370.479218
v -2333.671143 967.135864 -371.548431
v -2330.422852 967.135864 -373.284760
v -2327.575684 967.135864 -375.621429
v -2325.238770 967.135864 -378.468689
v -2323.502686 967.135864 -381.717102
v -2322.433350 967.135864 -385.241852
v -2322.072266 967.135864 -388.907440
v -2322.433350 967.135864 -392.573059
v -2323.502686 967.135864 -396.097778
v -2325.238770 967.135864 -399.346191
v -2327.575684 967.135864 -402.193451
v -2330.422852 967.135864 -404.530151
v -2333.671143 967.135864 -406.266449
v -2337.196045 967.135864 -407.335663
v -2344.527100 977.101624 -407.335663
v -2340.861572 977.101624 -407.696716
v -2348.052002 977.101624 -406.266449
v -2351.300293 977.101624 -404.530151
v -2354.147705 977.101624 -402.193451
v -2356.484375 977.101624 -399.346191
v -2358.220703 977.101624 -396.097778
v -2359.289795 977.101624 -392.573059
v -2359.650879 977.101624 -388.907440
v -2359.289795 977.101624 -385.241852
v -2358.220703 977.101624 -381.717102
v -2356.484375 977.101624 -378.468689
v -2354.147705 977.101624 -375.621429
v -2351.300293 977.101624 -373.284760
v -2348.052002 977.101624 -371.548431
v -2344.527100 977.101624 -370.479218
v -2340.861572 977.101624 -370.118195
v -2337.196045 977.101624 -370.479218
v -2333.671143 977.101624 -371.548431
v -2330.422852 977.101624 -373.284760
v -2327.575684 977.101624 -375.621429
v -2325.238770 977.101624 -378.468689
v -2323.502686 977.101624 -381.717102
v -2322.433350 977.101624 -385.241852
v -2322.072266 977.101624 -388.907440
v -2322.433350 977.101624 -392.573059
v -2323.502686 977.101624 -396.097778
v -2325.238770 977.101624 -399.346191
v -2327.575684 977.101624 -402.193451
v -2330.422852 977.101624 -404.530151
v -2333.671143 977.101624 -406.266449
v -2337.196045 977.101624 -407.335663
vn -0.0000 -1.0000 -0.0000
vn -0.0980 -0.0000 0.9952
vn -0.0000 1.0000 -0.0000
vn 0.0821 -0.9847 0.1538
vn -0.4714 -0.0000 -0.8819
vn 0.4714 -0.0000 -0.8819
vn 0.0980 -0.0000 0.9952
vn -0.6345 -0.0000 -0.7729
vn 0.2903 -0.0000 -0.9569
vn 0.2903 -0.0000 0.9569
vn -0.7730 -0.0000 -0.6344
vn 0.0980 -0.0000 -0.9952
vn 0.4714 -0.0000 0.8819
vn -0.8818 -0.0000 -0.4715
vn 0.6344 -0.0000 0.7730
vn -0.9570 -0.0000 -0.2902
vn 0.7730 -0.0000 0.6344
vn -0.9952 -0.0000 -0.0979
vn 0.8819 -0.0000 0.4713
vn -0.9952 -0.0000 0.0981
vn 0.9570 -0.0000 0.2902
vn -0.9570 -0.0000 0.2902
vn 0.9952 -0.0000 0.0979
vn -0.8819 -0.0000 0.4713
vn 0.9952 -0.0000 -0.0981
vn -0.7730 -0.0000 0.6344
vn 0.9570 -0.0000 -0.2902
vn -0.6344 -0.0000 0.7730
vn 0.8818 -0.0000 -0.4715
vn -0.4713 -0.0000 0.8820
vn -0.0980 -0.0000 -0.9952
vn 0.7730 -0.0000 -0.6344
vn -0.2903 -0.0000 0.9569
vn -0.2903 -0.0000 -0.9569
vn 0.6344 -0.0000 -0.7730
vn 0.8819 -0.0000 0.4714
vn -0.1537 -0.9847 -0.0822
vn 0.1106 -0.9847 0.1348
vn -0.1668 -0.9847 -0.0506
vn 0.1348 -0.9847 0.1106
vn -0.1735 -0.9847 -0.0171
vn 0.1538 -0.9847 0.0822
vn -0.1735 -0.9847 0.0171
vn 0.1668 -0.9847 0.0506
vn -0.1668 -0.9847 0.0506
vn 0.1735 -0.9847 0.0171
vn -0.1538 -0.9847 0.0822
vn 0.1735 -0.9847 -0.0171
vn -0.1348 -0.9847 0.1106
vn 0.1669 -0.9847 -0.0506
vn -0.1106 -0.9847 0.1348
vn 0.1538 -0.9847 -0.0822
vn -0.0822 -0.9847 0.1538
vn -0.0171 -0.9847 -0.1735
vn 0.1348 -0.9847 -0.1106
vn -0.0506 -0.9847 0.1669
vn -0.0506 -0.9847 -0.1668
vn 0.1106 -0.9847 -0.1348
vn -0.0171 -0.9847 0.1736
vn -0.0822 -0.9847 -0.1538
vn 0.0822 -0.9847 -0.1538
vn 0.0171 -0.9847 0.1736
vn -0.1106 -0.9847 -0.1348
vn 0.0506 -0.9847 -0.1668
vn 0.0506 -0.9847 0.1668
vn -0.1348 -0.9847 -0.1106
vn 0.0171 -0.9847 -0.1735
vn 0.9569 -0.0000 0.2903
vn -0.9570 -0.0000 0.2901
vn 0.9952 -0.0000 0.0980
vn -0.8820 -0.0000 0.4713
vn 0.9569 -0.0000 -0.2903
vn 0.8820 -0.0000 -0.4713
vn -0.4715 -0.0000 0.8819
vn 0.4715 -0.0000 -0.8819
vn -0.6343 -0.0000 -0.7730
vn -0.8819 -0.0000 -0.4714
vn -0.9569 -0.0000 -0.2904
vn -0.9952 -0.0000 -0.0980
vn 0.0001 -1.0000 -0.0000
vn -0.0001 -1.0000 -0.0000
vn -0.0003 -1.0000 -0.0000
vn 0.0003 -1.0000 -0.0000
vn 0.0822 -0.9847 0.1538
vn -0.4713 -0.0000 -0.8820
vn -0.6344 -0.0000 -0.7730
vn -0.8819 -0.0000 -0.4713
vn -0.9952 -0.0000 -0.0981
vn 0.8818 -0.0000 0.4715
vn -0.9952 -0.0000 0.0979
vn 0.9952 -0.0000 0.0981
vn -0.8818 -0.0000 0.4715
vn 0.9952 -0.0000 -0.0979
vn -0.6345 -0.0000 0.7729
vn 0.8819 -0.0000 -0.4713
vn -0.4714 -0.0000 0.8819
vn 0.8820 -0.0000 0.4713
vn -0.1538 -0.9847 -0.0822
vn -0.1669 -0.9847 -0.0506
vn 0.1347 -0.9847 0.1106
vn 0.1668 -0.9847 -0.0506
vn 0.1537 -0.9847 -0.0822
vn -0.0821 -0.9847 0.1538
vn -0.0506 -0.9847 0.1668
vn -0.0506 -0.9847 -0.1669
vn 0.1106 -0.9847 -0.1347
vn -0.0171 -0.9847 0.1735
vn -0.0822 -0.9847 -0.1537
vn 0.0171 -0.9847 0.1735
vn 0.0506 -0.9847 0.1669
vn 0.0002 1.0000 -0.0000
vn 0.0001 1.0000 -0.0000
vn -0.0002 1.0000 -0.0000
vn -0.0001 1.0000 -0.0000
vn -0.9952 -0.0000 0.0980
vn -0.9569 -0.0000 0.2904
vn -0.8819 -0.0000 0.4714
vn 0.9952 -0.0000 -0.0980
vn -0.6343 -0.0000 0.7731
vn 0.8819 -0.0000 -0.4714
vn -0.4715 -0.0000 -0.8819
vn 0.4715 -0.0000 0.8819
vn -0.8820 -0.0000 -0.4713
vn -0.9570 -0.0000 -0.2901
vt 0.000000 0.000000
s 0
usemtl Material.003
f 19/1/1 11/1/1 3/1/1
f 49/1/2 80/1/2 48/1/2
f 8/1/3 41/1/3 40/1/3
f 22/1/3 55/1/3 54/1/3
f 9/1/3 42/1/3 41/1/3
f 23/1/3 56/1/3 55/1/3
f 10/1/3 43/1/3 42/1/3
f 24/1/3 57/1/3 56/1/3
f 11/1/3 44/1/3 43/1/3
f 25/1/3 58/1/3 57/1/3
f 12/1/3 45/1/3 44/1/3
f 26/1/3 59/1/3 58/1/3
f 13/1/3 46/1/3 45/1/3
f 27/1/3 60/1/3 59/1/3
f 14/1/3 47/1/3 46/1/3
f 1/1/3 33/1/3 34/1/3
f 28/1/3 61/1/3 60/1/3
f 15/1/3 48/1/3 47/1/3
f 2/1/3 35/1/3 33/1/3
f 29/1/3 62/1/3 61/1/3
f 16/1/3 49/1/3 48/1/3
f 3/1/3 36/1/3 35/1/3
f 30/1/3 63/1/3 62/1/3
f 17/1/3 50/1/3 49/1/3
f 4/1/3 37/1/3 36/1/3
f 31/1/3 64/1/3 63/1/3
f 18/1/3 51/1/3 50/1/3
f 5/1/3 38/1/3 37/1/3
f 32/1/3 34/1/3 64/1/3
f 19/1/3 52/1/3 51/1/3
f 6/1/3 39/1/3 38/1/3
f 20/1/3 53/1/3 52/1/3
f 7/1/3 40/1/3 39/1/3
f 21/1/3 54/1/3 53/1/3
f 84/1/4 115/1/4 83/1/4
f 36/1/5 67/1/5 35/1/5
f 63/1/6 94/1/6 62/1/6
f 50/1/7 81/1/7 49/1/7
f 37/1/8 68/1/8 36/1/8
f 64/1/9 95/1/9 63/1/9
f 51/1/10 82/1/10 50/1/10
f 38/1/11 69/1/11 37/1/11
f 34/1/12 96/1/12 64/1/12
f 52/1/13 83/1/13 51/1/13
f 39/1/14 70/1/14 38/1/14
f 53/1/15 84/1/15 52/1/15
f 40/1/16 71/1/16 39/1/16
f 54/1/17 85/1/17 53/1/17
f 41/1/18 72/1/18 40/1/18
f 55/1/19 86/1/19 54/1/19
f 42/1/20 73/1/20 41/1/20
f 56/1/21 87/1/21 55/1/21
f 43/1/22 74/1/22 42/1/22
f 57/1/23 88/1/23 56/1/23
f 44/1/24 75/1/24 43/1/24
f 58/1/25 89/1/25 57/1/25
f 45/1/26 76/1/26 44/1/26
f 59/1/27 90/1/27 58/1/27
f 46/1/28 77/1/28 45/1/28
f 60/1/29 91/1/29 59/1/29
f 47/1/30 78/1/30 46/1/30
f 33/1/31 66/1/31 34/1/31
f 61/1/32 92/1/32 60/1/32
f 48/1/33 79/1/33 47/1/33
f 35/1/34 65/1/34 33/1/34
f 62/1/35 93/1/35 61/1/35
f 119/1/36 150/1/36 118/1/36
f 70/1/37 103/1/37 102/1/37
f 85/1/38 116/1/38 84/1/38
f 71/1/39 104/1/39 103/1/39
f 86/1/40 117/1/40 85/1/40
f 72/1/41 105/1/41 104/1/41
f 87/1/42 118/1/42 86/1/42
f 74/1/43 105/1/43 73/1/43
f 88/1/44 119/1/44 87/1/44
f 74/1/45 107/1/45 106/1/45
f 89/1/46 120/1/46 88/1/46
f 75/1/47 108/1/47 107/1/47
f 90/1/48 121/1/48 89/1/48
f 76/1/49 109/1/49 108/1/49
f 91/1/50 122/1/50 90/1/50
f 77/1/51 110/1/51 109/1/51
f 92/1/52 123/1/52 91/1/52
f 78/1/53 111/1/53 110/1/53
f 66/1/54 97/1/54 98/1/54
f 93/1/55 124/1/55 92/1/55
f 80/1/56 111/1/56 79/1/56
f 65/1/57 99/1/57 97/1/57
f 94/1/58 125/1/58 93/1/58
f 81/1/59 112/1/59 80/1/59
f 67/1/60 100/1/60 99/1/60
f 95/1/61 126/1/61 94/1/61
f 82/1/62 113/1/62 81/1/62
f 68/1/63 101/1/63 100/1/63
f 95/1/64 128/1/64 127/1/64
f 83/1/65 114/1/65 82/1/65
f 69/1/66 102/1/66 101/1/66
f 96/1/67 98/1/67 128/1/67
f 145/1/3 153/1/3 130/1/3
f 106/1/20 137/1/20 105/1/20
f 120/1/68 151/1/68 119/1/68
f 107/1/69 138/1/69 106/1/69
f 121/1/70 152/1/70 120/1/70
f 108/1/71 139/1/71 107/1/71
f 122/1/25 153/1/25 121/1/25
f 109/1/26 140/1/26 108/1/26
f 123/1/72 154/1/72 122/1/72
f 110/1/28 141/1/28 109/1/28
f 124/1/73 155/1/73 123/1/73
f 111/1/74 142/1/74 110/1/74
f 97/1/31 130/1/31 98/1/31
f 125/1/32 156/1/32 124/1/32
f 112/1/33 143/1/33 111/1/33
f 99/1/34 129/1/34 97/1/34
f 126/1/35 157/1/35 125/1/35
f 113/1/2 144/1/2 112/1/2
f 100/1/5 131/1/5 99/1/5
f 127/1/75 158/1/75 126/1/75
f 114/1/7 145/1/7 113/1/7
f 101/1/76 132/1/76 100/1/76
f 128/1/9 159/1/9 127/1/9
f 115/1/10 146/1/10 114/1/10
f 102/1/11 133/1/11 101/1/11
f 98/1/12 160/1/12 128/1/12
f 116/1/13 147/1/13 115/1/13
f 103/1/77 134/1/77 102/1/77
f 117/1/15 148/1/15 116/1/15
f 104/1/78 135/1/78 103/1/78
f 118/1/17 149/1/17 117/1/17
f 105/1/79 136/1/79 104/1/79
f 3/1/80 2/1/80 1/1/80
f 1/1/81 32/1/81 31/1/81
f 31/1/82 30/1/82 29/1/82
f 29/1/83 28/1/83 27/1/83
f 27/1/1 26/1/1 25/1/1
f 25/1/1 24/1/1 23/1/1
f 23/1/83 22/1/83 21/1/83
f 21/1/82 20/1/82 19/1/82
f 19/1/81 18/1/81 17/1/81
f 17/1/80 16/1/80 15/1/80
f 15/1/83 14/1/83 13/1/83
f 13/1/82 12/1/82 11/1/82
f 11/1/1 10/1/1 9/1/1
f 9/1/1 8/1/1 7/1/1
f 7/1/82 6/1/82 5/1/82
f 5/1/83 4/1/83 3/1/83
f 3/1/1 1/1/1 31/1/1
f 31/1/80 29/1/80 27/1/80
f 27/1/1 25/1/1 23/1/1
f 23/1/80 21/1/80 19/1/80
f 19/1/1 17/1/1 15/1/1
f 15/1/81 13/1/81 11/1/81
f 11/1/1 9/1/1 7/1/1
f 7/1/81 5/1/81 3/1/81
f 3/1/1 31/1/1 27/1/1
f 27/1/1 23/1/1 19/1/1
f 19/1/1 15/1/1 11/1/1
f 11/1/1 7/1/1 3/1/1
f 3/1/1 27/1/1 19/1/1
f 49/1/2 81/1/2 80/1/2
f 8/1/3 9/1/3 41/1/3
f 22/1/3 23/1/3 55/1/3
f 9/1/3 10/1/3 42/1/3
f 23/1/3 24/1/3 56/1/3
f 10/1/3 11/1/3 43/1/3
f 24/1/3 25/1/3 57/1/3
f 11/1/3 12/1/3 44/1/3
f 25/1/3 26/1/3 58/1/3
f 12/1/3 13/1/3 45/1/3
f 26/1/3 27/1/3 59/1/3
f 13/1/3 14/1/3 46/1/3
f 27/1/3 28/1/3 60/1/3
f 14/1/3 15/1/3 47/1/3
f 1/1/3 2/1/3 33/1/3
f 28/1/3 29/1/3 61/1/3
f 15/1/3 16/1/3 48/1/3
f 2/1/3 3/1/3 35/1/3
f 29/1/3 30/1/3 62/1/3
f 16/1/3 17/1/3 49/1/3
f 3/1/3 4/1/3 36/1/3
f 30/1/3 31/1/3 63/1/3
f 17/1/3 18/1/3 50/1/3
f 4/1/3 5/1/3 37/1/3
f 31/1/3 32/1/3 64/1/3
f 18/1/3 19/1/3 51/1/3
f 5/1/3 6/1/3 38/1/3
f 32/1/3 1/1/3 34/1/3
f 19/1/3 20/1/3 52/1/3
f 6/1/3 7/1/3 39/1/3
f 20/1/3 21/1/3 53/1/3
f 7/1/3 8/1/3 40/1/3
f 21/1/3 22/1/3 54/1/3
f 84/1/84 116/1/84 115/1/84
f 36/1/85 68/1/85 67/1/85
f 63/1/6 95/1/6 94/1/6
f 50/1/7 82/1/7 81/1/7
f 37/1/86 69/1/86 68/1/86
f 64/1/9 96/1/9 95/1/9
f 51/1/10 83/1/10 82/1/10
f 38/1/11 70/1/11 69/1/11
f 34/1/12 66/1/12 96/1/12
f 52/1/13 84/1/13 83/1/13
f 39/1/87 71/1/87 70/1/87
f 53/1/15 85/1/15 84/1/15
f 40/1/16 72/1/16 71/1/16
f 54/1/17 86/1/17 85/1/17
f 41/1/88 73/1/88 72/1/88
f 55/1/89 87/1/89 86/1/89
f 42/1/90 74/1/90 73/1/90
f 56/1/21 88/1/21 87/1/21
f 43/1/22 75/1/22 74/1/22
f 57/1/91 89/1/91 88/1/91
f 44/1/92 76/1/92 75/1/92
f 58/1/93 90/1/93 89/1/93
f 45/1/26 77/1/26 76/1/26
f 59/1/27 91/1/27 90/1/27
f 46/1/94 78/1/94 77/1/94
f 60/1/95 92/1/95 91/1/95
f 47/1/96 79/1/96 78/1/96
f 33/1/31 65/1/31 66/1/31
f 61/1/32 93/1/32 92/1/32
f 48/1/33 80/1/33 79/1/33
f 35/1/34 67/1/34 65/1/34
f 62/1/35 94/1/35 93/1/35
f 119/1/97 151/1/97 150/1/97
f 70/1/98 71/1/98 103/1/98
f 85/1/38 117/1/38 116/1/38
f 71/1/99 72/1/99 104/1/99
f 86/1/100 118/1/100 117/1/100
f 72/1/41 73/1/41 105/1/41
f 87/1/42 119/1/42 118/1/42
f 74/1/43 106/1/43 105/1/43
f 88/1/44 120/1/44 119/1/44
f 74/1/45 75/1/45 107/1/45
f 89/1/46 121/1/46 120/1/46
f 75/1/47 76/1/47 108/1/47
f 90/1/48 122/1/48 121/1/48
f 76/1/49 77/1/49 109/1/49
f 91/1/101 123/1/101 122/1/101
f 77/1/51 78/1/51 110/1/51
f 92/1/102 124/1/102 123/1/102
f 78/1/103 79/1/103 111/1/103
f 66/1/54 65/1/54 97/1/54
f 93/1/55 125/1/55 124/1/55
f 80/1/104 112/1/104 111/1/104
f 65/1/105 67/1/105 99/1/105
f 94/1/106 126/1/106 125/1/106
f 81/1/107 113/1/107 112/1/107
f 67/1/108 68/1/108 100/1/108
f 95/1/61 127/1/61 126/1/61
f 82/1/109 114/1/109 113/1/109
f 68/1/63 69/1/63 101/1/63
f 95/1/64 96/1/64 128/1/64
f 83/1/110 115/1/110 114/1/110
f 69/1/66 70/1/66 102/1/66
f 96/1/67 66/1/67 98/1/67
f 130/1/3 129/1/3 131/1/3
f 131/1/3 132/1/3 133/1/3
f 133/1/3 134/1/3 135/1/3
f 135/1/3 136/1/3 137/1/3
f 137/1/111 138/1/111 139/1/111
f 139/1/3 140/1/3 141/1/3
f 141/1/112 142/1/112 143/1/112
f 143/1/3 144/1/3 145/1/3
f 145/1/3 146/1/3 147/1/3
f 147/1/3 148/1/3 149/1/3
f 149/1/3 150/1/3 151/1/3
f 151/1/113 152/1/113 153/1/113
f 153/1/3 154/1/3 155/1/3
f 155/1/3 156/1/3 157/1/3
f 157/1/114 158/1/114 159/1/114
f 159/1/3 160/1/3 130/1/3
f 130/1/3 131/1/3 133/1/3
f 133/1/3 135/1/3 137/1/3
f 137/1/3 139/1/3 141/1/3
f 141/1/3 143/1/3 145/1/3
f 145/1/3 147/1/3 149/1/3
f 149/1/3 151/1/3 153/1/3
f 153/1/3 155/1/3 157/1/3
f 157/1/3 159/1/3 130/1/3
f 130/1/3 133/1/3 137/1/3
f 137/1/3 141/1/3 145/1/3
f 145/1/3 149/1/3 153/1/3
f 153/1/3 157/1/3 130/1/3
f 130/1/3 137/1/3 145/1/3
f 106/1/115 138/1/115 137/1/115
f 120/1/68 152/1/68 151/1/68
f 107/1/116 139/1/116 138/1/116
f 121/1/91 153/1/91 152/1/91
f 108/1/117 140/1/117 139/1/117
f 122/1/118 154/1/118 153/1/118
f 109/1/26 141/1/26 140/1/26
f 123/1/72 155/1/72 154/1/72
f 110/1/119 142/1/119 141/1/119
f 124/1/120 156/1/120 155/1/120
f 111/1/96 143/1/96 142/1/96
f 97/1/31 129/1/31 130/1/31
f 125/1/32 157/1/32 156/1/32
f 112/1/33 144/1/33 143/1/33
f 99/1/34 131/1/34 129/1/34
f 126/1/35 158/1/35 157/1/35
f 113/1/2 145/1/2 144/1/2
f 100/1/121 132/1/121 131/1/121
f 127/1/6 159/1/6 158/1/6
f 114/1/7 146/1/7 145/1/7
f 101/1/86 133/1/86 132/1/86
f 128/1/9 160/1/9 159/1/9
f 115/1/10 147/1/10 146/1/10
f 102/1/11 134/1/11 133/1/11
f 98/1/12 130/1/12 160/1/12
f 116/1/122 148/1/122 147/1/122
f 103/1/123 135/1/123 134/1/123
f 117/1/15 149/1/15 148/1/15
f 104/1/124 136/1/124 135/1/124
f 118/1/17 150/1/17 149/1/17
f 105/1/88 137/1/88 136/1/88
